<?xml version="1.0" standalone="no"?>
<!DOCTYPE svg PUBLIC "-//W3C//DTD SVG 1.1//EN" "http://www.w3.org/Graphics/SVG/1.1/DTD/svg11.dtd" >
<svg xmlns="http://www.w3.org/2000/svg" xmlns:xlink="http://www.w3.org/1999/xlink" version="1.1">
<metadata>
Created by FontForge 20201107 at Thu Aug 14 22:38:24 2025
 By 
C 2016 Sharp Type Corporation
</metadata>
<defs>
<font id="SharpGrotesk-LightItalic15" horiz-adv-x="952" >
  <font-face 
    font-family="Sharp Grotesk Light Italic 15"
    font-weight="300"
    font-style="italic"
    font-stretch="semi-condensed"
    units-per-em="2048"
    panose-1="0 0 4 6 0 0 0 0 0 0"
    ascent="1638"
    descent="-410"
    x-height="1163"
    cap-height="1450"
    bbox="-219 -496 2199.06 2154"
    underline-thickness="102"
    underline-position="-153"
    unicode-range="U+0020-3009"
  />
<missing-glyph horiz-adv-x="124" 
 />
    <glyph glyph-name=".notdef" horiz-adv-x="124" 
 />
    <glyph glyph-name=".null" horiz-adv-x="0" 
 />
    <glyph glyph-name="nonmarkingreturn" horiz-adv-x="682" 
 />
    <glyph glyph-name="space" unicode=" " horiz-adv-x="464" 
 />
    <glyph glyph-name="exclam" unicode="!" horiz-adv-x="526" 
d="M178 303q0 6 10 78q7 39 26 163.5t32 203.5q37 243 71 438l48 266h102l-47 -264q-6 -38 -20.5 -115t-18.5 -98q-5 -27 -84 -436q-41 -213 -49 -236q-6 2 -35 2t-35 -2zM160 -16q-83 0 -68 102q15 94 101 94q85 0 65 -104q-7 -49 -31 -70.5t-67 -21.5z" />
    <glyph glyph-name="quotedbl" unicode="&#x22;" horiz-adv-x="530" 
d="M195 977q6 65 10 96q6 50 21 145t18 117l20 115h90l-20 -115q-7 -39 -25 -125q-29 -156 -55 -233h-59zM416 977q0 39 8 96q15 127 41 262l18 115h92l-20 -115q-7 -39 -25 -125q-8 -34 -20.5 -90.5t-20.5 -90.5t-14 -52h-59z" />
    <glyph glyph-name="numbersign" unicode="#" horiz-adv-x="1341" 
d="M768 494h-307l-160 -494h-96l162 494h-287l14 88h301l111 340h-291l14 88h308l143 440h92l-143 -440h309l143 440h93l-144 -440h293l-14 -88h-308l-110 -340h299l-14 -88h-314l-162 -494h-94zM907 922h-307l-111 -340h308z" />
    <glyph glyph-name="dollar" unicode="$" horiz-adv-x="956" 
d="M295 -252l41 238q-164 23 -236.5 128t-40.5 279l21 107h100l-20 -113q-26 -156 41 -235.5t219 -79.5q140 0 211.5 66.5t93.5 189.5l4 32q15 98 -20 160q-22 40 -63 78t-77 61.5t-96 57.5q-72 46 -141 94q-74 59 -106 135.5t-13 186.5l4 30q24 144 125.5 223.5t249.5 79.5
h10l41 238h90l-43 -246q147 -26 211.5 -121.5t40.5 -232.5l-18 -103h-99l17 99q24 128 -39 204t-215 76q-110 0 -182.5 -57t-90.5 -168l-6 -31q-15 -94 19 -155q32 -55 87 -98t144 -95q94 -59 143 -96q75 -60 109 -137t16 -191l-6 -33q-56 -339 -393 -339l-41 -232h-92z" />
    <glyph glyph-name="percent" unicode="%" horiz-adv-x="1193" 
d="M385 864q-121 0 -168 69t-27 185l29 146q17 98 75 150t152 52q114 0 167 -66.5t32 -176.5l-27 -156q-36 -203 -233 -203zM1118 1450h103l-1090 -1450h-106zM389 940q67 0 103.5 34t48.5 105l24 148q17 78 -15.5 121t-100.5 43q-65 0 -103 -32.5t-51 -103.5l-25 -141
q-14 -82 15.5 -128t103.5 -46zM793 -20q-121 0 -168 68.5t-27 184.5l29 148q17 98 76 150.5t153 52.5q114 0 167 -67t32 -177l-29 -158q-36 -202 -233 -202zM797 55q129 0 153 140l27 149q17 77 -17 120.5t-102 43.5q-65 0 -102.5 -32t-50.5 -103l-27 -146
q-14 -81 15.5 -126.5t103.5 -45.5z" />
    <glyph glyph-name="ampersand" unicode="&#x26;" horiz-adv-x="1212" 
d="M942 -14q-116 0 -215 102q-150 -106 -342 -106q-189 0 -285.5 106t-64.5 291v4q14 91 71 168q49 64 120 117t182 120q-41 209 -7 383l2 19q29 133 105.5 204.5t191.5 71.5q120 0 183 -73t43 -189l-2 -14q-14 -94 -80 -176q-38 -48 -98 -97.5t-107 -80.5t-131 -84
q29 -124 67 -224q75 -203 175 -325q242 219 319 686l14 80h91l-13 -80q-39 -239 -130.5 -431.5t-227.5 -312.5q82 -73 155 -73q58 0 111 41l-14 -97q-52 -30 -113 -30zM489 1167q-25 -146 3 -336q51 32 157 107q81 61 128.5 124t60.5 142v13q14 74 -27 121.5t-119 47.5
q-77 0 -128.5 -52t-71.5 -150zM397 68q153 0 277 79q-101 130 -178 347q-56 161 -70 215q-128 -86 -137 -93q-66 -48 -105.5 -104t-52.5 -135l-2 -4q-23 -140 49.5 -222.5t218.5 -82.5z" />
    <glyph glyph-name="quotesingle" unicode="'" horiz-adv-x="309" 
d="M197 977q0 37 8 92q2 14 37 254l22 127h90l-22 -127q-5 -28 -25 -123q-30 -154 -53 -223h-57z" />
    <glyph glyph-name="parenleft" unicode="(" horiz-adv-x="645" 
d="M403 -375q-200 21 -280 176.5t-23 470.5l111 635q57 315 187.5 463t340.5 162l-16 -94q-156 -14 -260 -144.5t-152 -398.5l-110 -633q-92 -512 219 -541z" />
    <glyph glyph-name="parenright" unicode=")" horiz-adv-x="645" 
d="M-74 -279q158 14 261 143.5t151 399.5l111 633q48 268 -10 396.5t-210 142.5l17 96q413 -40 303 -645l-111 -635q-57 -315 -188 -464t-340 -161z" />
    <glyph glyph-name="asterisk" unicode="*" horiz-adv-x="694" 
d="M471 1206l-10 -239h-88l76 239l-216 -149l-30 76l239 90l-209 90l58 76l164 -148l10 240h88l-76 -240l215 148l29 -74l-240 -90l209 -92l-55 -76z" />
    <glyph glyph-name="plus" unicode="+" horiz-adv-x="933" 
d="M528 674l-45 -258h-90l45 258h-260l17 88h260l45 258h90l-45 -258h264l-14 -88h-267z" />
    <glyph glyph-name="comma" unicode="," horiz-adv-x="495" 
d="M25 -170q105 49 139 168q-12 -10 -33 -10q-67 0 -53 90q15 96 100 96q46 0 62.5 -31.5t3.5 -101.5q-35 -194 -213 -268z" />
    <glyph glyph-name="hyphen" unicode="-" horiz-adv-x="864" 
d="M133 668h633l-16 -97h-633z" />
    <glyph glyph-name="period" unicode="." horiz-adv-x="495" 
d="M150 -16q-85 0 -70 102q15 94 100 94q88 0 68 -104q-7 -49 -31 -70.5t-67 -21.5z" />
    <glyph glyph-name="slash" unicode="/" horiz-adv-x="583" 
d="M565 1450h101l-590 -1450h-101z" />
    <glyph glyph-name="zero" unicode="0" horiz-adv-x="1052" 
d="M461 -20q-219 0 -303.5 130t-44.5 361l24 139q7 41 22.5 130t22.5 130l25 142q42 238 151 346t289 108q199 0 296.5 -125t57.5 -352l-100 -563q-39 -231 -140 -338.5t-300 -107.5zM471 74q145 0 220 84.5t108 273.5l102 563q32 188 -34 284.5t-230 96.5
q-135 0 -214.5 -86t-113.5 -286l-96 -539q-67 -391 258 -391z" />
    <glyph glyph-name="one" unicode="1" horiz-adv-x="675" 
d="M-33 0l17 96h225l201 1139q-76 -73 -197 -76l16 82q96 4 147 51.5t87 159.5h80l-238 -1356h230l-17 -96h-551z" />
    <glyph glyph-name="two" unicode="2" horiz-adv-x="950" 
d="M4 0l14 86q24 137 95 236q61 91 144.5 164.5t203.5 158.5q100 72 166 125q181 140 204 299l9 47q23 123 -37 191.5t-189 68.5q-130 0 -202.5 -69t-96.5 -207l-34 -185h-99l35 201q64 350 401 350q180 0 266 -100t56 -258l-8 -45q-22 -118 -80 -195q-29 -40 -63.5 -76.5
t-85.5 -77.5t-78 -61.5t-93 -68.5q-127 -92 -176 -133q-192 -157 -227 -355h645l-16 -96h-754z" />
    <glyph glyph-name="three" unicode="3" horiz-adv-x="974" 
d="M408 -20q-152 0 -232 57q-148 109 -96 420l8 47h100l-8 -55q-34 -188 16.5 -281.5t217.5 -93.5q144 0 214 71.5t101 241.5l2 25q25 138 -26.5 215.5t-180.5 77.5h-125l15 90h125q122 0 194.5 73t97.5 197l5 20q28 150 -35 220.5t-197 70.5q-140 0 -211.5 -73.5
t-103.5 -258.5l-8 -49h-101l4 17l9 49q37 216 135 310.5t280 94.5q187 0 275 -99t53 -288l-2 -12q-51 -262 -260 -315q212 -60 160 -355l-5 -20q-37 -210 -133.5 -303.5t-287.5 -93.5z" />
    <glyph glyph-name="four" unicode="4" horiz-adv-x="944" 
d="M856 367h-197l-63 -367h-92l63 367h-549l15 77l725 1006h92l-174 -995h196zM694 1231l-555 -776h445l133 766l43 135z" />
    <glyph glyph-name="five" unicode="5" horiz-adv-x="985" 
d="M410 -20q-199 0 -276.5 103t-45.5 286l21 114h102l-21 -123q-24 -141 29 -214.5t199 -73.5q264 0 315 288l49 283q23 133 -32 202.5t-179 69.5q-178 0 -305 -188l-28 -41l-78 27l202 737h621v-2q-9 -39 -20 -59q-13 -18 -41 -24.5t-88 -6.5h-406q-53 -196 -72 -258
q-14 -54 -39.5 -147t-33.5 -126q60 85 134.5 131t182.5 46q162 0 238 -96t45 -269l-52 -291q-32 -182 -139 -275t-282 -93z" />
    <glyph glyph-name="six" unicode="6" horiz-adv-x="1017" 
d="M881 401q-39 -218 -138 -319.5t-292 -101.5q-153 0 -234 63q-162 117 -106 432l24 137q7 41 22.5 130t22.5 130l25 140q42 240 147.5 347t284.5 107q123 0 211 -51q188 -114 137 -409l-4 -13h-100l2 13q66 370 -252 370q-138 0 -215.5 -85.5t-112.5 -286.5l-55 -310
q94 187 319 187q110 0 193 -50q85 -51 120.5 -143t12.5 -219zM461 74q143 0 215.5 78.5t103.5 255.5l13 65q24 143 -44.5 230.5t-216.5 87.5q-120 0 -200.5 -64.5t-110.5 -177.5l-14 -82q-33 -194 27.5 -293.5t226.5 -99.5z" />
    <glyph glyph-name="seven" unicode="7" horiz-adv-x="843" 
d="M131 0q87 267 205 514q210 444 483 842h-624l16 94h729l-14 -84q-116 -172 -250 -397q-284 -486 -438 -969h-107z" />
    <glyph glyph-name="eight" unicode="8" horiz-adv-x="980" 
d="M403 -20q-419 0 -342 407l11 66q24 123 94 204t182 105q-85 35 -121.5 112.5t-19.5 182.5l10 69q58 340 412 340q184 0 272.5 -94.5t56.5 -269.5l-14 -72q-20 -109 -85 -181t-163 -95q94 -33 139 -121.5t25 -212.5l-12 -70q-37 -198 -141.5 -284t-303.5 -86zM555 799
q123 0 197 64t94 173l12 64q54 276 -237 276q-128 0 -203 -59t-103 -201l-8 -59q-11 -67 4 -127q29 -131 195 -131h49zM414 74q148 0 226 62t108 216l12 74q24 133 -34 211t-200 78h-41q-129 0 -211 -72.5t-100 -191.5l-12 -70q-30 -157 29 -232t223 -75z" />
    <glyph glyph-name="nine" unicode="9" horiz-adv-x="1009" 
d="M428 -20q-202 0 -294 119t-54 345l6 29h102l-6 -29q-33 -183 29.5 -278.5t222.5 -95.5q140 0 215.5 86.5t112.5 289.5l57 316q-94 -187 -321 -187q-173 0 -263.5 108.5t-60.5 297.5l10 63q38 216 138.5 319t289.5 103q150 0 234 -63q164 -119 108 -432l-96 -533
q-43 -242 -144.5 -350t-285.5 -108zM530 662q132 0 216 72.5t104 199.5l8 43q68 397 -254 397q-141 0 -214 -79.5t-105 -254.5l-11 -61q-21 -145 45 -231t211 -86z" />
    <glyph glyph-name="colon" unicode=":" horiz-adv-x="507" 
d="M295 778q-85 0 -70 103q15 94 101 94q87 0 67 -105q-7 -49 -31 -70.5t-67 -21.5zM176 98q-85 0 -70 103q15 94 101 94q87 0 67 -105q-7 -49 -31 -70.5t-67 -21.5z" />
    <glyph glyph-name="semicolon" unicode=";" horiz-adv-x="507" 
d="M293 778q-85 0 -70 103q15 94 101 94q87 0 67 -105q-7 -49 -31 -70.5t-67 -21.5zM31 -170q113 53 139 168q-12 -10 -33 -10q-67 0 -53 90q15 96 100 96q46 0 62.5 -31.5t3.5 -101.5q-35 -195 -211 -268z" />
    <glyph glyph-name="less" unicode="&#x3c;" horiz-adv-x="942" 
d="M184 702l15 84l639 261l-19 -105l-518 -201l447 -204l-17 -101z" />
    <glyph glyph-name="equal" unicode="=" horiz-adv-x="942" 
d="M209 877l16 90h627l-14 -90h-629zM141 496l17 88h626l-16 -88h-627z" />
    <glyph glyph-name="greater" unicode="&#x3e;" horiz-adv-x="942" 
d="M184 541l525 207l-453 202l18 97l545 -261l-14 -86l-639 -264z" />
    <glyph glyph-name="question" unicode="?" horiz-adv-x="999" 
d="M483 295q-3 8 -47 8q-41 0 -49 -8q0 24 10 74l15 69q14 95 53 158q23 38 56.5 73.5t56 54t65.5 50.5q43 31 66 50t53.5 51.5t48.5 73t27 91.5l16 95q12 61 -4 116q-39 125 -217 125q-128 0 -196.5 -64t-92.5 -190l-33 -190h-100l35 201q62 333 397 333q123 0 197 -47
q73 -47 102 -124t12 -173l-16 -94q-16 -92 -51 -147q-22 -36 -54 -70t-53 -50.5t-65 -49.5q-15 -11 -88 -70q-90 -77 -121 -219zM385 -16q-85 0 -66 100q11 50 33 72t66 22q80 0 65 -98q-15 -96 -98 -96z" />
    <glyph glyph-name="at" unicode="@" horiz-adv-x="1366" 
d="M573 -238q-166 0 -294 64q-265 139 -197 534l84 471q52 287 217.5 440.5t417.5 153.5q177 0 299 -73q122 -74 172.5 -202t21.5 -292l-80 -452q-27 -160 -89.5 -237t-170.5 -77q-70 0 -110.5 34t-48.5 95q-64 -141 -213 -141q-241 0 -189 303l76 424q29 158 93.5 231.5
t174.5 73.5q161 0 183 -154l36 144h60q-17 -80 -35 -199q-12 -61 -34.5 -190t-33.5 -183q-26 -175 -36 -215q-24 -147 88 -147q65 0 104.5 59t63.5 187l77 446q23 141 -14 252q-39 111 -140.5 171t-260.5 60q-218 0 -359.5 -132t-185.5 -384q0 -2 -10 -57q-2 -15 -45 -250
l-27 -155q-43 -260 66 -389.5t346 -129.5q119 0 203 35.5t151 110.5l86 -33q-170 -197 -447 -197zM604 156q157 0 203 229l70 406q46 243 -134 243q-78 0 -124 -57t-66 -180l-74 -414q-20 -119 10.5 -173t114.5 -54z" />
    <glyph glyph-name="A" unicode="A" 
d="M670 356h-461l-148 -356h-102l616 1450h99l121 -1450h-99zM248 451h416l-62 806l4 82l-22 -82z" />
    <glyph glyph-name="B" unicode="B" horiz-adv-x="993" 
d="M55 0l256 1450h348q138 0 209 -45q145 -87 105 -303l-17 -88q-20 -119 -76.5 -181t-164.5 -85q206 -61 157 -324l-4 -29l-16 -84q-13 -95 -61 -178q-43 -68 -125.5 -100.5t-219.5 -32.5h-391zM559 793q139 -1 208.5 54t92.5 185l14 80q41 252 -231 252h-250l-100 -571
h266zM276 705l-108 -615h285q103 0 165 28t92 78.5t46 137.5l16 106q24 128 -27 196.5t-196 68.5h-273z" />
    <glyph glyph-name="C" unicode="C" horiz-adv-x="1024" 
d="M459 -20q-151 0 -236 61q-164 117 -112 426l98 547q42 238 150 345t292 107q200 0 293 -122t55 -334l-20 -121h-102l20 123q32 176 -32.5 270t-221.5 94q-138 0 -218 -85.5t-116 -282.5l-96 -543q-67 -391 256 -391q144 0 217.5 83.5t106.5 274.5l12 76h104l-14 -80
q-39 -231 -139.5 -339.5t-296.5 -108.5z" />
    <glyph glyph-name="D" unicode="D" horiz-adv-x="1038" 
d="M311 1450h307q205 0 303.5 -128.5t57.5 -360.5l-92 -517q-76 -444 -496 -444h-336zM393 1362l-223 -1272h211q175 0 275 91t132 282l91 512q35 190 -38 288.5t-239 98.5h-209z" />
    <glyph glyph-name="E" unicode="E" horiz-adv-x="886" 
d="M715 0h-660l256 1450h639l-14 -90h-543l-100 -563h471l-16 -92h-472l-108 -613h561z" />
    <glyph glyph-name="F" unicode="F" horiz-adv-x="835" 
d="M268 653l-116 -653h-97l256 1450h613l-17 -90h-514l-108 -615h479l-16 -92h-480z" />
    <glyph glyph-name="G" unicode="G" horiz-adv-x="1046" 
d="M760 223q-48 -122 -132.5 -182.5t-215.5 -60.5q-196 0 -272.5 129.5t-37.5 361.5l97 541q42 234 153 344t299 110q194 0 287.5 -109.5t56.5 -322.5l-8 -53h-102l8 53q32 175 -30.5 258.5t-219.5 83.5q-141 0 -225 -87t-119 -281l-98 -543q-67 -391 237 -391
q153 0 233 95.5t117 295.5l21 117l8 -2l12 65h-307l15 90h395l-129 -735h-68z" />
    <glyph glyph-name="H" unicode="H" horiz-adv-x="1046" 
d="M811 674h-539l-118 -674h-99l254 1450h99l-119 -682h538l121 682h99l-256 -1450h-99z" />
    <glyph glyph-name="I" unicode="I" horiz-adv-x="651" 
d="M-33 0l17 92h209l223 1268h-209l14 90h518l-16 -90h-211l-223 -1268h211l-17 -92h-516z" />
    <glyph glyph-name="J" unicode="J" horiz-adv-x="862" 
d="M324 -20q-162 0 -235 89t-46 242l33 181h100l-33 -183q-20 -106 26.5 -170.5t156.5 -64.5q118 0 174.5 65t83.5 215l190 1096h100l-194 -1112q-32 -189 -115.5 -273.5t-240.5 -84.5z" />
    <glyph glyph-name="K" unicode="K" horiz-adv-x="985" 
d="M541 868l-295 -340l-92 -528h-99l256 1450h97l-132 -748l-14 -57l10 17l674 788h113l-443 -520l224 -930h-109l-182 788z" />
    <glyph glyph-name="L" unicode="L" horiz-adv-x="811" 
d="M55 0l256 1450h97l-240 -1356h498l-15 -94h-596z" />
    <glyph glyph-name="M" unicode="M" horiz-adv-x="1210" 
d="M150 0h-95l256 1450h97l206 -754l4 -28l15 28l473 754h102l-254 -1450h-94l180 1026l72 307l-63 -129l-435 -684h-36l-193 686l-16 127l-39 -307z" />
    <glyph glyph-name="N" unicode="N" horiz-adv-x="1089" 
d="M150 0h-95l256 1450h88l328 -1081l51 -234l25 225l190 1090h94l-253 -1450h-86l-332 1104l-49 233l-23 -227z" />
    <glyph glyph-name="O" unicode="O" horiz-adv-x="1052" 
d="M461 -20q-151 0 -236 61q-166 124 -114 428l96 543q43 240 151.5 347t292.5 107q198 0 293.5 -123t59.5 -344l-105 -575q-40 -227 -141.5 -335.5t-296.5 -108.5zM471 74q144 0 219.5 84t108.5 270l104 580q31 179 -34.5 273.5t-225.5 94.5q-138 0 -218 -86t-116 -286
l-98 -543q-33 -192 28.5 -289.5t231.5 -97.5z" />
    <glyph glyph-name="P" unicode="P" horiz-adv-x="968" 
d="M238 475l-84 -475h-99l256 1450h328q188 0 267.5 -107t47.5 -288l-39 -224q-32 -177 -133 -267t-293 -89h-251zM393 1362l-141 -799h244q147 0 223 73.5t102 223.5l37 205q24 139 -32.5 218t-202.5 79h-230z" />
    <glyph glyph-name="Q" unicode="Q" horiz-adv-x="1052" 
d="M631 -195l-78 183q-41 -8 -96 -8q-151 0 -236 61q-165 118 -110 430l24 139q7 41 22.5 130t22.5 130l25 142q42 240 151 347t295 107q198 0 293 -122t55 -349l-100 -569q-30 -166 -88 -265t-158 -145l103 -211h-125zM469 74q145 0 220 84.5t108 273.5l104 572
q65 372 -262 372q-136 0 -217 -86.5t-115 -285.5l-96 -539q-67 -391 258 -391z" />
    <glyph glyph-name="R" unicode="R" horiz-adv-x="993" 
d="M266 637l-112 -637h-99l256 1450h348q186 0 264.5 -99t45.5 -276l-21 -112q-24 -123 -88 -191.5t-182 -91.5q106 -26 141 -97t10 -194l-51 -291q-12 -73 19 -98h-113q-17 22 -6 100l51 283q24 131 -25 192.5t-188 61.5h-250zM393 1362l-112 -639h245q145 0 223 63
t103 199l20 102q53 275 -227 275h-252z" />
    <glyph glyph-name="S" unicode="S" horiz-adv-x="944" 
d="M420 -20q-207 0 -303 108t-58 305l21 107h100l-20 -113q-26 -156 41 -235.5t219 -79.5q140 0 211.5 66.5t93.5 189.5l4 32q15 98 -20 160q-22 40 -63 78t-77 61.5t-96 57.5q-72 46 -141 94q-74 59 -106 135.5t-13 186.5l4 30q24 144 125.5 223.5t249.5 79.5
q134 0 219 -49q82 -47 115 -128t16 -185l-18 -103h-99l17 99q24 128 -39 204t-215 76q-110 0 -182.5 -57t-90.5 -168l-6 -31q-15 -94 19 -155q32 -55 87 -98t144 -95q94 -59 143 -96q75 -60 109 -137t16 -191l-6 -33q-27 -165 -123.5 -252t-277.5 -87z" />
    <glyph glyph-name="T" unicode="T" horiz-adv-x="804" 
d="M586 1358l-238 -1358h-98l237 1358h-292l14 92h696l-16 -92h-303z" />
    <glyph glyph-name="U" unicode="U" horiz-adv-x="1017" 
d="M428 -20q-204 0 -274.5 121t-30.5 348l176 1001h100l-178 -1010q-33 -184 19 -274t198 -90q136 0 205.5 81t101.5 261l183 1032h100l-186 -1049q-38 -218 -132 -319.5t-282 -101.5z" />
    <glyph glyph-name="V" unicode="V" horiz-adv-x="944" 
d="M322 0l-109 1450h102l82 -1257l-2 -39l13 39l534 1257h105l-627 -1450h-98z" />
    <glyph glyph-name="W" unicode="W" horiz-adv-x="1400" 
d="M289 0h-92l32 1450h95l-33 -1178l-23 -155l45 147l498 1186h70l61 -1186l-10 -160l41 164l411 1182h97l-516 -1450h-91l-59 1217l10 108l-28 -108z" />
    <glyph glyph-name="X" unicode="X" horiz-adv-x="903" 
d="M45 0h-115l506 780l-190 670h102l148 -557l6 -47l20 45l348 559h113l-440 -678l225 -772h-104l-179 649l-8 53l-22 -53z" />
    <glyph glyph-name="Y" unicode="Y" horiz-adv-x="892" 
d="M287 0l92 518l-174 932h102l129 -727l6 -127l56 129l393 725h106l-516 -928l-94 -522h-100z" />
    <glyph glyph-name="Z" unicode="Z" horiz-adv-x="862" 
d="M-29 0l17 86l815 1272h-547l14 92h656l-17 -88l-807 -1266h598l-16 -96h-713z" />
    <glyph glyph-name="bracketleft" unicode="[" horiz-adv-x="618" 
d="M373 -369h-367l334 1897h367l-15 -88h-270l-301 -1721h268z" />
    <glyph glyph-name="backslash" unicode="\" horiz-adv-x="583" 
d="M330 1450l78 -1450h-101l-78 1450h101z" />
    <glyph glyph-name="bracketright" unicode="]" horiz-adv-x="618" 
d="M-88 -369l16 88h273l303 1721h-273l15 88h368l-333 -1897h-369z" />
    <glyph glyph-name="asciicircum" unicode="^" horiz-adv-x="825" 
d="M553 1356l-229 -365l-99 2l301 457h78l141 -457l-94 -2z" />
    <glyph glyph-name="uni005F" unicode="_" horiz-adv-x="874" 
d="M-49 -119h729l-16 -94h-730z" />
    <glyph glyph-name="grave" unicode="`" horiz-adv-x="804" 
d="M389 1589h111l131 -278h-84z" />
    <glyph glyph-name="a" unicode="a" horiz-adv-x="964" 
d="M815 0q-106 0 -138 50.5t-11 174.5q-56 -123 -150 -183t-209 -60q-154 0 -223.5 84t-42.5 227l4 16q16 91 60.5 150t115.5 100q50 30 106 51.5t169 57.5q64 20 137 45q67 25 104 59t47 90l2 2q20 109 -32.5 171.5t-190.5 62.5q-131 0 -204.5 -60t-96.5 -192l-12 -72h-96
l14 84q30 158 130 241t267 83q180 0 261.5 -88.5t50.5 -249.5l-111 -551q-25 -129 -8 -167t92 -38h22l-16 -88h-41zM340 68q134 0 233.5 100t131.5 268l61 303q-10 -20 -26.5 -36.5t-30 -26.5t-48.5 -24.5t-50 -19.5t-67 -22q-16 -5 -24 -8q-102 -32 -151 -51.5t-93 -48.5
q-110 -72 -131 -199l-2 -6q-19 -106 31.5 -167.5t165.5 -61.5z" />
    <glyph glyph-name="b" unicode="b" horiz-adv-x="1005" 
d="M471 -18q-137 0 -210.5 64.5t-84.5 182.5l-55 -229h-76l268 1532h93l-97 -555q92 205 301 205q180 0 262.5 -119.5t45.5 -323.5l-64 -358q-33 -197 -126 -298t-257 -101zM461 74q239 0 295 309l63 360q29 168 -33 260.5t-202 92.5q-123 0 -203 -81t-105 -229l-63 -352
q-59 -360 248 -360z" />
    <glyph glyph-name="c" unicode="c" horiz-adv-x="944" 
d="M418 -18q-148 0 -228 57q-151 114 -102 393l68 391q32 175 133.5 267t263.5 92q192 0 276.5 -107.5t49.5 -306.5l-9 -49h-102l10 65q29 153 -28 232.5t-201 79.5q-243 0 -295 -279l-72 -403q-15 -75 -7.5 -138t34 -108.5t81 -70.5t134.5 -25q124 0 188 66.5t88 203.5
l19 90h102l-20 -106q-32 -173 -123 -258.5t-260 -85.5z" />
    <glyph glyph-name="d" unicode="d" horiz-adv-x="997" 
d="M694 188q-90 -206 -307 -206q-182 0 -261 117.5t-42 324.5l61 348q73 408 387 408q129 0 202.5 -60t92.5 -168l101 580h92l-268 -1532h-74zM414 70q123 0 204.5 81t106.5 228l63 352q31 171 -27.5 267t-215.5 96q-124 0 -198.5 -86.5t-102.5 -239.5l-62 -348
q-30 -169 31.5 -259.5t200.5 -90.5z" />
    <glyph glyph-name="e" unicode="e" horiz-adv-x="950" 
d="M807 338q-33 -178 -126.5 -267t-266.5 -89q-146 0 -221 57q-154 116 -105 393l68 389q32 174 133.5 267.5t259.5 93.5q193 0 280.5 -115.5t51.5 -312.5l-35 -199h-641l-25 -133q-59 -350 242 -350q130 0 197.5 68.5t91.5 211.5l6 39h100zM219 639h545l22 123
q29 159 -32.5 246.5t-206.5 87.5q-120 0 -196 -73t-101 -212z" />
    <glyph glyph-name="f" unicode="f" horiz-adv-x="555" 
d="M375 1073l-189 -1073h-94l189 1073h-164l14 90h166l14 86q22 129 58 191q34 66 94.5 93.5t159.5 27.5h71l-16 -88h-60q-66 0 -112 -17q-38 -17 -59.5 -64t-40.5 -147l-15 -82h232l-15 -90h-233z" />
    <glyph glyph-name="g" unicode="g" horiz-adv-x="997" 
d="M346 -418q-330 0 -346 281h104q6 -95 64.5 -145t181.5 -50q128 0 200 69t99 210l43 241q-99 -206 -305 -206q-182 0 -261 117.5t-42 324.5l63 348q66 408 385 408q136 0 209.5 -64.5t85.5 -181.5l56 229h73l-217 -1233q-33 -175 -128.5 -261.5t-264.5 -86.5zM414 70
q123 0 204.5 81t106.5 228l63 352q31 171 -27.5 267t-215.5 96q-124 0 -198.5 -86.5t-102.5 -239.5l-62 -348q-30 -169 31.5 -259.5t200.5 -90.5z" />
    <glyph glyph-name="h" unicode="h" horiz-adv-x="987" 
d="M139 0h-94l268 1532h93l-101 -574q99 224 318 224q159 0 229.5 -101t38.5 -284l-139 -797h-99l140 797q25 143 -25.5 220t-181.5 77q-255 0 -316 -344z" />
    <glyph glyph-name="i" unicode="i" horiz-adv-x="389" 
d="M328 1307q-75 0 -60 88q10 49 29 67.5t57 18.5q73 0 58 -88q-7 -48 -26.5 -67t-57.5 -19zM45 0l205 1163h96l-203 -1163h-98z" />
    <glyph glyph-name="j" unicode="j" horiz-adv-x="393" 
d="M332 1307q-75 0 -60 88q10 49 29 67.5t57 18.5q73 0 58 -88q-10 -49 -29 -67.5t-55 -18.5zM-219 -334l16 92h47q60 0 103 17q69 25 92 178l213 1210h98l-215 -1216q-23 -119 -51 -170q-30 -60 -88 -85.5t-158 -25.5h-57z" />
    <glyph glyph-name="k" unicode="k" horiz-adv-x="903" 
d="M475 682l-270 -301l-66 -381h-94l268 1532h95l-172 -983l-11 -45l596 659h115l-377 -422l201 -741h-105z" />
    <glyph glyph-name="l" unicode="l" horiz-adv-x="391" 
d="M315 1532h97l-269 -1532h-96z" />
    <glyph glyph-name="m" unicode="m" horiz-adv-x="1476" 
d="M141 0h-96l203 1163h78l-25 -207q90 230 297 230q227 0 240 -228q92 224 303 224q147 0 209.5 -95t31.5 -276l-143 -811h-98l141 803q52 291 -178 291q-218 0 -273 -287l-141 -807h-96l141 811q52 287 -174 287q-228 0 -287 -340z" />
    <glyph glyph-name="n" unicode="n" horiz-adv-x="987" 
d="M141 0h-96l203 1163h78l-27 -217q96 236 324 236q159 0 229.5 -101t38.5 -284l-139 -797h-99l140 797q25 143 -25.5 220t-181.5 77q-251 0 -312 -344z" />
    <glyph glyph-name="o" unicode="o" horiz-adv-x="972" 
d="M416 -18q-143 0 -223 57q-153 118 -105 393l70 395q31 171 132 263t261 92q194 0 284 -116t54 -312l-74 -412q-60 -360 -399 -360zM424 72q246 0 295 284l74 412q29 156 -37 242t-207 86q-119 0 -193.5 -70.5t-99.5 -204.5l-74 -407q-28 -158 31 -250t211 -92z" />
    <glyph glyph-name="p" unicode="p" horiz-adv-x="1005" 
d="M471 -18q-138 0 -211 64t-84 181l-110 -630h-95l277 1566h76l-25 -198q100 217 311 217q177 0 261 -119.5t47 -323.5l-64 -358q-67 -399 -383 -399zM459 74q127 0 197.5 78.5t97.5 230.5l65 360q29 168 -34 260.5t-203 92.5q-121 0 -201.5 -81t-106.5 -229l-61 -352
q-65 -360 246 -360z" />
    <glyph glyph-name="q" unicode="q" horiz-adv-x="997" 
d="M588 -403l104 591q-93 -206 -303 -206q-182 0 -261.5 117.5t-41.5 324.5l61 348q73 408 388 408q136 0 209 -64t85 -182l56 229h73l-276 -1566h-94zM416 70q123 0 204.5 81t106.5 228l64 352q30 171 -28.5 267t-215.5 96q-124 0 -198.5 -86.5t-102.5 -239.5l-62 -348
q-30 -169 31.5 -259.5t200.5 -90.5z" />
    <glyph glyph-name="r" unicode="r" horiz-adv-x="624" 
d="M45 0l203 1163h74l-23 -219q47 117 127 169t213 52h43l-16 -100h-56q-160 0 -237.5 -83.5t-110.5 -279.5l-123 -702h-94z" />
    <glyph glyph-name="s" unicode="s" horiz-adv-x="890" 
d="M383 -20q-182 0 -273.5 94.5t-62.5 255.5l14 78h103l-17 -89q-20 -116 46.5 -182.5t199.5 -66.5q223 0 262 200v6q16 86 -16 134q-29 47 -80 80.5t-137 74.5q-76 40 -133 78q-146 93 -113 275v6q23 127 114 194.5t236 67.5q168 0 251 -88t57 -240l-9 -57h-96l10 67
q19 109 -38.5 170.5t-180.5 61.5q-105 0 -168.5 -48t-81.5 -134v-5q-13 -83 19 -129q19 -32 57.5 -61.5t67 -45t88.5 -44.5q70 -37 135 -78q150 -97 117 -283l-2 -4q-51 -288 -369 -288z" />
    <glyph glyph-name="t" unicode="t" horiz-adv-x="595" 
d="M438 0h-61q-101 0 -164 29q-55 26 -68 99t11 208l129 737h-162l14 84h29q60 4 65 6q48 5 65 18.5t30 63.5l10 41q20 84 24 115h76l-41 -238h248l-16 -90h-248l-129 -731q-17 -116 -10 -158q7 -52 46.5 -71t121.5 -19h47z" />
    <glyph glyph-name="u" unicode="u" horiz-adv-x="960" 
d="M668 215q-90 -233 -306 -233q-158 0 -224 101.5t-34 293.5l140 786h98l-139 -794q-25 -144 22 -221.5t168 -77.5q124 0 196.5 87.5t102.5 256.5l131 749h99l-203 -1163h-78z" />
    <glyph glyph-name="v" unicode="v" horiz-adv-x="915" 
d="M307 0l-145 1163h98l111 -973v-75l26 73l461 975h103l-560 -1163h-94z" />
    <glyph glyph-name="w" unicode="w" horiz-adv-x="1298" 
d="M281 0h-97l-18 1163h94l10 -921l-12 -133l49 133l410 921h61l72 -919l-2 -138l41 134l356 923h96l-460 -1163h-93l-67 911l4 123l-41 -125z" />
    <glyph glyph-name="x" unicode="x" horiz-adv-x="851" 
d="M53 0h-110l440 623l-197 540h105l149 -438l9 -45l20 45l307 438h109l-393 -547l217 -616h-107l-170 506l-6 49l-23 -49z" />
    <glyph glyph-name="y" unicode="y" horiz-adv-x="913" 
d="M-51 -322l14 93h53q70 0 117 12q44 12 80 51t74 117l26 59l-151 1153h98l113 -923l2 -144l49 140l436 927h103l-588 -1224q-53 -112 -99 -164q-43 -56 -103.5 -76.5t-168.5 -20.5h-55z" />
    <glyph glyph-name="z" unicode="z" horiz-adv-x="806" 
d="M-35 0l12 78l740 997h-529l17 88h641l-17 -82l-731 -989h557l-16 -92h-674z" />
    <glyph glyph-name="braceleft" unicode="{" horiz-adv-x="630" 
d="M281 -371q-103 0 -152 37q-90 68 -63 240q17 87 92 252q77 170 88 233q32 170 -119 170h-66l19 94h63q143 0 170 152q12 63 4 143q-1 17 -4 65.5t-4 73t-2 63.5t1 70t7 58q22 121 91.5 185.5t216.5 64.5h100l-14 -84h-72q-110 0 -158.5 -42t-66.5 -134q-9 -51 -6 -150
q1 -11 4 -56t4 -60.5t2.5 -52.5t1 -57t-2 -47t-5.5 -48q-35 -191 -205 -191q83 0 119.5 -56.5t17.5 -152.5q-10 -61 -90 -249q-76 -179 -88 -256q-14 -91 20 -135t142 -44h75l-14 -86h-106z" />
    <glyph glyph-name="bar" unicode="|" horiz-adv-x="415" 
d="M16 -240l332 1891h98l-331 -1891h-99z" />
    <glyph glyph-name="braceright" unicode="}" horiz-adv-x="630" 
d="M-80 -324l14 84h72q111 0 161 43t64 134q10 55 7 149q-1 22 -5 83.5t-5.5 91.5t-0.5 73.5t6 73.5q34 190 205 190q-83 0 -119.5 56.5t-17.5 152.5q10 62 90 250q76 179 88 256q18 90 -17 134t-145 44h-75l14 86h106q103 0 152 -37q94 -69 64 -240q-5 -33 -22 -81.5
t-28.5 -75.5t-42.5 -94q-77 -169 -88 -234q-26 -170 119 -170h66l-19 -94h-63q-143 0 -170 -152q-11 -74 -4 -143q1 -17 4 -65.5t4 -73t2 -63.5t-1 -70t-7 -58q-22 -121 -91.5 -185.5t-216.5 -64.5h-100z" />
    <glyph glyph-name="asciitilde" unicode="~" horiz-adv-x="823" 
d="M217 1116q37 209 182 209q72 0 140 -68q36 -36 60 -52.5t52 -16.5q78 0 99 129h77q-37 -207 -184 -207q-76 0 -139 70q-22 22 -35.5 34t-34.5 22.5t-41 10.5q-76 0 -98 -131h-78z" />
    <glyph glyph-name="uni00A0" unicode="&#xa0;" horiz-adv-x="464" 
 />
    <glyph glyph-name="exclamdown" unicode="&#xa1;" horiz-adv-x="526" 
d="M338 1012q-83 0 -68 104q10 51 34 71.5t67 20.5t59 -24.5t8 -77.5q-7 -50 -31.5 -72t-68.5 -22zM109 4q1 8 38 213q38 216 84 434q10 54 22.5 112t18.5 88t7 38q16 -4 36 -4q21 0 33 4q0 -24 -10 -78q-14 -118 -55 -369q-31 -202 -72 -438l-47 -272h-103z" />
    <glyph glyph-name="cent" unicode="&#xa2;" horiz-adv-x="944" 
d="M797 326q-30 -169 -117 -254.5t-248 -89.5l-51 -297h-94l53 301q-118 15 -178 75q-119 114 -76 371l68 391q32 175 134 267t263 92l47 268h92l-47 -276q145 -25 205 -129t29 -277l-7 -33h-102l8 49q60 312 -229 312q-243 0 -295 -279l-72 -403q-15 -75 -7.5 -138
t34 -108.5t81 -70.5t134.5 -25q124 0 188 66.5t88 203.5l15 70h102z" />
    <glyph glyph-name="sterling" unicode="&#xa3;" horiz-adv-x="1089" 
d="M668 -25q-41 0 -79.5 10.5t-79 34.5t-62.5 40t-66 49q-45 -63 -108.5 -98.5t-135.5 -35.5q-96 0 -136.5 49.5t-27.5 125.5q13 67 64.5 105t124.5 38q92 0 198 -74q18 47 25 86q21 123 -8 309h-227l14 82h198q-1 6 -8 45.5t-8.5 48.5l-7.5 45t-7.5 49.5t-5.5 47t-4.5 51
t-2 48t0 52.5t3.5 49t6 52q29 149 118.5 225t229.5 76q153 0 226.5 -86t47.5 -242l-10 -53h-100l10 59q23 113 -25 173.5t-153 60.5q-207 0 -244 -219q-6 -34 -9.5 -68t-2.5 -73t1.5 -65.5t6.5 -72t9 -65t11.5 -71.5t10.5 -67h276l-14 -82h-252q23 -160 -2 -307
q-11 -62 -41 -129q57 -39 83 -55.5t73.5 -35.5t89.5 -19q84 0 122.5 50t63.5 189l12 78h103l-17 -94q-33 -178 -93.5 -247t-190.5 -69zM150 49q104 0 174 103q-90 69 -162 69q-91 0 -107 -84q-6 -40 18.5 -64t76.5 -24z" />
    <glyph glyph-name="currency" unicode="&#xa4;" horiz-adv-x="1017" 
d="M489 375q-120 0 -198 65l-176 -166l-58 64l183 168q-48 84 -27 203l12 71q21 119 94 201l-110 154l72 61l112 -154q88 58 205 58q116 0 190 -62l168 160l58 -59l-172 -164q49 -88 28 -209l-12 -70q-21 -123 -92 -200l111 -150l-72 -61l-109 147q-86 -57 -207 -57z
M494 459q111 0 184.5 69t93.5 177l10 67q20 108 -29.5 176t-164.5 68q-110 0 -182.5 -68.5t-92.5 -175.5l-10 -70q-19 -105 31 -174t160 -69z" />
    <glyph glyph-name="yen" unicode="&#xa5;" horiz-adv-x="892" 
d="M428 238l-41 -238h-96l41 238h-260l14 79h260l31 181h-260l14 82h258l-184 870h102l144 -735v-66l24 66l414 735h108l-508 -870h277l-14 -82h-279l-31 -181h277l-14 -79h-277z" />
    <glyph glyph-name="brokenbar" unicode="&#xa6;" horiz-adv-x="415" 
d="M348 1651h98l-145 -822h-98zM266 623l-151 -863h-99l152 863h98z" />
    <glyph glyph-name="section" unicode="&#xa7;" horiz-adv-x="960" 
d="M403 -20q-180 0 -268.5 93.5t-68.5 256.5l8 73h100l-8 -84q-12 -118 51.5 -183.5t194.5 -65.5q232 0 262 196v6q12 78 -25 127q-11 14 -23.5 26.5t-32 25.5l-31.5 21t-40.5 22.5t-38.5 19t-45.5 21.5t-42.5 20q-72 38 -145 84q-70 44 -99.5 103.5t-13.5 150.5l2 6
q10 56 56 99t108 65q-46 69 -31 168v8q23 127 113 192.5t236 65.5q168 0 251.5 -88t57.5 -240l-8 -57h-97l11 68q19 109 -40 170t-182 61q-211 0 -247 -180v-4q-13 -78 26 -125q22 -29 61.5 -57t73 -45.5t84.5 -42.5q13 -6 19 -9q89 -42 147 -86q69 -50 97 -112.5t12 -153.5
v-6q-17 -92 -146 -156q43 -68 29 -166v-4q-24 -146 -115.5 -215t-251.5 -69zM473 623q129 -62 175 -94q42 -30 69 -64q62 58 74 129v4q13 81 -19 129q-49 75 -219 156q-4 2 -29.5 15t-32.5 16.5t-29.5 16t-31.5 18t-27.5 17.5t-29 21t-24 21t-23.5 24q-80 -64 -93 -135v-4
q-12 -73 19 -115q28 -43 79 -76.5t142 -78.5z" />
    <glyph glyph-name="dieresis" unicode="&#xa8;" horiz-adv-x="808" 
d="M401 1315q-73 0 -59 84q15 84 88 84q74 0 59 -86q-14 -82 -88 -82zM659 1315q-75 0 -61 84q15 84 88 84q72 0 57 -86q-7 -43 -27.5 -62.5t-56.5 -19.5z" />
    <glyph glyph-name="copyright" unicode="&#xa9;" horiz-adv-x="1331" 
d="M606 -20q-161 0 -287 63q-128 67 -184 198.5t-22 325.5l59 338q51 284 210 422.5t404 138.5q153 0 277 -65q129 -71 187 -202.5t24 -319.5l-62 -347q-50 -288 -200.5 -420t-405.5 -132zM614 59q222 0 348.5 114.5t170.5 361.5l63 358q26 163 -22 272q-50 109 -154 166.5
t-240 57.5q-214 0 -350 -119.5t-178 -366.5l-62 -350q-27 -169 21 -277q48 -107 154 -162t249 -55zM641 260q-148 0 -202.5 86t-28.5 238l59 340q25 134 100 202t193 68q134 0 197 -79t34 -212l-8 -53h-84l12 57q40 211 -155 211q-85 0 -136 -45.5t-71 -146.5l-62 -348
q-21 -114 17.5 -177t138.5 -63q166 0 203 201l12 61h82l-12 -63q-24 -137 -93.5 -207t-195.5 -70z" />
    <glyph glyph-name="ordfeminine" unicode="&#xaa;" horiz-adv-x="729" 
d="M705 635q-73 0 -106 33.5t-32 109.5q-39 -85 -102 -121t-152 -36q-108 0 -157.5 62t-30.5 165v2q22 113 111 174q58 40 213 88l31.5 9t31.5 9.5t27 9t26.5 9.5t22 10.5t21 12.5t16 14t15 17.5t9.5 19.5t8 24q11 70 -25 110t-132 40q-86 0 -134 -37.5t-65 -124.5l-8 -49
h-92l10 59q23 111 98.5 170.5t194.5 59.5q133 0 194 -63t41 -177l-73 -365q-10 -50 -11 -80.5t10 -46.5t27.5 -21t46.5 -5h13l-17 -82h-30zM354 696q90 0 153.5 65t86.5 181l41 201q-4 -9 -10.5 -17.5t-12 -14.5t-16.5 -12.5t-17.5 -10t-22 -9.5t-23.5 -9t-29 -10.5
t-31 -10.5q-53 -17 -74.5 -24.5t-46.5 -19t-45 -26.5q-64 -42 -84 -131q-11 -72 22 -112t109 -40z" />
    <glyph glyph-name="guillemotleft" unicode="&#xab;" horiz-adv-x="962" 
d="M332 215l-207 389l2 12l338 396h102l-350 -406l213 -391h-98zM688 215l-213 383l2 16l340 398h105l-353 -410l219 -387h-100z" />
    <glyph glyph-name="logicalnot" unicode="&#xac;" horiz-adv-x="1032" 
d="M776 436l68 387h-707l19 92h800l-84 -479h-96z" />
    <glyph glyph-name="uni00AD" unicode="&#xad;" horiz-adv-x="864" 
d="M133 668h633l-16 -97h-633z" />
    <glyph glyph-name="registered" unicode="&#xae;" horiz-adv-x="886" 
d="M506 782q-106 0 -176 47q-75 48 -108 129.5t-15 186.5l2 12q29 153 127 234.5t248 81.5q103 0 174 -48q78 -45 112.5 -127.5t16.5 -187.5l-4 -14q-25 -158 -125 -236t-252 -78zM512 840q267 0 315 266v8q26 134 -43.5 218.5t-203.5 84.5q-130 0 -210.5 -68t-103.5 -202
l-2 -6q-23 -133 46.5 -217t201.5 -84zM463 1092l-25 -138h-55l61 357h142q69 0 96.5 -29.5t19.5 -79.5q-11 -67 -84 -88q58 -12 46 -86l-11 -55q-2 -7 2 -19h-57q-5 5 -2 19q0 3 5 29l5 26q6 37 -6.5 50.5t-58.5 13.5h-78zM494 1262l-23 -123h78q86 0 98 65q4 29 -13 43.5
t-56 14.5h-84z" />
    <glyph glyph-name="macron" unicode="&#xaf;" horiz-adv-x="804" 
d="M340 1423h426l-14 -82h-426z" />
    <glyph glyph-name="degree" unicode="&#xb0;" horiz-adv-x="651" 
d="M420 1008q-112 0 -170.5 73.5t-40.5 178.5q20 96 89.5 152t166.5 56q109 0 167.5 -72.5t39.5 -176.5q-17 -101 -83 -156t-169 -55zM424 1087q139 0 166 142q11 68 -24.5 115t-106.5 47q-67 0 -110.5 -36.5t-55.5 -105.5q-11 -68 25 -115t106 -47z" />
    <glyph glyph-name="plusminus" unicode="&#xb1;" horiz-adv-x="933" 
d="M559 852l-43 -242h-90l43 242h-246l17 90h243l43 240h90l-43 -240h252l-16 -90h-250zM143 393l17 90h585l-14 -90h-588z" />
    <glyph glyph-name="uni00B2" unicode="&#xb2;" horiz-adv-x="530" 
d="M102 739l9 52q11 58 44.5 109.5t67.5 83t88 71.5q13 10 43 33t43.5 34t36 31.5t33.5 35.5t21.5 35.5t13.5 41.5l2 12q11 51 -13.5 83t-82.5 32q-107 0 -127 -117l-17 -98h-80l19 100q18 87 70 134.5t137 47.5q100 0 144 -54t26 -136l-2 -10q-8 -52 -41 -99t-64 -72.5
t-88 -66.5q-35 -26 -48.5 -36.5t-42 -34.5t-42.5 -41.5t-29.5 -43.5t-23.5 -53h309l-12 -74h-394z" />
    <glyph glyph-name="uni00B3" unicode="&#xb3;" horiz-adv-x="544" 
d="M309 729q-103 0 -151 51t-31 140l14 73h80l-14 -78q-21 -116 108 -116q63 0 93.5 28.5t42.5 94.5l2 18q23 129 -97 129h-63l14 70h62q66 0 95 29.5t40 93.5l2 16q11 55 -13.5 86t-86.5 31q-101 0 -125 -107l-13 -71h-78q3 6 5 20l8 57q14 79 66 122.5t141 43.5
q95 0 141 -49.5t29 -132.5l-2 -12q-17 -135 -119 -164q94 -34 71 -166l-4 -18q-18 -95 -68 -142t-149 -47z" />
    <glyph glyph-name="acute" unicode="&#xb4;" horiz-adv-x="804" 
d="M713 1632h110l-284 -319h-84z" />
    <glyph glyph-name="paragraph" unicode="&#xb6;" horiz-adv-x="1101" 
d="M477 0l113 637h-86q-123 0 -203 51q-83 54 -115 145t-12 209l4 17q33 185 155.5 288t321.5 103h449l-256 -1450h-94l241 1364h-182l-242 -1364h-94zM604 725l113 639h-76q-151 0 -246.5 -82t-120.5 -229l-2 -19q-26 -145 41 -227t209 -82h82z" />
    <glyph glyph-name="periodcentered" unicode="&#xb7;" horiz-adv-x="497" 
d="M244 522q-43 0 -60 23t-10 73q15 99 100 99q43 0 59 -24.5t9 -76.5q-7 -50 -31.5 -72t-66.5 -22z" />
    <glyph glyph-name="cedilla" unicode="&#xb8;" horiz-adv-x="804" 
d="M238 -412q-210 0 -207 172h90q-3 -100 123 -100t141 82q10 49 -18.5 70.5t-102.5 21.5h-45l31 176h82l-21 -110q91 -5 132 -46.5t28 -117.5q-12 -69 -72.5 -108.5t-160.5 -39.5z" />
    <glyph glyph-name="uni00B9" unicode="&#xb9;" horiz-adv-x="403" 
d="M82 739l12 72h117l88 504q-38 -38 -104 -41l12 65q52 1 79.5 28t45.5 85h63l-112 -641h112l-12 -72h-301z" />
    <glyph glyph-name="ordmasculine" unicode="&#xba;" horiz-adv-x="714" 
d="M391 623q-150 0 -205.5 85.5t-29.5 233.5l49 281q24 123 95 188.5t185 65.5q139 0 203 -84t39 -224l-51 -290q-42 -256 -285 -256zM395 707q161 0 197 186l47 283q20 104 -20.5 161.5t-131.5 57.5q-159 0 -196 -183l-47 -276q-20 -106 16.5 -167.5t134.5 -61.5z" />
    <glyph glyph-name="guillemotright" unicode="&#xbb;" horiz-adv-x="962" 
d="M47 215l365 406l-209 391h98l203 -391l-4 -17l-348 -389h-105zM408 215l352 397l-205 400h96l203 -400l-2 -12l-340 -385h-104z" />
    <glyph glyph-name="onequarter" unicode="&#xbc;" horiz-adv-x="1187" 
d="M684 838l471 651l86 -62l-524 -612zM158 739l12 72h117l88 504q-38 -38 -105 -41l13 65q52 1 79.5 28t45.5 85h63l-113 -641h113l-12 -72h-301zM893 162l-29 -162h-67l28 162h-286l10 59l369 492h71l-86 -486h88l-12 -65h-86zM6 37l543 637l31 -25l-486 -680zM629 227
h207l57 332l12 43l-12 -22z" />
    <glyph glyph-name="onehalf" unicode="&#xbd;" horiz-adv-x="1187" 
d="M684 838l471 651l86 -62l-524 -612zM158 739l12 72h117l88 504q-38 -38 -105 -41l13 65q52 1 79.5 28t45.5 85h63l-113 -641h113l-12 -72h-301zM600 0l8 51q11 58 45 110t68 82.5t88 71.5q12 10 42.5 33.5t43.5 34t35.5 31.5t33.5 35.5t21.5 35t13.5 41.5l2 13
q11 51 -13.5 82.5t-82.5 31.5q-107 0 -127 -116l-16 -99h-80l18 101q18 87 70 134.5t137 47.5q100 0 144 -54.5t26 -136.5l-2 -10q-6 -40 -23.5 -73.5t-48 -64.5t-54 -49.5t-66.5 -49.5q-44 -33 -61.5 -46.5t-49.5 -43t-49 -57.5t-27 -62h310l-13 -74h-393zM6 37l543 637
l31 -25l-486 -680z" />
    <glyph glyph-name="threequarters" unicode="&#xbe;" horiz-adv-x="1187" 
d="M684 838l471 651l86 -62l-524 -612zM322 729q-103 0 -151.5 51t-31.5 140l15 73h79l-14 -78q-21 -116 109 -116q63 0 93 28.5t42 94.5l2 18q23 129 -96 129h-64l14 70h62q66 0 95 29.5t40 93.5l2 16q11 55 -13.5 86t-86.5 31q-101 0 -125 -107l-12 -71h-78q2 6 4 20l8 57
q14 79 66 122.5t141 43.5q95 0 141 -49.5t29 -132.5l-2 -12q-17 -135 -119 -164q95 -34 72 -166l-4 -18q-18 -95 -68 -142t-149 -47zM893 162l-29 -162h-67l28 162h-286l10 59l369 492h71l-86 -486h88l-12 -65h-86zM6 37l543 637l31 -25l-486 -680zM629 227h207l57 332
l12 43l-12 -22z" />
    <glyph glyph-name="questiondown" unicode="&#xbf;" horiz-adv-x="999" 
d="M608 1114q85 0 66 -100q-15 -94 -96 -94q-83 0 -68 98q15 96 98 96zM510 803q24 -8 47 -8q11 0 29 3t20 5q0 -4 -10 -74l-14 -70q-14 -91 -54 -157q-33 -56 -75 -95.5t-103 -82.5q-43 -31 -64.5 -49.5t-52.5 -51.5t-49 -73.5t-28 -92.5l-17 -94q-9 -63 6 -117
q39 -125 215 -125q247 0 289 254l33 191h102l-36 -201q-27 -162 -126 -248t-270 -86q-122 0 -196 47q-144 93 -115 297l16 95q15 90 49 147q53 88 173 170q15 11 88 70q97 83 120 219z" />
    <glyph glyph-name="Agrave" unicode="&#xc0;" 
d="M453 1868h110l131 -279h-84zM670 356h-461l-148 -356h-102l616 1450h99l121 -1450h-99zM248 451h416l-62 806l4 82l-22 -82z" />
    <glyph glyph-name="Aacute" unicode="&#xc1;" 
d="M864 1911h111l-285 -320h-84zM670 356h-461l-148 -356h-102l616 1450h99l121 -1450h-99zM248 451h416l-62 806l4 82l-22 -82z" />
    <glyph glyph-name="Acircumflex" unicode="&#xc2;" 
d="M686 1782l-172 -201h-98l239 274h78l144 -274h-91zM670 356h-461l-148 -356h-102l616 1450h99l121 -1450h-99zM248 451h416l-62 806l4 82l-22 -82z" />
    <glyph glyph-name="Atilde" unicode="&#xc3;" 
d="M362 1591q18 94 58.5 141.5t111.5 47.5q58 0 101 -29q15 -9 48.5 -35t56.5 -37.5t46 -11.5q80 0 93 109h73q-14 -93 -54 -141t-114 -48q-54 0 -98 29q-13 9 -38.5 29t-39 29.5t-35.5 18.5t-43 9q-75 0 -90 -111h-76zM670 356h-461l-148 -356h-102l616 1450h99l121 -1450
h-99zM248 451h416l-62 806l4 82l-22 -82z" />
    <glyph glyph-name="Adieresis" unicode="&#xc4;" 
d="M516 1583q-73 0 -59 84q15 84 88 84q74 0 59 -86q-14 -82 -88 -82zM774 1583q-75 0 -61 84q15 84 88 84q72 0 57 -86q-7 -43 -27.5 -62.5t-56.5 -19.5zM670 356h-461l-148 -356h-102l616 1450h99l121 -1450h-99zM248 451h416l-62 806l4 82l-22 -82z" />
    <glyph glyph-name="Aring" unicode="&#xc5;" 
d="M655 1593q-87 0 -133.5 56.5t-32.5 136.5q13 75 68.5 119.5t130.5 44.5q87 0 132.5 -56.5t31.5 -136.5q-13 -77 -65.5 -120.5t-131.5 -43.5zM659 1667q100 0 115 98q8 46 -17 78.5t-73 32.5q-96 0 -117 -98q-8 -46 18 -78.5t74 -32.5zM670 356h-461l-148 -356h-102
l616 1450h99l121 -1450h-99zM248 451h416l-62 806l4 82l-22 -82z" />
    <glyph glyph-name="AE" unicode="&#xc6;" horiz-adv-x="1353" 
d="M649 358h-424l-184 -358h-104l757 1450h723l-16 -90h-610l-31 -586h465l-17 -92h-452l-31 -590h471l-16 -92h-551zM270 446h383l41 756l21 150l-58 -154z" />
    <glyph glyph-name="Ccedilla" unicode="&#xc7;" horiz-adv-x="1015" 
d="M367 -434q-210 0 -207 172h90q-3 -100 123 -100t141 81q10 49 -18.5 71t-102.5 22h-45l31 172q-180 23 -247 149.5t-30 333.5l99 547q42 238 150 345t292 107q200 0 293 -122t55 -334l-20 -121h-103l21 123q32 176 -32.5 270t-221.5 94q-138 0 -218 -85.5t-116 -282.5
l-96 -543q-67 -391 256 -391q144 0 217 83.5t106 274.5l13 76h104l-14 -80q-39 -231 -138.5 -339.5t-289.5 -108.5l-19 -103q91 -5 132 -46.5t28 -117.5q-12 -69 -72.5 -108t-160.5 -39z" />
    <glyph glyph-name="Egrave" unicode="&#xc8;" horiz-adv-x="886" 
d="M475 1868h111l131 -279h-84zM715 0h-660l256 1450h639l-14 -90h-543l-100 -563h471l-16 -92h-472l-108 -613h561z" />
    <glyph glyph-name="Eacute" unicode="&#xc9;" horiz-adv-x="886" 
d="M874 1911h111l-285 -320h-84zM715 0h-660l256 1450h639l-14 -90h-543l-100 -563h471l-16 -92h-472l-108 -613h561z" />
    <glyph glyph-name="Ecircumflex" unicode="&#xca;" horiz-adv-x="886" 
d="M702 1790l-172 -201h-98l240 275h78l143 -275h-90zM715 0h-660l256 1450h639l-14 -90h-543l-100 -563h471l-16 -92h-472l-108 -613h561z" />
    <glyph glyph-name="Edieresis" unicode="&#xcb;" horiz-adv-x="886" 
d="M537 1593q-34 0 -50.5 21t-9.5 63q15 84 88 84q75 0 60 -86q-14 -82 -88 -82zM795 1593q-76 0 -62 84q15 84 88 84t58 -86q-7 -43 -27.5 -62.5t-56.5 -19.5zM715 0h-660l256 1450h639l-14 -90h-543l-100 -563h471l-16 -92h-472l-108 -613h561z" />
    <glyph glyph-name="Igrave" unicode="&#xcc;" horiz-adv-x="651" 
d="M311 1868h111l131 -279h-84zM-33 0l17 92h209l223 1268h-209l14 90h518l-16 -90h-211l-223 -1268h211l-17 -92h-516z" />
    <glyph glyph-name="Iacute" unicode="&#xcd;" horiz-adv-x="651" 
d="M715 1911h110l-284 -320h-84zM-33 0l17 92h209l223 1268h-209l14 90h518l-16 -90h-211l-223 -1268h211l-17 -92h-516z" />
    <glyph glyph-name="Icircumflex" unicode="&#xce;" horiz-adv-x="651" 
d="M547 1790l-172 -201h-99l240 275h78l143 -275h-90zM-33 0l17 92h209l223 1268h-209l14 90h518l-16 -90h-211l-223 -1268h211l-17 -92h-516z" />
    <glyph glyph-name="Idieresis" unicode="&#xcf;" horiz-adv-x="651" 
d="M379 1593q-34 0 -50.5 21t-9.5 63q15 84 89 84t59 -86q-14 -82 -88 -82zM637 1593q-76 0 -62 84q15 84 89 84q72 0 57 -86q-7 -43 -27.5 -62.5t-56.5 -19.5zM-33 0l17 92h209l223 1268h-209l14 90h518l-16 -90h-211l-223 -1268h211l-17 -92h-516z" />
    <glyph glyph-name="Eth" unicode="&#xd0;" horiz-adv-x="1052" 
d="M70 0l118 676h-149l16 90h150l121 684h307q131 0 217 -57q199 -126 143 -432l-92 -517q-76 -444 -495 -444h-336zM287 676l-103 -586h211q176 0 276 91t132 282l90 512q35 188 -40 287.5t-237 99.5h-208l-105 -596h203l-17 -90h-202z" />
    <glyph glyph-name="Ntilde" unicode="&#xd1;" horiz-adv-x="1089" 
d="M449 1571q18 94 58 141t111 47q59 0 101 -28q15 -9 48.5 -35t56.5 -37.5t46 -11.5q39 0 62.5 24.5t30.5 83.5h73q-14 -93 -54 -140.5t-114 -47.5q-56 0 -98 28q-13 9 -38.5 29t-39 29.5t-35.5 18.5t-43 9q-75 0 -90 -110h-75zM150 0h-95l256 1450h88l328 -1081l51 -234
l25 225l190 1090h94l-253 -1450h-86l-332 1104l-49 233l-23 -227z" />
    <glyph glyph-name="Ograve" unicode="&#xd2;" horiz-adv-x="1052" 
d="M516 1884h111l131 -278h-84zM461 -20q-151 0 -236 61q-166 124 -114 428l96 543q43 240 151.5 347t292.5 107q198 0 293.5 -123t59.5 -344l-105 -575q-40 -227 -141.5 -335.5t-296.5 -108.5zM471 74q144 0 219.5 84t108.5 270l104 580q31 179 -34.5 273.5t-225.5 94.5
q-138 0 -218 -86t-116 -286l-98 -543q-33 -192 28.5 -289.5t231.5 -97.5z" />
    <glyph glyph-name="Oacute" unicode="&#xd3;" horiz-adv-x="1052" 
d="M911 1933h111l-285 -319h-84zM461 -20q-151 0 -236 61q-166 124 -114 428l96 543q43 240 151.5 347t292.5 107q198 0 293.5 -123t59.5 -344l-105 -575q-40 -227 -141.5 -335.5t-296.5 -108.5zM471 74q144 0 219.5 84t108.5 270l104 580q31 179 -34.5 273.5t-225.5 94.5
q-138 0 -218 -86t-116 -286l-98 -543q-33 -192 28.5 -289.5t231.5 -97.5z" />
    <glyph glyph-name="Ocircumflex" unicode="&#xd4;" horiz-adv-x="1052" 
d="M750 1804l-172 -200h-99l240 274h78l143 -274h-90zM461 -20q-151 0 -236 61q-166 124 -114 428l96 543q43 240 151.5 347t292.5 107q198 0 293.5 -123t59.5 -344l-105 -575q-40 -227 -141.5 -335.5t-296.5 -108.5zM471 74q144 0 219.5 84t108.5 270l104 580
q31 179 -34.5 273.5t-225.5 94.5q-138 0 -218 -86t-116 -286l-98 -543q-33 -192 28.5 -289.5t231.5 -97.5z" />
    <glyph glyph-name="Otilde" unicode="&#xd5;" horiz-adv-x="1052" 
d="M428 1610q18 94 58.5 141t111.5 47q56 0 100 -29q13 -9 48.5 -35t58 -37t45.5 -11q39 0 62 24.5t30 83.5h74q-14 -93 -54 -140.5t-114 -47.5q-56 0 -98 28q-13 9 -38.5 29t-39 29.5t-35.5 18.5t-43 9q-75 0 -90 -110h-76zM461 -20q-151 0 -236 61q-166 124 -114 428
l96 543q43 240 151.5 347t292.5 107q198 0 293.5 -123t59.5 -344l-105 -575q-40 -227 -141.5 -335.5t-296.5 -108.5zM471 74q144 0 219.5 84t108.5 270l104 580q31 179 -34.5 273.5t-225.5 94.5q-138 0 -218 -86t-116 -286l-98 -543q-33 -192 28.5 -289.5t231.5 -97.5z" />
    <glyph glyph-name="Odieresis" unicode="&#xd6;" horiz-adv-x="1052" 
d="M582 1608q-34 0 -50.5 21t-9.5 63q15 84 88 84q75 0 60 -86q-14 -82 -88 -82zM840 1608q-76 0 -62 84q15 84 88 84t58 -86q-7 -43 -27.5 -62.5t-56.5 -19.5zM461 -20q-151 0 -236 61q-166 124 -114 428l96 543q43 240 151.5 347t292.5 107q198 0 293.5 -123t59.5 -344
l-105 -575q-40 -227 -141.5 -335.5t-296.5 -108.5zM471 74q144 0 219.5 84t108.5 270l104 580q31 179 -34.5 273.5t-225.5 94.5q-138 0 -218 -86t-116 -286l-98 -543q-33 -192 28.5 -289.5t231.5 -97.5z" />
    <glyph glyph-name="multiply" unicode="&#xd7;" horiz-adv-x="929" 
d="M479 684l-291 -252l-49 62l293 254l-178 225l65 57l179 -225l272 235l49 -63l-272 -234l198 -249l-69 -60z" />
    <glyph glyph-name="Oslash" unicode="&#xd8;" horiz-adv-x="1058" 
d="M461 -20q-118 0 -191 36l-94 -200h-82l113 237q-148 125 -96 418l24 139q7 41 22.5 130t22.5 130l25 142q42 239 152.5 346.5t295.5 107.5q114 0 187 -36l94 196h80l-113 -235q153 -124 105 -396l-101 -569q-39 -230 -142 -338t-302 -108zM209 465q-37 -211 45 -309
l545 1187q-59 33 -156 33q-137 0 -219.5 -86.5t-118.5 -285.5zM471 74q146 0 223.5 85t110.5 273l102 572q37 199 -49 294l-545 -1189q62 -35 158 -35z" />
    <glyph glyph-name="Ugrave" unicode="&#xd9;" horiz-adv-x="1017" 
d="M489 1851h111l131 -278h-84zM428 -20q-204 0 -274.5 121t-30.5 348l176 1001h100l-178 -1010q-33 -184 19 -274t198 -90q136 0 205.5 81t101.5 261l183 1032h100l-186 -1049q-38 -218 -132 -319.5t-282 -101.5z" />
    <glyph glyph-name="Uacute" unicode="&#xda;" horiz-adv-x="1017" 
d="M895 1894h111l-285 -319h-84zM428 -20q-204 0 -274.5 121t-30.5 348l176 1001h100l-178 -1010q-33 -184 19 -274t198 -90q136 0 205.5 81t101.5 261l183 1032h100l-186 -1049q-38 -218 -132 -319.5t-282 -101.5z" />
    <glyph glyph-name="Ucircumflex" unicode="&#xdb;" horiz-adv-x="1017" 
d="M725 1774l-172 -201h-98l239 274h78l143 -274h-90zM428 -20q-204 0 -274.5 121t-30.5 348l176 1001h100l-178 -1010q-33 -184 19 -274t198 -90q136 0 205.5 81t101.5 261l183 1032h100l-186 -1049q-38 -218 -132 -319.5t-282 -101.5z" />
    <glyph glyph-name="Udieresis" unicode="&#xdc;" horiz-adv-x="1017" 
d="M555 1577q-73 0 -59 84q15 84 88 84q74 0 59 -86q-14 -82 -88 -82zM813 1577q-75 0 -61 84q15 84 88 84q72 0 57 -86q-7 -43 -27.5 -62.5t-56.5 -19.5zM428 -20q-204 0 -274.5 121t-30.5 348l176 1001h100l-178 -1010q-33 -184 19 -274t198 -90q136 0 205.5 81t101.5 261
l183 1032h100l-186 -1049q-38 -218 -132 -319.5t-282 -101.5z" />
    <glyph glyph-name="Yacute" unicode="&#xdd;" horiz-adv-x="892" 
d="M836 1901h110l-284 -320h-84zM287 0l92 518l-174 932h102l129 -727l6 -127l56 129l393 725h106l-516 -928l-94 -522h-100z" />
    <glyph glyph-name="Thorn" unicode="&#xde;" horiz-adv-x="944" 
d="M205 297l-51 -297h-99l256 1450h97l-43 -248h210q188 0 268 -107t48 -288l-27 -150q-31 -177 -132 -269t-292 -91h-235zM444 387q146 -1 223 73t103 224l25 133q24 138 -32.5 217.5t-203.5 79.5h-211l-127 -727h223z" />
    <glyph glyph-name="germandbls" unicode="&#xdf;" horiz-adv-x="1030" 
d="M487 -6q-55 0 -135 10l17 92q72 -8 118 -8q134 0 209.5 58.5t100.5 203.5l14 82q29 167 -33 248.5t-217 81.5h-57l16 90h51q282 0 326 254l12 72q23 134 -42 206t-210 72q-134 0 -208 -67.5t-99 -212.5l-209 -1176h-96l209 1184q31 181 130.5 270.5t283.5 89.5t274.5 -97
t61.5 -269l-13 -74q-23 -131 -87 -202.5t-179 -96.5q246 -60 186 -371l-16 -92q-33 -184 -127 -266t-281 -82z" />
    <glyph glyph-name="agrave" unicode="&#xe0;" horiz-adv-x="962" 
d="M422 1599h110l132 -278h-84zM815 0q-106 0 -138 50.5t-11 174.5q-56 -123 -150 -183t-209 -60q-154 0 -223.5 84t-42.5 227l4 16q16 91 60.5 150t115.5 100q50 30 106 51.5t169 57.5q64 20 137 45q67 25 104 59t47 90l2 2q20 109 -32.5 171.5t-190.5 62.5
q-131 0 -204.5 -60t-96.5 -192l-12 -72h-96l14 84q30 158 130 241t267 83q180 0 261.5 -88.5t50.5 -249.5l-111 -551q-25 -129 -8 -167t92 -38h22l-16 -88h-41zM340 68q134 0 233.5 100t131.5 268l61 303q-10 -20 -26.5 -36.5t-30 -26.5t-48.5 -24.5t-50 -19.5t-67 -22
q-16 -5 -24 -8q-102 -32 -151 -51.5t-93 -48.5q-110 -72 -131 -199l-2 -6q-19 -106 31.5 -167.5t165.5 -61.5z" />
    <glyph glyph-name="aacute" unicode="&#xe1;" horiz-adv-x="962" 
d="M821 1640h111l-285 -319h-84zM815 0q-106 0 -138 50.5t-11 174.5q-56 -123 -150 -183t-209 -60q-154 0 -223.5 84t-42.5 227l4 16q16 91 60.5 150t115.5 100q50 30 106 51.5t169 57.5q64 20 137 45q67 25 104 59t47 90l2 2q20 109 -32.5 171.5t-190.5 62.5
q-131 0 -204.5 -60t-96.5 -192l-12 -72h-96l14 84q30 158 130 241t267 83q180 0 261.5 -88.5t50.5 -249.5l-111 -551q-25 -129 -8 -167t92 -38h22l-16 -88h-41zM340 68q134 0 233.5 100t131.5 268l61 303q-10 -20 -26.5 -36.5t-30 -26.5t-48.5 -24.5t-50 -19.5t-67 -22
q-16 -5 -24 -8q-102 -32 -151 -51.5t-93 -48.5q-110 -72 -131 -199l-2 -6q-19 -106 31.5 -167.5t165.5 -61.5z" />
    <glyph glyph-name="acircumflex" unicode="&#xe2;" horiz-adv-x="962" 
d="M655 1520l-172 -201h-98l240 274h77l144 -274h-90zM815 0q-106 0 -138 50.5t-11 174.5q-56 -123 -150 -183t-209 -60q-154 0 -223.5 84t-42.5 227l4 16q16 91 60.5 150t115.5 100q50 30 106 51.5t169 57.5q64 20 137 45q67 25 104 59t47 90l2 2q20 109 -32.5 171.5
t-190.5 62.5q-131 0 -204.5 -60t-96.5 -192l-12 -72h-96l14 84q30 158 130 241t267 83q180 0 261.5 -88.5t50.5 -249.5l-111 -551q-25 -129 -8 -167t92 -38h22l-16 -88h-41zM340 68q134 0 233.5 100t131.5 268l61 303q-10 -20 -26.5 -36.5t-30 -26.5t-48.5 -24.5t-50 -19.5
t-67 -22q-16 -5 -24 -8q-102 -32 -151 -51.5t-93 -48.5q-110 -72 -131 -199l-2 -6q-19 -106 31.5 -167.5t165.5 -61.5z" />
    <glyph glyph-name="atilde" unicode="&#xe3;" horiz-adv-x="962" 
d="M332 1325q18 94 58.5 141t111.5 47q58 0 100 -28q14 -9 48.5 -35t57.5 -37.5t46 -11.5q39 0 62 24.5t30 83.5h74q-14 -93 -54 -140.5t-114 -47.5q-56 0 -99 29q-13 9 -38 29t-39 29.5t-35.5 18.5t-42.5 9q-75 0 -90 -111h-76zM815 0q-106 0 -138 50.5t-11 174.5
q-56 -123 -150 -183t-209 -60q-154 0 -223.5 84t-42.5 227l4 16q16 91 60.5 150t115.5 100q50 30 106 51.5t169 57.5q64 20 137 45q67 25 104 59t47 90l2 2q20 109 -32.5 171.5t-190.5 62.5q-131 0 -204.5 -60t-96.5 -192l-12 -72h-96l14 84q30 158 130 241t267 83
q180 0 261.5 -88.5t50.5 -249.5l-111 -551q-25 -129 -8 -167t92 -38h22l-16 -88h-41zM340 68q134 0 233.5 100t131.5 268l61 303q-10 -20 -26.5 -36.5t-30 -26.5t-48.5 -24.5t-50 -19.5t-67 -22q-16 -5 -24 -8q-102 -32 -151 -51.5t-93 -48.5q-110 -72 -131 -199l-2 -6
q-19 -106 31.5 -167.5t165.5 -61.5z" />
    <glyph glyph-name="adieresis" unicode="&#xe4;" horiz-adv-x="962" 
d="M485 1323q-73 0 -59 84q15 84 88 84q74 0 59 -86q-14 -82 -88 -82zM743 1323q-75 0 -61 84q15 84 88 84q72 0 57 -86q-7 -43 -27.5 -62.5t-56.5 -19.5zM815 0q-106 0 -138 50.5t-11 174.5q-56 -123 -150 -183t-209 -60q-154 0 -223.5 84t-42.5 227l4 16q16 91 60.5 150
t115.5 100q50 30 106 51.5t169 57.5q64 20 137 45q67 25 104 59t47 90l2 2q20 109 -32.5 171.5t-190.5 62.5q-131 0 -204.5 -60t-96.5 -192l-12 -72h-96l14 84q30 158 130 241t267 83q180 0 261.5 -88.5t50.5 -249.5l-111 -551q-25 -129 -8 -167t92 -38h22l-16 -88h-41z
M340 68q134 0 233.5 100t131.5 268l61 303q-10 -20 -26.5 -36.5t-30 -26.5t-48.5 -24.5t-50 -19.5t-67 -22q-16 -5 -24 -8q-102 -32 -151 -51.5t-93 -48.5q-110 -72 -131 -199l-2 -6q-19 -106 31.5 -167.5t165.5 -61.5z" />
    <glyph glyph-name="aring" unicode="&#xe5;" horiz-adv-x="962" 
d="M625 1321q-87 0 -133.5 56t-32.5 136q13 75 68 119.5t130 44.5q87 0 132.5 -56t31.5 -136q-13 -78 -65.5 -121t-130.5 -43zM629 1395q99 0 114 98q8 46 -17 78.5t-73 32.5q-95 0 -116 -99q-8 -45 18 -77.5t74 -32.5zM815 0q-106 0 -138 50.5t-11 174.5
q-56 -123 -150 -183t-209 -60q-154 0 -223.5 84t-42.5 227l4 16q16 91 60.5 150t115.5 100q50 30 106 51.5t169 57.5q64 20 137 45q67 25 104 59t47 90l2 2q20 109 -32.5 171.5t-190.5 62.5q-131 0 -204.5 -60t-96.5 -192l-12 -72h-96l14 84q30 158 130 241t267 83
q180 0 261.5 -88.5t50.5 -249.5l-111 -551q-25 -129 -8 -167t92 -38h22l-16 -88h-41zM340 68q134 0 233.5 100t131.5 268l61 303q-10 -20 -26.5 -36.5t-30 -26.5t-48.5 -24.5t-50 -19.5t-67 -22q-16 -5 -24 -8q-102 -32 -151 -51.5t-93 -48.5q-110 -72 -131 -199l-2 -6
q-19 -106 31.5 -167.5t165.5 -61.5z" />
    <glyph glyph-name="ae" unicode="&#xe6;" horiz-adv-x="1568" 
d="M1423 338q-32 -178 -125 -267t-266 -89q-164 0 -247.5 73t-88.5 203q-116 -276 -387 -276q-155 0 -225 84t-43 227l4 16q30 159 160 242q51 33 113.5 57.5t177.5 59.5q64 20 137 45q67 25 104 59t47 90l2 2q20 108 -34 171t-189 63q-129 0 -203.5 -60.5t-97.5 -191.5
l-12 -70h-96l14 82q29 158 130 241t267 83q119 0 193.5 -45.5t99.5 -126.5q112 172 316 172q190 0 274.5 -115t48.5 -313l-35 -199h-641l-24 -133q-59 -350 241 -350q130 0 197.5 68.5t91.5 211.5l6 39h101zM836 639h544l23 123q30 160 -29.5 247t-204.5 87q-121 0 -199 -73
t-104 -212zM342 68q134 0 232.5 99.5t130.5 268.5l57 299q-11 -20 -29 -36.5t-35 -27.5t-51 -24.5t-56.5 -21t-72.5 -23.5q-101 -31 -152.5 -52t-93.5 -50q-106 -73 -127 -197l-2 -6q-19 -106 32.5 -167.5t166.5 -61.5z" />
    <glyph glyph-name="ccedilla" unicode="&#xe7;" horiz-adv-x="944" 
d="M309 -432q-210 0 -207 172h91q-3 -100 122 -100q127 0 142 81q10 49 -18.5 71t-102.5 22h-45l31 176q-299 54 -234 442l68 391q32 175 133.5 267t263.5 92q192 0 276.5 -107.5t49.5 -306.5l-9 -49h-102l10 65q29 153 -28 232.5t-201 79.5q-243 0 -295 -279l-72 -403
q-15 -75 -7.5 -138t34 -108.5t81 -70.5t134.5 -25q124 0 188 66.5t88 203.5l19 90h102l-20 -106q-32 -173 -123 -258.5t-260 -85.5h-17l-18 -103q91 -5 132 -46.5t28 -117.5q-12 -69 -73 -108t-161 -39z" />
    <glyph glyph-name="egrave" unicode="&#xe8;" 
d="M434 1602h111l131 -279h-84zM807 338q-33 -178 -126.5 -267t-266.5 -89q-146 0 -221 57q-154 116 -105 393l68 389q32 174 133.5 267.5t259.5 93.5q193 0 280.5 -115.5t51.5 -312.5l-35 -199h-641l-25 -133q-59 -350 242 -350q130 0 197.5 68.5t91.5 211.5l6 39h100z
M219 639h545l22 123q29 159 -32.5 246.5t-206.5 87.5q-120 0 -196 -73t-101 -212z" />
    <glyph glyph-name="eacute" unicode="&#xe9;" 
d="M834 1642h110l-285 -319h-84zM807 338q-33 -178 -126.5 -267t-266.5 -89q-146 0 -221 57q-154 116 -105 393l68 389q32 174 133.5 267.5t259.5 93.5q193 0 280.5 -115.5t51.5 -312.5l-35 -199h-641l-25 -133q-59 -350 242 -350q130 0 197.5 68.5t91.5 211.5l6 39h100z
M219 639h545l22 123q29 159 -32.5 246.5t-206.5 87.5q-120 0 -196 -73t-101 -212z" />
    <glyph glyph-name="ecircumflex" unicode="&#xea;" 
d="M664 1522l-172 -201h-99l240 274h78l143 -274h-90zM807 338q-33 -178 -126.5 -267t-266.5 -89q-146 0 -221 57q-154 116 -105 393l68 389q32 174 133.5 267.5t259.5 93.5q193 0 280.5 -115.5t51.5 -312.5l-35 -199h-641l-25 -133q-59 -350 242 -350q130 0 197.5 68.5
t91.5 211.5l6 39h100zM219 639h545l22 123q29 159 -32.5 246.5t-206.5 87.5q-120 0 -196 -73t-101 -212z" />
    <glyph glyph-name="edieresis" unicode="&#xeb;" 
d="M492 1325q-34 0 -50.5 21t-9.5 63q15 84 88 84q75 0 60 -86q-14 -82 -88 -82zM750 1325q-76 0 -62 84q15 84 88 84t58 -86q-7 -43 -27.5 -62.5t-56.5 -19.5zM807 338q-33 -178 -126.5 -267t-266.5 -89q-146 0 -221 57q-154 116 -105 393l68 389q32 174 133.5 267.5
t259.5 93.5q193 0 280.5 -115.5t51.5 -312.5l-35 -199h-641l-25 -133q-59 -350 242 -350q130 0 197.5 68.5t91.5 211.5l6 39h100zM219 639h545l22 123q29 159 -32.5 246.5t-206.5 87.5q-120 0 -196 -73t-101 -212z" />
    <glyph glyph-name="igrave" unicode="&#xec;" horiz-adv-x="389" 
d="M127 1581h111l131 -278h-84zM250 1163h96l-203 -1163h-98z" />
    <glyph glyph-name="iacute" unicode="&#xed;" horiz-adv-x="389" 
d="M539 1632h110l-284 -319h-84zM250 1163h96l-203 -1163h-98z" />
    <glyph glyph-name="icircumflex" unicode="&#xee;" horiz-adv-x="389" 
d="M362 1501l-172 -201h-98l240 275h78l143 -275h-90zM250 1163h96l-203 -1163h-98z" />
    <glyph glyph-name="idieresis" unicode="&#xef;" horiz-adv-x="389" 
d="M193 1305q-34 0 -50.5 21t-9.5 63q15 84 88 84q75 0 60 -87q-7 -43 -28.5 -62t-59.5 -19zM451 1305q-76 0 -62 84q15 84 88 84t58 -87q-7 -43 -27.5 -62t-56.5 -19zM250 1163h96l-203 -1163h-98z" />
    <glyph glyph-name="eth" unicode="&#xf0;" horiz-adv-x="970" 
d="M416 -18q-143 0 -223 57q-156 117 -107 393l68 383q31 171 131 263.5t256 92.5q240 0 282 -198q-3 223 -153 401l-156 -106h-119l230 155q-76 79 -176 152h145q54 -41 108 -98l144 98h117l-215 -148q210 -258 145 -645l-78 -440q-31 -179 -128 -269.5t-271 -90.5zM422 72
q248 0 297 284l69 400q29 157 -35.5 242t-205.5 85q-246 0 -295 -274l-70 -395q-28 -158 30 -250t210 -92z" />
    <glyph glyph-name="ntilde" unicode="&#xf1;" horiz-adv-x="987" 
d="M369 1323q18 94 58.5 141t111.5 47q58 0 100 -28q14 -9 48.5 -35t57.5 -37.5t46 -11.5q39 0 62 24.5t30 83.5h73q-14 -93 -54 -140.5t-114 -47.5q-54 0 -98 29q-13 9 -38 29t-39 29.5t-35.5 18.5t-42.5 9q-76 0 -91 -111h-75zM141 0h-96l203 1163h78l-27 -217
q96 236 324 236q159 0 229.5 -101t38.5 -284l-139 -797h-99l140 797q25 143 -25.5 220t-181.5 77q-251 0 -312 -344z" />
    <glyph glyph-name="ograve" unicode="&#xf2;" horiz-adv-x="972" 
d="M424 1597h111l131 -278h-84zM416 -18q-143 0 -223 57q-153 118 -105 393l70 395q31 171 132 263t261 92q194 0 284 -116t54 -312l-74 -412q-60 -360 -399 -360zM424 72q246 0 295 284l74 412q29 156 -37 242t-207 86q-119 0 -193.5 -70.5t-99.5 -204.5l-74 -407
q-28 -158 31 -250t211 -92z" />
    <glyph glyph-name="oacute" unicode="&#xf3;" horiz-adv-x="972" 
d="M829 1640h111l-285 -319h-84zM416 -18q-143 0 -223 57q-153 118 -105 393l70 395q31 171 132 263t261 92q194 0 284 -116t54 -312l-74 -412q-60 -360 -399 -360zM424 72q246 0 295 284l74 412q29 156 -37 242t-207 86q-119 0 -193.5 -70.5t-99.5 -204.5l-74 -407
q-28 -158 31 -250t211 -92z" />
    <glyph glyph-name="ocircumflex" unicode="&#xf4;" horiz-adv-x="972" 
d="M657 1520l-172 -201h-98l240 274h78l143 -274h-90zM416 -18q-143 0 -223 57q-153 118 -105 393l70 395q31 171 132 263t261 92q194 0 284 -116t54 -312l-74 -412q-60 -360 -399 -360zM424 72q246 0 295 284l74 412q29 156 -37 242t-207 86q-119 0 -193.5 -70.5
t-99.5 -204.5l-74 -407q-28 -158 31 -250t211 -92z" />
    <glyph glyph-name="otilde" unicode="&#xf5;" horiz-adv-x="972" 
d="M336 1323q18 94 58.5 141t111.5 47q58 0 100 -28q14 -9 48.5 -35t57.5 -37.5t46 -11.5q39 0 62 24.5t30 83.5h74q-14 -93 -54 -140.5t-114 -47.5q-56 0 -99 29q-13 9 -38 29t-39 29.5t-35.5 18.5t-42.5 9q-75 0 -90 -111h-76zM416 -18q-143 0 -223 57q-153 118 -105 393
l70 395q31 171 132 263t261 92q194 0 284 -116t54 -312l-74 -412q-60 -360 -399 -360zM424 72q246 0 295 284l74 412q29 156 -37 242t-207 86q-119 0 -193.5 -70.5t-99.5 -204.5l-74 -407q-28 -158 31 -250t211 -92z" />
    <glyph glyph-name="odieresis" unicode="&#xf6;" horiz-adv-x="972" 
d="M489 1323q-73 0 -59 84q15 84 88 84q75 0 60 -86q-14 -82 -89 -82zM748 1323q-76 0 -62 84q15 84 88 84q72 0 57 -86q-7 -44 -27 -63t-56 -19zM416 -18q-143 0 -223 57q-153 118 -105 393l70 395q31 171 132 263t261 92q194 0 284 -116t54 -312l-74 -412
q-60 -360 -399 -360zM424 72q246 0 295 284l74 412q29 156 -37 242t-207 86q-119 0 -193.5 -70.5t-99.5 -204.5l-74 -407q-28 -158 31 -250t211 -92z" />
    <glyph glyph-name="divide" unicode="&#xf7;" horiz-adv-x="933" 
d="M520 913q-33 0 -46 17t-7 57q15 74 82 74q68 0 53 -76q-12 -72 -82 -72zM174 762h649l-14 -90h-651zM426 371q-36 0 -50 16.5t-7 56.5q12 74 82 74q67 0 55 -76q-14 -71 -80 -71z" />
    <glyph glyph-name="oslash" unicode="&#xf8;" horiz-adv-x="972" 
d="M416 -18q-90 0 -160 24l-90 -190h-78l109 221q-159 112 -109 395l70 395q31 171 132 263t261 92q109 0 180 -35l92 188h74l-109 -223q147 -119 101 -358l-74 -412q-60 -360 -399 -360zM182 414q-29 -199 60 -283l450 932q-56 33 -143 33q-119 0 -193.5 -70.5
t-99.5 -204.5zM424 72q246 0 295 284l74 412q27 167 -48 254l-446 -928q55 -22 125 -22z" />
    <glyph glyph-name="ugrave" unicode="&#xf9;" horiz-adv-x="960" 
d="M410 1554h110l131 -278h-84zM668 215q-90 -233 -306 -233q-158 0 -224 101.5t-34 293.5l140 786h98l-139 -794q-25 -144 22 -221.5t168 -77.5q124 0 196.5 87.5t102.5 256.5l131 749h99l-203 -1163h-78z" />
    <glyph glyph-name="uacute" unicode="&#xfa;" horiz-adv-x="960" 
d="M809 1597h111l-285 -319h-84zM668 215q-90 -233 -306 -233q-158 0 -224 101.5t-34 293.5l140 786h98l-139 -794q-25 -144 22 -221.5t168 -77.5q124 0 196.5 87.5t102.5 256.5l131 749h99l-203 -1163h-78z" />
    <glyph glyph-name="ucircumflex" unicode="&#xfb;" horiz-adv-x="960" 
d="M645 1493l-172 -201h-98l239 275h78l144 -275h-91zM668 215q-90 -233 -306 -233q-158 0 -224 101.5t-34 293.5l140 786h98l-139 -794q-25 -144 22 -221.5t168 -77.5q124 0 196.5 87.5t102.5 256.5l131 749h99l-203 -1163h-78z" />
    <glyph glyph-name="udieresis" unicode="&#xfc;" horiz-adv-x="960" 
d="M477 1296q-73 0 -59 84q15 84 88 84q74 0 59 -86q-14 -82 -88 -82zM735 1296q-75 0 -61 84q15 84 88 84q72 0 57 -86q-7 -43 -27.5 -62.5t-56.5 -19.5zM668 215q-90 -233 -306 -233q-158 0 -224 101.5t-34 293.5l140 786h98l-139 -794q-25 -144 22 -221.5t168 -77.5
q124 0 196.5 87.5t102.5 256.5l131 749h99l-203 -1163h-78z" />
    <glyph glyph-name="yacute" unicode="&#xfd;" horiz-adv-x="913" 
d="M772 1599h111l-285 -319h-84zM-51 -322l14 93h53q70 0 117 12q44 12 80 51t74 117l26 59l-151 1153h98l113 -923l2 -144l49 140l436 927h103l-588 -1224q-53 -112 -99 -164q-43 -56 -103.5 -76.5t-168.5 -20.5h-55z" />
    <glyph glyph-name="thorn" unicode="&#xfe;" horiz-adv-x="1005" 
d="M471 -18q-136 0 -210 64t-85 181l-110 -630h-93l340 1935h93l-95 -543q99 193 299 193q177 0 261 -119.5t47 -323.5l-64 -358q-67 -399 -383 -399zM459 74q127 0 197.5 78.5t97.5 230.5l65 360q29 168 -34 260.5t-203 92.5q-121 0 -201.5 -81t-106.5 -229l-61 -352
q-65 -360 246 -360z" />
    <glyph glyph-name="ydieresis" unicode="&#xff;" horiz-adv-x="913" 
d="M434 1290q-73 0 -59 84q15 84 88 84q74 0 59 -86q-14 -82 -88 -82zM692 1290q-75 0 -61 84q15 84 88 84q72 0 57 -86q-7 -43 -27.5 -62.5t-56.5 -19.5zM-51 -322l14 93h53q70 0 117 12q44 12 80 51t74 117l26 59l-151 1153h98l113 -923l2 -144l49 140l436 927h103
l-588 -1224q-53 -112 -99 -164q-43 -56 -103.5 -76.5t-168.5 -20.5h-55z" />
    <glyph glyph-name="Amacron" unicode="&#x100;" 
d="M451 1702h426l-15 -82h-426zM670 356h-461l-148 -356h-102l616 1450h99l121 -1450h-99zM248 451h416l-62 806l4 82l-22 -82z" />
    <glyph glyph-name="amacron" unicode="&#x101;" horiz-adv-x="962" 
d="M420 1432h426l-15 -82h-425zM815 0q-106 0 -138 50.5t-11 174.5q-56 -123 -150 -183t-209 -60q-154 0 -223.5 84t-42.5 227l4 16q16 91 60.5 150t115.5 100q50 30 106 51.5t169 57.5q64 20 137 45q67 25 104 59t47 90l2 2q20 109 -32.5 171.5t-190.5 62.5
q-131 0 -204.5 -60t-96.5 -192l-12 -72h-96l14 84q30 158 130 241t267 83q180 0 261.5 -88.5t50.5 -249.5l-111 -551q-25 -129 -8 -167t92 -38h22l-16 -88h-41zM340 68q134 0 233.5 100t131.5 268l61 303q-10 -20 -26.5 -36.5t-30 -26.5t-48.5 -24.5t-50 -19.5t-67 -22
q-16 -5 -24 -8q-102 -32 -151 -51.5t-93 -48.5q-110 -72 -131 -199l-2 -6q-19 -106 31.5 -167.5t165.5 -61.5z" />
    <glyph glyph-name="Abreve" unicode="&#x102;" 
d="M657 1585q-130 0 -181.5 71.5t-33.5 198.5h80q-13 -95 19 -145t123 -51q169 3 213 196h77q-56 -270 -297 -270zM670 356h-461l-148 -356h-102l616 1450h99l121 -1450h-99zM248 451h416l-62 806l4 82l-22 -82z" />
    <glyph glyph-name="abreve" unicode="&#x103;" horiz-adv-x="962" 
d="M621 1315q-130 0 -181.5 71.5t-33.5 198.5h79q-13 -95 19 -145t123 -51q169 3 213 196h78q-56 -270 -297 -270zM815 0q-106 0 -138 50.5t-11 174.5q-56 -123 -150 -183t-209 -60q-154 0 -223.5 84t-42.5 227l4 16q16 91 60.5 150t115.5 100q50 30 106 51.5t169 57.5
q64 20 137 45q67 25 104 59t47 90l2 2q20 109 -32.5 171.5t-190.5 62.5q-131 0 -204.5 -60t-96.5 -192l-12 -72h-96l14 84q30 158 130 241t267 83q180 0 261.5 -88.5t50.5 -249.5l-111 -551q-25 -129 -8 -167t92 -38h22l-16 -88h-41zM340 68q134 0 233.5 100t131.5 268
l61 303q-10 -20 -26.5 -36.5t-30 -26.5t-48.5 -24.5t-50 -19.5t-67 -22q-16 -5 -24 -8q-102 -32 -151 -51.5t-93 -48.5q-110 -72 -131 -199l-2 -6q-19 -106 31.5 -167.5t165.5 -61.5z" />
    <glyph glyph-name="Aogonek" unicode="&#x104;" 
d="M928 -205q-39 -86 -101.5 -127t-156.5 -41q-98 0 -145 52.5t-33 132.5q12 57 61 106t141 100l-24 338h-461l-148 -356h-102l616 1450h99l121 -1450h-4q-112 -63 -161.5 -107t-56.5 -90q-6 -44 23 -73t86 -29q103 0 152 94h94zM248 451h416l-62 806l4 82l-22 -82z" />
    <glyph glyph-name="aogonek" unicode="&#x105;" horiz-adv-x="962" 
d="M993 -205q-39 -86 -101.5 -127t-156.5 -41q-98 0 -145 52.5t-33 132.5q12 55 56 101.5t128 94.5q-60 17 -77 69t2 148q-56 -123 -150 -183t-209 -60q-154 0 -223.5 84t-42.5 227l4 16q16 91 60.5 150t115.5 100q50 30 106 51.5t169 57.5q64 20 137 45q67 25 104 59t47 90
l2 2q20 109 -32.5 171.5t-190.5 62.5q-131 0 -204.5 -60t-96.5 -192l-12 -72h-96l14 84q30 158 130 241t267 83q180 0 261.5 -88.5t50.5 -249.5l-111 -551q-25 -129 -8 -167t92 -38h22l-16 -88q-111 -63 -160.5 -107t-56.5 -90q-6 -44 23 -73t86 -29q102 0 151 94h94z
M340 68q134 0 233.5 100t131.5 268l61 303q-10 -20 -26.5 -36.5t-30 -26.5t-48.5 -24.5t-50 -19.5t-67 -22q-16 -5 -24 -8q-102 -32 -151 -51.5t-93 -48.5q-110 -72 -131 -199l-2 -6q-19 -106 31.5 -167.5t165.5 -61.5z" />
    <glyph glyph-name="Cacute" unicode="&#x106;" horiz-adv-x="1015" 
d="M924 1927h110l-284 -319h-84zM451 -20q-151 0 -236 61q-165 118 -113 426l99 547q42 238 150 345t292 107q200 0 293 -122t55 -334l-20 -121h-103l21 123q32 176 -32.5 270t-221.5 94q-138 0 -218 -85.5t-116 -282.5l-96 -543q-67 -391 256 -391q144 0 217 83.5
t106 274.5l13 76h104l-14 -80q-39 -231 -139.5 -339.5t-296.5 -108.5z" />
    <glyph glyph-name="cacute" unicode="&#x107;" horiz-adv-x="944" 
d="M829 1640h111l-285 -319h-84zM418 -18q-148 0 -228 57q-151 114 -102 393l68 391q32 175 133.5 267t263.5 92q192 0 276.5 -107.5t49.5 -306.5l-9 -49h-102l10 65q29 153 -28 232.5t-201 79.5q-243 0 -295 -279l-72 -403q-15 -75 -7.5 -138t34 -108.5t81 -70.5t134.5 -25
q124 0 188 66.5t88 203.5l19 90h102l-20 -106q-32 -173 -123 -258.5t-260 -85.5z" />
    <glyph glyph-name="Ccircumflex" unicode="&#x108;" horiz-adv-x="1015" 
d="M745 1804l-172 -200h-98l240 274h78l143 -274h-90zM451 -20q-151 0 -236 61q-165 118 -113 426l99 547q42 238 150 345t292 107q200 0 293 -122t55 -334l-20 -121h-103l21 123q32 176 -32.5 270t-221.5 94q-138 0 -218 -85.5t-116 -282.5l-96 -543q-67 -391 256 -391
q144 0 217 83.5t106 274.5l13 76h104l-14 -80q-39 -231 -139.5 -339.5t-296.5 -108.5z" />
    <glyph glyph-name="ccircumflex" unicode="&#x109;" horiz-adv-x="944" 
d="M659 1520l-172 -201h-98l240 274h78l143 -274h-90zM418 -18q-148 0 -228 57q-151 114 -102 393l68 391q32 175 133.5 267t263.5 92q192 0 276.5 -107.5t49.5 -306.5l-9 -49h-102l10 65q29 153 -28 232.5t-201 79.5q-243 0 -295 -279l-72 -403q-15 -75 -7.5 -138
t34 -108.5t81 -70.5t134.5 -25q124 0 188 66.5t88 203.5l19 90h102l-20 -106q-32 -173 -123 -258.5t-260 -85.5z" />
    <glyph glyph-name="Cdotaccent" unicode="&#x10a;" horiz-adv-x="1015" 
d="M709 1604q-87 0 -68 94q7 51 30 72.5t66 21.5q83 0 68 -98q-10 -49 -32 -69.5t-64 -20.5zM451 -20q-151 0 -236 61q-165 118 -113 426l99 547q42 238 150 345t292 107q200 0 293 -122t55 -334l-20 -121h-103l21 123q32 176 -32.5 270t-221.5 94q-138 0 -218 -85.5
t-116 -282.5l-96 -543q-67 -391 256 -391q144 0 217 83.5t106 274.5l13 76h104l-14 -80q-39 -231 -139.5 -339.5t-296.5 -108.5z" />
    <glyph glyph-name="cdotaccent" unicode="&#x10b;" horiz-adv-x="944" 
d="M614 1317q-86 0 -67 94q7 51 30 72.5t66 21.5q83 0 68 -98q-10 -49 -32.5 -69.5t-64.5 -20.5zM418 -18q-148 0 -228 57q-151 114 -102 393l68 391q32 175 133.5 267t263.5 92q192 0 276.5 -107.5t49.5 -306.5l-9 -49h-102l10 65q29 153 -28 232.5t-201 79.5
q-243 0 -295 -279l-72 -403q-15 -75 -7.5 -138t34 -108.5t81 -70.5t134.5 -25q124 0 188 66.5t88 203.5l19 90h102l-20 -106q-32 -173 -123 -258.5t-260 -85.5z" />
    <glyph glyph-name="Ccaron" unicode="&#x10c;" horiz-adv-x="1015" 
d="M670 1604l-144 272h95l96 -195l170 195h98l-244 -272h-71zM451 -20q-151 0 -236 61q-165 118 -113 426l99 547q42 238 150 345t292 107q200 0 293 -122t55 -334l-20 -121h-103l21 123q32 176 -32.5 270t-221.5 94q-138 0 -218 -85.5t-116 -282.5l-96 -543
q-67 -391 256 -391q144 0 217 83.5t106 274.5l13 76h104l-14 -80q-39 -231 -139.5 -339.5t-296.5 -108.5z" />
    <glyph glyph-name="ccaron" unicode="&#x10d;" horiz-adv-x="944" 
d="M575 1317l-143 272h94l97 -194l170 194h98l-244 -272h-72zM418 -18q-148 0 -228 57q-151 114 -102 393l68 391q32 175 133.5 267t263.5 92q192 0 276.5 -107.5t49.5 -306.5l-9 -49h-102l10 65q29 153 -28 232.5t-201 79.5q-243 0 -295 -279l-72 -403q-15 -75 -7.5 -138
t34 -108.5t81 -70.5t134.5 -25q124 0 188 66.5t88 203.5l19 90h102l-20 -106q-32 -173 -123 -258.5t-260 -85.5z" />
    <glyph glyph-name="Dcaron" unicode="&#x10e;" horiz-adv-x="1038" 
d="M643 1585l-143 273h94l96 -195l170 195h98l-243 -273h-72zM311 1450h307q205 0 303.5 -128.5t57.5 -360.5l-92 -517q-76 -444 -496 -444h-336zM393 1362l-223 -1272h211q175 0 275 91t132 282l91 512q35 190 -38 288.5t-239 98.5h-209z" />
    <glyph glyph-name="dcaron" unicode="&#x10f;" horiz-adv-x="997" 
d="M1239 1645h94l-153 -293h-70zM694 188q-90 -206 -307 -206q-182 0 -261 117.5t-42 324.5l61 348q73 408 387 408q129 0 202.5 -60t92.5 -168l101 580h92l-268 -1532h-74zM414 70q123 0 204.5 81t106.5 228l63 352q31 171 -27.5 267t-215.5 96q-124 0 -198.5 -86.5
t-102.5 -239.5l-62 -348q-30 -169 31.5 -259.5t200.5 -90.5z" />
    <glyph glyph-name="Dcroat" unicode="&#x110;" horiz-adv-x="1052" 
d="M70 0l118 676h-149l16 90h150l121 684h307q131 0 217 -57q199 -126 143 -432l-92 -517q-76 -444 -495 -444h-336zM287 676l-103 -586h211q176 0 276 91t132 282l90 512q35 188 -40 287.5t-237 99.5h-208l-105 -596h203l-17 -90h-202z" />
    <glyph glyph-name="dcroat" unicode="&#x111;" horiz-adv-x="997" 
d="M694 188q-90 -206 -307 -206q-182 0 -261 117.5t-42 324.5l61 348q73 408 387 408q129 0 202.5 -60t92.5 -168l62 363h-191l13 67h190l27 150h92l-27 -150h125l-12 -67h-125l-229 -1315h-74zM414 70q123 0 204.5 81t106.5 228l63 352q31 171 -27.5 267t-215.5 96
q-124 0 -198.5 -86.5t-102.5 -239.5l-62 -348q-30 -169 31.5 -259.5t200.5 -90.5z" />
    <glyph glyph-name="Emacron" unicode="&#x112;" horiz-adv-x="886" 
d="M475 1710h426l-14 -82h-426zM715 0h-660l256 1450h639l-14 -90h-543l-100 -563h471l-16 -92h-472l-108 -613h561z" />
    <glyph glyph-name="emacron" unicode="&#x113;" 
d="M432 1434h426l-14 -82h-426zM807 338q-33 -178 -126.5 -267t-266.5 -89q-146 0 -221 57q-154 116 -105 393l68 389q32 174 133.5 267.5t259.5 93.5q193 0 280.5 -115.5t51.5 -312.5l-35 -199h-641l-25 -133q-59 -350 242 -350q130 0 197.5 68.5t91.5 211.5l6 39h100z
M219 639h545l22 123q29 159 -32.5 246.5t-206.5 87.5q-120 0 -196 -73t-101 -212z" />
    <glyph glyph-name="Ebreve" unicode="&#x114;" horiz-adv-x="886" 
d="M672 1585q-130 0 -181.5 71.5t-33.5 198.5h80q-13 -95 18.5 -145t122.5 -51q169 3 213 196h78q-56 -270 -297 -270zM715 0h-660l256 1450h639l-14 -90h-543l-100 -563h471l-16 -92h-472l-108 -613h561z" />
    <glyph glyph-name="ebreve" unicode="&#x115;" 
d="M635 1317q-130 0 -181.5 71.5t-33.5 198.5h80q-13 -95 18.5 -145t122.5 -51q169 3 213 196h78q-56 -270 -297 -270zM807 338q-33 -178 -126.5 -267t-266.5 -89q-146 0 -221 57q-154 116 -105 393l68 389q32 174 133.5 267.5t259.5 93.5q193 0 280.5 -115.5t51.5 -312.5
l-35 -199h-641l-25 -133q-59 -350 242 -350q130 0 197.5 68.5t91.5 211.5l6 39h100zM219 639h545l22 123q29 159 -32.5 246.5t-206.5 87.5q-120 0 -196 -73t-101 -212z" />
    <glyph glyph-name="Edotaccent" unicode="&#x116;" horiz-adv-x="886" 
d="M662 1587q-87 0 -68 94q7 51 30.5 73t65.5 22q83 0 68 -99q-10 -49 -32 -69.5t-64 -20.5zM715 0h-660l256 1450h639l-14 -90h-543l-100 -563h471l-16 -92h-472l-108 -613h561z" />
    <glyph glyph-name="edotaccent" unicode="&#x117;" 
d="M623 1319q-87 0 -68 94q7 51 30 72.5t66 21.5q83 0 68 -98q-10 -49 -32 -69.5t-64 -20.5zM807 338q-33 -178 -126.5 -267t-266.5 -89q-146 0 -221 57q-154 116 -105 393l68 389q32 174 133.5 267.5t259.5 93.5q193 0 280.5 -115.5t51.5 -312.5l-35 -199h-641l-25 -133
q-59 -350 242 -350q130 0 197.5 68.5t91.5 211.5l6 39h100zM219 639h545l22 123q29 159 -32.5 246.5t-206.5 87.5q-120 0 -196 -73t-101 -212z" />
    <glyph glyph-name="Eogonek" unicode="&#x118;" horiz-adv-x="886" 
d="M852 -205q-39 -86 -101.5 -127t-156.5 -41q-98 0 -145 52.5t-33 132.5q20 98 170 188h-531l256 1450h639l-14 -90h-543l-100 -563h471l-16 -92h-472l-108 -613h561l-14 -92q-111 -63 -160.5 -107t-56.5 -90q-6 -44 22.5 -73t85.5 -29q103 0 152 94h94z" />
    <glyph glyph-name="eogonek" unicode="&#x119;" 
d="M756 -174q-39 -86 -101.5 -127t-156.5 -41q-98 0 -145.5 52.5t-33.5 131.5q15 74 99 140h-4q-146 0 -221 57q-154 116 -105 393l68 389q32 174 133.5 267.5t259.5 93.5q193 0 280.5 -115.5t51.5 -312.5l-35 -199h-641l-25 -133q-59 -350 242 -350q130 0 197.5 68.5
t91.5 211.5l6 39h100l-10 -53q-24 -130 -77 -211t-146 -117q-92 -55 -134 -94.5t-49 -81.5q-6 -44 23 -73t86 -29q103 0 152 94h94zM219 639h545l22 123q29 159 -32.5 246.5t-206.5 87.5q-120 0 -196 -73t-101 -212z" />
    <glyph glyph-name="Ecaron" unicode="&#x11a;" horiz-adv-x="886" 
d="M621 1587l-144 273h94l97 -195l170 195h98l-244 -273h-71zM715 0h-660l256 1450h639l-14 -90h-543l-100 -563h471l-16 -92h-472l-108 -613h561z" />
    <glyph glyph-name="ecaron" unicode="&#x11b;" 
d="M586 1319l-144 272h95l96 -194l170 194h98l-244 -272h-71zM807 338q-33 -178 -126.5 -267t-266.5 -89q-146 0 -221 57q-154 116 -105 393l68 389q32 174 133.5 267.5t259.5 93.5q193 0 280.5 -115.5t51.5 -312.5l-35 -199h-641l-25 -133q-59 -350 242 -350
q130 0 197.5 68.5t91.5 211.5l6 39h100zM219 639h545l22 123q29 159 -32.5 246.5t-206.5 87.5q-120 0 -196 -73t-101 -212z" />
    <glyph glyph-name="Gcircumflex" unicode="&#x11c;" horiz-adv-x="1046" 
d="M758 1806l-172 -200h-99l240 274h78l143 -274h-90zM760 223q-48 -122 -132.5 -182.5t-215.5 -60.5q-196 0 -272.5 129.5t-37.5 361.5l97 541q42 234 153 344t299 110q194 0 287.5 -109.5t56.5 -322.5l-8 -53h-102l8 53q32 175 -30.5 258.5t-219.5 83.5q-141 0 -225 -87
t-119 -281l-98 -543q-67 -391 237 -391q153 0 233 95.5t117 295.5l21 117l8 -2l12 65h-307l15 90h395l-129 -735h-68z" />
    <glyph glyph-name="gcircumflex" unicode="&#x11d;" horiz-adv-x="997" 
d="M670 1516l-172 -201h-99l240 274h78l143 -274h-90zM346 -418q-330 0 -346 281h104q6 -95 64.5 -145t181.5 -50q128 0 200 69t99 210l43 241q-99 -206 -305 -206q-182 0 -261 117.5t-42 324.5l63 348q66 408 385 408q136 0 209.5 -64.5t85.5 -181.5l56 229h73l-217 -1233
q-33 -175 -128.5 -261.5t-264.5 -86.5zM414 70q123 0 204.5 81t106.5 228l63 352q31 171 -27.5 267t-215.5 96q-124 0 -198.5 -86.5t-102.5 -239.5l-62 -348q-30 -169 31.5 -259.5t200.5 -90.5z" />
    <glyph glyph-name="Gbreve" unicode="&#x11e;" horiz-adv-x="1046" 
d="M723 1602q-130 0 -181.5 71.5t-33.5 198.5h80q-13 -95 18.5 -145.5t122.5 -51.5q169 3 213 197h78q-56 -270 -297 -270zM760 223q-48 -122 -132.5 -182.5t-215.5 -60.5q-196 0 -272.5 129.5t-37.5 361.5l97 541q42 234 153 344t299 110q194 0 287.5 -109.5t56.5 -322.5
l-8 -53h-102l8 53q32 175 -30.5 258.5t-219.5 83.5q-141 0 -225 -87t-119 -281l-98 -543q-67 -391 237 -391q153 0 233 95.5t117 295.5l21 117l8 -2l12 65h-307l15 90h395l-129 -735h-68z" />
    <glyph glyph-name="gbreve" unicode="&#x11f;" horiz-adv-x="997" 
d="M635 1311q-130 0 -181.5 71.5t-33.5 198.5h80q-13 -95 18.5 -145.5t122.5 -51.5q169 3 213 197h78q-56 -270 -297 -270zM346 -418q-330 0 -346 281h104q6 -95 64.5 -145t181.5 -50q128 0 200 69t99 210l43 241q-99 -206 -305 -206q-182 0 -261 117.5t-42 324.5l63 348
q66 408 385 408q136 0 209.5 -64.5t85.5 -181.5l56 229h73l-217 -1233q-33 -175 -128.5 -261.5t-264.5 -86.5zM414 70q123 0 204.5 81t106.5 228l63 352q31 171 -27.5 267t-215.5 96q-124 0 -198.5 -86.5t-102.5 -239.5l-62 -348q-30 -169 31.5 -259.5t200.5 -90.5z" />
    <glyph glyph-name="Gdotaccent" unicode="&#x120;" horiz-adv-x="1046" 
d="M715 1604q-87 0 -68 94q7 51 30 72.5t66 21.5q83 0 68 -98q-10 -49 -32 -69.5t-64 -20.5zM760 223q-48 -122 -132.5 -182.5t-215.5 -60.5q-196 0 -272.5 129.5t-37.5 361.5l97 541q42 234 153 344t299 110q194 0 287.5 -109.5t56.5 -322.5l-8 -53h-102l8 53
q32 175 -30.5 258.5t-219.5 83.5q-141 0 -225 -87t-119 -281l-98 -543q-67 -391 237 -391q153 0 233 95.5t117 295.5l21 117l8 -2l12 65h-307l15 90h395l-129 -735h-68z" />
    <glyph glyph-name="gdotaccent" unicode="&#x121;" horiz-adv-x="997" 
d="M625 1313q-87 0 -68 94q7 51 30 72.5t66 21.5q83 0 68 -98q-10 -49 -32 -69.5t-64 -20.5zM346 -418q-330 0 -346 281h104q6 -95 64.5 -145t181.5 -50q128 0 200 69t99 210l43 241q-99 -206 -305 -206q-182 0 -261 117.5t-42 324.5l63 348q66 408 385 408
q136 0 209.5 -64.5t85.5 -181.5l56 229h73l-217 -1233q-33 -175 -128.5 -261.5t-264.5 -86.5zM414 70q123 0 204.5 81t106.5 228l63 352q31 171 -27.5 267t-215.5 96q-124 0 -198.5 -86.5t-102.5 -239.5l-62 -348q-30 -169 31.5 -259.5t200.5 -90.5z" />
    <glyph glyph-name="uni0122" unicode="&#x122;" horiz-adv-x="1046" 
d="M760 223q-48 -122 -132.5 -182.5t-215.5 -60.5q-196 0 -272.5 129.5t-37.5 361.5l97 541q42 234 153 344t299 110q194 0 287.5 -109.5t56.5 -322.5l-8 -53h-102l8 53q32 175 -30.5 258.5t-219.5 83.5q-141 0 -225 -87t-119 -281l-98 -543q-67 -391 237 -391
q153 0 233 95.5t117 295.5l21 117l8 -2l12 65h-307l15 90h395l-129 -735h-68zM272 -432q92 45 117 145q-8 -6 -24 -6q-30 0 -43.5 16t-6.5 60q15 86 93 86q42 0 55.5 -28.5t1.5 -92.5q-13 -83 -61.5 -143t-122.5 -90z" />
    <glyph glyph-name="uni0123" unicode="&#x123;" horiz-adv-x="997" 
d="M606 1319q-80 0 -57 121q27 167 186 233l6 -53q-92 -44 -118 -147q8 6 26 6q32 0 44 -15t5 -59q-15 -86 -92 -86zM346 -418q-330 0 -346 281h104q6 -95 64.5 -145t181.5 -50q128 0 200 69t99 210l43 241q-99 -206 -305 -206q-182 0 -261 117.5t-42 324.5l63 348
q66 408 385 408q136 0 209.5 -64.5t85.5 -181.5l56 229h73l-217 -1233q-33 -175 -128.5 -261.5t-264.5 -86.5zM414 70q123 0 204.5 81t106.5 228l63 352q31 171 -27.5 267t-215.5 96q-124 0 -198.5 -86.5t-102.5 -239.5l-62 -348q-30 -169 31.5 -259.5t200.5 -90.5z" />
    <glyph glyph-name="Hcircumflex" unicode="&#x124;" horiz-adv-x="1046" 
d="M737 1774l-172 -201h-98l240 274h77l144 -274h-90zM811 674h-539l-118 -674h-99l254 1450h99l-119 -682h538l121 682h99l-256 -1450h-99z" />
    <glyph glyph-name="hcircumflex" unicode="&#x125;" horiz-adv-x="987" 
d="M428 1872l-172 -201h-98l239 275h78l143 -275h-90zM139 0h-94l268 1532h93l-101 -574q99 224 318 224q159 0 229.5 -101t38.5 -284l-139 -797h-99l140 797q25 143 -25.5 220t-181.5 77q-255 0 -316 -344z" />
    <glyph glyph-name="Hbar" unicode="&#x126;" horiz-adv-x="1071" 
d="M821 662h-538l-117 -662h-98l184 1055h-143l14 86h145l54 309h98l-53 -309h538l56 309h96l-53 -309h145l-16 -86h-146l-184 -1055h-98zM891 1055h-541l-53 -305h541z" />
    <glyph glyph-name="hbar" unicode="&#x127;" horiz-adv-x="987" 
d="M139 0h-94l229 1315h-106l12 69h107l26 148h93l-25 -148h190l-12 -69h-190l-64 -357q99 224 318 224q159 0 229.5 -101t38.5 -284l-139 -797h-99l140 797q25 143 -25.5 220t-181.5 77q-255 0 -316 -344z" />
    <glyph glyph-name="Itilde" unicode="&#x128;" horiz-adv-x="651" 
d="M225 1593q18 94 58.5 141.5t111.5 47.5q57 0 101 -29q15 -9 48.5 -35t56.5 -37.5t46 -11.5q39 0 62 25t30 84h74q-14 -93 -54 -141t-114 -48q-55 0 -98 29q-13 9 -38.5 29t-39 29.5t-35.5 18.5t-43 9q-75 0 -90 -111h-76zM-33 0l17 92h209l223 1268h-209l14 90h518
l-16 -90h-211l-223 -1268h211l-17 -92h-516z" />
    <glyph glyph-name="itilde" unicode="&#x129;" horiz-adv-x="389" 
d="M45 1307q18 94 58.5 141t111.5 47q57 0 100 -29q14 -9 48.5 -35t57.5 -37.5t46 -11.5q39 0 62 25t30 84h74q-14 -93 -54 -140.5t-114 -47.5q-56 0 -98 28q-13 9 -38.5 29t-39 29.5t-35.5 18.5t-43 9q-75 0 -90 -110h-76zM250 1163h96l-203 -1163h-98z" />
    <glyph glyph-name="Imacron" unicode="&#x12a;" horiz-adv-x="651" 
d="M315 1708h426l-14 -82h-426zM-33 0l17 92h209l223 1268h-209l14 90h518l-16 -90h-211l-223 -1268h211l-17 -92h-516z" />
    <glyph glyph-name="imacron" unicode="&#x12b;" horiz-adv-x="389" 
d="M131 1413h426l-14 -82h-426zM250 1163h96l-203 -1163h-98z" />
    <glyph glyph-name="Ibreve" unicode="&#x12c;" horiz-adv-x="651" 
d="M514 1585q-130 0 -181.5 71.5t-33.5 198.5h80q-13 -95 18.5 -145t122.5 -51q169 3 213 196h78q-56 -270 -297 -270zM-33 0l17 92h209l223 1268h-209l14 90h518l-16 -90h-211l-223 -1268h211l-17 -92h-516z" />
    <glyph glyph-name="ibreve" unicode="&#x12d;" horiz-adv-x="389" 
d="M330 1296q-130 0 -181.5 72t-33.5 199h80q-13 -95 18.5 -145.5t122.5 -51.5q169 3 213 197h78q-56 -271 -297 -271zM250 1163h96l-203 -1163h-98z" />
    <glyph glyph-name="Iogonek" unicode="&#x12e;" horiz-adv-x="651" 
d="M621 -205q-39 -85 -101.5 -126.5t-157.5 -41.5q-98 0 -145 52.5t-33 132.5q20 98 170 188h-387l17 92h209l223 1268h-209l14 90h518l-16 -90h-211l-223 -1268h211l-17 -92q-111 -63 -160.5 -107t-56.5 -90q-6 -44 23 -73t86 -29q102 0 151 94h95z" />
    <glyph glyph-name="iogonek" unicode="&#x12f;" horiz-adv-x="389" 
d="M326 1307q-75 0 -60 88q10 49 29 67.5t57 18.5q73 0 58 -88q-7 -48 -26.5 -67t-57.5 -19zM279 -205q-39 -85 -101.5 -126.5t-157.5 -41.5q-98 0 -145 52.5t-33 132.5q12 56 61 104.5t144 103.5l201 1143h96l-203 -1163q-111 -63 -160.5 -107t-56.5 -90q-6 -44 22.5 -73
t86.5 -29q102 0 151 94h95z" />
    <glyph glyph-name="Idotaccent" unicode="&#x130;" horiz-adv-x="651" 
d="M506 1587q-87 0 -68 94q7 51 30.5 73t66.5 22q82 0 67 -99q-10 -49 -32 -69.5t-64 -20.5zM-33 0l17 92h209l223 1268h-209l14 90h518l-16 -90h-211l-223 -1268h211l-17 -92h-516z" />
    <glyph glyph-name="dotlessi" unicode="&#x131;" horiz-adv-x="389" 
d="M250 1163h96l-203 -1163h-98z" />
    <glyph glyph-name="IJ" unicode="&#x132;" horiz-adv-x="1241" 
d="M-33 0l17 92h206l226 1268h-209l14 90h516l-16 -90h-209l-225 -1268h211l-17 -92h-514zM641 92h72q118 0 168.5 55.5t76.5 198.5l197 1104h100l-196 -1106q-22 -128 -58 -199q-37 -77 -103 -111t-181 -34h-92z" />
    <glyph glyph-name="ij" unicode="&#x133;" horiz-adv-x="774" 
d="M328 1307q-75 0 -60 88q10 49 29 67.5t57 18.5q73 0 58 -88q-7 -48 -26.5 -67t-57.5 -19zM719 1307q-75 0 -60 88q10 49 29 67.5t57 18.5q73 0 58 -88q-10 -49 -29 -67.5t-55 -18.5zM-16 -328l16 90h227q59 0 105 17q69 25 92 180l213 1204h96l-215 -1210
q-14 -107 -51 -172q-30 -60 -88 -84.5t-162 -24.5h-233zM45 0l205 1163h96l-203 -1163h-98z" />
    <glyph glyph-name="Jcircumflex" unicode="&#x134;" horiz-adv-x="862" 
d="M889 1790l-172 -201h-99l240 275h78l143 -275h-90zM324 -20q-162 0 -235 89t-46 242l33 181h100l-33 -183q-20 -106 26.5 -170.5t156.5 -64.5q118 0 174.5 65t83.5 215l190 1096h100l-194 -1112q-32 -189 -115.5 -273.5t-240.5 -84.5z" />
    <glyph glyph-name="jcircumflex" unicode="&#x135;" horiz-adv-x="393" 
d="M369 1501l-172 -201h-99l240 275h78l143 -275h-90zM-219 -334l16 92h47q60 0 103 17q69 25 92 178l213 1210h98l-215 -1216q-23 -119 -51 -170q-30 -60 -88 -85.5t-158 -25.5h-57z" />
    <glyph glyph-name="uni0136" unicode="&#x136;" horiz-adv-x="985" 
d="M541 868l-295 -340l-92 -528h-99l256 1450h97l-132 -748l-14 -57l10 17l674 788h113l-443 -520l224 -930h-109l-182 788zM276 -399q92 45 117 145q-8 -6 -24 -6q-30 0 -43.5 16t-6.5 60q15 86 93 86q42 0 55.5 -28.5t1.5 -92.5q-13 -83 -61.5 -144t-122.5 -90z" />
    <glyph glyph-name="uni0137" unicode="&#x137;" horiz-adv-x="903" 
d="M475 682l-270 -301l-66 -381h-94l268 1532h95l-172 -983l-11 -45l596 659h115l-377 -422l201 -741h-105zM233 -399q92 45 117 145q-8 -6 -24 -6q-30 0 -43.5 16t-6.5 60q15 86 93 86q42 0 55.5 -28.5t1.5 -92.5q-13 -83 -61.5 -144t-122.5 -90z" />
    <glyph glyph-name="kgreenlandic" unicode="&#x138;" horiz-adv-x="903" 
d="M475 682l-270 -301l-66 -381h-94l205 1163h94l-108 -614l-11 -45l596 659h115l-377 -422l201 -741h-105z" />
    <glyph glyph-name="Lacute" unicode="&#x139;" horiz-adv-x="811" 
d="M596 1911h111l-285 -320h-84zM55 0l256 1450h97l-240 -1356h498l-15 -94h-596z" />
    <glyph glyph-name="lacute" unicode="&#x13a;" horiz-adv-x="391" 
d="M604 1993h111l-285 -320h-84zM315 1532h97l-269 -1532h-96z" />
    <glyph glyph-name="uni013B" unicode="&#x13b;" horiz-adv-x="811" 
d="M55 0l256 1450h97l-240 -1356h498l-15 -94h-596zM203 -412q91 44 116 146q-8 -6 -24 -6q-30 0 -43 15.5t-6 59.5q15 86 92 86q42 0 55.5 -28t1.5 -92q-13 -83 -61.5 -144t-122.5 -90z" />
    <glyph glyph-name="uni013C" unicode="&#x13c;" horiz-adv-x="391" 
d="M315 1532h97l-269 -1532h-96zM-45 -418q92 45 117 146q-9 -7 -25 -7q-30 0 -43 16t-6 60q15 86 92 86q42 0 55.5 -28.5t1.5 -92.5q-13 -83 -61.5 -143t-122.5 -90z" />
    <glyph glyph-name="Lcaron" unicode="&#x13d;" horiz-adv-x="811" 
d="M735 1595h94l-153 -292h-70zM55 0l256 1450h97l-240 -1356h498l-15 -94h-596z" />
    <glyph glyph-name="lcaron" unicode="&#x13e;" horiz-adv-x="391" 
d="M643 1636h94l-153 -293h-70zM315 1532h97l-269 -1532h-96z" />
    <glyph glyph-name="Ldot" unicode="&#x13f;" horiz-adv-x="811" 
d="M55 0l256 1450h99l-242 -1356h498l-15 -94h-596zM659 508q-86 0 -67 94q15 94 96 94q83 0 68 -98q-10 -50 -32.5 -70t-64.5 -20z" />
    <glyph glyph-name="ldot" unicode="&#x140;" horiz-adv-x="530" 
d="M315 1532h97l-269 -1532h-96zM436 459q-86 0 -67 94q7 51 30 72.5t66 21.5q82 0 67 -98q-10 -49 -32 -69.5t-64 -20.5z" />
    <glyph glyph-name="Lslash" unicode="&#x141;" horiz-adv-x="827" 
d="M72 0l123 696l-142 -39l-10 82l166 47l117 664h98l-113 -635l217 62l9 -82l-240 -68l-113 -633h498l-16 -94h-594z" />
    <glyph glyph-name="lslash" unicode="&#x142;" horiz-adv-x="415" 
d="M61 0l107 610l-139 -45l-9 64l160 53l150 850h96l-143 -817l143 47l8 -64l-164 -53l-112 -645h-97z" />
    <glyph glyph-name="Nacute" unicode="&#x143;" horiz-adv-x="1089" 
d="M932 1878h110l-284 -319h-84zM150 0h-95l256 1450h88l328 -1081l51 -234l25 225l190 1090h94l-253 -1450h-86l-332 1104l-49 233l-23 -227z" />
    <glyph glyph-name="nacute" unicode="&#x144;" horiz-adv-x="987" 
d="M856 1638h111l-285 -319h-84zM141 0h-96l203 1163h78l-27 -217q96 236 324 236q159 0 229.5 -101t38.5 -284l-139 -797h-99l140 797q25 143 -25.5 220t-181.5 77q-251 0 -312 -344z" />
    <glyph glyph-name="uni0145" unicode="&#x145;" horiz-adv-x="1089" 
d="M150 0h-95l256 1450h88l328 -1081l51 -234l25 225l190 1090h94l-253 -1450h-86l-332 1104l-49 233l-23 -227zM279 -397q91 45 116 145q-8 -6 -24 -6q-30 0 -43 16t-6 60q15 86 92 86q42 0 55.5 -28.5t1.5 -92.5q-13 -83 -61.5 -144t-122.5 -90z" />
    <glyph glyph-name="uni0146" unicode="&#x146;" horiz-adv-x="987" 
d="M141 0h-96l203 1163h78l-27 -217q96 236 324 236q159 0 229.5 -101t38.5 -284l-139 -797h-99l140 797q25 143 -25.5 220t-181.5 77q-251 0 -312 -344zM252 -401q92 45 117 145q-8 -6 -25 -6q-30 0 -43 16t-6 60q15 86 92 86q42 0 55.5 -28.5t1.5 -92.5
q-13 -83 -61.5 -144t-122.5 -90z" />
    <glyph glyph-name="Ncaron" unicode="&#x147;" horiz-adv-x="1089" 
d="M680 1559l-143 272h94l96 -195l170 195h98l-243 -272h-72zM150 0h-95l256 1450h88l328 -1081l51 -234l25 225l190 1090h94l-253 -1450h-86l-332 1104l-49 233l-23 -227z" />
    <glyph glyph-name="ncaron" unicode="&#x148;" horiz-adv-x="987" 
d="M602 1315l-143 272h94l96 -194l170 194h99l-244 -272h-72zM141 0h-96l203 1163h78l-27 -217q96 236 324 236q159 0 229.5 -101t38.5 -284l-139 -797h-99l140 797q25 143 -25.5 220t-181.5 77q-251 0 -312 -344z" />
    <glyph glyph-name="Eng" unicode="&#x14a;" horiz-adv-x="1089" 
d="M467 -336l14 90h47q59 0 105 17q72 25 98 180l10 67l-333 1115l-41 202l-23 -223l-194 -1112h-95l256 1450h88l334 -1104l45 -209l25 221l190 1092h94l-264 -1507q-22 -114 -53 -170q-30 -59 -88 -84t-160 -25h-55z" />
    <glyph glyph-name="eng" unicode="&#x14b;" horiz-adv-x="987" 
d="M383 -334l16 92h47q60 0 107 15q37 13 56.5 51.5t33.5 118.5l150 854q25 143 -25.5 220t-181.5 77q-251 0 -312 -344l-133 -750h-96l203 1163h78l-27 -217q96 236 324 236q159 0 229.5 -101t38.5 -284l-41 -234l-72 -409l-39 -217q-20 -105 -49 -168q-30 -58 -87 -80.5
t-163 -22.5h-57z" />
    <glyph glyph-name="Omacron" unicode="&#x14c;" horiz-adv-x="1052" 
d="M516 1716h426l-14 -82h-426zM461 -20q-151 0 -236 61q-166 124 -114 428l96 543q43 240 151.5 347t292.5 107q198 0 293.5 -123t59.5 -344l-105 -575q-40 -227 -141.5 -335.5t-296.5 -108.5zM471 74q144 0 219.5 84t108.5 270l104 580q31 179 -34.5 273.5t-225.5 94.5
q-138 0 -218 -86t-116 -286l-98 -543q-33 -192 28.5 -289.5t231.5 -97.5z" />
    <glyph glyph-name="omacron" unicode="&#x14d;" horiz-adv-x="972" 
d="M424 1432h426l-14 -82h-426zM416 -18q-143 0 -223 57q-153 118 -105 393l70 395q31 171 132 263t261 92q194 0 284 -116t54 -312l-74 -412q-60 -360 -399 -360zM424 72q246 0 295 284l74 412q29 156 -37 242t-207 86q-119 0 -193.5 -70.5t-99.5 -204.5l-74 -407
q-28 -158 31 -250t211 -92z" />
    <glyph glyph-name="Obreve" unicode="&#x14e;" horiz-adv-x="1052" 
d="M715 1599q-130 0 -181.5 72t-33.5 199h80q-13 -95 18.5 -145.5t122.5 -51.5q169 3 213 197h78q-56 -271 -297 -271zM461 -20q-151 0 -236 61q-166 124 -114 428l96 543q43 240 151.5 347t292.5 107q198 0 293.5 -123t59.5 -344l-105 -575q-40 -227 -141.5 -335.5
t-296.5 -108.5zM471 74q144 0 219.5 84t108.5 270l104 580q31 179 -34.5 273.5t-225.5 94.5q-138 0 -218 -86t-116 -286l-98 -543q-33 -192 28.5 -289.5t231.5 -97.5z" />
    <glyph glyph-name="obreve" unicode="&#x14f;" horiz-adv-x="972" 
d="M623 1315q-130 0 -181.5 71.5t-33.5 198.5h79q-13 -95 19 -145t123 -51q169 3 213 196h78q-56 -270 -297 -270zM416 -18q-143 0 -223 57q-153 118 -105 393l70 395q31 171 132 263t261 92q194 0 284 -116t54 -312l-74 -412q-60 -360 -399 -360zM424 72q246 0 295 284
l74 412q29 156 -37 242t-207 86q-119 0 -193.5 -70.5t-99.5 -204.5l-74 -407q-28 -158 31 -250t211 -92z" />
    <glyph glyph-name="Ohungarumlaut" unicode="&#x150;" horiz-adv-x="1052" 
d="M639 1606h-78l219 276h109zM850 1606h-80l238 276h110zM461 -20q-151 0 -236 61q-166 124 -114 428l96 543q43 240 151.5 347t292.5 107q198 0 293.5 -123t59.5 -344l-105 -575q-40 -227 -141.5 -335.5t-296.5 -108.5zM471 74q144 0 219.5 84t108.5 270l104 580
q31 179 -34.5 273.5t-225.5 94.5q-138 0 -218 -86t-116 -286l-98 -543q-33 -192 28.5 -289.5t231.5 -97.5z" />
    <glyph glyph-name="ohungarumlaut" unicode="&#x151;" horiz-adv-x="972" 
d="M547 1321h-78l219 276h109zM758 1321h-80l237 276h111zM416 -18q-143 0 -223 57q-153 118 -105 393l70 395q31 171 132 263t261 92q194 0 284 -116t54 -312l-74 -412q-60 -360 -399 -360zM424 72q246 0 295 284l74 412q29 156 -37 242t-207 86q-119 0 -193.5 -70.5
t-99.5 -204.5l-74 -407q-28 -158 31 -250t211 -92z" />
    <glyph glyph-name="OE" unicode="&#x152;" horiz-adv-x="1550" 
d="M745 158q-44 -91 -114 -134.5t-185 -43.5q-142 0 -227.5 61.5t-108 170.5t0.5 259l24 139q7 41 22.5 130t22.5 130l25 142q42 239 148 346.5t284 107.5q257 0 303 -211l35 195h639l-15 -90h-542l-101 -563h471l-16 -92h-471l-111 -613h564l-15 -92h-659zM469 74
q145 0 220 84.5t108 273.5l102 563q32 188 -34 284.5t-230 96.5q-135 0 -214.5 -86t-113.5 -286l-96 -539q-67 -391 258 -391z" />
    <glyph glyph-name="oe" unicode="&#x153;" horiz-adv-x="1597" 
d="M1454 338q-33 -178 -126.5 -267t-266.5 -89q-139 0 -213 55.5t-98 161.5q-90 -217 -336 -217q-146 0 -221 57q-154 116 -105 393l70 395q31 172 130.5 263.5t260.5 91.5q130 0 209 -56.5t106 -160.5q100 217 342 217q186 0 272 -116t50 -312l-35 -199h-643l-25 -133
q-59 -350 244 -350q130 0 197.5 68.5t91.5 211.5l6 39h100zM424 72q246 0 295 284l74 412q29 156 -37 242t-207 86q-119 0 -193.5 -70.5t-99.5 -204.5l-74 -407q-28 -158 31 -250t211 -92zM864 639h547l23 123q29 159 -33 246.5t-207 87.5q-120 0 -196.5 -73t-102.5 -212z
" />
    <glyph glyph-name="Racute" unicode="&#x154;" horiz-adv-x="993" 
d="M899 1909h111l-285 -320h-84zM266 637l-112 -637h-99l256 1450h348q186 0 264.5 -99t45.5 -276l-21 -112q-24 -123 -88 -191.5t-182 -91.5q106 -26 141 -97t10 -194l-51 -291q-12 -73 19 -98h-113q-17 22 -6 100l51 283q24 131 -25 192.5t-188 61.5h-250zM393 1362
l-112 -639h245q145 0 223 63t103 199l20 102q53 275 -227 275h-252z" />
    <glyph glyph-name="racute" unicode="&#x155;" horiz-adv-x="624" 
d="M676 1610h110l-284 -320h-84zM45 0l203 1163h74l-23 -219q47 117 127 169t213 52h43l-16 -100h-56q-160 0 -237.5 -83.5t-110.5 -279.5l-123 -702h-94z" />
    <glyph glyph-name="uni0156" unicode="&#x156;" horiz-adv-x="993" 
d="M266 637l-112 -637h-99l256 1450h348q186 0 264.5 -99t45.5 -276l-21 -112q-24 -123 -88 -191.5t-182 -91.5q106 -26 141 -97t10 -194l-51 -291q-12 -73 19 -98h-113q-17 22 -6 100l51 283q24 131 -25 192.5t-188 61.5h-250zM393 1362l-112 -639h245q145 0 223 63
t103 199l20 102q53 275 -227 275h-252zM262 -397q92 45 117 145q-8 -6 -25 -6q-30 0 -43 16t-6 60q15 86 92 86q42 0 56 -28.5t2 -92.5q-13 -83 -62 -143.5t-123 -90.5z" />
    <glyph glyph-name="uni0157" unicode="&#x157;" horiz-adv-x="624" 
d="M45 0l203 1163h74l-23 -219q47 117 127 169t213 52h43l-16 -100h-56q-160 0 -237.5 -83.5t-110.5 -279.5l-123 -702h-94zM-63 -418q91 44 116 146q-9 -7 -24 -7q-30 0 -43 16t-6 60q15 86 92 86q42 0 55.5 -28.5t1.5 -92.5q-13 -83 -61.5 -143t-122.5 -90z" />
    <glyph glyph-name="Rcaron" unicode="&#x158;" horiz-adv-x="993" 
d="M645 1585l-143 273h94l96 -195l170 195h99l-244 -273h-72zM266 637l-112 -637h-99l256 1450h348q186 0 264.5 -99t45.5 -276l-21 -112q-24 -123 -88 -191.5t-182 -91.5q106 -26 141 -97t10 -194l-51 -291q-12 -73 19 -98h-113q-17 22 -6 100l51 283q24 131 -25 192.5
t-188 61.5h-250zM393 1362l-112 -639h245q145 0 223 63t103 199l20 102q53 275 -227 275h-252z" />
    <glyph glyph-name="rcaron" unicode="&#x159;" horiz-adv-x="624" 
d="M422 1286l-143 273h94l96 -195l170 195h98l-243 -273h-72zM45 0l203 1163h74l-23 -219q47 117 127 169t213 52h43l-16 -100h-56q-160 0 -237.5 -83.5t-110.5 -279.5l-123 -702h-94z" />
    <glyph glyph-name="Sacute" unicode="&#x15a;" horiz-adv-x="944" 
d="M864 1927h111l-285 -319h-84zM420 -20q-207 0 -303 108t-58 305l21 107h100l-20 -113q-26 -156 41 -235.5t219 -79.5q140 0 211.5 66.5t93.5 189.5l4 32q15 98 -20 160q-22 40 -63 78t-77 61.5t-96 57.5q-72 46 -141 94q-74 59 -106 135.5t-13 186.5l4 30
q24 144 125.5 223.5t249.5 79.5q134 0 219 -49q82 -47 115 -128t16 -185l-18 -103h-99l17 99q24 128 -39 204t-215 76q-110 0 -182.5 -57t-90.5 -168l-6 -31q-15 -94 19 -155q32 -55 87 -98t144 -95q94 -59 143 -96q75 -60 109 -137t16 -191l-6 -33q-27 -165 -123.5 -252
t-277.5 -87z" />
    <glyph glyph-name="sacute" unicode="&#x15b;" horiz-adv-x="890" 
d="M788 1640h111l-285 -319h-84zM383 -20q-182 0 -273.5 94.5t-62.5 255.5l14 78h103l-17 -89q-20 -116 46.5 -182.5t199.5 -66.5q223 0 262 200v6q16 86 -16 134q-29 47 -80 80.5t-137 74.5q-76 40 -133 78q-146 93 -113 275v6q23 127 114 194.5t236 67.5q168 0 251 -88
t57 -240l-9 -57h-96l10 67q19 109 -38.5 170.5t-180.5 61.5q-105 0 -168.5 -48t-81.5 -134v-5q-13 -83 19 -129q19 -32 57.5 -61.5t67 -45t88.5 -44.5q70 -37 135 -78q150 -97 117 -283l-2 -4q-51 -288 -369 -288z" />
    <glyph glyph-name="Scircumflex" unicode="&#x15c;" horiz-adv-x="944" 
d="M698 1800l-172 -201h-98l240 275h77l144 -275h-90zM420 -20q-207 0 -303 108t-58 305l21 107h100l-20 -113q-26 -156 41 -235.5t219 -79.5q140 0 211.5 66.5t93.5 189.5l4 32q15 98 -20 160q-22 40 -63 78t-77 61.5t-96 57.5q-72 46 -141 94q-74 59 -106 135.5t-13 186.5
l4 30q24 144 125.5 223.5t249.5 79.5q134 0 219 -49q82 -47 115 -128t16 -185l-18 -103h-99l17 99q24 128 -39 204t-215 76q-110 0 -182.5 -57t-90.5 -168l-6 -31q-15 -94 19 -155q32 -55 87 -98t144 -95q94 -59 143 -96q75 -60 109 -137t16 -191l-6 -33
q-27 -165 -123.5 -252t-277.5 -87z" />
    <glyph glyph-name="scircumflex" unicode="&#x15d;" horiz-adv-x="890" 
d="M618 1520l-172 -201h-98l240 274h78l143 -274h-90zM383 -20q-182 0 -273.5 94.5t-62.5 255.5l14 78h103l-17 -89q-20 -116 46.5 -182.5t199.5 -66.5q223 0 262 200v6q16 86 -16 134q-29 47 -80 80.5t-137 74.5q-76 40 -133 78q-146 93 -113 275v6q23 127 114 194.5
t236 67.5q168 0 251 -88t57 -240l-9 -57h-96l10 67q19 109 -38.5 170.5t-180.5 61.5q-105 0 -168.5 -48t-81.5 -134v-5q-13 -83 19 -129q19 -32 57.5 -61.5t67 -45t88.5 -44.5q70 -37 135 -78q150 -97 117 -283l-2 -4q-51 -288 -369 -288z" />
    <glyph glyph-name="uni015E" unicode="&#x15e;" horiz-adv-x="944" 
d="M322 -434q-210 0 -207 172h90q-3 -100 123 -100t141 81q10 49 -18.5 71t-102.5 22h-45l31 174q-164 23 -235.5 128t-39.5 279l21 107h100l-20 -113q-26 -156 41 -235.5t219 -79.5q140 0 211.5 66.5t93.5 189.5l4 32q15 98 -20 160q-22 40 -63 78t-77 61.5t-96 57.5
q-72 46 -141 94q-74 59 -106 135.5t-13 186.5l4 30q24 144 125.5 223.5t249.5 79.5q134 0 219 -49q82 -47 115 -128t16 -185l-18 -103h-99l17 99q24 128 -39 204t-215 76q-110 0 -182.5 -57t-90.5 -168l-6 -31q-15 -94 19 -155q32 -55 87 -98t144 -95q94 -59 143 -96
q75 -60 109 -137t16 -191l-6 -33q-27 -165 -123.5 -252t-277.5 -87h-6l-19 -103q91 -5 132 -46.5t28 -117.5q-12 -69 -72.5 -108t-160.5 -39z" />
    <glyph glyph-name="uni015F" unicode="&#x15f;" horiz-adv-x="890" 
d="M299 -434q-210 0 -207 172h90q-3 -100 123 -100t141 81q10 49 -18 71t-102 22h-45l30 172q-148 20 -219 111.5t-45 234.5l14 78h103l-17 -89q-20 -116 46.5 -182.5t199.5 -66.5q223 0 262 200v6q16 86 -16 134q-29 47 -80 80.5t-137 74.5q-76 40 -133 78
q-146 93 -113 275v6q23 127 114 194.5t236 67.5q168 0 251 -88t57 -240l-9 -57h-96l10 67q19 109 -38.5 170.5t-180.5 61.5q-105 0 -168.5 -48t-81.5 -134v-5q-13 -83 19 -129q19 -32 57.5 -61.5t67 -45t88.5 -44.5q70 -37 135 -78q150 -97 117 -283l-2 -4
q-51 -288 -361 -288l-18 -103q91 -5 131.5 -46.5t27.5 -117.5q-12 -69 -72.5 -108t-160.5 -39z" />
    <glyph glyph-name="Scaron" unicode="&#x160;" horiz-adv-x="944" 
d="M616 1604l-143 272h94l97 -195l170 195h98l-244 -272h-72zM420 -20q-207 0 -303 108t-58 305l21 107h100l-20 -113q-26 -156 41 -235.5t219 -79.5q140 0 211.5 66.5t93.5 189.5l4 32q15 98 -20 160q-22 40 -63 78t-77 61.5t-96 57.5q-72 46 -141 94q-74 59 -106 135.5
t-13 186.5l4 30q24 144 125.5 223.5t249.5 79.5q134 0 219 -49q82 -47 115 -128t16 -185l-18 -103h-99l17 99q24 128 -39 204t-215 76q-110 0 -182.5 -57t-90.5 -168l-6 -31q-15 -94 19 -155q32 -55 87 -98t144 -95q94 -59 143 -96q75 -60 109 -137t16 -191l-6 -33
q-27 -165 -123.5 -252t-277.5 -87z" />
    <glyph glyph-name="scaron" unicode="&#x161;" horiz-adv-x="890" 
d="M537 1317l-144 272h94l97 -194l170 194h98l-244 -272h-71zM383 -20q-182 0 -273.5 94.5t-62.5 255.5l14 78h103l-17 -89q-20 -116 46.5 -182.5t199.5 -66.5q223 0 262 200v6q16 86 -16 134q-29 47 -80 80.5t-137 74.5q-76 40 -133 78q-146 93 -113 275v6
q23 127 114 194.5t236 67.5q168 0 251 -88t57 -240l-9 -57h-96l10 67q19 109 -38.5 170.5t-180.5 61.5q-105 0 -168.5 -48t-81.5 -134v-5q-13 -83 19 -129q19 -32 57.5 -61.5t67 -45t88.5 -44.5q70 -37 135 -78q150 -97 117 -283l-2 -4q-51 -288 -369 -288z" />
    <glyph glyph-name="uni0162" unicode="&#x162;" horiz-adv-x="804" 
d="M586 1358l-238 -1358h-98l237 1358h-292l14 92h696l-16 -92h-303zM150 -412q91 44 116 146q-8 -6 -24 -6q-30 0 -43 15.5t-6 59.5q15 86 92 86q42 0 55.5 -28t1.5 -92q-13 -83 -61.5 -144t-122.5 -90z" />
    <glyph glyph-name="uni0163" unicode="&#x163;" horiz-adv-x="595" 
d="M438 0h-61q-101 0 -164 29q-55 26 -68 99t11 208l129 737h-162l14 84h29q60 4 65 6q48 5 65 18.5t30 63.5l10 41q20 84 24 115h76l-41 -238h248l-16 -90h-248l-129 -731q-17 -116 -10 -158q7 -52 46.5 -71t121.5 -19h47zM117 -416q91 44 116 146q-8 -6 -24 -6
q-30 0 -43 15.5t-6 59.5q15 86 92 86q42 0 55.5 -28.5t1.5 -92.5q-13 -83 -61.5 -143t-122.5 -90z" />
    <glyph glyph-name="Tcaron" unicode="&#x164;" horiz-adv-x="804" 
d="M541 1587l-144 273h95l96 -195l170 195h98l-244 -273h-71zM586 1358l-238 -1358h-98l237 1358h-292l14 92h696l-16 -92h-303z" />
    <glyph glyph-name="tcaron" unicode="&#x165;" horiz-adv-x="595" 
d="M676 1628h94l-154 -293h-69zM438 0h-61q-101 0 -164 29q-55 26 -68 99t11 208l129 737h-162l14 84h29q60 4 65 6q48 5 65 18.5t30 63.5l10 41q20 84 24 115h76l-41 -238h248l-16 -90h-248l-129 -731q-17 -116 -10 -158q7 -52 46.5 -71t121.5 -19h47z" />
    <glyph glyph-name="Tbar" unicode="&#x166;" horiz-adv-x="804" 
d="M467 678l-119 -678h-98l119 678h-176l14 88h178l102 592h-292l14 92h696l-16 -92h-303l-103 -592h172l-14 -88h-174z" />
    <glyph glyph-name="tbar" unicode="&#x167;" horiz-adv-x="595" 
d="M438 0h-61q-101 0 -164 29q-55 26 -68 99t11 208l41 231h-123l14 82h123l74 424h-162l14 84h29q60 4 65 6q48 5 65 18.5t30 63.5l10 41q20 84 24 115h78l-43 -238h248l-16 -90h-246l-76 -424h178l-14 -82h-178l-41 -225q-17 -116 -10 -158q7 -52 46.5 -71t121.5 -19h47z
" />
    <glyph glyph-name="Utilde" unicode="&#x168;" horiz-adv-x="1017" 
d="M401 1577q18 94 58.5 141t111.5 47q59 0 101 -28q15 -9 48.5 -35t56.5 -37.5t46 -11.5q39 0 62 24.5t30 83.5h74q-14 -93 -54 -140.5t-114 -47.5q-55 0 -98 29q-13 9 -38.5 29t-39 29.5t-35.5 18.5t-43 9q-75 0 -90 -111h-76zM428 -20q-204 0 -274.5 121t-30.5 348
l176 1001h100l-178 -1010q-33 -184 19 -274t198 -90q136 0 205.5 81t101.5 261l183 1032h100l-186 -1049q-38 -218 -132 -319.5t-282 -101.5z" />
    <glyph glyph-name="utilde" unicode="&#x169;" horiz-adv-x="960" 
d="M332 1300q18 94 58.5 141.5t111.5 47.5q56 0 100 -29q14 -9 48.5 -35t57.5 -37.5t46 -11.5q39 0 62 25t30 84h74q-14 -93 -54 -141t-114 -48q-56 0 -99 29q-13 9 -38 29t-39 29.5t-35.5 18.5t-42.5 9q-75 0 -90 -111h-76zM668 215q-90 -233 -306 -233q-158 0 -224 101.5
t-34 293.5l140 786h98l-139 -794q-25 -144 22 -221.5t168 -77.5q124 0 196.5 87.5t102.5 256.5l131 749h99l-203 -1163h-78z" />
    <glyph glyph-name="Umacron" unicode="&#x16a;" horiz-adv-x="1017" 
d="M489 1686h426l-14 -82h-426zM428 -20q-204 0 -274.5 121t-30.5 348l176 1001h100l-178 -1010q-33 -184 19 -274t198 -90q136 0 205.5 81t101.5 261l183 1032h100l-186 -1049q-38 -218 -132 -319.5t-282 -101.5z" />
    <glyph glyph-name="umacron" unicode="&#x16b;" horiz-adv-x="960" 
d="M412 1405h426l-15 -82h-426zM668 215q-90 -233 -306 -233q-158 0 -224 101.5t-34 293.5l140 786h98l-139 -794q-25 -144 22 -221.5t168 -77.5q124 0 196.5 87.5t102.5 256.5l131 749h99l-203 -1163h-78z" />
    <glyph glyph-name="Ubreve" unicode="&#x16c;" horiz-adv-x="1017" 
d="M690 1569q-130 0 -181.5 71.5t-33.5 198.5h80q-13 -95 18.5 -145.5t122.5 -51.5q169 3 213 197h78q-56 -270 -297 -270zM428 -20q-204 0 -274.5 121t-30.5 348l176 1001h100l-178 -1010q-33 -184 19 -274t198 -90q136 0 205.5 81t101.5 261l183 1032h100l-186 -1049
q-38 -218 -132 -319.5t-282 -101.5z" />
    <glyph glyph-name="ubreve" unicode="&#x16d;" horiz-adv-x="960" 
d="M614 1288q-130 0 -181.5 72t-33.5 199h80q-13 -95 19 -145.5t123 -51.5q169 3 213 197h77q-56 -271 -297 -271zM668 215q-90 -233 -306 -233q-158 0 -224 101.5t-34 293.5l140 786h98l-139 -794q-25 -144 22 -221.5t168 -77.5q124 0 196.5 87.5t102.5 256.5l131 749h99
l-203 -1163h-78z" />
    <glyph glyph-name="Uring" unicode="&#x16e;" horiz-adv-x="1017" 
d="M692 1552q-87 0 -133.5 56.5t-32.5 136.5q13 75 68.5 119.5t130.5 44.5q87 0 132.5 -56.5t31.5 -136.5q-13 -77 -65.5 -120.5t-131.5 -43.5zM696 1626q100 0 115 98q8 46 -17 78.5t-73 32.5q-96 0 -117 -98q-8 -46 18 -78.5t74 -32.5zM428 -20q-204 0 -274.5 121
t-30.5 348l176 1001h100l-178 -1010q-33 -184 19 -274t198 -90q136 0 205.5 81t101.5 261l183 1032h100l-186 -1049q-38 -218 -132 -319.5t-282 -101.5z" />
    <glyph glyph-name="uring" unicode="&#x16f;" horiz-adv-x="960" 
d="M616 1282q-87 0 -133 56.5t-32 136.5q13 75 68 119t130 44q87 0 132.5 -56t31.5 -136q-13 -77 -65.5 -120.5t-131.5 -43.5zM621 1356q99 0 114 98q8 46 -17 78.5t-73 32.5q-96 0 -117 -99q-8 -45 18.5 -77.5t74.5 -32.5zM668 215q-90 -233 -306 -233q-158 0 -224 101.5
t-34 293.5l140 786h98l-139 -794q-25 -144 22 -221.5t168 -77.5q124 0 196.5 87.5t102.5 256.5l131 749h99l-203 -1163h-78z" />
    <glyph glyph-name="Uhungarumlaut" unicode="&#x170;" horiz-adv-x="1017" 
d="M612 1575h-77l219 276h108zM823 1575h-80l238 276h111zM428 -20q-204 0 -274.5 121t-30.5 348l176 1001h100l-178 -1010q-33 -184 19 -274t198 -90q136 0 205.5 81t101.5 261l183 1032h100l-186 -1049q-38 -218 -132 -319.5t-282 -101.5z" />
    <glyph glyph-name="uhungarumlaut" unicode="&#x171;" horiz-adv-x="960" 
d="M520 1290h-78l220 277h108zM731 1290h-80l238 277h110zM668 215q-90 -233 -306 -233q-158 0 -224 101.5t-34 293.5l140 786h98l-139 -794q-25 -144 22 -221.5t168 -77.5q124 0 196.5 87.5t102.5 256.5l131 749h99l-203 -1163h-78z" />
    <glyph glyph-name="Uogonek" unicode="&#x172;" horiz-adv-x="1017" 
d="M455 -360q-98 0 -145.5 52.5t-33.5 131.5q21 84 121 156q-186 10 -249.5 131t-24.5 338l176 1001h100l-178 -1010q-33 -184 19 -274t198 -90q136 0 205.5 81t101.5 261l183 1032h100l-186 -1049q-32 -183 -103 -283t-202 -128q-91 -55 -131.5 -93.5t-47.5 -80.5
q-6 -44 23 -73.5t86 -29.5q102 0 151 94h95q-39 -85 -101 -126t-157 -41z" />
    <glyph glyph-name="uogonek" unicode="&#x173;" horiz-adv-x="960" 
d="M856 -205q-39 -86 -101.5 -127t-156.5 -41q-98 0 -145 52.5t-33 132.5q13 60 67 112t158 107l23 184q-90 -233 -306 -233q-158 0 -224 101.5t-34 293.5l140 786h98l-139 -794q-25 -144 22 -221.5t168 -77.5q124 0 196.5 87.5t102.5 256.5l131 749h99l-203 -1163
q-111 -63 -160.5 -107t-56.5 -90q-6 -44 22.5 -73t85.5 -29q103 0 152 94h94z" />
    <glyph glyph-name="Wcircumflex" unicode="&#x174;" horiz-adv-x="1400" 
d="M913 1790l-172 -201h-98l240 275h78l143 -275h-90zM289 0h-92l32 1450h95l-33 -1178l-23 -155l45 147l498 1186h70l61 -1186l-10 -160l41 164l411 1182h97l-516 -1450h-91l-59 1217l10 108l-28 -108z" />
    <glyph glyph-name="wcircumflex" unicode="&#x175;" horiz-adv-x="1298" 
d="M811 1501l-172 -201h-98l239 275h78l143 -275h-90zM281 0h-97l-18 1163h94l10 -921l-12 -133l49 133l410 921h61l72 -919l-2 -138l41 134l356 923h96l-460 -1163h-93l-67 911l4 123l-41 -125z" />
    <glyph glyph-name="Ycircumflex" unicode="&#x176;" horiz-adv-x="892" 
d="M666 1780l-172 -201h-99l240 274h78l143 -274h-90zM287 0l92 518l-174 932h102l129 -727l6 -127l56 129l393 725h106l-516 -928l-94 -522h-100z" />
    <glyph glyph-name="ycircumflex" unicode="&#x177;" horiz-adv-x="913" 
d="M604 1487l-172 -201h-98l239 275h78l144 -275h-90zM-51 -322l14 93h53q70 0 117 12q44 12 80 51t74 117l26 59l-151 1153h98l113 -923l2 -144l49 140l436 927h103l-588 -1224q-53 -112 -99 -164q-43 -56 -103.5 -76.5t-168.5 -20.5h-55z" />
    <glyph glyph-name="Ydieresis" unicode="&#x178;" horiz-adv-x="892" 
d="M496 1583q-34 0 -50.5 21t-9.5 63q15 84 88 84q75 0 60 -86q-14 -82 -88 -82zM754 1583q-76 0 -62 84q15 84 88 84t58 -86q-7 -43 -27.5 -62.5t-56.5 -19.5zM287 0l92 518l-174 932h102l129 -727l6 -127l56 129l393 725h106l-516 -928l-94 -522h-100z" />
    <glyph glyph-name="Zacute" unicode="&#x179;" horiz-adv-x="862" 
d="M829 1911h111l-285 -320h-84zM-29 0l17 86l815 1272h-547l14 92h656l-17 -88l-807 -1266h598l-16 -96h-713z" />
    <glyph glyph-name="zacute" unicode="&#x17a;" horiz-adv-x="806" 
d="M762 1622h110l-284 -319h-84zM-35 0l12 78l740 997h-529l17 88h641l-17 -82l-731 -989h557l-16 -92h-674z" />
    <glyph glyph-name="Zdotaccent" unicode="&#x17b;" horiz-adv-x="862" 
d="M616 1587q-86 0 -67 94q7 51 30.5 73t65.5 22q83 0 68 -99q-10 -49 -32.5 -69.5t-64.5 -20.5zM-29 0l17 86l815 1272h-547l14 92h656l-17 -88l-807 -1266h598l-16 -96h-713z" />
    <glyph glyph-name="zdotaccent" unicode="&#x17c;" horiz-adv-x="806" 
d="M549 1298q-88 0 -68 95q7 51 30.5 72.5t66.5 21.5q82 0 67 -98q-10 -49 -32.5 -70t-63.5 -21zM-35 0l12 78l740 997h-529l17 88h641l-17 -82l-731 -989h557l-16 -92h-674z" />
    <glyph glyph-name="Zcaron" unicode="&#x17d;" horiz-adv-x="862" 
d="M578 1587l-144 273h94l97 -195l170 195h98l-244 -273h-71zM-29 0l17 86l815 1272h-547l14 92h656l-17 -88l-807 -1266h598l-16 -96h-713z" />
    <glyph glyph-name="zcaron" unicode="&#x17e;" horiz-adv-x="806" 
d="M510 1298l-143 273h94l96 -195l170 195h98l-243 -273h-72zM-35 0l12 78l740 997h-529l17 88h641l-17 -82l-731 -989h557l-16 -92h-674z" />
    <glyph glyph-name="uni0192" unicode="&#x192;" horiz-adv-x="610" 
d="M262 117q-22 -130 -55 -191q-35 -66 -94.5 -92.5t-165.5 -26.5h-58l17 93h49q68 0 111 16q40 17 63 64.5t41 146.5l104 596h-200l16 88h201l78 446q22 126 57 193q36 66 98.5 94.5t163.5 28.5h51l-16 -86h-43q-76 0 -113 -19q-40 -17 -62.5 -65t-41.5 -152l-78 -440h219
l-16 -88h-219z" />
    <glyph glyph-name="Aringacute" unicode="&#x1fa;" 
d="M915 2154h111l-285 -319h-84zM670 356h-461l-148 -356h-102l592 1391q-52 23 -76 71t-14 107q13 75 68 119.5t130 44.5q87 0 132.5 -56.5t31.5 -136.5q-10 -64 -47 -105t-96 -53l115 -1382h-99zM631 1450q99 0 114 98q8 46 -17 78.5t-73 32.5q-95 0 -116 -98
q-8 -46 18 -78.5t74 -32.5zM248 451h416l-62 806l4 82l-22 -82z" />
    <glyph glyph-name="aringacute" unicode="&#x1fb;" horiz-adv-x="962" 
d="M911 2068h111l-285 -319h-84zM621 1288q-87 0 -133.5 56.5t-32.5 136.5q13 75 68 119.5t130 44.5q87 0 132.5 -56.5t31.5 -136.5q-13 -78 -65.5 -121t-130.5 -43zM625 1362q99 0 114 98q8 46 -17 78.5t-73 32.5q-96 0 -117 -98q-8 -45 18.5 -78t74.5 -33zM815 0
q-106 0 -138 50.5t-11 174.5q-56 -123 -150 -183t-209 -60q-154 0 -223.5 84t-42.5 227l4 16q16 91 60.5 150t115.5 100q50 30 106 51.5t169 57.5q64 20 137 45q67 25 104 59t47 90l2 2q20 109 -32.5 171.5t-190.5 62.5q-131 0 -204.5 -60t-96.5 -192l-12 -72h-96l14 84
q30 158 130 241t267 83q180 0 261.5 -88.5t50.5 -249.5l-111 -551q-25 -129 -8 -167t92 -38h22l-16 -88h-41zM340 68q134 0 233.5 100t131.5 268l61 303q-10 -20 -26.5 -36.5t-30 -26.5t-48.5 -24.5t-50 -19.5t-67 -22q-16 -5 -24 -8q-102 -32 -151 -51.5t-93 -48.5
q-110 -72 -131 -199l-2 -6q-19 -106 31.5 -167.5t165.5 -61.5z" />
    <glyph glyph-name="AEacute" unicode="&#x1fc;" horiz-adv-x="1353" 
d="M991 1911h111l-285 -320h-84zM649 358h-424l-184 -358h-104l757 1450h723l-16 -90h-610l-31 -586h465l-17 -92h-452l-31 -590h471l-16 -92h-551zM270 446h383l41 756l21 150l-58 -154z" />
    <glyph glyph-name="aeacute" unicode="&#x1fd;" horiz-adv-x="1568" 
d="M1098 1577h110l-284 -320h-84zM1423 338q-32 -178 -125 -267t-266 -89q-164 0 -247.5 73t-88.5 203q-116 -276 -387 -276q-155 0 -225 84t-43 227l4 16q30 159 160 242q51 33 113.5 57.5t177.5 59.5q64 20 137 45q67 25 104 59t47 90l2 2q20 108 -34 171t-189 63
q-129 0 -203.5 -60.5t-97.5 -191.5l-12 -70h-96l14 82q29 158 130 241t267 83q119 0 193.5 -45.5t99.5 -126.5q112 172 316 172q190 0 274.5 -115t48.5 -313l-35 -199h-641l-24 -133q-59 -350 241 -350q130 0 197.5 68.5t91.5 211.5l6 39h101zM836 639h544l23 123
q30 160 -29.5 247t-204.5 87q-121 0 -199 -73t-104 -212zM342 68q134 0 232.5 99.5t130.5 268.5l57 299q-11 -20 -29 -36.5t-35 -27.5t-51 -24.5t-56.5 -21t-72.5 -23.5q-101 -31 -152.5 -52t-93.5 -50q-106 -73 -127 -197l-2 -6q-19 -106 32.5 -167.5t166.5 -61.5z" />
    <glyph glyph-name="Oslashacute" unicode="&#x1fe;" horiz-adv-x="1058" 
d="M928 1954h110l-284 -320h-84zM461 -20q-118 0 -191 36l-94 -200h-82l113 237q-148 125 -96 418l24 139q7 41 22.5 130t22.5 130l25 142q42 239 152.5 346.5t295.5 107.5q114 0 187 -36l94 196h80l-113 -235q153 -124 105 -396l-101 -569q-39 -230 -142 -338t-302 -108z
M209 465q-37 -211 45 -309l545 1187q-59 33 -156 33q-137 0 -219.5 -86.5t-118.5 -285.5zM471 74q146 0 223.5 85t110.5 273l102 572q37 199 -49 294l-545 -1189q62 -35 158 -35z" />
    <glyph glyph-name="oslashacute" unicode="&#x1ff;" horiz-adv-x="972" 
d="M838 1690h110l-284 -320h-84zM416 -18q-90 0 -160 24l-90 -190h-78l109 221q-159 112 -109 395l70 395q31 171 132 263t261 92q109 0 180 -35l92 188h74l-109 -223q147 -119 101 -358l-74 -412q-60 -360 -399 -360zM182 414q-29 -199 60 -283l450 932q-56 33 -143 33
q-119 0 -193.5 -70.5t-99.5 -204.5zM424 72q246 0 295 284l74 412q27 167 -48 254l-446 -928q55 -22 125 -22z" />
    <glyph glyph-name="uni0218" unicode="&#x218;" horiz-adv-x="944" 
d="M420 -20q-207 0 -303 108t-58 305l21 107h100l-20 -113q-26 -156 41 -235.5t219 -79.5q140 0 211.5 66.5t93.5 189.5l4 32q15 98 -20 160q-22 40 -63 78t-77 61.5t-96 57.5q-72 46 -141 94q-74 59 -106 135.5t-13 186.5l4 30q24 144 125.5 223.5t249.5 79.5
q134 0 219 -49q82 -47 115 -128t16 -185l-18 -103h-99l17 99q24 128 -39 204t-215 76q-110 0 -182.5 -57t-90.5 -168l-6 -31q-15 -94 19 -155q32 -55 87 -98t144 -95q94 -59 143 -96q75 -60 109 -137t16 -191l-6 -33q-27 -165 -123.5 -252t-277.5 -87zM223 -434
q92 45 117 145q-8 -6 -25 -6q-30 0 -43 16t-6 60q15 86 92 86q42 0 56 -28.5t2 -92.5q-13 -82 -62 -142.5t-123 -90.5z" />
    <glyph glyph-name="uni0219" unicode="&#x219;" horiz-adv-x="890" 
d="M383 -20q-182 0 -273.5 94.5t-62.5 255.5l14 78h103l-17 -89q-20 -116 46.5 -182.5t199.5 -66.5q223 0 262 200v6q16 86 -16 134q-29 47 -80 80.5t-137 74.5q-76 40 -133 78q-146 93 -113 275v6q23 127 114 194.5t236 67.5q168 0 251 -88t57 -240l-9 -57h-96l10 67
q19 109 -38.5 170.5t-180.5 61.5q-105 0 -168.5 -48t-81.5 -134v-5q-13 -83 19 -129q19 -32 57.5 -61.5t67 -45t88.5 -44.5q70 -37 135 -78q150 -97 117 -283l-2 -4q-51 -288 -369 -288zM193 -436q91 45 116 145q-8 -6 -24 -6q-30 0 -43 16t-6 60q15 86 92 86
q42 0 55.5 -28.5t1.5 -92.5q-13 -83 -61.5 -143t-122.5 -90z" />
    <glyph glyph-name="uni0237" unicode="&#x237;" horiz-adv-x="393" 
d="M-219 -334l16 92h47q60 0 103 17q69 25 92 178l213 1210h98l-215 -1216q-23 -119 -51 -170q-30 -60 -88 -85.5t-158 -25.5h-57z" />
    <glyph glyph-name="uni0245" unicode="&#x245;" 
d="M61 0h-102l616 1450h99l121 -1450h-99l-94 1257l4 78l-22 -78z" />
    <glyph glyph-name="circumflex" unicode="&#x2c6;" horiz-adv-x="804" 
d="M571 1511l-172 -200h-98l240 274h77l144 -274h-90z" />
    <glyph glyph-name="caron" unicode="&#x2c7;" horiz-adv-x="804" 
d="M494 1309l-144 272h94l97 -195l170 195h98l-244 -272h-71z" />
    <glyph glyph-name="breve" unicode="&#x2d8;" horiz-adv-x="804" 
d="M537 1307q-130 0 -181.5 71.5t-33.5 198.5h79q-13 -95 19 -145.5t123 -51.5q169 3 213 197h78q-56 -270 -297 -270z" />
    <glyph glyph-name="dotaccent" unicode="&#x2d9;" horiz-adv-x="808" 
d="M522 1309q-86 0 -67 94q7 51 30 72.5t66 21.5q82 0 67 -98q-10 -49 -32 -69.5t-64 -20.5z" />
    <glyph glyph-name="ring" unicode="&#x2da;" horiz-adv-x="804" 
d="M543 1313q-87 0 -133.5 56t-32.5 136q13 75 68 119.5t130 44.5q87 0 132.5 -56t31.5 -136q-13 -78 -65.5 -121t-130.5 -43zM547 1386q100 0 115 99q8 46 -17.5 78t-73.5 32q-95 0 -116 -98q-8 -46 18 -78.5t74 -32.5z" />
    <glyph glyph-name="ogonek" unicode="&#x2db;" horiz-adv-x="804" 
d="M244 -373q-98 0 -145 52.5t-33 132.5q13 62 71 115t172 114l56 -41q-112 -63 -161.5 -107t-56.5 -90q-6 -44 23 -73t86 -29q103 0 152 94h94q-39 -86 -101.5 -127t-156.5 -41z" />
    <glyph glyph-name="tilde" unicode="&#x2dc;" horiz-adv-x="804" 
d="M256 1315q18 94 58.5 141t111.5 47q58 0 100 -28q14 -9 48.5 -35t57.5 -37.5t46 -11.5q39 0 62 24.5t30 83.5h74q-14 -93 -54 -140.5t-114 -47.5q-56 0 -98 28q-13 9 -38.5 29t-39 29.5t-35.5 18.5t-43 9q-75 0 -90 -110h-76z" />
    <glyph glyph-name="hungarumlaut" unicode="&#x2dd;" horiz-adv-x="804" 
d="M408 1313h-78l219 276h108zM618 1313h-79l237 276h111z" />
    <glyph glyph-name="uni03BC" unicode="&#x3bc;" horiz-adv-x="964" 
d="M379 -18q-105 0 -155.5 48.5t-55.5 147.5l-102 -581h-95l277 1566h98l-141 -801q-25 -139 23 -214.5t167 -75.5t194 89.5t105 256.5l131 745h99l-205 -1163h-78l23 199q-82 -217 -285 -217z" />
    <glyph glyph-name="pi" unicode="&#x3c0;" horiz-adv-x="1132" 
d="M883 1360h-369l-240 -1360h-98l240 1360h-215l14 90h1008l-15 -90h-227l-188 -1073q-20 -120 5.5 -158.5t127.5 -38.5h47l-17 -90h-55q-151 0 -195.5 59.5t-13.5 221.5z" />
    <glyph glyph-name="uni0E3F" unicode="&#xe3f;" horiz-adv-x="1040" 
d="M475 0l-37 -207h-80l37 207h-340l256 1450h338l35 192h82l-35 -192q91 -4 154.5 -31.5t95 -73.5t42 -108t-4.5 -135l-17 -88q-20 -120 -76 -181.5t-165 -84.5q207 -60 158 -324l-19 -115q-24 -121 -63 -176q-43 -70 -124.5 -101.5t-219.5 -31.5h-17zM635 1364h-242
l-100 -571h242zM920 1112q42 238 -203 252l-103 -571q134 0 202.5 56t88.5 183zM412 90l106 615h-242l-108 -615h244zM819 440q51 265 -219 265l-108 -615h6q103 0 165 28t92 78.5t46 137.5z" />
    <glyph glyph-name="Wgrave" unicode="&#x1e80;" horiz-adv-x="1400" 
d="M678 1868h110l132 -279h-84zM289 0h-92l32 1450h95l-33 -1178l-23 -155l45 147l498 1186h70l61 -1186l-10 -160l41 164l411 1182h97l-516 -1450h-91l-59 1217l10 108l-28 -108z" />
    <glyph glyph-name="wgrave" unicode="&#x1e81;" horiz-adv-x="1298" 
d="M578 1581h110l131 -278h-84zM281 0h-97l-18 1163h94l10 -921l-12 -133l49 133l410 921h61l72 -919l-2 -138l41 134l356 923h96l-460 -1163h-93l-67 911l4 123l-41 -125z" />
    <glyph glyph-name="Wacute" unicode="&#x1e82;" horiz-adv-x="1400" 
d="M1085 1911h111l-285 -320h-84zM289 0h-92l32 1450h95l-33 -1178l-23 -155l45 147l498 1186h70l61 -1186l-10 -160l41 164l411 1182h97l-516 -1450h-91l-59 1217l10 108l-28 -108z" />
    <glyph glyph-name="wacute" unicode="&#x1e83;" horiz-adv-x="1298" 
d="M983 1622h111l-285 -319h-84zM281 0h-97l-18 1163h94l10 -921l-12 -133l49 133l410 921h61l72 -919l-2 -138l41 134l356 923h96l-460 -1163h-93l-67 911l4 123l-41 -125z" />
    <glyph glyph-name="Wdieresis" unicode="&#x1e84;" horiz-adv-x="1400" 
d="M743 1593q-73 0 -59 84q15 84 88 84q74 0 59 -86q-14 -82 -88 -82zM1001 1593q-75 0 -61 84q15 84 88 84q72 0 57 -86q-7 -43 -27.5 -62.5t-56.5 -19.5zM289 0h-92l32 1450h95l-33 -1178l-23 -155l45 147l498 1186h70l61 -1186l-10 -160l41 164l411 1182h97l-516 -1450
h-91l-59 1217l10 108l-28 -108z" />
    <glyph glyph-name="wdieresis" unicode="&#x1e85;" horiz-adv-x="1298" 
d="M643 1305q-73 0 -59 84q15 84 88 84q74 0 59 -87q-7 -43 -28.5 -62t-59.5 -19zM901 1305q-75 0 -61 84q15 84 88 84q72 0 57 -87q-7 -43 -27.5 -62t-56.5 -19zM281 0h-97l-18 1163h94l10 -921l-12 -133l49 133l410 921h61l72 -919l-2 -138l41 134l356 923h96l-460 -1163
h-93l-67 911l4 123l-41 -125z" />
    <glyph glyph-name="Ygrave" unicode="&#x1ef2;" horiz-adv-x="892" 
d="M432 1858h111l131 -279h-84zM287 0l92 518l-174 932h102l129 -727l6 -127l56 129l393 725h106l-516 -928l-94 -522h-100z" />
    <glyph glyph-name="ygrave" unicode="&#x1ef3;" horiz-adv-x="913" 
d="M367 1544h110l131 -278h-84zM-51 -322l14 93h53q70 0 117 12q44 12 80 51t74 117l26 59l-151 1153h98l113 -923l2 -144l49 140l436 927h103l-588 -1224q-53 -112 -99 -164q-43 -56 -103.5 -76.5t-168.5 -20.5h-55z" />
    <glyph glyph-name="figuredash" unicode="&#x2012;" horiz-adv-x="1050" 
d="M133 668h817l-16 -97h-817z" />
    <glyph glyph-name="endash" unicode="&#x2013;" horiz-adv-x="856" 
d="M133 668h623l-17 -97h-622z" />
    <glyph glyph-name="emdash" unicode="&#x2014;" horiz-adv-x="1130" 
d="M133 668h895l-16 -97h-895z" />
    <glyph glyph-name="uni2015" unicode="&#x2015;" horiz-adv-x="1511" 
d="M133 668h1278l-16 -97h-1278z" />
    <glyph glyph-name="uni2016" unicode="&#x2016;" horiz-adv-x="761" 
d="M348 1651h98l-331 -1891h-99zM694 1651h99l-332 -1891h-99z" />
    <glyph glyph-name="underscoredbl" unicode="&#x2017;" horiz-adv-x="862" 
d="M688 0h-715l15 82h714zM649 -221h-715l15 82h715z" />
    <glyph glyph-name="quoteleft" unicode="&#x2018;" horiz-adv-x="466" 
d="M326 1083q-44 0 -59.5 30t-2.5 101q35 183 193 259l12 -54q-101 -60 -133 -170q23 13 37 13q68 0 49 -84q-15 -95 -96 -95z" />
    <glyph glyph-name="quoteright" unicode="&#x2019;" horiz-adv-x="466" 
d="M248 1135q110 68 133 168q-26 -11 -37 -11q-62 0 -49 84q15 94 98 94q44 0 59.5 -30.5t2.5 -100.5q-13 -89 -63.5 -154.5t-129.5 -103.5z" />
    <glyph glyph-name="quotesinglbase" unicode="&#x201a;" horiz-adv-x="475" 
d="M23 -166q107 59 131 168q-12 -10 -35 -10q-64 0 -51 86q15 94 98 94q44 0 60 -30.5t3 -100.5q-17 -90 -67 -156.5t-127 -101.5z" />
    <glyph glyph-name="uni201B" unicode="&#x201b;" horiz-adv-x="466" 
d="M383 1081q-61 31 -88.5 99t-13.5 157q13 72 39 102.5t71 30.5q79 0 64 -96q-7 -48 -27.5 -66t-54.5 -18q-18 0 -31 13q-14 -111 72 -170z" />
    <glyph glyph-name="quotedblleft" unicode="&#x201c;" horiz-adv-x="739" 
d="M326 1083q-44 0 -59.5 30t-2.5 101q35 183 193 259l12 -54q-101 -60 -133 -170q23 13 37 13q68 0 49 -84q-15 -95 -96 -95zM598 1083q-44 0 -59 29.5t-2 101.5q35 184 192 259l12 -54q-101 -60 -133 -170q23 13 37 13q68 0 49 -84q-15 -95 -96 -95z" />
    <glyph glyph-name="quotedblright" unicode="&#x201d;" horiz-adv-x="739" 
d="M248 1135q110 68 133 168q-26 -11 -37 -11q-62 0 -49 84q15 94 98 94q44 0 59.5 -30.5t2.5 -100.5q-13 -88 -64 -154t-129 -104zM520 1135q110 68 133 168q-26 -11 -37 -11q-62 0 -49 84q15 94 99 94q44 0 59 -30.5t2 -100.5q-13 -88 -63.5 -154.5t-128.5 -103.5z" />
    <glyph glyph-name="quotedblbase" unicode="&#x201e;" horiz-adv-x="743" 
d="M20 -166q108 60 132 168q-12 -10 -35 -10q-64 0 -51 86q15 94 98 94q44 0 59 -30.5t2 -100.5q-13 -89 -63.5 -155.5t-128.5 -102.5zM297 -166q107 59 131 168q-12 -10 -35 -10q-64 0 -51 86q15 94 98 94q44 0 59.5 -30.5t2.5 -100.5q-13 -89 -64 -155.5t-129 -102.5z" />
    <glyph glyph-name="uni201F" unicode="&#x201f;" horiz-adv-x="739" 
d="M383 1081q-61 31 -88.5 99t-13.5 157q13 72 39 102.5t71 30.5q79 0 64 -96q-7 -48 -27.5 -66t-54.5 -18q-18 0 -31 13q-14 -111 72 -170zM655 1081q-61 31 -88.5 99t-13.5 157q13 72 39.5 102.5t71.5 30.5q78 0 63 -96q-7 -48 -27.5 -66t-54.5 -18q-18 0 -31 13
q-14 -111 72 -170z" />
    <glyph glyph-name="dagger" unicode="&#x2020;" horiz-adv-x="833" 
d="M535 971l-179 -1014h-96l178 1014h-260l17 96h260l75 426h97l-76 -426h262l-18 -96h-260z" />
    <glyph glyph-name="daggerdbl" unicode="&#x2021;" horiz-adv-x="833" 
d="M438 424l-82 -467h-96l82 467h-260l16 96h260l80 453h-260l17 96h262l73 424h97l-74 -424h260l-16 -96h-262l-80 -453h262l-19 -96h-260z" />
    <glyph glyph-name="bullet" unicode="&#x2022;" horiz-adv-x="532" 
d="M252 481q-114 0 -94 115q10 58 41.5 82t85.5 24q117 0 94 -114q-7 -58 -38.5 -82.5t-88.5 -24.5z" />
    <glyph glyph-name="ellipsis" unicode="&#x2026;" horiz-adv-x="1167" 
d="M150 -16q-83 0 -68 102q15 94 98 94q41 0 57 -25t9 -79q-10 -51 -32 -71.5t-64 -20.5zM485 -16q-80 0 -65 102q15 94 98 94q84 0 64 -104q-7 -50 -30.5 -71t-66.5 -21zM821 -16q-82 0 -67 102q15 94 98 94q41 0 57 -25t9 -79q-10 -50 -32.5 -71t-64.5 -21z" />
    <glyph glyph-name="perthousand" unicode="&#x2030;" horiz-adv-x="1773" 
d="M385 864q-121 0 -168 69t-27 185l29 146q17 98 75 150t152 52q114 0 167 -66.5t32 -176.5l-27 -156q-36 -203 -233 -203zM1118 1450h103l-1090 -1450h-106zM389 940q67 0 103.5 34t48.5 105l24 148q17 78 -15.5 121t-100.5 43q-65 0 -103 -32.5t-51 -103.5l-25 -141
q-14 -82 15.5 -128t103.5 -46zM793 -20q-121 0 -168 68.5t-27 184.5l29 148q17 98 76 150.5t153 52.5q114 0 167 -67t32 -177l-29 -158q-36 -202 -233 -202zM1372 -20q-121 0 -167.5 68t-26.5 185l28 148q17 97 76 150t154 53q114 0 166.5 -67t31.5 -177l-28 -158
q-36 -202 -234 -202zM797 55q129 0 153 140l27 149q17 77 -17 120.5t-102 43.5q-65 0 -102.5 -32t-50.5 -103l-27 -146q-14 -81 15.5 -126.5t103.5 -45.5zM1376 55q130 0 154 140l26 149q17 77 -16.5 120.5t-101.5 43.5q-66 0 -103.5 -32t-50.5 -103l-27 -146
q-14 -81 15.5 -126.5t103.5 -45.5z" />
    <glyph glyph-name="uni2032" unicode="&#x2032;" horiz-adv-x="329" 
d="M154 1044l159 406h101l-191 -406h-69z" />
    <glyph glyph-name="uni2033" unicode="&#x2033;" horiz-adv-x="526" 
d="M154 1044l157 406h101l-189 -406h-69zM348 1044l168 406h100l-200 -406h-68z" />
    <glyph glyph-name="uni2034" unicode="&#x2034;" horiz-adv-x="749" 
d="M195 977q6 65 10 96q6 50 21 145t18 117l20 115h90l-20 -115q-7 -39 -25 -125q-31 -168 -53 -233h-61zM416 977q0 39 8 96q15 127 41 262l18 115h92l-20 -115q-7 -39 -25 -125q-29 -156 -55 -233h-59zM635 977q6 65 10 96q6 50 21 145t18 117l21 115h90l-19 -115
q-3 -16 -11.5 -58t-12.5 -67q-52 -221 -56 -233h-61z" />
    <glyph glyph-name="guilsinglleft" unicode="&#x2039;" horiz-adv-x="612" 
d="M334 215l-211 383l2 14l338 400h106l-354 -412l215 -385h-96z" />
    <glyph glyph-name="guilsinglright" unicode="&#x203a;" horiz-adv-x="612" 
d="M49 215l361 401l-205 396h96l203 -394l-2 -16l-344 -387h-109z" />
    <glyph glyph-name="exclamdbl" unicode="&#x203c;" horiz-adv-x="872" 
d="M178 303q0 6 10 78q7 39 26 163.5t32 203.5q37 243 71 438l48 266h102l-47 -264q-6 -38 -20.5 -115t-18.5 -98q-5 -27 -84 -436q-41 -213 -49 -236q-6 2 -35 2t-35 -2zM535 303q0 6 10 78q6 38 25 162.5t32 204.5q31 202 72 438l47 266h102l-47 -264q-6 -38 -20.5 -115
t-18.5 -98q-5 -27 -84 -436q-41 -213 -49 -236q-6 2 -35 2q-28 0 -34 -2zM160 -16q-83 0 -68 102q15 94 101 94q85 0 65 -104q-7 -49 -31 -70.5t-67 -21.5zM516 -16q-85 0 -70 102q15 94 101 94q87 0 67 -104q-7 -49 -31 -70.5t-67 -21.5z" />
    <glyph glyph-name="uni203D" unicode="&#x203d;" horiz-adv-x="1017" 
d="M494 297q-4 4 -39 4q-25 0 -37 -4q0 34 12 100l59 355q15 81 41.5 230.5t36.5 203.5l35 196q-115 -7 -176.5 -72t-85.5 -188l-33 -194h-96l35 205q60 333 401 333q126 0 197 -45q75 -43 106 -119.5t17 -173.5l-13 -75q-14 -91 -53 -154q-23 -40 -56.5 -77t-55.5 -55.5
t-68 -53.5q-43 -32 -67.5 -54t-56.5 -58.5t-52 -82.5t-31 -104zM655 1188q-38 -242 -110 -565q38 73 121 143l79 72q92 85 111 211l16 92q31 216 -182 241zM401 -16q-42 0 -58.5 23.5t-6.5 76.5q11 51 33 72.5t65 21.5q81 0 66 -98q-15 -96 -99 -96z" />
    <glyph glyph-name="fraction" unicode="&#x2044;" horiz-adv-x="1187" 
d="M684 838l471 651l86 -62l-524 -612zM6 37l543 637l31 -25l-486 -680z" />
    <glyph glyph-name="uni2070" unicode="&#x2070;" horiz-adv-x="567" 
d="M330 731q-110 0 -154.5 65.5t-25.5 178.5l47 264q23 118 78 170.5t147 52.5q99 0 149.5 -60.5t30.5 -172.5l-49 -279q-21 -112 -72.5 -165.5t-150.5 -53.5zM334 805q62 0 95 36.5t46 119.5l49 266q14 79 -13 122.5t-93 43.5q-60 0 -94.5 -36.5t-51.5 -125.5l-45 -254
q-29 -172 107 -172z" />
    <glyph glyph-name="uni2074" unicode="&#x2074;" horiz-adv-x="530" 
d="M459 901l-29 -162h-68l29 162h-287l11 60l368 491h72l-86 -485h88l-12 -66h-86zM195 967h206l58 331l12 43l-12 -22z" />
    <glyph glyph-name="uni2075" unicode="&#x2075;" horiz-adv-x="548" 
d="M313 729q-104 0 -146 54.5t-24 148.5l9 35h77l-8 -39q-8 -64 14.5 -96.5t86.5 -32.5q120 0 141 127q2 8 4 24l14 80q12 66 -10 97.5t-80 31.5q-50 0 -79.5 -19t-59.5 -61q-12 -18 -14 -18l-60 18l103 373h319v-4q-6 -37 -24.5 -52.5t-63.5 -15.5h-182l-66 -233
q62 78 150 78q81 0 120.5 -51t22.5 -140l-4 -30l-16 -78q-17 -99 -72 -148t-152 -49z" />
    <glyph glyph-name="uni2076" unicode="&#x2076;" horiz-adv-x="561" 
d="M543 922q-29 -193 -224 -193q-106 0 -148.5 62t-23.5 172l48 266q21 119 75 175t154 56q91 0 138 -50.5t30 -135.5l-6 -33h-76l4 37q10 60 -14 88.5t-84 28.5q-67 0 -98.5 -38t-49.5 -128l-26 -148q54 97 159 97q85 0 126 -52.5t24 -144.5zM326 799q68 0 101 32.5
t44 100.5l8 55q21 129 -102 129q-107 0 -150 -117l-8 -47q-27 -153 107 -153z" />
    <glyph glyph-name="uni2077" unicode="&#x2077;" horiz-adv-x="462" 
d="M150 739q45 134 94 234q96 199 233 405h-291l13 74h368l-10 -61q-100 -145 -186.5 -315t-139.5 -337h-81z" />
    <glyph glyph-name="uni2078" unicode="&#x2078;" horiz-adv-x="550" 
d="M307 729q-104 0 -148.5 51.5t-25.5 147.5l6 33q19 120 133 149q-85 38 -65 152l4 26q27 172 209 172q97 0 143 -47t29 -135l-4 -29q-24 -122 -127 -145q46 -20 70 -62.5t14 -103.5l-6 -37q-17 -91 -73 -131.5t-159 -40.5zM385 1137q109 0 129 114l4 21q11 65 -14.5 95
t-89.5 30q-58 0 -88 -28.5t-41 -86.5l-4 -27q-16 -118 86 -118h18zM319 799q66 0 101 26t45 86l6 35q10 61 -18 95t-84 34h-19q-114 0 -137 -117l-6 -34q-21 -125 112 -125z" />
    <glyph glyph-name="uni2079" unicode="&#x2079;" horiz-adv-x="555" 
d="M313 727q-92 0 -136.5 49t-31.5 135l7 39h77l-6 -41q-20 -114 99 -114q69 0 101 38t46 125l27 152q-54 -96 -160 -96q-83 0 -123 51.5t-27 142.5l11 60q14 89 68 140.5t147 51.5q104 0 151 -61.5t27 -179.5l-47 -261q-21 -120 -74.5 -175.5t-155.5 -55.5zM360 1075
q58 0 97 31.5t53 81.5l8 41q14 84 -13 124t-97 40q-118 0 -142 -138l-8 -53q-15 -127 102 -127z" />
    <glyph glyph-name="uni207A" unicode="&#x207a;" horiz-adv-x="548" 
d="M389 1065l-27 -150h-67l27 150h-148l10 65h148l26 146h68l-27 -146h152l-12 -65h-150z" />
    <glyph glyph-name="uni207B" unicode="&#x207b;" horiz-adv-x="548" 
d="M186 1133h363l-12 -70h-363z" />
    <glyph glyph-name="uni207C" unicode="&#x207c;" horiz-adv-x="548" 
d="M209 1221h350l-10 -68h-350zM176 1024h350l-12 -68h-350z" />
    <glyph glyph-name="uni207D" unicode="&#x207d;" horiz-adv-x="382" 
d="M350 569q-123 18 -170.5 103t-17.5 256l61 358q30 167 106.5 244.5t205.5 85.5l-13 -74q-92 -6 -147.5 -71.5t-79.5 -204.5l-64 -351q-23 -134 9 -193t125 -77z" />
    <glyph glyph-name="uni207E" unicode="&#x207e;" horiz-adv-x="382" 
d="M43 643q91 6 146.5 71.5t78.5 203.5l64 350q22 135 -9.5 194.5t-121.5 77.5l12 76q124 -19 172 -104.5t18 -254.5l-63 -360q-28 -166 -105 -244t-204 -86z" />
    <glyph glyph-name="uni2080" unicode="&#x2080;" horiz-adv-x="567" 
d="M201 -10q-111 0 -155.5 65t-25.5 178l48 265q23 118 78 170.5t147 52.5q99 0 149.5 -61t30.5 -173l-49 -278q-21 -112 -72.5 -165.5t-150.5 -53.5zM205 63q62 0 95 36.5t46 119.5l49 266q14 79 -13 122.5t-93 43.5q-60 0 -94.5 -36.5t-51.5 -125.5l-45 -253
q-14 -82 12 -127.5t95 -45.5z" />
    <glyph glyph-name="uni2081" unicode="&#x2081;" horiz-adv-x="403" 
d="M-47 0l12 72h117l88 503q-37 -37 -104 -40l12 65q52 1 79.5 28t45.5 85h63l-112 -641h112l-12 -72h-301z" />
    <glyph glyph-name="uni2082" unicode="&#x2082;" horiz-adv-x="530" 
d="M-27 0l9 51q11 58 44.5 109.5t67.5 83t88 71.5q13 10 43 33t43.5 34t36 31.5t33.5 35.5t21.5 35.5t13.5 41.5l2 13q11 51 -13.5 82.5t-82.5 31.5q-107 0 -127 -116l-17 -99h-80l19 101q18 87 70 134.5t137 47.5q100 0 144 -54.5t26 -136.5l-2 -10q-6 -40 -23.5 -73.5
t-48.5 -64.5t-54.5 -49.5t-66.5 -49.5q-35 -26 -48.5 -36.5t-42 -34.5t-42.5 -41.5t-29.5 -43.5t-23.5 -53h309l-12 -74h-394z" />
    <glyph glyph-name="uni2083" unicode="&#x2083;" horiz-adv-x="544" 
d="M180 -10q-103 0 -151 50.5t-31 139.5l14 74h80l-14 -78q-21 -117 108 -117q63 0 93.5 28.5t42.5 94.5l2 19q23 129 -97 129h-63l14 69h62q66 0 95 29.5t40 93.5l2 17q11 54 -13.5 85t-87.5 31q-55 0 -84 -27.5t-40 -78.5l-13 -72h-78q3 7 5 21l8 57q14 79 66 122.5
t141 43.5q95 0 141 -49.5t29 -132.5l-2 -13q-17 -135 -119 -164q94 -34 71 -165l-4 -19q-18 -95 -68 -141.5t-149 -46.5z" />
    <glyph glyph-name="uni2084" unicode="&#x2084;" horiz-adv-x="530" 
d="M330 162l-29 -162h-68l29 162h-287l11 59l368 492h72l-86 -486h88l-12 -65h-86zM66 227h206l58 332l12 43l-12 -22z" />
    <glyph glyph-name="uni2085" unicode="&#x2085;" horiz-adv-x="548" 
d="M184 -10q-104 0 -146 54.5t-24 148.5l9 34h77l-8 -39q-8 -64 14.5 -96.5t86.5 -32.5q120 0 141 127q2 9 4 25l14 80q12 66 -10 97.5t-80 31.5q-50 0 -79.5 -19t-59.5 -61q-12 -18 -14 -18l-60 18l103 373h319v-4q-6 -37 -24.5 -52.5t-63.5 -15.5h-182l-66 -233
q61 77 150 77q81 0 120.5 -50.5t22.5 -139.5l-4 -31l-16 -78q-17 -99 -72 -147.5t-152 -48.5z" />
    <glyph glyph-name="uni2086" unicode="&#x2086;" horiz-adv-x="561" 
d="M414 182q-29 -192 -224 -192q-106 0 -148.5 61.5t-23.5 171.5l48 266q21 119 75 175.5t154 56.5q91 0 138 -50.5t30 -135.5l-6 -33h-76l4 37q10 60 -14 88t-84 28q-67 0 -98.5 -38t-49.5 -128l-26 -147q54 96 159 96q86 0 126.5 -52.5t23.5 -143.5zM197 59q68 0 101 33
t44 101l8 55q21 129 -102 129q-107 0 -150 -117l-8 -47q-27 -154 107 -154z" />
    <glyph glyph-name="uni2087" unicode="&#x2087;" horiz-adv-x="462" 
d="M20 0q42 124 95 233q97 202 233 406h-291l13 74h368l-10 -62q-219 -318 -326 -651h-82z" />
    <glyph glyph-name="uni2088" unicode="&#x2088;" horiz-adv-x="548" 
d="M176 -10q-104 0 -148.5 51t-25.5 147l6 33q10 62 46 99.5t87 50.5q-85 38 -65 151l4 27q27 172 209 172q97 0 143 -47t29 -135l-4 -29q-24 -122 -127 -145q46 -20 70 -62.5t14 -103.5l-6 -37q-17 -91 -73 -131.5t-159 -40.5zM254 397q108 0 129 115l4 20q11 65 -14.5 95
t-89.5 30q-58 0 -88 -28t-41 -86l-4 -27q-17 -119 86 -119h18zM188 59q66 0 101 26.5t45 86.5l6 35q10 61 -18 95t-84 34h-19q-114 0 -137 -117l-6 -35q-21 -125 112 -125z" />
    <glyph glyph-name="uni2089" unicode="&#x2089;" horiz-adv-x="555" 
d="M184 -12q-92 0 -136.5 49t-31.5 135l7 39h77l-6 -41q-21 -115 99 -115q69 0 101 38.5t46 125.5l27 152q-54 -97 -160 -97q-83 0 -123 52t-27 143l11 59q14 89 68 141t147 52q104 0 151 -62t27 -180l-47 -260q-21 -120 -74.5 -175.5t-155.5 -55.5zM231 336q58 0 97 31.5
t53 81.5l8 40q14 84 -13 124t-97 40q-119 0 -142 -137l-8 -53q-15 -127 102 -127z" />
    <glyph glyph-name="uni208A" unicode="&#x208a;" horiz-adv-x="548" 
d="M260 324l-27 -150h-67l27 150h-148l10 65h148l26 146h68l-27 -146h152l-12 -65h-150z" />
    <glyph glyph-name="uni208B" unicode="&#x208b;" horiz-adv-x="548" 
d="M57 391h363l-12 -69h-363z" />
    <glyph glyph-name="uni208C" unicode="&#x208c;" horiz-adv-x="548" 
d="M80 487h350l-10 -67h-350zM47 291h350l-12 -68h-350z" />
    <glyph glyph-name="uni208D" unicode="&#x208d;" horiz-adv-x="382" 
d="M217 -193q-123 18 -170.5 103t-17.5 256l61 358q30 167 106 244.5t205 85.5l-12 -74q-92 -6 -147.5 -71.5t-79.5 -204.5l-64 -350q-23 -134 9 -193.5t124 -77.5z" />
    <glyph glyph-name="uni208E" unicode="&#x208e;" horiz-adv-x="382" 
d="M-90 -119q91 6 146.5 71.5t78.5 203.5l64 350q22 135 -9.5 194.5t-121.5 77.5l12 76q124 -19 172 -104t18 -254l-63 -361q-28 -166 -105 -244t-204 -86z" />
    <glyph glyph-name="colonmonetary" unicode="&#x20a1;" horiz-adv-x="1058" 
d="M375 -12q-59 8 -119 39l-96 -265h-70l111 301q-147 129 -99 404l99 547q41 236 159 344t306 108h14l76 215h67l-78 -221q63 -8 123 -39l95 260h67l-108 -292q155 -126 110 -375l-20 -119h-97l21 121q33 175 -47 274l-416 -1220h8q151 0 236 87t117 275l14 82h96l-14 -86
q-39 -227 -149.5 -337.5t-309.5 -110.5h-31l-73 -218h-70zM197 465q-34 -187 43 -295l411 1210q-143 -2 -232.5 -89.5t-123.5 -282.5zM838 1335q-45 32 -119 41l-428 -1255q46 -35 117 -45z" />
    <glyph glyph-name="uni20A2" unicode="&#x20a2;" horiz-adv-x="1046" 
d="M915 428q-39 -229 -144 -338.5t-302 -109.5q-157 0 -242 61q-168 116 -116 426l98 547q42 237 155 344.5t300 107.5q202 0 298 -119t58 -333l-8 -45h-105l11 47q31 175 -35.5 267.5t-229.5 92.5q-141 0 -224.5 -85.5t-119.5 -282.5l-96 -543q-30 -171 16 -266.5
t174 -118.5l129 729h74l-18 -162q37 84 99.5 124t162.5 40h45l-18 -96h-56q-87 0 -139 -27q-49 -24 -77 -82.5t-48 -165.5l-63 -366q138 4 212 89t105 269l14 76h103z" />
    <glyph glyph-name="franc" unicode="&#x20a3;" horiz-adv-x="839" 
d="M233 459l-79 -459h-99l256 1450h615l-15 -90h-518l-84 -475h449l-17 -90h-448l-43 -244h448l-14 -92h-451z" />
    <glyph glyph-name="lira" unicode="&#x20a4;" horiz-adv-x="1097" 
d="M668 -25q-53 0 -108 21.5t-88 44t-87 63.5q-45 -60 -110 -94.5t-138 -34.5q-96 0 -136.5 49.5t-27.5 125.5q13 67 64.5 105t124.5 38q91 0 205 -78q15 42 24 86q18 91 4 213h-286l14 74h262q-15 100 -31 160h-204l14 73h176q-42 225 -16 369q26 148 115 221.5t233 73.5
q148 0 224.5 -90t47.5 -236l-12 -63l-101 -2l15 73q20 107 -31 168.5t-151 61.5q-205 0 -242 -215q-11 -56 -10.5 -123t5.5 -112.5t17 -125.5h324l-13 -73h-299q18 -116 23 -160h248l-12 -74h-230q9 -114 -10 -217q-10 -60 -39 -123q53 -36 81.5 -54t74 -35t86.5 -17
q84 0 122.5 50t63.5 189l12 78h103l-17 -94q-33 -178 -93.5 -247t-190.5 -69zM150 49q53 0 100 26.5t80 71.5q-103 74 -168 74q-91 0 -107 -84q-6 -40 18.5 -64t76.5 -24z" />
    <glyph glyph-name="uni20A6" unicode="&#x20a6;" horiz-adv-x="1159" 
d="M604 590h-325l-103 -590h-92l104 590h-165l14 74h164l28 163h-166l15 74h166l96 549h98l164 -549h338l96 549h92l-96 -549h164l-12 -74h-164l-29 -163h164l-12 -74h-166l-103 -590h-96zM334 901h178l-96 322l-17 102l-28 -215zM532 827h-210l-29 -163h289zM928 827h-303
l49 -163h225zM815 133l31 229l39 228h-189l99 -330z" />
    <glyph glyph-name="peseta" unicode="&#x20a7;" horiz-adv-x="2252" 
d="M238 475l-84 -475h-99l256 1450h312q158 0 238.5 -77.5t82.5 -215.5h55q99 4 105 6q42 5 55.5 18t26.5 64q9 37 14 53q4 19 33 152h72l-52 -287h232l-17 -90h-231l-113 -639q-32 -190 29 -267t248 -77h321q134 0 207.5 47.5t93.5 149.5v4q15 85 -18 133
q-22 33 -61.5 62.5t-71.5 45.5t-90 43q-76 37 -133 72q-145 93 -115 271l2 6q23 127 112 194.5t234 67.5q166 0 251.5 -86.5t59.5 -237.5l-10 -61h-96l12 69q19 108 -40.5 169t-182.5 61q-103 0 -165.5 -48t-80.5 -134v-5q-13 -83 19 -129q19 -31 58 -59.5t68 -43t91 -42.5
q76 -36 137 -74q72 -45 104 -110t13 -166v-6q-26 -149 -123 -216t-277 -67h-334q-233 0 -314 100.5t-42 327.5l115 645h-207q0 -12 -2 -18l-39 -224q-30 -175 -133 -266t-295 -90h-231zM393 1362l-141 -799h225q147 0 223.5 74t102.5 223l37 205q24 138 -32.5 217.5
t-203.5 79.5h-211z" />
    <glyph glyph-name="uni20A8" unicode="&#x20a8;" horiz-adv-x="1855" 
d="M1266 -23q-126 0 -195 31q-76 30 -124 95t-85 176l-39 122q-37 130 -113.5 183t-209.5 53h-234l-112 -637h-99l256 1450h348q186 0 264.5 -99t45.5 -276l-21 -112q-24 -122 -85.5 -190.5t-174.5 -92.5q86 -19 137.5 -71.5t83.5 -155.5l41 -123q47 -146 119 -204t207 -58
h37q262 0 303 219v4q15 82 -19 131q-19 33 -57 62.5t-70 45.5t-90 43q-70 35 -135 72q-70 45 -101.5 110t-13.5 163l3 6q23 127 112 194.5t234 67.5q166 0 251.5 -86.5t59.5 -237.5l-10 -61h-97l13 69q19 108 -40.5 169t-182.5 61q-103 0 -165.5 -48t-80.5 -134v-5
q-13 -84 18 -129q6 -10 14 -19.5t15 -17t19.5 -16.5t19.5 -14.5t22.5 -15t22 -13t25.5 -13.5t24.5 -12.5t27 -13t25.5 -12.5q88 -42 137 -72q72 -45 103 -110t12 -166v-4q-53 -308 -409 -308h-37zM393 1362l-112 -639h245q145 0 223 63t103 199l20 102q53 275 -227 275h-252
z" />
    <glyph glyph-name="uni20A9" unicode="&#x20a9;" horiz-adv-x="1476" 
d="M887 596h-312l-247 -596h-92l14 596h-225l12 72h213l4 163h-188l12 74h178l12 545h92l-14 -545h279l227 545h68l26 -545h291l190 545h93l-195 -545h188l-12 -74h-201l-59 -163h232l-15 -72h-241l-213 -596h-89zM702 905h170l-14 312l8 122l-35 -122zM594 831h-250
l-6 -163h188zM877 831h-205l-68 -163h281zM1210 831h-260l6 -163h197zM307 102l51 162l138 332h-160l-8 -324zM971 104l43 166l114 326h-167l16 -332z" />
    <glyph glyph-name="uni20AA" unicode="&#x20aa;" horiz-adv-x="1320" 
d="M362 0l201 1145q59 0 72.5 -22.5t1.5 -96.5q-16 -86 -39 -213l-74 -422q-9 -54 -22 -126.5t-20 -114t-11 -62.5h254q268 0 326 324l184 1046h96l-186 -1050q-37 -205 -137 -306.5t-289 -101.5h-357zM389 1364l-239 -1364h-95l256 1450h318q395 0 323 -399l-110 -623
q-12 -69 -35 -93t-80 -24l131 736q30 170 -22 243.5t-213 73.5h-234z" />
    <glyph glyph-name="Euro" unicode="&#x20ac;" horiz-adv-x="1067" 
d="M961 428q-39 -231 -140 -339.5t-297 -108.5q-150 0 -235 61q-166 119 -111 426l12 68h-143l14 77h142l43 234h-144l13 80h143l16 88q42 238 151 345t294 107q197 0 290.5 -120.5t57.5 -335.5l-2 -2h-102v6q33 176 -30 269t-224 93q-140 0 -219.5 -85t-114.5 -283l-15 -82
h447l-45 -80h-416l-43 -234h340l-43 -77h-311l-13 -70q-67 -391 259 -391q144 0 217 84.5t106 275.5l4 23h103z" />
    <glyph glyph-name="uni20AE" unicode="&#x20ae;" horiz-adv-x="804" 
d="M446 565l-98 -565h-98l92 524l-229 -92l12 74l229 92l33 188l-227 -90l12 76l229 90l86 496h-292l14 92h696l-16 -92h-303l-80 -453l242 94l-13 -73l-241 -97l-33 -190l241 96l-14 -73z" />
    <glyph glyph-name="uni20B1" unicode="&#x20b1;" horiz-adv-x="1030" 
d="M268 420l-73 -420h-97l135 770h-161l12 72h162l35 196h-162l12 72h162l59 340h273q172 0 253.5 -91.5t67.5 -248.5h150l-13 -72h-145l-35 -196h144l-13 -72h-145q-30 -173 -133 -262t-293 -88h-195zM434 1362l-45 -252h463q11 120 -48 186t-196 66h-174zM842 1038h-465
l-35 -196h465zM471 508q140 0 217 65.5t107 196.5h-465l-45 -262h186z" />
    <glyph glyph-name="uni2105" unicode="&#x2105;" horiz-adv-x="1193" 
d="M385 864q-121 0 -168 69t-27 185l29 146q17 98 75 150t152 52q114 0 167 -66.5t32 -176.5l-2 -9h-82l2 13q17 78 -14.5 121t-99.5 43q-65 0 -103 -32.5t-51 -103.5l-25 -141q-14 -83 14.5 -128.5t104.5 -45.5q126 0 150 139l2 15h82l-5 -27q-36 -203 -233 -203z
M1118 1450h103l-1090 -1450h-106zM793 -20q-121 0 -168 68.5t-27 184.5l29 148q17 98 76 150.5t153 52.5q114 0 167 -67t32 -177l-29 -158q-36 -202 -233 -202zM797 55q129 0 153 140l27 149q17 77 -17 120.5t-102 43.5q-65 0 -102.5 -32t-50.5 -103l-27 -146
q-14 -81 15.5 -126.5t103.5 -45.5z" />
    <glyph glyph-name="uni2116" unicode="&#x2116;" horiz-adv-x="1728" 
d="M1421 623q-150 0 -205.5 85.5t-29.5 233.5l49 281q23 123 95 188.5t186 65.5q139 0 202.5 -84t38.5 -224l-51 -290q-42 -256 -285 -256zM150 0h-95l256 1450h88l359 -1178l22 -129l23 217l190 1090h94l-253 -1450h-86l-365 1208l-16 117l-23 -215zM1425 707
q161 0 197 186l47 283q20 104 -20 161.5t-131 57.5q-160 0 -197 -183l-47 -276q-20 -106 16.5 -167.5t134.5 -61.5zM1118 451h496l-15 -89h-495z" />
    <glyph glyph-name="uni2117" unicode="&#x2117;" horiz-adv-x="1329" 
d="M604 -20q-165 0 -285 63q-273 140 -206 524l59 338q51 284 210 422.5t404 138.5q153 0 277 -65q129 -71 187 -202.5t24 -319.5l-62 -347q-50 -289 -201 -420.5t-407 -131.5zM612 59q222 0 349.5 114.5t171.5 361.5l63 358q26 163 -22 272q-50 109 -154 166.5t-240 57.5
q-214 0 -350 -119.5t-178 -366.5l-62 -350q-27 -169 21 -277q49 -107 154 -162t247 -55zM539 553l-50 -283h-77l159 910h217q124 0 174 -62.5t29 -175.5l-28 -162q-37 -227 -279 -227h-145zM637 1108l-84 -481h137q168 0 195 161l28 154q14 82 -17 124t-120 42h-139z" />
    <glyph glyph-name="uni2120" unicode="&#x2120;" horiz-adv-x="1054" 
d="M287 817q-90 0 -132 47t-28 125l10 53h66l-8 -51q-8 -52 15.5 -83t80.5 -31q103 0 119 108q7 39 -8 68t-37.5 44t-59.5 31q-60 30 -91 72t-19 113q12 70 59 107.5t121 37.5q78 0 116.5 -39.5t26.5 -109.5l-8 -52h-66l9 50q11 43 -12 69.5t-70 26.5q-92 0 -113 -94
q-4 -29 2 -50t24.5 -38t32 -25.5t43.5 -24.5q29 -15 47.5 -28.5t38.5 -35.5t26.5 -54t0.5 -72q-13 -75 -58.5 -119.5t-127.5 -44.5zM616 827h-61l109 623h63l86 -354l211 354h66l-111 -623h-64l68 379l41 162l-29 -59l-190 -318h-21l-77 316l-7 59l-16 -160z" />
    <glyph glyph-name="trademark" unicode="&#x2122;" horiz-adv-x="1017" 
d="M389 1389l-98 -562h-66l99 562h-127l10 61h328l-11 -61h-135zM573 827h-61l109 623h63l86 -354l211 354h66l-111 -623h-64l68 379l41 162l-29 -59l-190 -318h-21l-77 316l-7 59l-16 -160z" />
    <glyph glyph-name="uni2126" unicode="&#x2126;" horiz-adv-x="1259" 
d="M375 0h-424l14 92h359q-58 104 -93 197q-99 255 -47 545q57 319 205 476.5t371 157.5q135 0 244 -71q111 -75 154 -222t3 -364q-26 -149 -90 -287q-100 -221 -295 -432h348l-16 -92h-430l-33 80q109 122 174 207q190 244 242 532q37 192 2 318q-32 120 -112.5 179.5
t-200.5 59.5q-367 0 -467 -547q-29 -169 -9 -292q9 -63 24.5 -122t43.5 -126.5t42.5 -99.5t51.5 -109z" />
    <glyph glyph-name="uni2153" unicode="&#x2153;" horiz-adv-x="1187" 
d="M684 838l471 651l86 -62l-524 -612zM158 739l12 72h117l88 504q-38 -38 -105 -41l13 65q52 1 79.5 28t45.5 85h63l-113 -641h113l-12 -72h-301zM797 -10q-103 0 -151.5 50.5t-31.5 139.5l15 74h80l-15 -78q-21 -117 109 -117q63 0 93 28.5t42 94.5l2 19q23 129 -96 129
h-64l15 69h61q66 0 95 29.5t40 93.5l2 17q23 116 -100 116q-55 0 -84.5 -27.5t-40.5 -78.5l-12 -72h-78q2 7 4 21l8 57q14 79 66 122.5t141 43.5q95 0 141 -49.5t29 -132.5l-2 -13q-17 -135 -119 -164q95 -34 72 -165l-4 -19q-18 -95 -68 -141.5t-149 -46.5zM6 37l543 637
l31 -25l-486 -680z" />
    <glyph glyph-name="uni2154" unicode="&#x2154;" horiz-adv-x="1187" 
d="M684 838l471 651l86 -62l-524 -612zM113 739l8 52q11 58 45 110t68 82.5t88 71.5q12 10 42.5 33.5t43.5 34t35.5 31.5t33.5 35.5t21.5 35t13.5 41.5l2 12q11 51 -13.5 83t-82.5 32q-107 0 -127 -117l-17 -98h-79l18 100q18 87 70 134.5t137 47.5q100 0 144 -54t26 -136
l-2 -10q-8 -52 -41 -99t-64 -72.5t-88 -66.5q-35 -26 -48.5 -36.5t-42 -34.5t-42.5 -41.5t-29.5 -43.5t-23.5 -53h309l-12 -74h-393zM797 -10q-103 0 -151.5 50.5t-31.5 139.5l15 74h80l-15 -78q-21 -117 109 -117q63 0 93 28.5t42 94.5l2 19q23 129 -96 129h-64l15 69h61
q66 0 95 29.5t40 93.5l2 17q23 116 -100 116q-55 0 -84.5 -27.5t-40.5 -78.5l-12 -72h-78q2 7 4 21l8 57q14 79 66 122.5t141 43.5q95 0 141 -49.5t29 -132.5l-2 -13q-17 -135 -119 -164q95 -34 72 -165l-4 -19q-18 -95 -68 -141.5t-149 -46.5zM6 37l543 637l31 -25
l-486 -680z" />
    <glyph glyph-name="uni2155" unicode="&#x2155;" horiz-adv-x="1187" 
d="M684 838l471 651l86 -62l-524 -612zM158 739l12 72h117l88 504q-38 -38 -105 -41l13 65q52 1 79.5 28t45.5 85h63l-113 -641h113l-12 -72h-301zM801 -10q-104 0 -146 54.5t-24 148.5l8 34h78l-8 -39q-8 -64 14 -96.5t86 -32.5q120 0 141 127q2 9 4 25l15 80
q12 66 -10 97.5t-80 31.5q-50 0 -80.5 -19.5t-59.5 -60.5q-12 -18 -14 -18l-59 18l102 373h319v-4q-6 -37 -24.5 -52.5t-63.5 -15.5h-182l-65 -233q61 77 149 77q81 0 120.5 -50.5t22.5 -139.5l-4 -31l-16 -78q-17 -99 -71.5 -147.5t-151.5 -48.5zM6 37l543 637l31 -25
l-486 -680z" />
    <glyph glyph-name="uni2156" unicode="&#x2156;" horiz-adv-x="1187" 
d="M684 838l471 651l86 -62l-524 -612zM113 739l8 52q11 58 45 110t68 82.5t88 71.5q12 10 42.5 33.5t43.5 34t35.5 31.5t33.5 35.5t21.5 35t13.5 41.5l2 12q11 51 -13.5 83t-82.5 32q-107 0 -127 -117l-17 -98h-79l18 100q18 87 70 134.5t137 47.5q100 0 144 -54t26 -136
l-2 -10q-8 -52 -41 -99t-64 -72.5t-88 -66.5q-35 -26 -48.5 -36.5t-42 -34.5t-42.5 -41.5t-29.5 -43.5t-23.5 -53h309l-12 -74h-393zM801 -10q-104 0 -146 54.5t-24 148.5l8 34h78l-8 -39q-8 -64 14 -96.5t86 -32.5q120 0 141 127q2 9 4 25l15 80q12 66 -10 97.5t-80 31.5
q-50 0 -80.5 -19.5t-59.5 -60.5q-12 -18 -14 -18l-59 18l102 373h319v-4q-6 -37 -24.5 -52.5t-63.5 -15.5h-182l-65 -233q61 77 149 77q81 0 120.5 -50.5t22.5 -139.5l-4 -31l-16 -78q-17 -99 -71.5 -147.5t-151.5 -48.5zM6 37l543 637l31 -25l-486 -680z" />
    <glyph glyph-name="uni2157" unicode="&#x2157;" horiz-adv-x="1187" 
d="M684 838l471 651l86 -62l-524 -612zM322 729q-103 0 -151.5 51t-31.5 140l15 73h79l-14 -78q-21 -116 109 -116q63 0 93 28.5t42 94.5l2 18q23 129 -96 129h-64l14 70h62q66 0 95 29.5t40 93.5l2 16q11 55 -13.5 86t-86.5 31q-101 0 -125 -107l-12 -71h-78q2 6 4 20l8 57
q14 79 66 122.5t141 43.5q95 0 141 -49.5t29 -132.5l-2 -12q-17 -135 -119 -164q95 -34 72 -166l-4 -18q-18 -95 -68 -142t-149 -47zM801 -10q-104 0 -146 54.5t-24 148.5l8 34h78l-8 -39q-8 -64 14 -96.5t86 -32.5q120 0 141 127q2 9 4 25l15 80q12 66 -10 97.5t-80 31.5
q-50 0 -80.5 -19.5t-59.5 -60.5q-12 -18 -14 -18l-59 18l102 373h319v-4q-6 -37 -24.5 -52.5t-63.5 -15.5h-182l-65 -233q61 77 149 77q81 0 120.5 -50.5t22.5 -139.5l-4 -31l-16 -78q-17 -99 -71.5 -147.5t-151.5 -48.5zM6 37l543 637l31 -25l-486 -680z" />
    <glyph glyph-name="uni2158" unicode="&#x2158;" horiz-adv-x="1187" 
d="M684 838l471 651l86 -62l-524 -612zM475 901l-29 -162h-67l29 162h-287l10 60l369 491h71l-86 -485h88l-12 -66h-86zM211 967h207l57 331l12 43l-12 -22zM801 -10q-104 0 -146 54.5t-24 148.5l8 34h78l-8 -39q-8 -64 14 -96.5t86 -32.5q120 0 141 127q2 9 4 25l15 80
q12 66 -10 97.5t-80 31.5q-50 0 -80.5 -19.5t-59.5 -60.5q-12 -18 -14 -18l-59 18l102 373h319v-4q-6 -37 -24.5 -52.5t-63.5 -15.5h-182l-65 -233q61 77 149 77q81 0 120.5 -50.5t22.5 -139.5l-4 -31l-16 -78q-17 -99 -71.5 -147.5t-151.5 -48.5zM6 37l543 637l31 -25
l-486 -680z" />
    <glyph glyph-name="uni2159" unicode="&#x2159;" horiz-adv-x="1187" 
d="M684 838l471 651l86 -62l-524 -612zM158 739l12 72h117l88 504q-38 -38 -105 -41l13 65q52 1 79.5 28t45.5 85h63l-113 -641h113l-12 -72h-301zM1020 182q-29 -192 -223 -192q-106 0 -148.5 61.5t-23.5 171.5l47 266q21 119 75 175.5t154 56.5q91 0 138 -50.5t30 -135.5
l-6 -33h-76l4 37q10 60 -14 88t-84 28q-67 0 -98.5 -38t-49.5 -128l-26 -147q54 96 160 96q85 0 125.5 -52t23.5 -144zM6 37l543 637l31 -25l-486 -680zM803 59q68 0 101 33t44 101l8 55q21 129 -102 129q-106 0 -149 -117l-9 -47q-27 -154 107 -154z" />
    <glyph glyph-name="uni215A" unicode="&#x215a;" horiz-adv-x="1187" 
d="M684 838l471 651l86 -62l-524 -612zM326 729q-104 0 -146 54.5t-24 148.5l8 35h78l-9 -39q-8 -64 14.5 -96.5t86.5 -32.5q120 0 141 127q2 8 4 24l15 80q12 66 -10 97.5t-81 31.5q-50 0 -79.5 -19t-59.5 -61q-12 -18 -14 -18l-60 18l103 373h319v-4q-6 -37 -24.5 -52.5
t-63.5 -15.5h-182l-66 -233q62 78 150 78q81 0 120.5 -51t22.5 -140l-4 -30l-16 -78q-17 -99 -71.5 -148t-151.5 -49zM1020 182q-29 -192 -223 -192q-106 0 -148.5 61.5t-23.5 171.5l47 266q21 119 75 175.5t154 56.5q91 0 138 -50.5t30 -135.5l-6 -33h-76l4 37
q10 60 -14 88t-84 28q-67 0 -98.5 -38t-49.5 -128l-26 -147q54 96 160 96q85 0 125.5 -52t23.5 -144zM6 37l543 637l31 -25l-486 -680zM803 59q68 0 101 33t44 101l8 55q21 129 -102 129q-106 0 -149 -117l-9 -47q-27 -154 107 -154z" />
    <glyph glyph-name="uni215B" unicode="&#x215b;" horiz-adv-x="1187" 
d="M684 838l471 651l86 -62l-524 -612zM160 739l12 72h117l88 504q-38 -38 -105 -41l13 65q52 1 79.5 28t45.5 85h63l-113 -641h113l-12 -72h-301zM795 -10q-104 0 -148.5 51t-25.5 147l6 33q10 62 46 99.5t87 50.5q-86 39 -66 151l4 27q27 172 209 172q97 0 143 -47
t29 -135l-4 -29q-24 -122 -127 -145q46 -20 70 -62.5t14 -103.5l-6 -37q-17 -91 -72.5 -131.5t-158.5 -40.5zM6 37l543 637l31 -25l-486 -680zM872 397q108 0 129 115l5 20q10 64 -15 94.5t-90 30.5q-58 0 -88 -28t-41 -86l-4 -27q-17 -119 86 -119h18zM807 59
q66 0 100.5 26t44.5 87l6 35q10 61 -18 95t-84 34h-18q-115 0 -138 -117l-6 -35q-21 -125 113 -125z" />
    <glyph glyph-name="uni215C" unicode="&#x215c;" horiz-adv-x="1187" 
d="M684 838l471 651l86 -62l-524 -612zM322 729q-103 0 -151.5 51t-31.5 140l15 73h79l-14 -78q-21 -116 109 -116q63 0 93 28.5t42 94.5l2 18q23 129 -96 129h-64l14 70h62q66 0 95 29.5t40 93.5l2 16q11 55 -13.5 86t-86.5 31q-101 0 -125 -107l-12 -71h-78q2 6 4 20l8 57
q14 79 66 122.5t141 43.5q95 0 141 -49.5t29 -132.5l-2 -12q-17 -135 -119 -164q95 -34 72 -166l-4 -18q-18 -95 -68 -142t-149 -47zM795 -10q-104 0 -148.5 51t-25.5 147l6 33q10 62 46 99.5t87 50.5q-86 39 -66 151l4 27q27 172 209 172q97 0 143 -47t29 -135l-4 -29
q-24 -122 -127 -145q46 -20 70 -62.5t14 -103.5l-6 -37q-17 -91 -72.5 -131.5t-158.5 -40.5zM6 37l543 637l31 -25l-486 -680zM872 397q108 0 129 115l5 20q10 64 -15 94.5t-90 30.5q-58 0 -88 -28t-41 -86l-4 -27q-17 -119 86 -119h18zM807 59q66 0 100.5 26t44.5 87l6 35
q10 61 -18 95t-84 34h-18q-115 0 -138 -117l-6 -35q-21 -125 113 -125z" />
    <glyph glyph-name="uni215D" unicode="&#x215d;" horiz-adv-x="1187" 
d="M684 838l471 651l86 -62l-524 -612zM326 729q-104 0 -146 54.5t-24 148.5l8 35h78l-9 -39q-8 -64 14.5 -96.5t86.5 -32.5q120 0 141 127q2 8 4 24l15 80q12 66 -10 97.5t-81 31.5q-50 0 -79.5 -19t-59.5 -61q-12 -18 -14 -18l-60 18l103 373h319v-4q-6 -37 -24.5 -52.5
t-63.5 -15.5h-182l-66 -233q62 78 150 78q81 0 120.5 -51t22.5 -140l-4 -30l-16 -78q-17 -99 -71.5 -148t-151.5 -49zM795 -10q-104 0 -148.5 51t-25.5 147l6 33q10 62 46 99.5t87 50.5q-86 39 -66 151l4 27q27 172 209 172q97 0 143 -47t29 -135l-4 -29q-24 -122 -127 -145
q46 -20 70 -62.5t14 -103.5l-6 -37q-17 -91 -72.5 -131.5t-158.5 -40.5zM6 37l543 637l31 -25l-486 -680zM872 397q108 0 129 115l5 20q10 64 -15 94.5t-90 30.5q-58 0 -88 -28t-41 -86l-4 -27q-17 -119 86 -119h18zM807 59q66 0 100.5 26t44.5 87l6 35q10 61 -18 95t-84 34
h-18q-115 0 -138 -117l-6 -35q-21 -125 113 -125z" />
    <glyph glyph-name="uni215E" unicode="&#x215e;" horiz-adv-x="1187" 
d="M684 838l471 651l86 -62l-524 -612zM279 739q45 134 94 234q96 199 233 405h-291l13 74h368l-10 -61q-100 -145 -186.5 -315t-139.5 -337h-81zM795 -10q-104 0 -148.5 51t-25.5 147l6 33q10 62 46 99.5t87 50.5q-86 39 -66 151l4 27q27 172 209 172q97 0 143 -47t29 -135
l-4 -29q-24 -122 -127 -145q46 -20 70 -62.5t14 -103.5l-6 -37q-17 -91 -72.5 -131.5t-158.5 -40.5zM6 37l543 637l31 -25l-486 -680zM872 397q108 0 129 115l5 20q10 64 -15 94.5t-90 30.5q-58 0 -88 -28t-41 -86l-4 -27q-17 -119 86 -119h18zM807 59q66 0 100.5 26
t44.5 87l6 35q10 61 -18 95t-84 34h-18q-115 0 -138 -117l-6 -35q-21 -125 113 -125z" />
    <glyph glyph-name="uni215F" unicode="&#x215f;" horiz-adv-x="1187" 
d="M684 838l471 651l86 -62l-524 -612zM158 739l12 72h117l88 504q-38 -38 -105 -41l13 65q52 1 79.5 28t45.5 85h63l-113 -641h113l-12 -72h-301zM6 37l543 637l31 -25l-486 -680z" />
    <glyph glyph-name="arrowleft" unicode="&#x2190;" horiz-adv-x="1742" 
d="M285 694q59 -38 123 -102q147 -137 215 -303h-119q-36 85 -98 168q-68 87 -144 156.5t-145 103.5v51q68 36 147 109q181 167 238 321h114q-35 -87 -88 -164q-111 -156 -241 -241h1310v-99h-1312z" />
    <glyph glyph-name="arrowup" unicode="&#x2191;" horiz-adv-x="1742" 
d="M1321 920q-98 40 -164 90q-160 114 -242 239v-1212h-98v1214q-41 -59 -102 -123q-140 -140 -303 -208v116q82 34 168 99q87 66 156.5 141.5t105.5 144.5h51q40 -76 106 -147q162 -176 322 -238v-116z" />
    <glyph glyph-name="arrowright" unicode="&#x2192;" horiz-adv-x="1742" 
d="M1112 289q40 98 90 164q118 157 246 241h-1313v101h1307q-55 38 -119 102q-138 138 -207 301h115q36 -85 98 -168q64 -84 141.5 -154.5t145.5 -107.5v-51q-75 -40 -148 -107q-182 -165 -239 -321h-117z" />
    <glyph glyph-name="arrowdown" unicode="&#x2193;" horiz-adv-x="1742" 
d="M840 33q-39 73 -107 147q-168 183 -321 238v114q84 -34 163 -88q167 -125 242 -243v1216h98v-1216q38 55 103 123q145 145 303 211v-117q-83 -34 -168 -99q-87 -66 -156.5 -141.5t-105.5 -144.5h-51z" />
    <glyph glyph-name="uni2196" unicode="&#x2196;" horiz-adv-x="1742" 
d="M1348 188l-928 926q14 -82 14 -160q0 -204 -65 -360l-82 82q37 82 49 188q31 239 -19 387l37 37q80 -25 181 -28q230 -13 393 59l82 -82q-83 -38 -179 -53q-168 -30 -339 0l925 -926z" />
    <glyph glyph-name="uni2197" unicode="&#x2197;" horiz-adv-x="1742" 
d="M1348 596q-40 88 -54 176q-27 191 2 342l-925 -926l-72 68l924 926q-76 -13 -158 -13q-190 3 -360 68l83 82q92 -38 187 -49q238 -30 389 18l35 -37q-20 -69 -29 -180q-10 -235 60 -393z" />
    <glyph glyph-name="uni2198" unicode="&#x2198;" horiz-adv-x="1742" 
d="M1364 207q-58 19 -180 29q-232 10 -396 -62l-81 82q88 39 178 53q197 28 342 0l-928 926l70 72l925 -926q-12 71 -12 158q0 189 66 362l84 -84q-40 -96 -50 -186q-30 -236 17 -389z" />
    <glyph glyph-name="uni2199" unicode="&#x2199;" horiz-adv-x="1742" 
d="M930 174q-82 37 -189 49q-237 31 -387 -18l-37 37q26 84 29 180q6 107 -8.5 212.5t-50.5 182.5l82 82q38 -87 53 -180q27 -191 -2 -342l928 928l69 -70l-925 -926q76 13 159 13q202 0 361 -66z" />
    <glyph glyph-name="partialdiff" unicode="&#x2202;" horiz-adv-x="970" 
d="M416 -18q-143 0 -223 57q-156 117 -107 393l68 383q31 171 131 263.5t256 92.5q240 0 282 -198q-1 174 -90.5 317.5t-283.5 284.5h145q384 -299 299 -793l-78 -440q-31 -179 -128 -269.5t-271 -90.5zM422 72q248 0 297 284l69 400q29 157 -35.5 242t-205.5 85
q-246 0 -295 -274l-70 -395q-28 -158 30 -250t210 -92z" />
    <glyph glyph-name="uni2206" unicode="&#x2206;" horiz-adv-x="1183" 
d="M752 1477l307 -1477h-1133zM713 1227l-629 -1137h854z" />
    <glyph glyph-name="product" unicode="&#x220f;" horiz-adv-x="1132" 
d="M889 1360h-375l-238 -1360h-98l240 1360h-217l14 90h1010l-17 -90h-221l-239 -1360h-99z" />
    <glyph glyph-name="summation" unicode="&#x2211;" horiz-adv-x="792" 
d="M618 0h-653l17 100l473 652l-236 602l17 96h620l-16 -90h-523l244 -619l-471 -649h545z" />
    <glyph glyph-name="minus" unicode="&#x2212;" horiz-adv-x="933" 
d="M154 672l14 92h659l-14 -92h-659z" />
    <glyph glyph-name="radical" unicode="&#x221a;" horiz-adv-x="1185" 
d="M377 0l-111 854h-147l16 92h219l99 -794l723 1300h102l-809 -1452h-92z" />
    <glyph glyph-name="infinity" unicode="&#x221e;" horiz-adv-x="1427" 
d="M360 483q-116 0 -175.5 76t-39.5 191q20 107 98 170t181 63q70 0 137 -31q37 -19 76 -51t56.5 -50t56.5 -60q26 25 110 88q141 104 260 104q116 0 179.5 -77t43.5 -187q-20 -109 -97 -172.5t-183 -63.5q-66 0 -133 31q-19 10 -39.5 23.5t-34 23.5t-35 30t-28.5 26.5
t-30.5 30.5t-25.5 26q-89 -73 -108 -86q-142 -105 -269 -105zM371 571q56 0 117.5 27.5t100.5 57t97 79.5q-34 37 -55 57.5t-56.5 49t-73 42t-77.5 13.5q-72 0 -124 -41.5t-62 -112.5q-12 -71 25.5 -121.5t107.5 -50.5zM1063 571q71 0 124.5 45.5t65.5 112.5
q11 71 -28.5 118.5t-110.5 47.5q-75 0 -149 -45t-160 -121q45 -45 72 -70q92 -88 186 -88z" />
    <glyph glyph-name="integral" unicode="&#x222b;" horiz-adv-x="548" 
d="M-160 -225h58q67 0 110 16q41 19 64.5 67t40.5 146l221 1253q21 121 59 193q36 66 98 94.5t162 28.5h60l-17 -86h-49q-75 0 -112 -19q-42 -17 -65 -65t-42 -152l-221 -1257q-22 -130 -55 -191q-34 -66 -95 -92t-168 -26h-63z" />
    <glyph glyph-name="approxequal" unicode="&#x2248;" horiz-adv-x="942" 
d="M377 977q43 0 110 -19q14 -5 53 -19t58 -20t47.5 -12t50.5 -6q94 0 146 80l-19 -107q-20 -25 -61.5 -45t-81.5 -20q-63 0 -119 20q-19 6 -53 19t-54 20t-47 13t-49 6q-39 0 -81 -22t-68 -58l18 102q20 27 62.5 47.5t87.5 20.5zM313 639q45 0 115 -18q21 -7 55.5 -19.5
t55.5 -19.5t48.5 -13t49.5 -6q81 0 145 76l-18 -100q-50 -66 -143 -66q-43 0 -117 19q-10 4 -42 16t-45.5 16.5t-38 11.5t-43.5 10t-38 3q-40 0 -81.5 -23.5t-65.5 -56.5l18 104q20 26 61.5 46t83.5 20z" />
    <glyph glyph-name="notequal" unicode="&#x2260;" horiz-adv-x="942" 
d="M418 496l-88 -195h-66l88 195h-211l17 88h235l133 295h-317l16 88h342l80 176h66l-80 -176h219l-14 -88h-246l-133 -295h325l-14 -88h-352z" />
    <glyph glyph-name="equivalence" unicode="&#x2261;" horiz-adv-x="942" 
d="M225 971l17 88h626l-16 -88h-627zM174 688l19 88h626l-16 -88h-629zM125 406l16 88h629l-18 -88h-627z" />
    <glyph glyph-name="lessequal" unicode="&#x2264;" horiz-adv-x="942" 
d="M209 817l14 84l637 238l-18 -105l-516 -180l450 -184l-16 -99zM127 346l14 90h594l-14 -90h-594z" />
    <glyph glyph-name="greaterequal" unicode="&#x2265;" horiz-adv-x="942" 
d="M199 678l514 180l-449 182l17 99l550 -242l-14 -84l-637 -242zM156 436h594l-17 -90h-592z" />
    <glyph glyph-name="uni22A0" unicode="&#x22a0;" horiz-adv-x="1841" 
d="M203 1450h1442v-1450h-1442v1450zM1513 123v1206h-1181v-1206h1181zM928 651l-340 -350l-78 80l340 350l-334 342l80 78l330 -340l327 338l80 -78l-329 -340l335 -344l-79 -78z" />
    <glyph glyph-name="house" unicode="&#x2302;" horiz-adv-x="1736" 
d="M207 825l663 637l664 -637v-825h-1327v825z" />
    <glyph glyph-name="filledbox" unicode="&#x25a0;" horiz-adv-x="1841" 
d="M203 1450h1442v-1450h-1442v1450z" />
    <glyph glyph-name="uni25A1" unicode="&#x25a1;" horiz-adv-x="1841" 
d="M203 0v1450h1442v-1450h-1442zM332 123h1181v1206h-1181v-1206z" />
    <glyph glyph-name="uni25AA" unicode="&#x25aa;" horiz-adv-x="1562" 
d="M207 1153h1153v-1153h-1153v1153z" />
    <glyph glyph-name="uni25AB" unicode="&#x25ab;" horiz-adv-x="1562" 
d="M207 1153h1153v-1153h-1153v1153zM1231 123v907h-895v-907h895z" />
    <glyph glyph-name="triagup" unicode="&#x25b2;" horiz-adv-x="1785" 
d="M43 0l854 1477l850 -1477h-1704z" />
    <glyph glyph-name="triagrt" unicode="&#x25ba;" horiz-adv-x="1785" 
d="M203 1591l1476 -852l-1476 -852v1704z" />
    <glyph glyph-name="triagdn" unicode="&#x25bc;" horiz-adv-x="1785" 
d="M43 1452h1704l-850 -1477z" />
    <glyph glyph-name="triaglf" unicode="&#x25c4;" horiz-adv-x="1785" 
d="M1589 -113l-1476 852l1476 852v-1704z" />
    <glyph glyph-name="lozenge" unicode="&#x25ca;" horiz-adv-x="1210" 
d="M86 723l633 539l448 -543l-635 -539zM1036 723l-336 410l-483 -416l334 -406z" />
    <glyph glyph-name="circle" unicode="&#x25cb;" horiz-adv-x="1847" 
d="M926 -20q-331 0 -533 208q-209 203 -209 533q0 323 211 534q100 100 236 154.5t295 54.5q327 0 532 -211q209 -209 209 -532q0 -318 -209 -533q-214 -208 -532 -208zM926 104q177 0 311 82q140 80 219.5 220.5t79.5 314.5q0 176 -80 313q-79 143 -217 224t-313 81
q-166 0 -312 -79q-141 -85 -220 -223.5t-79 -315.5q0 -171 78 -315q81 -142 219.5 -222t313.5 -80z" />
    <glyph glyph-name="uni25CE" unicode="&#x25ce;" horiz-adv-x="1835" 
d="M918 -20q-213 0 -379 94q-169 96 -262 262t-93 381q0 317 207 530q205 211 527 211q321 0 530 -209q100 -100 154.5 -236t54.5 -296q0 -316 -207 -529q-208 -208 -532 -208zM918 242q138 0 243 63q109 62 170.5 170t61.5 242q0 132 -62 244q-63 112 -170 175.5t-243 63.5
q-127 0 -238 -63q-109 -65 -170 -174.5t-61 -245.5q0 -135 61 -242q65 -110 171 -171.5t237 -61.5zM920 375q-103 0 -177 45q-78 43 -121.5 120t-43.5 175q0 102 45 176q45 79 123 123.5t174 44.5q102 0 176 -45q80 -45 125 -123t45 -176q0 -100 -45 -174q-45 -78 -123 -122
t-178 -44zM920 600q49 0 79.5 33.5t30.5 81.5q0 54 -30 86.5t-80 32.5q-45 0 -76 -33t-31 -86q0 -47 31.5 -81t75.5 -34z" />
    <glyph glyph-name="uni25CF" unicode="&#x25cf;" horiz-adv-x="1847" 
d="M926 -20q-331 0 -533 208q-209 203 -209 533q0 323 211 534q100 100 236 154.5t295 54.5q327 0 532 -211q209 -209 209 -532q0 -318 -209 -533q-214 -208 -532 -208z" />
    <glyph glyph-name="uni25E2" unicode="&#x25e2;" horiz-adv-x="1785" 
d="M535 -145l-441 1646l1645 -440z" />
    <glyph glyph-name="uni25E3" unicode="&#x25e3;" horiz-adv-x="1785" 
d="M55 1061l1647 440l-440 -1646z" />
    <glyph glyph-name="uni25E4" unicode="&#x25e4;" horiz-adv-x="1785" 
d="M61 334l1207 1204l440 -1644z" />
    <glyph glyph-name="uni25E5" unicode="&#x25e5;" horiz-adv-x="1785" 
d="M92 -115l443 1647l1202 -1208z" />
    <glyph glyph-name="uni2605" unicode="&#x2605;" horiz-adv-x="1832" 
d="M682 618l-379 275l465 -2l147 444l144 -444l469 -2l-381 -273l147 -444l-381 277l-378 -277z" />
    <glyph glyph-name="sun" unicode="&#x263c;" horiz-adv-x="1890" 
d="M887 1444h108l-34 -289h-39zM535 1323l96 55l110 -268l-28 -20zM1253 1378l95 -55l-177 -233l-30 20zM289 1038l55 95l236 -177l-21 -30zM1534 1133l59 -93l-268 -114l-20 32zM588 723q0 95 47 178q50 84 129.5 131t175.5 47t178 -49q84 -47 131 -128t47 -179
q0 -100 -49 -176q-48 -81 -129 -128.5t-178 -47.5q-99 0 -176 47q-81 51 -128.5 130.5t-47.5 174.5zM223 672v108l289 -35v-38zM1659 780v-108l-289 35v38zM348 319l-59 95l270 112l21 -30zM1593 416l-55 -97l-233 179l20 28zM631 74l-96 55l178 236l28 -21zM1348 129
l-95 -55l-112 270l30 21zM995 8h-108l35 289h39z" />
    <glyph glyph-name="uni263E" unicode="&#x263e;" horiz-adv-x="1603" 
d="M1090 1231q-134 0 -244 -70q-112 -68 -177 -185.5t-65 -256.5q0 -133 66 -256q67 -117 178 -185.5t242 -68.5q64 0 145 24q-163 -116 -363 -116q-248 0 -426 178q-84 84 -130 193t-46 231q0 249 176 428q179 176 426 176q199 0 363 -117q-84 25 -145 25z" />
    <glyph glyph-name="spade" unicode="&#x2660;" horiz-adv-x="1824" 
d="M981 578q0 -150 80 -340q28 -62 73 -150l46 -88h-516q5 10 29 58.5t42 82.5q117 240 117 437q-24 -72 -70 -132q-97 -139 -268 -139q-89 0 -170 43q-79 43 -125.5 115.5t-46.5 157.5q0 113 49 211q48 93 147.5 193.5t274.5 238.5l279 221h2l278 -221q172 -136 264 -234
q102 -103 146.5 -198.5t44.5 -210.5q0 -90 -43 -158q-44 -72 -115 -114t-158 -42q-99 0 -167 39q-131 69 -193 230z" />
    <glyph glyph-name="club" unicode="&#x2663;" horiz-adv-x="1837" 
d="M1321 260q-112 0 -198.5 66t-129.5 174q11 -97 51 -203q18 -46 41 -96t37 -77t39 -73t27 -51h-516q54 104 63 123q101 206 121 379q-43 -107 -132.5 -174.5t-201.5 -67.5q-102 0 -178 49q-81 48 -128.5 129t-47.5 178q0 96 47 179q51 81 131 127.5t176 46.5q26 0 84 -13
q-41 90 -41 172q0 100 47 177q48 80 129 126t177 46q98 0 176 -47q80 -45 127 -125t47 -177q0 -88 -37 -176q46 17 92 17q99 0 176 -47q80 -48 126 -128.5t46 -177.5q0 -100 -47 -178q-48 -84 -127 -131t-176 -47z" />
    <glyph glyph-name="heart" unicode="&#x2665;" horiz-adv-x="1837" 
d="M635 279q-137 152 -266 325q-100 143 -144.5 261.5t-44.5 236.5q0 103 49 188q48 86 132.5 136.5t185.5 50.5q96 0 180 -41q79 -43 128.5 -115.5t59.5 -163.5q18 141 117 230.5t250 89.5q103 0 188 -52q88 -52 138.5 -137t50.5 -186q0 -122 -47 -236
q-43 -117 -143 -256.5t-273 -330.5l-281 -314z" />
    <glyph glyph-name="diamond" unicode="&#x2666;" horiz-adv-x="1837" 
d="M268 739l654 754l649 -754l-649 -759z" />
    <glyph glyph-name="uni267B" unicode="&#x267b;" horiz-adv-x="1689" 
d="M715 1384h334q33 -1 46.5 -2.5t37.5 -8.5t41 -23.5t32 -44.5l49 -84l74 43l-106 -289l-295 55l67 41l-123 215q-22 43 -63 66q-22 12 -45.5 19.5t-35.5 8.5l-13 2v2zM479 1278q18 31 60 53q54 28 110 25q59 -4 106.5 -28.5t65.5 -57.5l-198 -346l-261 149zM1528 748
q16 -28 16 -74q0 -62 -33 -109q-35 -49 -79 -77.5t-82 -28.5l-199 344l256 147zM336 254l-164 289q-19 33 -26.5 54t-4.5 53t23 69l49 84l-74 43l301 53l103 -287l-72 43l-61 -104q-61 -101 -64 -111q-24 -46 -24 -86q0 -25 4.5 -50t9.5 -38l4 -12h-4zM1509 500l-168 -291
q-18 -27 -26 -38t-26 -28t-41.5 -23.5t-55.5 -6.5h-100v-84l-193 233l193 236v-86h249q50 0 89 22q22 14 41 31t27 27l9 10zM557 113q-41 0 -78 22q-57 37 -78 84q-26 53 -28.5 108t16.5 85h399v-299h-231z" />
    <glyph glyph-name="uni267C" unicode="&#x267c;" horiz-adv-x="1689" 
d="M1536 719q0 -140 -52.5 -265t-148.5 -218q-96 -96 -221 -148.5t-264 -52.5q-289 0 -490 201q-97 93 -149.5 217.5t-52.5 265.5q0 289 202 491q201 201 490 201q139 0 264 -52.5t221 -148.5q201 -204 201 -491zM733 1243l23 -4q72 -18 100 -72l96 -166l-53 -32l229 -43
l82 223l-57 -31l-39 64q-24 40 -51 51.5t-72 11.5h-258v-2zM469 1004l203 -117l151 268q-11 23 -51 45q-93 47 -168 2q-32 -18 -43 -43zM1280 907l-203 -116l158 -269q25 0 63 23q86 60 86 149q0 30 -16 58zM451 369q-5 6 -7 22q-9 17 -7.5 54.5t18.5 66.5l98 168l55 -35
l-80 221l-231 -39l55 -34l-39 -66q-8 -14 -12.5 -27.5t-6 -23t1.5 -23t5.5 -20t9 -22t8.5 -21.5l130 -221h2zM1354 557l-15 -16q-38 -49 -112 -49h-193v61l-151 -178l151 -182v67h76q34 0 57.5 11.5t33.5 23.5t26 39l129 221zM793 260v232h-312q-15 -24 -12 -68
q2 -44 23.5 -84t60.5 -64q37 -16 59 -16h181z" />
    <glyph glyph-name="uni267D" unicode="&#x267d;" horiz-adv-x="1689" 
d="M1536 719q0 -140 -52.5 -265t-148.5 -218q-96 -96 -221 -148.5t-264 -52.5q-289 0 -490 201q-97 93 -149.5 217.5t-52.5 265.5q0 289 202 491q201 201 490 201q139 0 264 -52.5t221 -148.5q201 -204 201 -491zM1501 719q0 277 -190 467t-461 190q-275 0 -465 -190
q-192 -192 -192 -467q0 -269 192 -461q190 -190 465 -190q271 0 461 190t190 461zM733 1245h258q45 0 72 -11.5t51 -51.5l39 -64l57 31l-82 -223l-229 43l53 32l-96 166q-21 34 -49 50q-17 10 -35.5 16.5t-28.5 8.5l-10 1v2zM561 1159q11 25 43 43q40 24 86 21
q45 -5 83 -23.5t50 -44.5l-151 -268l-203 117zM1368 752q16 -28 16 -58q0 -48 -24 -86q-26 -38 -61 -62t-64 -24l-158 269l203 116zM449 369l-130 221q-2 6 -8.5 21.5t-9 22t-5.5 20t-1.5 23t6 23t12.5 27.5l39 66l-55 34l231 39l80 -221l-55 35l-98 -168q-19 -31 -19 -68
q0 -19 4 -38t8 -28l3 -9h-2zM1356 555l-129 -221q-16 -27 -26 -39t-33.5 -23.5t-57.5 -11.5h-76v-67l-151 182l151 178v-61h193q40 0 69 16q17 10 31.5 22.5t20.5 19.5l6 7zM612 260q-22 0 -59 16q-39 23 -61 66q-20 40 -22.5 83t11.5 67h312v-232h-181z" />
    <glyph glyph-name="uni26AC" unicode="&#x26ac;" horiz-adv-x="1560" 
d="M782 -20q-173 0 -309 77q-137 80 -214 216.5t-77 304.5q0 176 80 307q80 136 216.5 213.5t303.5 77.5t305 -78q138 -80 215.5 -214t77.5 -306t-77 -308q-80 -136 -216 -213t-305 -77zM782 98q135 0 242 64q108 62 168.5 170.5t60.5 245.5t-61 247q-62 110 -169 171
t-241 61q-136 0 -243 -64q-106 -66 -166 -174t-60 -241q0 -130 60 -244q63 -111 168.5 -173.5t240.5 -62.5z" />
    <glyph glyph-name="uni2E18" unicode="&#x2e18;" horiz-adv-x="1017" 
d="M610 1110q43 0 59.5 -23t6.5 -75q-8 -50 -31 -72t-67 -22q-81 0 -66 96q10 53 32.5 74.5t65.5 21.5zM365 -373q-126 0 -197 45q-152 94 -123 295l12 76q14 88 54 154q54 91 180 184q47 38 69 57.5t56 58t53 83.5t29 102l20 115q6 -2 39 -2t37 4q0 -35 -12 -101l-60 -354
q-15 -80 -41.5 -229.5t-36.5 -206.5l-34 -195q117 7 179 71.5t83 188.5l33 193h96l-35 -203q-61 -336 -401 -336zM139 -45q-30 -217 183 -242l34 195q66 362 111 565q-8 -16 -19 -31.5t-18 -25t-22.5 -26t-19 -20t-22.5 -21.5t-20 -19l-80 -72q-44 -40 -71 -87t-39 -124z
" />
    <glyph glyph-name="uni3008" unicode="&#x3008;" horiz-adv-x="626" 
d="M283 -385l-170 950l505 951h107l-510 -959l170 -942h-102z" />
    <glyph glyph-name="uni3009" unicode="&#x3009;" horiz-adv-x="626" 
d="M-98 -385l504 954l-170 947h102l172 -955l-500 -946h-108z" />
    <glyph glyph-name="i.dot" horiz-adv-x="389" 
d="M328 1307q-75 0 -60 88q10 49 29 67.5t57 18.5q73 0 58 -88q-7 -48 -26.5 -67t-57.5 -19zM45 0l205 1163h96l-203 -1163h-98z" />
    <glyph glyph-name="zero.inf" horiz-adv-x="567" 
d="M145 -332q-110 0 -154.5 65.5t-25.5 178.5l47 264q23 118 78.5 170.5t147.5 52.5q99 0 149.5 -60.5t30.5 -172.5l-49 -279q-21 -112 -73 -165.5t-151 -53.5zM150 -258q62 0 95 36.5t46 119.5l49 266q14 79 -13 122.5t-94 43.5q-60 0 -94 -36.5t-51 -125.5l-45 -254
q-29 -172 107 -172z" />
    <glyph glyph-name="one.inf" horiz-adv-x="403" 
d="M-102 -322l12 72h117l88 504q-38 -38 -105 -41l13 66q52 1 79 27.5t45 84.5h64l-113 -641h113l-12 -72h-301z" />
    <glyph glyph-name="two.inf" horiz-adv-x="530" 
d="M-82 -322l8 52q11 58 45 110t68 82.5t88 71.5q12 10 42.5 33.5t43.5 34t35.5 31.5t33.5 35.5t21.5 35t13.5 41.5l2 12q11 51 -13.5 83t-82.5 32q-107 0 -127 -117l-16 -98h-80l18 100q18 87 70 134.5t137 47.5q100 0 144 -54t26 -136l-2 -10q-8 -52 -40.5 -98.5
t-63.5 -72.5t-88 -67q-44 -33 -61.5 -46.5t-49.5 -43t-49 -57.5t-27 -62h310l-13 -74h-393z" />
    <glyph glyph-name="three.inf" horiz-adv-x="544" 
d="M125 -332q-103 0 -151 51t-31 140l14 73h80l-14 -77q-21 -117 108 -117q63 0 93 28.5t42 94.5l2 18q23 129 -96 129h-63l14 70h61q66 0 95 29.5t40 93.5l3 16q11 55 -14 86t-87 31q-101 0 -125 -107l-12 -71h-78q2 6 4 20l8 57q14 79 66 122.5t141 43.5q95 0 141 -49.5
t29 -132.5l-2 -12q-17 -135 -119 -164q95 -34 72 -166l-4 -18q-18 -95 -68 -142t-149 -47z" />
    <glyph glyph-name="four.inf" horiz-adv-x="530" 
d="M274 -160l-28 -162h-68l29 162h-287l10 60l369 491h72l-86 -485h88l-13 -66h-86zM10 -94h207l57 332l13 43l-13 -23z" />
    <glyph glyph-name="five.inf" horiz-adv-x="548" 
d="M129 -332q-104 0 -146 54.5t-24 148.5l8 35h78l-8 -39q-8 -64 14 -96.5t86 -32.5q121 0 142 127q2 8 4 24l14 80q12 66 -10 97.5t-80 31.5q-50 0 -79.5 -19t-59.5 -61q-13 -18 -15 -18l-59 18l102 373h320v-4q-6 -37 -24.5 -52.5t-63.5 -15.5h-183l-65 -233q62 78 149 78
q81 0 121 -51t23 -140l-4 -30l-17 -78q-17 -99 -71.5 -148t-151.5 -49z" />
    <glyph glyph-name="six.inf" horiz-adv-x="561" 
d="M358 -139q-29 -193 -223 -193q-106 0 -148.5 62t-23.5 172l47 266q21 119 75.5 175t154.5 56q91 0 138 -50.5t30 -135.5l-7 -33h-75l4 37q20 117 -99 117q-67 0 -98 -38t-49 -128l-27 -148q54 97 160 97q85 0 126 -52.5t24 -144.5zM141 -262q68 0 101.5 33t44.5 100l8 55
q21 129 -102 129q-108 0 -150 -116l-8 -48q-27 -153 106 -153z" />
    <glyph glyph-name="seven.inf" horiz-adv-x="462" 
d="M-35 -322q45 134 94 234q93 193 234 405h-291l12 74h369l-10 -61q-100 -145 -186.5 -315t-139.5 -337h-82z" />
    <glyph glyph-name="eight.inf" horiz-adv-x="550" 
d="M121 -332q-104 0 -148.5 51.5t-25.5 147.5l6 33q19 120 133 149q-86 39 -66 152l5 26q27 172 208 172q97 0 143.5 -47t29.5 -135l-5 -29q-24 -122 -127 -145q46 -20 70 -62.5t14 -103.5l-6 -37q-17 -91 -72.5 -131.5t-158.5 -40.5zM199 76q109 0 129 114l4 21
q10 64 -15 94.5t-90 30.5q-58 0 -88 -28.5t-41 -86.5l-4 -26q-17 -119 86 -119h19zM133 -262q66 0 101 26t45 86l6 35q10 60 -18 94.5t-85 34.5h-18q-114 0 -137 -116l-7 -35q-21 -125 113 -125z" />
    <glyph glyph-name="nine.inf" horiz-adv-x="555" 
d="M129 -334q-92 0 -136.5 49t-31.5 135l6 39h78l-6 -41q-10 -58 14 -86t84 -28q69 0 101.5 38.5t46.5 125.5l26 151q-54 -96 -159 -96q-83 0 -123 51.5t-27 142.5l10 60q14 89 68 140.5t147 51.5q104 0 151.5 -61.5t27.5 -179.5l-48 -260q-21 -120 -74 -176t-155 -56z
M176 14q58 0 97 31.5t53 81.5l8 41q27 164 -111 164q-118 0 -141 -137l-8 -54q-15 -127 102 -127z" />
    <glyph glyph-name="underscore" horiz-adv-x="874" 
d="M-10 94h729l-17 -94h-729z" />
    <glyph glyph-name="backslash.cap" horiz-adv-x="583" 
d="M229 1450h101l78 -1450h-101z" />
    <glyph glyph-name="periodcentered.cap" horiz-adv-x="497" 
d="M262 618q-82 0 -67 99q15 96 100 96t65 -100q-7 -50 -31 -72.5t-67 -22.5z" />
    <glyph glyph-name="bullet.cap" horiz-adv-x="532" 
d="M274 608q-57 0 -80.5 26t-13.5 85q19 110 129 110q114 0 92 -112q-7 -58 -39 -83.5t-88 -25.5z" />
    <glyph glyph-name="uni2016.cap" horiz-adv-x="761" 
d="M348 1651h98l-331 -1891h-99zM694 1651h99l-332 -1891h-99z" />
    <glyph glyph-name="exclamdown.cap" horiz-adv-x="526" 
d="M379 1264q-89 0 -68 102q10 51 33 71.5t66 20.5t59.5 -24t9.5 -76q-7 -50 -31.5 -72t-68.5 -22zM150 256q1 8 38 213q14 67 28.5 143.5t31 162.5t24.5 128q46 220 52 238q12 -4 34 -4q19 0 35 4q0 -6 -10 -78q-5 -32 -24 -157.5t-33 -211.5q-60 -364 -74 -438l-45 -266
h-103z" />
    <glyph glyph-name="uni2E18.cap" horiz-adv-x="1017" 
d="M672 1464q44 0 60.5 -22.5t6.5 -75.5q-15 -94 -98 -94t-68 96q10 53 33.5 74.5t65.5 21.5zM426 -18q-123 0 -197 45q-149 92 -120 295l12 75q14 91 53 154q23 38 55.5 74.5t57.5 57.5t65 52q46 35 70.5 56.5t57.5 59t52 83t29 102.5l21 115q6 -2 39 -2q32 0 36 4
q0 -1 -3.5 -34t-8.5 -66l-59 -355q-15 -80 -41.5 -229.5t-36.5 -206.5l-35 -194q115 10 177 74t83 186l35 192h96l-37 -203q-55 -335 -401 -335zM203 309q-31 -217 180 -241l35 194q13 70 112 569q-16 -32 -39 -61t-38.5 -44.5t-44.5 -41.5q-52 -48 -80 -72q-43 -41 -70 -88
t-39 -123z" />
    <glyph glyph-name="questiondown.cap" horiz-adv-x="999" 
d="M672 1466q86 0 65 -98q-15 -96 -96 -96q-83 0 -68 98q10 53 33.5 74.5t65.5 21.5zM573 1155q18 -6 48 -6q43 0 49 6q0 -17 -11 -72l-14 -69q-15 -97 -53 -160q-33 -56 -75 -95.5t-103 -82.5q-38 -28 -52 -39t-44.5 -38.5t-44.5 -50t-30 -58.5t-24 -78l-16 -95
q-9 -60 6 -118q39 -125 215 -125q128 0 198 65t91 191l32 188h103l-37 -201q-55 -331 -395 -331q-127 0 -197 47q-72 46 -100.5 123t-14.5 172l17 94q16 92 49 149q22 36 54 70t53 50.5t65 49.5q46 34 88 68q98 83 121 221z" />
    <glyph glyph-name="slash.cap" horiz-adv-x="583" 
d="M565 1450h101l-590 -1450h-101z" />
    <glyph glyph-name="uni3008.cap" horiz-adv-x="626" 
d="M307 -252l-170 948l504 953h107l-510 -963l170 -938h-101z" />
    <glyph glyph-name="uni3009.cap" horiz-adv-x="626" 
d="M-74 -252l504 954l-172 947h102l172 -957l-497 -944h-109z" />
    <glyph glyph-name="braceleft.cap" horiz-adv-x="630" 
d="M305 -238q-104 0 -153 37q-91 68 -64 238q17 89 92 254q76 164 88 233q17 89 -12.5 128.5t-103.5 39.5h-66l16 96h64q143 0 170 152q9 48 6 141q-1 11 -3.5 47.5t-3.5 51.5t-3 47t-2 50.5t0.5 44.5t2.5 47.5t5 41.5q22 124 90.5 188t216.5 64h100l-14 -84h-72
q-109 0 -158 -42t-67 -134q-10 -51 -6 -152q1 -9 4 -55t4 -60t3 -52t1 -57.5t-2.5 -46.5t-5.5 -48q-27 -179 -184 -191q72 -8 104 -64t15 -145q-9 -57 -91 -249q-79 -186 -90 -256q-15 -91 20 -136t144 -45h74l-14 -84h-105z" />
    <glyph glyph-name="braceright.cap" horiz-adv-x="630" 
d="M-57 -193l16 84h70q110 0 160.5 44t64.5 135q14 74 6 149q-1 16 -5 82.5t-5 93.5t0 71.5t6 74.5q37 190 205 190q-83 0 -118.5 55.5t-18.5 151.5q10 62 90 250q79 186 90 256q18 90 -18 135t-146 45h-76l15 86h106q106 0 154 -39q93 -65 63 -237q-17 -92 -92 -252
q-76 -168 -88 -236q-32 -168 117 -168h65l-18 -94h-64q-144 0 -168 -152q-9 -48 -6 -143q0 -6 3.5 -46.5t4 -52t2.5 -46t1.5 -51t-1 -44t-2.5 -49t-6 -41.5q-22 -122 -91 -187t-214 -65h-102z" />
    <glyph glyph-name="bracketleft.cap" horiz-adv-x="618" 
d="M397 -238h-368l333 1899h369l-16 -88h-269l-303 -1723h269z" />
    <glyph glyph-name="bracketright.cap" horiz-adv-x="618" 
d="M-63 -238l14 88h272l303 1721h-272l16 90h367l-334 -1899h-366z" />
    <glyph glyph-name="parenleft.cap" horiz-adv-x="645" 
d="M426 -242q-412 44 -303 645l113 635q54 313 186 463t340 162l-17 -92q-156 -14 -258.5 -144t-150.5 -399l-113 -633q-46 -270 11.5 -398t209.5 -142z" />
    <glyph glyph-name="parenright.cap" horiz-adv-x="645" 
d="M-49 -147q156 14 258.5 143.5t150.5 398.5l111 633q48 269 -9.5 398t-209.5 143l18 96q410 -44 301 -645l-110 -635q-57 -314 -188.5 -463.5t-338.5 -161.5z" />
    <glyph glyph-name="parenleft.inf" horiz-adv-x="382" 
d="M166 -494q-123 18 -171 103t-18 256l62 358q30 167 106 244.5t205 85.5l-12 -74q-92 -6 -147.5 -71.5t-79.5 -204.5l-64 -350q-23 -134 9 -193.5t124 -77.5z" />
    <glyph glyph-name="parenright.inf" horiz-adv-x="382" 
d="M-141 -420q91 6 146.5 71.5t78.5 203.5l63 350q22 135 -9.5 194.5t-121.5 77.5l13 76q124 -19 172 -104t18 -254l-63 -361q-28 -166 -105.5 -244t-204.5 -86z" />
    <glyph glyph-name="emdash.cap" horiz-adv-x="993" 
d="M152 766h759l-18 -98h-758z" />
    <glyph glyph-name="endash.cap" horiz-adv-x="733" 
d="M152 766h499l-18 -98h-498z" />
    <glyph glyph-name="figuredash.cap" horiz-adv-x="1130" 
d="M152 766h895l-17 -98h-895z" />
    <glyph glyph-name="uni2015.cap" horiz-adv-x="1050" 
d="M152 766h817l-19 -98h-815z" />
    <glyph glyph-name="hyphen.cap" horiz-adv-x="864" 
d="M152 766h632l-16 -98h-633z" />
    <glyph glyph-name="guillemotleft.cap" horiz-adv-x="970" 
d="M356 324l-206 387l2 14l335 395h103l-348 -405l215 -391h-101zM715 324l-215 381l2 16l340 399h104l-352 -411l219 -385h-98z" />
    <glyph glyph-name="guillemotright.cap" horiz-adv-x="970" 
d="M70 324l362 403l-207 393h97l202 -393l-2 -14l-346 -389h-106zM430 324l352 397l-207 399h97l202 -399l-2 -14l-335 -383h-107z" />
    <glyph glyph-name="guilsinglleft.cap" horiz-adv-x="620" 
d="M356 324l-211 381l2 16l338 399h107l-354 -411l217 -385h-99z" />
    <glyph glyph-name="guilsinglright.cap" horiz-adv-x="620" 
d="M70 324l360 401l-205 395h97l200 -395l-2 -16l-342 -385h-108z" />
    <glyph glyph-name="periodcentered.smcp" horiz-adv-x="1511" 
d="M152 766h1278l-19 -98h-1276z" />
    <glyph glyph-name="space_dotbelowcomb" horiz-adv-x="808" 
d="M229 -336q-42 0 -58 21.5t-9 72.5q15 97 98 97q81 0 66 -101q-7 -48 -31 -69t-66 -21z" />
    <glyph glyph-name="uni00200326" horiz-adv-x="808" 
d="M135 -412q92 45 117 146q-8 -6 -25 -6q-30 0 -43 15.5t-6 59.5q15 86 92 86q42 0 56 -28t2 -92q-13 -83 -62 -143.5t-123 -90.5z" />
    <glyph glyph-name="uni00200326.alt" horiz-adv-x="808" 
d="M530 1309q-80 0 -57 121q27 167 186 233l7 -53q-93 -44 -119 -148q8 6 26 6q32 0 44.5 -14.5t5.5 -58.5q-15 -86 -93 -86z" />
    <glyph glyph-name="plus.inf" horiz-adv-x="548" 
d="M205 2l-27 -149h-67l26 149h-147l10 66h147l27 145h68l-27 -145h152l-13 -66h-149z" />
    <glyph glyph-name="minus.inf" horiz-adv-x="548" 
d="M2 70h363l-13 -70h-362z" />
    <glyph glyph-name="equal.inf" horiz-adv-x="548" 
d="M23 158h350l-11 -68h-350zM-10 -39h350l-12 -67h-351z" />
    <glyph glyph-name="at.cap" horiz-adv-x="1366" 
d="M664 -115q-167 0 -295 64q-265 139 -197 534l84 471q52 287 217.5 440.5t417.5 153.5q177 0 299 -73q122 -74 172.5 -202t21.5 -292l-79 -453q-26 -159 -89.5 -236t-171.5 -77q-70 0 -110.5 34t-48.5 95q-64 -141 -213 -141q-241 0 -189 303l76 424q29 158 93.5 231.5
t174.5 73.5q161 0 183 -154l37 144h59q-17 -80 -35 -199q-12 -61 -34 -189.5t-33 -183.5q-25 -165 -37 -215q-24 -147 88 -147q65 0 104.5 59t63.5 187l77 446q23 141 -14 252q-39 111 -140.5 171t-260.5 60q-218 0 -359.5 -132t-185.5 -384q0 -2 -10 -57q-2 -15 -45 -250
l-27 -156q-43 -260 66 -389t346 -129q119 0 203 35.5t151 110.5l86 -33q-170 -197 -446 -197zM694 279q157 0 203 229l70 405q46 244 -133 244q-78 0 -124.5 -57t-66.5 -180l-74 -414q-20 -119 10.5 -173t114.5 -54z" />
    <glyph glyph-name="registered.cap" horiz-adv-x="1331" 
d="M606 -20q-161 0 -287 63q-128 67 -184 198.5t-22 325.5l59 338q51 284 210 422.5t404 138.5q153 0 277 -65q129 -71 187 -202.5t24 -319.5l-62 -347q-50 -288 -200.5 -420t-405.5 -132zM614 59q222 0 348.5 114.5t170.5 361.5l63 358q26 163 -22 272q-50 109 -154 166.5
t-240 57.5q-214 0 -350 -119.5t-178 -366.5l-62 -350q-27 -169 21 -277q48 -107 154 -162t249 -55zM547 659l-68 -385h-80l158 904h223q242 0 203 -222l-14 -79q-25 -144 -146 -179q53 -13 67 -55.5t-1 -126.5l-33 -184q-3 -40 10 -58h-86q-13 17 -4 58l17 92l14 88
q18 86 -5 116.5t-112 30.5h-143zM702 733q85 -2 129.5 33.5t57.5 114.5l14 73q12 79 -17 114.5t-118 35.5h-143l-66 -371h143z" />
    <glyph glyph-name="bar.cap" horiz-adv-x="415" 
d="M348 1651h98l-331 -1891h-99z" />
    <glyph glyph-name="brokenbar.cap" horiz-adv-x="415" 
d="M348 1651h98l-145 -822h-98zM168 623h98l-151 -863h-99z" />
    <glyph glyph-name="Aumlaut" 
d="M330 1290q-73 0 -58 86q15 80 88 80q79 0 58 -86q-7 -43 -28.5 -61.5t-59.5 -18.5zM860 1290q-73 0 -61 86q15 80 88 80q78 0 57 -86q-7 -43 -27.5 -61.5t-56.5 -18.5zM670 356h-461l-148 -356h-102l616 1450h99l121 -1450h-99zM248 451h416l-62 806l4 82l-22 -82z" />
    <glyph glyph-name="Oumlaut" horiz-adv-x="1052" 
d="M461 -20q-151 0 -236 61q-166 124 -114 428l96 543q43 240 151.5 347t292.5 107q198 0 293.5 -123t59.5 -344l-105 -575q-40 -227 -141.5 -335.5t-296.5 -108.5zM276 1362q-49 0 -40 51q9 53 61 53q51 0 39 -53q-3 -51 -60 -51zM1022 1362q-52 0 -43 51q9 53 61 53
q49 0 37 -53q-3 -51 -55 -51zM471 74q144 0 219.5 84t108.5 270l104 580q31 179 -34.5 273.5t-225.5 94.5q-138 0 -218 -86t-116 -286l-98 -543q-33 -192 28.5 -289.5t231.5 -97.5z" />
    <glyph glyph-name="Uumlaut" horiz-adv-x="1017" 
d="M522 1288q-27 0 -37.5 19t-3.5 65q15 86 74 86q58 0 43 -86q-14 -84 -76 -84zM735 1288q-30 0 -40 19t-3 65q15 86 76 86q56 0 41 -86q-14 -84 -74 -84zM412 -20q-194 0 -263 112t-30 340l180 1018h100l-180 -1026q-32 -188 17 -270t188 -82q135 0 212 81t109 265
l183 1032h100l-182 -1034q-39 -222 -143 -329t-291 -107z" />
    <glyph glyph-name="cordinal" horiz-adv-x="708" 
d="M391 623q-150 0 -205.5 85.5t-29.5 233.5l49 281q23 122 98.5 188t190.5 66q138 0 200 -81.5t37 -221.5l-6 -33h-94l8 43q20 107 -16 159t-131 52q-164 0 -201 -183l-47 -276q-20 -106 16.5 -167.5t134.5 -61.5q158 0 193 182l12 57h94l-12 -67q-48 -256 -291 -256z" />
    <glyph glyph-name="caronSlovak" horiz-adv-x="804" 
d="M594 1599h94l-153 -292h-70z" />
    <glyph glyph-name="altcedilla" horiz-adv-x="804" 
d="M246 -395q-113 0 -163 42.5t-48 129.5h90q-3 -101 123 -101q128 0 143 82q8 51 -20 74t-101 23h-45l13 69h55q102 0 148 -44t32 -128q-21 -147 -227 -147z" />
    <glyph glyph-name="doublegrave" horiz-adv-x="804" 
d="M305 1589h113l125 -278h-80zM535 1589h110l111 -278h-78z" />
    <glyph glyph-name="invertedbreve" horiz-adv-x="804" 
d="M274 1311q30 137 100.5 203.5t196.5 66.5t179.5 -69.5t35.5 -200.5h-77q12 103 -21.5 149t-122.5 47q-89 -1 -137.5 -47t-73.5 -149h-80z" />
    <glyph glyph-name="onethirdemdash" horiz-adv-x="733" 
d="M133 668h500l-17 -97h-499z" />
    <glyph glyph-name="threequarteremdash" horiz-adv-x="993" 
d="M133 668h760l-16 -97h-760z" />
    <glyph glyph-name="onethirdemdash.cap" horiz-adv-x="864" 
d="M152 766h632l-16 -98h-633z" />
    <glyph glyph-name="threequarteremdash.cap" horiz-adv-x="856" 
d="M152 766h622l-18 -98h-621z" />
    <glyph glyph-name="onesixteenth" horiz-adv-x="1579" 
d="M684 838l471 651l86 -62l-524 -612zM158 739l10 72h117l90 504q-38 -38 -105 -41l13 65q52 1 79.5 28t45.5 85h61l-113 -641h113l-10 -72h-301zM1419 180q-29 -192 -223 -192q-106 0 -148.5 61.5t-23.5 171.5l47 266q21 119 75 175.5t154 56.5q91 0 138 -51t30 -136
l-6 -32h-76l5 37q10 60 -14.5 88t-84.5 28q-67 0 -98 -38t-49 -128l-27 -147q54 96 160 96q85 0 125.5 -52t23.5 -144zM598 0l12 72h117l88 503q-37 -37 -104 -40l12 65q52 1 79.5 28t45.5 85h63l-112 -641h112l-12 -72h-301zM6 37l543 637l31 -25l-486 -680zM1202 57
q68 0 101.5 33t44.5 100l8 56q21 129 -103 129q-106 0 -149 -117l-8 -47q-27 -154 106 -154z" />
    <glyph glyph-name="threesixteenths" horiz-adv-x="1579" 
d="M684 838l471 651l86 -62l-524 -612zM322 729q-103 0 -151.5 51t-31.5 140l15 73h79l-14 -78q-21 -116 109 -116q63 0 93 28.5t42 94.5l2 18q23 129 -96 129h-64l14 70h62q66 0 95 29.5t40 93.5l2 16q11 55 -13.5 86t-86.5 31q-101 0 -125 -107l-12 -71h-78q2 6 4 20l8 57
q14 79 66 122.5t141 43.5q95 0 141 -49.5t29 -132.5l-2 -12q-17 -135 -119 -164q95 -34 72 -166l-4 -18q-18 -95 -68 -142t-149 -47zM1419 180q-29 -192 -223 -192q-106 0 -148.5 61.5t-23.5 171.5l47 266q21 119 75 175.5t154 56.5q91 0 138 -51t30 -136l-6 -32h-76l5 37
q10 60 -14.5 88t-84.5 28q-67 0 -98 -38t-49 -128l-27 -147q54 96 160 96q85 0 125.5 -52t23.5 -144zM598 0l12 72h117l88 503q-37 -37 -104 -40l12 65q52 1 79.5 28t45.5 85h63l-112 -641h112l-12 -72h-301zM6 37l543 637l31 -25l-486 -680zM1202 57q68 0 101.5 33
t44.5 100l8 56q21 129 -103 129q-106 0 -149 -117l-8 -47q-27 -154 106 -154z" />
    <glyph glyph-name="fivesixteenths" horiz-adv-x="1579" 
d="M684 838l471 651l86 -62l-524 -612zM328 729q-104 0 -146 54.5t-24 148.5l8 35h78l-8 -39q-8 -64 14 -96.5t86 -32.5q120 0 141 127q2 8 4 24l15 80q12 66 -10 97.5t-80 31.5q-50 0 -80.5 -19.5t-59.5 -60.5q-12 -18 -14 -18l-59 18l102 373h319v-4q-6 -37 -24.5 -52.5
t-63.5 -15.5h-182l-65 -233q62 78 149 78q81 0 120.5 -51t22.5 -140l-4 -30l-16 -78q-17 -99 -71.5 -148t-151.5 -49zM1419 180q-29 -192 -223 -192q-106 0 -148.5 61.5t-23.5 171.5l47 266q21 119 75 175.5t154 56.5q91 0 138 -51t30 -136l-6 -32h-76l5 37q10 60 -14.5 88
t-84.5 28q-67 0 -98 -38t-49 -128l-27 -147q54 96 160 96q85 0 125.5 -52t23.5 -144zM598 0l12 72h117l88 503q-37 -37 -104 -40l12 65q52 1 79.5 28t45.5 85h63l-112 -641h112l-12 -72h-301zM6 37l543 637l31 -25l-486 -680zM1202 57q68 0 101.5 33t44.5 100l8 56
q21 129 -103 129q-106 0 -149 -117l-8 -47q-27 -154 106 -154z" />
    <glyph glyph-name="sevensixteenths" horiz-adv-x="1579" 
d="M684 838l471 651l86 -62l-524 -612zM274 739q43 127 95 234q96 199 233 405h-291l13 74h368l-10 -61q-100 -145 -186.5 -315t-139.5 -337h-82zM1419 180q-29 -192 -223 -192q-106 0 -148.5 61.5t-23.5 171.5l47 266q21 119 75 175.5t154 56.5q91 0 138 -51t30 -136
l-6 -32h-76l5 37q10 60 -14.5 88t-84.5 28q-67 0 -98 -38t-49 -128l-27 -147q54 96 160 96q85 0 125.5 -52t23.5 -144zM598 0l12 72h117l88 503q-37 -37 -104 -40l12 65q52 1 79.5 28t45.5 85h63l-112 -641h112l-12 -72h-301zM6 37l543 637l31 -25l-486 -680zM1202 57
q68 0 101.5 33t44.5 100l8 56q21 129 -103 129q-106 0 -149 -117l-8 -47q-27 -154 106 -154z" />
    <glyph glyph-name="ninesixteenths" horiz-adv-x="1579" 
d="M684 838l471 651l86 -62l-524 -612zM334 727q-92 0 -136.5 49t-31.5 135l6 39h78l-6 -41q-10 -58 14 -86t84 -28q69 0 101 38t46 125l27 152q-54 -96 -160 -96q-83 0 -123 51.5t-26 142.5l10 60q14 89 68 140.5t147 51.5q104 0 151 -61.5t27 -179.5l-47 -261
q-21 -120 -74 -175.5t-155 -55.5zM381 1075q57 0 96 31.5t53 81.5l9 41q27 164 -111 164q-117 0 -141 -138l-8 -53q-15 -127 102 -127zM1419 180q-29 -192 -223 -192q-106 0 -148.5 61.5t-23.5 171.5l47 266q21 119 75 175.5t154 56.5q91 0 138 -51t30 -136l-6 -32h-76l5 37
q10 60 -14.5 88t-84.5 28q-67 0 -98 -38t-49 -128l-27 -147q54 96 160 96q85 0 125.5 -52t23.5 -144zM598 0l12 72h117l88 503q-37 -37 -104 -40l12 65q52 1 79.5 28t45.5 85h63l-112 -641h112l-12 -72h-301zM6 37l543 637l31 -25l-486 -680zM1202 57q68 0 101.5 33
t44.5 100l8 56q21 129 -103 129q-106 0 -149 -117l-8 -47q-27 -154 106 -154z" />
    <glyph glyph-name="elevensixteenths" horiz-adv-x="1964" 
d="M1073 838l471 651l86 -62l-524 -612zM156 739l10 72h117l90 504q-38 -38 -105 -41l13 65q52 1 79.5 28t45.5 85h61l-113 -641h113l-10 -72h-301zM545 739l10 72h117l90 504q-38 -38 -105 -41l13 65q52 1 79.5 28t45.5 85h61l-113 -641h113l-10 -72h-301zM1806 180
q-29 -192 -223 -192q-106 0 -148.5 61.5t-23.5 171.5l47 266q21 119 75.5 175.5t154.5 56.5q90 0 137 -51t30 -136l-6 -32h-75l4 37q10 60 -14.5 88t-84.5 28q-67 0 -98 -38t-49 -128l-27 -147q54 96 160 96q86 0 126.5 -52.5t23.5 -143.5zM985 0l12 72h117l88 503
q-37 -37 -104 -40l12 65q52 1 79.5 28t45.5 85h63l-112 -641h112l-12 -72h-301zM395 37l543 637l31 -25l-486 -680zM1589 57q68 0 101.5 33t44.5 100l8 56q21 129 -103 129q-106 0 -149 -117l-8 -47q-27 -154 106 -154z" />
    <glyph glyph-name="thirteensixteenths" horiz-adv-x="2025" 
d="M1133 838l471 651l86 -62l-525 -612zM766 729q-102 0 -149 50.5t-33 140.5l14 73h80l-14 -78q-21 -116 108 -116q63 0 93 28.5t42 94.5l2 18q23 129 -96 129h-63l14 70h61q67 0 96 30t40 93l2 16q11 55 -14 86t-87 31q-101 0 -125 -107l-12 -71h-78q2 6 4 20l8 57
q14 79 66 122.5t141 43.5q95 0 141 -49.5t29 -132.5l-2 -12q-17 -135 -119 -164q95 -34 72 -166l-4 -18q-18 -95 -68 -142t-149 -47zM160 739l10 72h117l88 502q-39 -36 -103 -39l11 65q52 1 79.5 28t45.5 85h63l-113 -641h113l-10 -72h-301zM1866 180q-29 -192 -224 -192
q-106 0 -148.5 61.5t-23.5 171.5l48 266q21 119 75 175.5t154 56.5q91 0 138 -51t30 -136l-6 -32h-76l4 37q10 60 -14 88t-84 28q-67 0 -98.5 -38t-49.5 -128l-26 -147q54 96 159 96q86 0 126.5 -52.5t23.5 -143.5zM1047 0l12 72h117l88 503q-36 -36 -105 -40l12 65
q52 1 79.5 28t45.5 85h64l-113 -641h113l-12 -72h-301zM455 37l542 637l31 -25l-485 -680zM1649 57q68 0 101 32.5t44 100.5l8 56q21 129 -102 129q-107 0 -150 -117l-8 -47q-27 -154 107 -154z" />
    <glyph glyph-name="fifteensixteenths" horiz-adv-x="2025" 
d="M1133 838l471 651l86 -62l-525 -612zM160 739l10 72h117l88 502q-39 -36 -103 -39l11 65q52 1 79.5 28t45.5 85h63l-113 -641h113l-10 -72h-301zM760 729q-103 0 -143.5 54t-26.5 149l8 35h78l-8 -39q-8 -64 14 -96.5t86 -32.5q120 0 141 127q2 8 4 24q15 66 15 80
q12 66 -10 97.5t-80 31.5q-50 0 -80.5 -19.5t-59.5 -60.5q-12 -18 -14 -18l-59 18l102 373h320v-4q-6 -37 -25 -52.5t-64 -15.5h-182l-65 -233q62 78 149 78q81 0 121 -51t23 -140l-5 -30l-16 -78q-17 -99 -71.5 -148t-151.5 -49zM1866 180q-29 -192 -224 -192
q-106 0 -148.5 61.5t-23.5 171.5l48 266q21 119 75 175.5t154 56.5q91 0 138 -51t30 -136l-6 -32h-76l4 37q10 60 -14 88t-84 28q-67 0 -98.5 -38t-49.5 -128l-26 -147q54 96 159 96q86 0 126.5 -52.5t23.5 -143.5zM1047 0l12 72h117l88 503q-36 -36 -105 -40l12 65
q52 1 79.5 28t45.5 85h64l-113 -641h113l-12 -72h-301zM455 37l542 637l31 -25l-485 -680zM1649 57q68 0 101 32.5t44 100.5l8 56q21 129 -102 129q-107 0 -150 -117l-8 -47q-27 -154 107 -154z" />
    <glyph glyph-name="mediumblackcircle" horiz-adv-x="1560" 
d="M782 -20q-173 0 -309 77q-137 80 -214 216.5t-77 304.5q0 176 80 307q80 136 216.5 213.5t303.5 77.5t305 -78q138 -80 215.5 -214t77.5 -306t-77 -308q-80 -136 -216 -213t-305 -77z" />
    <glyph glyph-name="ballotboxwithx" horiz-adv-x="1562" 
d="M207 1153h1153v-1153h-1153v1153zM1231 123v907h-895v-907h895zM791 500l-216 -219l-69 73l213 217l-213 213l69 72l213 -213l211 215l68 -76l-207 -211l213 -213l-72 -71z" />
    <glyph glyph-name="ttfautohint" horiz-adv-x="651" 
 />
    </font>
</defs>
</svg>
