<?xml version="1.0" standalone="no"?>
<!DOCTYPE svg PUBLIC "-//W3C//DTD SVG 1.1//EN" "http://www.w3.org/Graphics/SVG/1.1/DTD/svg11.dtd" >
<svg xmlns="http://www.w3.org/2000/svg" xmlns:xlink="http://www.w3.org/1999/xlink" version="1.1">
<metadata>
Created by FontForge 20201107 at Thu Aug 14 22:37:27 2025
 By 
C 2016 Sharp Type Corporation
</metadata>
<defs>
<font id="SharpGrotesk-Book15" horiz-adv-x="837" >
  <font-face 
    font-family="Sharp Grotesk Book 15"
    font-weight="400"
    font-stretch="semi-condensed"
    units-per-em="2048"
    panose-1="0 0 5 6 0 0 0 0 0 0"
    ascent="1638"
    descent="-410"
    x-height="1171"
    cap-height="1456"
    bbox="-88 -526 2222 2161"
    underline-thickness="102"
    underline-position="-153"
    unicode-range="U+0020-3009"
  />
<missing-glyph horiz-adv-x="122" 
 />
    <glyph glyph-name=".notdef" horiz-adv-x="122" 
 />
    <glyph glyph-name=".null" horiz-adv-x="0" 
 />
    <glyph glyph-name="nonmarkingreturn" horiz-adv-x="682" 
 />
    <glyph glyph-name="space" unicode=" " horiz-adv-x="450" 
 />
    <glyph glyph-name="exclam" unicode="!" horiz-adv-x="524" 
d="M336 1456v-307q0 -129 -2 -201q-1 -77 -5 -214t-5 -189q-10 -189 -13 -217q-30 6 -51 6q-23 0 -53 -6l-2 24q-2 24 -2 47q-1 12 -15 338q-1 47 -2.5 133t-2.5 154.5t-1 124.5v307h154zM258 -16q-58 0 -81 26t-23 94q0 66 24.5 92.5t79.5 26.5q57 0 82 -26.5t25 -92.5
q0 -65 -26 -92.5t-81 -27.5z" />
    <glyph glyph-name="quotedbl" unicode="&#x22;" horiz-adv-x="593" 
d="M127 977q0 5 -4.5 41t-5.5 61q-13 146 -13 299v78h132v-78q0 -24 -5 -151q-11 -199 -20 -250h-84zM381 977q0 5 -4.5 41t-5.5 61q-13 146 -13 299v78h134v-78q0 -24 -5 -151q-10 -181 -22 -250h-84z" />
    <glyph glyph-name="numbersign" unicode="#" horiz-adv-x="1341" 
d="M768 455h-281l-63 -455h-139l63 455h-264v125h281l49 342h-273v125h289l57 409h140l-58 -409h281l57 409h137l-57 -409h270v-125h-286l-47 -342h278v-125h-295l-63 -455h-139zM834 922h-281l-49 -342h280z" />
    <glyph glyph-name="dollar" unicode="$" horiz-adv-x="940" 
d="M410 -242v226q-171 13 -250.5 106t-79.5 264v168h151v-166q0 -241 248 -241q116 0 173 61t57 162v63q0 85 -41 138q-26 34 -69.5 64.5t-78.5 47.5t-98 45q-95 46 -152 78q-168 101 -168 299v51q0 144 81 237.5t235 106.5v232h137v-236q137 -20 205.5 -105t68.5 -222v-146
h-145v137q0 218 -219 218q-105 0 -161 -61.5t-56 -162.5v-43q0 -78 41 -131q37 -44 93.5 -77t147.5 -74q122 -60 154 -80q170 -102 170 -305v-74q0 -142 -79 -237t-226 -115v-228h-139z" />
    <glyph glyph-name="percent" unicode="%" horiz-adv-x="1220" 
d="M311 848q-107 0 -165 60.5t-58 170.5v162q0 109 61 169t164 60q105 0 165.5 -60.5t60.5 -168.5v-162q0 -108 -60 -169.5t-168 -61.5zM950 1456h150l-828 -1456h-153zM311 950q117 0 117 135v154q0 65 -30 99t-85 34t-85.5 -34t-30.5 -99v-154q0 -135 114 -135zM905 -20
q-108 0 -166.5 60t-58.5 171v162q0 109 61.5 172t163.5 63q103 0 164 -63.5t61 -171.5v-162q0 -108 -59 -169.5t-166 -61.5zM905 84q59 0 88 35t29 98v154q0 133 -117 133q-114 0 -114 -133v-154q0 -133 114 -133z" />
    <glyph glyph-name="ampersand" unicode="&#x26;" horiz-adv-x="1212" 
d="M1034 -14q-111 0 -233 92q-149 -98 -322 -98q-192 0 -300.5 90.5t-108.5 267.5v16q0 98 39 178q36 71 98 132.5t155 126.5q-69 207 -69 358v12q0 146 74 229t206 83q128 0 200.5 -69t72.5 -194v-16q0 -93 -43.5 -175.5t-111 -145.5t-173.5 -134q47 -111 98 -204
q87 -165 189 -281q89 102 133.5 257.5t44.5 342.5v98h131v-98q0 -210 -54 -387.5t-161 -298.5q80 -55 141 -55q41 0 67.5 10t51.5 35v-135q-37 -37 -125 -37zM422 1153q0 -133 51 -297q126 87 186 163t60 181v10q0 71 -37.5 109.5t-108.5 38.5q-72 0 -111.5 -50.5
t-39.5 -142.5v-12zM479 106q128 0 228 62q-103 121 -205 309q-59 111 -94 197q-99 -75 -147 -145.5t-48 -170.5v-8q0 -116 70 -180t196 -64z" />
    <glyph glyph-name="quotesingle" unicode="'" horiz-adv-x="339" 
d="M127 977q0 6 -4.5 40.5t-5.5 59.5q-13 146 -13 297v82h132v-82q0 -24 -5 -151q-11 -194 -20 -246h-84z" />
    <glyph glyph-name="parenleft" unicode="(" horiz-adv-x="649" 
d="M135 893q0 596 443 625v-140q-145 -14 -218 -129t-73 -358v-621q0 -467 291 -483v-141q-220 12 -331.5 159.5t-111.5 458.5v629z" />
    <glyph glyph-name="parenright" unicode=")" horiz-adv-x="649" 
d="M72 -213q143 8 216.5 124t73.5 359v621q0 243 -73 358t-217 127v142q442 -29 442 -625v-629q0 -311 -111 -458.5t-331 -159.5v141z" />
    <glyph glyph-name="asterisk" unicode="*" horiz-adv-x="720" 
d="M377 1208l47 -252h-125l49 254l-194 -168l-62 105l244 84l-244 84l62 106l194 -164l-49 250h125l-49 -252l192 168l62 -106l-244 -84l244 -86l-60 -107z" />
    <glyph glyph-name="plus" unicode="+" horiz-adv-x="909" 
d="M518 655v-254h-129v254h-256v129h256v254h129v-254h260v-129h-260z" />
    <glyph glyph-name="comma" unicode="," horiz-adv-x="499" 
d="M147 -160q100 38 115 154q-8 -6 -29 -6q-46 0 -66 23t-20 87q0 65 24.5 92t80.5 27q61 0 84.5 -34.5t23.5 -125.5q0 -241 -202 -299z" />
    <glyph glyph-name="hyphen" unicode="-" 
d="M733 545h-627v143h627v-143z" />
    <glyph glyph-name="period" unicode="." horiz-adv-x="499" 
d="M250 -16q-59 0 -82 26t-23 96q0 66 25 92.5t82 26.5q55 0 79.5 -27.5t24.5 -93.5q0 -65 -25.5 -92.5t-80.5 -27.5z" />
    <glyph glyph-name="slash" unicode="/" horiz-adv-x="602" 
d="M59 0l338 1456h148l-334 -1456h-152z" />
    <glyph glyph-name="zero" unicode="0" horiz-adv-x="1024" 
d="M510 -20q-195 0 -298 112.5t-103 339.5v582q0 221 105 338.5t298 117.5q191 0 296 -117t105 -339v-582q0 -226 -105 -339t-298 -113zM512 117q252 0 252 323v570q0 329 -254 329q-250 0 -250 -329v-570q0 -161 61 -242t191 -81z" />
    <glyph glyph-name="one" unicode="1" horiz-adv-x="694" 
d="M63 0v141h218v994h-170v112q95 6 136 51.5t60 157.5h115v-1315h219v-141h-578z" />
    <glyph glyph-name="two" unicode="2" horiz-adv-x="950" 
d="M94 0v123q0 137 51 233q31 63 82.5 125.5t93 100.5t109.5 94q67 53 135 115q70 63 106 127t36 143v51q0 114 -52 170.5t-170 56.5q-113 0 -171 -57.5t-58 -167.5v-199h-150v203q0 172 100 262t283 90q181 0 275 -92t94 -262v-51q0 -115 -45 -195q-27 -53 -75 -107
t-79 -82t-104 -89q-49 -41 -143 -127q-156 -149 -156 -324h608v-141h-770z" />
    <glyph glyph-name="three" unicode="3" horiz-adv-x="962" 
d="M475 -18q-200 0 -295.5 86t-95.5 266v182h149v-174q0 -225 242 -225q125 0 183.5 61.5t58.5 183.5v93q0 117 -58 174t-178 57h-114v125h114q111 0 165 61.5t54 167.5v82q0 106 -53.5 161.5t-169.5 55.5q-117 0 -175 -57.5t-58 -159.5v-147h-148v153q0 159 100 250.5
t281 91.5q189 0 281 -87.5t92 -249.5v-80q0 -246 -193 -301q112 -29 162.5 -105t50.5 -205v-90q0 -173 -95.5 -271.5t-299.5 -98.5z" />
    <glyph glyph-name="four" unicode="4" horiz-adv-x="956" 
d="M907 346h-184v-346h-137v346h-535v111l541 999h131v-981h184v-129zM557 1143l-352 -668h381v649l26 183z" />
    <glyph glyph-name="five" unicode="5" horiz-adv-x="970" 
d="M485 -20q-383 0 -383 368v144h154v-132q0 -126 54 -185.5t177 -59.5q236 0 236 266v264q0 116 -56 175t-161 59q-160 0 -238 -160q-16 -39 -18 -41l-139 41l73 737h654v-6q0 -59 -13 -88q-11 -28 -43 -36.5t-104 -8.5h-369q-2 -12 -16 -152q-4 -54 -10.5 -115t-13 -122.5
t-9.5 -87.5q48 84 114.5 130t176.5 42q159 4 240 -90.5t81 -268.5v-284q0 -191 -99 -290t-288 -99z" />
    <glyph glyph-name="six" unicode="6" horiz-adv-x="999" 
d="M911 422q0 -224 -106 -333t-301 -109q-395 0 -395 446v594q0 450 411 450q182 0 278.5 -95t96.5 -281v-47h-150v38q0 254 -229 254q-135 0 -198.5 -81.5t-63.5 -243.5v-322q37 90 115.5 143.5t193.5 53.5q166 0 257 -100t91 -287v-80zM506 117q256 0 256 313v66
q0 118 -60.5 190t-187.5 72q-113 0 -184 -70t-76 -180v-74q0 -160 61 -238.5t191 -78.5z" />
    <glyph glyph-name="seven" unicode="7" horiz-adv-x="845" 
d="M203 0q67 386 176 704t260 609h-586v143h740v-123q-160 -310 -267.5 -634t-160.5 -699h-162z" />
    <glyph glyph-name="eight" unicode="8" horiz-adv-x="974" 
d="M487 -20q-194 0 -296.5 93.5t-102.5 254.5v137q0 104 52 184.5t141 112.5q-82 30 -124 100.5t-42 173.5v94q0 155 98 247.5t276 92.5q181 0 280 -91.5t99 -248.5v-94q0 -98 -45.5 -170t-128.5 -104q91 -31 143 -109t52 -188v-137q0 -160 -105 -254t-297 -94zM508 823
q103 0 159 64t56 155v74q0 108 -58.5 165.5t-172.5 57.5q-113 0 -173.5 -58.5t-60.5 -166.5v-74q0 -90 54 -153.5t155 -63.5h41zM487 117q119 0 185.5 61t66.5 162v125q0 100 -60.5 165.5t-172.5 65.5h-41q-76 0 -125 -32q-102 -73 -102 -199v-125q0 -99 65.5 -161
t183.5 -62z" />
    <glyph glyph-name="nine" unicode="9" horiz-adv-x="997" 
d="M481 -20q-184 0 -281.5 94.5t-97.5 279.5v99h152v-91q0 -247 238 -247q135 0 193 78.5t58 240.5v342q-34 -92 -111 -146.5t-194 -54.5q-170 0 -259 99t-89 287v81q0 215 103.5 321.5t298.5 106.5q395 0 395 -446v-594q0 -450 -406 -450zM487 702q114 0 184 74.5t72 190.5
v49q0 162 -59.5 241.5t-191.5 79.5q-250 0 -250 -301v-67q0 -125 61 -196t184 -71z" />
    <glyph glyph-name="colon" unicode=":" horiz-adv-x="509" 
d="M256 782q-59 0 -81.5 25.5t-22.5 95.5q0 67 22.5 92t81.5 25t81.5 -25t22.5 -92q0 -69 -23.5 -95t-80.5 -26zM256 76q-59 0 -81.5 24.5t-22.5 94.5q0 69 22 93.5t82 24.5t82 -24.5t22 -93.5t-23.5 -94t-80.5 -25z" />
    <glyph glyph-name="semicolon" unicode=";" horiz-adv-x="509" 
d="M256 782q-59 0 -81.5 25.5t-22.5 95.5q0 67 22.5 92t81.5 25t81.5 -25t22.5 -92q0 -69 -23.5 -95t-80.5 -26zM156 -160q97 40 112 154q-10 -6 -30 -6q-42 0 -63 23.5t-21 86.5q0 65 23.5 92t78.5 27q61 0 86 -34.5t25 -125.5q0 -116 -51.5 -193t-149.5 -106z" />
    <glyph glyph-name="less" unicode="&#x3c;" horiz-adv-x="925" 
d="M143 686v125l621 270v-145l-465 -186l465 -187v-151z" />
    <glyph glyph-name="equal" unicode="=" horiz-adv-x="925" 
d="M143 858v129h637v-129h-637zM143 473v131h637v-131h-637z" />
    <glyph glyph-name="greater" unicode="&#x3e;" horiz-adv-x="925" 
d="M162 563l465 187l-465 186v145l622 -270v-125l-622 -274v151z" />
    <glyph glyph-name="question" unicode="?" horiz-adv-x="964" 
d="M391 322q-2 10 -2 81v52q0 90 25 151q38 95 143 174q29 24 37.5 32t31.5 30t31.5 37t21 38.5t17 49.5t4.5 57v121q0 89 -51.5 141.5t-161.5 52.5q-117 0 -168 -54t-51 -165v-198h-153v211q0 161 94 249t280 88q179 0 271 -86.5t92 -228.5v-125q0 -88 -25 -149
q-15 -37 -41 -71.5t-46.5 -54.5t-55.5 -50q-37 -31 -57.5 -51.5t-44.5 -53.5t-35 -72.5t-12 -89.5v-116q-15 12 -72 12t-72 -12zM465 -16q-59 0 -82 26t-23 96q0 65 25 92t80 27q56 0 80 -27t24 -92q0 -66 -24.5 -94t-79.5 -28z" />
    <glyph glyph-name="at" unicode="@" horiz-adv-x="1335" 
d="M668 -248q-169 0 -293 62q-266 128 -266 522v489q0 189 71 322q73 133 200.5 202.5t295.5 69.5q177 0 301 -71q122 -71 186 -198t64 -292v-446q0 -334 -226 -334q-143 0 -184 125q-39 -135 -182 -135q-227 0 -227 294v437q0 153 59.5 228t167.5 75q139 0 180 -133l19 123
h79v-770q0 -71 22 -103.5t71 -32.5q54 0 77 53.5t23 174.5v438q0 206 -108.5 326t-323.5 120q-205 0 -325 -125.5t-120 -353.5v-475q0 -239 114 -356t329 -117q106 0 178.5 32.5t124.5 100.5l131 -45q-143 -207 -438 -207zM659 176q70 0 102 48t32 151v409q0 113 -29 163
t-100 50q-67 0 -100.5 -49.5t-33.5 -156.5v-420q0 -103 29.5 -149t99.5 -46z" />
    <glyph glyph-name="A" unicode="A" horiz-adv-x="956" 
d="M690 315h-422l-71 -315h-150l352 1456h148l364 -1456h-147zM299 451h358l-159 675l-23 203l-24 -205z" />
    <glyph glyph-name="B" unicode="B" horiz-adv-x="985" 
d="M141 0v1456h367q199 0 285 -80t86 -235v-103q0 -117 -45 -187.5t-142 -100.5q205 -49 205 -277v-129q0 -172 -80.5 -258t-277.5 -86h-398zM285 1329v-518h217q126 0 178.5 53.5t52.5 175.5v88q0 101 -53 151t-176 50h-219zM285 684v-553h235q129 0 178.5 50.5t49.5 170.5
v113q0 112 -56.5 165.5t-185.5 53.5h-221z" />
    <glyph glyph-name="C" unicode="C" horiz-adv-x="1003" 
d="M510 -20q-197 0 -297 109.5t-100 340.5v586q0 225 102.5 341t296.5 116q206 0 301.5 -112t95.5 -345v-92h-153v88q0 175 -55 252t-191 77q-129 0 -188.5 -82t-59.5 -247v-574q0 -164 59.5 -242.5t190.5 -78.5q128 0 186 78t58 243v131h155v-139q0 -450 -401 -450z" />
    <glyph glyph-name="D" unicode="D" horiz-adv-x="1021" 
d="M141 1456h326q135 0 229 -47q215 -100 215 -403v-555q0 -228 -117.5 -339.5t-324.5 -111.5h-328v1456zM287 1329v-1198h178q140 0 217.5 82t77.5 250v534q0 170 -78 251t-221 81h-174z" />
    <glyph glyph-name="E" unicode="E" horiz-adv-x="876" 
d="M807 0h-666v1456h647v-133h-503v-508h436v-135h-436v-543h522v-137z" />
    <glyph glyph-name="F" unicode="F" horiz-adv-x="823" 
d="M283 637v-637h-142v1456h617v-135h-475v-549h444v-135h-444z" />
    <glyph glyph-name="G" unicode="G" horiz-adv-x="1036" 
d="M795 242q-58 -262 -314 -262q-368 0 -368 452v580q0 229 107 345t310 116q184 0 282.5 -96.5t98.5 -278.5v-135h-151v133q0 245 -234 245q-137 0 -201.5 -83t-64.5 -254v-564q0 -168 62.5 -245.5t195.5 -77.5q122 0 185 85t63 228v182h-260v131h405v-743h-94z" />
    <glyph glyph-name="H" unicode="H" horiz-adv-x="1038" 
d="M754 657h-467v-657h-146v1456h146v-659h467v659h145v-1456h-145v657z" />
    <glyph glyph-name="I" unicode="I" horiz-adv-x="675" 
d="M70 0v137h196v1186h-196v133h536v-133h-198v-1186h198v-137h-536z" />
    <glyph glyph-name="J" unicode="J" horiz-adv-x="874" 
d="M410 -20q-163 0 -247.5 87t-84.5 255v194h149v-186q0 -211 183 -211q102 0 145 57.5t43 190.5v1089h150v-1096q0 -194 -83.5 -287t-254.5 -93z" />
    <glyph glyph-name="K" unicode="K" horiz-adv-x="995" 
d="M473 829l-190 -288v-541h-142v1456h142v-692l-4 -55l8 18l467 729h166l-342 -530l372 -926h-159l-297 762z" />
    <glyph glyph-name="L" unicode="L" horiz-adv-x="813" 
d="M141 0v1456h146v-1317h467v-139h-613z" />
    <glyph glyph-name="M" unicode="M" horiz-adv-x="1200" 
d="M279 0h-138v1456h135l326 -739l322 739h135v-1456h-137v981l32 307l-59 -180l-270 -604h-50l-280 612l-53 168l37 -303v-981z" />
    <glyph glyph-name="N" unicode="N" horiz-adv-x="1079" 
d="M274 0h-133v1456h127l475 -1024l82 -223l-22 242v1005h135v-1456h-125l-479 1032l-82 256l22 -274v-1014z" />
    <glyph glyph-name="O" unicode="O" horiz-adv-x="1034" 
d="M516 -20q-403 0 -403 452v580q0 224 105 341t300 117q196 0 301 -117t105 -341v-580q0 -228 -104.5 -340t-303.5 -112zM518 117q254 0 254 323v568q0 165 -62 248t-194 83q-254 0 -254 -331v-568q0 -164 62.5 -243.5t193.5 -79.5z" />
    <glyph glyph-name="P" unicode="P" horiz-adv-x="956" 
d="M283 471v-471h-142v1456h344q200 0 294.5 -90.5t94.5 -280.5v-235q0 -181 -94 -280t-288 -99h-209zM487 602q120 -1 182 64t62 186v231q0 123 -60.5 182.5t-187.5 59.5h-200v-723h204z" />
    <glyph glyph-name="Q" unicode="Q" horiz-adv-x="1034" 
d="M723 -197l-102 185q-44 -8 -105 -8q-403 0 -403 452v580q0 224 105 341t300 117q196 0 301 -117t105 -341v-580q0 -287 -168 -393l151 -236h-184zM518 117q254 0 254 323v568q0 165 -62 248t-194 83q-254 0 -254 -331v-568q0 -164 62.5 -243.5t193.5 -79.5z" />
    <glyph glyph-name="R" unicode="R" horiz-adv-x="987" 
d="M285 612v-612h-144v1456h367q196 0 285.5 -85.5t89.5 -254.5v-145q0 -223 -189 -289q92 -25 132 -89t40 -187v-318q0 -53 35 -88h-162q-22 22 -22 90v311q0 116 -47.5 163.5t-171.5 47.5h-213zM285 1327v-586h215q235 0 235 236v129q0 112 -54.5 166.5t-178.5 54.5h-217z
" />
    <glyph glyph-name="S" unicode="S" horiz-adv-x="931" 
d="M479 -18q-209 0 -304 93t-95 279v168h151v-166q0 -241 248 -241q116 0 173 61t57 162v63q0 85 -41 138q-26 34 -69.5 64.5t-78.5 47.5t-98 45q-95 46 -152 78q-168 101 -168 299v51q0 156 93.5 251t269.5 95q182 0 273 -88t91 -245v-146h-145v137q0 218 -219 218
q-105 0 -161 -61.5t-56 -162.5v-43q0 -78 41 -131q37 -44 93.5 -77t147.5 -74q122 -60 154 -80q170 -102 170 -305v-74q0 -159 -98.5 -257.5t-276.5 -98.5z" />
    <glyph glyph-name="T" unicode="T" horiz-adv-x="806" 
d="M473 1321v-1321h-145v1321h-279v135h709v-135h-285z" />
    <glyph glyph-name="U" unicode="U" horiz-adv-x="1007" 
d="M504 -20q-193 0 -284 106t-91 330v1040h150v-1034q0 -158 53 -229.5t172 -71.5q120 0 172.5 71t52.5 230v1034h150v-1040q0 -223 -93 -329.5t-282 -106.5z" />
    <glyph glyph-name="V" unicode="V" horiz-adv-x="952" 
d="M403 0l-356 1456h150l254 -1106l26 -207l25 207l256 1106h151l-360 -1456h-146z" />
    <glyph glyph-name="W" unicode="W" horiz-adv-x="1396" 
d="M422 0h-131l-228 1456h142l157 -1065l7 -227l24 209l250 1083h100l236 -1083l20 -230l17 248l182 1065h139l-262 -1456h-133l-235 1110l-15 170l-14 -172z" />
    <glyph glyph-name="X" unicode="X" horiz-adv-x="919" 
d="M193 0h-164l350 772l-303 684h157l216 -524l12 -53l12 51l221 526h158l-311 -686l350 -770h-162l-252 598l-16 57l-15 -57z" />
    <glyph glyph-name="Y" unicode="Y" horiz-adv-x="884" 
d="M360 0v524l-329 932h155l232 -696l20 -111l21 111l239 696h156l-344 -930v-526h-150z" />
    <glyph glyph-name="Z" unicode="Z" horiz-adv-x="870" 
d="M72 0v127l559 1192h-516v137h671v-131l-546 -1184h555v-141h-723z" />
    <glyph glyph-name="bracketleft" unicode="[" horiz-adv-x="626" 
d="M553 -352h-397v1865h397v-127h-252v-1611h252v-127z" />
    <glyph glyph-name="backslash" unicode="\" horiz-adv-x="602" 
d="M209 1456l332 -1456h-148l-332 1456h148z" />
    <glyph glyph-name="bracketright" unicode="]" horiz-adv-x="626" 
d="M74 -352v127h254v1609h-254v129h399v-1865h-399z" />
    <glyph glyph-name="asciicircum" unicode="^" horiz-adv-x="872" 
d="M434 1321l-158 -375h-135l238 510h108l242 -510h-133z" />
    <glyph glyph-name="uni005F" unicode="_" horiz-adv-x="919" 
d="M846 -248h-772v142h772v-142z" />
    <glyph glyph-name="grave" unicode="`" 
d="M211 1606h156l184 -299h-115z" />
    <glyph glyph-name="a" unicode="a" horiz-adv-x="942" 
d="M686 225q-37 -116 -118 -178.5t-199 -62.5q-140 0 -214.5 73t-74.5 211v37q0 161 113 248q41 34 90.5 56t171.5 67q131 46 180 82.5t49 107.5v13q0 188 -211 188q-107 0 -166 -54.5t-59 -152.5v-110h-142v116q0 149 94.5 234.5t272.5 85.5q348 0 348 -318v-868h-112z
M420 104q86 0 143 48q121 95 121 303v243q-19 -34 -59 -56.5t-129 -55.5q-133 -44 -197 -105q-68 -58 -68 -178v-18q0 -85 50 -133t139 -48z" />
    <glyph glyph-name="b" unicode="b" horiz-adv-x="993" 
d="M543 -18q-222 0 -279 227l-16 -209h-117v1522h139v-541q66 207 281 207q340 0 340 -432v-330q0 -221 -90.5 -332.5t-257.5 -111.5zM506 115q237 0 237 313v328q0 307 -229 307q-118 0 -181 -83t-63 -224v-332q0 -147 60.5 -228t175.5 -81z" />
    <glyph glyph-name="c" unicode="c" horiz-adv-x="927" 
d="M469 -18q-190 0 -279.5 101.5t-89.5 307.5v381q0 211 96.5 314.5t280.5 103.5q179 0 271 -92t92 -289v-84h-154v80q0 139 -49.5 197.5t-161.5 58.5q-117 0 -172 -70.5t-55 -222.5v-373q0 -142 53 -212t168 -70q114 0 165.5 62.5t51.5 197.5v100h154v-104
q0 -387 -371 -387z" />
    <glyph glyph-name="d" unicode="d" horiz-adv-x="991" 
d="M727 215q-28 -109 -99 -171t-188 -62q-166 0 -253 108.5t-87 329.5v332q0 218 90.5 327t255.5 109q213 0 277 -201v535h137v-1522h-112zM479 113q119 0 181.5 84t62.5 227v332q0 141 -59.5 224t-178.5 83q-117 0 -177 -80.5t-60 -237.5v-315q0 -317 231 -317z" />
    <glyph glyph-name="e" unicode="e" horiz-adv-x="940" 
d="M850 352q0 -111 -37 -192q-74 -178 -334 -178q-379 0 -379 403v383q0 201 100 311.5t281 110.5q187 0 278 -109.5t91 -300.5v-237h-610v-154q0 -140 57.5 -208t183.5 -68q114 0 169 56.5t55 172.5v53h145v-43zM240 666h469v118q0 142 -54 209.5t-174 67.5
q-241 0 -241 -289v-106z" />
    <glyph glyph-name="f" unicode="f" horiz-adv-x="567" 
d="M322 1038v-1038h-140v1038h-155v133h155v84q0 177 61.5 243.5t211.5 66.5h80v-129h-62q-59 0 -94 -15q-32 -13 -44.5 -53t-12.5 -121v-76h213v-133h-213z" />
    <glyph glyph-name="g" unicode="g" horiz-adv-x="911" 
d="M399 -397q-336 0 -336 202q0 73 58 127.5t158 79.5q-209 15 -209 170q0 145 206 180q-87 29 -128.5 95t-41.5 174v225q0 132 69 213.5t198 108.5q14 6 67 12q123 23 163 57t40 117v57h158v-39q0 -110 -54 -163t-194 -60l43 -6q97 -14 159 -89.5t62 -199.5v-231
q0 -154 -95.5 -236t-262.5 -82h-39q-119 0 -169 -23.5t-50 -72.5q0 -42 37 -61.5t124 -18.5h211q159 0 235.5 -63t76.5 -178v-4q0 -85 -47 -146q-97 -145 -398 -145h-41zM457 426q104 0 158.5 53t54.5 154v229q0 104 -50.5 159.5t-150.5 55.5q-45 0 -76 -8
q-141 -41 -141 -213v-225q0 -205 205 -205zM461 -274q134 0 208 43.5t74 113.5v4q0 62 -45 93.5t-145 31.5h-129q-97 -8 -158 -53.5t-61 -112.5v-4q0 -55 52 -85.5t153 -30.5h51z" />
    <glyph glyph-name="h" unicode="h" horiz-adv-x="972" 
d="M270 0h-139v1522h139v-555q30 106 99.5 163.5t177.5 57.5q150 0 225.5 -95t75.5 -274v-819h-146v801q0 130 -47 194t-153 64q-112 0 -172 -79.5t-60 -221.5v-758z" />
    <glyph glyph-name="i" unicode="i" horiz-adv-x="405" 
d="M207 1294q-54 0 -75 24.5t-21 88.5q0 61 22 86t74 25q53 0 74.5 -25t21.5 -86t-23 -87t-73 -26zM131 0v1171h143v-1171h-143z" />
    <glyph glyph-name="j" unicode="j" horiz-adv-x="407" 
d="M207 1294q-52 0 -74 25t-22 88q0 61 22 86t74 25q53 0 74.5 -25t21.5 -86t-23 -87t-73 -26zM-59 -358v137h51q89 0 115 31.5t26 138.5v1222h143v-1237q0 -122 -22 -178q-23 -63 -80.5 -88.5t-169.5 -25.5h-63z" />
    <glyph glyph-name="k" unicode="k" horiz-adv-x="907" 
d="M449 653l-179 -258v-395h-139v1522h139v-904l-2 -67l13 31l407 589h166l-297 -430l320 -741h-156z" />
    <glyph glyph-name="l" unicode="l" horiz-adv-x="405" 
d="M131 0v1522h143v-1522h-143z" />
    <glyph glyph-name="m" unicode="m" horiz-adv-x="1454" 
d="M274 0h-145v1171h117l14 -188q62 213 264 213q217 0 260 -209q30 99 95.5 154t164.5 55q289 0 289 -362v-834h-143v813q0 127 -45.5 190.5t-145.5 63.5q-101 0 -147.5 -68.5t-46.5 -179.5v-819h-146v821q0 118 -42.5 182t-141.5 64q-201 0 -201 -295v-772z" />
    <glyph glyph-name="n" unicode="n" horiz-adv-x="972" 
d="M274 0h-145v1171h117l16 -217q56 234 285 234q305 0 305 -371v-817h-145v799q0 130 -48 195t-155 65q-113 0 -171.5 -77.5t-58.5 -223.5v-758z" />
    <glyph glyph-name="o" unicode="o" horiz-adv-x="958" 
d="M477 -18q-185 0 -281 101t-96 304v385q0 208 99 313t278 105q181 0 280 -105.5t99 -312.5v-385q0 -200 -99.5 -302.5t-279.5 -102.5zM477 113q232 0 232 278v379q0 291 -232 291q-229 0 -229 -291v-379q0 -278 229 -278z" />
    <glyph glyph-name="p" unicode="p" horiz-adv-x="989" 
d="M543 -18q-213 0 -275 204v-581h-139v1566h115l18 -202q30 106 102 163.5t185 57.5q340 0 340 -445v-327q0 -216 -90 -326t-256 -110zM502 113q121 0 180 75t59 228v332q0 163 -57 239t-174 76q-119 0 -180.5 -83.5t-61.5 -231.5v-334q0 -141 59.5 -221t174.5 -80z" />
    <glyph glyph-name="q" unicode="q" horiz-adv-x="989" 
d="M721 -395v600q-55 -223 -281 -223q-163 0 -251.5 102.5t-88.5 318.5v345q0 440 346 440q227 0 283 -217l16 200h115v-1566h-139zM479 111q114 0 179 82.5t65 222.5v327q0 150 -59.5 234t-178.5 84q-118 0 -177.5 -75.5t-59.5 -235.5v-340q0 -148 58.5 -223.5t172.5 -75.5
z" />
    <glyph glyph-name="r" unicode="r" horiz-adv-x="628" 
d="M129 0v1171h111l24 -227q18 130 84 182t203 52h37v-156h-56q-149 0 -204.5 -73.5t-55.5 -246.5v-702h-143z" />
    <glyph glyph-name="s" unicode="s" horiz-adv-x="868" 
d="M440 -18q-186 0 -275 80t-89 243v113h151v-105q0 -101 51.5 -151.5t163.5 -50.5q103 0 155 50t52 144v27q0 67 -37 104q-23 26 -63 49t-66.5 33.5t-89.5 34.5q-85 31 -141 61q-156 81 -156 248v27q0 137 87.5 219t248.5 82q166 0 253 -79.5t87 -221.5v-88h-143v86
q0 178 -197 178q-95 0 -143.5 -47t-48.5 -127v-21q0 -59 34 -96q7 -7 16 -14t16.5 -13t19.5 -12.5t19.5 -10.5t22.5 -11t21.5 -10t24.5 -10t23.5 -9.5t26 -10t25.5 -9.5q77 -28 144 -64q160 -80 160 -258v-37q0 -154 -89.5 -238.5t-263.5 -84.5z" />
    <glyph glyph-name="t" unicode="t" horiz-adv-x="614" 
d="M559 0h-84q-108 0 -174 29q-63 29 -89 103t-26 216v690h-153v123q67 0 96 13q32 6 46.5 22.5t21.5 56.5q14 50 18 154h107v-236h237v-133h-237v-678q0 -85 14 -143q17 -45 54.5 -61.5t113.5 -16.5h55v-139z" />
    <glyph glyph-name="u" unicode="u" horiz-adv-x="948" 
d="M684 215q-25 -111 -92.5 -172t-175.5 -61q-293 0 -293 366v823h145v-802q0 -256 191 -256q103 0 159 80.5t56 222.5v755h145v-1171h-117z" />
    <glyph glyph-name="v" unicode="v" horiz-adv-x="880" 
d="M365 0l-328 1171h147l234 -895l20 -126l19 126l239 895h146l-334 -1171h-143z" />
    <glyph glyph-name="w" unicode="w" horiz-adv-x="1294" 
d="M406 0h-142l-221 1171h141l150 -845l16 -172l29 176l217 841h90l205 -843l24 -183l23 179l174 847h139l-258 -1171h-137l-197 829l-18 170l-20 -174z" />
    <glyph glyph-name="x" unicode="x" horiz-adv-x="860" 
d="M188 0h-157l321 618l-289 553h156l197 -403l16 -59l14 59l197 403h156l-287 -550l317 -621h-159l-224 465l-14 63l-14 -63z" />
    <glyph glyph-name="y" unicode="y" horiz-adv-x="870" 
d="M84 -334v135h72q56 0 102 11q36 10 58.5 43t43.5 102l17 63l-332 1151h148l235 -868l18 -137l21 143l219 862h148l-340 -1232q-33 -113 -68 -172q-36 -58 -94.5 -79.5t-169.5 -21.5h-78z" />
    <glyph glyph-name="z" unicode="z" horiz-adv-x="794" 
d="M63 113l512 927h-481v131h639v-120l-504 -918h504v-133l-670 -2v115z" />
    <glyph glyph-name="braceleft" unicode="{" horiz-adv-x="647" 
d="M438 -352q-143 0 -203.5 64.5t-60.5 183.5q0 73 25 165q5 18 20.5 69.5t22 74.5t15.5 60.5t13 64.5t4 49q0 81 -34.5 117t-104.5 36h-72v140h68q137 0 137 141q0 65 -22 135q-1 3 -9.5 31t-10 33.5t-8.5 31t-9.5 34t-8 31t-7.5 33.5t-6 31t-5 33t-2.5 29.5t-1.5 30.5
q0 119 60 184.5t204 65.5h133v-121h-73q-97 0 -135.5 -39t-38.5 -121q0 -69 22 -139q54 -177 63 -248q3 -27 3 -51q0 -190 -178 -193v-4q89 0 134.5 -53.5t45.5 -151.5q0 -57 -23 -151q-4 -13 -14 -48t-14.5 -51.5t-13 -46.5t-12.5 -48.5t-8.5 -42t-6.5 -43t-2 -36.5
q0 -82 39 -120.5t137 -38.5h75v-121h-137z" />
    <glyph glyph-name="bar" unicode="|" horiz-adv-x="430" 
d="M141 -184v1804h146v-1804h-146z" />
    <glyph glyph-name="braceright" unicode="}" horiz-adv-x="647" 
d="M74 -231h76q97 0 135.5 38.5t38.5 120.5q0 56 -23 146q-3 12 -14 48t-15 51t-12.5 46t-12.5 49.5t-9 43t-7 45t-2 38.5q0 98 46.5 151.5t136.5 53.5v4q-179 3 -179 193q0 70 23 143q3 11 13 44.5t14 47t12 42t11.5 45.5t8 39.5t6 41t1.5 35.5q0 82 -39.5 121t-137.5 39
h-71v121h131q146 0 205 -65t59 -185q0 -79 -23 -158q-5 -17 -22.5 -78t-23.5 -85t-13.5 -64t-7.5 -68q0 -141 137 -141h70v-140h-74q-70 0 -104.5 -36t-34.5 -117q0 -61 51 -227q51 -170 51 -256q0 -119 -61 -183.5t-205 -64.5h-135v121z" />
    <glyph glyph-name="asciitilde" unicode="~" horiz-adv-x="866" 
d="M123 1112q0 238 172 238q69 0 151 -66q26 -24 39.5 -34.5t34.5 -21.5t39 -11q38 0 55 27.5t17 96.5h106q0 -115 -40.5 -176t-133.5 -61q-78 0 -153 67q-4 3 -22.5 18.5t-24.5 19.5t-20 13t-24.5 12t-21.5 3q-68 0 -68 -125h-106z" />
    <glyph glyph-name="uni00A0" unicode="&#xa0;" horiz-adv-x="450" 
 />
    <glyph glyph-name="exclamdown" unicode="&#xa1;" horiz-adv-x="524" 
d="M262 1204q59 0 82 -27t23 -94q0 -66 -24.5 -92t-80.5 -26q-57 0 -81.5 26t-24.5 92t25.5 93.5t80.5 27.5zM184 -272v311q0 129 2 201q4 256 11 403q3 158 10 217q42 -6 53 -6q21 0 51 6l2 -23q2 -23 2 -46q13 -167 15 -340q8 -185 8 -412v-311h-154z" />
    <glyph glyph-name="cent" unicode="&#xa2;" horiz-adv-x="937" 
d="M850 367q0 -171 -76 -265.5t-219 -113.5v-262h-139v258q-316 27 -316 407v381q0 378 318 414v237h139v-237q293 -39 293 -377v-84h-154v80q0 138 -52 197t-165 59q-118 0 -174.5 -71t-56.5 -222v-373q0 -282 227 -282q115 0 168 62t53 196v102h154v-106z" />
    <glyph glyph-name="sterling" unicode="&#xa3;" horiz-adv-x="1054" 
d="M735 -27q-53 0 -108.5 19.5t-90 40.5t-90.5 59q-38 -57 -93.5 -89t-121.5 -32q-99 0 -147.5 43.5t-48.5 122.5q0 78 51 125t137 47q81 0 176 -57q4 36 4 59q0 129 -59 291h-221v117h180q-33 93 -48 138t-31.5 129.5t-16.5 162.5q0 156 87.5 245t244.5 89q159 0 241 -83
t82 -245v-70l-155 -2v72q0 99 -42 148t-135 49q-83 0 -128.5 -52t-45.5 -149q0 -67 12 -140t27 -129t38 -134q6 -19 9 -29h269v-117h-238q39 -153 39 -283q0 -76 -18 -126q45 -30 72.5 -45.5t66 -29.5t72.5 -14q71 0 98.5 46.5t27.5 171.5v65h152v-86q0 -181 -55.5 -254.5
t-192.5 -73.5zM240 72q82 0 129 78q-83 59 -142 59q-77 0 -77 -68q0 -69 90 -69z" />
    <glyph glyph-name="currency" unicode="&#xa4;" horiz-adv-x="1044" 
d="M526 371q-103 0 -190 49l-150 -166l-102 90l158 172q-49 82 -49 189v75q0 105 55 195l-152 162l92 94l152 -164q80 51 186 51q111 0 181 -47l147 162l98 -88l-149 -166q55 -86 55 -197v-75q0 -106 -49 -187l149 -162l-94 -94l-147 160q-83 -53 -191 -53zM526 494
q90 0 147.5 60.5t57.5 152.5v73q0 92 -57 152.5t-148 60.5t-147.5 -60t-56.5 -153v-73q0 -92 55.5 -152.5t148.5 -60.5z" />
    <glyph glyph-name="yen" unicode="&#xa5;" horiz-adv-x="884" 
d="M508 250v-250h-146v250h-245v117h245v155h-243v117h241l-329 817h153l234 -625l18 -94l21 94l241 625h154l-342 -817h258v-117h-260v-155h260v-117h-260z" />
    <glyph glyph-name="brokenbar" unicode="&#xa6;" horiz-adv-x="430" 
d="M141 1620h146v-795h-146v795zM287 645v-829h-146v829h146z" />
    <glyph glyph-name="section" unicode="&#xa7;" horiz-adv-x="905" 
d="M455 -18q-187 0 -276 77t-89 238v98h152v-90q0 -99 51 -146.5t164 -47.5q207 0 207 180v6q0 57 -35 92q-7 7 -16 14t-17 12.5t-21.5 12.5t-22.5 11.5t-26.5 12t-27 11.5t-32 13t-32.5 12.5t-36.5 13.5t-37.5 14q-101 38 -170 72q-77 37 -114 86.5t-37 126.5v10
q0 59 44.5 109.5t104.5 64.5q-77 74 -77 191v8q0 136 86.5 212.5t248.5 76.5q168 0 254 -74.5t86 -214.5v-90h-143v88q0 166 -197 166q-96 0 -144 -42t-48 -120v-6q0 -60 33 -93q10 -10 26 -20.5t30 -18t41 -19t42.5 -18t54 -21t56.5 -21.5q119 -46 165 -68
q79 -38 119.5 -88t40.5 -129v-12q0 -62 -38.5 -109t-94.5 -65q78 -68 78 -193v-14q0 -152 -88 -230.5t-264 -78.5zM455 627q181 -66 237 -103q38 52 41 111v8q0 31 -12.5 56t-33.5 44.5t-61 39.5t-80 36t-106 39q-156 58 -221 103q-48 -45 -51 -111v-6q0 -45 29 -82
q28 -31 87 -61t171 -74z" />
    <glyph glyph-name="dieresis" unicode="&#xa8;" horiz-adv-x="843" 
d="M276 1307q-46 0 -67 22.5t-21 79.5q0 53 22.5 76.5t68.5 23.5q48 0 69 -23t21 -77q0 -55 -22.5 -78.5t-70.5 -23.5zM557 1307q-50 0 -71 22t-21 80q0 100 92 100q45 0 66.5 -23.5t21.5 -76.5q0 -54 -22 -78t-66 -24z" />
    <glyph glyph-name="copyright" unicode="&#xa9;" horiz-adv-x="1302" 
d="M655 -20q-162 0 -286 59q-127 62 -196 183.5t-69 299.5v389q0 179 70 301q70 126 192 192t283 66q155 0 281 -63q129 -67 198.5 -189.5t69.5 -293.5v-398q0 -181 -72 -299q-70 -122 -191 -184.5t-280 -62.5zM655 90q202 0 317 114t115 328v383q0 213 -119.5 330
t-318.5 117q-201 0 -317.5 -120t-116.5 -337v-377q0 -213 117.5 -325.5t322.5 -112.5zM657 248q-266 0 -266 299v360q0 150 69.5 226.5t198.5 76.5q127 0 196 -70t69 -204v-92h-115v90q0 172 -150 172q-157 0 -157 -201v-356q0 -195 157 -195q77 0 113.5 43t36.5 138v110
h115v-113q0 -141 -71 -212.5t-196 -71.5z" />
    <glyph glyph-name="ordfeminine" unicode="&#xaa;" horiz-adv-x="698" 
d="M494 786q-30 -75 -88.5 -116t-141.5 -41q-101 0 -151 51t-50 143v23q0 107 82 168q56 45 197 96q86 34 118 57.5t32 63.5v12q0 62 -31 91.5t-101 29.5q-145 0 -145 -135v-64h-135v66q2 115 74.5 180.5t205.5 65.5q263 0 263 -240l-2 -598h-115zM317 733q83 0 129 61.5
t46 159.5v150q-10 -20 -34 -34t-76 -36l-15 -6q-90 -36 -117 -70q-39 -42 -39 -100v-18q0 -49 26.5 -78t79.5 -29z" />
    <glyph glyph-name="guillemotleft" unicode="&#xab;" horiz-adv-x="964" 
d="M383 223l-260 379v16l252 392h135l-256 -394l274 -393h-145zM733 223l-270 383v19l252 385h137l-258 -389l287 -398h-148z" />
    <glyph glyph-name="logicalnot" unicode="&#xac;" horiz-adv-x="1021" 
d="M754 424v377h-664v133h801v-510h-137z" />
    <glyph glyph-name="uni00AD" unicode="&#xad;" 
d="M733 545h-627v143h627v-143z" />
    <glyph glyph-name="registered" unicode="&#xae;" horiz-adv-x="860" 
d="M434 776q-157 0 -250.5 85.5t-93.5 248.5v29q0 108 45 182q43 76 119.5 118t173.5 42t174 -41q168 -89 168 -299v-29q0 -108 -45 -182q-44 -74 -120 -114t-171 -40zM434 856q118 0 186 66.5t68 195.5v17q0 126 -71 196t-189 70q-113 0 -183.5 -71.5t-70.5 -196.5v-15
q0 -126 70 -194t190 -68zM375 1077v-125h-76v361h143q142 0 142 -111q0 -69 -68 -92q31 -8 44 -28.5t13 -61.5v-49q0 -5 3.5 -11.5t3.5 -7.5h-78q-6 18 -6 21v47q0 34 -12 45.5t-52 11.5h-57zM375 1247v-104h57q76 0 76 57q0 28 -17 37.5t-57 9.5h-59z" />
    <glyph glyph-name="macron" unicode="&#xaf;" 
d="M195 1444h450v-115h-450v115z" />
    <glyph glyph-name="degree" unicode="&#xb0;" horiz-adv-x="643" 
d="M322 995q-111 0 -176.5 61.5t-65.5 168.5v10q0 112 68.5 175t173.5 63q109 0 175 -64t66 -174v-10q0 -103 -65.5 -166.5t-175.5 -63.5zM322 1100q61 0 95 36t34 95v4q0 63 -36 98t-93 35q-54 0 -90.5 -35t-36.5 -98v-4q0 -60 33.5 -95.5t93.5 -35.5z" />
    <glyph glyph-name="plusminus" unicode="&#xb1;" horiz-adv-x="909" 
d="M516 836v-232h-127v232h-235v129h235v233h127v-233h242v-129h-242zM154 352v131h606v-131h-606z" />
    <glyph glyph-name="uni00B2" unicode="&#xb2;" horiz-adv-x="528" 
d="M66 735v76q0 68 28 119q9 14 18 26.5t22.5 26.5t21 22.5t25 23.5t23 19.5t26.5 22t24 19.5q50 41 76 77.5t26 81.5v33q0 46 -21 69t-69 23t-68 -25t-20 -75v-98h-108v102q0 90 51.5 139t146.5 49q195 0 195 -180v-41q0 -59 -27 -106q-41 -68 -145 -150
q-100 -78 -109 -151h287v-103h-403z" />
    <glyph glyph-name="uni00B3" unicode="&#xb3;" horiz-adv-x="538" 
d="M268 723q-209 0 -209 180v90h111v-84q0 -88 96 -88q99 0 99 88v58q0 90 -93 90h-63v94h63q51 0 68.5 22t17.5 70v39q0 48 -20.5 70t-69.5 22q-92 0 -92 -92v-65h-106v65q0 90 50 137t146 47q197 0 197 -176v-43q0 -108 -86 -139q96 -23 96 -139v-68q0 -84 -52.5 -131
t-152.5 -47z" />
    <glyph glyph-name="acute" unicode="&#xb4;" 
d="M524 1628h158l-248 -321h-115z" />
    <glyph glyph-name="paragraph" unicode="&#xb6;" horiz-adv-x="1138" 
d="M559 0v614h-59q-204 -1 -312 107.5t-108 308.5v8q0 198 108 308t316 110h497v-1456h-139v1331h-164v-1331h-139zM559 741v590h-55q-137 0 -207 -76t-70 -217v-8q0 -141 71.5 -216t203.5 -73h57z" />
    <glyph glyph-name="periodcentered" unicode="&#xb7;" horiz-adv-x="501" 
d="M252 496q-59 0 -83 26.5t-24 93.5q0 66 25 93.5t82 27.5q55 0 80.5 -27.5t25.5 -93.5t-25 -93t-81 -27z" />
    <glyph glyph-name="cedilla" unicode="&#xb8;" 
d="M416 -444q-124 0 -184 48t-74 146h129q12 -98 129 -98q121 0 121 88q0 78 -125 78h-66v194h111v-108q96 -1 147 -43.5t51 -116.5q0 -90 -63.5 -139t-175.5 -49z" />
    <glyph glyph-name="uni00B9" unicode="&#xb9;" horiz-adv-x="421" 
d="M51 735v101h115v419h-98v86q54 1 79 28t33 87h84v-620h113v-101h-326z" />
    <glyph glyph-name="ordmasculine" unicode="&#xba;" horiz-adv-x="718" 
d="M358 629q-133 0 -202.5 72t-69.5 206v287q0 135 74.5 209t197.5 74q125 0 200 -75t75 -208v-287q0 -131 -73.5 -204.5t-201.5 -73.5zM358 750q71 0 107.5 42t36.5 119v281q0 79 -37 123.5t-107 44.5q-67 0 -103 -43t-36 -127v-279q0 -161 139 -161z" />
    <glyph glyph-name="guillemotright" unicode="&#xbb;" horiz-adv-x="964" 
d="M92 223l285 400l-258 387h139l250 -385v-19l-270 -383h-146zM442 223l275 395l-256 392h135l252 -392v-16l-260 -379h-146z" />
    <glyph glyph-name="onequarter" unicode="&#xbc;" horiz-adv-x="1181" 
d="M635 848l332 649l139 -90l-424 -590zM109 735v101h114v419h-98v86q54 1 79.5 28t33.5 87h84v-620h112v-101h-325zM985 156v-156h-92v156h-281v77l279 488h94v-479h86v-86h-86zM569 643l-333 -678l-144 98l430 611zM719 242h174v264l8 84l-24 -68z" />
    <glyph glyph-name="onehalf" unicode="&#xbd;" horiz-adv-x="1181" 
d="M635 848l332 649l139 -90l-424 -590zM109 735v101h114v419h-98v86q54 1 79.5 28t33.5 87h84v-620h112v-101h-325zM692 0v76q0 66 29 119q10 16 23 32.5t23 27t29.5 28t26 23.5t30.5 25.5t28 22.5q50 41 76 78t26 82v33q0 46 -21 69t-69 23t-68 -25t-20 -75v-99h-109v103
q0 89 52 138.5t147 49.5q195 0 195 -180v-41q0 -61 -27 -107q-39 -66 -145 -149q-100 -78 -109 -152h287v-102h-404zM569 643l-333 -678l-144 98l430 611z" />
    <glyph glyph-name="threequarters" unicode="&#xbe;" horiz-adv-x="1181" 
d="M635 848l332 649l139 -90l-424 -590zM274 723q-208 0 -208 180v90h110v-84q0 -88 96 -88q99 0 99 88v58q0 90 -92 90h-64v94h64q51 0 68.5 22t17.5 70v39q0 48 -21 70t-70 22q-92 0 -92 -92v-65h-106v65q0 90 50 137t146 47q197 0 197 -176v-43q0 -108 -86 -139
q96 -23 96 -139v-68q0 -84 -52.5 -131t-152.5 -47zM983 156v-156h-92v156h-281v77l279 488h94v-479h86v-86h-86zM569 643l-333 -678l-144 98l430 611zM717 242h174v264l8 84l-25 -68z" />
    <glyph glyph-name="questiondown" unicode="&#xbf;" horiz-adv-x="964" 
d="M504 1202q59 0 81.5 -26.5t22.5 -96.5q0 -65 -24.5 -91.5t-79.5 -26.5q-56 0 -80.5 26.5t-24.5 91.5q0 66 25 94.5t80 28.5zM578 864q2 -10 2 -82v-51q0 -90 -25 -151q-38 -95 -143 -174q-37 -29 -55.5 -46.5t-43 -48t-35 -67t-10.5 -82.5v-121q0 -89 51.5 -142
t161.5 -53q117 0 168 54.5t51 165.5v198h154v-211q0 -161 -94.5 -249.5t-280.5 -88.5q-179 0 -270.5 87t-91.5 229v125q0 90 24 149q39 94 144 176q37 31 57.5 51.5t44.5 53.5t35 72.5t12 89.5v116q15 -12 72 -12t72 12z" />
    <glyph glyph-name="Agrave" unicode="&#xc0;" horiz-adv-x="956" 
d="M190 1886h156l184 -299h-114zM690 315h-422l-71 -315h-150l352 1456h148l364 -1456h-147zM299 451h358l-159 675l-23 203l-24 -205z" />
    <glyph glyph-name="Aacute" unicode="&#xc1;" horiz-adv-x="956" 
d="M616 1907h158l-248 -322h-114zM690 315h-422l-71 -315h-150l352 1456h148l364 -1456h-147zM299 451h358l-159 675l-23 203l-24 -205z" />
    <glyph glyph-name="Acircumflex" unicode="&#xc2;" horiz-adv-x="956" 
d="M469 1774l-127 -195h-129l203 299h106l203 -299h-129zM690 315h-422l-71 -315h-150l352 1456h148l364 -1456h-147zM299 451h358l-159 675l-23 203l-24 -205z" />
    <glyph glyph-name="Atilde" unicode="&#xc3;" horiz-adv-x="956" 
d="M170 1585q2 111 40.5 166t125.5 55q62 0 104 -28q15 -10 41 -30t40.5 -30t34 -19t36.5 -9q36 0 51.5 24t15.5 88h103q0 -109 -39.5 -166t-128.5 -57q-62 0 -105 29q-15 10 -40 29.5t-39.5 30t-35 19.5t-38.5 9q-33 0 -47.5 -26t-14.5 -85h-104zM690 315h-422l-71 -315
h-150l352 1456h148l364 -1456h-147zM299 451h358l-159 675l-23 203l-24 -205z" />
    <glyph glyph-name="Adieresis" unicode="&#xc4;" horiz-adv-x="956" 
d="M328 1577q-46 0 -67 22.5t-21 79.5q0 101 90 101q47 0 68.5 -23.5t21.5 -77.5q0 -55 -22 -78.5t-70 -23.5zM608 1577q-50 0 -71 22t-21 80q0 101 92 101q45 0 66.5 -24t21.5 -77q0 -54 -22 -78t-66 -24zM690 315h-422l-71 -315h-150l352 1456h148l364 -1456h-147z
M299 451h358l-159 675l-23 203l-24 -205z" />
    <glyph glyph-name="Aring" unicode="&#xc5;" horiz-adv-x="956" 
d="M467 1563q-91 0 -146 51.5t-55 144.5q0 90 55.5 143.5t145.5 53.5q93 0 148 -51.5t55 -145.5q0 -91 -55.5 -143.5t-147.5 -52.5zM467 1665q40 0 68 25.5t28 68.5q0 44 -26.5 71.5t-69.5 27.5q-41 0 -66.5 -27.5t-25.5 -71.5q0 -43 24 -68.5t68 -25.5zM690 315h-422
l-71 -315h-150l352 1456h148l364 -1456h-147zM299 451h358l-159 675l-23 203l-24 -205z" />
    <glyph glyph-name="AE" unicode="&#xc6;" horiz-adv-x="1374" 
d="M684 319h-399l-107 -319h-153l503 1456h756v-133h-584l62 -520h455v-135h-439l64 -531h463v-137h-582zM326 446h344l-80 676l-2 193l-37 -193z" />
    <glyph glyph-name="Ccedilla" unicode="&#xc7;" horiz-adv-x="1003" 
d="M532 -467q-124 0 -184 48t-74 147h129q12 -99 129 -99q121 0 121 88q0 78 -125 78h-65v187q-350 25 -350 448v586q0 225 102.5 341t296.5 116q206 0 301.5 -112t95.5 -345v-92h-153v88q0 175 -55 252t-191 77q-129 0 -188.5 -82t-59.5 -247v-574q0 -164 59.5 -242.5
t190.5 -78.5q128 0 186 78t58 243v131h155v-139q0 -418 -338 -446v-103q96 -1 147.5 -43.5t51.5 -116.5q0 -90 -64 -139t-176 -49z" />
    <glyph glyph-name="Egrave" unicode="&#xc8;" horiz-adv-x="876" 
d="M199 1886h155l185 -299h-115zM807 0h-666v1456h647v-133h-503v-508h436v-135h-436v-543h522v-137z" />
    <glyph glyph-name="Eacute" unicode="&#xc9;" horiz-adv-x="876" 
d="M610 1907h158l-248 -322h-114zM807 0h-666v1456h647v-133h-503v-508h436v-135h-436v-543h522v-137z" />
    <glyph glyph-name="Ecircumflex" unicode="&#xca;" horiz-adv-x="876" 
d="M469 1780l-127 -195h-129l203 299h106l203 -299h-129zM807 0h-666v1456h647v-133h-503v-508h436v-135h-436v-543h522v-137z" />
    <glyph glyph-name="Edieresis" unicode="&#xcb;" horiz-adv-x="876" 
d="M332 1585q-46 0 -67 23t-21 80q0 53 22.5 76.5t67.5 23.5q48 0 69 -23t21 -77q0 -55 -22 -79t-70 -24zM612 1585q-50 0 -71 22.5t-21 80.5q0 100 92 100q45 0 66.5 -23.5t21.5 -76.5q0 -103 -88 -103zM807 0h-666v1456h647v-133h-503v-508h436v-135h-436v-543h522v-137z
" />
    <glyph glyph-name="Igrave" unicode="&#xcc;" horiz-adv-x="675" 
d="M55 1886h156l184 -299h-114zM70 0v137h196v1186h-196v133h536v-133h-198v-1186h198v-137h-536z" />
    <glyph glyph-name="Iacute" unicode="&#xcd;" horiz-adv-x="675" 
d="M479 1907h158l-248 -322h-115zM70 0v137h196v1186h-196v133h536v-133h-198v-1186h198v-137h-536z" />
    <glyph glyph-name="Icircumflex" unicode="&#xce;" horiz-adv-x="675" 
d="M338 1780l-127 -195h-129l203 299h106l203 -299h-129zM70 0v137h196v1186h-196v133h536v-133h-198v-1186h198v-137h-536z" />
    <glyph glyph-name="Idieresis" unicode="&#xcf;" horiz-adv-x="675" 
d="M197 1585q-46 0 -67 23t-21 80q0 53 22.5 76.5t67.5 23.5q48 0 69 -23t21 -77q0 -55 -22 -79t-70 -24zM477 1585q-50 0 -71 22.5t-21 80.5q0 100 92 100q45 0 66.5 -23.5t21.5 -76.5q0 -103 -88 -103zM70 0v137h196v1186h-196v133h536v-133h-198v-1186h198v-137h-536z
" />
    <glyph glyph-name="Eth" unicode="&#xd0;" horiz-adv-x="1032" 
d="M158 0v657h-140v134h140v665h325q100 0 179 -26t138.5 -79.5t91.5 -141t32 -203.5v-555q0 -228 -116.5 -339.5t-322.5 -111.5h-327zM301 657v-526h180q140 0 217.5 82t77.5 250v534q0 170 -78 251t-221 81h-176v-538h201v-134h-201z" />
    <glyph glyph-name="Ntilde" unicode="&#xd1;" horiz-adv-x="1079" 
d="M274 1595q2 111 40.5 166.5t125.5 55.5q62 0 105 -29q15 -11 41 -30.5t40 -29.5t33.5 -19t36.5 -9q37 0 52.5 24t15.5 88h102q0 -109 -39.5 -166t-128.5 -57q-60 0 -104 29q-15 10 -40 29.5t-40 30t-35.5 19.5t-38.5 9q-32 0 -46.5 -25.5t-14.5 -85.5h-105zM274 0h-133
v1456h127l475 -1024l82 -223l-22 242v1005h135v-1456h-125l-479 1032l-82 256l22 -274v-1014z" />
    <glyph glyph-name="Ograve" unicode="&#xd2;" horiz-adv-x="1034" 
d="M242 1905h155l185 -299h-115zM516 -20q-403 0 -403 452v580q0 224 105 341t300 117q196 0 301 -117t105 -341v-580q0 -228 -104.5 -340t-303.5 -112zM518 117q254 0 254 323v568q0 165 -62 248t-194 83q-254 0 -254 -331v-568q0 -164 62.5 -243.5t193.5 -79.5z" />
    <glyph glyph-name="Oacute" unicode="&#xd3;" horiz-adv-x="1034" 
d="M680 1925h158l-248 -321h-115zM516 -20q-403 0 -403 452v580q0 224 105 341t300 117q196 0 301 -117t105 -341v-580q0 -228 -104.5 -340t-303.5 -112zM518 117q254 0 254 323v568q0 165 -62 248t-194 83q-254 0 -254 -331v-568q0 -164 62.5 -243.5t193.5 -79.5z" />
    <glyph glyph-name="Ocircumflex" unicode="&#xd4;" horiz-adv-x="1034" 
d="M520 1800l-127 -194h-129l203 299h106l203 -299h-129zM516 -20q-403 0 -403 452v580q0 224 105 341t300 117q196 0 301 -117t105 -341v-580q0 -228 -104.5 -340t-303.5 -112zM518 117q254 0 254 323v568q0 165 -62 248t-194 83q-254 0 -254 -331v-568q0 -164 62.5 -243.5
t193.5 -79.5z" />
    <glyph glyph-name="Otilde" unicode="&#xd5;" horiz-adv-x="1034" 
d="M221 1610q2 111 40.5 166t125.5 55q61 0 105 -29q15 -11 41 -30.5t40 -29.5t33.5 -19t36.5 -9q36 0 52 24.5t16 88.5h102q0 -109 -39.5 -166t-128.5 -57q-62 0 -104 28q-15 10 -40 29.5t-40 30t-35.5 19.5t-38.5 9q-33 0 -47 -25t-14 -85h-105zM516 -20q-403 0 -403 452
v580q0 224 105 341t300 117q196 0 301 -117t105 -341v-580q0 -228 -104.5 -340t-303.5 -112zM518 117q254 0 254 323v568q0 165 -62 248t-194 83q-254 0 -254 -331v-568q0 -164 62.5 -243.5t193.5 -79.5z" />
    <glyph glyph-name="Odieresis" unicode="&#xd6;" horiz-adv-x="1034" 
d="M379 1606q-46 0 -67 22.5t-21 79.5q0 53 22.5 76.5t67.5 23.5q48 0 69 -23t21 -77q0 -55 -22 -78.5t-70 -23.5zM659 1606q-50 0 -71 22t-21 80q0 100 92 100q45 0 67 -23.5t22 -76.5q0 -102 -89 -102zM516 -20q-403 0 -403 452v580q0 224 105 341t300 117q196 0 301 -117
t105 -341v-580q0 -228 -104.5 -340t-303.5 -112zM518 117q254 0 254 323v568q0 165 -62 248t-194 83q-254 0 -254 -331v-568q0 -164 62.5 -243.5t193.5 -79.5z" />
    <glyph glyph-name="multiply" unicode="&#xd7;" horiz-adv-x="903" 
d="M444 651l-231 -235l-86 88l231 235l-211 219l89 89l210 -218l220 224l86 -90l-220 -224l230 -235l-88 -88z" />
    <glyph glyph-name="Oslash" unicode="&#xd8;" horiz-adv-x="1046" 
d="M524 -23q-74 0 -135 15l-49 -176h-117l64 219q-174 108 -174 397v582q0 225 106 343t305 118q84 0 142 -19l49 170h110l-61 -215q172 -111 172 -397v-582q0 -228 -106.5 -341.5t-305.5 -113.5zM260 440q0 -168 70 -250l301 1137q-42 19 -107 19q-133 0 -198.5 -87
t-65.5 -251v-568zM524 113q264 0 264 327v568q0 163 -65 249l-297 -1130q47 -14 98 -14z" />
    <glyph glyph-name="Ugrave" unicode="&#xd9;" horiz-adv-x="1007" 
d="M223 1874h156l184 -299h-114zM504 -20q-193 0 -284 106t-91 330v1040h150v-1034q0 -158 53 -229.5t172 -71.5q120 0 172.5 71t52.5 230v1034h150v-1040q0 -223 -93 -329.5t-282 -106.5z" />
    <glyph glyph-name="Uacute" unicode="&#xda;" horiz-adv-x="1007" 
d="M647 1894h158l-248 -321h-115zM504 -20q-193 0 -284 106t-91 330v1040h150v-1034q0 -158 53 -229.5t172 -71.5q120 0 172.5 71t52.5 230v1034h150v-1040q0 -223 -93 -329.5t-282 -106.5z" />
    <glyph glyph-name="Ucircumflex" unicode="&#xdb;" horiz-adv-x="1007" 
d="M504 1767l-127 -194h-129l203 299h106l203 -299h-129zM504 -20q-193 0 -284 106t-91 330v1040h150v-1034q0 -158 53 -229.5t172 -71.5q120 0 172.5 71t52.5 230v1034h150v-1040q0 -223 -93 -329.5t-282 -106.5z" />
    <glyph glyph-name="Udieresis" unicode="&#xdc;" horiz-adv-x="1007" 
d="M360 1573q-46 0 -67 22.5t-21 79.5q0 101 90 101q48 0 69.5 -23.5t21.5 -77.5q0 -55 -22.5 -78.5t-70.5 -23.5zM641 1573q-50 0 -71 22t-21 80q0 101 92 101q45 0 66.5 -24t21.5 -77q0 -54 -22 -78t-66 -24zM504 -20q-193 0 -284 106t-91 330v1040h150v-1034
q0 -158 53 -229.5t172 -71.5q120 0 172.5 71t52.5 230v1034h150v-1040q0 -223 -93 -329.5t-282 -106.5z" />
    <glyph glyph-name="Yacute" unicode="&#xdd;" horiz-adv-x="884" 
d="M594 1896h158l-248 -321h-115zM360 0v524l-329 932h155l232 -696l20 -111l21 111l239 696h156l-344 -930v-526h-150z" />
    <glyph glyph-name="Thorn" unicode="&#xde;" horiz-adv-x="944" 
d="M283 283v-283h-142v1456h142v-244h192q202 0 295.5 -85t93.5 -273v-205q0 -366 -381 -366h-200zM283 1081v-669h194q244 0 244 239v203q0 120 -59.5 173.5t-188.5 53.5h-190z" />
    <glyph glyph-name="germandbls" unicode="&#xdf;" horiz-adv-x="1013" 
d="M559 -2q-88 0 -104 4v137q24 -6 84 -6q233 0 233 254v100q0 137 -63.5 196.5t-198.5 59.5h-47v129h45q233 0 233 238v84q0 217 -231 217q-236 0 -236 -229v-1182h-143v1190q0 170 97 262t282 92q182 0 276.5 -89t94.5 -255v-86q0 -122 -43 -196.5t-142 -104.5
q117 -26 171.5 -103.5t54.5 -217.5v-117q0 -117 -33 -199q-74 -178 -330 -178z" />
    <glyph glyph-name="agrave" unicode="&#xe0;" horiz-adv-x="942" 
d="M201 1618h155l185 -299h-115zM686 225q-37 -116 -118 -178.5t-199 -62.5q-140 0 -214.5 73t-74.5 211v37q0 161 113 248q41 34 90.5 56t171.5 67q131 46 180 82.5t49 107.5v13q0 188 -211 188q-107 0 -166 -54.5t-59 -152.5v-110h-142v116q0 149 94.5 234.5t272.5 85.5
q348 0 348 -318v-868h-112zM420 104q86 0 143 48q121 95 121 303v243q-19 -34 -59 -56.5t-129 -55.5q-133 -44 -197 -105q-68 -58 -68 -178v-18q0 -85 50 -133t139 -48z" />
    <glyph glyph-name="aacute" unicode="&#xe1;" horiz-adv-x="942" 
d="M614 1640h158l-248 -321h-114zM686 225q-37 -116 -118 -178.5t-199 -62.5q-140 0 -214.5 73t-74.5 211v37q0 161 113 248q41 34 90.5 56t171.5 67q131 46 180 82.5t49 107.5v13q0 188 -211 188q-107 0 -166 -54.5t-59 -152.5v-110h-142v116q0 149 94.5 234.5t272.5 85.5
q348 0 348 -318v-868h-112zM420 104q86 0 143 48q121 95 121 303v243q-19 -34 -59 -56.5t-129 -55.5q-133 -44 -197 -105q-68 -58 -68 -178v-18q0 -85 50 -133t139 -48z" />
    <glyph glyph-name="acircumflex" unicode="&#xe2;" horiz-adv-x="942" 
d="M479 1513l-127 -194h-129l203 299h106l203 -299h-129zM686 225q-37 -116 -118 -178.5t-199 -62.5q-140 0 -214.5 73t-74.5 211v37q0 161 113 248q41 34 90.5 56t171.5 67q131 46 180 82.5t49 107.5v13q0 188 -211 188q-107 0 -166 -54.5t-59 -152.5v-110h-142v116
q0 149 94.5 234.5t272.5 85.5q348 0 348 -318v-868h-112zM420 104q86 0 143 48q121 95 121 303v243q-19 -34 -59 -56.5t-129 -55.5q-133 -44 -197 -105q-68 -58 -68 -178v-18q0 -85 50 -133t139 -48z" />
    <glyph glyph-name="atilde" unicode="&#xe3;" horiz-adv-x="942" 
d="M180 1323q2 111 40.5 166t125.5 55q63 0 105 -28q16 -11 41 -30.5t39.5 -30t34 -19.5t36.5 -9q36 0 52 24.5t16 88.5h102q0 -109 -39.5 -166t-128.5 -57q-60 0 -104 29q-15 10 -40 29.5t-40 30t-35.5 19.5t-38.5 9q-32 0 -46.5 -25.5t-14.5 -85.5h-105zM686 225
q-37 -116 -118 -178.5t-199 -62.5q-140 0 -214.5 73t-74.5 211v37q0 161 113 248q41 34 90.5 56t171.5 67q131 46 180 82.5t49 107.5v13q0 188 -211 188q-107 0 -166 -54.5t-59 -152.5v-110h-142v116q0 149 94.5 234.5t272.5 85.5q348 0 348 -318v-868h-112zM420 104
q86 0 143 48q121 95 121 303v243q-19 -34 -59 -56.5t-129 -55.5q-133 -44 -197 -105q-68 -58 -68 -178v-18q0 -85 50 -133t139 -48z" />
    <glyph glyph-name="adieresis" unicode="&#xe4;" horiz-adv-x="942" 
d="M338 1319q-46 0 -67 22.5t-21 79.5q0 101 90 101q47 0 68.5 -23.5t21.5 -77.5q0 -55 -22 -78.5t-70 -23.5zM618 1319q-50 0 -71 22t-21 80q0 101 92 101q45 0 67 -24t22 -77q0 -102 -89 -102zM686 225q-37 -116 -118 -178.5t-199 -62.5q-140 0 -214.5 73t-74.5 211v37
q0 161 113 248q41 34 90.5 56t171.5 67q131 46 180 82.5t49 107.5v13q0 188 -211 188q-107 0 -166 -54.5t-59 -152.5v-110h-142v116q0 149 94.5 234.5t272.5 85.5q348 0 348 -318v-868h-112zM420 104q86 0 143 48q121 95 121 303v243q-19 -34 -59 -56.5t-129 -55.5
q-133 -44 -197 -105q-68 -58 -68 -178v-18q0 -85 50 -133t139 -48z" />
    <glyph glyph-name="aring" unicode="&#xe5;" horiz-adv-x="942" 
d="M473 1323q-91 0 -146 52t-55 145q0 90 55.5 143t145.5 53q93 0 148 -51.5t55 -144.5q0 -91 -55.5 -144t-147.5 -53zM473 1425q40 0 68 26t28 69q0 44 -26.5 71t-69.5 27q-41 0 -66.5 -27t-25.5 -71q0 -43 24 -69t68 -26zM686 225q-37 -116 -118 -178.5t-199 -62.5
q-140 0 -214.5 73t-74.5 211v37q0 161 113 248q41 34 90.5 56t171.5 67q131 46 180 82.5t49 107.5v13q0 188 -211 188q-107 0 -166 -54.5t-59 -152.5v-110h-142v116q0 149 94.5 234.5t272.5 85.5q348 0 348 -318v-868h-112zM420 104q86 0 143 48q121 95 121 303v243
q-19 -34 -59 -56.5t-129 -55.5q-133 -44 -197 -105q-68 -58 -68 -178v-18q0 -85 50 -133t139 -48z" />
    <glyph glyph-name="ae" unicode="&#xe6;" horiz-adv-x="1529" 
d="M1440 344q0 -171 -95.5 -266.5t-283.5 -95.5q-285 0 -350 245q-37 -118 -122.5 -181.5t-211.5 -63.5q-144 0 -220.5 74t-76.5 212v37q0 87 28 145t85 103q41 34 93.5 58t168.5 67q128 45 178.5 81.5t50.5 100.5v21q0 188 -211 188q-107 0 -166 -54t-59 -151v-114h-142
v118q0 149 94.5 235.5t268.5 86.5q237 0 305 -152q88 152 299 152q185 0 276 -106t91 -304v-241h-619v-144q0 -282 240 -282q233 0 233 227v55h146v-51zM821 659h477v125q0 277 -231 277q-246 0 -246 -289v-113zM416 104q87 0 147 48q121 95 121 303v243q-19 -34 -59 -56.5
t-129 -55.5q-77 -25 -119 -48t-76 -55q-68 -68 -68 -180v-14q0 -90 48 -137.5t135 -47.5z" />
    <glyph glyph-name="ccedilla" unicode="&#xe7;" horiz-adv-x="927" 
d="M496 -467q-124 0 -184 48t-74 147h129q12 -99 129 -99q120 0 120 88q0 39 -29 58.5t-95 19.5h-66v189q-167 10 -246.5 111.5t-79.5 295.5v381q0 211 96.5 314.5t280.5 103.5q179 0 271 -92t92 -289v-84h-154v80q0 139 -49.5 197.5t-161.5 58.5q-117 0 -172 -70.5
t-55 -222.5v-373q0 -142 53 -212t168 -70q114 0 165.5 62.5t51.5 197.5v100h154v-104q0 -347 -303 -383v-105q96 -1 147 -43.5t51 -116.5q0 -90 -63.5 -139t-175.5 -49z" />
    <glyph glyph-name="egrave" unicode="&#xe8;" horiz-adv-x="940" 
d="M217 1618h156l184 -299h-115zM850 352q0 -111 -37 -192q-74 -178 -334 -178q-379 0 -379 403v383q0 201 100 311.5t281 110.5q187 0 278 -109.5t91 -300.5v-237h-610v-154q0 -140 57.5 -208t183.5 -68q114 0 169 56.5t55 172.5v53h145v-43zM240 666h469v118
q0 142 -54 209.5t-174 67.5q-241 0 -241 -289v-106z" />
    <glyph glyph-name="eacute" unicode="&#xe9;" horiz-adv-x="940" 
d="M631 1640h157l-247 -321h-115zM850 352q0 -111 -37 -192q-74 -178 -334 -178q-379 0 -379 403v383q0 201 100 311.5t281 110.5q187 0 278 -109.5t91 -300.5v-237h-610v-154q0 -140 57.5 -208t183.5 -68q114 0 169 56.5t55 172.5v53h145v-43zM240 666h469v118
q0 142 -54 209.5t-174 67.5q-241 0 -241 -289v-106z" />
    <glyph glyph-name="ecircumflex" unicode="&#xea;" horiz-adv-x="940" 
d="M489 1513l-127 -194h-129l203 299h107l202 -299h-129zM850 352q0 -111 -37 -192q-74 -178 -334 -178q-379 0 -379 403v383q0 201 100 311.5t281 110.5q187 0 278 -109.5t91 -300.5v-237h-610v-154q0 -140 57.5 -208t183.5 -68q114 0 169 56.5t55 172.5v53h145v-43z
M240 666h469v118q0 142 -54 209.5t-174 67.5q-241 0 -241 -289v-106z" />
    <glyph glyph-name="edieresis" unicode="&#xeb;" horiz-adv-x="940" 
d="M344 1319q-46 0 -67 22.5t-21 79.5q0 101 90 101q47 0 68.5 -23.5t21.5 -77.5q0 -55 -22 -78.5t-70 -23.5zM625 1319q-51 0 -72 22.5t-21 79.5q0 101 93 101q45 0 66.5 -24t21.5 -77q0 -54 -22 -78t-66 -24zM850 352q0 -111 -37 -192q-74 -178 -334 -178q-379 0 -379 403
v383q0 201 100 311.5t281 110.5q187 0 278 -109.5t91 -300.5v-237h-610v-154q0 -140 57.5 -208t183.5 -68q114 0 169 56.5t55 172.5v53h145v-43zM240 666h469v118q0 142 -54 209.5t-174 67.5q-241 0 -241 -289v-106z" />
    <glyph glyph-name="igrave" unicode="&#xec;" horiz-adv-x="405" 
d="M-76 1602h156l184 -299h-114zM131 0v1171h143v-1171h-143z" />
    <glyph glyph-name="iacute" unicode="&#xed;" horiz-adv-x="405" 
d="M350 1628h158l-248 -321h-115zM131 0v1171h143v-1171h-143z" />
    <glyph glyph-name="icircumflex" unicode="&#xee;" horiz-adv-x="405" 
d="M201 1497l-127 -194h-129l202 299h107l203 -299h-129zM131 0v1171h143v-1171h-143z" />
    <glyph glyph-name="idieresis" unicode="&#xef;" horiz-adv-x="405" 
d="M57 1303q-46 0 -67 22.5t-21 79.5q0 53 22.5 76.5t67.5 23.5q48 0 69.5 -23.5t21.5 -76.5q0 -55 -22.5 -78.5t-70.5 -23.5zM338 1303q-50 0 -71 22t-21 80q0 100 92 100q45 0 66.5 -23.5t21.5 -76.5q0 -54 -22 -78t-66 -24zM131 0v1171h143v-1171h-143z" />
    <glyph glyph-name="eth" unicode="&#xf0;" horiz-adv-x="966" 
d="M479 -18q-187 0 -283 101t-96 296v397q0 190 91 290.5t251 100.5q199 0 263 -174q-38 183 -209 348l-111 -86h-158l195 150q-96 83 -219 156h213q66 -42 106 -80l103 80h155l-186 -144q260 -257 260 -629v-401q0 -198 -97 -301.5t-278 -103.5zM479 113q116 0 174 70.5
t58 205.5v387q0 125 -57.5 195.5t-170.5 70.5q-114 0 -174.5 -68t-60.5 -200v-393q0 -128 58 -198t173 -70z" />
    <glyph glyph-name="ntilde" unicode="&#xf1;" horiz-adv-x="972" 
d="M213 1319q2 111 40.5 166t125.5 55q61 0 104 -29q15 -10 41 -30t40.5 -30t34 -19t36.5 -9q36 0 51.5 24.5t15.5 88.5h103q0 -109 -39.5 -166t-128.5 -57q-63 0 -105 28q-13 9 -49 37.5t-58.5 40t-45.5 11.5q-33 0 -47.5 -26t-14.5 -85h-104zM274 0h-145v1171h117l16 -217
q56 234 285 234q305 0 305 -371v-817h-145v799q0 130 -48 195t-155 65q-113 0 -171.5 -77.5t-58.5 -223.5v-758z" />
    <glyph glyph-name="ograve" unicode="&#xf2;" horiz-adv-x="958" 
d="M205 1618h155l185 -299h-115zM477 -18q-185 0 -281 101t-96 304v385q0 208 99 313t278 105q181 0 280 -105.5t99 -312.5v-385q0 -200 -99.5 -302.5t-279.5 -102.5zM477 113q232 0 232 278v379q0 291 -232 291q-229 0 -229 -291v-379q0 -278 229 -278z" />
    <glyph glyph-name="oacute" unicode="&#xf3;" horiz-adv-x="958" 
d="M627 1638h157l-247 -321h-115zM477 -18q-185 0 -281 101t-96 304v385q0 208 99 313t278 105q181 0 280 -105.5t99 -312.5v-385q0 -200 -99.5 -302.5t-279.5 -102.5zM477 113q232 0 232 278v379q0 291 -232 291q-229 0 -229 -291v-379q0 -278 229 -278z" />
    <glyph glyph-name="ocircumflex" unicode="&#xf4;" horiz-adv-x="958" 
d="M483 1511l-127 -194h-129l203 299h107l202 -299h-129zM477 -18q-185 0 -281 101t-96 304v385q0 208 99 313t278 105q181 0 280 -105.5t99 -312.5v-385q0 -200 -99.5 -302.5t-279.5 -102.5zM477 113q232 0 232 278v379q0 291 -232 291q-229 0 -229 -291v-379
q0 -278 229 -278z" />
    <glyph glyph-name="otilde" unicode="&#xf5;" horiz-adv-x="958" 
d="M184 1323q2 111 40.5 166t125.5 55q63 0 105 -28q16 -11 41 -30.5t39.5 -30t34 -19.5t36.5 -9q36 0 52 24.5t16 88.5h102q0 -109 -39.5 -166t-128.5 -57q-60 0 -104 29q-15 10 -40 29.5t-40 30t-35.5 19.5t-38.5 9q-32 0 -46.5 -25.5t-14.5 -85.5h-105zM477 -18
q-185 0 -281 101t-96 304v385q0 208 99 313t278 105q181 0 280 -105.5t99 -312.5v-385q0 -200 -99.5 -302.5t-279.5 -102.5zM477 113q232 0 232 278v379q0 291 -232 291q-229 0 -229 -291v-379q0 -278 229 -278z" />
    <glyph glyph-name="odieresis" unicode="&#xf6;" horiz-adv-x="958" 
d="M342 1317q-46 0 -67 22.5t-21 79.5q0 101 90 101q47 0 68.5 -23.5t21.5 -77.5q0 -55 -22 -78.5t-70 -23.5zM623 1317q-51 0 -72 22.5t-21 79.5q0 101 93 101q45 0 66.5 -24t21.5 -77q0 -54 -22 -78t-66 -24zM477 -18q-185 0 -281 101t-96 304v385q0 208 99 313t278 105
q181 0 280 -105.5t99 -312.5v-385q0 -200 -99.5 -302.5t-279.5 -102.5zM477 113q232 0 232 278v379q0 291 -232 291q-229 0 -229 -291v-379q0 -278 229 -278z" />
    <glyph glyph-name="divide" unicode="&#xf7;" horiz-adv-x="909" 
d="M453 911q-45 0 -65.5 20t-20.5 68t21 69.5t65 21.5q45 0 64.5 -21t19.5 -70q0 -48 -20.5 -68t-63.5 -20zM123 653v131h663v-131h-663zM453 352q-46 0 -66 18.5t-20 67.5q0 51 20 69.5t66 18.5q45 0 64.5 -18.5t19.5 -69.5q0 -48 -20.5 -67t-63.5 -19z" />
    <glyph glyph-name="oslash" unicode="&#xf8;" horiz-adv-x="958" 
d="M477 -18q-55 0 -110 10l-50 -176h-104l61 209q-174 89 -174 362v385q0 208 99 313t278 105q74 0 123 -14l47 163h101l-60 -200q168 -100 168 -367v-385q0 -200 -99.5 -302.5t-279.5 -102.5zM246 391q0 -150 69 -219l248 877q-41 12 -86 12q-231 0 -231 -291v-379z
M477 113q116 0 175 71t59 207v379q0 148 -66 223l-244 -870q38 -10 76 -10z" />
    <glyph glyph-name="ugrave" unicode="&#xf9;" horiz-adv-x="948" 
d="M190 1581h156l184 -299h-114zM684 215q-25 -111 -92.5 -172t-175.5 -61q-293 0 -293 366v823h145v-802q0 -256 191 -256q103 0 159 80.5t56 222.5v755h145v-1171h-117z" />
    <glyph glyph-name="uacute" unicode="&#xfa;" horiz-adv-x="948" 
d="M610 1604h158l-248 -322h-114zM684 215q-25 -111 -92.5 -172t-175.5 -61q-293 0 -293 366v823h145v-802q0 -256 191 -256q103 0 159 80.5t56 222.5v755h145v-1171h-117z" />
    <glyph glyph-name="ucircumflex" unicode="&#xfb;" horiz-adv-x="948" 
d="M469 1485l-127 -195h-129l203 299h106l203 -299h-129zM684 215q-25 -111 -92.5 -172t-175.5 -61q-293 0 -293 366v823h145v-802q0 -256 191 -256q103 0 159 80.5t56 222.5v755h145v-1171h-117z" />
    <glyph glyph-name="udieresis" unicode="&#xfc;" horiz-adv-x="948" 
d="M328 1290q-46 0 -67 23t-21 80q0 53 22.5 76.5t67.5 23.5q48 0 69 -23t21 -77q0 -55 -22 -79t-70 -24zM608 1290q-50 0 -71 22.5t-21 80.5q0 100 92 100q45 0 66.5 -23.5t21.5 -76.5q0 -103 -88 -103zM684 215q-25 -111 -92.5 -172t-175.5 -61q-293 0 -293 366v823h145
v-802q0 -256 191 -256q103 0 159 80.5t56 222.5v755h145v-1171h-117z" />
    <glyph glyph-name="yacute" unicode="&#xfd;" horiz-adv-x="870" 
d="M582 1604h157l-247 -322h-115zM84 -334v135h72q56 0 102 11q36 10 58.5 43t43.5 102l17 63l-332 1151h148l235 -868l18 -137l21 143l219 862h148l-340 -1232q-33 -113 -68 -172q-36 -58 -94.5 -79.5t-169.5 -21.5h-78z" />
    <glyph glyph-name="thorn" unicode="&#xfe;" horiz-adv-x="989" 
d="M543 -18q-208 0 -273 190v-567h-139v1917h139v-537q66 205 279 205q340 0 340 -445v-327q0 -216 -90 -326t-256 -110zM502 113q121 0 180 75t59 228v332q0 163 -57 239t-174 76q-119 0 -180.5 -83.5t-61.5 -231.5v-334q0 -141 59.5 -221t174.5 -80z" />
    <glyph glyph-name="ydieresis" unicode="&#xff;" horiz-adv-x="870" 
d="M297 1290q-46 0 -67 23t-21 80q0 53 22.5 76.5t67.5 23.5q48 0 69 -23t21 -77q0 -55 -22 -79t-70 -24zM578 1290q-50 0 -71.5 22.5t-21.5 80.5q0 100 93 100q45 0 66.5 -23.5t21.5 -76.5q0 -103 -88 -103zM84 -334v135h72q56 0 102 11q36 10 58.5 43t43.5 102l17 63
l-332 1151h148l235 -868l18 -137l21 143l219 862h148l-340 -1232q-33 -113 -68 -172q-36 -58 -94.5 -79.5t-169.5 -21.5h-78z" />
    <glyph glyph-name="Amacron" unicode="&#x100;" horiz-adv-x="956" 
d="M244 1722h450v-114h-450v114zM690 315h-422l-71 -315h-150l352 1456h148l364 -1456h-147zM299 451h358l-159 675l-23 203l-24 -205z" />
    <glyph glyph-name="amacron" unicode="&#x101;" horiz-adv-x="942" 
d="M254 1456h451v-115h-451v115zM686 225q-37 -116 -118 -178.5t-199 -62.5q-140 0 -214.5 73t-74.5 211v37q0 161 113 248q41 34 90.5 56t171.5 67q131 46 180 82.5t49 107.5v13q0 188 -211 188q-107 0 -166 -54.5t-59 -152.5v-110h-142v116q0 149 94.5 234.5t272.5 85.5
q348 0 348 -318v-868h-112zM420 104q86 0 143 48q121 95 121 303v243q-19 -34 -59 -56.5t-129 -55.5q-133 -44 -197 -105q-68 -58 -68 -178v-18q0 -85 50 -133t139 -48z" />
    <glyph glyph-name="Abreve" unicode="&#x102;" horiz-adv-x="956" 
d="M475 1581q-145 0 -206 75t-66 224h110q5 -99 41.5 -146t122.5 -48q84 1 123 49t41 145h111q-2 -143 -70.5 -221t-206.5 -78zM690 315h-422l-71 -315h-150l352 1456h148l364 -1456h-147zM299 451h358l-159 675l-23 203l-24 -205z" />
    <glyph glyph-name="abreve" unicode="&#x103;" horiz-adv-x="942" 
d="M475 1315q-145 0 -206 75t-66 224h110q5 -99 41.5 -146.5t122.5 -48.5q84 1 123 49.5t41 145.5h111q-2 -143 -70.5 -221t-206.5 -78zM686 225q-37 -116 -118 -178.5t-199 -62.5q-140 0 -214.5 73t-74.5 211v37q0 161 113 248q41 34 90.5 56t171.5 67q131 46 180 82.5
t49 107.5v13q0 188 -211 188q-107 0 -166 -54.5t-59 -152.5v-110h-142v116q0 149 94.5 234.5t272.5 85.5q348 0 348 -318v-868h-112zM420 104q86 0 143 48q121 95 121 303v243q-19 -34 -59 -56.5t-129 -55.5q-133 -44 -197 -105q-68 -58 -68 -178v-18q0 -85 50 -133t139 -48
z" />
    <glyph glyph-name="Aogonek" unicode="&#x104;" horiz-adv-x="956" 
d="M1077 -201q-61 -184 -256 -184q-103 0 -159 45t-56 129q0 61 35 115t119 112l-70 299h-422l-71 -315h-150l352 1456h148l364 -1456h-4q-105 -73 -143.5 -115t-38.5 -86q0 -41 27 -63.5t75 -22.5q93 0 117 86h133zM299 451h358l-159 675l-23 203l-24 -205z" />
    <glyph glyph-name="aogonek" unicode="&#x105;" horiz-adv-x="942" 
d="M991 -201q-61 -184 -256 -184q-103 0 -159 45t-56 129q0 65 42.5 125t142.5 123l-19 188q-37 -116 -118 -178.5t-199 -62.5q-140 0 -214.5 73t-74.5 211v37q0 161 113 248q41 34 90.5 56t171.5 67q131 46 180 82.5t49 107.5v13q0 188 -211 188q-107 0 -166 -54.5
t-59 -152.5v-110h-142v116q0 149 94.5 234.5t272.5 85.5q348 0 348 -318v-868q-105 -73 -143.5 -115t-38.5 -86q0 -41 27 -63.5t75 -22.5q93 0 117 86h133zM420 104q86 0 143 48q121 95 121 303v243q-19 -34 -59 -56.5t-129 -55.5q-133 -44 -197 -105q-68 -58 -68 -178v-18
q0 -85 50 -133t139 -48z" />
    <glyph glyph-name="Cacute" unicode="&#x106;" horiz-adv-x="1003" 
d="M670 1927h157l-247 -321h-115zM510 -20q-197 0 -297 109.5t-100 340.5v586q0 225 102.5 341t296.5 116q206 0 301.5 -112t95.5 -345v-92h-153v88q0 175 -55 252t-191 77q-129 0 -188.5 -82t-59.5 -247v-574q0 -164 59.5 -242.5t190.5 -78.5q128 0 186 78t58 243v131h155
v-139q0 -450 -401 -450z" />
    <glyph glyph-name="cacute" unicode="&#x107;" horiz-adv-x="927" 
d="M627 1640h157l-247 -321h-115zM469 -18q-190 0 -279.5 101.5t-89.5 307.5v381q0 211 96.5 314.5t280.5 103.5q179 0 271 -92t92 -289v-84h-154v80q0 139 -49.5 197.5t-161.5 58.5q-117 0 -172 -70.5t-55 -222.5v-373q0 -142 53 -212t168 -70q114 0 165.5 62.5t51.5 197.5
v100h154v-104q0 -387 -371 -387z" />
    <glyph glyph-name="Ccircumflex" unicode="&#x108;" horiz-adv-x="1003" 
d="M522 1800l-127 -194h-129l203 299h106l203 -299h-129zM510 -20q-197 0 -297 109.5t-100 340.5v586q0 225 102.5 341t296.5 116q206 0 301.5 -112t95.5 -345v-92h-153v88q0 175 -55 252t-191 77q-129 0 -188.5 -82t-59.5 -247v-574q0 -164 59.5 -242.5t190.5 -78.5
q128 0 186 78t58 243v131h155v-139q0 -450 -401 -450z" />
    <glyph glyph-name="ccircumflex" unicode="&#x109;" horiz-adv-x="927" 
d="M485 1513l-127 -194h-129l203 299h107l202 -299h-129zM469 -18q-190 0 -279.5 101.5t-89.5 307.5v381q0 211 96.5 314.5t280.5 103.5q179 0 271 -92t92 -289v-84h-154v80q0 139 -49.5 197.5t-161.5 58.5q-117 0 -172 -70.5t-55 -222.5v-373q0 -142 53 -212t168 -70
q114 0 165.5 62.5t51.5 197.5v100h154v-104q0 -387 -371 -387z" />
    <glyph glyph-name="Cdotaccent" unicode="&#x10a;" horiz-adv-x="1003" 
d="M522 1604q-55 0 -78.5 24.5t-23.5 87.5q0 60 26 87.5t78 27.5q99 0 99 -115q0 -59 -25 -85.5t-76 -26.5zM510 -20q-197 0 -297 109.5t-100 340.5v586q0 225 102.5 341t296.5 116q206 0 301.5 -112t95.5 -345v-92h-153v88q0 175 -55 252t-191 77q-129 0 -188.5 -82
t-59.5 -247v-574q0 -164 59.5 -242.5t190.5 -78.5q128 0 186 78t58 243v131h155v-139q0 -450 -401 -450z" />
    <glyph glyph-name="cdotaccent" unicode="&#x10b;" horiz-adv-x="927" 
d="M479 1317q-55 0 -78.5 25t-23.5 88q0 60 26 87t78 27q99 0 99 -114q0 -113 -101 -113zM469 -18q-190 0 -279.5 101.5t-89.5 307.5v381q0 211 96.5 314.5t280.5 103.5q179 0 271 -92t92 -289v-84h-154v80q0 139 -49.5 197.5t-161.5 58.5q-117 0 -172 -70.5t-55 -222.5
v-373q0 -142 53 -212t168 -70q114 0 165.5 62.5t51.5 197.5v100h154v-104q0 -387 -371 -387z" />
    <glyph glyph-name="Ccaron" unicode="&#x10c;" horiz-adv-x="1003" 
d="M469 1606l-203 295h131l125 -187l127 187h127l-205 -295h-102zM510 -20q-197 0 -297 109.5t-100 340.5v586q0 225 102.5 341t296.5 116q206 0 301.5 -112t95.5 -345v-92h-153v88q0 175 -55 252t-191 77q-129 0 -188.5 -82t-59.5 -247v-574q0 -164 59.5 -242.5
t190.5 -78.5q128 0 186 78t58 243v131h155v-139q0 -450 -401 -450z" />
    <glyph glyph-name="ccaron" unicode="&#x10d;" horiz-adv-x="927" 
d="M426 1319l-203 295h131l125 -187l127 187h127l-205 -295h-102zM469 -18q-190 0 -279.5 101.5t-89.5 307.5v381q0 211 96.5 314.5t280.5 103.5q179 0 271 -92t92 -289v-84h-154v80q0 139 -49.5 197.5t-161.5 58.5q-117 0 -172 -70.5t-55 -222.5v-373q0 -142 53 -212
t168 -70q114 0 165.5 62.5t51.5 197.5v100h154v-104q0 -387 -371 -387z" />
    <glyph glyph-name="Dcaron" unicode="&#x10e;" horiz-adv-x="1021" 
d="M451 1585l-203 295h131l125 -186l127 186h127l-205 -295h-102zM141 1456h326q135 0 229 -47q215 -100 215 -403v-555q0 -228 -117.5 -339.5t-324.5 -111.5h-328v1456zM287 1329v-1198h178q140 0 217.5 82t77.5 250v534q0 170 -78 251t-221 81h-174z" />
    <glyph glyph-name="dcaron" unicode="&#x10f;" horiz-adv-x="991" 
d="M1038 1642h127l-98 -303h-96zM727 215q-28 -109 -99 -171t-188 -62q-166 0 -253 108.5t-87 329.5v332q0 218 90.5 327t255.5 109q213 0 277 -201v535h137v-1522h-112zM479 113q119 0 181.5 84t62.5 227v332q0 141 -59.5 224t-178.5 83q-117 0 -177 -80.5t-60 -237.5v-315
q0 -317 231 -317z" />
    <glyph glyph-name="Dcroat" unicode="&#x110;" horiz-adv-x="1032" 
d="M158 0v657h-140v134h140v665h325q100 0 179 -26t138.5 -79.5t91.5 -141t32 -203.5v-555q0 -228 -116.5 -339.5t-322.5 -111.5h-327zM301 657v-526h180q140 0 217.5 82t77.5 250v534q0 170 -78 251t-221 81h-176v-538h201v-134h-201z" />
    <glyph glyph-name="dcroat" unicode="&#x111;" horiz-adv-x="993" 
d="M727 215q-28 -109 -99 -171t-188 -62q-166 0 -253 108.5t-87 329.5v332q0 218 90.5 327t255.5 109q213 0 277 -201v307h-166v95h166v133h137v-133h115v-95h-115v-1294h-112zM479 113q119 0 181.5 84t62.5 227v332q0 141 -59.5 224t-178.5 83q-117 0 -177 -80.5
t-60 -237.5v-315q0 -317 231 -317z" />
    <glyph glyph-name="Emacron" unicode="&#x112;" horiz-adv-x="876" 
d="M250 1739h450v-115h-450v115zM807 0h-666v1456h647v-133h-503v-508h436v-135h-436v-543h522v-137z" />
    <glyph glyph-name="emacron" unicode="&#x113;" horiz-adv-x="940" 
d="M270 1456h451v-115h-451v115zM850 352q0 -111 -37 -192q-74 -178 -334 -178q-379 0 -379 403v383q0 201 100 311.5t281 110.5q187 0 278 -109.5t91 -300.5v-237h-610v-154q0 -140 57.5 -208t183.5 -68q114 0 169 56.5t55 172.5v53h145v-43zM240 666h469v118
q0 142 -54 209.5t-174 67.5q-241 0 -241 -289v-106z" />
    <glyph glyph-name="Ebreve" unicode="&#x114;" horiz-adv-x="876" 
d="M471 1581q-145 0 -206 75t-66 224h110q5 -99 41.5 -146t122.5 -48q84 1 123 49t41 145h111q-2 -143 -70.5 -221t-206.5 -78zM807 0h-666v1456h647v-133h-503v-508h436v-135h-436v-543h522v-137z" />
    <glyph glyph-name="ebreve" unicode="&#x115;" horiz-adv-x="940" 
d="M498 1315q-145 0 -206.5 75t-66.5 224h111q5 -99 41.5 -146.5t122.5 -48.5q84 1 123 49.5t41 145.5h110q-2 -143 -70 -221t-206 -78zM850 352q0 -111 -37 -192q-74 -178 -334 -178q-379 0 -379 403v383q0 201 100 311.5t281 110.5q187 0 278 -109.5t91 -300.5v-237h-610
v-154q0 -140 57.5 -208t183.5 -68q114 0 169 56.5t55 172.5v53h145v-43zM240 666h469v118q0 142 -54 209.5t-174 67.5q-241 0 -241 -289v-106z" />
    <glyph glyph-name="Edotaccent" unicode="&#x116;" horiz-adv-x="876" 
d="M467 1583q-55 0 -78.5 25t-23.5 88q0 60 26 87t78 27q98 0 98 -114q0 -59 -25 -86t-75 -27zM807 0h-666v1456h647v-133h-503v-508h436v-135h-436v-543h522v-137z" />
    <glyph glyph-name="edotaccent" unicode="&#x117;" horiz-adv-x="940" 
d="M492 1317q-55 0 -79 25t-24 88q0 60 26.5 87t78.5 27q98 0 98 -114q0 -59 -25 -86t-75 -27zM850 352q0 -111 -37 -192q-74 -178 -334 -178q-379 0 -379 403v383q0 201 100 311.5t281 110.5q187 0 278 -109.5t91 -300.5v-237h-610v-154q0 -140 57.5 -208t183.5 -68
q114 0 169 56.5t55 172.5v53h145v-43zM240 666h469v118q0 142 -54 209.5t-174 67.5q-241 0 -241 -289v-106z" />
    <glyph glyph-name="Eogonek" unicode="&#x118;" horiz-adv-x="876" 
d="M977 -201q-61 -184 -256 -184q-103 0 -159 45t-56 129q0 115 131 211h-496v1456h647v-133h-503v-508h436v-135h-436v-543h522v-137q-105 -73 -143.5 -115t-38.5 -86q0 -41 27 -63.5t75 -22.5q93 0 117 86h133z" />
    <glyph glyph-name="eogonek" unicode="&#x119;" horiz-adv-x="940" 
d="M608 -360q-103 0 -159 45t-56 129q0 91 80 168q-373 3 -373 403v383q0 201 100 311.5t281 110.5q187 0 278 -109.5t91 -300.5v-237h-610v-154q0 -140 57.5 -208t183.5 -68q114 0 169 56.5t55 172.5v53h145v-43q0 -243 -158 -325l2 -2q-105 -73 -143.5 -115t-38.5 -86
q0 -41 27 -63.5t75 -22.5q93 0 117 86h133q-61 -184 -256 -184zM240 666h469v118q0 142 -54 209.5t-174 67.5q-241 0 -241 -289v-106z" />
    <glyph glyph-name="Ecaron" unicode="&#x11a;" horiz-adv-x="876" 
d="M412 1585l-203 295h131l125 -186l127 186h127l-205 -295h-102zM807 0h-666v1456h647v-133h-503v-508h436v-135h-436v-543h522v-137z" />
    <glyph glyph-name="ecaron" unicode="&#x11b;" horiz-adv-x="940" 
d="M440 1319l-202 295h131l125 -187l127 187h127l-205 -295h-103zM850 352q0 -111 -37 -192q-74 -178 -334 -178q-379 0 -379 403v383q0 201 100 311.5t281 110.5q187 0 278 -109.5t91 -300.5v-237h-610v-154q0 -140 57.5 -208t183.5 -68q114 0 169 56.5t55 172.5v53h145
v-43zM240 666h469v118q0 142 -54 209.5t-174 67.5q-241 0 -241 -289v-106z" />
    <glyph glyph-name="Gcircumflex" unicode="&#x11c;" horiz-adv-x="1036" 
d="M528 1800l-127 -194h-129l203 299h107l202 -299h-129zM795 242q-58 -262 -314 -262q-368 0 -368 452v580q0 229 107 345t310 116q184 0 282.5 -96.5t98.5 -278.5v-135h-151v133q0 245 -234 245q-137 0 -201.5 -83t-64.5 -254v-564q0 -168 62.5 -245.5t195.5 -77.5
q122 0 185 85t63 228v182h-260v131h405v-743h-94z" />
    <glyph glyph-name="gcircumflex" unicode="&#x11d;" horiz-adv-x="911" 
d="M449 1587l-127 -194h-129l202 299h107l203 -299h-130zM399 -397q-336 0 -336 202q0 73 58 127.5t158 79.5q-209 15 -209 170q0 145 206 180q-87 29 -128.5 95t-41.5 174v225q0 132 69 213.5t198 108.5q14 6 67 12l125 22q44 11 61 32t17 67v10h158v-35q0 -71 -49.5 -97
t-194.5 -30l39 -6q97 -14 159 -89.5t62 -199.5v-231q0 -154 -95.5 -236t-262.5 -82h-39q-119 0 -169 -23.5t-50 -72.5q0 -42 37 -61.5t124 -18.5h211q159 0 235.5 -63t76.5 -178v-4q0 -85 -47 -146q-97 -145 -398 -145h-41zM457 426q104 0 158.5 53t54.5 154v229
q0 104 -50.5 159.5t-150.5 55.5q-45 0 -76 -8q-141 -41 -141 -213v-225q0 -205 205 -205zM461 -274q134 0 208 43.5t74 113.5v4q0 62 -45 93.5t-145 31.5h-129q-97 -8 -158 -53.5t-61 -112.5v-4q0 -55 52 -85.5t153 -30.5h51z" />
    <glyph glyph-name="Gbreve" unicode="&#x11e;" horiz-adv-x="1036" 
d="M526 1602q-145 0 -206 75t-66 224h111q5 -100 41 -147t122 -48q84 1 123 49.5t41 145.5h111q-2 -143 -70.5 -221t-206.5 -78zM795 242q-58 -262 -314 -262q-368 0 -368 452v580q0 229 107 345t310 116q184 0 282.5 -96.5t98.5 -278.5v-135h-151v133q0 245 -234 245
q-137 0 -201.5 -83t-64.5 -254v-564q0 -168 62.5 -245.5t195.5 -77.5q122 0 185 85t63 228v182h-260v131h405v-743h-94z" />
    <glyph glyph-name="gbreve" unicode="&#x11f;" horiz-adv-x="911" 
d="M440 1348q-145 0 -206 75t-66 224h111q5 -100 41 -147t122 -48q84 1 123 49.5t41 145.5h111q-2 -143 -70.5 -221t-206.5 -78zM399 -397q-336 0 -336 202q0 73 58 127.5t158 79.5q-209 15 -209 170q0 145 206 180q-87 29 -128.5 95t-41.5 174v225q0 132 69 213.5
t198 108.5q14 6 67 12l125 22q44 11 61 32t17 67v10h158v-35q0 -71 -49.5 -97t-194.5 -30l39 -6q97 -14 159 -89.5t62 -199.5v-231q0 -154 -95.5 -236t-262.5 -82h-39q-119 0 -169 -23.5t-50 -72.5q0 -42 37 -61.5t124 -18.5h211q159 0 235.5 -63t76.5 -178v-4
q0 -85 -47 -146q-97 -145 -398 -145h-41zM457 426q104 0 158.5 53t54.5 154v229q0 104 -50.5 159.5t-150.5 55.5q-45 0 -76 -8q-141 -41 -141 -213v-225q0 -205 205 -205zM461 -274q134 0 208 43.5t74 113.5v4q0 62 -45 93.5t-145 31.5h-129q-97 -8 -158 -53.5t-61 -112.5
v-4q0 -55 52 -85.5t153 -30.5h51z" />
    <glyph glyph-name="Gdotaccent" unicode="&#x120;" horiz-adv-x="1036" 
d="M528 1604q-55 0 -78.5 24.5t-23.5 87.5q0 60 26 87.5t78 27.5q99 0 99 -115q0 -59 -25 -85.5t-76 -26.5zM795 242q-58 -262 -314 -262q-368 0 -368 452v580q0 229 107 345t310 116q184 0 282.5 -96.5t98.5 -278.5v-135h-151v133q0 245 -234 245q-137 0 -201.5 -83
t-64.5 -254v-564q0 -168 62.5 -245.5t195.5 -77.5q122 0 185 85t63 228v182h-260v131h405v-743h-94z" />
    <glyph glyph-name="gdotaccent" unicode="&#x121;" horiz-adv-x="911" 
d="M469 1350q-55 0 -78.5 24.5t-23.5 87.5q0 60 26 87.5t78 27.5q98 0 98 -115q0 -59 -24.5 -85.5t-75.5 -26.5zM399 -397q-336 0 -336 202q0 73 58 127.5t158 79.5q-209 15 -209 170q0 145 206 180q-87 29 -128.5 95t-41.5 174v225q0 132 69 213.5t198 108.5q14 6 67 12
l125 22q44 11 61 32t17 67v10h158v-35q0 -71 -49.5 -97t-194.5 -30l39 -6q97 -14 159 -89.5t62 -199.5v-231q0 -154 -95.5 -236t-262.5 -82h-39q-119 0 -169 -23.5t-50 -72.5q0 -42 37 -61.5t124 -18.5h211q159 0 235.5 -63t76.5 -178v-4q0 -85 -47 -146q-97 -145 -398 -145
h-41zM457 426q104 0 158.5 53t54.5 154v229q0 104 -50.5 159.5t-150.5 55.5q-45 0 -76 -8q-141 -41 -141 -213v-225q0 -205 205 -205zM461 -274q134 0 208 43.5t74 113.5v4q0 62 -45 93.5t-145 31.5h-129q-97 -8 -158 -53.5t-61 -112.5v-4q0 -55 52 -85.5t153 -30.5h51z" />
    <glyph glyph-name="uni0122" unicode="&#x122;" horiz-adv-x="1036" 
d="M795 242q-58 -262 -314 -262q-368 0 -368 452v580q0 229 107 345t310 116q184 0 282.5 -96.5t98.5 -278.5v-135h-151v133q0 245 -234 245q-137 0 -201.5 -83t-64.5 -254v-564q0 -168 62.5 -245.5t195.5 -77.5q122 0 185 85t63 228v182h-260v131h405v-743h-94zM442 -442
q81 25 93 131q-16 -4 -23 -4q-42 0 -60 18.5t-18 73.5q0 53 23 76.5t71 23.5q54 0 76.5 -31.5t22.5 -107.5q0 -101 -44.5 -169.5t-131.5 -88.5z" />
    <glyph glyph-name="uni0123" unicode="&#x123;" horiz-adv-x="911" 
d="M459 1333q-51 0 -74 33t-23 109q0 101 45 169.5t132 88.5l8 -78q-80 -25 -92 -131q16 4 22 4q40 0 59 -18.5t19 -73.5q0 -103 -96 -103zM399 -397q-336 0 -336 202q0 73 58 127.5t158 79.5q-209 15 -209 170q0 145 206 180q-87 29 -128.5 95t-41.5 174v225
q0 132 69 213.5t198 108.5q14 6 67 12l125 22q44 11 61 32t17 67v10h158v-35q0 -71 -49.5 -97t-194.5 -30l39 -6q97 -14 159 -89.5t62 -199.5v-231q0 -154 -95.5 -236t-262.5 -82h-39q-119 0 -169 -23.5t-50 -72.5q0 -42 37 -61.5t124 -18.5h211q159 0 235.5 -63t76.5 -178
v-4q0 -85 -47 -146q-97 -145 -398 -145h-41zM457 426q104 0 158.5 53t54.5 154v229q0 104 -50.5 159.5t-150.5 55.5q-45 0 -76 -8q-141 -41 -141 -213v-225q0 -205 205 -205zM461 -274q134 0 208 43.5t74 113.5v4q0 62 -45 93.5t-145 31.5h-129q-97 -8 -158 -53.5
t-61 -112.5v-4q0 -55 52 -85.5t153 -30.5h51z" />
    <glyph glyph-name="Hcircumflex" unicode="&#x124;" horiz-adv-x="1038" 
d="M518 1763l-127 -194h-129l203 299h106l203 -299h-129zM754 657h-467v-657h-146v1456h146v-659h467v659h145v-1456h-145v657z" />
    <glyph glyph-name="hcircumflex" unicode="&#x125;" horiz-adv-x="972" 
d="M201 1845l-127 -194h-129l202 299h107l203 -299h-129zM270 0h-139v1522h139v-555q30 106 99.5 163.5t177.5 57.5q150 0 225.5 -95t75.5 -274v-819h-146v801q0 130 -47 194t-153 64q-112 0 -172 -79.5t-60 -221.5v-758z" />
    <glyph glyph-name="Hbar" unicode="&#x126;" horiz-adv-x="1069" 
d="M770 629h-469v-629h-145v1034h-136v127h136v295h145v-295h469v295h143v-295h138v-127h-138v-1034h-143v629zM770 1034h-469v-274h469v274z" />
    <glyph glyph-name="hbar" unicode="&#x127;" horiz-adv-x="970" 
d="M270 0h-139v1296h-113v95h113v131h139v-131h162v-95h-162v-329q30 106 99.5 163.5t177.5 57.5q150 0 225.5 -95t75.5 -274v-819h-146v801q0 130 -47 194t-153 64q-112 0 -172 -79.5t-60 -221.5v-758z" />
    <glyph glyph-name="Itilde" unicode="&#x128;" horiz-adv-x="675" 
d="M39 1591q2 111 40.5 166t125.5 55q62 0 104 -28q15 -10 41 -30t40.5 -30t34 -19t36.5 -9q36 0 51.5 24t15.5 88h103q0 -109 -39.5 -166t-128.5 -57q-62 0 -105 29q-15 10 -40 29.5t-39.5 30t-35 19.5t-38.5 9q-33 0 -47.5 -26t-14.5 -85h-104zM70 0v137h196v1186h-196
v133h536v-133h-198v-1186h198v-137h-536z" />
    <glyph glyph-name="itilde" unicode="&#x129;" horiz-adv-x="405" 
d="M-88 1307q2 111 40.5 166t125.5 55q60 0 104 -29q15 -10 41 -30t40.5 -30t34 -19t36.5 -9q36 0 51.5 24.5t15.5 88.5h103q0 -109 -39.5 -166.5t-128.5 -57.5q-62 0 -105 29q-15 10 -40 29.5t-39.5 30t-35 19.5t-38.5 9q-33 0 -47.5 -25.5t-14.5 -84.5h-104zM131 0v1171
h143v-1171h-143z" />
    <glyph glyph-name="Imacron" unicode="&#x12a;" horiz-adv-x="675" 
d="M117 1737h450v-115h-450v115zM70 0v137h196v1186h-196v133h536v-133h-198v-1186h198v-137h-536z" />
    <glyph glyph-name="imacron" unicode="&#x12b;" horiz-adv-x="405" 
d="M-20 1440h450v-115h-450v115zM131 0v1171h143v-1171h-143z" />
    <glyph glyph-name="Ibreve" unicode="&#x12c;" horiz-adv-x="675" 
d="M336 1581q-145 0 -206.5 75t-66.5 224h111q5 -99 41.5 -146t122.5 -48q84 1 123 49t41 145h110q-2 -143 -70 -221t-206 -78zM70 0v137h196v1186h-196v133h536v-133h-198v-1186h198v-137h-536z" />
    <glyph glyph-name="ibreve" unicode="&#x12d;" horiz-adv-x="405" 
d="M201 1298q-145 0 -206.5 75t-66.5 224h111q5 -99 41.5 -146t122.5 -48q84 1 123 49t41 145h110q-2 -143 -70 -221t-206 -78zM131 0v1171h143v-1171h-143z" />
    <glyph glyph-name="Iogonek" unicode="&#x12e;" horiz-adv-x="675" 
d="M776 -201q-61 -184 -256 -184q-103 0 -159 45t-56 129q0 115 131 211h-366v137h196v1186h-196v133h536v-133h-198v-1186h198v-137q-105 -73 -143.5 -115t-38.5 -86q0 -41 27 -63.5t75 -22.5q93 0 117 86h133z" />
    <glyph glyph-name="iogonek" unicode="&#x12f;" horiz-adv-x="405" 
d="M207 1294q-54 0 -75 24.5t-21 88.5q0 61 22 86t74 25q53 0 74.5 -25t21.5 -86t-23 -87t-73 -26zM444 -201q-61 -184 -256 -184q-103 0 -159 45t-56 129q0 61 36 116t122 113v1153h143v-1171q-105 -73 -143.5 -115t-38.5 -86q0 -41 27.5 -63.5t75.5 -22.5q92 0 116 86h133
z" />
    <glyph glyph-name="Idotaccent" unicode="&#x130;" horiz-adv-x="675" 
d="M338 1583q-55 0 -78.5 25t-23.5 88q0 60 26 87t78 27q98 0 98 -114q0 -59 -25 -86t-75 -27zM70 0v137h196v1186h-196v133h536v-133h-198v-1186h198v-137h-536z" />
    <glyph glyph-name="dotlessi" unicode="&#x131;" horiz-adv-x="405" 
d="M131 0v1171h143v-1171h-143z" />
    <glyph glyph-name="IJ" unicode="&#x132;" horiz-adv-x="1204" 
d="M70 0v137h196v1186h-196v133h532v-133h-194v-1186h194v-137h-532zM723 137h39q101 0 133.5 42t32.5 165v1112h149v-1118q0 -129 -28 -205q-26 -72 -94 -102.5t-193 -30.5h-39v137z" />
    <glyph glyph-name="ij" unicode="&#x133;" horiz-adv-x="804" 
d="M201 1296q-52 0 -73.5 24.5t-21.5 88.5q0 61 23 87t74 26q50 0 72 -26t22 -87q0 -62 -22 -87.5t-74 -25.5zM604 1296q-52 0 -74 25t-22 88q0 61 23 87t73 26q52 0 74 -25.5t22 -87.5q0 -61 -23 -87t-73 -26zM127 1174l6 -2q6 -1 12 -1q23 -2 56 -2q68 0 73 5v-1174h-147
v1174zM215 -209h174q89 0 116 32t27 136v1215q15 -5 72 -5q65 0 70 5v-1229q0 -117 -23 -176q-23 -64 -80.5 -89.5t-169.5 -25.5h-186v137z" />
    <glyph glyph-name="Jcircumflex" unicode="&#x134;" horiz-adv-x="874" 
d="M674 1780l-127 -195h-129l203 299h106l203 -299h-129zM410 -20q-163 0 -247.5 87t-84.5 255v194h149v-186q0 -211 183 -211q102 0 145 57.5t43 190.5v1089h150v-1096q0 -194 -83.5 -287t-254.5 -93z" />
    <glyph glyph-name="jcircumflex" unicode="&#x135;" horiz-adv-x="407" 
d="M205 1497l-127 -194h-129l203 299h106l203 -299h-129zM-59 -221h51q89 0 115 31.5t26 138.5v1222h143v-1237q0 -122 -22 -178q-23 -63 -80.5 -88.5t-169.5 -25.5h-63v137z" />
    <glyph glyph-name="uni0136" unicode="&#x136;" horiz-adv-x="995" 
d="M473 829l-190 -288v-541h-142v1456h142v-692l-4 -55l8 18l467 729h166l-342 -530l372 -926h-159l-297 762zM436 -408q80 25 92 132q-20 -5 -22 -5q-41 0 -59.5 19t-18.5 74q0 53 23 76.5t71 23.5q54 0 76.5 -31.5t22.5 -107.5q0 -101 -45 -169.5t-132 -88.5z" />
    <glyph glyph-name="uni0137" unicode="&#x137;" horiz-adv-x="907" 
d="M449 653l-179 -258v-395h-139v1522h139v-904l-2 -67l13 31l407 589h166l-297 -430l320 -741h-156zM397 -410q80 25 92 131q-16 -4 -22 -4q-41 0 -59.5 19t-18.5 74q0 53 23 76.5t71 23.5q54 0 76.5 -31.5t22.5 -107.5q0 -101 -44.5 -169.5t-131.5 -88.5z" />
    <glyph glyph-name="kgreenlandic" unicode="&#x138;" horiz-adv-x="907" 
d="M449 653l-179 -258v-395h-139v1171h139v-553l-2 -67l13 31l407 589h166l-297 -430l320 -741h-156z" />
    <glyph glyph-name="Lacute" unicode="&#x139;" horiz-adv-x="813" 
d="M354 1907h158l-248 -322h-114zM141 0v1456h146v-1317h467v-139h-613z" />
    <glyph glyph-name="lacute" unicode="&#x13a;" horiz-adv-x="405" 
d="M348 1972h158l-248 -321h-115zM131 0v1522h143v-1522h-143z" />
    <glyph glyph-name="uni013B" unicode="&#x13b;" horiz-adv-x="813" 
d="M141 0v1456h146v-1317h467v-139h-613zM369 -422q80 25 92 131q-16 -4 -23 -4q-42 0 -60 18.5t-18 73.5q0 53 23.5 77t71.5 24q54 0 76 -31.5t22 -108.5q0 -101 -44.5 -169.5t-131.5 -88.5z" />
    <glyph glyph-name="uni013C" unicode="&#x13c;" horiz-adv-x="405" 
d="M131 0v1522h143v-1522h-143zM125 -436q80 25 92 131q-16 -4 -22 -4q-42 0 -60 18.5t-18 73.5q0 53 23 76.5t71 23.5q54 0 76 -31t22 -108q0 -101 -44.5 -169.5t-131.5 -88.5z" />
    <glyph glyph-name="Lcaron" unicode="&#x13d;" horiz-adv-x="813" 
d="M584 1604h127l-99 -304h-96zM141 0v1456h146v-1317h467v-139h-613z" />
    <glyph glyph-name="lcaron" unicode="&#x13e;" horiz-adv-x="405" 
d="M461 1638h127l-99 -303h-96zM131 0v1522h143v-1522h-143z" />
    <glyph glyph-name="Ldot" unicode="&#x13f;" horiz-adv-x="813" 
d="M141 0v1456h146v-1317h467v-139h-613zM662 518q-55 0 -79 25t-24 88q0 60 26.5 87t78.5 27q98 0 98 -114q0 -59 -25 -86t-75 -27z" />
    <glyph glyph-name="ldot" unicode="&#x140;" horiz-adv-x="579" 
d="M131 0v1522h143v-1522h-143zM487 446q-55 0 -78.5 25t-23.5 88q0 60 26 87.5t78 27.5q99 0 99 -115q0 -113 -101 -113z" />
    <glyph glyph-name="Lslash" unicode="&#x141;" horiz-adv-x="833" 
d="M162 0v670l-123 -37l-35 119l158 49v655h145v-610l207 63l33 -121l-240 -73v-576h467v-139h-612z" />
    <glyph glyph-name="lslash" unicode="&#x142;" horiz-adv-x="436" 
d="M150 0v582l-121 -39l-27 88l148 49v842h143v-795l119 39l26 -88l-145 -47v-631h-143z" />
    <glyph glyph-name="Nacute" unicode="&#x143;" horiz-adv-x="1079" 
d="M686 1882h158l-248 -321h-115zM274 0h-133v1456h127l475 -1024l82 -223l-22 242v1005h135v-1456h-125l-479 1032l-82 256l22 -274v-1014z" />
    <glyph glyph-name="nacute" unicode="&#x144;" horiz-adv-x="972" 
d="M643 1636h158l-248 -321h-115zM274 0h-145v1171h117l16 -217q56 234 285 234q305 0 305 -371v-817h-145v799q0 130 -48 195t-155 65q-113 0 -171.5 -77.5t-58.5 -223.5v-758z" />
    <glyph glyph-name="uni0145" unicode="&#x145;" horiz-adv-x="1079" 
d="M274 0h-133v1456h127l475 -1024l82 -223l-22 242v1005h135v-1456h-125l-479 1032l-82 256l22 -274v-1014zM438 -406q80 25 92 132q-20 -5 -22 -5q-41 0 -59.5 19t-18.5 74q0 53 23 76.5t71 23.5q54 0 76.5 -31.5t22.5 -107.5q0 -101 -45 -169.5t-132 -88.5z" />
    <glyph glyph-name="uni0146" unicode="&#x146;" horiz-adv-x="972" 
d="M274 0h-145v1171h117l16 -217q56 234 285 234q305 0 305 -371v-817h-145v799q0 130 -48 195t-155 65q-113 0 -171.5 -77.5t-58.5 -223.5v-758zM406 -412q80 25 92 131q-16 -4 -23 -4q-42 0 -60 18.5t-18 73.5q0 53 23.5 77t71.5 24q54 0 76 -31t22 -108
q0 -101 -44.5 -169.5t-131.5 -88.5z" />
    <glyph glyph-name="Ncaron" unicode="&#x147;" horiz-adv-x="1079" 
d="M485 1563l-202 295h131l125 -187l127 187h127l-205 -295h-103zM274 0h-133v1456h127l475 -1024l82 -223l-22 242v1005h135v-1456h-125l-479 1032l-82 256l22 -274v-1014z" />
    <glyph glyph-name="ncaron" unicode="&#x148;" horiz-adv-x="972" 
d="M442 1315l-202 295h131l125 -187l127 187h127l-205 -295h-103zM274 0h-145v1171h117l16 -217q56 234 285 234q305 0 305 -371v-817h-145v799q0 130 -48 195t-155 65q-113 0 -171.5 -77.5t-58.5 -223.5v-758z" />
    <glyph glyph-name="Eng" unicode="&#x14a;" horiz-adv-x="1077" 
d="M602 -356v135h51q92 0 121 31.5t29 138.5v74l-479 1040l-72 225l22 -270v-1018h-133v1456h127l486 -1046l71 -199l-22 238v1007h135v-1524q0 -105 -23 -176q-23 -61 -80 -86.5t-167 -25.5h-66z" />
    <glyph glyph-name="eng" unicode="&#x14b;" horiz-adv-x="974" 
d="M514 -358v137h51q87 0 114.5 32t27.5 138v850q0 130 -48 195t-155 65q-113 0 -171.5 -77.5t-58.5 -223.5v-758h-145v1171h117l16 -217q56 234 285 234q305 0 305 -371v-883q0 -113 -23 -180q-24 -63 -82.5 -87.5t-171.5 -24.5h-61z" />
    <glyph glyph-name="Omacron" unicode="&#x14c;" horiz-adv-x="1034" 
d="M295 1743h450v-115h-450v115zM516 -20q-403 0 -403 452v580q0 224 105 341t300 117q196 0 301 -117t105 -341v-580q0 -228 -104.5 -340t-303.5 -112zM518 117q254 0 254 323v568q0 165 -62 248t-194 83q-254 0 -254 -331v-568q0 -164 62.5 -243.5t193.5 -79.5z" />
    <glyph glyph-name="omacron" unicode="&#x14d;" horiz-adv-x="958" 
d="M258 1454h451v-115h-451v115zM477 -18q-185 0 -281 101t-96 304v385q0 208 99 313t278 105q181 0 280 -105.5t99 -312.5v-385q0 -200 -99.5 -302.5t-279.5 -102.5zM477 113q232 0 232 278v379q0 291 -232 291q-229 0 -229 -291v-379q0 -278 229 -278z" />
    <glyph glyph-name="Obreve" unicode="&#x14e;" horiz-adv-x="1034" 
d="M516 1602q-145 0 -206 75t-66 224h110q5 -99 41.5 -146.5t122.5 -48.5q84 1 123 49.5t41 145.5h111q-2 -143 -70.5 -221t-206.5 -78zM516 -20q-403 0 -403 452v580q0 224 105 341t300 117q196 0 301 -117t105 -341v-580q0 -228 -104.5 -340t-303.5 -112zM518 117
q254 0 254 323v568q0 165 -62 248t-194 83q-254 0 -254 -331v-568q0 -164 62.5 -243.5t193.5 -79.5z" />
    <glyph glyph-name="obreve" unicode="&#x14f;" horiz-adv-x="958" 
d="M479 1313q-145 0 -206 75t-66 224h110q5 -99 41.5 -146.5t122.5 -48.5q84 1 123 49.5t41 145.5h111q-2 -143 -70.5 -221t-206.5 -78zM477 -18q-185 0 -281 101t-96 304v385q0 208 99 313t278 105q181 0 280 -105.5t99 -312.5v-385q0 -200 -99.5 -302.5t-279.5 -102.5z
M477 113q232 0 232 278v379q0 291 -232 291q-229 0 -229 -291v-379q0 -278 229 -278z" />
    <glyph glyph-name="Ohungarumlaut" unicode="&#x150;" horiz-adv-x="1034" 
d="M449 1606h-107l178 301h152zM692 1606h-106l188 301h154zM516 -20q-403 0 -403 452v580q0 224 105 341t300 117q196 0 301 -117t105 -341v-580q0 -228 -104.5 -340t-303.5 -112zM518 117q254 0 254 323v568q0 165 -62 248t-194 83q-254 0 -254 -331v-568
q0 -164 62.5 -243.5t193.5 -79.5z" />
    <glyph glyph-name="ohungarumlaut" unicode="&#x151;" horiz-adv-x="958" 
d="M412 1317h-107l178 301h152zM655 1317h-106l188 301h154zM477 -18q-185 0 -281 101t-96 304v385q0 208 99 313t278 105q181 0 280 -105.5t99 -312.5v-385q0 -200 -99.5 -302.5t-279.5 -102.5zM477 113q232 0 232 278v379q0 291 -232 291q-229 0 -229 -291v-379
q0 -278 229 -278z" />
    <glyph glyph-name="OE" unicode="&#x152;" horiz-adv-x="1503" 
d="M768 154q-31 -88 -98.5 -131t-182.5 -43q-179 0 -276.5 111.5t-97.5 340.5v580q0 223 100.5 340.5t280.5 117.5q112 0 177 -43t97 -131v160h647v-133h-504v-508h437v-135h-437v-543h523v-137h-666v154zM518 117q254 0 254 323v568q0 165 -62 248t-194 83
q-254 0 -254 -331v-568q0 -164 62.5 -243.5t193.5 -79.5z" />
    <glyph glyph-name="oe" unicode="&#x153;" horiz-adv-x="1558" 
d="M1468 344q0 -171 -93 -266.5t-275 -95.5q-249 0 -322 178q-70 -178 -309 -178q-369 0 -369 405v385q0 207 98 312.5t273 105.5q241 0 311 -193q78 193 322 193q182 0 273 -110t91 -300v-241h-618v-146q0 -280 240 -280q231 0 231 227v55h147v-51zM477 113q232 0 232 278
v379q0 291 -232 291q-229 0 -229 -291v-379q0 -278 229 -278zM850 659h477v125q0 277 -231 277q-246 0 -246 -289v-113z" />
    <glyph glyph-name="Racute" unicode="&#x154;" horiz-adv-x="987" 
d="M635 1907h158l-248 -322h-115zM285 612v-612h-144v1456h367q196 0 285.5 -85.5t89.5 -254.5v-145q0 -223 -189 -289q92 -25 132 -89t40 -187v-318q0 -53 35 -88h-162q-22 22 -22 90v311q0 116 -47.5 163.5t-171.5 47.5h-213zM285 1327v-586h215q235 0 235 236v129
q0 112 -54.5 166.5t-178.5 54.5h-217z" />
    <glyph glyph-name="racute" unicode="&#x155;" horiz-adv-x="628" 
d="M481 1610h158l-248 -322h-115zM129 0v1171h111l24 -227q18 130 84 182t203 52h37v-156h-56q-149 0 -204.5 -73.5t-55.5 -246.5v-702h-143z" />
    <glyph glyph-name="uni0156" unicode="&#x156;" horiz-adv-x="987" 
d="M285 612v-612h-144v1456h367q196 0 285.5 -85.5t89.5 -254.5v-145q0 -223 -189 -289q92 -25 132 -89t40 -187v-318q0 -53 35 -88h-162q-22 22 -22 90v311q0 116 -47.5 163.5t-171.5 47.5h-213zM285 1327v-586h215q235 0 235 236v129q0 112 -54.5 166.5t-178.5 54.5h-217z
M418 -410q80 25 92 131q-16 -4 -23 -4q-41 0 -59 19t-18 74q0 53 23 76.5t71 23.5q54 0 76 -31t22 -108q0 -101 -44.5 -169.5t-131.5 -88.5z" />
    <glyph glyph-name="uni0157" unicode="&#x157;" horiz-adv-x="628" 
d="M129 0v1171h111l24 -227q18 130 84 182t203 52h37v-156h-56q-149 0 -204.5 -73.5t-55.5 -246.5v-702h-143zM113 -436q80 25 92 131q-16 -4 -23 -4q-42 0 -60 18.5t-18 73.5q0 53 23.5 76.5t71.5 23.5q54 0 76 -31t22 -108q0 -101 -44.5 -169.5t-131.5 -88.5z" />
    <glyph glyph-name="Rcaron" unicode="&#x158;" horiz-adv-x="987" 
d="M434 1585l-203 295h131l125 -186l127 186h127l-204 -295h-103zM285 612v-612h-144v1456h367q196 0 285.5 -85.5t89.5 -254.5v-145q0 -223 -189 -289q92 -25 132 -89t40 -187v-318q0 -53 35 -88h-162q-22 22 -22 90v311q0 116 -47.5 163.5t-171.5 47.5h-213zM285 1327
v-586h215q235 0 235 236v129q0 112 -54.5 166.5t-178.5 54.5h-217z" />
    <glyph glyph-name="rcaron" unicode="&#x159;" horiz-adv-x="628" 
d="M281 1288l-203 295h131l125 -186l127 186h127l-205 -295h-102zM129 0v1171h111l24 -227q18 130 84 182t203 52h37v-156h-56q-149 0 -204.5 -73.5t-55.5 -246.5v-702h-143z" />
    <glyph glyph-name="Sacute" unicode="&#x15a;" horiz-adv-x="931" 
d="M602 1927h158l-248 -321h-115zM479 -18q-209 0 -304 93t-95 279v168h151v-166q0 -241 248 -241q116 0 173 61t57 162v63q0 85 -41 138q-26 34 -69.5 64.5t-78.5 47.5t-98 45q-95 46 -152 78q-168 101 -168 299v51q0 156 93.5 251t269.5 95q182 0 273 -88t91 -245v-146
h-145v137q0 218 -219 218q-105 0 -161 -61.5t-56 -162.5v-43q0 -78 41 -131q37 -44 93.5 -77t147.5 -74q122 -60 154 -80q170 -102 170 -305v-74q0 -159 -98.5 -257.5t-276.5 -98.5z" />
    <glyph glyph-name="sacute" unicode="&#x15b;" horiz-adv-x="868" 
d="M580 1640h157l-248 -321h-114zM440 -18q-186 0 -275 80t-89 243v113h151v-105q0 -101 51.5 -151.5t163.5 -50.5q103 0 155 50t52 144v27q0 67 -37 104q-23 26 -63 49t-66.5 33.5t-89.5 34.5q-85 31 -141 61q-156 81 -156 248v27q0 137 87.5 219t248.5 82q166 0 253 -79.5
t87 -221.5v-88h-143v86q0 178 -197 178q-95 0 -143.5 -47t-48.5 -127v-21q0 -59 34 -96q7 -7 16 -14t16.5 -13t19.5 -12.5t19.5 -10.5t22.5 -11t21.5 -10t24.5 -10t23.5 -9.5t26 -10t25.5 -9.5q77 -28 144 -64q160 -80 160 -258v-37q0 -154 -89.5 -238.5t-263.5 -84.5z" />
    <glyph glyph-name="Scircumflex" unicode="&#x15c;" horiz-adv-x="931" 
d="M473 1798l-127 -194h-129l203 299h106l203 -299h-129zM479 -18q-209 0 -304 93t-95 279v168h151v-166q0 -241 248 -241q116 0 173 61t57 162v63q0 85 -41 138q-26 34 -69.5 64.5t-78.5 47.5t-98 45q-95 46 -152 78q-168 101 -168 299v51q0 156 93.5 251t269.5 95
q182 0 273 -88t91 -245v-146h-145v137q0 218 -219 218q-105 0 -161 -61.5t-56 -162.5v-43q0 -78 41 -131q37 -44 93.5 -77t147.5 -74q122 -60 154 -80q170 -102 170 -305v-74q0 -159 -98.5 -257.5t-276.5 -98.5z" />
    <glyph glyph-name="scircumflex" unicode="&#x15d;" horiz-adv-x="868" 
d="M434 1513l-127 -194h-129l203 299h106l203 -299h-129zM440 -18q-186 0 -275 80t-89 243v113h151v-105q0 -101 51.5 -151.5t163.5 -50.5q103 0 155 50t52 144v27q0 67 -37 104q-23 26 -63 49t-66.5 33.5t-89.5 34.5q-85 31 -141 61q-156 81 -156 248v27q0 137 87.5 219
t248.5 82q166 0 253 -79.5t87 -221.5v-88h-143v86q0 178 -197 178q-95 0 -143.5 -47t-48.5 -127v-21q0 -59 34 -96q7 -7 16 -14t16.5 -13t19.5 -12.5t19.5 -10.5t22.5 -11t21.5 -10t24.5 -10t23.5 -9.5t26 -10t25.5 -9.5q77 -28 144 -64q160 -80 160 -258v-37
q0 -154 -89.5 -238.5t-263.5 -84.5z" />
    <glyph glyph-name="uni015E" unicode="&#x15e;" horiz-adv-x="931" 
d="M485 -467q-124 0 -184 48t-74 147h129q12 -99 129 -99q121 0 121 88q0 78 -125 78h-65v189q-176 13 -256 105t-80 265v168h151v-166q0 -241 248 -241q116 0 173 61t57 162v63q0 85 -41 138q-26 34 -69.5 64.5t-78.5 47.5t-98 45q-95 46 -152 78q-168 101 -168 299v51
q0 156 93.5 251t269.5 95q182 0 273 -88t91 -245v-146h-145v137q0 218 -219 218q-105 0 -161 -61.5t-56 -162.5v-43q0 -78 41 -131q37 -44 93.5 -77t147.5 -74q122 -60 154 -80q170 -102 170 -305v-74q0 -149 -85.5 -245t-242.5 -109v-103q96 -1 147.5 -43.5t51.5 -116.5
q0 -90 -64 -139t-176 -49z" />
    <glyph glyph-name="uni015F" unicode="&#x15f;" horiz-adv-x="868" 
d="M463 -467q-124 0 -184 48t-74 147h129q12 -99 129 -99q121 0 121 88q0 78 -125 78h-66v189q-317 15 -317 321v113h151v-105q0 -101 51.5 -151.5t163.5 -50.5q103 0 155 50t52 144v27q0 67 -37 104q-23 26 -63 49t-66.5 33.5t-89.5 34.5q-85 31 -141 61q-156 81 -156 248
v27q0 137 87.5 219t248.5 82q166 0 253 -79.5t87 -221.5v-88h-143v86q0 178 -197 178q-95 0 -143.5 -47t-48.5 -127v-21q0 -59 34 -96q7 -7 16 -14t16.5 -13t19.5 -12.5t19.5 -10.5t22.5 -11t21.5 -10t24.5 -10t23.5 -9.5t26 -10t25.5 -9.5q77 -28 144 -64q160 -80 160 -258
v-37q0 -285 -289 -319v-105q96 -1 147 -43.5t51 -116.5q0 -90 -63.5 -139t-175.5 -49z" />
    <glyph glyph-name="Scaron" unicode="&#x160;" horiz-adv-x="931" 
d="M414 1606l-203 295h131l125 -187l127 187h127l-205 -295h-102zM479 -18q-209 0 -304 93t-95 279v168h151v-166q0 -241 248 -241q116 0 173 61t57 162v63q0 85 -41 138q-26 34 -69.5 64.5t-78.5 47.5t-98 45q-95 46 -152 78q-168 101 -168 299v51q0 156 93.5 251t269.5 95
q182 0 273 -88t91 -245v-146h-145v137q0 218 -219 218q-105 0 -161 -61.5t-56 -162.5v-43q0 -78 41 -131q37 -44 93.5 -77t147.5 -74q122 -60 154 -80q170 -102 170 -305v-74q0 -159 -98.5 -257.5t-276.5 -98.5z" />
    <glyph glyph-name="scaron" unicode="&#x161;" horiz-adv-x="868" 
d="M377 1319l-203 295h131l125 -187l127 187h127l-205 -295h-102zM440 -18q-186 0 -275 80t-89 243v113h151v-105q0 -101 51.5 -151.5t163.5 -50.5q103 0 155 50t52 144v27q0 67 -37 104q-23 26 -63 49t-66.5 33.5t-89.5 34.5q-85 31 -141 61q-156 81 -156 248v27
q0 137 87.5 219t248.5 82q166 0 253 -79.5t87 -221.5v-88h-143v86q0 178 -197 178q-95 0 -143.5 -47t-48.5 -127v-21q0 -59 34 -96q7 -7 16 -14t16.5 -13t19.5 -12.5t19.5 -10.5t22.5 -11t21.5 -10t24.5 -10t23.5 -9.5t26 -10t25.5 -9.5q77 -28 144 -64q160 -80 160 -258
v-37q0 -154 -89.5 -238.5t-263.5 -84.5z" />
    <glyph glyph-name="uni0162" unicode="&#x162;" horiz-adv-x="806" 
d="M473 1321v-1321h-145v1321h-279v135h709v-135h-285zM324 -422q80 25 92 131q-16 -4 -23 -4q-42 0 -60 18.5t-18 73.5q0 53 23.5 77t71.5 24q54 0 76 -31.5t22 -108.5q0 -101 -44.5 -169.5t-131.5 -88.5z" />
    <glyph glyph-name="uni0163" unicode="&#x163;" horiz-adv-x="614" 
d="M559 0h-84q-108 0 -174 29q-63 29 -89 103t-26 216v690h-153v123q67 0 96 13q32 6 46.5 22.5t21.5 56.5q14 50 18 154h107v-236h237v-133h-237v-678q0 -85 14 -143q17 -45 54.5 -61.5t113.5 -16.5h55v-139zM295 -432q80 25 92 131q-16 -4 -22 -4q-42 0 -60 18.5t-18 73.5
q0 53 23 76.5t71 23.5q54 0 76 -31t22 -108q0 -101 -44.5 -169.5t-131.5 -88.5z" />
    <glyph glyph-name="Tcaron" unicode="&#x164;" horiz-adv-x="806" 
d="M350 1585l-203 295h132l124 -186l127 186h127l-204 -295h-103zM473 1321v-1321h-145v1321h-279v135h709v-135h-285z" />
    <glyph glyph-name="tcaron" unicode="&#x165;" horiz-adv-x="610" 
d="M508 1632h127l-98 -303h-97zM559 0h-84q-108 0 -174 29q-63 29 -89 103t-26 216v690h-153v123q67 0 96 13q32 6 46.5 22.5t21.5 56.5q14 50 18 154h107v-236h237v-133h-237v-678q0 -85 14 -143q17 -45 54.5 -61.5t113.5 -16.5h55v-139z" />
    <glyph glyph-name="Tbar" unicode="&#x166;" horiz-adv-x="806" 
d="M473 664v-664h-145v664h-168v127h168v530h-279v135h709v-135h-285v-530h166v-127h-166z" />
    <glyph glyph-name="tbar" unicode="&#x167;" horiz-adv-x="610" 
d="M559 0h-84q-108 0 -174 29q-63 29 -89 103t-26 216v199h-125v117h125v374h-153v123q67 0 96 13q32 6 46.5 22.5t21.5 56.5q14 50 18 154h107v-236h237v-133h-237v-374h153v-117h-153v-187q0 -85 14 -143q17 -45 54.5 -61.5t113.5 -16.5h55v-139z" />
    <glyph glyph-name="Utilde" unicode="&#x168;" horiz-adv-x="1007" 
d="M203 1579q2 111 40.5 166t125.5 55q62 0 104 -28q15 -11 41 -30.5t40.5 -30t34 -19.5t36.5 -9q36 0 51.5 24.5t15.5 88.5h103q0 -109 -39.5 -166t-128.5 -57q-61 0 -105 29q-15 10 -40 29.5t-39.5 30t-35 19.5t-38.5 9q-33 0 -47.5 -26t-14.5 -85h-104zM504 -20
q-193 0 -284 106t-91 330v1040h150v-1034q0 -158 53 -229.5t172 -71.5q120 0 172.5 71t52.5 230v1034h150v-1040q0 -223 -93 -329.5t-282 -106.5z" />
    <glyph glyph-name="utilde" unicode="&#x169;" horiz-adv-x="948" 
d="M184 1300q2 111 40.5 166.5t125.5 55.5q62 0 105 -29q15 -11 41 -30.5t40 -29.5t33.5 -19t36.5 -9q36 0 52 24.5t16 88.5h102q0 -109 -39.5 -166.5t-128.5 -57.5q-60 0 -104 29q-15 10 -40 29.5t-40 30t-35.5 19.5t-38.5 9q-32 0 -46.5 -25.5t-14.5 -85.5h-105zM684 215
q-25 -111 -92.5 -172t-175.5 -61q-293 0 -293 366v823h145v-802q0 -256 191 -256q103 0 159 80.5t56 222.5v755h145v-1171h-117z" />
    <glyph glyph-name="Umacron" unicode="&#x16a;" horiz-adv-x="1007" 
d="M276 1710h451v-115h-451v115zM504 -20q-193 0 -284 106t-91 330v1040h150v-1034q0 -158 53 -229.5t172 -71.5q120 0 172.5 71t52.5 230v1034h150v-1040q0 -223 -93 -329.5t-282 -106.5z" />
    <glyph glyph-name="umacron" unicode="&#x16b;" horiz-adv-x="948" 
d="M244 1427h450v-114h-450v114zM684 215q-25 -111 -92.5 -172t-175.5 -61q-293 0 -293 366v823h145v-802q0 -256 191 -256q103 0 159 80.5t56 222.5v755h145v-1171h-117z" />
    <glyph glyph-name="Ubreve" unicode="&#x16c;" horiz-adv-x="1007" 
d="M500 1569q-145 0 -206.5 75t-66.5 224h111q5 -99 41.5 -146.5t122.5 -48.5q84 1 123 49.5t41 145.5h110q-2 -143 -70 -221t-206 -78zM504 -20q-193 0 -284 106t-91 330v1040h150v-1034q0 -158 53 -229.5t172 -71.5q120 0 172.5 71t52.5 230v1034h150v-1040
q0 -223 -93 -329.5t-282 -106.5z" />
    <glyph glyph-name="ubreve" unicode="&#x16d;" horiz-adv-x="948" 
d="M471 1286q-145 0 -206 75t-66 224h110q5 -99 41.5 -146t122.5 -48q84 1 123 49t41 145h111q-2 -143 -70.5 -221t-206.5 -78zM684 215q-25 -111 -92.5 -172t-175.5 -61q-293 0 -293 366v823h145v-802q0 -256 191 -256q103 0 159 80.5t56 222.5v755h145v-1171h-117z" />
    <glyph glyph-name="Uring" unicode="&#x16e;" horiz-adv-x="1007" 
d="M500 1540q-91 0 -146 52t-55 145q0 90 55.5 143t145.5 53q93 0 147.5 -51t54.5 -145q0 -91 -55 -144t-147 -53zM500 1642q40 0 68 26t28 69q0 44 -26.5 71t-69.5 27q-41 0 -66.5 -27t-25.5 -71q0 -43 24 -69t68 -26zM504 -20q-193 0 -284 106t-91 330v1040h150v-1034
q0 -158 53 -229.5t172 -71.5q120 0 172.5 71t52.5 230v1034h150v-1040q0 -223 -93 -329.5t-282 -106.5z" />
    <glyph glyph-name="uring" unicode="&#x16f;" horiz-adv-x="948" 
d="M471 1288q-91 0 -146 52t-55 145q0 90 55.5 143t145.5 53q93 0 148 -51.5t55 -144.5q0 -91 -55.5 -144t-147.5 -53zM471 1391q40 0 68 25.5t28 68.5q0 44 -26.5 71t-69.5 27q-41 0 -66.5 -27t-25.5 -71q0 -43 24 -68.5t68 -25.5zM684 215q-25 -111 -92.5 -172t-175.5 -61
q-293 0 -293 366v823h145v-802q0 -256 191 -256q103 0 159 80.5t56 222.5v755h145v-1171h-117z" />
    <glyph glyph-name="Uhungarumlaut" unicode="&#x170;" horiz-adv-x="1007" 
d="M430 1573h-106l178 301h151zM674 1573h-107l189 301h153zM504 -20q-193 0 -284 106t-91 330v1040h150v-1034q0 -158 53 -229.5t172 -71.5q120 0 172.5 71t52.5 230v1034h150v-1040q0 -223 -93 -329.5t-282 -106.5z" />
    <glyph glyph-name="uhungarumlaut" unicode="&#x171;" horiz-adv-x="948" 
d="M391 1290h-106l178 301h151zM635 1290h-107l189 301h153zM684 215q-25 -111 -92.5 -172t-175.5 -61q-293 0 -293 366v823h145v-802q0 -256 191 -256q103 0 159 80.5t56 222.5v755h145v-1171h-117z" />
    <glyph glyph-name="Uogonek" unicode="&#x172;" horiz-adv-x="1007" 
d="M594 -373q-103 0 -159 45t-56 129q0 99 90 179q-174 7 -257 114.5t-83 321.5v1040h150v-1034q0 -158 53 -229.5t172 -71.5q120 0 172.5 71t52.5 230v1034h150v-1040q0 -326 -205 -408q-103 -71 -139.5 -111.5t-36.5 -84.5q0 -41 27 -63.5t75 -22.5q93 0 117 86h133
q-62 -185 -256 -185z" />
    <glyph glyph-name="uogonek" unicode="&#x173;" horiz-adv-x="948" 
d="M989 -201q-61 -184 -256 -184q-103 0 -159 45t-56 129q0 65 41.5 124t140.5 122l-16 180q-25 -111 -92.5 -172t-175.5 -61q-293 0 -293 366v823h145v-802q0 -256 191 -256q103 0 159 80.5t56 222.5v755h145v-1171q-105 -73 -143.5 -115t-38.5 -86q0 -41 27 -63.5
t75 -22.5q93 0 117 86h133z" />
    <glyph glyph-name="Wcircumflex" unicode="&#x174;" horiz-adv-x="1396" 
d="M694 1780l-127 -195h-129l203 299h107l202 -299h-129zM422 0h-131l-228 1456h142l157 -1065l7 -227l24 209l250 1083h100l236 -1083l20 -230l17 248l182 1065h139l-262 -1456h-133l-235 1110l-15 170l-14 -172z" />
    <glyph glyph-name="wcircumflex" unicode="&#x175;" horiz-adv-x="1294" 
d="M635 1497l-127 -194h-129l203 299h106l203 -299h-129zM406 0h-142l-221 1171h141l150 -845l16 -172l29 176l217 841h90l205 -843l24 -183l23 179l174 847h139l-258 -1171h-137l-197 829l-18 170l-20 -174z" />
    <glyph glyph-name="Ycircumflex" unicode="&#x176;" horiz-adv-x="884" 
d="M451 1769l-127 -194h-129l202 299h107l203 -299h-129zM360 0v524l-329 932h155l232 -696l20 -111l21 111l239 696h156l-344 -930v-526h-150z" />
    <glyph glyph-name="ycircumflex" unicode="&#x177;" horiz-adv-x="870" 
d="M438 1485l-127 -195h-129l203 299h107l202 -299h-129zM84 -334v135h72q56 0 102 11q36 10 58.5 43t43.5 102l17 63l-332 1151h148l235 -868l18 -137l21 143l219 862h148l-340 -1232q-33 -113 -68 -172q-36 -58 -94.5 -79.5t-169.5 -21.5h-78z" />
    <glyph glyph-name="Ydieresis" unicode="&#x178;" horiz-adv-x="884" 
d="M307 1575q-46 0 -67 22.5t-21 79.5q0 101 90 101q47 0 68.5 -23.5t21.5 -77.5q0 -55 -22 -78.5t-70 -23.5zM588 1575q-50 0 -71 22t-21 80q0 101 92 101q45 0 66.5 -24t21.5 -77q0 -54 -22 -78t-66 -24zM360 0v524l-329 932h155l232 -696l20 -111l21 111l239 696h156
l-344 -930v-526h-150z" />
    <glyph glyph-name="Zacute" unicode="&#x179;" horiz-adv-x="870" 
d="M588 1907h157l-247 -322h-115zM72 0v127l559 1192h-516v137h671v-131l-546 -1184h555v-141h-723z" />
    <glyph glyph-name="zacute" unicode="&#x17a;" horiz-adv-x="794" 
d="M559 1624h158l-248 -321h-115zM63 113l512 927h-481v131h639v-120l-504 -918h504v-133l-670 -2v115z" />
    <glyph glyph-name="Zdotaccent" unicode="&#x17b;" horiz-adv-x="870" 
d="M440 1583q-55 0 -78.5 25t-23.5 88q0 60 26 87t78 27q99 0 99 -114q0 -113 -101 -113zM72 0v127l559 1192h-516v137h671v-131l-546 -1184h555v-141h-723z" />
    <glyph glyph-name="zdotaccent" unicode="&#x17c;" horiz-adv-x="794" 
d="M412 1300q-55 0 -79 25t-24 88q0 115 105 115q98 0 98 -115q0 -59 -25 -86t-75 -27zM63 113l512 927h-481v131h639v-120l-504 -918h504v-133l-670 -2v115z" />
    <glyph glyph-name="Zcaron" unicode="&#x17d;" horiz-adv-x="870" 
d="M387 1585l-203 295h131l125 -186l127 186h127l-205 -295h-102zM72 0v127l559 1192h-516v137h671v-131l-546 -1184h555v-141h-723z" />
    <glyph glyph-name="zcaron" unicode="&#x17e;" horiz-adv-x="794" 
d="M358 1303l-202 294h131l125 -186l127 186h127l-205 -294h-103zM63 113l512 927h-481v131h639v-120l-504 -918h504v-133l-670 -2v115z" />
    <glyph glyph-name="uni0192" unicode="&#x192;" horiz-adv-x="618" 
d="M373 59q0 -115 -23 -186q-23 -65 -81.5 -92t-170.5 -27h-82v135h68q58 0 92 15q31 12 43 51t12 121v610h-192v129h192v459q0 181 61.5 249t215.5 68h70v-127h-54q-54 0 -94 -14q-32 -17 -44.5 -60t-12.5 -130v-445h205v-129h-205v-627z" />
    <glyph glyph-name="Aringacute" unicode="&#x1fa;" horiz-adv-x="956" 
d="M623 2161h157l-248 -322h-114zM197 0h-150l332 1370q-111 51 -111 180q0 90 55.5 143.5t145.5 53.5q93 0 148 -51.5t55 -145.5q0 -131 -105 -176l344 -1374h-147l-74 315h-422zM469 1456q40 0 68 25.5t28 68.5q0 44 -26.5 71.5t-69.5 27.5q-41 0 -66.5 -27.5t-25.5 -71.5
q0 -43 24 -68.5t68 -25.5zM299 451h358l-159 675l-23 203l-24 -205z" />
    <glyph glyph-name="aringacute" unicode="&#x1fb;" horiz-adv-x="946" 
d="M625 2087h157l-247 -322h-115zM475 1286q-91 0 -146 52t-55 145q0 90 55.5 143t145.5 53q93 0 148 -51.5t55 -144.5q0 -91 -55.5 -144t-147.5 -53zM475 1389q40 0 68 25.5t28 68.5q0 44 -26.5 71t-69.5 27q-41 0 -66.5 -27t-25.5 -71q0 -43 24 -68.5t68 -25.5zM686 225
q-37 -116 -118 -178.5t-199 -62.5q-140 0 -214.5 73t-74.5 211v37q0 161 113 248q41 34 90.5 56t171.5 67q131 46 180 82.5t49 107.5v13q0 188 -211 188q-107 0 -166 -54.5t-59 -152.5v-110h-142v116q0 149 94.5 234.5t272.5 85.5q348 0 348 -318v-868h-112zM420 104
q86 0 143 48q121 95 121 303v243q-19 -34 -59 -56.5t-129 -55.5q-133 -44 -197 -105q-68 -58 -68 -178v-18q0 -85 50 -133t139 -48z" />
    <glyph glyph-name="AEacute" unicode="&#x1fc;" horiz-adv-x="1374" 
d="M768 1907h158l-248 -322h-115zM684 319h-399l-107 -319h-153l503 1456h756v-133h-584l62 -520h455v-135h-439l64 -531h463v-137h-582zM326 446h344l-80 676l-2 193l-37 -193z" />
    <glyph glyph-name="aeacute" unicode="&#x1fd;" horiz-adv-x="1529" 
d="M922 1597h157l-248 -321h-114zM1440 344q0 -171 -95.5 -266.5t-283.5 -95.5q-285 0 -350 245q-37 -118 -122.5 -181.5t-211.5 -63.5q-144 0 -220.5 74t-76.5 212v37q0 87 28 145t85 103q41 34 93.5 58t168.5 67q128 45 178.5 81.5t50.5 100.5v21q0 188 -211 188
q-107 0 -166 -54t-59 -151v-114h-142v118q0 149 94.5 235.5t268.5 86.5q237 0 305 -152q88 152 299 152q185 0 276 -106t91 -304v-241h-619v-144q0 -282 240 -282q233 0 233 227v55h146v-51zM821 659h477v125q0 277 -231 277q-246 0 -246 -289v-113zM416 104q87 0 147 48
q121 95 121 303v243q-19 -34 -59 -56.5t-129 -55.5q-77 -25 -119 -48t-76 -55q-68 -68 -68 -180v-14q0 -90 48 -137.5t135 -47.5z" />
    <glyph glyph-name="Oslashacute" unicode="&#x1fe;" horiz-adv-x="1046" 
d="M668 1962h157l-247 -322h-115zM524 -23q-74 0 -135 15l-49 -176h-117l64 219q-174 108 -174 397v582q0 225 106 343t305 118q84 0 142 -19l49 170h110l-61 -215q172 -111 172 -397v-582q0 -228 -106.5 -341.5t-305.5 -113.5zM260 440q0 -168 70 -250l301 1137
q-42 19 -107 19q-133 0 -198.5 -87t-65.5 -251v-568zM524 113q264 0 264 327v568q0 163 -65 249l-297 -1130q47 -14 98 -14z" />
    <glyph glyph-name="oslashacute" unicode="&#x1ff;" horiz-adv-x="958" 
d="M629 1696h157l-247 -322h-115zM477 -18q-55 0 -110 10l-50 -176h-104l61 209q-174 89 -174 362v385q0 208 99 313t278 105q74 0 123 -14l47 163h101l-60 -200q168 -100 168 -367v-385q0 -200 -99.5 -302.5t-279.5 -102.5zM246 391q0 -150 69 -219l248 877q-41 12 -86 12
q-231 0 -231 -291v-379zM477 113q116 0 175 71t59 207v379q0 148 -66 223l-244 -870q38 -10 76 -10z" />
    <glyph glyph-name="uni0218" unicode="&#x218;" horiz-adv-x="931" 
d="M479 -18q-209 0 -304 93t-95 279v168h151v-166q0 -241 248 -241q116 0 173 61t57 162v63q0 85 -41 138q-26 34 -69.5 64.5t-78.5 47.5t-98 45q-95 46 -152 78q-168 101 -168 299v51q0 156 93.5 251t269.5 95q182 0 273 -88t91 -245v-146h-145v137q0 218 -219 218
q-105 0 -161 -61.5t-56 -162.5v-43q0 -78 41 -131q37 -44 93.5 -77t147.5 -74q122 -60 154 -80q170 -102 170 -305v-74q0 -159 -98.5 -257.5t-276.5 -98.5zM389 -444q80 25 92 131q-16 -4 -22 -4q-42 0 -60 18.5t-18 73.5q0 53 23 76.5t71 23.5q54 0 76 -31t22 -108
q0 -101 -44.5 -169.5t-131.5 -88.5z" />
    <glyph glyph-name="uni0219" unicode="&#x219;" horiz-adv-x="868" 
d="M440 -18q-186 0 -275 80t-89 243v113h151v-105q0 -101 51.5 -151.5t163.5 -50.5q103 0 155 50t52 144v27q0 67 -37 104q-23 26 -63 49t-66.5 33.5t-89.5 34.5q-85 31 -141 61q-156 81 -156 248v27q0 137 87.5 219t248.5 82q166 0 253 -79.5t87 -221.5v-88h-143v86
q0 178 -197 178q-95 0 -143.5 -47t-48.5 -127v-21q0 -59 34 -96q7 -7 16 -14t16.5 -13t19.5 -12.5t19.5 -10.5t22.5 -11t21.5 -10t24.5 -10t23.5 -9.5t26 -10t25.5 -9.5q77 -28 144 -64q160 -80 160 -258v-37q0 -154 -89.5 -238.5t-263.5 -84.5zM352 -449q80 25 92 132
q-20 -5 -22 -5q-41 0 -59.5 19t-18.5 74q0 53 23 76.5t71 23.5q54 0 76.5 -31.5t22.5 -107.5q0 -101 -45 -169.5t-132 -88.5z" />
    <glyph glyph-name="uni0237" unicode="&#x237;" horiz-adv-x="407" 
d="M-59 -221h51q89 0 115 31.5t26 138.5v1222h143v-1237q0 -122 -22 -178q-23 -63 -80.5 -88.5t-169.5 -25.5h-63v137z" />
    <glyph glyph-name="uni0245" unicode="&#x245;" horiz-adv-x="956" 
d="M197 0h-150l352 1456h148l364 -1456h-147l-277 1165l-12 144l-14 -144z" />
    <glyph glyph-name="circumflex" unicode="&#x2c6;" 
d="M418 1501l-127 -194h-129l203 299h106l203 -299h-129z" />
    <glyph glyph-name="caron" unicode="&#x2c7;" 
d="M365 1307l-203 295h131l125 -187l127 187h127l-205 -295h-102z" />
    <glyph glyph-name="breve" unicode="&#x2d8;" 
d="M414 1303q-145 0 -206.5 75t-66.5 224h111q5 -99 41.5 -146.5t122.5 -48.5q84 1 123 49.5t41 145.5h110q-2 -143 -70 -221t-206 -78z" />
    <glyph glyph-name="dotaccent" unicode="&#x2d9;" horiz-adv-x="841" 
d="M406 1305q-55 0 -79 24.5t-24 87.5q0 115 105 115q98 0 98 -115q0 -59 -24.5 -85.5t-75.5 -26.5z" />
    <glyph glyph-name="ring" unicode="&#x2da;" 
d="M414 1311q-91 0 -146 51.5t-55 144.5q0 90 55.5 143.5t145.5 53.5q92 0 147 -51.5t55 -145.5q0 -91 -55 -143.5t-147 -52.5zM414 1413q40 0 68 25.5t28 68.5q0 44 -26.5 71.5t-69.5 27.5q-41 0 -66.5 -27.5t-25.5 -71.5q0 -43 24 -68.5t68 -25.5z" />
    <glyph glyph-name="ogonek" unicode="&#x2db;" 
d="M416 -385q-103 0 -159 45t-56 129q0 70 48.5 133.5t164.5 130.5l88 -53q-105 -73 -144 -115t-39 -86q0 -41 27.5 -63.5t75.5 -22.5q93 0 117 86h133q-61 -184 -256 -184z" />
    <glyph glyph-name="tilde" unicode="&#x2dc;" 
d="M125 1311q2 111 40.5 166t125.5 55q61 0 104 -29q15 -10 41 -30t40.5 -30t34 -19t36.5 -9q36 0 51.5 24.5t15.5 88.5h103q0 -109 -39.5 -166t-128.5 -57q-63 0 -105 28q-15 10 -40 29.5t-39.5 30t-35 19.5t-38.5 9q-33 0 -47.5 -25.5t-14.5 -84.5h-104z" />
    <glyph glyph-name="hungarumlaut" unicode="&#x2dd;" 
d="M262 1307h-106l178 301h151zM506 1307h-107l189 301h153z" />
    <glyph glyph-name="uni03BC" unicode="&#x3bc;" horiz-adv-x="954" 
d="M467 -18q-87 0 -133.5 38.5t-65.5 118.5v-534h-139v1566h145v-802q0 -256 191 -256q103 0 159 80.5t56 222.5v755h145v-1171h-116l-17 193q-42 -211 -225 -211z" />
    <glyph glyph-name="pi" unicode="&#x3c0;" horiz-adv-x="1138" 
d="M721 1323h-315v-1323h-144v1323h-207v133h1028v-133h-217v-1020q0 -103 30 -136.5t120 -33.5h51v-133h-66q-106 0 -170 25q-61 26 -85.5 87t-24.5 177v1034z" />
    <glyph glyph-name="uni0E3F" unicode="&#xe3f;" horiz-adv-x="1034" 
d="M586 0v-197h-111v197h-334v1456h334v191h111v-191q186 -6 264 -84.5t78 -230.5v-103q0 -117 -44.5 -187.5t-140.5 -100.5q205 -49 205 -277v-129q0 -172 -81 -258t-277 -86h-4zM475 811v518h-190v-518h190zM784 1128q0 95 -46 145t-152 56v-516q107 6 152.5 60.5
t45.5 166.5v88zM475 131v553h-190v-553h190zM799 465q0 105 -50 159t-163 60v-553q120 4 166.5 54.5t46.5 166.5v113z" />
    <glyph glyph-name="Wgrave" unicode="&#x1e80;" horiz-adv-x="1396" 
d="M416 1886h155l185 -299h-115zM422 0h-131l-228 1456h142l157 -1065l7 -227l24 209l250 1083h100l236 -1083l20 -230l17 248l182 1065h139l-262 -1456h-133l-235 1110l-15 170l-14 -172z" />
    <glyph glyph-name="wgrave" unicode="&#x1e81;" horiz-adv-x="1294" 
d="M356 1602h156l184 -299h-114zM406 0h-142l-221 1171h141l150 -845l16 -172l29 176l217 841h90l205 -843l24 -183l23 179l174 847h139l-258 -1171h-137l-197 829l-18 170l-20 -174z" />
    <glyph glyph-name="Wacute" unicode="&#x1e82;" horiz-adv-x="1396" 
d="M840 1907h157l-247 -322h-115zM422 0h-131l-228 1456h142l157 -1065l7 -227l24 209l250 1083h100l236 -1083l20 -230l17 248l182 1065h139l-262 -1456h-133l-235 1110l-15 170l-14 -172z" />
    <glyph glyph-name="wacute" unicode="&#x1e83;" horiz-adv-x="1294" 
d="M780 1624h158l-248 -321h-115zM406 0h-142l-221 1171h141l150 -845l16 -172l29 176l217 841h90l205 -843l24 -183l23 179l174 847h139l-258 -1171h-137l-197 829l-18 170l-20 -174z" />
    <glyph glyph-name="Wdieresis" unicode="&#x1e84;" horiz-adv-x="1396" 
d="M553 1585q-46 0 -67 23t-21 80q0 53 22.5 76.5t67.5 23.5q48 0 69 -23t21 -77q0 -55 -22 -79t-70 -24zM834 1585q-50 0 -71.5 22.5t-21.5 80.5q0 100 93 100q45 0 66.5 -23.5t21.5 -76.5q0 -103 -88 -103zM422 0h-131l-228 1456h142l157 -1065l7 -227l24 209l250 1083
h100l236 -1083l20 -230l17 248l182 1065h139l-262 -1456h-133l-235 1110l-15 170l-14 -172z" />
    <glyph glyph-name="wdieresis" unicode="&#x1e85;" horiz-adv-x="1294" 
d="M494 1303q-46 0 -67 22.5t-21 79.5q0 53 22.5 76.5t67.5 23.5q48 0 69 -23t21 -77q0 -55 -22 -78.5t-70 -23.5zM774 1303q-50 0 -71 22t-21 80q0 100 92 100q45 0 66.5 -23.5t21.5 -76.5q0 -54 -22 -78t-66 -24zM406 0h-142l-221 1171h141l150 -845l16 -172l29 176
l217 841h90l205 -843l24 -183l23 179l174 847h139l-258 -1171h-137l-197 829l-18 170l-20 -174z" />
    <glyph glyph-name="Ygrave" unicode="&#x1ef2;" horiz-adv-x="884" 
d="M170 1876h156l184 -299h-115zM360 0v524l-329 932h155l232 -696l20 -111l21 111l239 696h156l-344 -930v-526h-150z" />
    <glyph glyph-name="ygrave" unicode="&#x1ef3;" horiz-adv-x="870" 
d="M160 1579h155l185 -299h-115zM84 -334v135h72q56 0 102 11q36 10 58.5 43t43.5 102l17 63l-332 1151h148l235 -868l18 -137l21 143l219 862h148l-340 -1232q-33 -113 -68 -172q-36 -58 -94.5 -79.5t-169.5 -21.5h-78z" />
    <glyph glyph-name="figuredash" unicode="&#x2012;" horiz-adv-x="1056" 
d="M950 545h-844v143h844v-143z" />
    <glyph glyph-name="endash" unicode="&#x2013;" horiz-adv-x="811" 
d="M705 545h-599v143h599v-143z" />
    <glyph glyph-name="emdash" unicode="&#x2014;" horiz-adv-x="1079" 
d="M975 545h-869v143h869v-143z" />
    <glyph glyph-name="uni2015" unicode="&#x2015;" horiz-adv-x="1415" 
d="M1309 545h-1203v143h1203v-143z" />
    <glyph glyph-name="uni2016" unicode="&#x2016;" horiz-adv-x="800" 
d="M141 -184v1804h146v-1804h-146zM512 -184v1804h145v-1804h-145z" />
    <glyph glyph-name="underscoredbl" unicode="&#x2017;" horiz-adv-x="890" 
d="M819 0h-745v113h745v-113zM819 -233h-745v112h745v-112z" />
    <glyph glyph-name="quoteleft" unicode="&#x2018;" horiz-adv-x="468" 
d="M238 1044q-57 0 -80 34t-23 124q0 237 180 275l11 -72q-93 -28 -101 -150q9 7 27 7q44 0 62 -21t18 -84q0 -64 -20.5 -88.5t-73.5 -24.5z" />
    <glyph glyph-name="quoteright" unicode="&#x2019;" horiz-adv-x="468" 
d="M143 1114q49 18 74 52.5t29 97.5q-20 -4 -29 -4q-41 0 -60.5 21.5t-19.5 82.5t22 86t74 25q57 0 80 -33.5t23 -122.5q0 -237 -180 -277z" />
    <glyph glyph-name="quotesinglbase" unicode="&#x201a;" horiz-adv-x="483" 
d="M147 -150q94 27 103 150q-8 -6 -29 -6q-41 0 -60.5 21.5t-19.5 82.5q0 63 22.5 87t74.5 24q57 0 79.5 -33.5t22.5 -122.5q0 -236 -180 -276z" />
    <glyph glyph-name="uni201B" unicode="&#x201b;" horiz-adv-x="468" 
d="M315 1042q-182 41 -182 273q0 89 24 124.5t81 35.5q52 0 73 -24.5t21 -86.5t-18 -83t-62 -21q-3 0 -27 6q8 -116 101 -152z" />
    <glyph glyph-name="quotedblleft" unicode="&#x201c;" horiz-adv-x="772" 
d="M238 1044q-57 0 -80 34t-23 124q0 237 180 275l11 -72q-93 -28 -101 -150q9 7 27 7q44 0 62 -21t18 -84q0 -64 -20.5 -88.5t-73.5 -24.5zM541 1044q-57 0 -80 34t-23 124q0 237 180 275l11 -72q-93 -28 -101 -150q9 7 27 7q44 0 62 -21t18 -84q0 -64 -20.5 -88.5
t-73.5 -24.5z" />
    <glyph glyph-name="quotedblright" unicode="&#x201d;" horiz-adv-x="772" 
d="M143 1114q93 36 101 152q-24 -6 -27 -6q-41 0 -60.5 21.5t-19.5 82.5t21.5 86t72.5 25q57 0 80 -33.5t23 -122.5q0 -237 -180 -277zM446 1114q93 36 101 152q-24 -6 -27 -6q-41 0 -60.5 21.5t-19.5 82.5t22 86t73 25q57 0 79.5 -33.5t22.5 -122.5q0 -237 -180 -277z" />
    <glyph glyph-name="quotedblbase" unicode="&#x201e;" horiz-adv-x="774" 
d="M143 -150q93 28 101 150q-8 -6 -27 -6q-41 0 -60.5 21.5t-19.5 82.5q0 63 21 87t73 24q57 0 80 -33.5t23 -122.5q0 -236 -180 -276zM449 -150q91 28 100 150q-8 -6 -27 -6q-41 0 -60.5 21.5t-19.5 82.5q0 63 21.5 87t73.5 24q57 0 79.5 -33.5t22.5 -122.5
q0 -236 -180 -276z" />
    <glyph glyph-name="uni201F" unicode="&#x201f;" horiz-adv-x="772" 
d="M313 1042q-182 41 -182 273q0 89 24 124.5t81 35.5q52 0 73 -24.5t21 -86.5t-18 -83t-62 -21q-3 0 -27 6q8 -116 101 -152zM616 1042q-182 41 -182 273q0 89 24 124.5t81 35.5q52 0 73 -24.5t21 -86.5t-18 -83t-62 -21q-3 0 -27 6q8 -116 101 -152z" />
    <glyph glyph-name="dagger" unicode="&#x2020;" horiz-adv-x="808" 
d="M475 973v-1057h-143v1057h-238v143h238v424h143v-424h240v-143h-240z" />
    <glyph glyph-name="daggerdbl" unicode="&#x2021;" horiz-adv-x="808" 
d="M475 381v-465h-143v465h-238v143h238v451h-238v143h238v422h143v-422h240v-143h-240v-451h240v-143h-240z" />
    <glyph glyph-name="bullet" unicode="&#x2022;" horiz-adv-x="536" 
d="M268 457q-72 0 -103.5 31.5t-31.5 103.5q0 71 33.5 103t101.5 32q69 0 103.5 -30.5t34.5 -104.5q0 -135 -138 -135z" />
    <glyph glyph-name="ellipsis" unicode="&#x2026;" horiz-adv-x="1206" 
d="M248 -14q-55 0 -75.5 24.5t-20.5 91.5q0 66 22 91.5t74 25.5q55 0 76.5 -25t21.5 -92t-21.5 -91.5t-76.5 -24.5zM604 -14q-55 0 -75.5 24.5t-20.5 91.5q0 66 22 91.5t74 25.5q55 0 76.5 -25t21.5 -92t-21.5 -91.5t-76.5 -24.5zM961 -14q-55 0 -77 25t-22 91q0 67 22 92
t77 25q54 0 75 -25t21 -92q0 -66 -21.5 -91t-74.5 -25z" />
    <glyph glyph-name="perthousand" unicode="&#x2030;" horiz-adv-x="1796" 
d="M311 848q-107 0 -165 60.5t-58 170.5v162q0 109 61 169t164 60q105 0 165.5 -60.5t60.5 -168.5v-162q0 -108 -60 -169.5t-168 -61.5zM950 1456h150l-828 -1456h-153zM311 950q117 0 117 135v154q0 65 -30 99t-85 34t-85.5 -34t-30.5 -99v-154q0 -135 114 -135zM905 -20
q-108 0 -166.5 60t-58.5 171v162q0 109 61.5 172t163.5 63q103 0 164 -63.5t61 -171.5v-162q0 -108 -59 -169.5t-166 -61.5zM1481 -20q-109 0 -167.5 60.5t-58.5 170.5v162q0 109 62 172t164 63q103 0 164 -63.5t61 -171.5v-162q0 -108 -59 -169.5t-166 -61.5zM905 84
q59 0 88 35t29 98v154q0 133 -117 133q-114 0 -114 -133v-154q0 -133 114 -133zM1481 84q116 0 116 133v154q0 68 -28 100.5t-88 32.5q-115 0 -115 -133v-154q0 -133 115 -133z" />
    <glyph glyph-name="uni2032" unicode="&#x2032;" horiz-adv-x="339" 
d="M59 1049l82 407h144l-125 -407h-101z" />
    <glyph glyph-name="uni2033" unicode="&#x2033;" horiz-adv-x="571" 
d="M59 1049l80 407h144l-123 -407h-101zM285 1049l92 407h143l-137 -407h-98z" />
    <glyph glyph-name="uni2034" unicode="&#x2034;" horiz-adv-x="849" 
d="M236 1456v-78q0 -24 -1.5 -74.5t-1.5 -76.5q-11 -199 -20 -250h-86q0 5 -4.5 41t-5.5 61q-13 146 -13 299v78h132zM492 1456v-78q0 -24 -5 -151q-3 -149 -20 -250h-86q0 5 -4.5 41t-5.5 61q-13 146 -13 299v78h134zM745 1456v-78q0 -49 -4 -151q-3 -149 -20 -250h-86
q0 5 -4.5 41t-5.5 61q-13 146 -13 299v78h133z" />
    <glyph glyph-name="guilsinglleft" unicode="&#x2039;" horiz-adv-x="624" 
d="M383 223l-262 377v18l252 392h139l-260 -396l276 -391h-145z" />
    <glyph glyph-name="guilsinglright" unicode="&#x203a;" horiz-adv-x="624" 
d="M96 223l275 389l-258 398h139l252 -392v-18l-262 -377h-146z" />
    <glyph glyph-name="exclamdbl" unicode="&#x203c;" horiz-adv-x="913" 
d="M338 1458v-309q0 -30 -1 -97t-1 -104q-3 -228 -12 -403q-10 -189 -13 -217q-30 6 -51 6q-23 0 -53 -6l-2 24q-2 24 -2 47q-1 12 -15 338q-1 47 -2.5 133t-2.5 154.5t-1 124.5v309h156zM731 1458v-309q0 -129 -2 -201q-1 -77 -5 -214t-5 -189q-10 -203 -12 -217
q-30 6 -54 6q-21 0 -51 -6l-2 24q-2 24 -2 47q-11 146 -14 338q-9 209 -9 412v309h156zM258 -16q-59 0 -81.5 26t-22.5 96q0 65 24.5 92t79.5 27q57 0 82 -27t25 -92q0 -66 -26 -94t-81 -28zM653 -16q-59 0 -81.5 26t-22.5 96q0 65 24 92t80 27q55 0 80 -27t25 -92
q0 -66 -25 -94t-80 -28z" />
    <glyph glyph-name="uni203D" unicode="&#x203d;" horiz-adv-x="1001" 
d="M496 332q-43 0 -54 -8q-6 45 -8 125q0 24 -1 89.5t-1 108.5q-2 162 -2 502v201q-170 -25 -170 -226v-209h-141v218q0 165 96 253.5t287 88.5q187 0 281 -85.5t94 -224.5v-135q0 -108 -33 -170q-12 -25 -27 -47t-37.5 -45.5t-33 -34.5t-41.5 -38.5t-37 -32.5
q-115 -95 -117 -238l-2 -98q-8 6 -53 6zM557 1149q0 -253 -12 -487q5 14 11 26.5t13 24.5t12 21t14 20t13 16.5t14.5 16.5t13.5 14l15 15l13 13q35 35 53 79t18 116v131q0 82 -43 133.5t-135 63.5v-203zM498 -16q-59 0 -82 26t-23 96q0 65 24.5 92t80.5 27q55 0 79.5 -27
t24.5 -92q0 -66 -24.5 -94t-79.5 -28z" />
    <glyph glyph-name="fraction" unicode="&#x2044;" horiz-adv-x="1181" 
d="M635 848l332 649l139 -90l-424 -590zM569 643l-333 -678l-144 98l430 611z" />
    <glyph glyph-name="uni2070" unicode="&#x2070;" horiz-adv-x="563" 
d="M281 723q-209 0 -209 227v291q0 113 54 169t157 56q99 0 154 -56t55 -169v-291q0 -227 -211 -227zM281 825q102 0 102 127v287q0 66 -24 97.5t-76 31.5q-101 0 -101 -129v-287q0 -127 99 -127z" />
    <glyph glyph-name="uni2074" unicode="&#x2074;" horiz-adv-x="530" 
d="M414 891v-156h-92v156h-281v78l278 487h95v-479h86v-86h-86zM147 977h175v264l8 84l-25 -68z" />
    <glyph glyph-name="uni2075" unicode="&#x2075;" horiz-adv-x="542" 
d="M274 723q-204 0 -204 184v70h110v-66q0 -90 96 -90q103 0 103 103v120q0 56 -23.5 78.5t-70.5 22.5q-68 0 -107 -70l-8 -18l-90 22l35 377h338v-6q0 -52 -21 -73t-78 -21h-153q-16 -116 -25 -201q44 76 143 76q79 0 120.5 -45t41.5 -133v-131q0 -96 -52.5 -147.5
t-154.5 -51.5z" />
    <glyph glyph-name="uni2076" unicode="&#x2076;" horiz-adv-x="557" 
d="M489 928q0 -95 -52 -150t-152 -55q-116 0 -164.5 56.5t-48.5 174.5v285q0 115 50.5 171t153.5 56t153 -48.5t50 -149.5v-31h-108v31q0 55 -22 80.5t-73 25.5q-52 0 -77 -31.5t-25 -103.5v-143q39 80 145 80q170 0 170 -170v-78zM285 819q102 0 102 111v69q0 97 -102 97
q-87 0 -111 -84v-66q0 -67 26 -97t85 -30z" />
    <glyph glyph-name="uni2077" unicode="&#x2077;" horiz-adv-x="464" 
d="M104 735q51 306 213 619h-276v102h383v-86q-72 -136 -125.5 -301.5t-77.5 -333.5h-117z" />
    <glyph glyph-name="uni2078" unicode="&#x2078;" horiz-adv-x="552" 
d="M274 723q-208 0 -208 182v56q0 57 28.5 95t75.5 52q-90 26 -90 137v45q0 85 52 130.5t147 45.5t146.5 -45.5t51.5 -130.5v-45q0 -111 -94 -137q104 -30 104 -147v-56q0 -89 -55 -135.5t-158 -46.5zM285 1147q90 0 90 90v47q0 94 -96 94q-99 0 -99 -96v-45q0 -90 86 -90
h19zM274 817q109 0 109 96v56q0 96 -98 96h-19q-46 0 -71 -26t-25 -70v-56q0 -96 104 -96z" />
    <glyph glyph-name="uni2079" unicode="&#x2079;" horiz-adv-x="548" 
d="M276 723q-206 -3 -206 197v43h110v-39q0 -58 23.5 -82.5t75.5 -24.5q53 0 77.5 31.5t24.5 101.5v160q-42 -86 -143 -86q-82 0 -128.5 44t-46.5 128v66q0 95 52.5 149.5t154.5 54.5q112 0 162.5 -57.5t50.5 -173.5v-285q0 -227 -207 -227zM268 1104q56 0 83.5 31t29.5 84
v24q0 131 -111 131q-104 0 -104 -112v-60q0 -98 102 -98z" />
    <glyph glyph-name="uni207A" unicode="&#x207a;" horiz-adv-x="548" 
d="M317 1047v-146h-92v146h-139v88h139v137h92v-137h142v-88h-142z" />
    <glyph glyph-name="uni207B" unicode="&#x207b;" horiz-adv-x="548" 
d="M86 1042v97h373v-97h-373z" />
    <glyph glyph-name="uni207C" unicode="&#x207c;" horiz-adv-x="548" 
d="M90 1141v92h365v-92h-365zM90 940v92h365v-92h-365z" />
    <glyph glyph-name="uni207D" unicode="&#x207d;" horiz-adv-x="389" 
d="M88 1264q0 174 70 264t200 98v-102q-85 -6 -125 -68.5t-40 -195.5v-347q0 -129 42 -189t123 -65v-108q-133 6 -201.5 92t-68.5 264v357z" />
    <glyph glyph-name="uni207E" unicode="&#x207e;" horiz-adv-x="389" 
d="M33 657q81 6 123.5 66.5t42.5 189.5v347q0 131 -42 193.5t-124 68.5v104q130 -8 199 -98t69 -264v-357q0 -179 -67.5 -264.5t-200.5 -91.5v106z" />
    <glyph glyph-name="uni2080" unicode="&#x2080;" horiz-adv-x="563" 
d="M281 -12q-209 0 -209 227v291q0 113 54 169t157 56q99 0 154 -56t55 -169v-291q0 -227 -211 -227zM281 90q102 0 102 127v287q0 66 -24 97.5t-76 31.5q-101 0 -101 -129v-287q0 -127 99 -127z" />
    <glyph glyph-name="uni2081" unicode="&#x2081;" horiz-adv-x="421" 
d="M51 0v100h115v420h-98v86q54 1 79 28t33 87h84v-621h113v-100h-326z" />
    <glyph glyph-name="uni2082" unicode="&#x2082;" horiz-adv-x="528" 
d="M66 0v76q0 68 28 119q10 16 23 32.5t23 27t29.5 28t26 23.5t30.5 25.5t28 22.5q50 41 76 78t26 82v33q0 46 -21 69t-69 23t-68 -25t-20 -75v-99h-108v103q0 90 51.5 139t146.5 49q195 0 195 -180v-41q0 -61 -27 -107q-39 -66 -145 -149q-100 -78 -109 -152h287v-102h-403
z" />
    <glyph glyph-name="uni2083" unicode="&#x2083;" horiz-adv-x="538" 
d="M268 -12q-209 0 -209 180v90h111v-84q0 -88 96 -88q99 0 99 88v57q0 91 -93 91h-63v94h63q51 0 68.5 22t17.5 70v39q0 48 -20.5 70t-69.5 22q-92 0 -92 -92v-66h-106v66q0 90 50 137t146 47q197 0 197 -176v-43q0 -108 -86 -139q96 -23 96 -140v-67q0 -84 -52.5 -131
t-152.5 -47z" />
    <glyph glyph-name="uni2084" unicode="&#x2084;" horiz-adv-x="530" 
d="M414 156v-156h-92v156h-281v77l278 488h95v-479h86v-86h-86zM147 242h175v264l8 84l-25 -68z" />
    <glyph glyph-name="uni2085" unicode="&#x2085;" horiz-adv-x="542" 
d="M274 -12q-204 0 -204 184v70h110v-66q0 -90 96 -90q103 0 103 102v121q0 56 -23.5 78.5t-70.5 22.5q-68 0 -107 -70l-8 -18l-90 22l35 377h338v-6q0 -52 -21 -73t-78 -21h-153q-16 -116 -25 -201q44 76 143 76q79 0 120.5 -45.5t41.5 -133.5v-131q0 -96 -52.5 -147
t-154.5 -51z" />
    <glyph glyph-name="uni2086" unicode="&#x2086;" horiz-adv-x="557" 
d="M489 193q0 -95 -52 -150t-152 -55q-116 0 -164.5 56.5t-48.5 174.5v285q0 115 50.5 171t153.5 56t153 -49t50 -150v-30h-108v30q0 55 -22 81t-73 26q-52 0 -77 -31.5t-25 -103.5v-144q39 80 145 80q170 0 170 -170v-77zM285 84q102 0 102 111v69q0 49 -24.5 72.5
t-77.5 23.5q-87 0 -111 -84v-65q0 -67 26 -97t85 -30z" />
    <glyph glyph-name="uni2087" unicode="&#x2087;" horiz-adv-x="464" 
d="M104 0q50 305 213 618h-276v103h383v-86q-72 -136 -125.5 -301.5t-77.5 -333.5h-117z" />
    <glyph glyph-name="uni2088" unicode="&#x2088;" horiz-adv-x="552" 
d="M274 -12q-208 0 -208 182v55q0 58 28.5 96t75.5 52q-90 26 -90 137v45q0 85 52 130.5t147 45.5t146.5 -45.5t51.5 -130.5v-45q0 -111 -94 -137q104 -30 104 -148v-55q0 -89 -55 -135.5t-158 -46.5zM285 412q90 0 90 90v47q0 94 -96 94q-99 0 -99 -96v-45q0 -90 86 -90h19
zM274 82q109 0 109 96v55q0 97 -98 97h-19q-46 0 -71 -26.5t-25 -70.5v-55q0 -96 104 -96z" />
    <glyph glyph-name="uni2089" unicode="&#x2089;" horiz-adv-x="548" 
d="M276 -12q-206 -3 -206 196v43h110v-39q0 -58 23.5 -82t75.5 -24q53 0 77.5 31.5t24.5 101.5v160q-42 -86 -143 -86q-82 0 -128.5 44t-46.5 128v65q0 95 52.5 150t154.5 55q112 0 162.5 -57.5t50.5 -173.5v-285q0 -227 -207 -227zM268 369q56 0 83.5 31t29.5 83v25
q0 131 -111 131q-104 0 -104 -113v-59q0 -98 102 -98z" />
    <glyph glyph-name="uni208A" unicode="&#x208a;" horiz-adv-x="548" 
d="M317 311v-145h-92v145h-139v88h139v138h92v-138h142v-88h-142z" />
    <glyph glyph-name="uni208B" unicode="&#x208b;" horiz-adv-x="548" 
d="M86 307v96h373v-96h-373z" />
    <glyph glyph-name="uni208C" unicode="&#x208c;" horiz-adv-x="548" 
d="M90 410v92h365v-92h-365zM90 209v92h365v-92h-365z" />
    <glyph glyph-name="uni208D" unicode="&#x208d;" horiz-adv-x="389" 
d="M88 518q0 174 70 264.5t200 98.5v-103q-85 -6 -125 -68.5t-40 -195.5v-346q0 -129 42 -189t123 -65v-109q-133 6 -201.5 92.5t-68.5 264.5v356z" />
    <glyph glyph-name="uni208E" unicode="&#x208e;" horiz-adv-x="389" 
d="M33 -88q81 6 123.5 66.5t42.5 189.5v346q0 131 -42 193.5t-124 68.5v105q130 -8 199 -98.5t69 -264.5v-356q0 -179 -68 -265t-200 -92v107z" />
    <glyph glyph-name="colonmonetary" unicode="&#x20a1;" horiz-adv-x="1056" 
d="M465 -18q-36 2 -98 22l-43 -240h-91l54 277q-178 111 -178 401v557q0 220 103.5 343t301.5 133l31 204h88l-31 -206q50 -3 100 -19l39 225h90l-47 -258q187 -100 187 -368v-129h-142v125q0 146 -69 221l-182 -1159q132 10 191.5 86t59.5 223v149h146v-153
q0 -212 -104 -325.5t-318 -113.5l-33 -213h-92zM250 451q0 -166 63 -250l181 1147q-244 -27 -244 -357v-540zM680 1325q-44 20 -98 23l-189 -1209q48 -18 96 -26z" />
    <glyph glyph-name="uni20A2" unicode="&#x20a2;" horiz-adv-x="1052" 
d="M956 408q0 -206 -103.5 -318.5t-317.5 -112.5q-217 0 -321.5 114.5t-104.5 346.5v570q0 225 111 346t317 121q204 0 309.5 -105.5t105.5 -312.5v-82h-145v78q0 293 -270 293q-140 0 -211.5 -88.5t-71.5 -258.5v-553q0 -152 50.5 -232t160.5 -99v723h104l19 -174
q37 178 231 178h62v-144h-80q-87 0 -131 -20q-42 -20 -58 -73t-16 -159v-333q113 13 165 87t52 212v141h143v-145z" />
    <glyph glyph-name="franc" unicode="&#x20a3;" horiz-adv-x="831" 
d="M283 412v-412h-142v1456h623v-135h-481v-442h434v-136h-434v-198h434v-133h-434z" />
    <glyph glyph-name="lira" unicode="&#x20a4;" horiz-adv-x="1060" 
d="M735 -27q-75 0 -140 30t-140 83q-75 -115 -224 -115q-99 0 -147.5 43.5t-48.5 122.5q0 78 51 125t137 47q82 0 185 -61q2 14 2 45q0 90 -31 207h-268v100h237q-7 21 -47 129h-190v102h155q-59 186 -59 318q0 158 85 246t245 88q159 0 242 -83t83 -245v-70l-155 -2v72
q0 99 -42 148t-135 49q-86 0 -130 -52t-44 -149q0 -116 52 -320h307v-102h-281q18 -54 35 -129h246v-100h-226q21 -99 21 -201q0 -59 -12 -111q49 -29 73 -42.5t63 -27.5t71 -14q71 0 98.5 46.5t27.5 171.5v65h152v-86q0 -181 -55.5 -254.5t-192.5 -73.5zM240 72
q99 0 139 69q-89 68 -152 68q-77 0 -77 -68q0 -69 90 -69z" />
    <glyph glyph-name="uni20A6" unicode="&#x20a6;" horiz-adv-x="1183" 
d="M598 571h-285v-571h-133v571h-160v101h160v135h-160v102h160v547h152l246 -547h290v547h133v-547h162v-102h-162v-135h162v-101h-162v-571h-147zM313 909h133l-98 217l-51 152l16 -260v-109zM492 807h-179v-135h240zM868 807h-245l61 -135h184v135zM883 190l-15 265v116
h-139l98 -219z" />
    <glyph glyph-name="peseta" unicode="&#x20a7;" horiz-adv-x="2297" 
d="M283 471v-471h-142v1456h336q181 0 273.5 -71.5t111.5 -223.5q28 0 51 2q77 0 95 11q33 6 47.5 22t21.5 57q12 53 17 177h106v-259h234v-133h-234v-563q0 -123 27 -209q29 -73 107.5 -104t232.5 -31h215q117 0 184 23q63 22 88 64.5t25 111.5v6q0 67 -41 108
q-24 26 -67 49.5t-73.5 35t-95.5 34.5q-79 30 -131 62q-145 79 -145 241v23q0 137 87.5 219t248.5 82q166 0 253 -79.5t87 -221.5v-88h-144v86q0 178 -196 178q-95 0 -144 -47t-49 -127v-19q0 -62 41 -100q8 -8 17 -15t17.5 -13t22 -13t21.5 -11.5t24.5 -12t24 -10.5t27 -11
t26 -10.5t29 -10.5t27.5 -10q70 -24 131 -61q145 -79 145 -248v-24q0 -102 -39 -175q-42 -74 -136.5 -110.5t-258.5 -36.5h-240q-154 0 -248.5 24t-146.5 78q-49 53 -68.5 137.5t-19.5 217.5v581h-199v-188q0 -181 -94.5 -280t-288.5 -99h-200zM283 1325v-723h194
q121 -1 182.5 63.5t61.5 186.5v231q0 124 -60 183t-188 59h-190z" />
    <glyph glyph-name="uni20A8" unicode="&#x20a8;" horiz-adv-x="1835" 
d="M1317 -20q-114 0 -199 30q-77 30 -135.5 93t-116.5 171l-63 121q-62 115 -137 166t-203 51h-178v-612h-144v1456h359q200 0 291.5 -81.5t91.5 -246.5v-163q0 -226 -195 -285q76 -23 127.5 -72t97.5 -135l66 -123q73 -133 148 -186t194 -53h33q245 0 245 204v15
q0 64 -36.5 105t-106.5 73q-25 11 -81 32.5t-101.5 41t-83.5 41.5q-143 78 -143 243v23q0 137 87 219t248 82q166 0 253 -79.5t87 -221.5v-88h-143v86q0 178 -197 178q-95 0 -143.5 -47t-48.5 -127v-19q0 -61 36.5 -99.5t106.5 -67.5q18 -7 81.5 -31.5t105.5 -43t79 -40.5
q144 -82 144 -252v-19q0 -157 -96.5 -248t-286.5 -91h-43zM285 1327v-586h213q237 0 237 230v145q0 110 -56.5 160.5t-182.5 50.5h-211z" />
    <glyph glyph-name="uni20A9" unicode="&#x20a9;" horiz-adv-x="1466" 
d="M860 580h-270l-131 -580h-131l-90 580h-218v102h201l-20 135h-181v103h164l-84 536h140l77 -536h244l119 536h100l113 -536h254l90 536h137l-96 -536h168v-103h-186l-25 -135h211v-102h-229l-105 -580h-133zM666 920h122l-38 190l-21 188l-20 -190zM537 817h-203l18 -135
h156zM811 817h-168l-31 -135h226zM1128 817h-215l29 -135h164zM406 141l32 232l47 207h-116l26 -189zM1036 127l21 264l33 189h-125l43 -207z" />
    <glyph glyph-name="uni20AA" unicode="&#x20aa;" horiz-adv-x="1359" 
d="M457 0v1153q88 0 112.5 -32.5t24.5 -141.5v-852h215q283 0 283 332v999h137v-1005q0 -221 -104.5 -337t-309.5 -116h-358zM276 1329v-1329h-135v1456h353q213 0 315 -107.5t102 -330.5v-535q0 -103 -27.5 -138.5t-109.5 -35.5v703q0 165 -67 241t-222 76h-209z" />
    <glyph glyph-name="Euro" unicode="&#x20ac;" horiz-adv-x="1046" 
d="M989 403q0 -423 -389 -423q-205 0 -308.5 109t-103.5 341v100h-135v111h135v186h-135v109h135v80q0 225 103 341t303 116q199 0 293 -105t94 -291v-24h-152v18q0 136 -53.5 203t-181.5 67q-136 0 -197 -81.5t-61 -247.5v-76h455l-43 -109h-412v-186h350l-41 -111h-309
v-92q0 -164 62.5 -242.5t199.5 -78.5q127 0 181.5 68t54.5 227v28h155v-37z" />
    <glyph glyph-name="uni20AE" unicode="&#x20ae;" horiz-adv-x="806" 
d="M473 569v-569h-145v506l-189 -84v100l189 84v150l-189 -84v100l189 84v465h-279v135h709v-135h-285v-401l203 90v-101l-203 -90v-149l203 90v-101z" />
    <glyph glyph-name="uni20B1" unicode="&#x20b1;" horiz-adv-x="1019" 
d="M309 414v-414h-143v764h-137v96h137v156h-137v98h137v342h301q199 0 293 -83t102 -259h131v-98h-131v-156h131v-96h-131q-8 -168 -103.5 -259t-285.5 -91h-164zM309 1325v-211h410q-8 109 -68.5 160t-187.5 51h-154zM719 1016h-410v-156h410v156zM467 545q234 -3 250 219
h-408v-219h158z" />
    <glyph glyph-name="uni2105" unicode="&#x2105;" horiz-adv-x="1220" 
d="M313 848q-108 0 -166.5 60t-58.5 171v162q0 109 61 169t164 60q105 0 163.5 -57.5t58.5 -163.5v-16h-115v12q0 127 -107 127q-55 0 -85.5 -34t-30.5 -99v-154q0 -135 116 -135q109 0 109 131v17h115v-23q0 -106 -58.5 -166.5t-165.5 -60.5zM950 1456h150l-828 -1456h-153
zM905 -20q-108 0 -166.5 60t-58.5 171v162q0 109 61.5 172t163.5 63q103 0 164 -63.5t61 -171.5v-162q0 -108 -59 -169.5t-166 -61.5zM905 84q59 0 88 35t29 98v154q0 133 -117 133q-114 0 -114 -133v-154q0 -133 114 -133z" />
    <glyph glyph-name="uni2116" unicode="&#x2116;" horiz-adv-x="1744" 
d="M1382 629q-133 0 -202.5 72t-69.5 206v287q0 135 74.5 209t197.5 74q125 0 200 -75t75 -208v-287q0 -131 -73.5 -204.5t-201.5 -73.5zM274 0h-133v1456h127l500 -1077l57 -164l-22 236v1005h135v-1456h-125l-508 1100l-53 180l22 -266v-1014zM1382 750q71 0 107.5 42
t36.5 119v281q0 79 -37 123.5t-107 44.5q-67 0 -103 -43t-36 -127v-279q0 -161 139 -161zM1640 350h-514v127h514v-127z" />
    <glyph glyph-name="uni2117" unicode="&#x2117;" horiz-adv-x="1302" 
d="M655 -20q-162 0 -286 59q-127 62 -196 183.5t-69 299.5v389q0 179 70 301q70 126 192 192t283 66q155 0 281 -63q129 -67 198.5 -189.5t69.5 -293.5v-398q0 -181 -72 -299q-70 -122 -191 -184.5t-280 -62.5zM655 90q202 0 317 114t115 328v383q0 213 -119.5 330
t-318.5 117q-201 0 -317.5 -120t-116.5 -337v-377q0 -213 117.5 -325.5t322.5 -112.5zM553 551v-293h-107v936h220q126 0 185.5 -55.5t59.5 -165.5v-187q0 -235 -239 -235h-119zM553 1096v-445h111q139 0 139 140v172q0 69 -32.5 101t-108.5 32h-109z" />
    <glyph glyph-name="uni2120" unicode="&#x2120;" horiz-adv-x="1044" 
d="M238 825q-185 0 -185 162v72h94v-68q0 -43 21 -64.5t70 -21.5q41 0 62.5 21t21.5 55v23q0 24 -7.5 41.5t-28 33t-31 21t-42.5 20.5q-5 3 -8 4q-35 17 -52.5 27.5t-42.5 31t-36 48.5t-11 65v21q0 67 45.5 108t122.5 41q170 0 170 -145v-64h-90v58q0 76 -80 76
q-75 0 -75 -78v-13q0 -10 1.5 -18.5t6.5 -16.5t8.5 -13.5t13 -13t13.5 -11.5t17 -11t17 -9.5t19.5 -10.5t19.5 -10q66 -31 102 -68.5t36 -107.5v-29q0 -70 -44.5 -113t-127.5 -43zM590 834h-86v622h80l139 -338l139 338h82v-622h-88v331l8 144l-14 -56l-117 -290h-18
l-119 290l-14 56l8 -144v-331z" />
    <glyph glyph-name="trademark" unicode="&#x2122;" horiz-adv-x="1013" 
d="M262 1370v-536h-90v536h-119v86h332v-86h-123zM547 834h-84v622h80l137 -319l137 319h82v-622h-86v329l14 174l-28 -100l-109 -244h-18l-111 244l-29 100l15 -174v-329z" />
    <glyph glyph-name="uni2126" unicode="&#x2126;" horiz-adv-x="1265" 
d="M485 0h-436v137h318q-105 148 -167.5 315t-62.5 377q0 324 128.5 485t359.5 161q234 0 363.5 -158.5t129.5 -487.5q0 -365 -225 -692h319v-137h-428l-67 115q57 87 125 213q127 233 127 503q0 192 -45 299q-84 209 -299 209q-101 0 -174 -49q-164 -107 -164 -459
q0 -153 37 -274q32 -111 85.5 -213t135.5 -229z" />
    <glyph glyph-name="uni2153" unicode="&#x2153;" horiz-adv-x="1181" 
d="M635 848l332 649l139 -90l-424 -590zM109 735v101h114v419h-98v86q54 1 79.5 28t33.5 87h84v-620h112v-101h-325zM885 -12q-209 0 -209 180v90h110v-84q0 -88 97 -88q98 0 98 88v57q0 91 -92 91h-64v94h64q51 0 68.5 22t17.5 70v39q0 48 -20.5 70t-69.5 22q-92 0 -92 -92
v-66h-107v66q0 90 50.5 137t146.5 47q196 0 196 -176v-43q0 -108 -86 -139q97 -24 97 -140v-67q0 -84 -52.5 -131t-152.5 -47zM569 643l-333 -678l-144 98l430 611z" />
    <glyph glyph-name="uni2154" unicode="&#x2154;" horiz-adv-x="1181" 
d="M635 848l332 649l139 -90l-424 -590zM74 735v76q0 68 28 119q9 14 18 26.5t22.5 26.5t21 22.5t25 23.5t23 19.5t26.5 22t24 19.5q51 42 77 78t26 81v33q0 92 -91 92q-48 0 -68 -25t-20 -75v-98h-108v102q0 90 51.5 139t146.5 49q195 0 195 -180v-41q0 -59 -27 -106
q-41 -68 -145 -150q-100 -78 -109 -151h287v-103h-403zM885 -12q-209 0 -209 180v90h110v-84q0 -88 97 -88q98 0 98 88v57q0 91 -92 91h-64v94h64q51 0 68.5 22t17.5 70v39q0 48 -20.5 70t-69.5 22q-92 0 -92 -92v-66h-107v66q0 90 50.5 137t146.5 47q196 0 196 -176v-43
q0 -108 -86 -139q97 -24 97 -140v-67q0 -84 -52.5 -131t-152.5 -47zM569 643l-333 -678l-144 98l430 611z" />
    <glyph glyph-name="uni2155" unicode="&#x2155;" horiz-adv-x="1181" 
d="M635 848l332 649l139 -90l-424 -590zM109 735v101h114v419h-98v86q54 1 79.5 28t33.5 87h84v-620h112v-101h-325zM889 -12q-205 0 -205 184v70h111v-66q0 -90 96 -90q102 0 102 102v121q0 56 -23.5 78.5t-70.5 22.5q-67 0 -106 -70l-9 -18l-90 22l35 377h338v-6
q0 -52 -20.5 -73t-77.5 -21h-154q-11 -78 -24 -201q44 76 143 76q79 0 120.5 -45.5t41.5 -133.5v-131q0 -96 -52.5 -147t-154.5 -51zM569 643l-333 -678l-144 98l430 611z" />
    <glyph glyph-name="uni2156" unicode="&#x2156;" horiz-adv-x="1181" 
d="M635 848l332 649l139 -90l-424 -590zM76 735v76q0 68 28 119q9 14 18 26.5t22.5 26.5t21 22.5t25 23.5t23 19.5t26.5 22t24 19.5q51 42 77 78t26 81v33q0 92 -91 92q-48 0 -68 -25t-20 -75v-98h-108v102q0 89 52 138.5t147 49.5q194 0 194 -180v-41q0 -59 -27 -106
q-41 -68 -145 -150q-99 -77 -108 -151h286v-103h-403zM889 -12q-205 0 -205 184v70h111v-66q0 -90 96 -90q102 0 102 102v121q0 56 -23.5 78.5t-70.5 22.5q-67 0 -106 -70l-9 -18l-90 22l35 377h338v-6q0 -52 -20.5 -73t-77.5 -21h-154q-11 -78 -24 -201q44 76 143 76
q79 0 120.5 -45.5t41.5 -133.5v-131q0 -96 -52.5 -147t-154.5 -51zM569 643l-333 -678l-144 98l430 611z" />
    <glyph glyph-name="uni2157" unicode="&#x2157;" horiz-adv-x="1181" 
d="M635 848l332 649l139 -90l-424 -590zM276 723q-208 0 -208 180v90h110v-84q0 -88 96 -88q99 0 99 88v58q0 90 -92 90h-64v94h64q51 0 68.5 22t17.5 70v39q0 48 -21 70t-70 22q-92 0 -92 -92v-65h-106v65q0 90 50 137t146 47q197 0 197 -176v-43q0 -108 -86 -139
q96 -23 96 -139v-68q0 -84 -52.5 -131t-152.5 -47zM889 -12q-205 0 -205 184v70h111v-66q0 -90 96 -90q102 0 102 102v121q0 56 -23.5 78.5t-70.5 22.5q-67 0 -106 -70l-9 -18l-90 22l35 377h338v-6q0 -52 -20.5 -73t-77.5 -21h-154q-11 -78 -24 -201q44 76 143 76
q79 0 120.5 -45.5t41.5 -133.5v-131q0 -96 -52.5 -147t-154.5 -51zM569 643l-333 -678l-144 98l430 611z" />
    <glyph glyph-name="uni2158" unicode="&#x2158;" horiz-adv-x="1181" 
d="M635 848l332 649l139 -90l-424 -590zM426 891v-156h-92v156h-281v78l279 487h94v-479h86v-86h-86zM160 977h174v264l8 84l-25 -68zM889 -12q-205 0 -205 184v70h111v-66q0 -90 96 -90q102 0 102 102v121q0 56 -23.5 78.5t-70.5 22.5q-67 0 -106 -70l-9 -18l-90 22l35 377
h338v-6q0 -52 -20.5 -73t-77.5 -21h-154q-11 -78 -24 -201q44 76 143 76q79 0 120.5 -45.5t41.5 -133.5v-131q0 -96 -52.5 -147t-154.5 -51zM569 643l-333 -678l-144 98l430 611z" />
    <glyph glyph-name="uni2159" unicode="&#x2159;" horiz-adv-x="1181" 
d="M635 848l332 649l139 -90l-424 -590zM109 735v101h114v419h-98v86q54 1 79.5 28t33.5 87h84v-620h112v-101h-325zM1094 193q0 -95 -52.5 -150t-152.5 -55q-116 0 -164.5 56.5t-48.5 174.5v285q0 227 205 227q103 0 152.5 -49t49.5 -150v-30h-108v30q0 56 -21.5 81.5
t-72.5 25.5q-52 0 -77.5 -31.5t-25.5 -103.5v-144q39 80 146 80q170 0 170 -170v-77zM569 643l-333 -678l-144 98l430 611zM889 84q102 0 102 111v69q0 49 -24.5 72.5t-77.5 23.5q-87 0 -111 -84v-65q0 -67 26 -97t85 -30z" />
    <glyph glyph-name="uni215A" unicode="&#x215a;" horiz-adv-x="1181" 
d="M635 848l332 649l139 -90l-424 -590zM279 723q-205 0 -205 184v70h110v-66q0 -90 97 -90q102 0 102 103v120q0 56 -23.5 78.5t-70.5 22.5q-68 0 -107 -70l-8 -18l-90 22l35 377h338v-6q0 -52 -21 -73t-78 -21h-153q-16 -116 -25 -201q44 76 144 76q161 0 161 -178v-131
q0 -96 -52 -147.5t-154 -51.5zM1094 193q0 -95 -52.5 -150t-152.5 -55q-116 0 -164.5 56.5t-48.5 174.5v285q0 227 205 227q103 0 152.5 -49t49.5 -150v-30h-108v30q0 56 -21.5 81.5t-72.5 25.5q-52 0 -77.5 -31.5t-25.5 -103.5v-144q39 80 146 80q170 0 170 -170v-77z
M569 643l-333 -678l-144 98l430 611zM889 84q102 0 102 111v69q0 49 -24.5 72.5t-77.5 23.5q-87 0 -111 -84v-65q0 -67 26 -97t85 -30z" />
    <glyph glyph-name="uni215B" unicode="&#x215b;" horiz-adv-x="1181" 
d="M635 848l332 649l139 -90l-424 -590zM111 735v101h114v419h-98v86q54 1 79.5 28t33.5 87h84v-620h112v-101h-325zM883 -12q-209 0 -209 182v55q0 58 28.5 96t75.5 52q-90 26 -90 137v45q0 85 52 130.5t147 45.5t146.5 -45.5t51.5 -130.5v-45q0 -111 -94 -137
q105 -30 105 -148v-55q0 -89 -55 -135.5t-158 -46.5zM569 643l-333 -678l-144 98l430 611zM893 412q90 0 90 90v47q0 94 -96 94q-99 0 -99 -96v-45q0 -90 86 -90h19zM883 82q108 0 108 96v55q0 97 -98 97h-19q-46 0 -71 -26.5t-25 -70.5v-55q0 -96 105 -96z" />
    <glyph glyph-name="uni215C" unicode="&#x215c;" horiz-adv-x="1181" 
d="M635 848l332 649l139 -90l-424 -590zM274 723q-208 0 -208 180v90h110v-84q0 -88 96 -88q99 0 99 88v58q0 90 -92 90h-64v94h64q51 0 68.5 22t17.5 70v39q0 48 -21 70t-70 22q-92 0 -92 -92v-65h-106v65q0 90 50 137t146 47q197 0 197 -176v-43q0 -108 -86 -139
q96 -23 96 -139v-68q0 -84 -52.5 -131t-152.5 -47zM883 -12q-209 0 -209 182v55q0 58 28.5 96t75.5 52q-90 26 -90 137v45q0 85 52 130.5t147 45.5t146.5 -45.5t51.5 -130.5v-45q0 -111 -94 -137q105 -30 105 -148v-55q0 -89 -55 -135.5t-158 -46.5zM569 643l-333 -678
l-144 98l430 611zM893 412q90 0 90 90v47q0 94 -96 94q-99 0 -99 -96v-45q0 -90 86 -90h19zM883 82q108 0 108 96v55q0 97 -98 97h-19q-46 0 -71 -26.5t-25 -70.5v-55q0 -96 105 -96z" />
    <glyph glyph-name="uni215D" unicode="&#x215d;" horiz-adv-x="1181" 
d="M635 848l332 649l139 -90l-424 -590zM279 723q-205 0 -205 184v70h110v-66q0 -90 97 -90q102 0 102 103v120q0 56 -23.5 78.5t-70.5 22.5q-68 0 -107 -70l-8 -18l-90 22l35 377h338v-6q0 -52 -21 -73t-78 -21h-153q-16 -116 -25 -201q44 76 144 76q161 0 161 -178v-131
q0 -96 -52 -147.5t-154 -51.5zM883 -12q-209 0 -209 182v55q0 58 28.5 96t75.5 52q-90 26 -90 137v45q0 85 52 130.5t147 45.5t146.5 -45.5t51.5 -130.5v-45q0 -111 -94 -137q105 -30 105 -148v-55q0 -89 -55 -135.5t-158 -46.5zM569 643l-333 -678l-144 98l430 611z
M893 412q90 0 90 90v47q0 94 -96 94q-99 0 -99 -96v-45q0 -90 86 -90h19zM883 82q108 0 108 96v55q0 97 -98 97h-19q-46 0 -71 -26.5t-25 -70.5v-55q0 -96 105 -96z" />
    <glyph glyph-name="uni215E" unicode="&#x215e;" horiz-adv-x="1181" 
d="M635 848l332 649l139 -90l-424 -590zM223 735q51 306 213 619h-276v102h383v-86q-72 -136 -125.5 -301.5t-77.5 -333.5h-117zM883 -12q-209 0 -209 182v55q0 58 28.5 96t75.5 52q-90 26 -90 137v45q0 85 52 130.5t147 45.5t146.5 -45.5t51.5 -130.5v-45q0 -111 -94 -137
q105 -30 105 -148v-55q0 -89 -55 -135.5t-158 -46.5zM569 643l-333 -678l-144 98l430 611zM893 412q90 0 90 90v47q0 94 -96 94q-99 0 -99 -96v-45q0 -90 86 -90h19zM883 82q108 0 108 96v55q0 97 -98 97h-19q-46 0 -71 -26.5t-25 -70.5v-55q0 -96 105 -96z" />
    <glyph glyph-name="uni215F" unicode="&#x215f;" horiz-adv-x="1181" 
d="M635 848l332 649l139 -90l-424 -590zM109 735v101h114v419h-98v86q54 1 79.5 28t33.5 87h84v-620h112v-101h-325zM569 643l-333 -678l-144 98l430 611z" />
    <glyph glyph-name="arrowleft" unicode="&#x2190;" horiz-adv-x="1554" 
d="M338 666q87 -64 167 -159t122 -196h-160q-18 53 -82 146q-133 166 -264 241v68q52 30 137 104q158 154 203 283h157q-41 -100 -117 -194t-159 -156h1063v-137h-1067z" />
    <glyph glyph-name="arrowup" unicode="&#x2191;" horiz-adv-x="1554" 
d="M1190 864q-101 40 -194.5 118t-157.5 163v-1043h-136v1043q-62 -83 -158 -161t-198 -120v158q65 22 146 80q76 55 140 124.5t103 137.5h68q36 -63 104 -137q138 -151 283 -205v-158z" />
    <glyph glyph-name="arrowright" unicode="&#x2192;" horiz-adv-x="1554" 
d="M926 311q40 101 120 195t168 160h-1067v137h1063q-83 64 -160 158t-116 192h156q30 -79 81 -143q110 -152 261 -244v-68q-59 -31 -140 -102q-155 -145 -207 -285h-159z" />
    <glyph glyph-name="arrowdown" unicode="&#x2193;" horiz-adv-x="1554" 
d="M735 96q-30 52 -104 137q-154 158 -283 203v160q101 -40 193 -117t157 -164v1041h138v-1043q63 84 159 162.5t197 118.5v-158q-63 -21 -145 -80q-164 -119 -244 -260h-68z" />
    <glyph glyph-name="uni2196" unicode="&#x2196;" horiz-adv-x="1554" 
d="M1174 236l-754 753q16 -90 2.5 -219.5t-55.5 -228.5l-111 112q29 59 45 160q29 198 -12 354l47 50q84 -23 172 -23q200 -9 344 53l111 -110q-99 -42 -228 -55t-219 3l754 -751z" />
    <glyph glyph-name="uni2197" unicode="&#x2197;" horiz-adv-x="1554" 
d="M1159 543q-42 98 -53.5 227.5t4.5 218.5l-754 -753l-96 94l754 755q-90 -16 -219.5 -2t-231.5 56l113 110q68 -33 160 -45q197 -29 356 10l47 -47q-19 -65 -22 -170q-10 -202 55 -344z" />
    <glyph glyph-name="uni2198" unicode="&#x2198;" horiz-adv-x="1554" 
d="M1192 264q-69 20 -170 23q-206 10 -344 -56l-113 113q102 45 230.5 57t218.5 -8l-756 754l96 96l756 -754q-16 91 -3.5 220.5t54.5 230.5l111 -113q-32 -76 -45 -159q-27 -204 14 -357z" />
    <glyph glyph-name="uni2199" unicode="&#x2199;" horiz-adv-x="1554" 
d="M852 229q-56 27 -160 45q-198 29 -356 -12l-47 49q22 80 22 170q10 202 -55 344l113 113q45 -102 57 -230t-8 -219l753 754l97 -96l-754 -754q92 16 221 2.5t228 -55.5z" />
    <glyph glyph-name="partialdiff" unicode="&#x2202;" horiz-adv-x="966" 
d="M479 -18q-187 0 -283 101t-96 296v397q0 190 91 290.5t251 100.5q199 0 263 -174q-32 158 -149 288.5t-353 279.5h213q219 -148 328.5 -336.5t109.5 -436.5v-401q0 -198 -97 -301.5t-278 -103.5zM479 113q116 0 174 70.5t58 205.5v387q0 125 -57.5 195.5t-170.5 70.5
q-114 0 -174.5 -68t-60.5 -200v-393q0 -128 58 -198t173 -70z" />
    <glyph glyph-name="uni2206" unicode="&#x2206;" horiz-adv-x="1189" 
d="M23 0l573 1483l571 -1483h-1144zM596 1118l-367 -985h736z" />
    <glyph glyph-name="product" unicode="&#x220f;" horiz-adv-x="1138" 
d="M729 1323h-323v-1323h-144v1323h-207v133h1028v-133h-209v-1323h-145v1323z" />
    <glyph glyph-name="summation" unicode="&#x2211;" horiz-adv-x="798" 
d="M729 0h-666v147l347 607l-334 561v141h631v-131h-478l338 -573l-352 -619h514v-133z" />
    <glyph glyph-name="minus" unicode="&#x2212;" horiz-adv-x="909" 
d="M115 655v131h680v-131h-680z" />
    <glyph glyph-name="radical" unicode="&#x221a;" horiz-adv-x="1157" 
d="M442 0l-241 844h-135v137h239l211 -756l434 1231h154l-522 -1456h-140z" />
    <glyph glyph-name="infinity" unicode="&#x221e;" horiz-adv-x="1456" 
d="M387 465q-127 0 -201.5 71.5t-74.5 196.5q0 120 78 196.5t198 76.5q68 0 131 -29q38 -19 81 -50.5t62 -48.5t68 -61q41 41 96 86q130 103 248 103q121 0 195.5 -74.5t74.5 -196.5q0 -120 -75.5 -195t-196.5 -75q-67 0 -133 29q-37 18 -78.5 47.5t-63 47.5t-67.5 58
q-72 -63 -98 -84q-117 -98 -244 -98zM389 590q34 0 66.5 10.5t71 37.5t56.5 42t62 53q-38 35 -61 54.5t-58.5 44t-69 36t-67.5 11.5q-61 0 -102 -42t-41 -104q0 -61 40 -102t103 -41zM1069 590q64 0 104.5 41t40.5 102q0 63 -40 104.5t-105 41.5q-34 0 -67 -11t-69.5 -37.5
t-56.5 -44t-61 -55.5q91 -80 132 -104q63 -37 122 -37z" />
    <glyph glyph-name="integral" unicode="&#x222b;" horiz-adv-x="585" 
d="M-6 -172h72q60 0 92 14q31 12 43 51t12 121v1260q0 180 61.5 248.5t214.5 68.5h74v-127h-55q-56 0 -96 -14q-32 -17 -45 -60t-13 -130v-1262q0 -118 -22 -186q-23 -65 -81.5 -92t-170.5 -27h-86v135z" />
    <glyph glyph-name="approxequal" unicode="&#x2248;" horiz-adv-x="925" 
d="M295 1008q55 0 117 -21q11 -4 46 -16t50.5 -17t42 -12.5t46.5 -10.5t38 -3q44 0 81.5 21t57.5 59v-144q-14 -26 -54.5 -45.5t-84.5 -19.5q-66 0 -125 20q-24 7 -73.5 25t-82.5 26.5t-61 8.5q-39 0 -79.5 -22t-63.5 -58v141q18 28 59 48t86 20zM150 584q18 27 58 47t83 20
q62 0 121 -20q20 -6 59 -20t61 -21.5t51.5 -14t51.5 -6.5q84 0 139 80v-143q-14 -26 -53 -46t-86 -20q-61 0 -123 21q-17 6 -58 20t-60.5 20.5t-49.5 12.5t-53 6q-41 0 -80.5 -22.5t-60.5 -55.5v142z" />
    <glyph glyph-name="notequal" unicode="&#x2260;" horiz-adv-x="925" 
d="M432 477l-51 -186h-90l51 186h-199v127h234l69 256h-303v127h338l45 166h90l-45 -166h209v-127h-243l-70 -256h313v-127h-348z" />
    <glyph glyph-name="equivalence" unicode="&#x2261;" horiz-adv-x="925" 
d="M143 969v127h637v-127h-637zM143 668v129h637v-129h-637zM143 371v127h637v-127h-637z" />
    <glyph glyph-name="lessequal" unicode="&#x2264;" horiz-adv-x="925" 
d="M145 811v119l623 250v-142l-457 -166l457 -167v-148zM147 305v129h623v-129h-623z" />
    <glyph glyph-name="greaterequal" unicode="&#x2265;" horiz-adv-x="925" 
d="M158 705l456 167l-456 166v142l622 -250v-119l-622 -254v148zM158 305v129h620v-129h-620z" />
    <glyph glyph-name="uni22A0" unicode="&#x22a0;" horiz-adv-x="1851" 
d="M203 1456h1446v-1456h-1446v1456zM399 184h1051v1086h-1051v-1086zM926 616l-281 -290l-117 114l285 293l-283 291l117 113l279 -285l278 287l117 -115l-281 -291l283 -289l-117 -116z" />
    <glyph glyph-name="house" unicode="&#x2302;" horiz-adv-x="1728" 
d="M205 0v821l659 633l660 -633v-821h-1319z" />
    <glyph glyph-name="filledbox" unicode="&#x25a0;" horiz-adv-x="1851" 
d="M203 1456h1446v-1456h-1446v1456z" />
    <glyph glyph-name="uni25A1" unicode="&#x25a1;" horiz-adv-x="1851" 
d="M203 0v1456h1446v-1456h-1446zM399 1270v-1086h1051v1086h-1051z" />
    <glyph glyph-name="uni25AA" unicode="&#x25aa;" horiz-adv-x="1562" 
d="M205 1151h1153v-1151h-1153v1151z" />
    <glyph glyph-name="uni25AB" unicode="&#x25ab;" horiz-adv-x="1562" 
d="M205 1151h1153v-1151h-1153v1151zM401 184h762v785h-762v-785z" />
    <glyph glyph-name="triagup" unicode="&#x25b2;" horiz-adv-x="1798" 
d="M43 0l858 1485l854 -1485h-1712z" />
    <glyph glyph-name="triagrt" unicode="&#x25ba;" horiz-adv-x="1798" 
d="M203 1599l1485 -856l-1485 -856v1712z" />
    <glyph glyph-name="triagdn" unicode="&#x25bc;" horiz-adv-x="1798" 
d="M1755 1460l-854 -1485l-858 1485h1712z" />
    <glyph glyph-name="triaglf" unicode="&#x25c4;" horiz-adv-x="1798" 
d="M1595 -113l-1482 856l1482 856v-1712z" />
    <glyph glyph-name="lozenge" unicode="&#x25ca;" horiz-adv-x="1200" 
d="M55 727l541 541l547 -545l-543 -541zM600 371l352 352l-358 356l-350 -352z" />
    <glyph glyph-name="circle" unicode="&#x25cb;" horiz-adv-x="1845" 
d="M922 -20q-215 0 -381 94q-170 98 -263.5 264.5t-93.5 380.5q0 327 209 530q205 211 529 211q321 0 530 -209t209 -532q0 -318 -207 -531q-214 -208 -532 -208zM922 174q152 0 278 72q124 73 194 197t70 276q0 158 -69 278q-73 129 -195.5 201t-277.5 72q-149 0 -275 -72
q-125 -73 -195.5 -198t-70.5 -281q0 -159 72 -279q71 -125 194 -195.5t275 -70.5z" />
    <glyph glyph-name="uni25CE" unicode="&#x25ce;" horiz-adv-x="1826" 
d="M909 -20q-211 0 -377 94q-166 96 -258 261t-92 376q0 317 205 528q206 209 522 209t529 -207q207 -213 207 -530q0 -318 -205 -523q-202 -208 -531 -208zM909 240q137 0 244 61q108 65 168.5 171.5t60.5 238.5q0 133 -61 243q-63 111 -170 174.5t-242 63.5
q-128 0 -235 -64q-107 -66 -168.5 -174t-61.5 -243q0 -131 62 -240q65 -109 170.5 -170t232.5 -61zM911 373q-96 0 -174 43q-77 43 -120.5 120t-43.5 173q0 102 45 176q45 79 122 123.5t171 44.5q102 0 176 -45q80 -45 125 -123t45 -176t-45 -172q-45 -78 -123 -121
t-178 -43zM911 596q48 0 79.5 33.5t31.5 79.5q0 54 -30.5 86t-80.5 32q-45 0 -74.5 -32.5t-29.5 -85.5q0 -45 30.5 -79t73.5 -34z" />
    <glyph glyph-name="uni25CF" unicode="&#x25cf;" horiz-adv-x="1845" 
d="M922 -20q-215 0 -381 94q-170 98 -263.5 264.5t-93.5 380.5q0 327 209 530q205 211 529 211q321 0 530 -209t209 -532q0 -318 -207 -531q-214 -208 -532 -208z" />
    <glyph glyph-name="uni25E2" unicode="&#x25e2;" horiz-adv-x="1798" 
d="M537 -145l-443 1654l1653 -444z" />
    <glyph glyph-name="uni25E3" unicode="&#x25e3;" horiz-adv-x="1798" 
d="M55 1065l1655 444l-442 -1654z" />
    <glyph glyph-name="uni25E4" unicode="&#x25e4;" horiz-adv-x="1798" 
d="M61 334l1213 1212l442 -1652z" />
    <glyph glyph-name="uni25E5" unicode="&#x25e5;" horiz-adv-x="1798" 
d="M92 -115l445 1653l1208 -1212z" />
    <glyph glyph-name="uni2605" unicode="&#x2605;" horiz-adv-x="1824" 
d="M1286 172l-379 272l-377 -272l148 442l-377 275l461 -2l147 438l144 -438l465 -2l-379 -273z" />
    <glyph glyph-name="sun" unicode="&#x263c;" horiz-adv-x="1882" 
d="M881 1436h108l-35 -289h-39zM530 1313l97 57l108 -268l-26 -21zM1245 1370l92 -57l-174 -232l-30 21zM287 1030l55 94l233 -176l-20 -30zM1524 1124l59 -92l-266 -114l-21 32zM584 719q0 99 47 176q48 81 128 128.5t175 47.5q99 0 176 -47q84 -50 131 -129.5t47 -175.5
q0 -100 -49 -176q-48 -81 -129 -128.5t-176 -47.5q-93 0 -176 47q-81 50 -127.5 130t-46.5 175zM221 668v108l287 -35v-39zM1649 776v-108l-289 34v39zM346 315l-59 95l268 112l20 -30zM1583 412l-55 -97l-232 179l21 28zM627 74l-97 55l179 231l26 -20zM1337 129l-92 -55
l-112 266l30 20zM989 8h-108l34 289h39z" />
    <glyph glyph-name="uni263E" unicode="&#x263e;" horiz-adv-x="1597" 
d="M1083 1223q-133 0 -243 -70q-111 -68 -175.5 -184t-64.5 -254q0 -134 66 -254q65 -117 175 -184.5t242 -67.5q63 0 144 24q-163 -116 -361 -116q-249 0 -422 176q-176 173 -176 422t176 422q173 176 422 176q197 0 361 -115q-84 25 -144 25z" />
    <glyph glyph-name="spade" unicode="&#x2660;" horiz-adv-x="1828" 
d="M979 573q0 -147 80 -337q21 -46 43.5 -91.5t46.5 -90t29 -54.5h-512q9 17 32.5 63.5t38.5 75.5q115 244 115 434q-18 -53 -68 -129q-100 -139 -268 -139q-99 0 -170 43q-78 44 -124 115t-46 155q0 115 49 209q45 92 143.5 190.5t276.5 239.5l277 222l278 -222
q168 -133 262 -233q101 -101 145 -195.5t44 -210.5q0 -89 -43 -157q-42 -72 -113 -114t-158 -42q-98 0 -166 39q-130 69 -192 229z" />
    <glyph glyph-name="club" unicode="&#x2663;" horiz-adv-x="1828" 
d="M1313 260q-112 0 -197.5 64.5t-128.5 171.5q11 -97 51 -203q17 -45 39.5 -94t37 -77t38 -71t27.5 -51h-512q34 65 61 121q101 202 121 377q-42 -107 -130.5 -172.5t-201.5 -65.5q-95 0 -178 47q-81 48 -127.5 128t-46.5 177q0 99 47 176q48 80 128.5 126.5t176.5 46.5
q30 0 84 -13q-41 90 -41 174q0 101 47 174q48 79 128 125.5t175 46.5q98 0 176 -47q80 -48 126.5 -126t46.5 -173q0 -96 -39 -178q53 17 94 17q100 0 174 -48q80 -45 126 -124.5t46 -176.5q0 -100 -47 -178q-48 -81 -127 -127.5t-174 -46.5z" />
    <glyph glyph-name="heart" unicode="&#x2665;" horiz-adv-x="1828" 
d="M631 279q-176 195 -264 323q-100 139 -144.5 257t-44.5 235q0 103 49 188q48 86 131.5 136t184.5 50t178 -41q79 -43 128.5 -115t59.5 -163q18 141 116.5 230t248.5 89q103 0 186 -51q88 -52 138.5 -137t50.5 -186q0 -118 -45 -234q-91 -225 -416 -581l-279 -314z" />
    <glyph glyph-name="diamond" unicode="&#x2666;" horiz-adv-x="1828" 
d="M915 1485l646 -750l-646 -755l-649 755z" />
    <glyph glyph-name="uni267B" unicode="&#x267b;" horiz-adv-x="1683" 
d="M711 1376h331q26 -1 37 -1.5t32 -5t32.5 -12.5t27 -23t27.5 -38l49 -84l74 43l-107 -288l-292 55l67 41l-123 215q-22 42 -63 65q-22 12 -45 20t-35 9l-12 2v2zM477 1270q21 37 58 51q46 30 110 27q58 -4 105 -28.5t65 -57.5l-197 -344l-258 147zM1518 743q16 -28 16 -73
q0 -62 -33 -109q-35 -48 -79.5 -77t-82.5 -29l-196 344l254 143zM334 254l-164 285q-19 33 -26.5 54t-4.5 53t23 67l49 86l-74 43l301 53l101 -287l-70 43l-61 -104q-61 -101 -64 -111q-25 -48 -25 -86q0 -24 4.5 -48t9.5 -36l5 -12h-4zM1499 496l-168 -287
q-16 -26 -24.5 -37.5t-26 -28.5t-41 -23.5t-55.5 -6.5h-99v-84l-192 233l192 232v-86h246q49 0 88 22q22 14 41.5 31t27.5 27l9 10zM553 113q-39 0 -76 22q-57 37 -78 84q-26 51 -28.5 105t16.5 84h395v-295h-229z" />
    <glyph glyph-name="uni267C" unicode="&#x267c;" horiz-adv-x="1683" 
d="M1526 715q0 -139 -52.5 -263.5t-146.5 -218.5q-198 -198 -483 -198q-140 0 -265 51t-221 147q-97 93 -149.5 217.5t-52.5 264.5q0 288 202 487q96 96 221 148.5t265 52.5q139 0 262.5 -52t220.5 -149q199 -205 199 -487zM727 1235l23 -4q72 -18 100 -72l96 -166l-53 -32
l227 -43l82 223l-57 -31l-37 64q-24 40 -51 51.5t-72 11.5h-258v-2zM467 995l201 -112l149 264q-12 24 -49 45q-93 47 -168 2q-32 -18 -43 -43zM1272 903l-201 -117l156 -268q22 0 63 23q84 59 84 149q0 30 -16 58zM449 365q-5 6 -7 22q-22 60 11 123l96 166l55 -35l-80 221
l-229 -39l55 -35l-39 -65q-8 -14 -12.5 -27.5t-6 -23t1.5 -23t5.5 -20t9 -22t8.5 -21.5l129 -221h3zM1343 553q-4 -6 -14 -16q-39 -50 -110 -50h-191v62l-151 -178l151 -178v67h76q12 0 22 1t19 4l15 5t13.5 8t11 8.5t10 10.5t8 10t8.5 11.5t8 11.5l127 221zM786 260v227
h-307q-15 -24 -12 -67q2 -43 23.5 -82t58.5 -62q37 -16 59 -16h178z" />
    <glyph glyph-name="uni267D" unicode="&#x267d;" horiz-adv-x="1683" 
d="M1526 715q0 -139 -52.5 -263.5t-146.5 -218.5q-198 -198 -483 -198q-140 0 -265 51t-221 147q-97 93 -149.5 217.5t-52.5 264.5q0 288 202 487q96 96 221 148.5t265 52.5q139 0 262.5 -52t220.5 -149q199 -205 199 -487zM1491 715q0 134 -49 252.5t-139 210.5
q-190 190 -459 190q-134 0 -252.5 -49.5t-208.5 -140.5q-92 -92 -142.5 -211t-50.5 -252t50.5 -250.5t142.5 -208.5q90 -90 208.5 -139t252.5 -49q268 0 459 188q90 90 139 208t49 251zM727 1237h258q45 0 72 -11.5t51 -51.5l37 -64l57 31l-82 -223l-227 43l53 32l-96 166
q-20 33 -49 49q-17 10 -35.5 17t-28.5 9l-10 1v2zM557 1151q11 25 43 43q39 23 86 20q45 -5 82 -23t49 -44l-149 -264l-201 112zM1358 748q16 -28 16 -58q0 -48 -24 -86q-25 -38 -59.5 -62t-63.5 -24l-156 268l201 117zM446 365l-129 221q-2 6 -8.5 21.5t-9 22t-5.5 20
t-1.5 23t6 23t12.5 27.5l39 65l-55 35l229 39l80 -221l-55 35l-96 -166q-19 -31 -19 -68q0 -21 4 -40t8 -28l3 -9h-3zM1346 551l-127 -221q-1 -2 -8 -11.5t-8.5 -11.5t-8 -10t-10 -10.5t-11 -8.5t-13.5 -8l-15 -5t-19 -4t-22 -1h-76v-67l-151 178l151 178v-62h191
q38 0 69 17q16 10 29.5 22.5t19.5 19.5l6 7zM608 260q-22 0 -59 16q-38 20 -60 62q-20 40 -22 83t12 66h307v-227h-178z" />
    <glyph glyph-name="uni26AC" unicode="&#x26ac;" horiz-adv-x="1564" 
d="M782 -20q-173 0 -309 77q-139 78 -216 214.5t-77 306.5q0 162 80 309q80 137 217.5 215t304.5 78t305 -78q140 -81 218.5 -216.5t78.5 -307.5q0 -177 -79 -306q-79 -137 -215.5 -214.5t-307.5 -77.5zM782 160q120 0 209 55q93 54 145 149t52 214q0 124 -53 219
q-51 96 -143.5 149t-209.5 53q-128 0 -211 -55q-92 -54 -142 -149t-50 -217q0 -121 51 -213q54 -97 144 -151t208 -54z" />
    <glyph glyph-name="uni2E18" unicode="&#x2e18;" horiz-adv-x="1001" 
d="M506 1153q59 0 81.5 -26.5t22.5 -96.5q0 -66 -24.5 -93.5t-79.5 -27.5q-56 0 -80.5 27t-24.5 94q0 65 25 94t80 29zM500 -338q-185 0 -279 85t-94 222v135q0 105 33 172q20 41 53 80t54.5 58.5t68.5 58.5q54 49 84 103.5t31 134.5l2 100q19 -8 53 -8q36 0 55 8
q6 -54 6 -125q2 -51 2 -199q2 -160 2 -499v-203q172 26 172 227v209h142v-219q0 -165 -96.5 -252.5t-288.5 -87.5zM266 -20q0 -82 43 -133.5t135 -63.5v203q0 251 15 491q-15 -41 -38 -75.5t-37.5 -50t-45.5 -44.5q-35 -35 -53.5 -79t-18.5 -117v-131z" />
    <glyph glyph-name="uni3008" unicode="&#x3008;" horiz-adv-x="612" 
d="M408 -358l-310 936l303 929h154l-303 -927l311 -938h-155z" />
    <glyph glyph-name="uni3009" unicode="&#x3009;" horiz-adv-x="612" 
d="M49 -358l311 938l-301 927h154l303 -929l-309 -936h-158z" />
    <glyph glyph-name="I.alt" horiz-adv-x="436" 
d="M143 0v1456h150v-1456h-150z" />
    <glyph glyph-name="Iacute.alt" horiz-adv-x="436" 
d="M367 1907h157l-248 -322h-114zM143 0v1456h150v-1456h-150z" />
    <glyph glyph-name="Ibreve.alt" horiz-adv-x="436" 
d="M219 1581q-145 0 -206 75t-66 224h110q5 -99 41.5 -146t122.5 -48q84 1 123 49t41 145h111q-2 -143 -70.5 -221t-206.5 -78zM143 0v1456h150v-1456h-150z" />
    <glyph glyph-name="Icircumflex.alt" horiz-adv-x="436" 
d="M223 1780l-127 -195h-129l203 299h106l203 -299h-129zM143 0v1456h150v-1456h-150z" />
    <glyph glyph-name="Idieresis.alt" horiz-adv-x="436" 
d="M80 1585q-46 0 -67 23t-21 80q0 53 22.5 76.5t67.5 23.5q48 0 69 -23t21 -77q0 -55 -22 -79t-70 -24zM360 1585q-50 0 -71 22.5t-21 80.5q0 100 92 100q45 0 67 -23.5t22 -76.5q0 -103 -89 -103zM143 0v1456h150v-1456h-150z" />
    <glyph glyph-name="Idotaccent.alt" horiz-adv-x="436" 
d="M219 1583q-55 0 -78.5 25t-23.5 88q0 60 26 87t78 27q98 0 98 -114q0 -59 -25 -86t-75 -27zM143 0v1456h150v-1456h-150z" />
    <glyph glyph-name="Igrave.alt" horiz-adv-x="436" 
d="M-57 1886h155l185 -299h-115zM143 0v1456h150v-1456h-150z" />
    <glyph glyph-name="Imacron.alt" horiz-adv-x="436" 
d="M-4 1722h450v-114h-450v114zM143 0v1456h150v-1456h-150z" />
    <glyph glyph-name="Iogonek.alt" horiz-adv-x="436" 
d="M463 -201q-61 -184 -256 -184q-103 0 -159 45t-56 129q0 61 34.5 114.5t116.5 110.5v1442h150v-1456q-105 -73 -143.5 -115t-38.5 -86q0 -41 27 -63.5t75 -22.5q93 0 117 86h133z" />
    <glyph glyph-name="Itilde.alt" horiz-adv-x="436" 
d="M-78 1591q2 111 40.5 166t125.5 55q63 0 105 -28q15 -11 41 -30.5t40 -29.5t33.5 -19t36.5 -9q37 0 52.5 24t15.5 88h102q0 -109 -39.5 -166t-128.5 -57q-60 0 -104 29q-15 10 -40 29.5t-40 30t-35.5 19.5t-38.5 9q-32 0 -46.5 -25.5t-14.5 -85.5h-105zM143 0v1456h150
v-1456h-150z" />
    <glyph glyph-name="g.alt" horiz-adv-x="911" 
d="M399 -397q-336 0 -336 202q0 73 58 127.5t158 79.5q-209 15 -209 170q0 145 206 180q-87 29 -128.5 95t-41.5 174v225q0 132 69 213.5t198 108.5q14 6 67 12l125 22q44 11 61 32t17 67v10h158v-35q0 -71 -49.5 -97t-194.5 -30l39 -6q97 -14 159 -89.5t62 -199.5v-231
q0 -154 -95.5 -236t-262.5 -82h-39q-119 0 -169 -23.5t-50 -72.5q0 -42 37 -61.5t124 -18.5h211q159 0 235.5 -63t76.5 -178v-4q0 -85 -47 -146q-97 -145 -398 -145h-41zM457 426q104 0 158.5 53t54.5 154v229q0 104 -50.5 159.5t-150.5 55.5q-45 0 -76 -8
q-141 -41 -141 -213v-225q0 -205 205 -205zM461 -274q134 0 208 43.5t74 113.5v4q0 62 -45 93.5t-145 31.5h-129q-97 -8 -158 -53.5t-61 -112.5v-4q0 -55 52 -85.5t153 -30.5h51z" />
    <glyph glyph-name="gbreve.alt" horiz-adv-x="989" 
d="M483 1311q-145 0 -206 75t-66 224h111q5 -100 41 -147t122 -48q84 1 123 49.5t41 145.5h111q-2 -143 -70.5 -221t-206.5 -78zM494 -457q-363 0 -363 322v24h145v-18q0 -103 52.5 -153t165.5 -50q114 0 170.5 56.5t56.5 162.5v318q-55 -223 -281 -223q-163 0 -251.5 102.5
t-88.5 318.5v345q0 440 346 440q227 0 283 -217l16 200h115v-1282q0 -165 -89.5 -255.5t-276.5 -90.5zM479 111q114 0 179 82.5t65 222.5v327q0 150 -59.5 234t-178.5 84q-118 0 -177.5 -75.5t-59.5 -235.5v-340q0 -148 58.5 -223.5t172.5 -75.5z" />
    <glyph glyph-name="gcircumflex.alt" horiz-adv-x="989" 
d="M487 1509l-127 -194h-129l203 299h107l202 -299h-129zM494 -457q-363 0 -363 322v24h145v-18q0 -103 52.5 -153t165.5 -50q114 0 170.5 56.5t56.5 162.5v318q-55 -223 -281 -223q-163 0 -251.5 102.5t-88.5 318.5v345q0 440 346 440q227 0 283 -217l16 200h115v-1282
q0 -165 -89.5 -255.5t-276.5 -90.5zM479 111q114 0 179 82.5t65 222.5v327q0 150 -59.5 234t-178.5 84q-118 0 -177.5 -75.5t-59.5 -235.5v-340q0 -148 58.5 -223.5t172.5 -75.5z" />
    <glyph glyph-name="gcommaaccent.alt" horiz-adv-x="989" 
d="M481 1317q-51 0 -73.5 32.5t-22.5 108.5q0 101 44.5 169.5t131.5 88.5l8 -78q-80 -25 -92 -131q16 4 23 4q40 0 59 -18.5t19 -73.5q0 -102 -97 -102zM494 -457q-363 0 -363 322v24h145v-18q0 -103 52.5 -153t165.5 -50q114 0 170.5 56.5t56.5 162.5v318
q-55 -223 -281 -223q-163 0 -251.5 102.5t-88.5 318.5v345q0 440 346 440q227 0 283 -217l16 200h115v-1282q0 -165 -89.5 -255.5t-276.5 -90.5zM479 111q114 0 179 82.5t65 222.5v327q0 150 -59.5 234t-178.5 84q-118 0 -177.5 -75.5t-59.5 -235.5v-340q0 -148 58.5 -223.5
t172.5 -75.5z" />
    <glyph glyph-name="gdotaccent.alt" horiz-adv-x="989" 
d="M483 1313q-55 0 -78.5 24.5t-23.5 87.5q0 60 26 87.5t78 27.5q99 0 99 -115q0 -59 -25 -85.5t-76 -26.5zM494 -457q-363 0 -363 322v24h145v-18q0 -103 52.5 -153t165.5 -50q114 0 170.5 56.5t56.5 162.5v318q-55 -223 -281 -223q-163 0 -251.5 102.5t-88.5 318.5v345
q0 440 346 440q227 0 283 -217l16 200h115v-1282q0 -165 -89.5 -255.5t-276.5 -90.5zM479 111q114 0 179 82.5t65 222.5v327q0 150 -59.5 234t-178.5 84q-118 0 -177.5 -75.5t-59.5 -235.5v-340q0 -148 58.5 -223.5t172.5 -75.5z" />
    <glyph glyph-name="g.alt2" horiz-adv-x="989" 
d="M494 -457q-363 0 -363 322v24h145v-18q0 -103 52.5 -153t165.5 -50q114 0 170.5 56.5t56.5 162.5v318q-55 -223 -281 -223q-163 0 -251.5 102.5t-88.5 318.5v345q0 440 346 440q227 0 283 -217l16 200h115v-1282q0 -165 -89.5 -255.5t-276.5 -90.5zM479 111
q114 0 179 82.5t65 222.5v327q0 150 -59.5 234t-178.5 84q-118 0 -177.5 -75.5t-59.5 -235.5v-340q0 -148 58.5 -223.5t172.5 -75.5z" />
    <glyph glyph-name="i.dot" horiz-adv-x="405" 
d="M207 1294q-54 0 -75 24.5t-21 88.5q0 61 22 86t74 25q53 0 74.5 -25t21.5 -86t-23 -87t-73 -26zM131 0v1171h143v-1171h-143z" />
    <glyph glyph-name="zero.inf" horiz-adv-x="563" 
d="M281 -326q-209 0 -209 228v291q0 113 54 169t157 56q99 0 154 -56t55 -169v-291q0 -114 -54 -171t-157 -57zM281 -223q102 0 102 127v286q0 66 -24 97.5t-76 31.5q-101 0 -101 -129v-286q0 -127 99 -127z" />
    <glyph glyph-name="one.inf" horiz-adv-x="421" 
d="M51 -313v100h115v420h-98v86q54 1 79 28t33 87h84v-621h113v-100h-326z" />
    <glyph glyph-name="two.inf" horiz-adv-x="528" 
d="M66 -313v75q0 68 28 119q9 14 18 26.5t22.5 26.5t21 22.5t25 23.5t23 19.5t26.5 22t24 19.5q50 41 76 78t26 82v32q0 93 -90 93q-47 0 -67.5 -25.5t-20.5 -75.5v-98h-108v102q0 90 51.5 139.5t146.5 49.5q195 0 195 -180v-41q0 -61 -27 -107q-39 -66 -145 -149
q-100 -78 -109 -152h287v-102h-403z" />
    <glyph glyph-name="three.inf" horiz-adv-x="538" 
d="M268 -326q-209 0 -209 181v90h111v-84q0 -88 96 -88q99 0 99 88v57q0 90 -93 90h-63v94h63q51 0 68.5 22.5t17.5 70.5v38q0 48 -20.5 70.5t-69.5 22.5q-92 0 -92 -93v-65h-106v65q0 90 50 137.5t146 47.5q197 0 197 -176v-43q0 -109 -86 -140q96 -23 96 -139v-67
q0 -85 -52.5 -132t-152.5 -47z" />
    <glyph glyph-name="four.inf" horiz-adv-x="530" 
d="M414 -158v-155h-92v155h-281v78l278 488h95v-480h86v-86h-86zM147 -72h175v265l8 83l-25 -67z" />
    <glyph glyph-name="five.inf" horiz-adv-x="542" 
d="M274 -326q-204 0 -204 185v69h110v-65q0 -90 96 -90q103 0 103 102v121q0 56 -23.5 78t-70.5 22q-68 0 -107 -69l-8 -19l-90 23l35 377h338v-7q0 -52 -21 -73t-78 -21h-153q-16 -116 -25 -201q44 76 143 76q79 0 120.5 -45t41.5 -133v-131q0 -96 -52.5 -147.5
t-154.5 -51.5z" />
    <glyph glyph-name="six.inf" horiz-adv-x="557" 
d="M489 -121q0 -95 -52 -150t-152 -55q-116 0 -164.5 57t-48.5 175v284q0 228 204 228q103 0 153 -49t50 -150v-31h-108v31q0 55 -22 81t-73 26q-52 0 -77 -32t-25 -104v-143q39 80 145 80q170 0 170 -170v-78zM285 -229q102 0 102 110v70q0 49 -24.5 72.5t-77.5 23.5
q-87 0 -111 -84v-65q0 -67 26 -97t85 -30z" />
    <glyph glyph-name="seven.inf" horiz-adv-x="464" 
d="M104 -313q50 305 213 618h-276v103h383v-86q-72 -136 -125.5 -301.5t-77.5 -333.5h-117z" />
    <glyph glyph-name="eight.inf" horiz-adv-x="552" 
d="M274 -326q-208 0 -208 183v55q0 57 28.5 95t75.5 52q-90 26 -90 138v45q0 85 52 130.5t147 45.5t146.5 -45.5t51.5 -130.5v-45q0 -112 -94 -138q104 -30 104 -147v-55q0 -89 -55 -136t-158 -47zM285 98q90 0 90 90v48q0 94 -96 94q-99 0 -99 -97v-45q0 -90 86 -90h19z
M274 -231q109 0 109 96v55q0 96 -98 96h-19q-46 0 -71 -26t-25 -70v-55q0 -96 104 -96z" />
    <glyph glyph-name="nine.inf" horiz-adv-x="548" 
d="M276 -328q-206 -3 -206 197v43h110v-39q0 -58 23.5 -82t75.5 -24q53 0 77.5 31.5t24.5 101.5v159q-42 -86 -143 -86q-82 0 -128.5 44t-46.5 128v66q0 95 52.5 150t154.5 55q112 0 162.5 -57.5t50.5 -174.5v-284q0 -228 -207 -228zM268 53q56 0 83.5 31t29.5 84v25
q0 131 -111 131q-104 0 -104 -113v-59q0 -99 102 -99z" />
    <glyph glyph-name="underscore" horiz-adv-x="919" 
d="M846 0h-772v141h772v-141z" />
    <glyph glyph-name="backslash.cap" horiz-adv-x="602" 
d="M209 1456l332 -1456h-148l-332 1456h148z" />
    <glyph glyph-name="periodcentered.cap" horiz-adv-x="501" 
d="M252 604q-60 0 -83.5 26t-23.5 95q0 66 25 93.5t82 27.5q55 0 80.5 -27.5t25.5 -93.5t-25.5 -93.5t-80.5 -27.5z" />
    <glyph glyph-name="bullet.cap" horiz-adv-x="536" 
d="M268 582q-72 0 -103.5 31.5t-31.5 103.5q0 137 135 137q69 0 103.5 -31.5t34.5 -105.5q0 -135 -138 -135z" />
    <glyph glyph-name="uni2016.cap" horiz-adv-x="800" 
d="M141 -184v1804h146v-1804h-146zM512 -184v1804h145v-1804h-145z" />
    <glyph glyph-name="exclamdown.cap" horiz-adv-x="524" 
d="M262 1473q59 0 82 -25.5t23 -95.5q0 -66 -25 -92.5t-80 -26.5q-57 0 -81.5 26.5t-24.5 92.5q0 65 25.5 93t80.5 28zM184 0v309q0 129 2 201q1 77 5.5 213.5t5.5 189.5q10 203 12 217q30 -6 51 -6q23 0 53 6l2 -24q2 -24 2 -47q1 -10 15 -340q1 -47 2.5 -133t2.5 -154
t1 -123v-309h-154z" />
    <glyph glyph-name="uni2E18.cap" horiz-adv-x="1001" 
d="M506 1475q59 0 81.5 -26.5t22.5 -96.5q0 -65 -24.5 -92t-79.5 -27q-56 0 -80.5 27t-24.5 92q0 66 25 94.5t80 28.5zM500 -16q-186 0 -279.5 85t-93.5 224v135q0 108 33 170q20 41 54 81.5t52.5 57t69.5 60.5q113 98 115 237l2 99q35 -7 53 -7q43 0 55 9q6 -54 6 -125
q2 -51 2 -199q2 -162 2 -502v-200q89 17 130.5 72.5t41.5 152.5v209h142v-217q0 -165 -96.5 -253.5t-288.5 -88.5zM266 303q0 -82 43 -133.5t135 -63.5v203q0 256 15 490q-15 -40 -38 -74.5t-37.5 -49.5t-45.5 -44q-72 -72 -72 -197v-131z" />
    <glyph glyph-name="questiondown.cap" horiz-adv-x="964" 
d="M504 1473q59 0 81.5 -26.5t22.5 -96.5q0 -65 -24.5 -92t-79.5 -27q-56 0 -80.5 27t-24.5 92q0 66 25 94.5t80 28.5zM578 1135q2 -10 2 -82v-52q0 -90 -25 -151q-38 -95 -143 -174q-37 -29 -55.5 -46.5t-43 -48t-35 -67t-10.5 -82.5v-121q0 -89 51.5 -141.5t161.5 -52.5
q117 0 168 54t51 165v199h154v-211q0 -161 -94.5 -249.5t-280.5 -88.5q-179 0 -270.5 86.5t-91.5 228.5v125q0 90 24 149q39 95 144 177q37 32 57 51.5t44.5 52.5t35.5 72.5t12 89.5v117q16 -13 72 -13t72 13z" />
    <glyph glyph-name="slash.cap" horiz-adv-x="602" 
d="M59 0l338 1456h148l-334 -1456h-152z" />
    <glyph glyph-name="uni3008.cap" horiz-adv-x="612" 
d="M412 -219l-310 934l304 932h145l-301 -928l311 -938h-149z" />
    <glyph glyph-name="uni3009.cap" horiz-adv-x="612" 
d="M51 -219l314 938l-304 928h148l301 -932l-307 -934h-152z" />
    <glyph glyph-name="braceleft.cap" horiz-adv-x="647" 
d="M438 -213q-143 0 -203.5 64.5t-60.5 183.5q0 86 51 256q49 172 49 225q0 83 -35 120.5t-104 37.5h-72v137h68q137 0 137 141q0 65 -22 135q-24 80 -33.5 113.5t-22 97.5t-12.5 109q0 118 60 182t204 64h133v-119h-73q-97 0 -135.5 -39t-38.5 -121q0 -67 22 -137
q2 -7 9 -31t9.5 -32.5t9 -30.5t9 -32t8 -30t7.5 -31.5t5.5 -29t5 -30t2.5 -27t1 -27.5q0 -191 -178 -191v-6q89 0 134.5 -53t45.5 -151q0 -58 -23 -152q-3 -12 -16 -56t-17.5 -60t-14 -52t-13 -56t-7 -45.5t-3.5 -45.5q0 -82 39.5 -121t136.5 -39h75v-121h-137z" />
    <glyph glyph-name="braceright.cap" horiz-adv-x="647" 
d="M74 -92h76q97 0 135.5 39t38.5 121q0 51 -23 145q-3 9 -14 47.5t-15 52t-13 46t-12.5 50t-8.5 43t-7 45.5t-2 38q0 98 46.5 151t136.5 53v6q-179 0 -179 191q0 66 23 145q2 7 10 34t11 36t10 33.5t9.5 36t8 32t7.5 33.5t5 30t4 31t1 27q0 82 -39.5 121t-137.5 39h-71v119
h131q146 0 205 -63.5t59 -182.5q0 -79 -23 -158q-5 -19 -22.5 -79.5t-24 -85.5t-13.5 -64.5t-7 -67.5q0 -141 137 -141h70v-137h-74q-69 0 -104 -37.5t-35 -120.5q0 -59 51 -225q51 -170 51 -256q0 -119 -61 -183.5t-205 -64.5h-135v121z" />
    <glyph glyph-name="bracketleft.cap" horiz-adv-x="626" 
d="M553 -211h-397v1864h397v-127h-252v-1610h252v-127z" />
    <glyph glyph-name="bracketright.cap" horiz-adv-x="626" 
d="M74 -211v127h254v1610h-254v125h399v-1862h-399z" />
    <glyph glyph-name="parenleft.cap" horiz-adv-x="649" 
d="M578 -215q-220 12 -331.5 160t-111.5 461v628q0 592 443 621v-137q-144 -12 -217.5 -127.5t-73.5 -358.5v-620q0 -242 74 -358.5t217 -127.5v-141z" />
    <glyph glyph-name="parenright.cap" horiz-adv-x="649" 
d="M72 -74q144 11 217 127t73 359v620q0 243 -73 358.5t-217 127.5v137q215 -14 328.5 -163t113.5 -458v-628q0 -313 -111 -461t-331 -160v141z" />
    <glyph glyph-name="parenleft.inf" horiz-adv-x="389" 
d="M88 213q0 174 70 264t200 98v-102q-85 -6 -125 -68.5t-40 -195.5v-346q0 -129 42 -189t123 -65v-109q-133 6 -201.5 92.5t-68.5 264.5v356z" />
    <glyph glyph-name="parenright.inf" horiz-adv-x="389" 
d="M33 -393q81 6 123.5 66.5t42.5 189.5v346q0 131 -42 193.5t-124 68.5v104q130 -8 199 -98t69 -264v-356q0 -179 -68 -265t-200 -92v107z" />
    <glyph glyph-name="emdash.cap" horiz-adv-x="946" 
d="M840 651h-734v144h734v-144z" />
    <glyph glyph-name="endash.cap" horiz-adv-x="698" 
d="M592 651h-486v144h486v-144z" />
    <glyph glyph-name="figuredash.cap" horiz-adv-x="1079" 
d="M975 651h-869v144h869v-144z" />
    <glyph glyph-name="uni2015.cap" horiz-adv-x="1056" 
d="M950 651h-844v144h844v-144z" />
    <glyph glyph-name="hyphen.cap" 
d="M733 651h-627v144h627v-144z" />
    <glyph glyph-name="guillemotleft.cap" horiz-adv-x="976" 
d="M389 330l-260 379v18l254 389h135l-258 -391l275 -395h-146zM741 330l-272 385v16l252 385h137l-256 -387l285 -399h-146z" />
    <glyph glyph-name="guillemotright.cap" horiz-adv-x="976" 
d="M98 330l285 399l-256 387h137l250 -385v-16l-268 -385h-148zM449 330l276 395l-258 391h137l252 -389v-18l-260 -379h-147z" />
    <glyph glyph-name="guilsinglleft.cap" horiz-adv-x="636" 
d="M389 330l-262 379v16l252 391h139l-258 -395l275 -391h-146z" />
    <glyph glyph-name="guilsinglright.cap" horiz-adv-x="636" 
d="M102 330l275 393l-258 393h139l252 -391v-16l-262 -379h-146z" />
    <glyph glyph-name="periodcentered.smcp" horiz-adv-x="1415" 
d="M1309 651h-1203v144h1203v-144z" />
    <glyph glyph-name="space_dotbelowcomb" horiz-adv-x="841" 
d="M406 -373q-55 0 -79 26t-24 87q0 115 103 115q52 0 76 -28t24 -87t-25 -86t-75 -27z" />
    <glyph glyph-name="uni00200326" horiz-adv-x="841" 
d="M317 -422q81 25 93 131q-16 -4 -23 -4q-42 0 -60 18.5t-18 73.5q0 53 23 77t71 24q54 0 76.5 -32t22.5 -108q0 -101 -44.5 -169.5t-131.5 -88.5z" />
    <glyph glyph-name="uni00200326.alt" horiz-adv-x="841" 
d="M420 1309q-51 0 -73.5 32.5t-22.5 108.5q0 101 44.5 169.5t131.5 88.5l8 -78q-80 -25 -92 -131q16 4 22 4q40 0 59 -18.5t19 -73.5q0 -102 -96 -102z" />
    <glyph glyph-name="plus.inf" horiz-adv-x="548" 
d="M317 -4v-146h-92v146h-139v88h139v137h92v-137h142v-88h-142z" />
    <glyph glyph-name="minus.inf" horiz-adv-x="548" 
d="M86 -8v96h373v-96h-373z" />
    <glyph glyph-name="equal.inf" horiz-adv-x="548" 
d="M90 90v92h365v-92h-365zM90 -111v93h365v-93h-365z" />
    <glyph glyph-name="at.cap" horiz-adv-x="1335" 
d="M668 -117q-169 0 -293 62q-266 128 -266 522v489q0 189 71 322q73 133 200.5 202.5t295.5 69.5q177 0 301 -71q122 -71 186 -198t64 -292v-446q0 -334 -226 -334q-143 0 -184 125q-39 -135 -182 -135q-227 0 -227 295v436q0 153 59.5 228t167.5 75q139 0 180 -133l19 123
h79v-770q0 -71 22 -103.5t71 -32.5q54 0 77 53.5t23 174.5v438q0 206 -108.5 326.5t-323.5 120.5q-204 0 -324.5 -126t-120.5 -354v-475q0 -238 114 -354.5t329 -116.5q106 0 178.5 32.5t124.5 98.5l131 -43q-144 -209 -438 -209zM659 307q70 0 102 48t32 151v409
q0 113 -29 163t-100 50q-67 0 -100.5 -49.5t-33.5 -156.5v-420q0 -103 29.5 -149t99.5 -46z" />
    <glyph glyph-name="registered.cap" horiz-adv-x="1302" 
d="M655 -20q-162 0 -286 59q-127 62 -196 183.5t-69 299.5v389q0 179 70 301q70 126 192 192t283 66q155 0 281 -63q129 -67 198.5 -189.5t69.5 -293.5v-398q0 -181 -72 -299q-70 -122 -191 -184.5t-280 -62.5zM655 90q202 0 317 114t115 328v383q0 213 -119.5 330
t-318.5 117q-201 0 -317.5 -120t-116.5 -337v-377q0 -213 117.5 -325.5t322.5 -112.5zM539 647v-381h-109v922h225q126 0 185 -49.5t59 -153.5v-111q0 -136 -108 -172q54 -17 75 -56t21 -118v-206q0 -31 18 -56h-114q-17 24 -17 56v198q0 73 -24.5 100t-96.5 27h-114z
M539 1092v-344h114q135 0 135 129v96q0 65 -30 92t-107 27h-112z" />
    <glyph glyph-name="bar.cap" horiz-adv-x="430" 
d="M141 -184v1804h146v-1804h-146z" />
    <glyph glyph-name="brokenbar.cap" horiz-adv-x="430" 
d="M141 1620h146v-795h-146v795zM287 -184h-146v829h146v-829z" />
    <glyph glyph-name="Aumlaut" horiz-adv-x="956" 
d="M186 1255q-48 0 -69 23t-21 80q0 54 22.5 78t67.5 24q48 0 70.5 -23.5t22.5 -78.5q0 -103 -93 -103zM762 1255q-50 0 -71 22.5t-21 80.5q0 102 92 102q45 0 66.5 -24t21.5 -78q0 -103 -88 -103zM690 315h-422l-71 -315h-150l352 1456h148l364 -1456h-147zM299 451h358
l-159 675l-23 203l-24 -205z" />
    <glyph glyph-name="Oumlaut" horiz-adv-x="1034" 
d="M150 1366q-27 0 -39.5 12t-12.5 43q0 56 54 56q53 0 53 -58q0 -53 -55 -53zM889 1366q-28 0 -40.5 12t-12.5 43q0 56 53 56q51 0 51 -58q0 -53 -51 -53zM516 -20q-403 0 -403 452v580q0 224 105 341t300 117q196 0 301 -117t105 -341v-580q0 -228 -104.5 -340
t-303.5 -112zM518 117q254 0 254 323v568q0 165 -62 248t-194 83q-254 0 -254 -331v-568q0 -164 62.5 -243.5t193.5 -79.5z" />
    <glyph glyph-name="Uumlaut" horiz-adv-x="1007" 
d="M408 1251q-33 0 -47.5 23.5t-14.5 83.5q0 56 15.5 79t46.5 23q32 0 46.5 -23t14.5 -81q0 -57 -14.5 -81t-46.5 -24zM598 1251q-33 0 -48 23.5t-15 83.5q0 56 15.5 79t47.5 23q31 0 45 -23t14 -81q0 -57 -14.5 -81t-44.5 -24zM504 -20q-193 0 -284 106t-91 330v1040h150
v-1034q0 -158 53 -229.5t172 -71.5q120 0 172.5 71t52.5 230v1034h150v-1040q0 -223 -93 -329.5t-282 -106.5z" />
    <glyph glyph-name="cordinal" horiz-adv-x="710" 
d="M362 629q-134 0 -205 72t-71 206v287q0 135 75 209t201 74q124 0 195.5 -63.5t75.5 -188.5v-76h-137v74q-5 71 -37.5 104t-96.5 33q-143 0 -143 -168v-279q0 -163 143 -163q127 0 136 135v96h137v-98q-4 -126 -76.5 -190t-196.5 -64z" />
    <glyph glyph-name="caronSlovak" 
d="M412 1618h127l-99 -303h-96z" />
    <glyph glyph-name="altcedilla" 
d="M416 -436q-124 0 -184 48t-72 146h127q12 -98 129 -98q121 0 121 88q0 84 -125 84h-64v92h88q108 0 163.5 -45.5t55.5 -126.5q0 -91 -62 -139.5t-177 -48.5z" />
    <glyph glyph-name="doublegrave" 
d="M113 1606h155l178 -299h-108zM367 1606h153l170 -299h-108z" />
    <glyph glyph-name="invertedbreve" 
d="M416 1602q132 0 202 -77.5t72 -217.5h-112q-1 101 -40 147.5t-122 48.5q-159 -3 -162 -196h-111q2 140 71 217.5t202 77.5z" />
    <glyph glyph-name="onethirdemdash" horiz-adv-x="698" 
d="M592 545h-486v143h486v-143z" />
    <glyph glyph-name="threequarteremdash" horiz-adv-x="946" 
d="M840 545h-734v143h734v-143z" />
    <glyph glyph-name="onethirdemdash.cap" 
d="M733 651h-627v144h627v-144z" />
    <glyph glyph-name="threequarteremdash.cap" horiz-adv-x="811" 
d="M705 651h-599v144h599v-144z" />
    <glyph glyph-name="onesixteenth" horiz-adv-x="1599" 
d="M635 848l332 649l139 -90l-424 -590zM106 735v101h117v419h-98v86q54 1 78.5 28t32.5 87h86v-620h110v-101h-326zM1518 193q0 -95 -52.5 -150t-152.5 -55q-116 0 -164.5 56.5t-48.5 174.5v285q0 227 205 227q103 0 152.5 -49t49.5 -150v-30h-108v30q0 56 -21.5 81.5
t-72.5 25.5q-52 0 -77.5 -31.5t-25.5 -103.5v-144q39 80 146 80q170 0 170 -170v-77zM694 0v100h115v420h-98v86q54 1 79 28t33 87h84v-621h113v-100h-326zM569 643l-333 -678l-144 98l430 611zM1313 84q102 0 102 111v69q0 49 -24.5 72.5t-77.5 23.5q-87 0 -111 -84v-65
q0 -67 26 -97t85 -30z" />
    <glyph glyph-name="threesixteenths" horiz-adv-x="1599" 
d="M635 848l332 649l139 -90l-424 -590zM276 723q-208 0 -208 180v90h110v-84q0 -88 96 -88q99 0 99 88v58q0 90 -92 90h-64v94h64q51 0 68.5 22t17.5 70v39q0 48 -21 70t-70 22q-92 0 -92 -92v-65h-106v65q0 90 50 137t146 47q197 0 197 -176v-43q0 -108 -86 -139
q96 -23 96 -139v-68q0 -84 -52.5 -131t-152.5 -47zM1518 193q0 -95 -52.5 -150t-152.5 -55q-116 0 -164.5 56.5t-48.5 174.5v285q0 227 205 227q103 0 152.5 -49t49.5 -150v-30h-108v30q0 56 -21.5 81.5t-72.5 25.5q-52 0 -77.5 -31.5t-25.5 -103.5v-144q39 80 146 80
q170 0 170 -170v-77zM696 2v100h115v420h-98v86q54 1 79 28t33 87h84v-621h113v-100h-326zM569 643l-333 -678l-144 98l430 611zM1313 84q102 0 102 111v69q0 49 -24.5 72.5t-77.5 23.5q-87 0 -111 -84v-65q0 -67 26 -97t85 -30z" />
    <glyph glyph-name="fivesixteenths" horiz-adv-x="1599" 
d="M635 848l332 649l139 -90l-424 -590zM281 723q-205 0 -205 184v70h110v-66q0 -90 97 -90q102 0 102 103v120q0 56 -23.5 78.5t-70.5 22.5q-68 0 -107 -70l-8 -18l-90 22l35 377h338v-6q0 -52 -21 -73t-78 -21h-153q-16 -116 -25 -201q44 76 144 76q161 0 161 -178v-131
q0 -96 -52 -147.5t-154 -51.5zM1518 193q0 -95 -52.5 -150t-152.5 -55q-116 0 -164.5 56.5t-48.5 174.5v285q0 227 205 227q103 0 152.5 -49t49.5 -150v-30h-108v30q0 56 -21.5 81.5t-72.5 25.5q-52 0 -77.5 -31.5t-25.5 -103.5v-144q39 80 146 80q170 0 170 -170v-77z
M696 2v100h115v420h-98v86q54 1 79 28t33 87h84v-621h113v-100h-326zM569 643l-333 -678l-144 98l430 611zM1313 84q102 0 102 111v69q0 49 -24.5 72.5t-77.5 23.5q-87 0 -111 -84v-65q0 -67 26 -97t85 -30z" />
    <glyph glyph-name="sevensixteenths" horiz-adv-x="1599" 
d="M635 848l332 649l139 -90l-424 -590zM213 735q51 306 213 619h-276v102h382v-86q-151 -287 -202 -635h-117zM1518 193q0 -95 -52.5 -150t-152.5 -55q-116 0 -164.5 56.5t-48.5 174.5v285q0 227 205 227q103 0 152.5 -49t49.5 -150v-30h-108v30q0 56 -21.5 81.5
t-72.5 25.5q-52 0 -77.5 -31.5t-25.5 -103.5v-144q39 80 146 80q170 0 170 -170v-77zM696 2v100h115v420h-98v86q54 1 79 28t33 87h84v-621h113v-100h-326zM569 643l-333 -678l-144 98l430 611zM1313 84q102 0 102 111v69q0 49 -24.5 72.5t-77.5 23.5q-87 0 -111 -84v-65
q0 -67 26 -97t85 -30z" />
    <glyph glyph-name="ninesixteenths" horiz-adv-x="1599" 
d="M635 848l332 649l139 -90l-424 -590zM301 723q-207 -3 -207 197v43h111v-39q0 -58 23 -82.5t75 -24.5q53 0 78 31.5t25 101.5v160q-42 -86 -144 -86q-81 0 -127.5 44t-46.5 128v66q0 95 52.5 149.5t154.5 54.5q112 0 162.5 -57.5t50.5 -173.5v-285q0 -227 -207 -227z
M293 1104q56 0 83.5 31t29.5 84v24q0 131 -111 131q-105 0 -105 -112v-60q0 -98 103 -98zM1518 193q0 -95 -52.5 -150t-152.5 -55q-116 0 -164.5 56.5t-48.5 174.5v285q0 227 205 227q103 0 152.5 -49t49.5 -150v-30h-108v30q0 56 -21.5 81.5t-72.5 25.5q-52 0 -77.5 -31.5
t-25.5 -103.5v-144q39 80 146 80q170 0 170 -170v-77zM696 2v100h115v420h-98v86q54 1 79 28t33 87h84v-621h113v-100h-326zM569 643l-333 -678l-144 98l430 611zM1313 84q102 0 102 111v69q0 49 -24.5 72.5t-77.5 23.5q-87 0 -111 -84v-65q0 -67 26 -97t85 -30z" />
    <glyph glyph-name="elevensixteenths" horiz-adv-x="2000" 
d="M1038 848l332 649l139 -90l-424 -590zM100 735v101h117v438q-51 -19 -98 -19v86q54 1 78 28t32 87h86v-620h111v-101h-326zM508 735v101h117v438q-51 -19 -99 -19v86q54 1 78.5 28t32.5 87h86v-620h111v-101h-326zM1919 193q0 -95 -52.5 -150t-152.5 -55
q-116 0 -164.5 56.5t-48.5 174.5v285q0 227 205 227q103 0 153 -49t50 -150v-30h-109v30q0 56 -21.5 81.5t-72.5 25.5q-52 0 -77 -31.5t-25 -103.5v-144q39 80 145 80q170 0 170 -170v-77zM1096 0v100h114v420h-98v86q54 1 79.5 28t33.5 87h84v-621h112v-100h-325zM973 643
l-334 -678l-143 98l430 611zM1714 84q103 0 103 111v69q0 96 -103 96q-86 0 -110 -84v-65q0 -68 26 -97.5t84 -29.5z" />
    <glyph glyph-name="thirteensixteenths" horiz-adv-x="2037" 
d="M1079 848l332 649l139 -90l-424 -590zM725 723q-209 0 -209 180v90h111v-84q0 -88 96 -88q98 0 98 88v58q0 90 -92 90h-63v94h63q51 0 68.5 22t17.5 70v39q0 48 -20.5 70t-69.5 22q-92 0 -92 -92v-65h-107v65q0 90 50.5 137t146.5 47q197 0 197 -176v-43q0 -108 -86 -139
q96 -23 96 -139v-68q0 -84 -52.5 -131t-152.5 -47zM109 735v101h114v438q-51 -19 -98 -19v86q54 1 79.5 28t33.5 87h84v-620h112v-101h-325zM1958 193q0 -95 -52.5 -150t-152.5 -55q-116 0 -164.5 56.5t-48.5 174.5v285q0 227 205 227q103 0 153 -49t50 -150v-30h-109v30
q0 56 -21.5 81.5t-72.5 25.5q-52 0 -77.5 -31.5t-25.5 -103.5v-144q39 80 146 80q170 0 170 -170v-77zM1137 2v100h114v420h-98v86q54 1 79.5 28t33.5 87h84v-621h112v-100h-325zM1014 643l-334 -678l-143 98l430 611zM1753 84q102 0 102 111v69q0 49 -24.5 72.5t-77.5 23.5
q-87 0 -111 -84v-65q0 -67 26 -97t85 -30z" />
    <glyph glyph-name="fifteensixteenths" horiz-adv-x="2037" 
d="M1077 848l332 649l139 -90l-424 -590zM109 735v101h114v438q-51 -19 -98 -19v86q54 1 79.5 28t33.5 87h84v-620h112v-101h-325zM723 723q-205 0 -205 184v70h111v-66q0 -90 96 -90q102 0 102 103v120q0 56 -23.5 78.5t-70.5 22.5q-67 0 -106 -70l-9 -18l-90 22l35 377
h338v-6q0 -52 -20.5 -73t-77.5 -21h-154q-11 -78 -24 -201q44 76 143 76q79 0 120.5 -45t41.5 -133v-131q0 -96 -52.5 -147.5t-154.5 -51.5zM1958 193q0 -95 -52.5 -150t-152.5 -55q-116 0 -164.5 56.5t-48.5 174.5v285q0 227 205 227q103 0 153 -49t50 -150v-30h-109v30
q0 56 -21.5 81.5t-72.5 25.5q-52 0 -77.5 -31.5t-25.5 -103.5v-144q39 80 146 80q170 0 170 -170v-77zM1137 2v100h114v420h-98v86q54 1 79.5 28t33.5 87h84v-621h112v-100h-325zM1012 643l-334 -678l-143 98l430 611zM1753 84q102 0 102 111v69q0 49 -24.5 72.5t-77.5 23.5
q-87 0 -111 -84v-65q0 -67 26 -97t85 -30z" />
    <glyph glyph-name="mediumblackcircle" horiz-adv-x="1564" 
d="M782 -20q-173 0 -309 77q-139 78 -216 214.5t-77 306.5q0 162 80 309q80 137 217.5 215t304.5 78t305 -78q140 -81 218.5 -216.5t78.5 -307.5q0 -177 -79 -306q-79 -137 -215.5 -214.5t-307.5 -77.5z" />
    <glyph glyph-name="ballotboxwithx" horiz-adv-x="1562" 
d="M205 1151h1153v-1151h-1153v1151zM401 184h762v785h-762v-785zM784 469l-174 -178l-102 104l174 176l-176 174l102 103l174 -174l174 176l101 -105l-170 -174l172 -172l-103 -102z" />
    <glyph glyph-name="ttfautohint" horiz-adv-x="643" 
 />
    </font>
</defs>
</svg>
