<?xml version="1.0" standalone="no"?>
<!DOCTYPE svg PUBLIC "-//W3C//DTD SVG 1.1//EN" "http://www.w3.org/Graphics/SVG/1.1/DTD/svg11.dtd" >
<svg xmlns="http://www.w3.org/2000/svg" xmlns:xlink="http://www.w3.org/1999/xlink" version="1.1">
<metadata>
Created by FontForge 20201107 at Thu Aug 14 22:38:54 2025
 By 
C 2016 Sharp Type Corporation
</metadata>
<defs>
<font id="SharpGrotesk-SemiBold10" horiz-adv-x="468" >
  <font-face 
    font-family="Sharp Grotesk SemiBold 10"
    font-weight="600"
    font-stretch="condensed"
    units-per-em="2048"
    panose-1="0 0 7 6 0 0 0 0 0 0"
    ascent="1638"
    descent="-410"
    x-height="1190"
    cap-height="1468"
    bbox="-63 -426 1778 1952"
    underline-thickness="102"
    underline-position="-153"
    unicode-range="U+0020-3009"
  />
<missing-glyph horiz-adv-x="116" 
 />
    <glyph glyph-name=".notdef" horiz-adv-x="116" 
 />
    <glyph glyph-name=".null" horiz-adv-x="0" 
 />
    <glyph glyph-name="nonmarkingreturn" horiz-adv-x="682" 
 />
    <glyph glyph-name="space" unicode=" " horiz-adv-x="235" 
 />
    <glyph glyph-name="exclam" unicode="!" horiz-adv-x="303" 
d="M233 1468v-464q0 -23 -1 -77t-1 -85q-3 -203 -12 -350q-8 -139 -8 -179q-15 9 -59 9q-39 0 -60 -9v3q0 2 -0.5 6.5t-1 10.5t-0.5 14.5v17.5q0 4 -4.5 112.5t-5.5 181.5q-8 164 -8 345v464h161zM152 -10q-53 0 -73 27t-20 108q0 83 18.5 108t74.5 25q57 0 75.5 -25
t18.5 -108q0 -82 -19.5 -108.5t-74.5 -26.5z" />
    <glyph glyph-name="quotedbl" unicode="&#x22;" horiz-adv-x="409" 
d="M61 1018q-18 173 -18 414v36h131v-36q0 -246 -24 -414h-89zM256 1018q-20 137 -20 414v36h131v-36q0 -239 -25 -414h-86z" />
    <glyph glyph-name="numbersign" unicode="#" horiz-adv-x="774" 
d="M432 453h-127l-31 -453h-145l31 453h-127v135h137l25 350h-136v133h144l28 397h146l-29 -397h127l29 397h145l-28 -397h127v-133h-136l-24 -350h133v-135h-143l-31 -453h-146zM467 938h-127l-25 -350h127z" />
    <glyph glyph-name="dollar" unicode="$" horiz-adv-x="512" 
d="M176 -178v166q-68 17 -99.5 66t-31.5 141v399h152v-393q0 -42 11 -62t44 -20t44 20t11 62v360q0 37 -10 55q-3 8 -8 15t-16.5 16t-18 14t-28 19.5t-31.5 21.5q-82 53 -114.5 98t-33.5 124v364q0 78 35 128t102 63v166h146v-168q125 -35 125 -172v-390h-148v361
q0 80 -57 80q-51 0 -51 -80v-334q0 -30 8 -49q7 -18 31 -37.5t84 -60.5q54 -35 80 -59t41.5 -62t15.5 -94v-385q0 -91 -33 -140t-102 -67v-166h-148z" />
    <glyph glyph-name="percent" unicode="%" horiz-adv-x="843" 
d="M203 782q-73 0 -112.5 41.5t-39.5 118.5v383q0 72 41 114t111 42t110.5 -42t40.5 -114v-383q0 -73 -39.5 -116.5t-111.5 -43.5zM602 1468h119l-479 -1468h-121zM203 885q28 0 37.5 17.5t9.5 55.5v351q0 36 -10 53.5t-37 17.5t-36 -17.5t-9 -53.5v-351q0 -39 9 -56t36 -17
zM641 -20q-73 0 -112.5 42.5t-39.5 116.5v391q0 72 40 114t112 42q71 0 112.5 -42t41.5 -114v-391q0 -73 -40.5 -116t-113.5 -43zM641 82q27 0 37 18.5t10 57.5v356q0 38 -9.5 55t-37.5 17q-27 0 -36 -17.5t-9 -54.5v-356q0 -39 10 -57.5t35 -18.5z" />
    <glyph glyph-name="ampersand" unicode="&#x26;" horiz-adv-x="714" 
d="M610 -12q-69 0 -135 63q-78 -63 -190 -63q-119 0 -186.5 72t-67.5 223v90q0 144 37 248.5t122 209.5q-47 235 -47 367v27q0 124 47.5 193t145.5 69q103 0 149.5 -53t46.5 -172v-19q0 -131 -49 -237t-143 -232q10 -45 36.5 -139.5t35.5 -130.5q42 -138 73 -201
q52 152 52 422v170h139v-180q0 -354 -107 -545q40 -31 62 -31q37 0 69 25v-152q-38 -24 -90 -24zM283 1202q0 -122 20 -248q47 67 68.5 131.5t21.5 159.5v12q0 55 -12 77t-41 22q-57 0 -57 -125v-29zM303 137q49 0 92 29q-63 120 -110 289q-11 43 -52 194q-29 -54 -41 -120
t-12 -169v-61q0 -79 35 -120.5t88 -41.5z" />
    <glyph glyph-name="quotesingle" unicode="'" horiz-adv-x="215" 
d="M63 1018q-20 137 -20 414v36h131v-36q0 -246 -24 -414h-87z" />
    <glyph glyph-name="parenleft" unicode="(" horiz-adv-x="366" 
d="M63 1163q0 113 29 189q26 66 86.5 93.5t165.5 27.5v-156q-76 0 -100.5 -30t-24.5 -122v-1157q0 -92 24.5 -121.5t100.5 -29.5v-158q-101 0 -170 27q-60 26 -85.5 92t-25.5 190v1155z" />
    <glyph glyph-name="parenright" unicode=")" horiz-adv-x="366" 
d="M23 -143q76 0 100 29t24 122v1157q0 93 -24 122.5t-100 29.5v156q94 0 163 -27q62 -26 90.5 -94t28.5 -189v-1155q0 -117 -24 -188q-26 -66 -86.5 -93.5t-171.5 -27.5v158z" />
    <glyph glyph-name="asterisk" unicode="*" horiz-adv-x="485" 
d="M268 1235l43 -164h-137l45 166l-123 -121l-67 115l164 47l-164 45l67 119l121 -121l-43 166h137l-43 -162l121 117l68 -117l-166 -45l166 -47l-68 -115z" />
    <glyph glyph-name="plus" unicode="+" horiz-adv-x="581" 
d="M352 647v-170h-125v170h-161v123h161v172h125v-172h162v-123h-162z" />
    <glyph glyph-name="comma" unicode="," horiz-adv-x="303" 
d="M63 -102q78 15 87 98q-2 -2 -17 -2q-37 0 -55.5 25.5t-18.5 99.5q0 82 19 107.5t74 25.5q40 0 57 -10q23 -10 31 -43t8 -107q0 -258 -185 -285v91z" />
    <glyph glyph-name="hyphen" unicode="-" horiz-adv-x="428" 
d="M389 528h-350v152h350v-152z" />
    <glyph glyph-name="period" unicode="." horiz-adv-x="303" 
d="M152 -10q-53 0 -73 27t-20 108q0 83 18.5 108t74.5 25q57 0 75.5 -25t18.5 -108q0 -82 -19.5 -108.5t-74.5 -26.5z" />
    <glyph glyph-name="slash" unicode="/" horiz-adv-x="405" 
d="M20 0l211 1468h156l-211 -1468h-156z" />
    <glyph glyph-name="zero" unicode="0" horiz-adv-x="536" 
d="M268 -20q-103 0 -161 52.5t-58 162.5v1081q0 106 58.5 158.5t162.5 52.5q217 0 217 -211v-1081q0 -215 -219 -215zM270 125q62 0 62 82v1065q0 84 -64 84q-61 0 -61 -84v-1063q0 -45 14 -64.5t49 -19.5z" />
    <glyph glyph-name="one" unicode="1" horiz-adv-x="395" 
d="M18 0v147h103v1006h-90v115q113 25 137 200h111v-1321h100v-147h-361z" />
    <glyph glyph-name="two" unicode="2" horiz-adv-x="520" 
d="M45 0v225q0 87 23 168.5t49.5 132t72.5 121.5q44 65 68 107t44 107t20 134v279q0 40 -12 58t-46 18t-47.5 -19.5t-13.5 -58.5v-357h-156v357q0 104 55.5 159.5t161.5 55.5q215 0 215 -215v-277q0 -88 -22.5 -169t-47 -126.5t-69.5 -117.5q-34 -52 -49.5 -78.5t-38.5 -73
t-32.5 -92t-10.5 -96.5v-74h274v-168h-438z" />
    <glyph glyph-name="three" unicode="3" horiz-adv-x="536" 
d="M262 -20q-102 0 -158.5 56.5t-56.5 158.5v360h156v-340q0 -43 14 -61.5t49 -18.5t49.5 18.5t14.5 61.5v387q0 49 -18 68.5t-60 19.5h-90v156h90q74 0 74 86v332q0 40 -13 58.5t-47 18.5q-32 0 -45.5 -19t-13.5 -58v-289h-154v311q0 95 58 148t151 53q100 0 158.5 -53
t58.5 -148v-373q0 -111 -76 -145q82 -34 82 -147v-428q0 -97 -59.5 -155t-163.5 -58z" />
    <glyph glyph-name="four" unicode="4" horiz-adv-x="542" 
d="M530 295h-86v-295h-147v295h-279v131l287 1042h139v-1019h86v-154zM260 827l-98 -378h135v370l27 352z" />
    <glyph glyph-name="five" unicode="5" horiz-adv-x="518" 
d="M260 -20q-106 0 -159.5 53t-53.5 151v379h154v-344q0 -82 55 -82q33 0 46 20.5t13 61.5v565q0 82 -51 82q-42 0 -61 -67l-23 -68l-133 37l47 700h383v-28q0 -65 -16 -94q-13 -27 -50.5 -35t-123.5 -8h-60l-6 -123q-12 -179 -14 -238q31 84 115 84q151 0 151 -199v-643
q0 -98 -53.5 -151t-159.5 -53z" />
    <glyph glyph-name="six" unicode="6" horiz-adv-x="532" 
d="M489 203q0 -223 -223 -223q-217 0 -217 223v1061q0 223 221 223q109 0 162 -54.5t53 -168.5v-314h-157v320q0 82 -60 82q-61 0 -61 -82v-506q33 96 127 96q155 0 155 -201v-456zM268 129q66 0 66 80v424q0 74 -60 74q-56 0 -67 -76v-422q0 -80 61 -80z" />
    <glyph glyph-name="seven" unicode="7" horiz-adv-x="442" 
d="M61 0q14 221 50 463q58 448 159 842h-252v163h404v-145q-45 -178 -84 -408q-84 -459 -109 -915h-168z" />
    <glyph glyph-name="eight" unicode="8" horiz-adv-x="536" 
d="M268 -20q-111 0 -165 56.5t-54 156.5v440q0 113 88 155q-80 39 -80 154v344q0 91 51.5 146t159.5 55q110 0 161.5 -55t51.5 -146v-344q0 -118 -80 -154q88 -40 88 -155v-440q0 -100 -54.5 -156.5t-166.5 -56.5zM270 860q34 0 47 20.5t13 59.5v336q0 76 -60 76
q-35 0 -48 -19.5t-13 -56.5v-336q0 -40 12.5 -60t48.5 -20zM270 129q62 0 62 82v418q0 84 -62 84q-65 0 -65 -84v-418q0 -82 65 -82z" />
    <glyph glyph-name="nine" unicode="9" horiz-adv-x="528" 
d="M264 -20q-215 0 -215 219v346h156v-332q0 -42 13 -63t46 -21q62 0 62 84v518q-35 -90 -117 -90q-168 0 -168 193v421q0 232 217 232q115 0 168 -56t53 -176v-1056q0 -219 -215 -219zM199 864q0 -73 61 -73q64 0 64 106q0 -4 2 -6v379q0 42 -15 62t-49 20q-63 0 -63 -82
v-406z" />
    <glyph glyph-name="colon" unicode=":" horiz-adv-x="303" 
d="M152 834q-53 0 -73 26t-20 107q0 83 18.5 108t74.5 25q57 0 75.5 -25t18.5 -108q0 -81 -19.5 -107t-74.5 -26zM152 20q-53 0 -73 27.5t-20 108.5q0 83 18.5 108t74.5 25q57 0 75.5 -25t18.5 -108q0 -82 -19.5 -109t-74.5 -27z" />
    <glyph glyph-name="semicolon" unicode=";" horiz-adv-x="303" 
d="M152 834q-53 0 -73 26t-20 107q0 83 18.5 108t74.5 25q57 0 75.5 -25t18.5 -108q0 -81 -19.5 -107t-74.5 -26zM63 -102q78 15 87 98q-2 -2 -17 -2q-37 0 -55.5 25.5t-18.5 99.5q0 82 19 107.5t74 25.5q40 0 57 -10q23 -10 31 -43t8 -107q0 -258 -185 -285v91z" />
    <glyph glyph-name="less" unicode="&#x3c;" horiz-adv-x="575" 
d="M61 700v125l445 199v-152l-275 -106l275 -111v-155z" />
    <glyph glyph-name="equal" unicode="=" horiz-adv-x="575" 
d="M70 780v135h436v-135h-436zM70 532v136h436v-136h-436z" />
    <glyph glyph-name="greater" unicode="&#x3e;" horiz-adv-x="575" 
d="M70 655l272 111l-272 106v152l442 -199v-125l-442 -200v155z" />
    <glyph glyph-name="question" unicode="?" horiz-adv-x="528" 
d="M328 307q-14 19 -76 19q-59 0 -78 -19v156q0 63 14.5 118.5t29 83.5t42.5 72q23 38 32.5 55t19.5 48.5t10 60.5v371q0 43 -12 61.5t-46 18.5q-31 0 -43 -19.5t-12 -60.5v-420h-156v438q0 89 52.5 141t156.5 52q110 0 163.5 -51.5t53.5 -141.5v-389q0 -19 -2.5 -38.5
t-4.5 -33.5t-9.5 -33t-10.5 -27.5t-14 -29t-13 -25t-15.5 -26.5t-14.5 -24q-22 -36 -34 -58.5t-22.5 -60.5t-10.5 -78v-160zM252 -10q-52 0 -71 27t-19 108q0 83 18.5 108t73.5 25t73.5 -25t18.5 -108q0 -82 -19.5 -108.5t-74.5 -26.5z" />
    <glyph glyph-name="at" unicode="@" horiz-adv-x="860" 
d="M430 -221q-181 0 -281 95.5t-100 281.5v915q0 180 103.5 279.5t275.5 99.5q179 0 281 -97t102 -278v-903q0 -164 -170 -164q-99 0 -137 78q-20 -84 -115 -84q-67 0 -101 41.5t-34 134.5v869q0 96 34.5 136t98.5 40q82 0 105 -72l16 63h96v-1019q0 -41 10 -60.5t35 -19.5
q24 0 31.5 19.5t7.5 62.5v878q0 131 -66.5 197.5t-193.5 66.5q-125 0 -190.5 -69.5t-65.5 -198.5v-911q0 -134 69.5 -200t194.5 -66q64 0 102.5 16.5t65.5 52.5l146 -22q-55 -86 -128 -124t-192 -38zM428 113q29 0 39 22.5t10 79.5v791q0 61 -9.5 85.5t-39.5 24.5
q-26 0 -36.5 -21.5t-10.5 -76.5v-813q0 -51 10.5 -71.5t36.5 -20.5z" />
    <glyph glyph-name="A" unicode="A" 
d="M297 182h-127l-14 -182h-148l144 1468h157l154 -1468h-152zM180 322h107l-43 536l-13 332l-12 -332z" />
    <glyph glyph-name="B" unicode="B" horiz-adv-x="526" 
d="M53 0v1468h213q112 0 159.5 -45t47.5 -139v-375q0 -111 -74 -149q84 -38 84 -144v-430q0 -186 -211 -186h-219zM205 1339v-508h43q74 0 74 84v347q0 42 -19 59.5t-61 17.5h-37zM205 688v-553h43q43 0 59.5 18t16.5 62v395q0 43 -17.5 60.5t-58.5 17.5h-43z" />
    <glyph glyph-name="C" unicode="C" horiz-adv-x="518" 
d="M264 -16q-110 0 -162.5 51.5t-52.5 165.5v1073q0 209 217 209q103 0 155.5 -49.5t53.5 -155.5v-393h-151v377q-2 44 -15.5 64t-44.5 20q-57 0 -57 -86v-1041q0 -45 12.5 -65.5t44.5 -20.5q34 0 46 19t14 65v416h151v-434q0 -112 -53 -163.5t-158 -51.5z" />
    <glyph glyph-name="D" unicode="D" horiz-adv-x="534" 
d="M53 1468h205q116 0 171.5 -48.5t55.5 -166.5v-1038q0 -116 -59.5 -165.5t-175.5 -49.5h-197v1468zM207 1335v-1196h39q84 0 84 88v1024q0 46 -20.5 65t-63.5 19h-39z" />
    <glyph glyph-name="E" unicode="E" horiz-adv-x="397" 
d="M371 0h-318v1468h314v-149h-162v-496h151v-151h-151v-520h166v-152z" />
    <glyph glyph-name="F" unicode="F" horiz-adv-x="387" 
d="M205 664v-664h-152v1468h314v-151h-162v-504h153v-149h-153z" />
    <glyph glyph-name="G" unicode="G" horiz-adv-x="528" 
d="M362 160q-7 -97 -42.5 -136.5t-100.5 -39.5q-170 0 -170 209v1081q0 209 217 209t217 -209v-363h-157v349q0 86 -60 86q-61 0 -61 -86v-1037q0 -90 65 -90q37 0 52.5 33.5t15.5 101.5v326h-68v168h211v-762h-88z" />
    <glyph glyph-name="H" unicode="H" horiz-adv-x="534" 
d="M328 666h-121v-666h-154v1468h154v-655h121v655h155v-1468h-155v666z" />
    <glyph glyph-name="I" unicode="I" horiz-adv-x="356" 
d="M20 0v145h82v1178h-82v145h316v-145h-82v-1178h82v-145h-316z" />
    <glyph glyph-name="J" unicode="J" horiz-adv-x="505" 
d="M248 -16q-108 0 -157.5 51.5t-49.5 165.5v413h154v-397q0 -44 11 -64t42 -20t41 19t10 65v1251h158v-1265q0 -114 -51.5 -166.5t-157.5 -52.5z" />
    <glyph glyph-name="K" unicode="K" horiz-adv-x="516" 
d="M242 745l-41 -157v-588h-148v1468h148v-489l-27 -272l53 254l138 507h143l-160 -591l170 -877h-151l-123 696z" />
    <glyph glyph-name="L" unicode="L" horiz-adv-x="411" 
d="M53 0v1468h156v-1312h182v-156h-338z" />
    <glyph glyph-name="M" unicode="M" horiz-adv-x="645" 
d="M190 0h-137v1468h117l154 -673l151 673h117v-1468h-137v705l45 477l-47 -275l-115 -471h-31l-114 471l-48 275l45 -480v-702z" />
    <glyph glyph-name="N" unicode="N" horiz-adv-x="546" 
d="M188 0h-135v1468h119l172 -827l39 -219l-25 313v733h138v-1468h-117l-176 834l-39 215l24 -301v-748z" />
    <glyph glyph-name="O" unicode="O" horiz-adv-x="536" 
d="M268 -16q-103 0 -161 52.5t-58 162.5v1073q0 102 59 156.5t162 54.5q104 0 160.5 -54t56.5 -157v-1073q0 -215 -219 -215zM270 133q62 0 62 86v1043q0 84 -64 84q-61 0 -61 -84v-1043q0 -44 14.5 -65t48.5 -21z" />
    <glyph glyph-name="P" unicode="P" horiz-adv-x="518" 
d="M207 489v-489h-154v1468h205q115 0 167 -49.5t52 -148.5v-563q0 -218 -217 -218h-53zM207 1337v-704h35q80 0 80 82v545q0 44 -17.5 60.5t-62.5 16.5h-35z" />
    <glyph glyph-name="Q" unicode="Q" horiz-adv-x="536" 
d="M313 -133l-49 119q-101 2 -158 54.5t-57 158.5v1073q0 106 58.5 158.5t162.5 52.5q217 0 217 -211v-1073q0 -133 -86 -183l80 -149h-168zM270 133q62 0 62 84v1047q0 84 -64 84q-61 0 -61 -84v-1047q0 -44 14.5 -64t48.5 -20z" />
    <glyph glyph-name="R" unicode="R" horiz-adv-x="516" 
d="M203 629v-629h-150v1468h201q119 0 167 -43t48 -145v-418q0 -122 -80 -155q84 -27 84 -154v-463q0 -56 27 -90h-160q-21 21 -21 88v453q0 48 -15.5 68t-57.5 20h-43zM203 1337v-563h41q78 0 78 80v408q0 43 -17.5 59t-64.5 16h-37z" />
    <glyph glyph-name="S" unicode="S" horiz-adv-x="501" 
d="M250 -16q-108 0 -157.5 51t-49.5 164v403h154v-387q0 -45 11.5 -63.5t41.5 -18.5q34 0 45.5 17.5t11.5 62.5v354q0 39 -10 56q-9 25 -89 77q-8 6 -13 9q-83 57 -114 99.5t-32 121.5v354q0 96 53.5 147.5t155.5 51.5q96 0 145.5 -48t51.5 -135v-385h-148v351
q0 45 -11 62.5t-40 17.5q-31 0 -43 -17.5t-12 -60.5v-320q0 -30 8 -49q9 -15 30 -32.5t65 -49.5q13 -9 20 -14q78 -51 106.5 -93t28.5 -124v-387q0 -112 -51.5 -163.5t-157.5 -51.5z" />
    <glyph glyph-name="T" unicode="T" horiz-adv-x="415" 
d="M285 1319v-1319h-154v1319h-119v149h391v-149h-118z" />
    <glyph glyph-name="U" unicode="U" horiz-adv-x="524" 
d="M262 -16q-106 0 -158.5 51.5t-52.5 163.5v1269h156v-1253q0 -82 55 -82t55 82v1253h156v-1269q0 -112 -52.5 -163.5t-158.5 -51.5z" />
    <glyph glyph-name="V" unicode="V" horiz-adv-x="493" 
d="M172 0l-160 1468h152l74 -852l14 -311l10 311l72 852h147l-149 -1468h-160z" />
    <glyph glyph-name="W" unicode="W" horiz-adv-x="720" 
d="M266 0h-137l-111 1468h148l47 -845l4 -230l14 228l84 847h97l77 -845l17 -228l2 230l53 843h141l-116 -1468h-131l-86 838l-9 209l-8 -209z" />
    <glyph glyph-name="X" unicode="X" 
d="M147 0h-149l152 780l-134 688h140l65 -376l12 -172l15 172l63 376h140l-140 -686l160 -782h-145l-76 410l-17 221l-18 -221z" />
    <glyph glyph-name="Y" unicode="Y" horiz-adv-x="458" 
d="M150 0v561l-146 907h154l55 -432l16 -282l19 282l55 432h152l-148 -893v-575h-157z" />
    <glyph glyph-name="Z" unicode="Z" horiz-adv-x="432" 
d="M27 0v143l223 1170h-213v155h364v-141l-217 -1171h222v-156h-379z" />
    <glyph glyph-name="bracketleft" unicode="[" horiz-adv-x="364" 
d="M340 -301h-277v1769h277v-151h-123v-1467h123v-151z" />
    <glyph glyph-name="backslash" unicode="\" horiz-adv-x="405" 
d="M193 1468l180 -1468h-158l-180 1468h158z" />
    <glyph glyph-name="bracketright" unicode="]" horiz-adv-x="364" 
d="M25 -301v151h125v1467h-125v151h278v-1769h-278z" />
    <glyph glyph-name="asciicircum" unicode="^" horiz-adv-x="575" 
d="M285 1282l-101 -309h-153l186 487h129l199 -487h-152z" />
    <glyph glyph-name="uni005F" unicode="_" horiz-adv-x="522" 
d="M487 -186h-450v127h450v-127z" />
    <glyph glyph-name="grave" unicode="`" horiz-adv-x="475" 
d="M90 1491h152l77 -231h-106z" />
    <glyph glyph-name="a" unicode="a" horiz-adv-x="503" 
d="M328 119q-23 -133 -138 -133q-84 0 -116.5 51.5t-32.5 185.5v199q0 67 9 104t34 66q18 21 45.5 33.5t77.5 29.5q63 20 83.5 42t20.5 83v203q0 48 -11.5 67t-43.5 19q-31 0 -44 -19.5t-13 -68.5v-260h-146v276q0 207 201 207q203 0 203 -207v-997h-111zM248 125
q63 0 63 100v373q-13 -24 -51 -37q-33 -15 -49 -35q-16 -29 -16 -96v-211q0 -51 12 -72.5t41 -21.5z" />
    <glyph glyph-name="b" unicode="b" horiz-adv-x="518" 
d="M309 -16q-100 0 -129 108l-14 -92h-115v1524h150v-416q24 94 114 94q85 0 119.5 -59.5t34.5 -210.5v-660q0 -112 -16 -178q-18 -62 -52 -86t-92 -24zM260 127q32 0 44.5 29t12.5 110v676q0 71 -13 99t-44 28q-59 0 -59 -115v-716q0 -111 59 -111z" />
    <glyph glyph-name="c" unicode="c" horiz-adv-x="505" 
d="M256 -16q-209 0 -209 217v788q0 108 54 161.5t155 53.5q205 0 205 -211v-311h-150v301q0 46 -12 65t-43 19q-57 0 -57 -86v-770q0 -86 57 -86q55 0 55 84v342h150v-352q0 -215 -205 -215z" />
    <glyph glyph-name="d" unicode="d" horiz-adv-x="516" 
d="M334 111q-13 -62 -43 -94.5t-86 -32.5q-86 0 -122 60t-36 224v668q0 145 36.5 205.5t117.5 60.5q49 0 76 -23t40 -81v426h150v-1524h-115zM256 125q36 0 48.5 27.5t12.5 83.5v727q0 53 -12.5 79.5t-48.5 26.5q-35 0 -46 -25.5t-11 -99.5v-684q0 -81 12.5 -108t44.5 -27z
" />
    <glyph glyph-name="e" unicode="e" horiz-adv-x="505" 
d="M463 199q0 -112 -52.5 -163.5t-156.5 -51.5q-207 0 -207 219v786q0 108 54.5 161.5t152.5 53.5q209 0 209 -215v-426h-268v-350q0 -45 13.5 -66.5t45.5 -21.5q31 0 44 20t13 64v268h152v-278zM195 688h118v293q0 49 -13.5 68.5t-45.5 19.5q-33 0 -46 -19.5t-13 -68.5
v-293z" />
    <glyph glyph-name="f" unicode="f" horiz-adv-x="346" 
d="M238 1040v-1040h-152v1040h-80v150h80v94q0 128 40 175.5t144 47.5h68v-143h-43q-33 0 -45 -16.5t-12 -65.5v-92h100v-150h-100z" />
    <glyph glyph-name="g" unicode="g" horiz-adv-x="503" 
d="M236 -289q-218 0 -218 137q0 42 30.5 78t78.5 54q-94 24 -94 120q0 88 100 123q-88 28 -88 146v643q0 147 125 182q13 0 37 8q61 11 83.5 35t22.5 84v119h144v-94q0 -75 -30 -109.5t-99 -42.5l6 -2q125 -26 125 -184v-641q0 -94 -54 -141.5t-149 -47.5h-14q-80 0 -80 -43
q0 -21 19.5 -30t68.5 -9h55q106 0 153.5 -42t47.5 -124v-10q0 -89 -74 -149t-194 -60h-2zM252 309q59 0 59 66v631q-1 35 -15.5 51t-43.5 16q-12 0 -14 -2q-43 -10 -43 -65v-631q0 -66 57 -66zM250 -164q45 0 76.5 22t31.5 54v8q0 49 -88 49h-14q-38 0 -66 -19t-28 -50v-9
q0 -24 22.5 -39.5t59.5 -15.5h6z" />
    <glyph glyph-name="h" unicode="h" horiz-adv-x="512" 
d="M199 0h-148v1524h148v-428q27 106 116 106q84 0 116 -55.5t32 -196.5v-950h-152v969q0 54 -12 75t-41 21q-34 0 -46.5 -27t-12.5 -84v-954z" />
    <glyph glyph-name="i" unicode="i" horiz-adv-x="251" 
d="M127 1237q-51 0 -67.5 23t-16.5 96t15.5 95t68.5 22t68.5 -22t15.5 -95q0 -71 -18 -95t-66 -24zM51 1194q20 -20 76 -20t76 20v-1194h-152v1194z" />
    <glyph glyph-name="j" unicode="j" horiz-adv-x="256" 
d="M129 1237q-50 0 -66 23t-16 96q0 72 15.5 94.5t66.5 22.5q53 0 68.5 -22t15.5 -95q0 -71 -18 -95t-66 -24zM-51 -141h57q28 0 37.5 12.5t9.5 46.5v1276q23 -23 76 -23t76 23v-1294q0 -114 -37.5 -153.5t-142.5 -39.5h-76v152z" />
    <glyph glyph-name="k" unicode="k" horiz-adv-x="495" 
d="M250 649l-51 -180v-469h-148v1524h148v-705l-17 -221l43 201l117 391h150l-136 -436l144 -754h-152l-92 528z" />
    <glyph glyph-name="l" unicode="l" horiz-adv-x="249" 
d="M51 0v1524h150v-1524h-150z" />
    <glyph glyph-name="m" unicode="m" horiz-adv-x="761" 
d="M201 0h-150v1190h115l16 -98q25 112 127 112q108 0 129 -110q25 110 129 110q84 0 116 -56t32 -196v-952h-152v971q0 54 -11 75t-40 21q-55 0 -55 -96v-971h-150v971q0 54 -11 75t-40 21q-33 0 -44 -27t-11 -88v-952z" />
    <glyph glyph-name="n" unicode="n" horiz-adv-x="512" 
d="M201 0h-150v1190h113l16 -105q17 63 49 91t84 28q84 0 118 -56.5t34 -195.5v-952h-152v971q0 54 -11.5 75t-41.5 21q-31 0 -45 -26.5t-14 -86.5v-954z" />
    <glyph glyph-name="o" unicode="o" horiz-adv-x="512" 
d="M256 -16q-105 0 -157 51t-52 168v784q0 217 209 217t209 -217v-784q0 -116 -54 -167.5t-155 -51.5zM256 125q57 0 57 86v770q0 47 -13 66.5t-44 19.5t-44 -19.5t-13 -66.5v-770q0 -46 13.5 -66t43.5 -20z" />
    <glyph glyph-name="p" unicode="p" horiz-adv-x="514" 
d="M307 -16q-46 0 -70.5 23t-35.5 73v-434h-150v1544h113l16 -96q28 108 129 108q58 0 90 -22q36 -20 52 -79.5t16 -172.5v-662q1 -160 -35 -221t-125 -61zM256 129q35 0 48 26.5t13 98.5v684q0 77 -13 104t-46 27q-57 0 -57 -117v-712q0 -55 12 -83t43 -28z" />
    <glyph glyph-name="q" unicode="q" horiz-adv-x="516" 
d="M315 -354v434q-12 -54 -38.5 -75t-75.5 -21t-84 24q-70 46 -70 258v658q0 108 16 174q18 58 52.5 81t91.5 23q99 0 127 -104l16 92h115v-1544h-150zM258 119q57 0 57 108v725q0 61 -12.5 89t-48.5 28q-31 0 -43 -26.5t-12 -106.5v-692q0 -70 13 -97.5t46 -27.5z" />
    <glyph glyph-name="r" unicode="r" horiz-adv-x="350" 
d="M51 0v1190h113l33 -152q5 84 33.5 121t101.5 37h10v-197h-41q-59 0 -78.5 -31t-19.5 -108v-860h-152z" />
    <glyph glyph-name="s" unicode="s" horiz-adv-x="487" 
d="M244 -16q-113 0 -159 49.5t-48 165.5v270h153v-260q0 -45 12 -64.5t44 -19.5q31 0 42 19t11 65v221q0 25 -7.5 43.5t-29 36t-32 24t-44.5 25.5q-34 20 -52.5 34t-43 39.5t-36 59.5t-11.5 78v229q0 205 201 205q101 0 149.5 -51t48.5 -156v-243h-145v231q0 49 -11.5 66.5
t-41.5 17.5q-27 0 -39 -18t-12 -64v-201q0 -21 6.5 -37.5t26 -33.5t27.5 -22t39 -24q7 -5 11 -7q14 -8 38.5 -24.5t31.5 -21.5q78 -60 78 -170v-247q0 -111 -49.5 -163t-157.5 -52z" />
    <glyph glyph-name="t" unicode="t" horiz-adv-x="352" 
d="M338 0h-66q-71 0 -114 16q-41 18 -57.5 63.5t-16.5 133.5v827h-74v136q37 3 56 20q26 16 38 55q18 46 21 107h106v-168h107v-150h-107v-794q0 -64 13 -79t63 -15h31v-152z" />
    <glyph glyph-name="u" unicode="u" horiz-adv-x="509" 
d="M328 104q-13 -63 -44.5 -90.5t-82.5 -27.5q-84 0 -119 58t-35 196v950h154v-969q0 -52 12 -74t41 -22q30 0 42.5 26t12.5 87v952h150v-1190h-113z" />
    <glyph glyph-name="v" unicode="v" horiz-adv-x="460" 
d="M141 0l-129 1190h152l59 -707l10 -366l11 366l59 707h148l-127 -1190h-183z" />
    <glyph glyph-name="w" unicode="w" horiz-adv-x="690" 
d="M258 0h-149l-99 1190h142l43 -684l4 -285l20 285l80 684h98l76 -684l16 -285l9 285l47 684h137l-109 -1190h-145l-72 641l-10 277l-10 -277z" />
    <glyph glyph-name="x" unicode="x" 
d="M147 0h-147l154 621l-140 569h142l61 -287l19 -180l16 180l65 287h138l-142 -574l158 -616h-147l-72 322l-19 188l-18 -188z" />
    <glyph glyph-name="y" unicode="y" 
d="M47 -252v150h51q39 0 54.5 14t19.5 61l8 62l-170 1155h152l74 -625l16 -334l10 334l49 625h148l-133 -1245q-12 -117 -55 -157t-158 -40h-66z" />
    <glyph glyph-name="z" unicode="z" horiz-adv-x="380" 
d="M27 0v131l180 909h-174v150h321v-133l-176 -907h178v-150h-329z" />
    <glyph glyph-name="braceleft" unicode="{" horiz-adv-x="385" 
d="M274 -301q-198 0 -198 217q0 87 20 168q7 29 20.5 79.5t21 80.5t14 68t6.5 67q0 72 -24.5 100.5t-80.5 28.5h-20v164h20q56 0 80.5 26.5t24.5 94.5q0 64 -21 137q-3 11 -13.5 50t-14.5 55t-12 50.5t-11.5 57t-6.5 52t-3 56.5q0 109 47 163t147 54h90v-133h-34
q-54 0 -76.5 -24t-22.5 -78q0 -46 19 -143q47 -176 54 -252q3 -30 3 -58q0 -98 -32.5 -140t-94.5 -44v-12q62 -2 94.5 -45.5t32.5 -145.5q0 -63 -18 -155q-4 -15 -16 -61.5t-17 -67.5t-13 -57t-11 -64t-3 -54q0 -54 23.5 -77t77.5 -23h34v-135h-86z" />
    <glyph glyph-name="bar" unicode="|" horiz-adv-x="251" 
d="M51 -113v1674h150v-1674h-150z" />
    <glyph glyph-name="braceright" unicode="}" horiz-adv-x="385" 
d="M25 -166h36q54 0 76.5 23t22.5 77q0 49 -19 146q-2 7 -13.5 50.5t-14.5 56t-11 49t-11 56t-6 48t-3 53.5q0 102 32.5 145.5t94.5 45.5v12q-62 2 -94.5 44t-32.5 140q0 81 20 154q5 23 18.5 76.5t20.5 82t13 69t6 71.5q0 102 -99 102h-36v133h92q100 0 146 -54t46 -163
q0 -85 -20 -164q-6 -25 -26 -97.5t-28 -115t-8 -81.5q0 -68 25.5 -94.5t79.5 -26.5h20v-164h-20q-53 0 -79 -29t-26 -100q0 -61 21 -137q3 -10 11.5 -43t12.5 -47.5t11 -44t10.5 -49t8 -45.5t6 -50t1.5 -47q0 -217 -198 -217h-86v135z" />
    <glyph glyph-name="asciitilde" unicode="~" horiz-adv-x="507" 
d="M47 1245q1 131 26.5 180.5t90.5 49.5q39 0 69 -23q14 -12 32.5 -32t30 -30t21.5 -10q18 0 26.5 18.5t8.5 69.5h107q-1 -127 -28.5 -178t-92.5 -51q-42 0 -70 25q-13 11 -32 31.5t-31.5 30t-24.5 9.5q-14 0 -20 -19.5t-6 -70.5h-107z" />
    <glyph glyph-name="uni00A0" unicode="&#xa0;" horiz-adv-x="235" 
 />
    <glyph glyph-name="exclamdown" unicode="&#xa1;" horiz-adv-x="303" 
d="M152 1204q55 0 73.5 -25t18.5 -108t-18.5 -108t-73.5 -25q-56 0 -74.5 25t-18.5 108q0 81 20 107t73 26zM72 -274v464q0 23 1 78t1 86q3 200 12 351q1 46 3 89t3.5 65.5t1.5 23.5q18 -11 58 -11q41 0 59 11v-3q0 -3 0.5 -7.5t1 -10.5t0.5 -15v-18q0 -15 5.5 -118.5
t6.5 -175.5q8 -164 8 -345v-464h-161z" />
    <glyph glyph-name="cent" unicode="&#xa2;" horiz-adv-x="514" 
d="M465 195q-3 -173 -135 -207v-172h-148v172q-133 36 -133 209v800q0 167 135 203v168h148v-168q130 -37 133 -201v-317h-150v309q-2 46 -13.5 67t-45.5 21q-57 0 -57 -90v-782q0 -88 57 -88q33 0 45 21.5t14 64.5v346h150v-356z" />
    <glyph glyph-name="sterling" unicode="&#xa3;" horiz-adv-x="643" 
d="M438 -23q-75 0 -155 76q-54 -76 -133 -76q-68 0 -107 35.5t-39 108.5q0 75 40.5 114t109.5 39q43 0 86 -24q2 14 2 47q0 107 -33 268h-141v146h106q-2 10 -19 75t-21 83.5t-16 75t-16 89t-9 82.5t-5 98q0 269 225 269q115 0 168.5 -62t53.5 -196v-189h-150v174
q0 73 -14.5 102t-55.5 29q-38 0 -54.5 -28.5t-16.5 -100.5q0 -63 6.5 -135t13 -117t20.5 -131t19 -118h152v-146h-129q22 -135 22 -262q0 -78 -14 -127q48 -31 74 -31q29 0 39 26t10 103v129h151v-155q0 -154 -38 -212.5t-132 -58.5zM156 92q33 0 57 37q-35 35 -61 35
q-13 0 -23 -9.5t-10 -25.5q0 -37 37 -37z" />
    <glyph glyph-name="currency" unicode="&#xa4;" horiz-adv-x="471" 
d="M305 532q-27 -12 -69 -12q-34 0 -72 10l-72 -100l-84 62l76 106q-14 40 -14 74v172q0 48 24 86l-71 98l79 66l70 -101q32 11 64 11q34 0 61 -9l68 99l81 -62l-69 -96q24 -38 24 -88v-172q0 -48 -18 -78l78 -104l-82 -64zM236 627q49 0 49 55v156q0 55 -49 55
q-50 0 -50 -55v-156q0 -55 50 -55z" />
    <glyph glyph-name="yen" unicode="&#xa5;" horiz-adv-x="458" 
d="M307 377v-377h-157v377h-121v141h121v86h-121v141h118l-143 723h154l57 -352l16 -219l19 219l55 352h152l-150 -723h125v-141h-125v-86h125v-141h-125z" />
    <glyph glyph-name="brokenbar" unicode="&#xa6;" horiz-adv-x="251" 
d="M51 1561h150v-768h-150v768zM201 690v-803h-150v803h150z" />
    <glyph glyph-name="section" unicode="&#xa7;" horiz-adv-x="647" 
d="M324 -16q-113 0 -159 49.5t-48 165.5v168h153v-156q0 -45 13 -65.5t43 -20.5q31 0 43 19t12 65v72q0 18 -4.5 36t-16.5 37.5t-20.5 33t-30.5 36t-32 32.5t-38.5 37t-37.5 35q-37 36 -54.5 54t-47 52t-43 59t-25 59t-11.5 67v53q0 73 32 108.5t81 35.5q45 0 68 -23
q-78 103 -78 185v90q0 211 205 211q104 0 153 -51.5t49 -161.5v-148h-149v137q-2 49 -12.5 66.5t-42.5 17.5q-29 0 -40.5 -18.5t-11.5 -65.5v-59q0 -13 2.5 -26.5t10 -28t13.5 -25.5t19.5 -27.5t21 -26t26.5 -28t26.5 -26t30 -28.5t29.5 -28q43 -42 66 -67t53 -64
t43.5 -77.5t13.5 -79.5v-56q0 -67 -32 -101t-83 -34q-29 0 -57 14q75 -103 75 -192v-96q0 -114 -49.5 -164.5t-158.5 -50.5zM352 600q45 -45 68 -70q59 3 59 76v35q0 35 -25.5 76.5t-53.5 70.5t-81 80q-12 11 -18 17q-35 36 -70 73q-61 -3 -61 -81v-35q0 -16 4.5 -32.5
t16 -34.5t22 -32.5t31 -35.5t32.5 -33.5t38 -37t38 -36.5z" />
    <glyph glyph-name="dieresis" unicode="&#xa8;" horiz-adv-x="477" 
d="M143 1255q-39 0 -55 20.5t-16 74.5t16.5 76t54.5 22q41 0 56.5 -21t15.5 -77q0 -52 -15.5 -73.5t-56.5 -21.5zM334 1255q-43 0 -57.5 19.5t-14.5 75.5q0 55 16.5 76.5t55.5 21.5q38 0 55 -22t17 -76q0 -51 -17 -73t-55 -22z" />
    <glyph glyph-name="copyright" unicode="&#xa9;" horiz-adv-x="901" 
d="M457 -31q-195 0 -301.5 102.5t-106.5 288.5v725q0 187 107.5 296.5t289.5 109.5q187 0 297.5 -103.5t110.5 -279.5v-739q0 -179 -104.5 -289.5t-292.5 -110.5zM457 98q126 0 194 69.5t68 201.5v739q0 122 -70.5 190t-202.5 68q-126 0 -194 -73.5t-68 -207.5v-723
q0 -127 69.5 -195.5t203.5 -68.5zM455 178q-87 0 -137 47t-50 140v731q0 96 48.5 145t138.5 49q183 0 186 -184v-234h-137v230q-2 35 -12 51t-37 16q-28 0 -38.5 -17t-10.5 -56v-719q0 -35 10.5 -51.5t38.5 -16.5t37.5 14.5t11.5 51.5v260h137v-275q-1 -88 -50.5 -135
t-135.5 -47z" />
    <glyph glyph-name="ordfeminine" unicode="&#xaa;" horiz-adv-x="403" 
d="M258 731q-25 -80 -104 -80q-59 0 -88 36.5t-29 127.5v135q0 77 35 115q24 24 94 53q29 12 37.5 16t21.5 14t16 22.5t3 33.5v115q0 29 -9.5 40t-29.5 11q-39 0 -39 -53v-152h-119v168q0 67 42 104.5t116 37.5t115.5 -36t41.5 -106v-674h-90zM201 754q43 0 43 67v258
q-12 -16 -35 -26q-28 -17 -33 -23q-14 -18 -14 -59v-160q0 -57 39 -57z" />
    <glyph glyph-name="guillemotleft" unicode="&#xab;" horiz-adv-x="610" 
d="M215 258l-176 346v4l180 355h137l-182 -353l184 -352h-143zM442 258l-182 350v10l178 345h135l-180 -347l193 -358h-144z" />
    <glyph glyph-name="logicalnot" unicode="&#xac;" horiz-adv-x="606" 
d="M403 508v207h-360v133h498v-340h-138z" />
    <glyph glyph-name="uni00AD" unicode="&#xad;" horiz-adv-x="428" 
d="M389 528h-350v152h350v-152z" />
    <glyph glyph-name="registered" unicode="&#xae;" horiz-adv-x="628" 
d="M319 895q-129 0 -206.5 69t-77.5 205v33q0 131 78.5 208t201.5 77t201 -75t78 -206v-37q0 -129 -77.5 -201.5t-197.5 -72.5zM319 987q181 0 181 191v20q0 96 -49 146.5t-136 50.5q-86 0 -134 -52t-48 -149v-16q0 -191 186 -191zM291 1130v-92h-88v308h125q64 0 92.5 -26
t28.5 -77q0 -53 -52 -74q43 -11 43 -77v-35q0 -15 4 -19h-90q-6 18 -6 19v33q0 26 -6.5 33t-30.5 7h-20zM291 1272v-68h20q49 0 49 35q0 19 -11.5 26t-37.5 7h-20z" />
    <glyph glyph-name="macron" unicode="&#xaf;" horiz-adv-x="475" 
d="M102 1407h271v-133h-271v133z" />
    <glyph glyph-name="degree" unicode="&#xb0;" horiz-adv-x="450" 
d="M225 1110q-89 0 -139.5 46.5t-50.5 129.5v8q0 87 54 135t136 48q87 0 140 -48t53 -135v-8q0 -82 -53 -129t-140 -47zM225 1235q58 0 58 55v4q0 60 -58 60q-22 0 -38.5 -15.5t-16.5 -44.5v-4q0 -55 55 -55z" />
    <glyph glyph-name="plusminus" unicode="&#xb1;" horiz-adv-x="581" 
d="M352 825v-170h-125v170h-161v123h161v172h125v-172h162v-123h-162zM66 444v131h448v-131h-448z" />
    <glyph glyph-name="uni00B2" unicode="&#xb2;" horiz-adv-x="317" 
d="M25 840q0 113 81 209q27 32 41.5 52.5t27.5 52t13 63.5v131q0 36 -28 36q-29 0 -29 -36v-177h-106l2 183q0 59 34.5 91t98.5 32q133 0 133 -123v-144q0 -60 -19.5 -103t-56.5 -87q-38 -46 -58.5 -84t-21.5 -88l-4 -4h164v-109h-272v105z" />
    <glyph glyph-name="uni00B3" unicode="&#xb3;" horiz-adv-x="317" 
d="M154 725q-66 0 -98.5 31.5t-32.5 87.5v160h102v-142q0 -37 31 -37q30 0 30 37v156q0 41 -39 41h-43v108h46q34 0 34 41v138q0 36 -28 36q-29 0 -29 -36v-119h-102v133q0 55 33 86t96 31q65 0 98 -31t33 -86v-150q0 -75 -49 -90q53 -15 53 -86v-190q0 -55 -34.5 -87
t-100.5 -32z" />
    <glyph glyph-name="acute" unicode="&#xb4;" horiz-adv-x="475" 
d="M242 1491h153l-149 -231h-113z" />
    <glyph glyph-name="paragraph" unicode="&#xb6;" horiz-adv-x="782" 
d="M352 0v709h-16q-143 -2 -223 97t-80 284q0 187 76.5 282.5t218.5 95.5h401v-1468h-143v1333h-90v-1333h-144zM352 854v479h-22q-74 0 -109 -55t-35 -188q0 -122 38.5 -179t115.5 -57h12z" />
    <glyph glyph-name="periodcentered" unicode="&#xb7;" horiz-adv-x="303" 
d="M152 475q-53 0 -73 27t-20 108q0 83 18.5 108t74.5 25q57 0 75.5 -25t18.5 -108q0 -82 -19.5 -108.5t-74.5 -26.5z" />
    <glyph glyph-name="cedilla" unicode="&#xb8;" horiz-adv-x="475" 
d="M238 -344q-89 0 -131.5 37t-53.5 121h125q9 -54 60 -54q55 0 55 50q0 45 -60 45h-55v168h107v-82q129 -13 129 -136q0 -75 -47 -112t-129 -37z" />
    <glyph glyph-name="uni00B9" unicode="&#xb9;" horiz-adv-x="280" 
d="M16 735v103h74v434h-63v96q43 5 62.5 27t23.5 73h80v-630h73v-103h-250z" />
    <glyph glyph-name="ordmasculine" unicode="&#xba;" horiz-adv-x="395" 
d="M197 651q-158 0 -158 156v520q0 75 43 111.5t117 36.5t115.5 -37t41.5 -111v-520q0 -156 -159 -156zM199 768q37 0 37 47v504q0 51 -39 51q-37 0 -37 -51v-504q0 -47 39 -47z" />
    <glyph glyph-name="guillemotright" unicode="&#xbb;" horiz-adv-x="610" 
d="M25 258l192 358l-178 347h135l178 -345v-10l-182 -350h-145zM252 258l186 350l-182 355h137l180 -355v-4l-178 -346h-143z" />
    <glyph glyph-name="onequarter" unicode="&#xbc;" horiz-adv-x="739" 
d="M375 834l160 649l155 -43l-272 -621zM51 735v103h74v434h-64v96q43 5 62.5 27t23.5 73h80v-630h74v-103h-250zM633 135v-135h-92v135h-164v86l155 512h101v-502h53v-96h-53zM356 645l-143 -661l-162 49l266 626zM473 231h68v172l22 199l-39 -190z" />
    <glyph glyph-name="onehalf" unicode="&#xbd;" horiz-adv-x="739" 
d="M375 834l160 649l155 -43l-272 -621zM51 735v103h74v434h-64v96q43 5 62.5 27t23.5 73h80v-630h74v-103h-250zM420 104q0 112 82 209q27 32 41.5 52.5t27.5 52t13 63.5v131q0 37 -29 37t-29 -37v-176h-106l2 182q0 59 34.5 91t98.5 32q133 0 133 -123v-143
q0 -60 -19.5 -103t-56.5 -87q-38 -46 -58.5 -84t-21.5 -88l-4 -4h164v-109h-272v104zM356 645l-143 -661l-162 49l266 626z" />
    <glyph glyph-name="threequarters" unicode="&#xbe;" horiz-adv-x="739" 
d="M375 834l160 649l155 -43l-272 -621zM176 725q-66 0 -98.5 31.5t-32.5 87.5v160h102v-142q0 -37 31 -37t31 37v156q0 41 -39 41h-43v108h45q35 0 35 41v138q0 36 -29 36q-28 0 -28 -36v-119h-103v133q0 55 33 86t96 31q65 0 98 -31t33 -86v-150q0 -75 -49 -90
q53 -15 53 -86v-190q0 -55 -34.5 -87t-100.5 -32zM631 135v-135h-92v135h-164v86l155 512h101v-502h53v-96h-53zM356 645l-143 -661l-162 49l266 626zM471 231h68v172l22 199l-39 -190z" />
    <glyph glyph-name="questiondown" unicode="&#xbf;" horiz-adv-x="528" 
d="M279 1202q55 0 72.5 -25.5t17.5 -109.5q0 -82 -19 -107.5t-74 -25.5t-73.5 25.5t-18.5 107.5q0 83 19.5 109t75.5 26zM203 885q19 -19 76 -19q58 0 77 19v-156q0 -63 -14.5 -118.5t-29 -83.5t-42.5 -72q-22 -36 -32 -54.5t-19.5 -49t-9.5 -60.5v-371q0 -44 11.5 -62
t45.5 -18q31 0 43.5 20t12.5 60v420h155v-438q0 -90 -52 -141.5t-157 -51.5q-110 0 -163.5 51.5t-53.5 141.5v389q0 19 2.5 38.5t4.5 33.5t9.5 33t10.5 27.5t14 29t13 25t15.5 26.5t14.5 24q23 37 34.5 59t22.5 60t11 78v160z" />
    <glyph glyph-name="Agrave" unicode="&#xc0;" 
d="M55 1769h152l78 -231h-107zM297 182h-127l-14 -182h-148l144 1468h157l154 -1468h-152zM180 322h107l-43 536l-13 332l-12 -332z" />
    <glyph glyph-name="Aacute" unicode="&#xc1;" 
d="M281 1769h153l-149 -231h-113zM297 182h-127l-14 -182h-148l144 1468h157l154 -1468h-152zM180 322h107l-43 536l-13 332l-12 -332z" />
    <glyph glyph-name="Acircumflex" unicode="&#xc2;" 
d="M231 1667l-57 -129h-115l121 248h103l120 -248h-118zM297 182h-127l-14 -182h-148l144 1468h157l154 -1468h-152zM180 322h107l-43 536l-13 332l-12 -332z" />
    <glyph glyph-name="Atilde" unicode="&#xc3;" 
d="M37 1540q0 128 23 174.5t87 46.5q44 0 66 -22q13 -10 30.5 -28t29.5 -28t22 -10q17 0 23 16.5t6 65.5h102q0 -122 -25 -170.5t-86 -48.5q-42 0 -65 23q-9 8 -23.5 22.5t-23 22t-19.5 14t-20 6.5q-14 0 -19.5 -18.5t-5.5 -65.5h-102zM297 182h-127l-14 -182h-148l144 1468
h157l154 -1468h-152zM180 322h107l-43 536l-13 332l-12 -332z" />
    <glyph glyph-name="Adieresis" unicode="&#xc4;" 
d="M135 1530q-39 0 -55.5 20t-16.5 74t17 76t55 22q41 0 56.5 -21t15.5 -77q0 -52 -15.5 -73t-56.5 -21zM326 1530q-43 0 -57.5 19t-14.5 75q0 55 16.5 76.5t55.5 21.5q38 0 54.5 -22t16.5 -76q0 -51 -16.5 -72.5t-54.5 -21.5zM297 182h-127l-14 -182h-148l144 1468h157
l154 -1468h-152zM180 322h107l-43 536l-13 332l-12 -332z" />
    <glyph glyph-name="Aring" unicode="&#xc5;" 
d="M227 1522q-70 0 -111.5 38t-41.5 109q0 70 42.5 111t110.5 41q69 0 110.5 -39.5t41.5 -110.5q0 -72 -41.5 -110.5t-110.5 -38.5zM227 1622q47 0 47 49t-47 49t-47 -49t47 -49zM297 182h-127l-14 -182h-148l144 1468h157l154 -1468h-152zM180 322h107l-43 536l-13 332
l-12 -332z" />
    <glyph glyph-name="AE" unicode="&#xc6;" horiz-adv-x="628" 
d="M297 182h-127l-20 -182h-146l207 1468h387v-151h-221l29 -504h184v-151h-176l26 -508h164v-154h-301zM186 322h107l-19 536l11 414l-35 -414z" />
    <glyph glyph-name="Ccedilla" unicode="&#xc7;" horiz-adv-x="518" 
d="M272 -360q-89 0 -131 36.5t-53 120.5h125q9 -53 59 -53q56 0 56 49q0 45 -60 45h-55v150q-83 8 -123.5 60t-40.5 153v1073q0 209 217 209q103 0 155.5 -49.5t53.5 -155.5v-393h-151v377q-2 44 -15.5 64t-44.5 20q-57 0 -57 -86v-1041q0 -45 12.5 -65.5t44.5 -20.5
q34 0 46 19t14 65v416h151v-434q0 -187 -156 -211v-64q130 -13 130 -135q0 -75 -47.5 -112t-129.5 -37z" />
    <glyph glyph-name="Egrave" unicode="&#xc8;" horiz-adv-x="397" 
d="M43 1769h152l77 -231h-106zM371 0h-318v1468h314v-149h-162v-496h151v-151h-151v-520h166v-152z" />
    <glyph glyph-name="Eacute" unicode="&#xc9;" horiz-adv-x="397" 
d="M266 1767h154l-150 -231h-112zM371 0h-318v1468h314v-149h-162v-496h151v-151h-151v-520h166v-152z" />
    <glyph glyph-name="Ecircumflex" unicode="&#xca;" horiz-adv-x="397" 
d="M217 1667l-57 -129h-115l121 248h102l121 -248h-119zM371 0h-318v1468h314v-149h-162v-496h151v-151h-151v-520h166v-152z" />
    <glyph glyph-name="Edieresis" unicode="&#xcb;" horiz-adv-x="397" 
d="M121 1534q-39 0 -55.5 20t-16.5 74t17 76t55 22q41 0 56.5 -21t15.5 -77q0 -52 -15.5 -73t-56.5 -21zM311 1534q-43 0 -57 19t-14 75q0 55 16 76.5t55 21.5q38 0 55 -22t17 -76q0 -51 -17 -72.5t-55 -21.5zM371 0h-318v1468h314v-149h-162v-496h151v-151h-151v-520h166
v-152z" />
    <glyph glyph-name="Igrave" unicode="&#xcc;" horiz-adv-x="356" 
d="M2 1769h152l77 -231h-106zM20 0v145h82v1178h-82v145h316v-145h-82v-1178h82v-145h-316z" />
    <glyph glyph-name="Iacute" unicode="&#xcd;" horiz-adv-x="356" 
d="M227 1765h154l-150 -231h-112zM20 0v145h82v1178h-82v145h316v-145h-82v-1178h82v-145h-316z" />
    <glyph glyph-name="Icircumflex" unicode="&#xce;" horiz-adv-x="356" 
d="M178 1667l-57 -129h-115l121 248h102l121 -248h-119zM20 0v145h82v1178h-82v145h316v-145h-82v-1178h82v-145h-316z" />
    <glyph glyph-name="Idieresis" unicode="&#xcf;" horiz-adv-x="356" 
d="M82 1532q-39 0 -55.5 20t-16.5 74t17 76t55 22q41 0 56.5 -21t15.5 -77q0 -52 -15.5 -73t-56.5 -21zM272 1532q-43 0 -57 19t-14 75q0 55 16 76.5t55 21.5q38 0 55 -22t17 -76q0 -51 -17 -72.5t-55 -21.5zM20 0v145h82v1178h-82v145h316v-145h-82v-1178h82v-145h-316z
" />
    <glyph glyph-name="Eth" unicode="&#xd0;" horiz-adv-x="544" 
d="M61 0v666h-53v151h53v651h205q119 0 174.5 -48t55.5 -167v-1038q0 -117 -59.5 -166t-178.5 -49h-197zM217 666v-527h39q82 0 82 88v1024q0 46 -19.5 65t-62.5 19h-39v-518h64v-151h-64z" />
    <glyph glyph-name="Ntilde" unicode="&#xd1;" horiz-adv-x="546" 
d="M98 1544q0 128 23.5 174.5t87.5 46.5q43 0 65 -22q13 -10 30.5 -28t29.5 -28t22 -10q17 0 23 16.5t6 65.5h102q0 -122 -25 -170.5t-85 -48.5q-43 0 -66 23q-9 8 -23.5 22.5t-23 22t-19.5 14t-20 6.5q-13 0 -18.5 -18.5t-5.5 -65.5h-103zM188 0h-135v1468h119l172 -827
l39 -219l-25 313v733h138v-1468h-117l-176 834l-39 215l24 -301v-748z" />
    <glyph glyph-name="Ograve" unicode="&#xd2;" horiz-adv-x="536" 
d="M96 1786h152l78 -232h-107zM268 -16q-103 0 -161 52.5t-58 162.5v1073q0 102 59 156.5t162 54.5q104 0 160.5 -54t56.5 -157v-1073q0 -215 -219 -215zM270 133q62 0 62 86v1043q0 84 -64 84q-61 0 -61 -84v-1043q0 -44 14.5 -65t48.5 -21z" />
    <glyph glyph-name="Oacute" unicode="&#xd3;" horiz-adv-x="536" 
d="M322 1784h153l-149 -232h-113zM268 -16q-103 0 -161 52.5t-58 162.5v1073q0 102 59 156.5t162 54.5q104 0 160.5 -54t56.5 -157v-1073q0 -215 -219 -215zM270 133q62 0 62 86v1043q0 84 -64 84q-61 0 -61 -84v-1043q0 -44 14.5 -65t48.5 -21z" />
    <glyph glyph-name="Ocircumflex" unicode="&#xd4;" horiz-adv-x="536" 
d="M272 1679l-57 -129h-115l121 248h103l120 -248h-118zM268 -16q-103 0 -161 52.5t-58 162.5v1073q0 102 59 156.5t162 54.5q104 0 160.5 -54t56.5 -157v-1073q0 -215 -219 -215zM270 133q62 0 62 86v1043q0 84 -64 84q-61 0 -61 -84v-1043q0 -44 14.5 -65t48.5 -21z" />
    <glyph glyph-name="Otilde" unicode="&#xd5;" horiz-adv-x="536" 
d="M78 1556q0 128 23 175t87 47q43 0 66 -23q13 -10 30.5 -28t29.5 -27.5t22 -9.5q17 0 23 16.5t6 65.5h102q0 -122 -25 -171t-86 -49q-42 0 -65 23q-9 8 -23.5 22.5t-23 22t-19.5 14t-20 6.5q-14 0 -19.5 -18.5t-5.5 -65.5h-102zM268 -16q-103 0 -161 52.5t-58 162.5v1073
q0 102 59 156.5t162 54.5q104 0 160.5 -54t56.5 -157v-1073q0 -215 -219 -215zM270 133q62 0 62 86v1043q0 84 -64 84q-61 0 -61 -84v-1043q0 -44 14.5 -65t48.5 -21z" />
    <glyph glyph-name="Odieresis" unicode="&#xd6;" horiz-adv-x="536" 
d="M174 1540q-39 0 -55.5 20t-16.5 74t17 76.5t55 22.5q41 0 56.5 -21.5t15.5 -77.5q0 -52 -15.5 -73t-56.5 -21zM365 1540q-43 0 -57.5 19t-14.5 75q0 55 16.5 77t55.5 22q38 0 54.5 -22.5t16.5 -76.5q0 -51 -16.5 -72.5t-54.5 -21.5zM268 -16q-103 0 -161 52.5t-58 162.5
v1073q0 102 59 156.5t162 54.5q104 0 160.5 -54t56.5 -157v-1073q0 -215 -219 -215zM270 133q62 0 62 86v1043q0 84 -64 84q-61 0 -61 -84v-1043q0 -44 14.5 -65t48.5 -21z" />
    <glyph glyph-name="multiply" unicode="&#xd7;" horiz-adv-x="581" 
d="M289 631l-137 -137l-86 86l137 139l-129 131l86 86l129 -131l131 133l86 -86l-131 -133l137 -139l-86 -88z" />
    <glyph glyph-name="Oslash" unicode="&#xd8;" horiz-adv-x="542" 
d="M160 -184l12 182q-123 43 -123 201v1073q0 102 56 156.5t155 54.5l10 143h113l-12 -158q123 -40 123 -196v-1073q0 -215 -213 -215l-9 -168h-112zM272 131q68 0 68 88v1043q0 86 -70 86q-67 0 -67 -86v-1043q0 -88 69 -88z" />
    <glyph glyph-name="Ugrave" unicode="&#xd9;" horiz-adv-x="524" 
d="M88 1769h152l77 -231h-106zM262 -16q-106 0 -158.5 51.5t-52.5 163.5v1269h156v-1253q0 -82 55 -82t55 82v1253h156v-1269q0 -112 -52.5 -163.5t-158.5 -51.5z" />
    <glyph glyph-name="Uacute" unicode="&#xda;" horiz-adv-x="524" 
d="M313 1767h154l-150 -231h-112zM262 -16q-106 0 -158.5 51.5t-52.5 163.5v1269h156v-1253q0 -82 55 -82t55 82v1253h156v-1269q0 -112 -52.5 -163.5t-158.5 -51.5z" />
    <glyph glyph-name="Ucircumflex" unicode="&#xdb;" horiz-adv-x="524" 
d="M264 1665l-57 -129h-115l121 248h102l121 -248h-119zM262 -16q-106 0 -158.5 51.5t-52.5 163.5v1269h156v-1253q0 -82 55 -82t55 82v1253h156v-1269q0 -112 -52.5 -163.5t-158.5 -51.5z" />
    <glyph glyph-name="Udieresis" unicode="&#xdc;" horiz-adv-x="524" 
d="M166 1532q-39 0 -55.5 20t-16.5 74t17 76t55 22q41 0 56.5 -21t15.5 -77q0 -52 -15.5 -73t-56.5 -21zM356 1532q-43 0 -57 19t-14 75q0 55 16 76.5t55 21.5q38 0 55 -22t17 -76q0 -51 -17 -72.5t-55 -21.5zM262 -16q-106 0 -158.5 51.5t-52.5 163.5v1269h156v-1253
q0 -82 55 -82t55 82v1253h156v-1269q0 -112 -52.5 -163.5t-158.5 -51.5z" />
    <glyph glyph-name="Yacute" unicode="&#xdd;" horiz-adv-x="458" 
d="M281 1767h153l-149 -231h-113zM150 0v561l-146 907h154l55 -432l16 -282l19 282l55 432h152l-148 -893v-575h-157z" />
    <glyph glyph-name="Thorn" unicode="&#xde;" horiz-adv-x="518" 
d="M207 264v-264h-154v1468h154v-217h51q115 0 167 -49.5t52 -148.5v-572q0 -217 -217 -217h-53zM207 1120v-712h35q80 0 80 81v555q0 43 -18 59.5t-62 16.5h-35z" />
    <glyph glyph-name="germandbls" unicode="&#xdf;" horiz-adv-x="520" 
d="M201 0h-150v1327q0 102 54.5 155.5t156.5 53.5q209 0 209 -209v-373q0 -65 -15.5 -98.5t-52.5 -46.5q41 -12 57.5 -46t16.5 -106v-462q0 -78 -12 -119q-12 -42 -49.5 -59t-112.5 -17h-49v145h16q33 0 45.5 15.5t12.5 56.5v414q0 55 -13 74.5t-49 19.5h-12v156h10
q33 0 46.5 20.5t13.5 73.5v344q0 82 -62 82q-61 0 -61 -82v-1319z" />
    <glyph glyph-name="agrave" unicode="&#xe0;" horiz-adv-x="503" 
d="M80 1495h151l78 -231h-106zM328 119q-23 -133 -138 -133q-84 0 -116.5 51.5t-32.5 185.5v199q0 67 9 104t34 66q18 21 45.5 33.5t77.5 29.5q63 20 83.5 42t20.5 83v203q0 48 -11.5 67t-43.5 19q-31 0 -44 -19.5t-13 -68.5v-260h-146v276q0 207 201 207q203 0 203 -207
v-997h-111zM248 125q63 0 63 100v373q-13 -24 -51 -37q-33 -15 -49 -35q-16 -29 -16 -96v-211q0 -51 12 -72.5t41 -21.5z" />
    <glyph glyph-name="aacute" unicode="&#xe1;" horiz-adv-x="503" 
d="M305 1495h154l-150 -231h-112zM328 119q-23 -133 -138 -133q-84 0 -116.5 51.5t-32.5 185.5v199q0 67 9 104t34 66q18 21 45.5 33.5t77.5 29.5q63 20 83.5 42t20.5 83v203q0 48 -11.5 67t-43.5 19q-31 0 -44 -19.5t-13 -68.5v-260h-146v276q0 207 201 207q203 0 203 -207
v-997h-111zM248 125q63 0 63 100v373q-13 -24 -51 -37q-33 -15 -49 -35q-16 -29 -16 -96v-211q0 -51 12 -72.5t41 -21.5z" />
    <glyph glyph-name="acircumflex" unicode="&#xe2;" horiz-adv-x="503" 
d="M256 1393l-57 -129h-115l121 247h102l121 -247h-119zM328 119q-23 -133 -138 -133q-84 0 -116.5 51.5t-32.5 185.5v199q0 67 9 104t34 66q18 21 45.5 33.5t77.5 29.5q63 20 83.5 42t20.5 83v203q0 48 -11.5 67t-43.5 19q-31 0 -44 -19.5t-13 -68.5v-260h-146v276
q0 207 201 207q203 0 203 -207v-997h-111zM248 125q63 0 63 100v373q-13 -24 -51 -37q-33 -15 -49 -35q-16 -29 -16 -96v-211q0 -51 12 -72.5t41 -21.5z" />
    <glyph glyph-name="atilde" unicode="&#xe3;" horiz-adv-x="503" 
d="M63 1266q0 128 23.5 174.5t87.5 46.5q43 0 66 -23q13 -10 30.5 -28t29.5 -27.5t22 -9.5q17 0 22.5 16t5.5 66h103q0 -122 -25 -170.5t-86 -48.5q-44 0 -66 22q-10 9 -24 23t-22.5 22t-19.5 14.5t-20 6.5q-14 0 -19 -18.5t-5 -65.5h-103zM328 119q-23 -133 -138 -133
q-84 0 -116.5 51.5t-32.5 185.5v199q0 67 9 104t34 66q18 21 45.5 33.5t77.5 29.5q63 20 83.5 42t20.5 83v203q0 48 -11.5 67t-43.5 19q-31 0 -44 -19.5t-13 -68.5v-260h-146v276q0 207 201 207q203 0 203 -207v-997h-111zM248 125q63 0 63 100v373q-13 -24 -51 -37
q-33 -15 -49 -35q-16 -29 -16 -96v-211q0 -51 12 -72.5t41 -21.5z" />
    <glyph glyph-name="adieresis" unicode="&#xe4;" horiz-adv-x="503" 
d="M160 1260q-39 0 -55.5 20t-16.5 74t17 76t55 22q41 0 56 -21t15 -77q0 -52 -15 -73t-56 -21zM350 1260q-43 0 -57 19t-14 75q0 55 16 76.5t55 21.5q38 0 55 -22t17 -76q0 -51 -17 -72.5t-55 -21.5zM328 119q-23 -133 -138 -133q-84 0 -116.5 51.5t-32.5 185.5v199
q0 67 9 104t34 66q18 21 45.5 33.5t77.5 29.5q63 20 83.5 42t20.5 83v203q0 48 -11.5 67t-43.5 19q-31 0 -44 -19.5t-13 -68.5v-260h-146v276q0 207 201 207q203 0 203 -207v-997h-111zM248 125q63 0 63 100v373q-13 -24 -51 -37q-33 -15 -49 -35q-16 -29 -16 -96v-211
q0 -51 12 -72.5t41 -21.5z" />
    <glyph glyph-name="aring" unicode="&#xe5;" horiz-adv-x="503" 
d="M252 1274q-70 0 -112 38t-42 109q0 70 43 111t111 41q69 0 110 -39.5t41 -110.5q0 -72 -41 -110.5t-110 -38.5zM252 1374q47 0 47 49q0 50 -47 50t-47 -50q0 -49 47 -49zM328 119q-23 -133 -138 -133q-84 0 -116.5 51.5t-32.5 185.5v199q0 67 9 104t34 66
q18 21 45.5 33.5t77.5 29.5q63 20 83.5 42t20.5 83v203q0 48 -11.5 67t-43.5 19q-31 0 -44 -19.5t-13 -68.5v-260h-146v276q0 207 201 207q203 0 203 -207v-997h-111zM248 125q63 0 63 100v373q-13 -24 -51 -37q-33 -15 -49 -35q-16 -29 -16 -96v-211q0 -51 12 -72.5
t41 -21.5z" />
    <glyph glyph-name="ae" unicode="&#xe6;" horiz-adv-x="770" 
d="M727 199q0 -112 -52.5 -163.5t-156.5 -51.5q-147 0 -184 122q-25 -118 -139 -118q-85 0 -118.5 51.5t-33.5 185.5v209q0 114 43 170q33 38 125 64q63 19 83.5 40.5t20.5 82.5v192q0 49 -11.5 68.5t-45.5 19.5q-30 0 -42.5 -20.5t-12.5 -69.5v-246h-146v262q0 207 191 207
q104 0 141 -57q45 57 141 57q197 0 197 -215v-426h-268v-350q0 -45 13.5 -66.5t45.5 -21.5q31 0 44 20t13 64v272h152v-282zM459 688h119v291q0 92 -60 92q-33 0 -46 -20t-13 -72v-291zM252 127q61 0 61 100v379q-14 -25 -49 -37q-40 -18 -49 -34q-18 -32 -18 -95v-219
q0 -51 12 -72.5t43 -21.5z" />
    <glyph glyph-name="ccedilla" unicode="&#xe7;" horiz-adv-x="505" 
d="M262 -360q-89 0 -131 36.5t-53 120.5h125q9 -53 59 -53q55 0 55 49q0 45 -59 45h-55v150q-156 24 -156 213v788q0 108 54 161.5t155 53.5q205 0 205 -211v-311h-150v301q0 46 -12 65t-43 19q-57 0 -57 -86v-770q0 -86 57 -86q55 0 55 84v342h150v-352q0 -186 -152 -211
v-64q129 -13 129 -135q0 -75 -47 -112t-129 -37z" />
    <glyph glyph-name="egrave" unicode="&#xe8;" horiz-adv-x="505" 
d="M80 1493h151l78 -231h-106zM463 199q0 -112 -52.5 -163.5t-156.5 -51.5q-207 0 -207 219v786q0 108 54.5 161.5t152.5 53.5q209 0 209 -215v-426h-268v-350q0 -45 13.5 -66.5t45.5 -21.5q31 0 44 20t13 64v268h152v-278zM195 688h118v293q0 49 -13.5 68.5t-45.5 19.5
q-33 0 -46 -19.5t-13 -68.5v-293z" />
    <glyph glyph-name="eacute" unicode="&#xe9;" horiz-adv-x="505" 
d="M305 1491h154l-150 -231h-112zM463 199q0 -112 -52.5 -163.5t-156.5 -51.5q-207 0 -207 219v786q0 108 54.5 161.5t152.5 53.5q209 0 209 -215v-426h-268v-350q0 -45 13.5 -66.5t45.5 -21.5q31 0 44 20t13 64v268h152v-278zM195 688h118v293q0 49 -13.5 68.5t-45.5 19.5
q-33 0 -46 -19.5t-13 -68.5v-293z" />
    <glyph glyph-name="ecircumflex" unicode="&#xea;" horiz-adv-x="505" 
d="M256 1382l-57 -129h-115l121 248h102l121 -248h-119zM463 199q0 -112 -52.5 -163.5t-156.5 -51.5q-207 0 -207 219v786q0 108 54.5 161.5t152.5 53.5q209 0 209 -215v-426h-268v-350q0 -45 13.5 -66.5t45.5 -21.5q31 0 44 20t13 64v268h152v-278zM195 688h118v293
q0 49 -13.5 68.5t-45.5 19.5q-33 0 -46 -19.5t-13 -68.5v-293z" />
    <glyph glyph-name="edieresis" unicode="&#xeb;" horiz-adv-x="505" 
d="M158 1251q-39 0 -55.5 20.5t-16.5 74.5t17 76t55 22q41 0 56 -21t15 -77q0 -52 -15.5 -73.5t-55.5 -21.5zM348 1251q-43 0 -57.5 19.5t-14.5 75.5q0 55 16.5 76.5t55.5 21.5q38 0 55 -22t17 -76q0 -51 -17 -73t-55 -22zM463 199q0 -112 -52.5 -163.5t-156.5 -51.5
q-207 0 -207 219v786q0 108 54.5 161.5t152.5 53.5q209 0 209 -215v-426h-268v-350q0 -45 13.5 -66.5t45.5 -21.5q31 0 44 20t13 64v268h152v-278zM195 688h118v293q0 49 -13.5 68.5t-45.5 19.5q-33 0 -46 -19.5t-13 -68.5v-293z" />
    <glyph glyph-name="igrave" unicode="&#xec;" horiz-adv-x="251" 
d="M-45 1493h151l78 -231h-106zM51 0v1190h152v-1190h-152z" />
    <glyph glyph-name="iacute" unicode="&#xed;" horiz-adv-x="251" 
d="M174 1497h154l-150 -231h-112zM51 0v1190h152v-1190h-152z" />
    <glyph glyph-name="icircumflex" unicode="&#xee;" horiz-adv-x="251" 
d="M129 1384l-57 -129h-115l121 248h102l121 -248h-119zM51 0v1190h152v-1190h-152z" />
    <glyph glyph-name="idieresis" unicode="&#xef;" horiz-adv-x="251" 
d="M33 1255q-39 0 -55.5 20.5t-16.5 74.5t17 76t55 22q41 0 56 -21t15 -77q0 -52 -15.5 -73.5t-55.5 -21.5zM223 1255q-42 0 -56.5 19.5t-14.5 75.5q0 55 16 76.5t55 21.5q38 0 55 -22t17 -76q0 -51 -17 -73t-55 -22zM51 0v1190h152v-1190h-152z" />
    <glyph glyph-name="eth" unicode="&#xf0;" horiz-adv-x="512" 
d="M256 -16q-105 0 -157 51t-52 168v784q0 114 39 165.5t123 51.5q83 0 117 -61q-22 99 -78 172l-58 -47h-135l135 112q-77 73 -165 121h196q15 -7 62 -43l53 43h137l-129 -106q121 -151 121 -410v-782q0 -219 -209 -219zM256 125q57 0 57 86v770q0 86 -57 86
q-30 0 -43.5 -20t-13.5 -66v-770q0 -86 57 -86z" />
    <glyph glyph-name="ntilde" unicode="&#xf1;" horiz-adv-x="512" 
d="M78 1264q0 128 23 174.5t87 46.5q43 0 66 -23q13 -10 30.5 -28t29.5 -27.5t22 -9.5q17 0 23 16.5t6 65.5h102q0 -122 -25 -170.5t-86 -48.5q-43 0 -65 22q-10 9 -24 23t-22.5 22t-19.5 14.5t-20 6.5q-14 0 -19.5 -18.5t-5.5 -65.5h-102zM201 0h-150v1190h113l16 -105
q17 63 49 91t84 28q84 0 118 -56.5t34 -195.5v-952h-152v971q0 54 -11.5 75t-41.5 21q-31 0 -45 -26.5t-14 -86.5v-954z" />
    <glyph glyph-name="ograve" unicode="&#xf2;" horiz-adv-x="512" 
d="M82 1495h151l78 -231h-106zM256 -16q-105 0 -157 51t-52 168v784q0 217 209 217t209 -217v-784q0 -116 -54 -167.5t-155 -51.5zM256 125q57 0 57 86v770q0 47 -13 66.5t-44 19.5t-44 -19.5t-13 -66.5v-770q0 -46 13.5 -66t43.5 -20z" />
    <glyph glyph-name="oacute" unicode="&#xf3;" horiz-adv-x="512" 
d="M307 1495h154l-150 -231h-112zM256 -16q-105 0 -157 51t-52 168v784q0 217 209 217t209 -217v-784q0 -116 -54 -167.5t-155 -51.5zM256 125q57 0 57 86v770q0 47 -13 66.5t-44 19.5t-44 -19.5t-13 -66.5v-770q0 -46 13.5 -66t43.5 -20z" />
    <glyph glyph-name="ocircumflex" unicode="&#xf4;" horiz-adv-x="512" 
d="M258 1386l-57 -129h-115l121 248h102l121 -248h-119zM256 -16q-105 0 -157 51t-52 168v784q0 217 209 217t209 -217v-784q0 -116 -54 -167.5t-155 -51.5zM256 125q57 0 57 86v770q0 47 -13 66.5t-44 19.5t-44 -19.5t-13 -66.5v-770q0 -46 13.5 -66t43.5 -20z" />
    <glyph glyph-name="otilde" unicode="&#xf5;" horiz-adv-x="512" 
d="M66 1266q0 128 23 174.5t87 46.5q43 0 66 -23q13 -10 30.5 -28t29.5 -27.5t22 -9.5q17 0 22.5 16t5.5 66h103q0 -122 -25 -170.5t-86 -48.5q-43 0 -65 22q-10 9 -24 23t-22.5 22t-19.5 14.5t-20 6.5q-14 0 -19.5 -18.5t-5.5 -65.5h-102zM256 -16q-105 0 -157 51t-52 168
v784q0 217 209 217t209 -217v-784q0 -116 -54 -167.5t-155 -51.5zM256 125q57 0 57 86v770q0 47 -13 66.5t-44 19.5t-44 -19.5t-13 -66.5v-770q0 -46 13.5 -66t43.5 -20z" />
    <glyph glyph-name="odieresis" unicode="&#xf6;" horiz-adv-x="512" 
d="M164 1253q-39 0 -55.5 20.5t-16.5 74.5t17 76t55 22q41 0 56.5 -21t15.5 -77q0 -52 -15.5 -73.5t-56.5 -21.5zM354 1253q-42 0 -56.5 19.5t-14.5 75.5q0 55 16 76.5t55 21.5q38 0 55 -22t17 -76q0 -51 -17 -73t-55 -22zM256 -16q-105 0 -157 51t-52 168v784
q0 217 209 217t209 -217v-784q0 -116 -54 -167.5t-155 -51.5zM256 125q57 0 57 86v770q0 47 -13 66.5t-44 19.5t-44 -19.5t-13 -66.5v-770q0 -46 13.5 -66t43.5 -20z" />
    <glyph glyph-name="divide" unicode="&#xf7;" horiz-adv-x="581" 
d="M289 825q-43 0 -59.5 16t-16.5 60q0 46 16 60t60 14q48 0 63 -13.5t15 -60.5q0 -44 -17.5 -60t-60.5 -16zM66 643v127h448v-127h-448zM289 438q-43 0 -59.5 16t-16.5 60q0 46 16 60t60 14q48 0 63 -13.5t15 -60.5q0 -44 -17.5 -60t-60.5 -16z" />
    <glyph glyph-name="oslash" unicode="&#xf8;" horiz-adv-x="516" 
d="M137 -174l17 174q-107 49 -107 203v784q0 111 55.5 164t149.5 53l14 146h115l-19 -164q107 -47 107 -199v-784q0 -113 -54 -166t-151 -53l-10 -158h-117zM258 125q61 0 61 86v770q0 86 -61 86t-61 -86v-770q0 -86 61 -86z" />
    <glyph glyph-name="ugrave" unicode="&#xf9;" horiz-adv-x="509" 
d="M80 1489h151l78 -232h-106zM328 104q-13 -63 -44.5 -90.5t-82.5 -27.5q-84 0 -119 58t-35 196v950h154v-969q0 -52 12 -74t41 -22q30 0 42.5 26t12.5 87v952h150v-1190h-113z" />
    <glyph glyph-name="uacute" unicode="&#xfa;" horiz-adv-x="509" 
d="M305 1489h154l-150 -232h-112zM328 104q-13 -63 -44.5 -90.5t-82.5 -27.5q-84 0 -119 58t-35 196v950h154v-969q0 -52 12 -74t41 -22q30 0 42.5 26t12.5 87v952h150v-1190h-113z" />
    <glyph glyph-name="ucircumflex" unicode="&#xfb;" horiz-adv-x="509" 
d="M256 1386l-57 -129h-115l121 248h102l121 -248h-119zM328 104q-13 -63 -44.5 -90.5t-82.5 -27.5q-84 0 -119 58t-35 196v950h154v-969q0 -52 12 -74t41 -22q30 0 42.5 26t12.5 87v952h150v-1190h-113z" />
    <glyph glyph-name="udieresis" unicode="&#xfc;" horiz-adv-x="509" 
d="M158 1253q-39 0 -55.5 20.5t-16.5 74.5t17 76t55 22q41 0 56 -21t15 -77q0 -52 -15.5 -73.5t-55.5 -21.5zM348 1253q-43 0 -57.5 19.5t-14.5 75.5q0 55 16.5 76.5t55.5 21.5q38 0 55 -22t17 -76q0 -51 -17 -73t-55 -22zM328 104q-13 -63 -44.5 -90.5t-82.5 -27.5
q-84 0 -119 58t-35 196v950h154v-969q0 -52 12 -74t41 -22q30 0 42.5 26t12.5 87v952h150v-1190h-113z" />
    <glyph glyph-name="yacute" unicode="&#xfd;" 
d="M287 1487h153l-149 -232h-113zM47 -252v150h51q39 0 54.5 14t19.5 61l8 62l-170 1155h152l74 -625l16 -334l10 334l49 625h148l-133 -1245q-12 -117 -55 -157t-158 -40h-66z" />
    <glyph glyph-name="thorn" unicode="&#xfe;" horiz-adv-x="514" 
d="M307 -16q-82 0 -106 86v-424h-150v1882h150v-416q24 90 112 90q86 0 120 -58.5t34 -223.5v-635q0 -116 -16 -185q-17 -64 -50.5 -90t-93.5 -26zM256 129q35 0 48 26.5t13 98.5v684q0 75 -13 103t-44 28q-59 0 -59 -121v-708q0 -55 12 -83t43 -28z" />
    <glyph glyph-name="ydieresis" unicode="&#xff;" 
d="M139 1251q-39 0 -55 20.5t-16 74.5t16.5 76t54.5 22q41 0 56.5 -21t15.5 -77q0 -52 -15.5 -73.5t-56.5 -21.5zM330 1251q-43 0 -57.5 19.5t-14.5 75.5q0 55 16.5 76.5t55.5 21.5q38 0 54.5 -22t16.5 -76q0 -51 -16.5 -73t-54.5 -22zM47 -252v150h51q39 0 54.5 14t19.5 61
l8 62l-170 1155h152l74 -625l16 -334l10 334l49 625h148l-133 -1245q-12 -117 -55 -157t-158 -40h-66z" />
    <glyph glyph-name="Amacron" unicode="&#x100;" 
d="M90 1686h270v-134h-270v134zM297 182h-127l-14 -182h-148l144 1468h157l154 -1468h-152zM180 322h107l-43 536l-13 332l-12 -332z" />
    <glyph glyph-name="amacron" unicode="&#x101;" horiz-adv-x="503" 
d="M117 1411h270v-133h-270v133zM328 119q-23 -133 -138 -133q-84 0 -116.5 51.5t-32.5 185.5v199q0 67 9 104t34 66q18 21 45.5 33.5t77.5 29.5q63 20 83.5 42t20.5 83v203q0 48 -11.5 67t-43.5 19q-31 0 -44 -19.5t-13 -68.5v-260h-146v276q0 207 201 207q203 0 203 -207
v-997h-111zM248 125q63 0 63 100v373q-13 -24 -51 -37q-33 -15 -49 -35q-16 -29 -16 -96v-211q0 -51 12 -72.5t41 -21.5z" />
    <glyph glyph-name="Abreve" unicode="&#x102;" 
d="M231 1534q-99 0 -135.5 49t-36.5 172h111q0 -67 12 -89t49 -24q36 0 49 23.5t13 89.5h110q0 -121 -38.5 -171t-133.5 -50zM297 182h-127l-14 -182h-148l144 1468h157l154 -1468h-152zM180 322h107l-43 536l-13 332l-12 -332z" />
    <glyph glyph-name="abreve" unicode="&#x103;" horiz-adv-x="503" 
d="M254 1262q-99 0 -135.5 49t-36.5 172h111q0 -67 12 -89t49 -24q35 0 48 23.5t13 89.5h111q0 -121 -38.5 -171t-133.5 -50zM328 119q-23 -133 -138 -133q-84 0 -116.5 51.5t-32.5 185.5v199q0 67 9 104t34 66q18 21 45.5 33.5t77.5 29.5q63 20 83.5 42t20.5 83v203
q0 48 -11.5 67t-43.5 19q-31 0 -44 -19.5t-13 -68.5v-260h-146v276q0 207 201 207q203 0 203 -207v-997h-111zM248 125q63 0 63 100v373q-13 -24 -51 -37q-33 -15 -49 -35q-16 -29 -16 -96v-211q0 -51 12 -72.5t41 -21.5z" />
    <glyph glyph-name="Aogonek" unicode="&#x104;" 
d="M557 -129q-10 -90 -54 -131t-122 -41q-158 0 -158 141q0 87 88 166l-14 176h-127l-14 -182h-148l144 1468h157l154 -1468q-74 -65 -97.5 -95.5t-23.5 -54.5q0 -40 43 -40q44 0 47 61h125zM180 322h107l-43 536l-13 332l-12 -332z" />
    <glyph glyph-name="aogonek" unicode="&#x105;" horiz-adv-x="503" 
d="M551 -129q-10 -90 -54 -131t-122 -41q-158 0 -158 141q0 49 27.5 94.5t95.5 102.5l-12 82q-23 -133 -138 -133q-84 0 -116.5 51.5t-32.5 185.5v199q0 67 9 104t34 66q18 21 45.5 33.5t77.5 29.5q63 20 83.5 42t20.5 83v203q0 48 -11.5 67t-43.5 19q-31 0 -44 -19.5
t-13 -68.5v-260h-146v276q0 207 201 207q203 0 203 -207v-997q-74 -65 -97.5 -95.5t-23.5 -54.5q0 -40 43 -40q44 0 47 61h125zM248 125q63 0 63 100v373q-13 -24 -51 -37q-33 -15 -49 -35q-16 -29 -16 -96v-211q0 -51 12 -72.5t41 -21.5z" />
    <glyph glyph-name="Cacute" unicode="&#x106;" horiz-adv-x="518" 
d="M317 1784h154l-149 -232h-113zM264 -16q-110 0 -162.5 51.5t-52.5 165.5v1073q0 209 217 209q103 0 155.5 -49.5t53.5 -155.5v-393h-151v377q-2 44 -15.5 64t-44.5 20q-57 0 -57 -86v-1041q0 -45 12.5 -65.5t44.5 -20.5q34 0 46 19t14 65v416h151v-434q0 -112 -53 -163.5
t-158 -51.5z" />
    <glyph glyph-name="cacute" unicode="&#x107;" horiz-adv-x="505" 
d="M307 1493h154l-150 -231h-112zM256 -16q-209 0 -209 217v788q0 108 54 161.5t155 53.5q205 0 205 -211v-311h-150v301q0 46 -12 65t-43 19q-57 0 -57 -86v-770q0 -86 57 -86q55 0 55 84v342h150v-352q0 -215 -205 -215z" />
    <glyph glyph-name="Ccircumflex" unicode="&#x108;" horiz-adv-x="518" 
d="M268 1677l-57 -129h-115l121 248h102l121 -248h-118zM264 -16q-110 0 -162.5 51.5t-52.5 165.5v1073q0 209 217 209q103 0 155.5 -49.5t53.5 -155.5v-393h-151v377q-2 44 -15.5 64t-44.5 20q-57 0 -57 -86v-1041q0 -45 12.5 -65.5t44.5 -20.5q34 0 46 19t14 65v416h151
v-434q0 -112 -53 -163.5t-158 -51.5z" />
    <glyph glyph-name="ccircumflex" unicode="&#x109;" horiz-adv-x="505" 
d="M258 1391l-57 -129h-115l121 247h102l121 -247h-119zM256 -16q-209 0 -209 217v788q0 108 54 161.5t155 53.5q205 0 205 -211v-311h-150v301q0 46 -12 65t-43 19q-57 0 -57 -86v-770q0 -86 57 -86q55 0 55 84v342h150v-352q0 -215 -205 -215z" />
    <glyph glyph-name="Cdotaccent" unicode="&#x10a;" horiz-adv-x="518" 
d="M266 1552q-50 0 -68 21.5t-18 85.5q0 62 20 85t66 23t65 -22.5t19 -85.5q0 -62 -19 -84.5t-65 -22.5zM264 -16q-110 0 -162.5 51.5t-52.5 165.5v1073q0 209 217 209q103 0 155.5 -49.5t53.5 -155.5v-393h-151v377q-2 44 -15.5 64t-44.5 20q-57 0 -57 -86v-1041
q0 -45 12.5 -65.5t44.5 -20.5q34 0 46 19t14 65v416h151v-434q0 -112 -53 -163.5t-158 -51.5z" />
    <glyph glyph-name="cdotaccent" unicode="&#x10b;" horiz-adv-x="505" 
d="M256 1262q-50 0 -68 21t-18 85q0 62 20 85.5t66 23.5t65 -23t19 -86q0 -62 -19 -84t-65 -22zM256 -16q-209 0 -209 217v788q0 108 54 161.5t155 53.5q205 0 205 -211v-311h-150v301q0 46 -12 65t-43 19q-57 0 -57 -86v-770q0 -86 57 -86q55 0 55 84v342h150v-352
q0 -215 -205 -215z" />
    <glyph glyph-name="Ccaron" unicode="&#x10c;" horiz-adv-x="518" 
d="M215 1552l-121 248h119l53 -123l58 123h112l-121 -248h-100zM264 -16q-110 0 -162.5 51.5t-52.5 165.5v1073q0 209 217 209q103 0 155.5 -49.5t53.5 -155.5v-393h-151v377q-2 44 -15.5 64t-44.5 20q-57 0 -57 -86v-1041q0 -45 12.5 -65.5t44.5 -20.5q34 0 46 19t14 65
v416h151v-434q0 -112 -53 -163.5t-158 -51.5z" />
    <glyph glyph-name="ccaron" unicode="&#x10d;" horiz-adv-x="505" 
d="M205 1262l-121 247h119l53 -123l57 123h113l-121 -247h-100zM256 -16q-209 0 -209 217v788q0 108 54 161.5t155 53.5q205 0 205 -211v-311h-150v301q0 46 -12 65t-43 19q-57 0 -57 -86v-770q0 -86 57 -86q55 0 55 84v342h150v-352q0 -215 -205 -215z" />
    <glyph glyph-name="Dcaron" unicode="&#x10e;" horiz-adv-x="534" 
d="M215 1538l-121 248h119l53 -123l58 123h112l-121 -248h-100zM53 1468h205q116 0 171.5 -48.5t55.5 -166.5v-1038q0 -116 -59.5 -165.5t-175.5 -49.5h-197v1468zM207 1335v-1196h39q84 0 84 88v1024q0 46 -20.5 65t-63.5 19h-39z" />
    <glyph glyph-name="dcaron" unicode="&#x10f;" horiz-adv-x="516" 
d="M563 1561h129l-82 -240h-96zM334 111q-13 -62 -43 -94.5t-86 -32.5q-86 0 -122 60t-36 224v668q0 145 36.5 205.5t117.5 60.5q49 0 76 -23t40 -81v426h150v-1524h-115zM256 125q36 0 48.5 27.5t12.5 83.5v727q0 53 -12.5 79.5t-48.5 26.5q-35 0 -46 -25.5t-11 -99.5v-684
q0 -81 12.5 -108t44.5 -27z" />
    <glyph glyph-name="Dcroat" unicode="&#x110;" horiz-adv-x="544" 
d="M61 0v666h-53v151h53v651h205q119 0 174.5 -48t55.5 -167v-1038q0 -117 -59.5 -166t-178.5 -49h-197zM217 666v-527h39q82 0 82 88v1024q0 46 -19.5 65t-62.5 19h-39v-518h64v-151h-64z" />
    <glyph glyph-name="dcroat" unicode="&#x111;" horiz-adv-x="516" 
d="M332 111q-13 -62 -43 -94.5t-86 -32.5q-86 0 -122 60t-36 224v668q0 145 36.5 205.5t117.5 60.5q49 0 76 -23t40 -81v194h-82v129h82v103h150v-103h51v-129h-51v-1292h-115zM254 125q36 0 48.5 27.5t12.5 83.5v727q0 53 -12.5 79.5t-48.5 26.5q-35 0 -46 -25.5t-11 -99.5
v-684q0 -81 12.5 -108t44.5 -27z" />
    <glyph glyph-name="Emacron" unicode="&#x112;" horiz-adv-x="397" 
d="M78 1686h270v-134h-270v134zM371 0h-318v1468h314v-149h-162v-496h151v-151h-151v-520h166v-152z" />
    <glyph glyph-name="emacron" unicode="&#x113;" horiz-adv-x="505" 
d="M117 1407h270v-133h-270v133zM463 199q0 -112 -52.5 -163.5t-156.5 -51.5q-207 0 -207 219v786q0 108 54.5 161.5t152.5 53.5q209 0 209 -215v-426h-268v-350q0 -45 13.5 -66.5t45.5 -21.5q31 0 44 20t13 64v268h152v-278zM195 688h118v293q0 49 -13.5 68.5t-45.5 19.5
q-33 0 -46 -19.5t-13 -68.5v-293z" />
    <glyph glyph-name="Ebreve" unicode="&#x114;" horiz-adv-x="397" 
d="M215 1536q-99 0 -135.5 49t-36.5 172h111q0 -67 12 -88.5t49 -23.5q35 0 48 23t13 89h111q0 -121 -38.5 -171t-133.5 -50zM371 0h-318v1468h314v-149h-162v-496h151v-151h-151v-520h166v-152z" />
    <glyph glyph-name="ebreve" unicode="&#x115;" horiz-adv-x="505" 
d="M254 1257q-99 0 -135.5 49.5t-36.5 172.5h111q0 -67 12 -89t49 -24q35 0 48 23.5t13 89.5h111q0 -121 -38.5 -171.5t-133.5 -50.5zM463 199q0 -112 -52.5 -163.5t-156.5 -51.5q-207 0 -207 219v786q0 108 54.5 161.5t152.5 53.5q209 0 209 -215v-426h-268v-350
q0 -45 13.5 -66.5t45.5 -21.5q31 0 44 20t13 64v268h152v-278zM195 688h118v293q0 49 -13.5 68.5t-45.5 19.5q-33 0 -46 -19.5t-13 -68.5v-293z" />
    <glyph glyph-name="Edotaccent" unicode="&#x116;" horiz-adv-x="397" 
d="M215 1538q-50 0 -68 21.5t-18 85.5q0 62 20 85t66 23t65 -22.5t19 -85.5q0 -62 -19 -84.5t-65 -22.5zM371 0h-318v1468h314v-149h-162v-496h151v-151h-151v-520h166v-152z" />
    <glyph glyph-name="edotaccent" unicode="&#x117;" horiz-adv-x="505" 
d="M252 1260q-50 0 -68 21t-18 85q0 62 20 85.5t66 23.5t65 -23t19 -86q0 -62 -19 -84t-65 -22zM463 199q0 -112 -52.5 -163.5t-156.5 -51.5q-207 0 -207 219v786q0 108 54.5 161.5t152.5 53.5q209 0 209 -215v-426h-268v-350q0 -45 13.5 -66.5t45.5 -21.5q31 0 44 20t13 64
v268h152v-278zM195 688h118v293q0 49 -13.5 68.5t-45.5 19.5q-33 0 -46 -19.5t-13 -68.5v-293z" />
    <glyph glyph-name="Eogonek" unicode="&#x118;" horiz-adv-x="397" 
d="M291 -301q-158 0 -158 141q0 81 82 160h-162v1468h314v-149h-162v-496h151v-151h-151v-520h166v-150l2 -2q-74 -65 -97.5 -95.5t-23.5 -54.5q0 -40 43 -40q44 0 47 61h125q-10 -90 -54 -131t-122 -41z" />
    <glyph glyph-name="eogonek" unicode="&#x119;" horiz-adv-x="505" 
d="M309 -279q-157 0 -157 142q0 65 49 125q-154 25 -154 215v786q0 108 54.5 161.5t152.5 53.5q209 0 209 -215v-426h-268v-350q0 -45 13.5 -66.5t45.5 -21.5q31 0 44 20t13 64v268h152v-278q0 -137 -80 -185q-70 -63 -91.5 -90t-21.5 -51q0 -41 43 -41q44 0 47 62h125
q-10 -90 -54 -131.5t-122 -41.5zM195 688h118v293q0 49 -13.5 68.5t-45.5 19.5q-33 0 -46 -19.5t-13 -68.5v-293z" />
    <glyph glyph-name="Ecaron" unicode="&#x11a;" horiz-adv-x="397" 
d="M164 1538l-121 248h119l53 -123l57 123h113l-121 -248h-100zM371 0h-318v1468h314v-149h-162v-496h151v-151h-151v-520h166v-152z" />
    <glyph glyph-name="ecaron" unicode="&#x11b;" horiz-adv-x="505" 
d="M201 1260l-121 247h119l53 -123l57 123h113l-121 -247h-100zM463 199q0 -112 -52.5 -163.5t-156.5 -51.5q-207 0 -207 219v786q0 108 54.5 161.5t152.5 53.5q209 0 209 -215v-426h-268v-350q0 -45 13.5 -66.5t45.5 -21.5q31 0 44 20t13 64v268h152v-278zM195 688h118v293
q0 49 -13.5 68.5t-45.5 19.5q-33 0 -46 -19.5t-13 -68.5v-293z" />
    <glyph glyph-name="Gcircumflex" unicode="&#x11c;" horiz-adv-x="528" 
d="M268 1679l-57 -129h-115l121 248h102l121 -248h-118zM362 160q-7 -97 -42.5 -136.5t-100.5 -39.5q-170 0 -170 209v1081q0 209 217 209t217 -209v-363h-157v349q0 86 -60 86q-61 0 -61 -86v-1037q0 -90 65 -90q37 0 52.5 33.5t15.5 101.5v326h-68v168h211v-762h-88z" />
    <glyph glyph-name="gcircumflex" unicode="&#x11d;" horiz-adv-x="503" 
d="M254 1487l-57 -129h-115l121 248h102l121 -248h-119zM236 -289q-218 0 -218 137q0 42 30.5 78t78.5 54q-94 24 -94 120q0 88 100 123q-88 28 -88 146v643q0 147 125 182q13 0 37 8q64 11 85 23t21 41v45h144v-21q0 -57 -26 -75t-97 -23q125 -26 125 -184v-641
q0 -94 -54 -141.5t-149 -47.5h-14q-80 0 -80 -43q0 -21 19.5 -30t68.5 -9h55q106 0 153.5 -42t47.5 -124v-10q0 -89 -74 -149t-194 -60h-2zM252 309q59 0 59 66v631q-1 35 -15.5 51t-43.5 16q-12 0 -14 -2q-43 -10 -43 -65v-631q0 -66 57 -66zM250 -164q45 0 76.5 22
t31.5 54v8q0 49 -88 49h-14q-38 0 -66 -19t-28 -50v-9q0 -24 22.5 -39.5t59.5 -15.5h6z" />
    <glyph glyph-name="Gbreve" unicode="&#x11e;" horiz-adv-x="528" 
d="M268 1550q-99 0 -135.5 49.5t-36.5 172.5h111q0 -67 12 -89t49 -24q36 0 49 23.5t13 89.5h110q0 -121 -38.5 -171.5t-133.5 -50.5zM362 160q-7 -97 -42.5 -136.5t-100.5 -39.5q-170 0 -170 209v1081q0 209 217 209t217 -209v-363h-157v349q0 86 -60 86q-61 0 -61 -86
v-1037q0 -90 65 -90q37 0 52.5 33.5t15.5 101.5v326h-68v168h211v-762h-88z" />
    <glyph glyph-name="gbreve" unicode="&#x11f;" horiz-adv-x="503" 
d="M238 1341q-99 0 -135.5 49.5t-36.5 172.5h110q0 -67 12.5 -89t49.5 -24q35 0 48 23.5t13 89.5h111q0 -121 -38.5 -171.5t-133.5 -50.5zM236 -289q-218 0 -218 137q0 42 30.5 78t78.5 54q-94 24 -94 120q0 88 100 123q-88 28 -88 146v643q0 147 125 182q13 0 37 8
q64 11 85 23t21 41v45h144v-21q0 -57 -26 -75t-97 -23q125 -26 125 -184v-641q0 -94 -54 -141.5t-149 -47.5h-14q-80 0 -80 -43q0 -21 19.5 -30t68.5 -9h55q106 0 153.5 -42t47.5 -124v-10q0 -89 -74 -149t-194 -60h-2zM252 309q59 0 59 66v631q-1 35 -15.5 51t-43.5 16
q-12 0 -14 -2q-43 -10 -43 -65v-631q0 -66 57 -66zM250 -164q45 0 76.5 22t31.5 54v8q0 49 -88 49h-14q-38 0 -66 -19t-28 -50v-9q0 -24 22.5 -39.5t59.5 -15.5h6z" />
    <glyph glyph-name="Gdotaccent" unicode="&#x120;" horiz-adv-x="528" 
d="M264 1552q-50 0 -68 21.5t-18 85.5q0 62 20 85t66 23t65 -22.5t19 -85.5q0 -62 -19 -84.5t-65 -22.5zM362 160q-7 -97 -42.5 -136.5t-100.5 -39.5q-170 0 -170 209v1081q0 209 217 209t217 -209v-363h-157v349q0 86 -60 86q-61 0 -61 -86v-1037q0 -90 65 -90
q37 0 52.5 33.5t15.5 101.5v326h-68v168h211v-762h-88z" />
    <glyph glyph-name="gdotaccent" unicode="&#x121;" horiz-adv-x="503" 
d="M221 1319q-50 0 -68 21t-18 85q0 62 20 85.5t66 23.5t65 -23t19 -86q0 -62 -19 -84t-65 -22zM236 -289q-218 0 -218 137q0 42 30.5 78t78.5 54q-94 24 -94 120q0 88 100 123q-88 28 -88 146v643q0 147 125 182q13 0 37 8q64 11 85 23t21 41v45h144v-21q0 -57 -26 -75
t-97 -23q125 -26 125 -184v-641q0 -94 -54 -141.5t-149 -47.5h-14q-80 0 -80 -43q0 -21 19.5 -30t68.5 -9h55q106 0 153.5 -42t47.5 -124v-10q0 -89 -74 -149t-194 -60h-2zM252 309q59 0 59 66v631q-1 35 -15.5 51t-43.5 16q-12 0 -14 -2q-43 -10 -43 -65v-631q0 -66 57 -66
zM250 -164q45 0 76.5 22t31.5 54v8q0 49 -88 49h-14q-38 0 -66 -19t-28 -50v-9q0 -24 22.5 -39.5t59.5 -15.5h6z" />
    <glyph glyph-name="uni0122" unicode="&#x122;" horiz-adv-x="528" 
d="M362 160q-7 -97 -42.5 -136.5t-100.5 -39.5q-170 0 -170 209v1081q0 209 217 209t217 -209v-363h-157v349q0 86 -60 86q-61 0 -61 -86v-1037q0 -90 65 -90q37 0 52.5 33.5t15.5 101.5v326h-68v168h211v-762h-88zM209 -326q29 1 45 20t18 52q-2 -2 -14 -2q-35 0 -50 17.5
t-15 70.5q0 51 18.5 72.5t62.5 21.5q47 0 65.5 -27.5t18.5 -99.5q0 -200 -149 -209v84z" />
    <glyph glyph-name="uni0123" unicode="&#x123;" horiz-adv-x="503" 
d="M205 1307q-47 0 -65.5 28t-18.5 101q0 198 149 209v-84q-53 -3 -63 -72q2 2 14 2q35 0 50.5 -18t15.5 -70q0 -51 -19 -73.5t-63 -22.5zM236 -289q-218 0 -218 137q0 42 30.5 78t78.5 54q-94 24 -94 120q0 88 100 123q-88 28 -88 146v643q0 147 125 182q13 0 37 8
q64 11 85 23t21 41v45h144v-21q0 -57 -26 -75t-97 -23q125 -26 125 -184v-641q0 -94 -54 -141.5t-149 -47.5h-14q-80 0 -80 -43q0 -21 19.5 -30t68.5 -9h55q106 0 153.5 -42t47.5 -124v-10q0 -89 -74 -149t-194 -60h-2zM252 309q59 0 59 66v631q-1 35 -15.5 51t-43.5 16
q-12 0 -14 -2q-43 -10 -43 -65v-631q0 -66 57 -66zM250 -164q45 0 76.5 22t31.5 54v8q0 49 -88 49h-14q-38 0 -66 -19t-28 -50v-9q0 -24 22.5 -39.5t59.5 -15.5h6z" />
    <glyph glyph-name="Hcircumflex" unicode="&#x124;" horiz-adv-x="534" 
d="M270 1665l-57 -129h-115l121 248h103l120 -248h-118zM328 666h-121v-666h-154v1468h154v-655h121v655h155v-1468h-155v666z" />
    <glyph glyph-name="hcircumflex" unicode="&#x125;" horiz-adv-x="512" 
d="M127 1718l-57 -129h-115l121 248h102l121 -248h-119zM199 0h-148v1524h148v-428q27 106 116 106q84 0 116 -55.5t32 -196.5v-950h-152v969q0 54 -12 75t-41 21q-34 0 -46.5 -27t-12.5 -84v-954z" />
    <glyph glyph-name="Hbar" unicode="&#x126;" horiz-adv-x="552" 
d="M340 666h-121v-666h-153v1077h-58v137h58v254h153v-254h121v254h156v-254h49v-137h-49v-1077h-156v666zM340 1077h-121v-264h121v264z" />
    <glyph glyph-name="hbar" unicode="&#x127;" horiz-adv-x="512" 
d="M199 0h-148v1294h-51v129h51v101h148v-101h84v-129h-84v-198q27 106 116 106q84 0 116 -55.5t32 -196.5v-950h-152v969q0 54 -12 75t-41 21q-34 0 -46.5 -27t-12.5 -84v-954z" />
    <glyph glyph-name="Itilde" unicode="&#x128;" horiz-adv-x="356" 
d="M-16 1540q0 128 23 174.5t87 46.5q44 0 66 -22q13 -10 30.5 -28t29.5 -28t22 -10q17 0 22.5 16t5.5 66h103q0 -122 -25 -170.5t-86 -48.5q-42 0 -65 23q-9 8 -23.5 22.5t-23 22t-19.5 14t-20 6.5q-14 0 -19.5 -18.5t-5.5 -65.5h-102zM20 0v145h82v1178h-82v145h316v-145
h-82v-1178h82v-145h-316z" />
    <glyph glyph-name="itilde" unicode="&#x129;" horiz-adv-x="251" 
d="M-63 1264q0 128 23 174.5t87 46.5q43 0 66 -23q13 -10 30.5 -28t29.5 -27.5t22 -9.5q17 0 22.5 16t5.5 66h103q0 -122 -25 -170.5t-86 -48.5q-43 0 -65 22q-9 8 -24 22.5t-23 22.5t-19.5 14.5t-20.5 6.5q-13 0 -18.5 -18.5t-5.5 -65.5h-102zM51 0v1190h152v-1190h-152z
" />
    <glyph glyph-name="Imacron" unicode="&#x12a;" horiz-adv-x="356" 
d="M39 1686h270v-134h-270v134zM20 0v145h82v1178h-82v145h316v-145h-82v-1178h82v-145h-316z" />
    <glyph glyph-name="imacron" unicode="&#x12b;" horiz-adv-x="251" 
d="M-10 1407h270v-133h-270v133zM51 0v1190h152v-1190h-152z" />
    <glyph glyph-name="Ibreve" unicode="&#x12c;" horiz-adv-x="356" 
d="M176 1536q-99 0 -135.5 49t-36.5 172h111q0 -67 12 -88.5t49 -23.5q36 0 49 23.5t13 88.5h110q0 -121 -38.5 -171t-133.5 -50zM20 0v145h82v1178h-82v145h316v-145h-82v-1178h82v-145h-316z" />
    <glyph glyph-name="ibreve" unicode="&#x12d;" horiz-adv-x="251" 
d="M127 1257q-99 0 -135.5 49.5t-36.5 172.5h111q0 -67 12 -89t49 -24q35 0 48 23.5t13 89.5h111q0 -121 -38.5 -171.5t-133.5 -50.5zM51 0v1190h152v-1190h-152z" />
    <glyph glyph-name="Iogonek" unicode="&#x12e;" horiz-adv-x="356" 
d="M256 -301q-158 0 -158 141q0 81 82 160h-160v145h82v1178h-82v145h316v-145h-82v-1178h82v-143l2 -2q-74 -65 -97.5 -95.5t-23.5 -54.5q0 -40 43 -40q44 0 47 61h125q-10 -90 -54 -131t-122 -41z" />
    <glyph glyph-name="iogonek" unicode="&#x12f;" horiz-adv-x="251" 
d="M127 1237q-51 0 -67.5 23t-16.5 96t15.5 95t68.5 22t68.5 -22t15.5 -95q0 -71 -18 -95t-66 -24zM297 -129q-10 -90 -54 -131t-122 -41q-158 0 -158 141q0 87 88 166v1188q20 -20 76 -20t76 20v-1194q-74 -65 -97.5 -95.5t-23.5 -54.5q0 -40 43 -40q44 0 47 61h125z" />
    <glyph glyph-name="Idotaccent" unicode="&#x130;" horiz-adv-x="356" 
d="M174 1538q-50 0 -68 21.5t-18 85.5q0 62 20 85t66 23t65 -22.5t19 -85.5q0 -62 -19 -84.5t-65 -22.5zM20 0v145h82v1178h-82v145h316v-145h-82v-1178h82v-145h-316z" />
    <glyph glyph-name="dotlessi" unicode="&#x131;" horiz-adv-x="251" 
d="M51 0v1190h152v-1190h-152z" />
    <glyph glyph-name="IJ" unicode="&#x132;" horiz-adv-x="661" 
d="M377 145h24q35 0 44.5 13t9.5 57v1255h155v-1263q0 -115 -42.5 -161t-147.5 -46h-43v145zM20 0v145h82v1178h-82v145h316v-145h-82v-1178h72v-145h-306z" />
    <glyph glyph-name="ij" unicode="&#x133;" horiz-adv-x="507" 
d="M127 1237q-51 0 -67.5 23t-16.5 96t15.5 95t68.5 22t68.5 -22t15.5 -95q0 -71 -18 -95t-66 -24zM381 1237q-50 0 -66 23t-16 96q0 72 15.5 94.5t66.5 22.5q53 0 68.5 -22t15.5 -95q0 -71 -18 -95t-66 -24zM51 1194q20 -20 76 -20t76 20v-1194h-152v1194zM51 -102h207
q29 0 38 12t9 45v1239q23 -23 76 -23t76 23v-1255q0 -115 -38 -155t-143 -40h-225v154z" />
    <glyph glyph-name="Jcircumflex" unicode="&#x134;" horiz-adv-x="505" 
d="M381 1667l-57 -129h-115l121 248h102l121 -248h-119zM248 -16q-108 0 -157.5 51.5t-49.5 165.5v413h154v-397q0 -44 11 -64t42 -20t41 19t10 65v1251h158v-1265q0 -114 -51.5 -166.5t-157.5 -52.5z" />
    <glyph glyph-name="jcircumflex" unicode="&#x135;" horiz-adv-x="256" 
d="M129 1389l-57 -129h-115l121 247h102l121 -247h-119zM-51 -141h57q28 0 37.5 12.5t9.5 46.5v1272h152v-1290q0 -114 -37.5 -153.5t-142.5 -39.5h-76v152z" />
    <glyph glyph-name="uni0136" unicode="&#x136;" horiz-adv-x="516" 
d="M242 745l-41 -157v-588h-148v1468h148v-489l-27 -272l53 254l138 507h143l-160 -591l170 -877h-151l-123 696zM217 -309q29 1 45.5 20t18.5 51q-2 -2 -15 -2q-35 0 -50 17.5t-15 70.5q0 51 19 73t63 22q47 0 65.5 -27.5t18.5 -99.5q0 -200 -150 -209v84z" />
    <glyph glyph-name="uni0137" unicode="&#x137;" horiz-adv-x="495" 
d="M250 649l-51 -180v-469h-148v1524h148v-705l-17 -221l43 201l117 391h150l-136 -436l144 -754h-152l-92 528zM209 -307q60 3 63 71q-2 -2 -14 -2q-35 0 -50 17.5t-15 70.5q0 51 18.5 73t62.5 22q47 0 65.5 -27.5t18.5 -99.5q0 -200 -149 -209v84z" />
    <glyph glyph-name="kgreenlandic" unicode="&#x138;" horiz-adv-x="495" 
d="M250 649l-51 -180v-469h-148v1190h148v-371l-17 -221l43 201l117 391h150l-136 -436l144 -754h-152l-92 528z" />
    <glyph glyph-name="Lacute" unicode="&#x139;" horiz-adv-x="411" 
d="M180 1769h154l-150 -231h-112zM53 0v1468h156v-1312h182v-156h-338z" />
    <glyph glyph-name="lacute" unicode="&#x13a;" horiz-adv-x="249" 
d="M176 1825h154l-150 -232h-112zM51 0v1524h150v-1524h-150z" />
    <glyph glyph-name="uni013B" unicode="&#x13b;" horiz-adv-x="411" 
d="M53 0v1468h156v-1312h182v-156h-338zM162 -311q60 3 63 71q-2 -2 -14 -2q-35 0 -50.5 18t-15.5 70q0 51 19 73t63 22q47 0 65.5 -27.5t18.5 -99.5q0 -200 -149 -209v84z" />
    <glyph glyph-name="uni013C" unicode="&#x13c;" horiz-adv-x="249" 
d="M51 0v1524h150v-1524h-150zM61 -311q29 1 45.5 20t18.5 51q-2 -2 -14 -2q-35 0 -50.5 18t-15.5 70q0 51 19 73t63 22q47 0 65.5 -27.5t18.5 -99.5q0 -200 -150 -209v84z" />
    <glyph glyph-name="Lcaron" unicode="&#x13d;" horiz-adv-x="411" 
d="M315 1577h129l-82 -240h-96zM53 0v1468h156v-1312h182v-156h-338z" />
    <glyph glyph-name="lcaron" unicode="&#x13e;" horiz-adv-x="249" 
d="M297 1561h129l-82 -240h-96zM51 0v1524h150v-1524h-150z" />
    <glyph glyph-name="Ldot" unicode="&#x13f;" horiz-adv-x="436" 
d="M53 0v1468h156v-1312h207v-156h-363zM342 557q-50 0 -68 21.5t-18 85.5q0 62 20 85t66 23t65 -22.5t19 -85.5q0 -62 -19 -84.5t-65 -22.5z" />
    <glyph glyph-name="ldot" unicode="&#x140;" horiz-adv-x="423" 
d="M51 0v1524h150v-1524h-150zM338 459q-50 0 -68 21t-18 85q0 62 20 85.5t66 23.5t65 -23t19 -86q0 -62 -19 -84t-65 -22z" />
    <glyph glyph-name="Lslash" unicode="&#x141;" horiz-adv-x="421" 
d="M63 0v645l-51 -10l-24 145l75 17v671h156v-639l86 19l23 -146l-109 -22v-524h182v-156h-338z" />
    <glyph glyph-name="lslash" unicode="&#x142;" horiz-adv-x="290" 
d="M72 0v551l-58 -16l-32 118l90 27v844h149v-799l64 18l30 -118l-94 -29v-596h-149z" />
    <glyph glyph-name="Nacute" unicode="&#x143;" horiz-adv-x="546" 
d="M317 1765h154l-149 -231h-113zM188 0h-135v1468h119l172 -827l39 -219l-25 313v733h138v-1468h-117l-176 834l-39 215l24 -301v-748z" />
    <glyph glyph-name="nacute" unicode="&#x144;" horiz-adv-x="512" 
d="M322 1491h153l-149 -231h-113zM201 0h-150v1190h113l16 -105q17 63 49 91t84 28q84 0 118 -56.5t34 -195.5v-952h-152v971q0 54 -11.5 75t-41.5 21q-31 0 -45 -26.5t-14 -86.5v-954z" />
    <glyph glyph-name="uni0145" unicode="&#x145;" horiz-adv-x="546" 
d="M188 0h-135v1468h119l172 -827l39 -219l-25 313v733h138v-1468h-117l-176 834l-39 215l24 -301v-748zM217 -307q29 1 45.5 20t18.5 51q-2 -2 -15 -2q-35 0 -50 17.5t-15 70.5q0 51 19 73t63 22q47 0 65.5 -27.5t18.5 -99.5q0 -200 -150 -209v84z" />
    <glyph glyph-name="uni0146" unicode="&#x146;" horiz-adv-x="512" 
d="M201 0h-150v1190h113l16 -105q17 63 49 91t84 28q84 0 118 -56.5t34 -195.5v-952h-152v971q0 54 -11.5 75t-41.5 21q-31 0 -45 -26.5t-14 -86.5v-954zM195 -309q60 3 63 71q-2 -2 -14 -2q-35 0 -50.5 18t-15.5 70q0 51 19 73t63 22q47 0 65.5 -27.5t18.5 -99.5
q0 -200 -149 -209v84z" />
    <glyph glyph-name="Ncaron" unicode="&#x147;" horiz-adv-x="546" 
d="M213 1534l-121 248h119l53 -123l58 123h112l-121 -248h-100zM188 0h-135v1468h119l172 -827l39 -219l-25 313v733h138v-1468h-117l-176 834l-39 215l24 -301v-748z" />
    <glyph glyph-name="ncaron" unicode="&#x148;" horiz-adv-x="512" 
d="M217 1260l-121 247h119l53 -123l58 123h112l-121 -247h-100zM201 0h-150v1190h113l16 -105q17 63 49 91t84 28q84 0 118 -56.5t34 -195.5v-952h-152v971q0 54 -11.5 75t-41.5 21q-31 0 -45 -26.5t-14 -86.5v-954z" />
    <glyph glyph-name="Eng" unicode="&#x14a;" horiz-adv-x="546" 
d="M254 -289v148h55q31 0 43.5 13t12.5 48v148l-162 766l-39 215l24 -301v-748h-135v1468h119l172 -827l39 -219l-25 313v733h138v-1568q0 -111 -34 -150t-134 -39h-74z" />
    <glyph glyph-name="eng" unicode="&#x14b;" horiz-adv-x="512" 
d="M211 -289v148h55q28 0 37.5 13.5t9.5 47.5v1049q0 54 -11.5 75t-41.5 21q-59 0 -59 -111v-954h-150v1190h113l18 -107q25 119 131 119q85 0 118.5 -56t33.5 -196v-1050q0 -110 -36.5 -149.5t-137.5 -39.5h-80z" />
    <glyph glyph-name="Omacron" unicode="&#x14c;" horiz-adv-x="536" 
d="M133 1700h270v-133h-270v133zM268 -16q-103 0 -161 52.5t-58 162.5v1073q0 102 59 156.5t162 54.5q104 0 160.5 -54t56.5 -157v-1073q0 -215 -219 -215zM270 133q62 0 62 86v1043q0 84 -64 84q-61 0 -61 -84v-1043q0 -44 14.5 -65t48.5 -21z" />
    <glyph glyph-name="omacron" unicode="&#x14d;" horiz-adv-x="512" 
d="M119 1411h270v-133h-270v133zM256 -16q-105 0 -157 51t-52 168v784q0 217 209 217t209 -217v-784q0 -116 -54 -167.5t-155 -51.5zM256 125q57 0 57 86v770q0 47 -13 66.5t-44 19.5t-44 -19.5t-13 -66.5v-770q0 -46 13.5 -66t43.5 -20z" />
    <glyph glyph-name="Obreve" unicode="&#x14e;" horiz-adv-x="536" 
d="M270 1550q-99 0 -135.5 49.5t-36.5 172.5h111q0 -67 12 -89t49 -24q36 0 49 23.5t13 89.5h110q0 -121 -38.5 -171.5t-133.5 -50.5zM268 -16q-103 0 -161 52.5t-58 162.5v1073q0 102 59 156.5t162 54.5q104 0 160.5 -54t56.5 -157v-1073q0 -215 -219 -215zM270 133
q62 0 62 86v1043q0 84 -64 84q-61 0 -61 -84v-1043q0 -44 14.5 -65t48.5 -21z" />
    <glyph glyph-name="obreve" unicode="&#x14f;" horiz-adv-x="512" 
d="M256 1262q-99 0 -135.5 49t-36.5 172h111q0 -67 12 -89t49 -24q35 0 48 23.5t13 89.5h111q0 -121 -38.5 -171t-133.5 -50zM256 -16q-105 0 -157 51t-52 168v784q0 217 209 217t209 -217v-784q0 -116 -54 -167.5t-155 -51.5zM256 125q57 0 57 86v770q0 47 -13 66.5
t-44 19.5t-44 -19.5t-13 -66.5v-770q0 -46 13.5 -66t43.5 -20z" />
    <glyph glyph-name="Ohungarumlaut" unicode="&#x150;" horiz-adv-x="536" 
d="M225 1552h-90l64 232h129zM385 1552h-92l80 232h135zM268 -16q-103 0 -161 52.5t-58 162.5v1073q0 102 59 156.5t162 54.5q104 0 160.5 -54t56.5 -157v-1073q0 -215 -219 -215zM270 133q62 0 62 86v1043q0 84 -64 84q-61 0 -61 -84v-1043q0 -44 14.5 -65t48.5 -21z" />
    <glyph glyph-name="ohungarumlaut" unicode="&#x151;" horiz-adv-x="512" 
d="M215 1264h-90l63 231h129zM375 1264h-92l79 231h136zM256 -16q-105 0 -157 51t-52 168v784q0 217 209 217t209 -217v-784q0 -116 -54 -167.5t-155 -51.5zM256 125q57 0 57 86v770q0 47 -13 66.5t-44 19.5t-44 -19.5t-13 -66.5v-770q0 -46 13.5 -66t43.5 -20z" />
    <glyph glyph-name="OE" unicode="&#x152;" horiz-adv-x="681" 
d="M338 78q-11 -45 -38 -68.5t-79 -23.5q-90 0 -131 51t-41 164v1071q0 211 168 211q54 0 82.5 -20.5t38.5 -67.5v73h313v-151h-162v-504h154v-151h-154v-508h168v-154h-319v78zM270 135q62 0 62 86v1043q0 82 -64 82q-61 0 -61 -82v-1043q0 -44 14.5 -65t48.5 -21z" />
    <glyph glyph-name="oe" unicode="&#x153;" horiz-adv-x="770" 
d="M727 199q0 -215 -197 -215q-103 0 -143 65q-43 -65 -145 -65q-195 0 -195 219v784q0 107 52 162t149 55q101 0 141 -61q40 61 143 61q195 0 195 -215v-426h-268v-350q0 -45 13.5 -66.5t45.5 -21.5q31 0 44 20t13 64v272h152v-282zM459 688h119v291q0 92 -60 92
q-33 0 -46 -20t-13 -72v-291zM256 125q57 0 57 86v770q0 86 -57 86q-30 0 -43.5 -20t-13.5 -66v-770q0 -86 57 -86z" />
    <glyph glyph-name="Racute" unicode="&#x154;" horiz-adv-x="516" 
d="M295 1769h154l-150 -231h-113zM203 629v-629h-150v1468h201q119 0 167 -43t48 -145v-418q0 -122 -80 -155q84 -27 84 -154v-463q0 -56 27 -90h-160q-21 21 -21 88v453q0 48 -15.5 68t-57.5 20h-43zM203 1337v-563h41q78 0 78 80v408q0 43 -17.5 59t-64.5 16h-37z" />
    <glyph glyph-name="racute" unicode="&#x155;" horiz-adv-x="350" 
d="M229 1483h154l-150 -232h-112zM51 0v1190h113l33 -152q5 84 33.5 121t101.5 37h10v-197h-41q-59 0 -78.5 -31t-19.5 -108v-860h-152z" />
    <glyph glyph-name="uni0156" unicode="&#x156;" horiz-adv-x="516" 
d="M203 629v-629h-150v1468h201q119 0 167 -43t48 -145v-418q0 -122 -80 -155q84 -27 84 -154v-463q0 -56 27 -90h-160q-21 21 -21 88v453q0 48 -15.5 68t-57.5 20h-43zM203 1337v-563h41q78 0 78 80v408q0 43 -17.5 59t-64.5 16h-37zM203 -309q60 3 63 71q-2 -2 -14 -2
q-35 0 -50.5 18t-15.5 70q0 51 19 73t63 22q47 0 65.5 -27.5t18.5 -99.5q0 -200 -149 -209v84z" />
    <glyph glyph-name="uni0157" unicode="&#x157;" horiz-adv-x="350" 
d="M51 0v1190h113l33 -152q5 84 33.5 121t101.5 37h10v-197h-41q-59 0 -78.5 -31t-19.5 -108v-860h-152zM63 -311q29 1 45.5 20t18.5 51q-2 -2 -14 -2q-35 0 -50.5 18t-15.5 70q0 51 19 73t63 22q47 0 65.5 -27.5t18.5 -99.5q0 -200 -150 -209v84z" />
    <glyph glyph-name="Rcaron" unicode="&#x158;" horiz-adv-x="516" 
d="M193 1538l-121 248h118l54 -123l57 123h113l-121 -248h-100zM203 629v-629h-150v1468h201q119 0 167 -43t48 -145v-418q0 -122 -80 -155q84 -27 84 -154v-463q0 -56 27 -90h-160q-21 21 -21 88v453q0 48 -15.5 68t-57.5 20h-43zM203 1337v-563h41q78 0 78 80v408
q0 43 -17.5 59t-64.5 16h-37z" />
    <glyph glyph-name="rcaron" unicode="&#x159;" horiz-adv-x="350" 
d="M127 1251l-121 248h119l53 -123l58 123h112l-121 -248h-100zM51 0v1190h113l33 -152q5 84 33.5 121t101.5 37h10v-197h-41q-59 0 -78.5 -31t-19.5 -108v-860h-152z" />
    <glyph glyph-name="Sacute" unicode="&#x15a;" horiz-adv-x="501" 
d="M309 1784h154l-150 -232h-112zM250 -16q-108 0 -157.5 51t-49.5 164v403h154v-387q0 -45 11.5 -63.5t41.5 -18.5q34 0 45.5 17.5t11.5 62.5v354q0 39 -10 56q-9 25 -89 77q-8 6 -13 9q-83 57 -114 99.5t-32 121.5v354q0 96 53.5 147.5t155.5 51.5q96 0 145.5 -48
t51.5 -135v-385h-148v351q0 45 -11 62.5t-40 17.5q-31 0 -43 -17.5t-12 -60.5v-320q0 -30 8 -49q9 -15 30 -32.5t65 -49.5q13 -9 20 -14q78 -51 106.5 -93t28.5 -124v-387q0 -112 -51.5 -163.5t-157.5 -51.5z" />
    <glyph glyph-name="sacute" unicode="&#x15b;" horiz-adv-x="487" 
d="M293 1495h153l-149 -231h-113zM244 -16q-113 0 -159 49.5t-48 165.5v270h153v-260q0 -45 12 -64.5t44 -19.5q31 0 42 19t11 65v221q0 25 -7.5 43.5t-29 36t-32 24t-44.5 25.5q-34 20 -52.5 34t-43 39.5t-36 59.5t-11.5 78v229q0 205 201 205q101 0 149.5 -51t48.5 -156
v-243h-145v231q0 49 -11.5 66.5t-41.5 17.5q-27 0 -39 -18t-12 -64v-201q0 -21 6.5 -37.5t26 -33.5t27.5 -22t39 -24q7 -5 11 -7q14 -8 38.5 -24.5t31.5 -21.5q78 -60 78 -170v-247q0 -111 -49.5 -163t-157.5 -52z" />
    <glyph glyph-name="Scircumflex" unicode="&#x15c;" horiz-adv-x="501" 
d="M260 1679l-57 -129h-115l121 248h102l121 -248h-119zM250 -16q-108 0 -157.5 51t-49.5 164v403h154v-387q0 -45 11.5 -63.5t41.5 -18.5q34 0 45.5 17.5t11.5 62.5v354q0 39 -10 56q-9 25 -89 77q-8 6 -13 9q-83 57 -114 99.5t-32 121.5v354q0 96 53.5 147.5t155.5 51.5
q96 0 145.5 -48t51.5 -135v-385h-148v351q0 45 -11 62.5t-40 17.5q-31 0 -43 -17.5t-12 -60.5v-320q0 -30 8 -49q9 -15 30 -32.5t65 -49.5q13 -9 20 -14q78 -51 106.5 -93t28.5 -124v-387q0 -112 -51.5 -163.5t-157.5 -51.5z" />
    <glyph glyph-name="scircumflex" unicode="&#x15d;" horiz-adv-x="487" 
d="M244 1391l-58 -129h-114l121 247h102l121 -247h-119zM244 -16q-113 0 -159 49.5t-48 165.5v270h153v-260q0 -45 12 -64.5t44 -19.5q31 0 42 19t11 65v221q0 25 -7.5 43.5t-29 36t-32 24t-44.5 25.5q-34 20 -52.5 34t-43 39.5t-36 59.5t-11.5 78v229q0 205 201 205
q101 0 149.5 -51t48.5 -156v-243h-145v231q0 49 -11.5 66.5t-41.5 17.5q-27 0 -39 -18t-12 -64v-201q0 -21 6.5 -37.5t26 -33.5t27.5 -22t39 -24q7 -5 11 -7q14 -8 38.5 -24.5t31.5 -21.5q78 -60 78 -170v-247q0 -111 -49.5 -163t-157.5 -52z" />
    <glyph glyph-name="uni015E" unicode="&#x15e;" horiz-adv-x="501" 
d="M256 -360q-89 0 -131 36.5t-53 120.5h125q9 -53 59 -53q55 0 55 49q0 45 -59 45h-55v150q-154 21 -154 211v403h154v-387q0 -45 11.5 -63.5t41.5 -18.5q34 0 45.5 17.5t11.5 62.5v354q0 39 -10 56q-9 25 -89 77q-8 6 -13 9q-83 57 -114 99.5t-32 121.5v354
q0 96 53.5 147.5t155.5 51.5q96 0 145.5 -48t51.5 -135v-385h-148v351q0 45 -11 62.5t-40 17.5q-31 0 -43 -17.5t-12 -60.5v-320q0 -30 8 -49q9 -15 30 -32.5t65 -49.5q13 -9 20 -14q78 -51 106.5 -93t28.5 -124v-387q0 -190 -156 -211v-64q129 -13 129 -135q0 -75 -47 -112
t-129 -37z" />
    <glyph glyph-name="uni015F" unicode="&#x15f;" horiz-adv-x="487" 
d="M254 -356q-89 0 -131 36.5t-53 120.5h125q9 -53 59 -53q55 0 55 49q0 45 -59 45h-55v144q-83 10 -119.5 61.5t-38.5 151.5v270h153v-260q0 -45 12 -64.5t44 -19.5q31 0 42 19t11 65v221q0 25 -7.5 43.5t-29 36t-32 24t-44.5 25.5q-34 20 -52.5 34t-43 39.5t-36 59.5
t-11.5 78v229q0 205 201 205q101 0 149.5 -51t48.5 -156v-243h-145v231q0 49 -11.5 66.5t-41.5 17.5q-27 0 -39 -18t-12 -64v-201q0 -21 6.5 -37.5t26 -33.5t27.5 -22t39 -24q7 -5 11 -7q14 -8 38.5 -24.5t31.5 -21.5q78 -60 78 -170v-247q0 -95 -37 -147t-113 -64v-60
q129 -13 129 -135q0 -75 -47 -112t-129 -37z" />
    <glyph glyph-name="Scaron" unicode="&#x160;" horiz-adv-x="501" 
d="M205 1552l-121 248h119l53 -123l57 123h113l-121 -248h-100zM250 -16q-108 0 -157.5 51t-49.5 164v403h154v-387q0 -45 11.5 -63.5t41.5 -18.5q34 0 45.5 17.5t11.5 62.5v354q0 39 -10 56q-9 25 -89 77q-8 6 -13 9q-83 57 -114 99.5t-32 121.5v354q0 96 53.5 147.5
t155.5 51.5q96 0 145.5 -48t51.5 -135v-385h-148v351q0 45 -11 62.5t-40 17.5q-31 0 -43 -17.5t-12 -60.5v-320q0 -30 8 -49q9 -15 30 -32.5t65 -49.5q13 -9 20 -14q78 -51 106.5 -93t28.5 -124v-387q0 -112 -51.5 -163.5t-157.5 -51.5z" />
    <glyph glyph-name="scaron" unicode="&#x161;" horiz-adv-x="487" 
d="M190 1264l-120 247h118l54 -122l57 122h113l-121 -247h-101zM244 -16q-113 0 -159 49.5t-48 165.5v270h153v-260q0 -45 12 -64.5t44 -19.5q31 0 42 19t11 65v221q0 25 -7.5 43.5t-29 36t-32 24t-44.5 25.5q-34 20 -52.5 34t-43 39.5t-36 59.5t-11.5 78v229q0 205 201 205
q101 0 149.5 -51t48.5 -156v-243h-145v231q0 49 -11.5 66.5t-41.5 17.5q-27 0 -39 -18t-12 -64v-201q0 -21 6.5 -37.5t26 -33.5t27.5 -22t39 -24q7 -5 11 -7q14 -8 38.5 -24.5t31.5 -21.5q78 -60 78 -170v-247q0 -111 -49.5 -163t-157.5 -52z" />
    <glyph glyph-name="uni0162" unicode="&#x162;" horiz-adv-x="415" 
d="M285 1319v-1319h-154v1319h-119v149h391v-149h-118zM135 -311q29 1 45.5 20t18.5 51q-2 -2 -15 -2q-35 0 -50 17.5t-15 70.5q0 51 19 73t63 22q47 0 65.5 -27.5t18.5 -99.5q0 -200 -150 -209v84z" />
    <glyph glyph-name="uni0163" unicode="&#x163;" horiz-adv-x="352" 
d="M338 0h-66q-71 0 -114 16q-41 18 -57.5 63.5t-16.5 133.5v827h-74v136q37 3 56 20q26 16 38 55q18 46 21 107h106v-168h107v-150h-107v-794q0 -64 13 -79t63 -15h31v-152zM137 -311q29 1 45.5 20t18.5 51q-2 -2 -15 -2q-35 0 -50 17.5t-15 70.5q0 51 19 73t63 22
q47 0 65.5 -27.5t18.5 -99.5q0 -200 -150 -209v84z" />
    <glyph glyph-name="Tcaron" unicode="&#x164;" horiz-adv-x="415" 
d="M154 1538l-121 248h119l53 -123l57 123h113l-121 -248h-100zM285 1319v-1319h-154v1319h-119v149h391v-149h-118z" />
    <glyph glyph-name="tcaron" unicode="&#x165;" horiz-adv-x="352" 
d="M330 1561h129l-82 -240h-96zM338 0h-66q-71 0 -114 16q-41 18 -57.5 63.5t-16.5 133.5v827h-74v136q37 3 56 20q26 16 38 55q18 46 21 107h106v-168h107v-150h-107v-794q0 -64 13 -79t63 -15h31v-152z" />
    <glyph glyph-name="Tbar" unicode="&#x166;" horiz-adv-x="415" 
d="M285 666v-666h-154v666h-76v151h76v502h-119v149h391v-149h-118v-502h73v-151h-73z" />
    <glyph glyph-name="tbar" unicode="&#x167;" horiz-adv-x="352" 
d="M338 0h-66q-71 0 -114 16q-41 18 -57.5 63.5t-16.5 133.5v330h-55v129h55v368h-74v136q37 3 56 20q26 16 38 55q18 46 21 107h106v-168h107v-150h-107v-368h76v-129h-76v-297q0 -64 13 -79t63 -15h31v-152z" />
    <glyph glyph-name="Utilde" unicode="&#x168;" horiz-adv-x="524" 
d="M70 1540q0 128 23 174.5t87 46.5q44 0 66 -22q13 -10 30.5 -28t29.5 -28t22 -10q17 0 22.5 16t5.5 66h103q0 -122 -25 -170.5t-86 -48.5q-42 0 -65 23q-9 8 -23.5 22.5t-23 22t-19.5 14t-20 6.5q-14 0 -19.5 -18.5t-5.5 -65.5h-102zM262 -16q-106 0 -158.5 51.5
t-52.5 163.5v1269h156v-1253q0 -82 55 -82t55 82v1253h156v-1269q0 -112 -52.5 -163.5t-158.5 -51.5z" />
    <glyph glyph-name="utilde" unicode="&#x169;" horiz-adv-x="509" 
d="M72 1262q0 128 23 174.5t87 46.5q43 0 66 -23q13 -10 30.5 -28t29.5 -27.5t22 -9.5q17 0 22.5 16t5.5 66h103q0 -122 -25 -171t-86 -49q-42 0 -65 23q-10 9 -24 23t-22.5 22t-19.5 14.5t-20 6.5q-14 0 -19.5 -18.5t-5.5 -65.5h-102zM328 104q-13 -63 -44.5 -90.5
t-82.5 -27.5q-84 0 -119 58t-35 196v950h154v-969q0 -52 12 -74t41 -22q30 0 42.5 26t12.5 87v952h150v-1190h-113z" />
    <glyph glyph-name="Umacron" unicode="&#x16a;" horiz-adv-x="524" 
d="M125 1683h270v-133h-270v133zM262 -16q-106 0 -158.5 51.5t-52.5 163.5v1269h156v-1253q0 -82 55 -82t55 82v1253h156v-1269q0 -112 -52.5 -163.5t-158.5 -51.5z" />
    <glyph glyph-name="umacron" unicode="&#x16b;" horiz-adv-x="509" 
d="M119 1405h270v-133h-270v133zM328 104q-13 -63 -44.5 -90.5t-82.5 -27.5q-84 0 -119 58t-35 196v950h154v-969q0 -52 12 -74t41 -22q30 0 42.5 26t12.5 87v952h150v-1190h-113z" />
    <glyph glyph-name="Ubreve" unicode="&#x16c;" horiz-adv-x="524" 
d="M262 1534q-99 0 -135.5 49t-36.5 172h111q0 -67 12 -89t49 -24q36 0 49 23.5t13 89.5h110q0 -121 -38.5 -171t-133.5 -50zM262 -16q-106 0 -158.5 51.5t-52.5 163.5v1269h156v-1253q0 -82 55 -82t55 82v1253h156v-1269q0 -112 -52.5 -163.5t-158.5 -51.5z" />
    <glyph glyph-name="ubreve" unicode="&#x16d;" horiz-adv-x="509" 
d="M254 1255q-99 0 -135.5 49.5t-36.5 172.5h111q0 -67 12 -89t49 -24q35 0 48 23.5t13 89.5h111q0 -121 -38.5 -171.5t-133.5 -50.5zM328 104q-13 -63 -44.5 -90.5t-82.5 -27.5q-84 0 -119 58t-35 196v950h154v-969q0 -52 12 -74t41 -22q30 0 42.5 26t12.5 87v952h150
v-1190h-113z" />
    <glyph glyph-name="Uring" unicode="&#x16e;" horiz-adv-x="524" 
d="M258 1546q-70 0 -112 38.5t-42 109.5q0 70 43 110.5t111 40.5q69 0 110.5 -39t41.5 -110q0 -72 -41.5 -111t-110.5 -39zM258 1647q47 0 47 49t-47 49t-47 -49t47 -49zM262 -16q-106 0 -158.5 51.5t-52.5 163.5v1269h156v-1253q0 -82 55 -82t55 82v1253h156v-1269
q0 -112 -52.5 -163.5t-158.5 -51.5z" />
    <glyph glyph-name="uring" unicode="&#x16f;" horiz-adv-x="509" 
d="M258 1255q-70 0 -112 38.5t-42 109.5q0 70 43 110.5t111 40.5q69 0 110.5 -39t41.5 -110q0 -72 -41.5 -111t-110.5 -39zM258 1356q47 0 47 49t-47 49t-47 -49t47 -49zM328 104q-13 -63 -44.5 -90.5t-82.5 -27.5q-84 0 -119 58t-35 196v950h154v-969q0 -52 12 -74t41 -22
q30 0 42.5 26t12.5 87v952h150v-1190h-113z" />
    <glyph glyph-name="Uhungarumlaut" unicode="&#x170;" horiz-adv-x="524" 
d="M217 1536h-90l63 231h129zM377 1536h-92l80 231h135zM262 -16q-106 0 -158.5 51.5t-52.5 163.5v1269h156v-1253q0 -82 55 -82t55 82v1253h156v-1269q0 -112 -52.5 -163.5t-158.5 -51.5z" />
    <glyph glyph-name="uhungarumlaut" unicode="&#x171;" horiz-adv-x="509" 
d="M209 1257h-90l63 232h129zM369 1257h-93l80 232h136zM328 104q-13 -63 -44.5 -90.5t-82.5 -27.5q-84 0 -119 58t-35 196v950h154v-969q0 -52 12 -74t41 -22q30 0 42.5 26t12.5 87v952h150v-1190h-113z" />
    <glyph glyph-name="Uogonek" unicode="&#x172;" horiz-adv-x="524" 
d="M326 -274q-158 0 -158 141q0 64 45 121q-81 11 -121.5 61.5t-40.5 149.5v1269h156v-1253q0 -82 55 -82t55 82v1253h156v-1269q0 -139 -80 -187q-64 -57 -85 -85t-21 -50q0 -41 43 -41q44 0 47 62h125q-10 -90 -54 -131t-122 -41z" />
    <glyph glyph-name="uogonek" unicode="&#x173;" horiz-adv-x="509" 
d="M379 -301q-158 0 -158 141q0 49 27 95t92 98l-12 71q-13 -63 -44.5 -90.5t-82.5 -27.5q-84 0 -119 58t-35 196v950h154v-969q0 -52 12 -74t41 -22q30 0 42.5 26t12.5 87v952h150v-1188l2 -2q-74 -65 -97.5 -95.5t-23.5 -54.5q0 -40 43 -40q44 0 47 61h125
q-10 -90 -54 -131t-122 -41z" />
    <glyph glyph-name="Wcircumflex" unicode="&#x174;" horiz-adv-x="720" 
d="M367 1667l-58 -129h-114l120 248h103l121 -248h-119zM266 0h-137l-111 1468h148l47 -845l4 -230l14 228l84 847h97l77 -845l17 -228l2 230l53 843h141l-116 -1468h-131l-86 838l-9 209l-8 -209z" />
    <glyph glyph-name="wcircumflex" unicode="&#x175;" horiz-adv-x="690" 
d="M350 1389l-57 -129h-115l121 247h102l121 -247h-119zM258 0h-149l-99 1190h142l43 -684l4 -285l20 285l80 684h98l76 -684l16 -285l9 285l47 684h137l-109 -1190h-145l-72 641l-10 277l-10 -277z" />
    <glyph glyph-name="Ycircumflex" unicode="&#x176;" horiz-adv-x="458" 
d="M229 1665l-57 -129h-115l121 248h103l120 -248h-118zM150 0v561l-146 907h154l55 -432l16 -282l19 282l55 432h152l-148 -893v-575h-157z" />
    <glyph glyph-name="ycircumflex" unicode="&#x177;" 
d="M238 1384l-58 -129h-114l120 248h103l121 -248h-119zM47 -252v150h51q39 0 54.5 14t19.5 61l8 62l-170 1155h152l74 -625l16 -334l10 334l49 625h148l-133 -1245q-12 -117 -55 -157t-158 -40h-66z" />
    <glyph glyph-name="Ydieresis" unicode="&#x178;" horiz-adv-x="458" 
d="M135 1532q-39 0 -55.5 20t-16.5 74t17 76t55 22q41 0 56.5 -21t15.5 -77q0 -52 -15.5 -73t-56.5 -21zM326 1532q-43 0 -57.5 19t-14.5 75q0 55 16.5 76.5t55.5 21.5q38 0 54.5 -22t16.5 -76q0 -51 -16.5 -72.5t-54.5 -21.5zM150 0v561l-146 907h154l55 -432l16 -282
l19 282l55 432h152l-148 -893v-575h-157z" />
    <glyph glyph-name="Zacute" unicode="&#x179;" horiz-adv-x="432" 
d="M268 1769h154l-150 -231h-112zM27 0v143l223 1170h-213v155h364v-141l-217 -1171h222v-156h-379z" />
    <glyph glyph-name="zacute" unicode="&#x17a;" horiz-adv-x="380" 
d="M240 1491h153l-149 -231h-113zM27 0v131l180 909h-174v150h321v-133l-176 -907h178v-150h-329z" />
    <glyph glyph-name="Zdotaccent" unicode="&#x17b;" horiz-adv-x="432" 
d="M215 1538q-50 0 -68 21.5t-18 85.5q0 62 20 85t66 23t65 -22.5t19 -85.5q0 -62 -19 -84.5t-65 -22.5zM27 0v143l223 1170h-213v155h364v-141l-217 -1171h222v-156h-379z" />
    <glyph glyph-name="zdotaccent" unicode="&#x17c;" horiz-adv-x="380" 
d="M190 1260q-50 0 -68 21t-18 85q0 62 20 85.5t66 23.5t65 -23t19 -86q0 -62 -19 -84t-65 -22zM27 0v131l180 909h-174v150h321v-133l-176 -907h178v-150h-329z" />
    <glyph glyph-name="Zcaron" unicode="&#x17d;" horiz-adv-x="432" 
d="M164 1538l-121 248h119l53 -123l57 123h113l-121 -248h-100zM27 0v143l223 1170h-213v155h364v-141l-217 -1171h222v-156h-379z" />
    <glyph glyph-name="zcaron" unicode="&#x17e;" horiz-adv-x="380" 
d="M139 1260l-121 247h119l53 -123l58 123h112l-120 -247h-101zM27 0v131l180 909h-174v150h321v-133l-176 -907h178v-150h-329z" />
    <glyph glyph-name="uni0192" unicode="&#x192;" horiz-adv-x="368" 
d="M260 -94q0 -110 -37 -152.5t-139 -42.5h-78v148h53q28 0 37.5 12.5t9.5 44.5v688h-100v152h100v520q0 126 41.5 173.5t147.5 47.5h67v-145h-43q-33 0 -46 -17t-13 -65v-514h102v-152h-102v-698z" />
    <glyph glyph-name="Aringacute" unicode="&#x1fa;" 
d="M279 1952h153l-149 -232h-113zM156 0h-148l135 1386q-69 37 -69 130q0 70 42.5 110.5t110.5 40.5q69 0 110.5 -39t41.5 -110q0 -89 -62 -127l146 -1391h-152l-14 182h-127zM227 1468q47 0 47 50q0 49 -47 49t-47 -49q0 -50 47 -50zM180 322h107l-43 536l-13 332l-12 -332
z" />
    <glyph glyph-name="aringacute" unicode="&#x1fb;" horiz-adv-x="503" 
d="M305 1839h154l-150 -231h-112zM252 1255q-70 0 -112 38.5t-42 109.5q0 70 43 110.5t111 40.5q69 0 110 -39t41 -110q0 -72 -41 -111t-110 -39zM252 1356q47 0 47 49t-47 49t-47 -49t47 -49zM328 119q-23 -133 -138 -133q-84 0 -116.5 51.5t-32.5 185.5v199q0 67 9 104
t34 66q18 21 45.5 33.5t77.5 29.5q63 20 83.5 42t20.5 83v203q0 48 -11.5 67t-43.5 19q-31 0 -44 -19.5t-13 -68.5v-260h-146v276q0 207 201 207q203 0 203 -207v-997h-111zM248 125q63 0 63 100v373q-13 -24 -51 -37q-33 -15 -49 -35q-16 -29 -16 -96v-211q0 -51 12 -72.5
t41 -21.5z" />
    <glyph glyph-name="AEacute" unicode="&#x1fc;" horiz-adv-x="628" 
d="M373 1769h153l-149 -231h-113zM297 182h-127l-20 -182h-146l207 1468h387v-151h-221l29 -504h184v-151h-176l26 -508h164v-154h-301zM186 322h107l-19 536l11 414l-35 -414z" />
    <glyph glyph-name="aeacute" unicode="&#x1fd;" horiz-adv-x="770" 
d="M444 1475h154l-149 -232h-113zM727 199q0 -112 -52.5 -163.5t-156.5 -51.5q-147 0 -184 122q-25 -118 -139 -118q-85 0 -118.5 51.5t-33.5 185.5v209q0 114 43 170q33 38 125 64q63 19 83.5 40.5t20.5 82.5v192q0 49 -11.5 68.5t-45.5 19.5q-30 0 -42.5 -20.5
t-12.5 -69.5v-246h-146v262q0 207 191 207q104 0 141 -57q45 57 141 57q197 0 197 -215v-426h-268v-350q0 -45 13.5 -66.5t45.5 -21.5q31 0 44 20t13 64v272h152v-282zM459 688h119v291q0 92 -60 92q-33 0 -46 -20t-13 -72v-291zM252 127q61 0 61 100v379q-14 -25 -49 -37
q-40 -18 -49 -34q-18 -32 -18 -95v-219q0 -51 12 -72.5t43 -21.5z" />
    <glyph glyph-name="Oslashacute" unicode="&#x1fe;" horiz-adv-x="542" 
d="M336 1888h153l-149 -231h-113zM160 -184l12 182q-123 43 -123 201v1073q0 102 56 156.5t155 54.5l10 143h113l-12 -158q123 -40 123 -196v-1073q0 -215 -213 -215l-9 -168h-112zM272 131q68 0 68 88v1043q0 86 -70 86q-67 0 -67 -86v-1043q0 -88 69 -88z" />
    <glyph glyph-name="oslashacute" unicode="&#x1ff;" horiz-adv-x="516" 
d="M328 1630h153l-149 -231h-113zM137 -174l17 174q-107 49 -107 203v784q0 111 55.5 164t149.5 53l14 146h115l-19 -164q107 -47 107 -199v-784q0 -113 -54 -166t-151 -53l-10 -158h-117zM258 125q61 0 61 86v770q0 86 -61 86t-61 -86v-770q0 -86 61 -86z" />
    <glyph glyph-name="uni0218" unicode="&#x218;" horiz-adv-x="501" 
d="M250 -16q-108 0 -157.5 51t-49.5 164v403h154v-387q0 -45 11.5 -63.5t41.5 -18.5q34 0 45.5 17.5t11.5 62.5v354q0 39 -10 56q-9 25 -89 77q-8 6 -13 9q-83 57 -114 99.5t-32 121.5v354q0 96 53.5 147.5t155.5 51.5q96 0 145.5 -48t51.5 -135v-385h-148v351
q0 45 -11 62.5t-40 17.5q-31 0 -43 -17.5t-12 -60.5v-320q0 -30 8 -49q9 -15 30 -32.5t65 -49.5q13 -9 20 -14q78 -51 106.5 -93t28.5 -124v-387q0 -112 -51.5 -163.5t-157.5 -51.5zM186 -328q29 1 45.5 20.5t18.5 51.5q-2 -2 -14 -2q-35 0 -50.5 18t-15.5 70q0 51 19 72.5
t63 21.5q47 0 65.5 -27.5t18.5 -99.5q0 -200 -150 -209v84z" />
    <glyph glyph-name="uni0219" unicode="&#x219;" horiz-adv-x="487" 
d="M244 -16q-113 0 -159 49.5t-48 165.5v270h153v-260q0 -45 12 -64.5t44 -19.5q31 0 42 19t11 65v221q0 25 -7.5 43.5t-29 36t-32 24t-44.5 25.5q-34 20 -52.5 34t-43 39.5t-36 59.5t-11.5 78v229q0 205 201 205q101 0 149.5 -51t48.5 -156v-243h-145v231q0 49 -11.5 66.5
t-41.5 17.5q-27 0 -39 -18t-12 -64v-201q0 -21 6.5 -37.5t26 -33.5t27.5 -22t39 -24q7 -5 11 -7q14 -8 38.5 -24.5t31.5 -21.5q78 -60 78 -170v-247q0 -111 -49.5 -163t-157.5 -52zM182 -324q29 1 45.5 20.5t18.5 51.5q-2 -2 -15 -2q-35 0 -50 17.5t-15 70.5q0 51 19 72.5
t63 21.5q47 0 65.5 -27.5t18.5 -99.5q0 -200 -150 -209v84z" />
    <glyph glyph-name="uni0237" unicode="&#x237;" horiz-adv-x="256" 
d="M-51 -141h57q28 0 37.5 12.5t9.5 46.5v1272h152v-1290q0 -114 -37.5 -153.5t-142.5 -39.5h-76v152z" />
    <glyph glyph-name="uni0245" unicode="&#x245;" 
d="M156 0h-148l144 1468h157l154 -1468h-152l-67 858l-13 332l-12 -332z" />
    <glyph glyph-name="circumflex" unicode="&#x2c6;" horiz-adv-x="475" 
d="M236 1389l-58 -129h-115l121 247h103l121 -247h-119z" />
    <glyph glyph-name="caron" unicode="&#x2c7;" horiz-adv-x="475" 
d="M186 1260l-120 247h118l54 -123l57 123h113l-121 -247h-101z" />
    <glyph glyph-name="breve" unicode="&#x2d8;" horiz-adv-x="475" 
d="M236 1257q-99 0 -136 49.5t-37 172.5h111q0 -67 12.5 -89t49.5 -24q35 0 48 23.5t13 89.5h111q0 -121 -38.5 -171.5t-133.5 -50.5z" />
    <glyph glyph-name="dotaccent" unicode="&#x2d9;" horiz-adv-x="477" 
d="M233 1260q-50 0 -68 21t-18 85q0 62 20 85.5t66 23.5t65 -23t19 -86q0 -62 -19 -84t-65 -22z" />
    <glyph glyph-name="ring" unicode="&#x2da;" horiz-adv-x="475" 
d="M238 1270q-70 0 -112 38t-42 109q0 70 43 111t111 41q69 0 110 -39.5t41 -110.5q0 -72 -41 -110.5t-110 -38.5zM238 1370q47 0 47 49t-47 49q-48 0 -48 -49t48 -49z" />
    <glyph glyph-name="ogonek" unicode="&#x2db;" horiz-adv-x="475" 
d="M231 -301q-157 0 -157 141q0 53 32.5 103t114.5 112l92 -55q-73 -64 -96.5 -94.5t-23.5 -55.5q0 -40 43 -40q44 0 47 61h125q-10 -90 -54 -131t-123 -41z" />
    <glyph glyph-name="tilde" unicode="&#x2dc;" horiz-adv-x="475" 
d="M49 1262q0 128 23.5 174.5t87.5 46.5q42 0 65 -23q13 -10 30.5 -28t29.5 -27.5t22 -9.5q17 0 23 16.5t6 65.5h102q0 -122 -25 -171t-85 -49q-43 0 -66 23q-10 9 -24 23t-22.5 22t-19.5 14.5t-20 6.5q-14 0 -19 -18.5t-5 -65.5h-103z" />
    <glyph glyph-name="hungarumlaut" unicode="&#x2dd;" horiz-adv-x="475" 
d="M164 1260h-90l63 231h129zM324 1260h-93l80 231h135z" />
    <glyph glyph-name="uni03BC" unicode="&#x3bc;" horiz-adv-x="509" 
d="M270 -16q-53 0 -69 82v-420h-150v1544h152v-961q0 -52 12 -74t41 -22q31 0 43 26t12 87v944h152v-1190h-103l-14 88q-6 -58 -23 -81t-53 -23z" />
    <glyph glyph-name="pi" unicode="&#x3c0;" horiz-adv-x="679" 
d="M399 1323h-127v-1323h-153v1323h-105v145h650v-145h-111v-1114q0 -32 10.5 -45.5t36.5 -13.5h51v-150h-82q-100 0 -135 39t-35 149v1135z" />
    <glyph glyph-name="uni0E3F" unicode="&#xe3f;" horiz-adv-x="589" 
d="M338 0v-113h-92v113h-195v1466h195v95h92v-95q107 -1 154 -44t47 -138v-356q0 -124 -74 -162q82 -37 82 -154v-426q0 -93 -49 -139.5t-156 -46.5h-4zM246 831v510h-60v-510h60zM403 1260q0 70 -65 79v-508q65 3 65 89v340zM246 133v561h-60v-561h60zM406 612q0 82 -68 82
v-561q37 1 52.5 20t15.5 60v399z" />
    <glyph glyph-name="Wgrave" unicode="&#x1e80;" horiz-adv-x="720" 
d="M193 1769h151l78 -231h-107zM266 0h-137l-111 1468h148l47 -845l4 -230l14 228l84 847h97l77 -845l17 -228l2 230l53 843h141l-116 -1468h-131l-86 838l-9 209l-8 -209z" />
    <glyph glyph-name="wgrave" unicode="&#x1e81;" horiz-adv-x="690" 
d="M176 1493h152l78 -231h-107zM258 0h-149l-99 1190h142l43 -684l4 -285l20 285l80 684h98l76 -684l16 -285l9 285l47 684h137l-109 -1190h-145l-72 641l-10 277l-10 -277z" />
    <glyph glyph-name="Wacute" unicode="&#x1e82;" horiz-adv-x="720" 
d="M416 1769h153l-149 -231h-113zM266 0h-137l-111 1468h148l47 -845l4 -230l14 228l84 847h97l77 -845l17 -228l2 230l53 843h141l-116 -1468h-131l-86 838l-9 209l-8 -209z" />
    <glyph glyph-name="wacute" unicode="&#x1e83;" horiz-adv-x="690" 
d="M399 1491h154l-150 -231h-112zM258 0h-149l-99 1190h142l43 -684l4 -285l20 285l80 684h98l76 -684l16 -285l9 285l47 684h137l-109 -1190h-145l-72 641l-10 277l-10 -277z" />
    <glyph glyph-name="Wdieresis" unicode="&#x1e84;" horiz-adv-x="720" 
d="M270 1534q-39 0 -55 20t-16 74t16.5 76t54.5 22q41 0 56.5 -21t15.5 -77q0 -52 -15.5 -73t-56.5 -21zM461 1534q-43 0 -57.5 19t-14.5 75q0 55 16.5 76.5t55.5 21.5q38 0 54.5 -22t16.5 -76q0 -51 -16.5 -72.5t-54.5 -21.5zM266 0h-137l-111 1468h148l47 -845l4 -230
l14 228l84 847h97l77 -845l17 -228l2 230l53 843h141l-116 -1468h-131l-86 838l-9 209l-8 -209z" />
    <glyph glyph-name="wdieresis" unicode="&#x1e85;" horiz-adv-x="690" 
d="M254 1253q-39 0 -55.5 20.5t-16.5 74.5t17 76t55 22q41 0 56.5 -21t15.5 -77q0 -52 -15.5 -73.5t-56.5 -21.5zM444 1253q-42 0 -56.5 19.5t-14.5 75.5q0 55 16 76.5t55 21.5q38 0 55 -22t17 -76q0 -51 -17 -73t-55 -22zM258 0h-149l-99 1190h142l43 -684l4 -285l20 285
l80 684h98l76 -684l16 -285l9 285l47 684h137l-109 -1190h-145l-72 641l-10 277l-10 -277z" />
    <glyph glyph-name="Ygrave" unicode="&#x1ef2;" horiz-adv-x="458" 
d="M55 1767h152l78 -231h-107zM150 0v561l-146 907h154l55 -432l16 -282l19 282l55 432h152l-148 -893v-575h-157z" />
    <glyph glyph-name="ygrave" unicode="&#x1ef3;" 
d="M61 1487h152l78 -232h-107zM47 -252v150h51q39 0 54.5 14t19.5 61l8 62l-170 1155h152l74 -625l16 -334l10 334l49 625h148l-133 -1245q-12 -117 -55 -157t-158 -40h-66z" />
    <glyph glyph-name="figuredash" unicode="&#x2012;" horiz-adv-x="694" 
d="M655 528h-616v152h616v-152z" />
    <glyph glyph-name="endash" unicode="&#x2013;" horiz-adv-x="407" 
d="M369 528h-330v152h330v-152z" />
    <glyph glyph-name="emdash" unicode="&#x2014;" horiz-adv-x="530" 
d="M492 528h-453v152h453v-152z" />
    <glyph glyph-name="uni2015" unicode="&#x2015;" horiz-adv-x="489" 
d="M451 528h-412v152h412v-152z" />
    <glyph glyph-name="uni2016" unicode="&#x2016;" horiz-adv-x="489" 
d="M51 -98v1659h150v-1659h-150zM289 -98v1659h149v-1659h-149z" />
    <glyph glyph-name="underscoredbl" unicode="&#x2017;" horiz-adv-x="481" 
d="M446 0h-409v127h409v-127zM446 -195h-409v127h409v-127z" />
    <glyph glyph-name="quoteleft" unicode="&#x2018;" horiz-adv-x="288" 
d="M147 1067q-40 0 -59 11t-29 46.5t-10 106.5q0 255 180 266v-86q-79 -12 -82 -90q2 2 19 2q38 0 55 -25t17 -100q0 -82 -18 -106.5t-73 -24.5z" />
    <glyph glyph-name="quoteright" unicode="&#x2019;" horiz-adv-x="288" 
d="M57 1143q81 9 84 90l-7 -1q-7 -1 -13 -1q-36 0 -54 24.5t-18 98.5q0 81 18.5 107t71.5 26q42 0 61.5 -11.5t28.5 -46.5t9 -108q0 -126 -43.5 -193t-137.5 -73v88z" />
    <glyph glyph-name="quotesinglbase" unicode="&#x201a;" horiz-adv-x="288" 
d="M57 -98q75 9 84 90q-2 -2 -20 -2q-36 0 -54 25.5t-18 99.5q0 81 18.5 107t71.5 26q42 0 61.5 -11.5t28.5 -46.5t9 -108q0 -258 -181 -266v86z" />
    <glyph glyph-name="uni201B" unicode="&#x201b;" horiz-adv-x="288" 
d="M231 1055q-180 11 -180 266q0 72 10 108t29.5 47t59.5 11q55 0 72.5 -25.5t17.5 -107.5q0 -75 -16.5 -99t-55.5 -24q-5 0 -12 1l-6 1q9 -81 81 -90v-88z" />
    <glyph glyph-name="quotedblleft" unicode="&#x201c;" horiz-adv-x="540" 
d="M147 1065q-58 0 -78 30.5t-20 135.5q0 255 180 266v-88q-79 -12 -82 -90q2 2 19 2q39 0 55.5 -24t16.5 -99q0 -82 -18 -107.5t-73 -25.5zM399 1065q-58 0 -78 30.5t-20 135.5q0 255 180 266v-88q-79 -12 -82 -90q2 2 19 2q38 0 54.5 -24t16.5 -99q0 -82 -17.5 -107.5
t-72.5 -25.5z" />
    <glyph glyph-name="quotedblright" unicode="&#x201d;" horiz-adv-x="540" 
d="M57 1143q81 9 84 90l-7 -1q-7 -1 -13 -1q-36 0 -54 24.5t-18 98.5q0 81 18.5 107t71.5 26q42 0 61.5 -11.5t28.5 -46.5t9 -108q0 -255 -181 -266v88zM309 1143q81 9 84 90l-7 -1q-7 -1 -13 -1q-36 0 -54 24.5t-18 98.5q0 81 18.5 107t71.5 26q42 0 61 -11.5t28 -46
t9 -108.5q0 -255 -180 -266v88z" />
    <glyph glyph-name="quotedblbase" unicode="&#x201e;" horiz-adv-x="540" 
d="M57 -98q75 3 84 90q-2 -2 -20 -2q-36 0 -54 25.5t-18 99.5q0 81 18.5 107t71.5 26q42 0 61.5 -11.5t28.5 -46.5t9 -108q0 -255 -181 -266v86zM309 -98q75 9 84 90q-2 -2 -20 -2q-36 0 -54 25.5t-18 99.5q0 81 18.5 107t71.5 26q42 0 61 -11.5t28 -46t9 -108.5
q0 -255 -180 -266v86z" />
    <glyph glyph-name="uni201F" unicode="&#x201f;" horiz-adv-x="540" 
d="M231 1055q-180 11 -180 266q0 72 10 108t29.5 47t59.5 11q55 0 72.5 -25.5t17.5 -107.5q0 -75 -16.5 -99t-55.5 -24q-5 0 -12 1l-6 1q9 -81 81 -90v-88zM483 1055q-180 11 -180 266q0 105 20 135.5t78 30.5q55 0 73 -25.5t18 -107.5q0 -75 -16.5 -99t-55.5 -24
q-5 0 -12 1l-7 1q9 -81 82 -90v-88z" />
    <glyph glyph-name="dagger" unicode="&#x2020;" horiz-adv-x="479" 
d="M315 940v-1053h-149v1053h-141v158h141v463h149v-463h142v-158h-142z" />
    <glyph glyph-name="daggerdbl" unicode="&#x2021;" horiz-adv-x="479" 
d="M315 414v-527h-149v527h-141v157h141v369h-141v158h141v463h149v-463h142v-158h-142v-369h142v-157h-142z" />
    <glyph glyph-name="bullet" unicode="&#x2022;" horiz-adv-x="393" 
d="M197 463q-74 0 -105 32.5t-31 114.5q0 81 32 113.5t104 32.5q73 0 104 -32t31 -114q0 -79 -31.5 -113t-103.5 -34z" />
    <glyph glyph-name="ellipsis" unicode="&#x2026;" horiz-adv-x="833" 
d="M152 -10q-52 0 -71.5 27t-19.5 108q0 82 19 107.5t72 25.5q56 0 74 -25t18 -108q0 -82 -18.5 -108.5t-73.5 -26.5zM416 -10q-52 0 -71 27t-19 108q0 82 18.5 107.5t71.5 25.5q56 0 74 -25t18 -108q0 -82 -18.5 -108.5t-73.5 -26.5zM680 -10q-52 0 -71 27t-19 108
q0 82 18.5 107.5t71.5 25.5q56 0 74 -25t18 -108q0 -82 -18.5 -108.5t-73.5 -26.5z" />
    <glyph glyph-name="perthousand" unicode="&#x2030;" horiz-adv-x="1214" 
d="M203 782q-73 0 -112.5 41.5t-39.5 118.5v385q0 72 40.5 113t111.5 41t111 -41t40 -113v-385q0 -75 -39 -117.5t-112 -42.5zM602 1468h119l-479 -1468h-121zM203 885q28 0 37.5 17.5t9.5 55.5v353q0 36 -10 53.5t-37 17.5t-36 -17.5t-9 -53.5v-353q0 -40 8.5 -56.5
t36.5 -16.5zM641 -20q-73 0 -112.5 42.5t-39.5 116.5v393q0 72 40 113t112 41q71 0 112.5 -41t41.5 -113v-393q0 -73 -40.5 -116t-113.5 -43zM1012 -20q-73 0 -112.5 42.5t-39.5 116.5v393q0 72 40 113t112 41q71 0 112 -41t41 -113v-393q0 -73 -40.5 -116t-112.5 -43z
M641 82q27 0 37 18.5t10 57.5v358q0 36 -10 54t-37 18t-36 -18.5t-9 -53.5v-358q0 -39 10 -57.5t35 -18.5zM1012 82q27 0 37 18.5t10 57.5v358q0 36 -10 54t-37 18t-36 -18.5t-9 -53.5v-358q0 -39 10 -57.5t35 -18.5z" />
    <glyph glyph-name="uni2032" unicode="&#x2032;" horiz-adv-x="309" 
d="M25 1063l88 403h170l-127 -403h-131z" />
    <glyph glyph-name="uni2033" unicode="&#x2033;" horiz-adv-x="530" 
d="M25 1063l86 403h165l-122 -403h-129zM231 1063l107 403h166l-144 -403h-129z" />
    <glyph glyph-name="uni2034" unicode="&#x2034;" horiz-adv-x="602" 
d="M174 1468v-36q0 -246 -24 -414h-87q-20 137 -20 414v36h131zM367 1468v-36q0 -253 -23 -414h-88q-20 192 -20 414v36h131zM561 1468v-36q0 -232 -26 -414h-86q-19 130 -19 414v36h131z" />
    <glyph glyph-name="guilsinglleft" unicode="&#x2039;" horiz-adv-x="389" 
d="M215 258l-176 346v4l174 355h143l-178 -353l187 -352h-150z" />
    <glyph glyph-name="guilsinglright" unicode="&#x203a;" horiz-adv-x="389" 
d="M27 258l186 352l-178 353h143l174 -355v-4l-176 -346h-149z" />
    <glyph glyph-name="exclamdbl" unicode="&#x203c;" horiz-adv-x="575" 
d="M233 1468v-464q0 -23 -1 -77t-1 -85q-3 -203 -12 -350q-8 -139 -8 -179q-15 9 -59 9q-39 0 -60 -9v3q0 2 -0.5 6.5t-1 10.5t-0.5 14.5v17.5q0 4 -4.5 112.5t-5.5 181.5q-8 164 -8 345v464h161zM504 1468v-464q0 -23 -1 -77t-1 -85q-3 -179 -13 -350q-1 -46 -3 -89
t-3.5 -66t-1.5 -24q-21 9 -57 9q-38 0 -59 -9l-1 3v6.5t-0.5 10.5t-1 14.5t-0.5 17.5q-4 127 -12 294q-8 164 -8 345v464h162zM152 -10q-53 0 -73 27t-20 108q0 83 18.5 108t74.5 25q57 0 75.5 -25t18.5 -108q0 -82 -19.5 -108.5t-74.5 -26.5zM424 -10q-55 0 -73.5 26.5
t-18.5 108.5q0 83 18.5 108t73.5 25t73.5 -25t18.5 -108q0 -82 -18.5 -108.5t-73.5 -26.5z" />
    <glyph glyph-name="uni203D" unicode="&#x203d;" horiz-adv-x="618" 
d="M377 313q-14 11 -62 11q-45 0 -59 -11l-4 84q0 20 -2 79.5t-2 98.5q-6 429 -6 431v342q-60 -28 -60 -105v-393h-141v401q0 107 65 169.5t197 62.5q139 0 205.5 -64t66.5 -168v-350q0 -69 -25 -122.5t-73 -119.5q-48 -59 -74 -116.5t-26 -130.5v-99zM375 1004
q0 -251 -4 -332q8 55 24 92q1 3 10.5 22.5t12 27t7.5 25t7 36t2 40.5v328q0 80 -59 103v-342zM315 -10q-52 0 -71 27t-19 108q0 83 18.5 108t73.5 25q56 0 74.5 -25t18.5 -108q0 -82 -20 -108.5t-75 -26.5z" />
    <glyph glyph-name="fraction" unicode="&#x2044;" horiz-adv-x="739" 
d="M375 834l160 649l155 -43l-272 -621zM356 645l-143 -661l-162 49l266 626z" />
    <glyph glyph-name="uni2070" unicode="&#x2070;" horiz-adv-x="325" 
d="M164 725q-133 0 -133 117v510q0 60 34.5 92.5t98.5 32.5q133 0 133 -125v-510q0 -117 -133 -117zM164 821q31 0 31 37v492q0 39 -31 39t-31 -39v-492q0 -37 31 -37z" />
    <glyph glyph-name="uni2074" unicode="&#x2074;" horiz-adv-x="323" 
d="M266 870v-135h-92v135h-164v86l156 512h100v-501h53v-97h-53zM106 967h68v172l23 198l-39 -190z" />
    <glyph glyph-name="uni2075" unicode="&#x2075;" horiz-adv-x="319" 
d="M160 725q-129 0 -129 117v174h100v-154q0 -37 27 -37q18 0 23 7.5t5 29.5v260q0 37 -24 37q-20 0 -31 -31l-12 -32l-88 22l24 350h228v-16q0 -57 -19 -73.5t-82 -16.5h-37q-1 -27 -5 -80.5t-5 -69.5q27 48 72 48q82 0 82 -105v-313q0 -55 -33 -86t-96 -31z" />
    <glyph glyph-name="uni2076" unicode="&#x2076;" horiz-adv-x="321" 
d="M295 848q0 -123 -133 -123t-133 123v508q0 59 35 90t98 31q131 0 131 -121v-142h-103v136q0 36 -28 36q-31 0 -31 -36v-234q21 49 76 49q88 0 88 -102v-215zM162 823q31 0 31 37v187q0 36 -31 36q-28 0 -31 -30v-193q0 -37 31 -37z" />
    <glyph glyph-name="uni2077" unicode="&#x2077;" horiz-adv-x="286" 
d="M47 735q8 121 30.5 247t40 194.5t50.5 185.5h-154v106h258v-90q-98 -353 -114 -643h-111z" />
    <glyph glyph-name="uni2078" unicode="&#x2078;" horiz-adv-x="329" 
d="M166 725q-133 0 -133 127v188q0 61 47 82q-43 25 -43 86v150q0 119 127 119q129 0 129 -119v-150q0 -64 -43 -86q47 -20 47 -82v-188q0 -127 -131 -127zM166 1169q18 0 23.5 8.5t5.5 28.5v146q0 19 -7 26.5t-24 7.5q-29 0 -29 -34v-146q0 -37 31 -37zM164 823q33 0 33 37
v176q0 39 -31 39q-33 0 -33 -39v-176q0 -37 31 -37z" />
    <glyph glyph-name="uni2079" unicode="&#x2079;" horiz-adv-x="327" 
d="M164 725q-131 0 -131 123v156h102v-144q0 -37 29 -37q31 0 31 37v238q-21 -47 -74 -47q-90 0 -90 104v201q0 121 131 121q133 0 133 -121v-508q0 -123 -131 -123zM164 1133q31 0 31 51v164q0 20 -7 29t-24 9q-31 0 -31 -38v-177q0 -38 31 -38z" />
    <glyph glyph-name="uni207A" unicode="&#x207a;" horiz-adv-x="309" 
d="M201 1055v-90h-90v90h-82v90h82v88h90v-88h80v-90h-80z" />
    <glyph glyph-name="uni207B" unicode="&#x207b;" horiz-adv-x="309" 
d="M31 1053v96h248v-96h-248z" />
    <glyph glyph-name="uni207C" unicode="&#x207c;" horiz-adv-x="305" 
d="M31 1120v90h243v-90h-243zM31 981v90h243v-90h-243z" />
    <glyph glyph-name="uni207D" unicode="&#x207d;" horiz-adv-x="204" 
d="M35 1403q0 93 37 133.5t125 40.5v-102q-35 0 -47.5 -18t-12.5 -66v-588q0 -45 12.5 -62.5t47.5 -17.5v-107q-95 0 -128.5 36.5t-33.5 138.5v612z" />
    <glyph glyph-name="uni207E" unicode="&#x207e;" horiz-adv-x="204" 
d="M8 723q35 0 47.5 17.5t12.5 62.5v588q0 48 -12.5 66t-47.5 18v102q88 0 125 -40.5t37 -133.5v-612q0 -102 -33.5 -138.5t-128.5 -36.5v107z" />
    <glyph glyph-name="uni2080" unicode="&#x2080;" horiz-adv-x="325" 
d="M164 -10q-133 0 -133 116v510q0 60 34.5 92.5t98.5 32.5q133 0 133 -125v-510q0 -116 -133 -116zM164 86q31 0 31 37v491q0 39 -31 39t-31 -39v-491q0 -37 31 -37z" />
    <glyph glyph-name="uni2081" unicode="&#x2081;" horiz-adv-x="280" 
d="M16 0v102h74v435h-63v96q43 5 62.5 27t23.5 73h80v-631h73v-102h-250z" />
    <glyph glyph-name="uni2082" unicode="&#x2082;" horiz-adv-x="319" 
d="M27 104q0 112 82 209q26 31 41 52t27.5 52.5t12.5 63.5v131q0 37 -28 37q-29 0 -29 -37v-176h-106l2 182q0 59 34.5 91t98.5 32q133 0 133 -123v-143q0 -60 -19.5 -103t-56.5 -87q-38 -46 -58.5 -84t-21.5 -88l-4 -4h164v-109h-272v104z" />
    <glyph glyph-name="uni2083" unicode="&#x2083;" horiz-adv-x="317" 
d="M154 -10q-66 0 -98.5 31.5t-32.5 87.5v159h102v-141q0 -37 31 -37q30 0 30 37v156q0 41 -39 41h-43v108h46q34 0 34 41v137q0 37 -28 37q-29 0 -29 -37v-118h-102v133q0 55 33 85.5t96 30.5q65 0 98 -30.5t33 -85.5v-150q0 -75 -49 -90q53 -15 53 -86v-190
q0 -55 -34.5 -87t-100.5 -32z" />
    <glyph glyph-name="uni2084" unicode="&#x2084;" horiz-adv-x="323" 
d="M266 135v-135h-92v135h-164v86l156 512h100v-502h53v-96h-53zM106 231h68v172l23 199l-39 -190z" />
    <glyph glyph-name="uni2085" unicode="&#x2085;" horiz-adv-x="319" 
d="M160 -10q-129 0 -129 116v175h100v-154q0 -37 27 -37q18 0 23 7.5t5 29.5v260q0 37 -24 37q-20 0 -31 -31l-12 -33l-88 23l24 350h228v-16q0 -57 -19 -73.5t-82 -16.5h-37q-1 -27 -5 -80.5t-5 -69.5q26 47 72 47q82 0 82 -104v-314q0 -55 -33 -85.5t-96 -30.5z" />
    <glyph glyph-name="uni2086" unicode="&#x2086;" horiz-adv-x="321" 
d="M295 113q0 -123 -133 -123t-133 123v508q0 59 35 89.5t98 30.5q131 0 131 -120v-142h-103v135q0 37 -28 37q-31 0 -31 -37v-233q21 49 76 49q88 0 88 -102v-215zM162 88q31 0 31 37v186q0 37 -31 37q-28 0 -31 -31v-192q0 -37 31 -37z" />
    <glyph glyph-name="uni2087" unicode="&#x2087;" horiz-adv-x="286" 
d="M47 0q8 121 30.5 247t40 194.5t50.5 185.5h-154v106h258v-90q-98 -353 -114 -643h-111z" />
    <glyph glyph-name="uni2088" unicode="&#x2088;" horiz-adv-x="329" 
d="M166 -10q-133 0 -133 127v188q0 61 47 82q-43 25 -43 86v150q0 118 127 118q129 0 129 -118v-150q0 -64 -43 -86q47 -20 47 -82v-188q0 -127 -131 -127zM166 434q18 0 23.5 8.5t5.5 28.5v145q0 19 -7 27t-24 8q-29 0 -29 -35v-145q0 -37 31 -37zM164 88q33 0 33 37v176
q0 39 -31 39q-33 0 -33 -39v-176q0 -37 31 -37z" />
    <glyph glyph-name="uni2089" unicode="&#x2089;" horiz-adv-x="327" 
d="M164 -10q-131 0 -131 123v155h102v-143q0 -37 29 -37q31 0 31 37v237q-21 -47 -74 -47q-90 0 -90 105v201q0 120 131 120q133 0 133 -120v-508q0 -123 -131 -123zM164 397q31 0 31 52v163q0 39 -31 39t-31 -39v-176q0 -18 8.5 -28.5t22.5 -10.5z" />
    <glyph glyph-name="uni208A" unicode="&#x208a;" horiz-adv-x="309" 
d="M201 319v-90h-90v90h-82v91h82v88h90v-88h80v-91h-80z" />
    <glyph glyph-name="uni208B" unicode="&#x208b;" horiz-adv-x="309" 
d="M31 317v97h248v-97h-248z" />
    <glyph glyph-name="uni208C" unicode="&#x208c;" horiz-adv-x="305" 
d="M31 385v90h243v-90h-243zM31 246v90h243v-90h-243z" />
    <glyph glyph-name="uni208D" unicode="&#x208d;" horiz-adv-x="204" 
d="M35 668q0 93 37 133.5t125 40.5v-103q-35 0 -47.5 -18t-12.5 -66v-587q0 -45 12.5 -62.5t47.5 -17.5v-107q-95 0 -128.5 36t-33.5 138v613z" />
    <glyph glyph-name="uni208E" unicode="&#x208e;" horiz-adv-x="204" 
d="M8 -12q35 0 47.5 17.5t12.5 62.5v587q0 48 -12.5 66t-47.5 18v103q88 0 125 -40.5t37 -133.5v-613q0 -102 -33.5 -138t-128.5 -36v107z" />
    <glyph glyph-name="colonmonetary" unicode="&#x20a1;" horiz-adv-x="585" 
d="M270 -16q-5 1 -18.5 2t-18.5 2l-16 -228h-84l17 256q-101 60 -101 203v1030q0 97 50.5 156.5t142.5 73.5l12 207h84l-14 -203q5 -1 13 -1t15 -1t13 -4l14 209h84l-17 -236q95 -59 95 -197v-368h-146v352q0 54 -26 81.5t-72 27.5q-44 0 -70 -28.5t-26 -82.5v-997
q0 -50 26.5 -77.5t69.5 -27.5q44 0 71 26.5t27 76.5v397h148v-416q0 -101 -49.5 -159t-141.5 -70l-14 -228h-84z" />
    <glyph glyph-name="uni20A2" unicode="&#x20a2;" horiz-adv-x="671" 
d="M627 260q0 -133 -80 -204.5t-207 -71.5q-138 0 -214.5 74t-76.5 208v934q0 130 79.5 203.5t213.5 73.5q132 0 208 -71t77 -198v-258h-146v246q-3 141 -141 141q-139 0 -139 -147v-914q0 -108 67 -133v729h105l26 -118q11 61 47 90.5t105 29.5h24v-182h-61q-53 0 -72 -8
q-22 -7 -27 -33t-5 -98v-412q71 26 71 129v338h146v-348z" />
    <glyph glyph-name="franc" unicode="&#x20a3;" horiz-adv-x="387" 
d="M205 381v-381h-152v1468h314v-153h-162v-481h153v-152h-153v-150h153v-151h-153z" />
    <glyph glyph-name="lira" unicode="&#x20a4;" horiz-adv-x="657" 
d="M451 -23q-76 0 -158 78q-50 -78 -131 -78q-69 0 -109.5 34.5t-40.5 107.5q0 75 43 115t113 40q46 0 80 -22q2 14 2 47q0 103 -21 205h-159v119h133l-19 75h-114v119h84q-54 242 -54 385q0 281 226 281q121 0 172 -71t51 -249v-106h-152v92q0 118 -14.5 155t-56.5 37
q-35 0 -51.5 -29.5t-16.5 -109.5q0 -120 37 -385h162v-119h-142l11 -75h131v-119h-115q12 -99 12 -201q0 -65 -12 -123q52 -35 78 -35q29 0 39 26t10 103v119h154v-145q0 -154 -39 -212.5t-133 -58.5zM164 90q36 0 57 37q-35 35 -61 35q-13 0 -23 -9.5t-10 -25.5
q0 -37 37 -37z" />
    <glyph glyph-name="uni20A6" unicode="&#x20a6;" horiz-adv-x="686" 
d="M238 0h-136v594h-96v102h96v82h-96v103h96v587h123l199 -858l47 -223l-27 348v733h138v-587h98v-103h-98v-82h98v-102h-98v-594h-121l-203 868l-43 199l23 -326v-741z" />
    <glyph glyph-name="peseta" unicode="&#x20a7;" horiz-adv-x="1337" 
d="M207 489v-489h-154v1468h207q113 0 165 -49.5t52 -148.5v-96q51 0 88 16q19 10 28 23t17 38q14 47 17 107h110v-168h113v-154h-113v-702q0 -113 28 -150t112 -37h157q65 0 90 35t25 121v127q0 11 -2 20.5t-5 17.5t-9.5 17t-10.5 14.5t-14 13t-15 11.5t-17.5 11.5
l-17.5 10.5t-19.5 11t-18.5 10q-61 36 -95 80.5t-34 122.5v227q0 107 50.5 157t150.5 50q101 0 149.5 -51t48.5 -156v-243h-145v229q0 49 -11.5 67.5t-41.5 18.5q-27 0 -39.5 -19t-12.5 -65v-199q0 -16 6 -31t12.5 -25t23 -23t25.5 -18.5t31.5 -19t30.5 -18.5
q60 -32 94.5 -78t34.5 -127v-161q0 -142 -61 -213.5t-197 -71.5h-194q-144 0 -200 68t-56 237v731h-113v-329q0 -218 -215 -218h-55zM207 1337v-704h35q80 0 80 82v545q0 44 -17.5 60.5t-60.5 16.5h-37z" />
    <glyph glyph-name="uni20A8" unicode="&#x20a8;" horiz-adv-x="987" 
d="M201 629v-629h-148v1468h201q119 0 166 -43t47 -145v-418q0 -64 -19 -100t-61 -55q84 -27 84 -154v-242q0 -101 23 -133.5t94 -32.5h98q64 0 87.5 30.5t23.5 115.5v135q0 43 -27 70q-15 16 -37 31t-53.5 34t-48.5 31q-90 58 -90 178v227q0 107 50 157t150 50
q199 0 199 -207v-243h-145v229q0 49 -12 67.5t-42 18.5q-27 0 -39 -19t-12 -65v-199q0 -43 27 -67q19 -19 72.5 -50.5t68.5 -41.5q90 -62 90 -181v-186q0 -140 -52 -200t-175 -60h-168q-131 0 -182.5 59.5t-51.5 208.5v273q0 49 -16 68.5t-59 19.5h-43zM201 1337v-563h43
q78 0 78 80v408q0 43 -18.5 59t-65.5 16h-37z" />
    <glyph glyph-name="uni20A9" unicode="&#x20a9;" horiz-adv-x="741" 
d="M276 0h-137l-45 600h-86v92h80l-8 92h-72v95h66l-45 589h145l47 -845l4 -232l21 230l84 847h88l78 -845l20 -230l4 232l53 843h140l-47 -589h67v-95h-76l-6 -92h82v-92h-90l-47 -600h-131l-86 838l-8 172l-9 -172z" />
    <glyph glyph-name="uni20AA" unicode="&#x20aa;" horiz-adv-x="942" 
d="M199 1331v-1331h-146v1466h252q165 0 259.5 -85t94.5 -236v-789q0 -73 -37.5 -104t-109.5 -31v912q0 106 -56.5 152t-164.5 46h-92zM281 0v1253q78 0 111.5 -27t33.5 -93v-996h109q95 0 151.5 57.5t56.5 165.5v1106h148v-1114q0 -169 -88.5 -260.5t-255.5 -91.5h-266z
" />
    <glyph glyph-name="Euro" unicode="&#x20ac;" horiz-adv-x="565" 
d="M520 199q0 -112 -53 -163.5t-158 -51.5q-110 0 -162.5 51.5t-52.5 165.5v389h-80v117h80v94h-80v117h80v356q0 209 217 209q206 0 209 -205v-270h-151v254q0 84 -60 84q-59 0 -59 -86v-342h199l-27 -117h-172v-94h147l-26 -117h-121v-371q0 -45 13.5 -65.5t45.5 -20.5
q60 0 60 84v293h151v-311z" />
    <glyph glyph-name="uni20AE" unicode="&#x20ae;" horiz-adv-x="411" 
d="M281 641v-641h-152v578l-96 -41v100l96 39v67l-96 -41v101l96 39v483h-117v143h389v-143h-120v-420l98 41v-98l-98 -41v-68l98 41v-98z" />
    <glyph glyph-name="uni20B1" unicode="&#x20b1;" horiz-adv-x="565" 
d="M225 438v-438h-151v815h-68v103h68v88h-68v100h68v362h207q113 0 165 -49.5t52 -148.5v-164h61v-100h-61v-88h61v-103h-61v-160q0 -217 -215 -217h-58zM225 1337v-231h117v154q0 44 -17.5 60.5t-60.5 16.5h-39zM342 1006h-117v-88h117v88zM342 815h-117v-233h37
q80 0 80 82v151z" />
    <glyph glyph-name="uni2105" unicode="&#x2105;" horiz-adv-x="845" 
d="M203 782q-152 0 -152 160v393q0 72 39.5 112t112.5 40q72 0 112.5 -40t40.5 -112v-118h-106v102q0 38 -9.5 55t-37.5 17q-27 0 -36 -16.5t-9 -55.5v-363q0 -41 8.5 -57t36.5 -16t37.5 17.5t9.5 55.5v140h106v-154q0 -77 -38.5 -118.5t-114.5 -41.5zM604 1468h119
l-479 -1468h-121zM643 -20q-75 0 -113 41t-38 116v395q0 74 38 114t113 40q72 0 112 -41t40 -113v-395q0 -74 -38.5 -115.5t-113.5 -41.5zM643 80q28 0 37.5 18t9.5 56v364q0 35 -10 52.5t-37 17.5t-37 -18t-10 -52v-364q0 -39 9.5 -56.5t37.5 -17.5z" />
    <glyph glyph-name="uni2116" unicode="&#x2116;" horiz-adv-x="944" 
d="M743 643q-159 0 -159 156v528q0 75 42.5 111.5t116.5 36.5q75 0 117.5 -37t42.5 -111v-528q0 -156 -160 -156zM188 0h-135v1468h119l180 -860l25 -133l-19 260v733h138v-1468h-119l-182 870l-23 111l16 -240v-741zM743 758q37 0 37 47v514q0 28 -9 39.5t-28 11.5
t-27.5 -11t-8.5 -40v-514q0 -47 36 -47zM895 440h-305v129h305v-129z" />
    <glyph glyph-name="uni2117" unicode="&#x2117;" horiz-adv-x="901" 
d="M457 -31q-195 0 -301.5 102.5t-106.5 288.5v725q0 187 107.5 296.5t289.5 109.5q187 0 297.5 -103.5t110.5 -279.5v-739q0 -179 -104.5 -289.5t-292.5 -110.5zM457 98q126 0 194 69.5t68 201.5v739q0 122 -70.5 190t-202.5 68q-126 0 -194 -73.5t-68 -207.5v-723
q0 -127 69.5 -195.5t203.5 -68.5zM418 522v-327h-133v1079h170q176 0 176 -146v-442q0 -84 -39.5 -124t-122.5 -40h-51zM418 1157v-512h24q60 0 60 62v387q0 63 -64 63h-20z" />
    <glyph glyph-name="uni2120" unicode="&#x2120;" horiz-adv-x="681" 
d="M162 840q-63 0 -90 26.5t-27 83.5v144h88v-138q0 -38 29 -38q28 0 28 36v121q0 22 -13.5 35.5t-46.5 32.5q-5 3 -7 4q-28 20 -40.5 31t-24 32.5t-11.5 49.5v106q0 111 117 111q58 0 85 -27t27 -86v-115h-88v117q0 37 -26 37q-27 0 -27 -37v-100q0 -8 2.5 -14t9 -12.5
t12 -10.5t19.5 -13t23 -16q42 -24 60 -48t18 -73v-129q0 -110 -117 -110zM410 846h-84v622h82l65 -288l62 288h83v-622h-86v264l17 197l-23 -129l-47 -187h-14l-47 185l-25 135l17 -201v-264z" />
    <glyph glyph-name="trademark" unicode="&#x2122;" horiz-adv-x="628" 
d="M178 1378v-532h-92v532h-63v90h221v-90h-66zM358 846h-84v622h80l66 -288l63 288h82v-622h-84v264l17 197l-23 -129l-47 -187h-14l-49 185l-25 149l18 -215v-264z" />
    <glyph glyph-name="uni2126" unicode="&#x2126;" horiz-adv-x="827" 
d="M301 0h-276v160h180q-39 83 -82 200q-70 220 -70 482q0 249 45 385q78 256 316 256q110 0 192 -58q168 -127 168 -583q0 -136 -16 -264q-32 -201 -127 -418h182v-160h-274l-82 143q53 118 88 219q67 207 67 482q0 282 -61 401q-50 90 -137 90q-90 0 -135 -90
q-64 -112 -64 -401q0 -116 18 -256q35 -202 150 -445z" />
    <glyph glyph-name="uni2153" unicode="&#x2153;" horiz-adv-x="739" 
d="M375 834l160 649l155 -43l-272 -621zM51 735v103h74v434h-64v96q43 5 62.5 27t23.5 73h80v-630h74v-103h-250zM547 -10q-66 0 -98.5 31.5t-32.5 87.5v159h102v-141q0 -37 31 -37t31 37v156q0 41 -39 41h-43v108h45q35 0 35 41v137q0 37 -29 37t-29 -37v-118h-102v133
q0 55 33 85.5t96 30.5q65 0 98 -30.5t33 -85.5v-150q0 -75 -49 -90q53 -15 53 -86v-190q0 -55 -34.5 -87t-100.5 -32zM356 645l-143 -661l-162 49l266 626z" />
    <glyph glyph-name="uni2154" unicode="&#x2154;" horiz-adv-x="739" 
d="M375 834l160 649l155 -43l-272 -621zM51 840q0 112 82 209q27 32 41.5 52.5t27.5 52t13 63.5v131q0 36 -29 36q-28 0 -28 -36v-177h-107l2 183q0 59 34.5 91t98.5 32q133 0 133 -123v-144q0 -60 -19.5 -103.5t-55.5 -86.5q-38 -46 -58.5 -84t-21.5 -88l-4 -4h164v-109
h-273v105zM547 -10q-66 0 -98.5 31.5t-32.5 87.5v159h102v-141q0 -37 31 -37t31 37v156q0 41 -39 41h-43v108h45q35 0 35 41v137q0 37 -29 37t-29 -37v-118h-102v133q0 55 33 85.5t96 30.5q65 0 98 -30.5t33 -85.5v-150q0 -75 -49 -90q53 -15 53 -86v-190q0 -55 -34.5 -87
t-100.5 -32zM356 645l-143 -661l-162 49l266 626z" />
    <glyph glyph-name="uni2155" unicode="&#x2155;" horiz-adv-x="739" 
d="M375 834l160 649l155 -43l-272 -621zM51 735v103h74v434h-64v96q43 5 62.5 27t23.5 73h80v-630h74v-103h-250zM547 -10q-129 0 -129 116v175h100v-154q0 -37 27 -37q18 0 23 7.5t5 29.5v260q0 37 -24 37q-20 0 -31 -31l-12 -33l-88 23l24 350h228v-16q0 -57 -19 -73.5
t-82 -16.5h-37q-1 -27 -5 -80.5t-5 -69.5q26 47 72 47q82 0 82 -104v-314q0 -55 -33 -85.5t-96 -30.5zM356 645l-143 -661l-162 49l266 626z" />
    <glyph glyph-name="uni2156" unicode="&#x2156;" horiz-adv-x="739" 
d="M375 834l160 649l155 -43l-272 -621zM53 840q0 112 82 209q27 32 41.5 52.5t27.5 52t13 63.5v131q0 36 -29 36q-28 0 -28 -36v-177h-107l2 183q0 59 34.5 91t98.5 32q134 0 134 -123v-144q0 -60 -19.5 -103t-56.5 -87q-38 -46 -58.5 -84t-21.5 -88l-4 -4h164v-109h-273
v105zM547 -10q-129 0 -129 116v175h100v-154q0 -37 27 -37q18 0 23 7.5t5 29.5v260q0 37 -24 37q-20 0 -31 -31l-12 -33l-88 23l24 350h228v-16q0 -57 -19 -73.5t-82 -16.5h-37q-1 -27 -5 -80.5t-5 -69.5q26 47 72 47q82 0 82 -104v-314q0 -55 -33 -85.5t-96 -30.5zM356 645
l-143 -661l-162 49l266 626z" />
    <glyph glyph-name="uni2157" unicode="&#x2157;" horiz-adv-x="739" 
d="M375 834l160 649l155 -43l-272 -621zM180 725q-66 0 -98.5 31.5t-32.5 87.5v160h103v-142q0 -37 30 -37q31 0 31 37v156q0 41 -39 41h-43v108h45q35 0 35 41v138q0 36 -29 36q-28 0 -28 -36v-119h-103v133q0 55 33 86t96 31q65 0 98 -31t33 -86v-150q0 -75 -49 -90
q53 -15 53 -86v-190q0 -55 -34.5 -87t-100.5 -32zM547 -10q-129 0 -129 116v175h100v-154q0 -37 27 -37q18 0 23 7.5t5 29.5v260q0 37 -24 37q-20 0 -31 -31l-12 -33l-88 23l24 350h228v-16q0 -57 -19 -73.5t-82 -16.5h-37q-1 -27 -5 -80.5t-5 -69.5q26 47 72 47
q82 0 82 -104v-314q0 -55 -33 -85.5t-96 -30.5zM356 645l-143 -661l-162 49l266 626z" />
    <glyph glyph-name="uni2158" unicode="&#x2158;" horiz-adv-x="739" 
d="M375 834l160 649l155 -43l-272 -621zM285 870v-135h-92v135h-164v86l155 512h101v-501h53v-97h-53zM125 967h68v172l22 198l-39 -190zM547 -10q-129 0 -129 116v175h100v-154q0 -37 27 -37q18 0 23 7.5t5 29.5v260q0 37 -24 37q-20 0 -31 -31l-12 -33l-88 23l24 350h228
v-16q0 -57 -19 -73.5t-82 -16.5h-37q-1 -27 -5 -80.5t-5 -69.5q26 47 72 47q82 0 82 -104v-314q0 -55 -33 -85.5t-96 -30.5zM356 645l-143 -661l-162 49l266 626z" />
    <glyph glyph-name="uni2159" unicode="&#x2159;" horiz-adv-x="739" 
d="M375 834l160 649l155 -43l-272 -621zM51 735v103h74v434h-64v96q43 5 62.5 27t23.5 73h80v-630h74v-103h-250zM684 113q0 -123 -133 -123t-133 123v508q0 59 35 89.5t98 30.5q131 0 131 -120v-142h-102v135q0 37 -29 37q-31 0 -31 -37v-233q21 49 76 49q88 0 88 -102
v-215zM356 645l-143 -661l-162 49l266 626zM551 88q31 0 31 37v186q0 37 -31 37q-28 0 -31 -31v-192q0 -37 31 -37z" />
    <glyph glyph-name="uni215A" unicode="&#x215a;" horiz-adv-x="739" 
d="M375 834l160 649l155 -43l-272 -621zM180 725q-129 0 -129 117v174h101v-154q0 -37 26 -37q18 0 23.5 8t5.5 29v260q0 37 -25 37q-19 0 -30 -31l-13 -32l-88 22l25 350h227v-16q0 -58 -18.5 -74t-81.5 -16h-37q-1 -27 -5 -80.5t-5 -69.5q27 48 71 48q82 0 82 -105v-313
q0 -55 -33 -86t-96 -31zM684 113q0 -123 -133 -123t-133 123v508q0 59 35 89.5t98 30.5q131 0 131 -120v-142h-102v135q0 37 -29 37q-31 0 -31 -37v-233q21 49 76 49q88 0 88 -102v-215zM356 645l-143 -661l-162 49l266 626zM551 88q31 0 31 37v186q0 37 -31 37
q-28 0 -31 -31v-192q0 -37 31 -37z" />
    <glyph glyph-name="uni215B" unicode="&#x215b;" horiz-adv-x="739" 
d="M375 834l160 649l155 -43l-272 -621zM51 735v103h74v434h-64v96q43 5 62.5 27t23.5 73h80v-630h74v-103h-250zM553 -10q-133 0 -133 127v188q0 61 47 82q-43 25 -43 86v150q0 118 127 118q129 0 129 -118v-150q0 -64 -43 -86q47 -20 47 -82v-188q0 -127 -131 -127z
M356 645l-143 -661l-162 49l266 626zM553 434q18 0 23.5 8.5t5.5 28.5v145q0 19 -7 27t-24 8q-29 0 -29 -35v-145q0 -37 31 -37zM551 88q33 0 33 37v176q0 39 -31 39q-33 0 -33 -39v-176q0 -37 31 -37z" />
    <glyph glyph-name="uni215C" unicode="&#x215c;" horiz-adv-x="739" 
d="M375 834l160 649l155 -43l-272 -621zM178 725q-66 0 -98.5 31.5t-32.5 87.5v160h103v-142q0 -37 30 -37q31 0 31 37v156q0 41 -39 41h-43v108h45q35 0 35 41v138q0 36 -29 36q-28 0 -28 -36v-119h-103v133q0 55 33 86t96 31q65 0 98 -31t33 -86v-150q0 -75 -49 -90
q53 -15 53 -86v-190q0 -55 -34.5 -87t-100.5 -32zM553 -10q-133 0 -133 127v188q0 61 47 82q-43 25 -43 86v150q0 118 127 118q129 0 129 -118v-150q0 -64 -43 -86q47 -20 47 -82v-188q0 -127 -131 -127zM356 645l-143 -661l-162 49l266 626zM553 434q18 0 23.5 8.5
t5.5 28.5v145q0 19 -7 27t-24 8q-29 0 -29 -35v-145q0 -37 31 -37zM551 88q33 0 33 37v176q0 39 -31 39q-33 0 -33 -39v-176q0 -37 31 -37z" />
    <glyph glyph-name="uni215D" unicode="&#x215d;" horiz-adv-x="739" 
d="M375 834l160 649l155 -43l-272 -621zM180 725q-129 0 -129 117v174h101v-154q0 -37 26 -37q18 0 23.5 8t5.5 29v260q0 37 -25 37q-19 0 -30 -31l-13 -32l-88 22l25 350h227v-16q0 -58 -18.5 -74t-81.5 -16h-37q-1 -27 -5 -80.5t-5 -69.5q27 48 71 48q82 0 82 -105v-313
q0 -55 -33 -86t-96 -31zM553 -10q-133 0 -133 127v188q0 61 47 82q-43 25 -43 86v150q0 118 127 118q129 0 129 -118v-150q0 -64 -43 -86q47 -20 47 -82v-188q0 -127 -131 -127zM356 645l-143 -661l-162 49l266 626zM553 434q18 0 23.5 8.5t5.5 28.5v145q0 19 -7 27t-24 8
q-29 0 -29 -35v-145q0 -37 31 -37zM551 88q33 0 33 37v176q0 39 -31 39q-33 0 -33 -39v-176q0 -37 31 -37z" />
    <glyph glyph-name="uni215E" unicode="&#x215e;" horiz-adv-x="739" 
d="M375 834l160 649l155 -43l-272 -621zM123 735q8 121 30.5 247t40 194.5t50.5 185.5h-154v106h258v-90q-99 -358 -115 -643h-110zM553 -10q-133 0 -133 127v188q0 61 47 82q-43 25 -43 86v150q0 118 127 118q129 0 129 -118v-150q0 -64 -43 -86q47 -20 47 -82v-188
q0 -127 -131 -127zM356 645l-143 -661l-162 49l266 626zM553 434q18 0 23.5 8.5t5.5 28.5v145q0 19 -7 27t-24 8q-29 0 -29 -35v-145q0 -37 31 -37zM551 88q33 0 33 37v176q0 39 -31 39q-33 0 -33 -39v-176q0 -37 31 -37z" />
    <glyph glyph-name="uni215F" unicode="&#x215f;" horiz-adv-x="739" 
d="M375 834l160 649l155 -43l-272 -621zM51 735v103h74v434h-64v96q43 5 62.5 27t23.5 73h80v-630h74v-103h-250zM356 645l-143 -661l-162 49l266 626z" />
    <glyph glyph-name="arrowleft" unicode="&#x2190;" horiz-adv-x="1202" 
d="M299 653q143 -96 215 -256h-172q-21 55 -74 117q-47 58 -100 102.5t-98 65.5v86q45 23 98 70q122 100 174 219h166q-68 -160 -209 -258h817v-146h-817z" />
    <glyph glyph-name="arrowup" unicode="&#x2191;" horiz-adv-x="1202" 
d="M928 819q-157 69 -252 211v-815h-148v817q-99 -143 -258 -209v166q58 25 119 74q114 92 170 199h86q27 -53 68 -99q97 -122 215 -174v-170z" />
    <glyph glyph-name="arrowright" unicode="&#x2192;" horiz-adv-x="1202" 
d="M688 397q72 160 215 256h-817v146h817q-141 98 -209 258h166q23 -53 74 -117q89 -111 199 -172v-86q-50 -23 -99 -66q-122 -100 -174 -219h-172z" />
    <glyph glyph-name="arrowdown" unicode="&#x2193;" horiz-adv-x="1202" 
d="M557 211q-20 43 -68 98q-97 123 -217 174v170q150 -65 254 -211v815h146v-817q102 142 260 209v-166q-61 -24 -119 -73q-111 -89 -172 -199h-84z" />
    <glyph glyph-name="uni2196" unicode="&#x2196;" horiz-adv-x="1202" 
d="M920 317l-580 580q29 -178 -35 -332l-117 117q24 61 33 137q14 168 -20 260l59 62q69 -21 117 -23q163 -14 276 29l119 -119q-158 -60 -328 -29l578 -577z" />
    <glyph glyph-name="uni2197" unicode="&#x2197;" horiz-adv-x="1202" 
d="M901 565q-59 155 -31 328l-575 -578l-105 103l580 579q-168 -27 -332 35l117 117q61 -24 135 -33q142 -12 262 21l60 -60q-21 -69 -23 -116q-14 -159 31 -277z" />
    <glyph glyph-name="uni2198" unicode="&#x2198;" horiz-adv-x="1202" 
d="M950 324q-66 20 -116 22q-163 14 -277 -29l-119 119q158 60 328 29l-578 577l103 105l579 -580q-27 168 35 332l117 -117q-24 -61 -33 -137q-11 -141 21 -260z" />
    <glyph glyph-name="uni2199" unicode="&#x2199;" horiz-adv-x="1202" 
d="M655 315q-53 21 -137 31q-164 13 -260 -20l-61 61q20 65 22 117q14 163 -29 276l119 119q59 -155 31 -328l575 576l105 -103l-578 -577q169 28 330 -35z" />
    <glyph glyph-name="partialdiff" unicode="&#x2202;" horiz-adv-x="512" 
d="M256 -16q-105 0 -157 51t-52 168v784q0 114 39 165.5t123 51.5q83 0 117 -61q-24 108 -94.5 194.5t-206.5 163.5h196q121 -71 182.5 -203.5t61.5 -312.5v-782q0 -219 -209 -219zM256 125q57 0 57 86v770q0 86 -57 86q-30 0 -43.5 -20t-13.5 -66v-770q0 -86 57 -86z" />
    <glyph glyph-name="uni2206" unicode="&#x2206;" horiz-adv-x="628" 
d="M14 0l299 1491l301 -1491h-600zM315 836l-131 -693h262z" />
    <glyph glyph-name="product" unicode="&#x220f;" horiz-adv-x="677" 
d="M399 1323h-127v-1323h-153v1323h-105v145h650v-145h-111v-1323h-154v1323z" />
    <glyph glyph-name="summation" unicode="&#x2211;" horiz-adv-x="411" 
d="M385 0h-367v141l172 619l-161 563v145h350v-151h-199l164 -561l-168 -604h209v-152z" />
    <glyph glyph-name="minus" unicode="&#x2212;" horiz-adv-x="581" 
d="M66 643v133h448v-133h-448z" />
    <glyph glyph-name="radical" unicode="&#x221a;" horiz-adv-x="675" 
d="M244 0l-133 846h-82v160h200l93 -600l194 1062h152l-279 -1468h-145z" />
    <glyph glyph-name="infinity" unicode="&#x221e;" horiz-adv-x="1034" 
d="M270 518q-110 0 -168.5 57.5t-58.5 165.5q0 97 64 160.5t165 63.5q35 0 65.5 -8t50.5 -16.5t47.5 -30.5t39.5 -33.5t43 -42.5q45 45 73 68t76.5 43t104.5 20q95 0 157 -63.5t62 -160.5q0 -101 -60 -161t-161 -60q-43 0 -77.5 8.5t-67 30t-52 38.5t-55.5 52
q-37 -36 -55.5 -52.5t-51 -38.5t-66.5 -31t-75 -9zM281 657q26 0 52 13t43 27t48 44q-43 45 -74 65.5t-69 20.5q-35 0 -61.5 -25.5t-26.5 -60.5q0 -36 25 -60t63 -24zM758 657q38 0 64 24.5t26 59.5q0 36 -26.5 61t-63.5 25t-66.5 -20t-75.5 -66q61 -56 85 -69
q27 -15 57 -15z" />
    <glyph glyph-name="integral" unicode="&#x222b;" horiz-adv-x="368" 
d="M6 -141h53q28 0 37.5 12.5t9.5 44.5v1360q0 126 41.5 173.5t147.5 47.5h67v-145h-43q-33 0 -46 -17t-13 -65v-1364q0 -110 -37 -152.5t-139 -42.5h-78v148z" />
    <glyph glyph-name="approxequal" unicode="&#x2248;" horiz-adv-x="575" 
d="M172 950q44 0 82 -14q15 -5 41.5 -14t42.5 -14.5t37.5 -10t38.5 -4.5q32 0 56.5 17t35.5 44v-141q-9 -16 -37 -32.5t-55 -16.5q-39 0 -86 14q-13 4 -40 13.5t-42.5 15t-37 10t-38.5 4.5q-28 0 -59 -17t-41 -42v139q11 18 41 33.5t61 15.5zM70 672q11 18 40 33.5t58 15.5
q46 0 84 -14q12 -4 40 -14t43.5 -15t38 -9.5t40.5 -4.5q61 0 92 57v-139q-9 -17 -34 -32t-58 -15q-39 0 -86 14q-15 5 -41.5 14t-42.5 14.5t-37.5 10t-38.5 4.5q-28 0 -57.5 -19t-40.5 -41v140z" />
    <glyph glyph-name="notequal" unicode="&#x2260;" horiz-adv-x="575" 
d="M283 539l-29 -117h-88l29 117h-125v127h157l31 116h-188v127h219l26 103h88l-26 -103h129v-127h-160l-31 -116h191v-127h-223z" />
    <glyph glyph-name="equivalence" unicode="&#x2261;" horiz-adv-x="575" 
d="M70 920v135h436v-135h-436zM70 670v137h436v-137h-436zM70 424v135h436v-135h-436z" />
    <glyph glyph-name="lessequal" unicode="&#x2264;" horiz-adv-x="575" 
d="M63 799v125l443 178v-150l-256 -88l256 -92v-154zM66 422v135h440v-135h-440z" />
    <glyph glyph-name="greaterequal" unicode="&#x2265;" horiz-adv-x="575" 
d="M72 772l256 92l-256 88v150l442 -178v-125l-442 -181v154zM72 422v135h440v-135h-440z" />
    <glyph glyph-name="uni22A0" unicode="&#x22a0;" horiz-adv-x="1751" 
d="M145 1468h1461v-1468h-1461v1468zM520 362h711v744h-711v-744zM874 618l-174 -180l-118 117l178 182l-180 185l120 114l177 -180l176 182l118 -114l-180 -187l178 -182l-118 -119z" />
    <glyph glyph-name="house" unicode="&#x2302;" horiz-adv-x="1728" 
d="M203 0v823l661 635l662 -635v-823h-1323z" />
    <glyph glyph-name="filledbox" unicode="&#x25a0;" horiz-adv-x="1751" 
d="M145 1468h1461v-1468h-1461v1468z" />
    <glyph glyph-name="uni25A1" unicode="&#x25a1;" horiz-adv-x="1751" 
d="M145 0v1468h1461v-1468h-1461zM520 1106v-744h711v744h-711z" />
    <glyph glyph-name="uni25AA" unicode="&#x25aa;" horiz-adv-x="1462" 
d="M143 1176h1176v-1176h-1176v1176z" />
    <glyph glyph-name="uni25AB" unicode="&#x25ab;" horiz-adv-x="1462" 
d="M143 1176h1176v-1176h-1176v1176zM481 326h502v526h-502v-526z" />
    <glyph glyph-name="triagup" unicode="&#x25b2;" horiz-adv-x="1818" 
d="M41 0l870 1505l867 -1505h-1737z" />
    <glyph glyph-name="triagrt" unicode="&#x25ba;" horiz-adv-x="1818" 
d="M203 1622l1505 -868l-1505 -869v1737z" />
    <glyph glyph-name="triagdn" unicode="&#x25bc;" horiz-adv-x="1818" 
d="M1778 1481l-867 -1506l-870 1506h1737z" />
    <glyph glyph-name="triaglf" unicode="&#x25c4;" horiz-adv-x="1818" 
d="M1616 -115l-1505 869l1505 868v-1737z" />
    <glyph glyph-name="lozenge" unicode="&#x25ca;" horiz-adv-x="681" 
d="M23 741l317 318l322 -320l-320 -317zM342 608l133 131l-135 133l-129 -131z" />
    <glyph glyph-name="circle" unicode="&#x25cb;" horiz-adv-x="1792" 
d="M895 -23q-221 0 -387 97q-170 98 -264 266.5t-94 384.5q0 326 208 537q99 102 237 157.5t300 55.5q325 0 539 -211q211 -211 211 -539q0 -326 -209 -535q-210 -213 -541 -213zM895 338q114 0 197 51q87 53 135.5 140.5t48.5 195.5q0 111 -49 199q-50 93 -135 143.5
t-197 50.5q-107 0 -195 -51q-88 -55 -136 -142.5t-48 -199.5t49 -197q50 -90 136 -140t194 -50z" />
    <glyph glyph-name="uni25CE" unicode="&#x25ce;" horiz-adv-x="1851" 
d="M924 -20q-221 0 -385 96q-169 96 -263 264.5t-94 384.5q0 326 209 535q204 213 533 213q323 0 534 -211t211 -537t-209 -535q-204 -210 -536 -210zM924 244q140 0 245 63q110 66 172 174t62 244q0 134 -62 246q-66 113 -173.5 177t-243.5 64q-131 0 -242 -63
q-110 -67 -171.5 -176.5t-61.5 -247.5q0 -141 63 -246q62 -110 171 -172.5t241 -62.5zM926 379q-104 0 -178 45q-79 45 -123.5 123.5t-44.5 175.5q0 104 45 178q48 79 126.5 123.5t174.5 44.5q104 0 178 -45q80 -45 125 -123.5t45 -177.5q0 -102 -45 -176
q-45 -79 -124 -123.5t-179 -44.5zM926 606q49 0 79.5 33.5t30.5 83.5q0 54 -30 86.5t-80 32.5q-48 0 -78.5 -33t-30.5 -86q0 -50 31 -83.5t78 -33.5z" />
    <glyph glyph-name="uni25CF" unicode="&#x25cf;" horiz-adv-x="1792" 
d="M895 -23q-221 0 -387 97q-170 98 -264 266.5t-94 384.5q0 326 208 537q99 102 237 157.5t300 55.5q325 0 539 -211q211 -211 211 -539q0 -326 -209 -535q-210 -213 -541 -213z" />
    <glyph glyph-name="uni25E2" unicode="&#x25e2;" horiz-adv-x="1818" 
d="M541 -147l-449 1679l1677 -451z" />
    <glyph glyph-name="uni25E3" unicode="&#x25e3;" horiz-adv-x="1818" 
d="M53 1081l1680 451l-451 -1679z" />
    <glyph glyph-name="uni25E4" unicode="&#x25e4;" horiz-adv-x="1818" 
d="M59 340l1229 1229l451 -1678z" />
    <glyph glyph-name="uni25E5" unicode="&#x25e5;" horiz-adv-x="1818" 
d="M90 -117l451 1678l1226 -1231z" />
    <glyph glyph-name="uni2605" unicode="&#x2605;" horiz-adv-x="1824" 
d="M1286 172l-379 274l-379 -274l148 444l-377 275l463 -2l147 442l144 -442l467 -2l-381 -273z" />
    <glyph glyph-name="sun" unicode="&#x263c;" horiz-adv-x="1882" 
d="M881 1440h108l-35 -289h-39zM528 1319l97 55l110 -268l-28 -21zM1245 1374l94 -55l-176 -234l-30 21zM285 1034l55 94l233 -176l-20 -30zM1526 1128l59 -92l-268 -114l-21 32zM582 721q0 95 47 178q51 81 130.5 128.5t174.5 47.5q99 0 176 -47q84 -50 131 -130t47 -177
q0 -100 -49 -176q-48 -81 -129 -128.5t-176 -47.5q-99 0 -176 47q-81 51 -128.5 130.5t-47.5 174.5zM219 670v108l289 -35v-38zM1651 778v-108l-289 35v38zM344 317l-59 95l268 112l20 -30zM1585 414l-55 -97l-234 179l21 28zM625 74l-97 55l179 233l28 -20zM1339 129
l-94 -55l-112 268l30 20zM989 8h-108l34 289h39z" />
    <glyph glyph-name="uni263E" unicode="&#x263e;" horiz-adv-x="1595" 
d="M1083 1227q-133 0 -243 -70q-112 -69 -177 -185t-65 -255q0 -134 66 -254q67 -118 177 -186t242 -68q63 0 144 24q-160 -116 -361 -116q-248 0 -424 176t-176 424q0 250 176 426t424 176q200 0 361 -117q-84 25 -144 25z" />
    <glyph glyph-name="spade" unicode="&#x2660;" horiz-adv-x="1828" 
d="M979 575q0 -146 80 -339q28 -61 72 -145t47 -91h-514q5 10 29 58.5t42 82.5q117 240 117 434q-23 -66 -70 -129q-97 -139 -268 -139q-99 0 -170 43q-78 44 -124 115t-46 156q0 114 49 208q45 93 144.5 193.5t275.5 239.5l279 221l278 -221q172 -136 264 -234
q101 -103 145 -197.5t44 -209.5q0 -90 -43 -158q-42 -72 -113 -114t-158 -42q-100 0 -168 39q-130 69 -192 229z" />
    <glyph glyph-name="club" unicode="&#x2663;" horiz-adv-x="1828" 
d="M1313 260q-112 0 -197.5 65.5t-128.5 172.5q11 -97 51 -203q17 -45 40 -95t36.5 -76t38.5 -73.5t27 -50.5h-514q54 104 63 123q101 202 121 375q-43 -106 -131.5 -172t-202.5 -66q-95 0 -178 47q-81 51 -127.5 131t-46.5 176q0 100 47 177q48 80 128.5 127t176.5 47
q26 0 84 -13q-41 90 -41 174q0 97 47 174q48 80 128.5 126.5t176.5 46.5t176 -48q79 -45 126 -124.5t47 -174.5q0 -96 -39 -178q53 17 94 17q103 0 176 -47q81 -48 126.5 -127.5t45.5 -176.5q0 -100 -47 -178q-48 -81 -127.5 -128.5t-175.5 -47.5z" />
    <glyph glyph-name="heart" unicode="&#x2665;" horiz-adv-x="1828" 
d="M629 279q-170 189 -264 325q-100 139 -144.5 257.5t-44.5 236.5q0 103 49 188q48 86 131.5 136.5t184.5 50.5q96 0 180 -41q79 -43 128.5 -115.5t59.5 -163.5q18 141 117 230.5t248 89.5q103 0 188 -52q88 -52 138.5 -137t50.5 -186q0 -120 -47 -234
q-43 -117 -142.5 -255t-273.5 -330l-279 -314z" />
    <glyph glyph-name="diamond" unicode="&#x2666;" horiz-adv-x="1828" 
d="M915 1489l648 -752l-648 -757l-651 757z" />
    <glyph glyph-name="uni267B" unicode="&#x267b;" horiz-adv-x="1681" 
d="M711 1380h331q26 -1 37 -1.5t32 -5t32.5 -12.5t27 -23t27.5 -38l49 -83l76 43l-109 -289l-292 55l67 41l-123 215q-22 43 -63 66q-22 12 -45 19.5t-35 8.5l-12 2v2zM475 1274q19 33 57 53q54 28 111 25q59 -4 106.5 -28.5t65.5 -57.5l-199 -344l-258 147zM1520 745
q16 -28 16 -73q0 -62 -33 -109q-35 -48 -79.5 -77t-82.5 -29l-198 344l256 145zM332 254l-164 287q-19 33 -26.5 54t-4.5 53t23 69l49 84l-74 43l301 53l101 -287l-70 43l-61 -104q-61 -101 -64 -111q-25 -48 -25 -86q0 -25 4.5 -49.5t9.5 -36.5l5 -12h-4zM1501 498
l-168 -289q-18 -27 -26 -38t-26 -28t-41.5 -23.5t-55.5 -6.5h-99v-84l-192 233l192 234v-86h248q49 0 88 22q22 14 41.5 31t27.5 27l9 10zM551 113q-39 0 -76 22q-57 37 -78 84q-26 53 -28.5 107t16.5 84h397v-297h-231z" />
    <glyph glyph-name="uni267C" unicode="&#x267c;" horiz-adv-x="1681" 
d="M1528 717q0 -139 -52.5 -263.5t-148.5 -220.5q-198 -198 -483 -198q-290 0 -488 198q-98 96 -150 220t-52 264q0 287 202 489q201 201 488 201q139 0 262.5 -52t220.5 -149q201 -204 201 -489zM727 1239l23 -4q72 -18 100 -72l96 -166l-53 -32l229 -43l80 223l-57 -31
l-37 64q-24 40 -51 51.5t-72 11.5h-258v-2zM465 999l201 -114l151 266q-11 23 -51 45q-93 47 -168 2q-32 -18 -43 -43zM1272 905l-201 -117l156 -268q25 0 63 23q86 60 86 149q0 30 -16 58zM446 367q-4 6 -6 22q-22 60 11 123l96 166l55 -35l-80 221l-229 -39l55 -34
l-39 -66q-8 -14 -12.5 -27.5t-6 -23t1.5 -23t5.5 -20t9 -22t8.5 -21.5l129 -221h2zM1346 555l-15 -16q-39 -50 -112 -50h-191v62l-151 -178l151 -180v67h76q26 0 44 4.5t32 18t19.5 21t19.5 28.5l129 221zM786 260v229h-309q-15 -24 -12 -67q2 -43 23.5 -83.5t58.5 -62.5
q37 -16 59 -16h180z" />
    <glyph glyph-name="uni267D" unicode="&#x267d;" horiz-adv-x="1681" 
d="M1528 717q0 -139 -52.5 -263.5t-148.5 -220.5q-198 -198 -483 -198q-290 0 -488 198q-98 96 -150 220t-52 264q0 287 202 489q201 201 488 201q139 0 262.5 -52t220.5 -149q201 -204 201 -489zM1493 717q0 275 -190 465q-187 190 -459 190q-134 0 -252.5 -49t-210.5 -141
q-193 -193 -193 -465q0 -133 50.5 -250.5t142.5 -208.5q92 -92 210.5 -141t252.5 -49q272 0 459 190q190 187 190 459zM727 1241h258q45 0 72 -11.5t51 -51.5l37 -64l57 31l-80 -223l-229 43l53 32l-96 166q-20 33 -49 49q-17 10 -35.5 17t-28.5 9l-10 1v2zM555 1155
q11 25 43 43q40 24 86 21q45 -5 83 -23.5t50 -44.5l-151 -266l-201 114zM1360 750q16 -28 16 -58q0 -48 -24 -86q-26 -38 -61 -62t-64 -24l-156 268l201 117zM444 367l-129 221q-2 6 -8.5 21.5t-9 22t-5.5 20t-1.5 23t6 23t12.5 27.5l39 66l-55 34l229 39l80 -221l-55 35
l-96 -166q-19 -31 -19 -68q0 -21 3.5 -40t6.5 -28l4 -9h-2zM1348 553l-129 -221q-14 -21 -19.5 -28.5t-19.5 -21t-32 -18t-44 -4.5h-76v-67l-151 180l151 178v-62h191q38 0 69 17q17 10 31.5 22.5t20.5 19.5l6 7zM606 260q-22 0 -59 16q-39 23 -60 64q-20 40 -22 83t12 66
h309v-229h-180z" />
    <glyph glyph-name="uni26AC" unicode="&#x26ac;" horiz-adv-x="1439" 
d="M719 -20q-182 0 -318 77q-140 80 -217.5 218.5t-77.5 314.5t80 313q79 139 218.5 218t314.5 79q173 0 317 -78q142 -81 220.5 -218t78.5 -314q0 -180 -80 -311q-79 -141 -218 -220t-318 -79zM719 309q120 0 193 79t73 202q0 124 -73 203t-193 79q-119 0 -191.5 -79
t-72.5 -203q0 -123 72.5 -202t191.5 -79z" />
    <glyph glyph-name="uni2E18" unicode="&#x2e18;" horiz-adv-x="618" 
d="M303 1206q55 0 73.5 -26t18.5 -109q0 -82 -18.5 -107.5t-73.5 -25.5q-56 0 -74 25.5t-18 107.5t19.5 108.5t72.5 26.5zM315 -289q-138 0 -205 64.5t-67 169.5v350q0 69 26 123.5t74 118.5q33 45 50.5 73.5t34 76t16.5 97.5v99q18 -11 59 -11q36 0 62 11l4 -109
q4 -98 4 -178q1 -46 2.5 -132t2.5 -153.5t1 -120.5v-344q59 26 59 105v395h140v-403q0 -107 -64.5 -169.5t-198.5 -62.5zM184 -47q0 -80 60 -105v345q0 50 2.5 173t3.5 156q-13 -66 -27 -90q-15 -27 -21.5 -42t-12 -43.5t-5.5 -65.5v-328z" />
    <glyph glyph-name="uni3008" unicode="&#x3008;" horiz-adv-x="385" 
d="M217 -301l-180 895l176 874h154l-179 -874l183 -895h-154z" />
    <glyph glyph-name="uni3009" unicode="&#x3009;" horiz-adv-x="385" 
d="M14 -301l183 895l-179 874h154l176 -874l-180 -895h-154z" />
    <glyph glyph-name="I.alt" horiz-adv-x="266" 
d="M53 0v1468h160v-1468h-160z" />
    <glyph glyph-name="Iacute.alt" horiz-adv-x="266" 
d="M184 1769h154l-150 -231h-112zM53 0v1468h160v-1468h-160z" />
    <glyph glyph-name="Ibreve.alt" horiz-adv-x="266" 
d="M133 1536q-99 0 -135.5 49t-36.5 172h111q0 -67 12 -88.5t49 -23.5q36 0 49 23.5t13 88.5h110q0 -121 -38.5 -171t-133.5 -50zM53 0v1468h160v-1468h-160z" />
    <glyph glyph-name="Icircumflex.alt" horiz-adv-x="266" 
d="M135 1667l-57 -129h-115l121 248h102l121 -248h-119zM53 0v1468h160v-1468h-160z" />
    <glyph glyph-name="Idieresis.alt" horiz-adv-x="266" 
d="M39 1534q-39 0 -55.5 20t-16.5 74t17 76t55 22q41 0 56.5 -21t15.5 -77q0 -52 -15.5 -73t-56.5 -21zM229 1534q-43 0 -57 19t-14 75q0 55 16 76.5t55 21.5q38 0 55 -22t17 -76q0 -51 -17 -72.5t-55 -21.5zM53 0v1468h160v-1468h-160z" />
    <glyph glyph-name="Idotaccent.alt" horiz-adv-x="266" 
d="M133 1538q-50 0 -68 21.5t-18 85.5q0 62 20 85t66 23t65 -22.5t19 -85.5q0 -62 -19 -84.5t-65 -22.5zM53 0v1468h160v-1468h-160z" />
    <glyph glyph-name="Igrave.alt" horiz-adv-x="266" 
d="M-39 1769h152l77 -231h-106zM53 0v1468h160v-1468h-160z" />
    <glyph glyph-name="Imacron.alt" horiz-adv-x="266" 
d="M-4 1686h270v-134h-270v134zM53 0v1468h160v-1468h-160z" />
    <glyph glyph-name="Iogonek.alt" horiz-adv-x="266" 
d="M307 -129q-10 -90 -54 -131t-122 -41q-158 0 -158 141q0 81 82 160h-2v1468h160v-1468q-74 -65 -97.5 -95.5t-23.5 -54.5q0 -40 43 -40q44 0 47 61h125z" />
    <glyph glyph-name="Itilde.alt" horiz-adv-x="266" 
d="M-57 1540q0 128 23 174.5t87 46.5q44 0 66 -22q13 -10 30.5 -28t29.5 -28t22 -10q17 0 22.5 16t5.5 66h103q0 -122 -25 -170.5t-86 -48.5q-42 0 -65 23q-9 8 -23.5 22.5t-23 22t-19.5 14t-20 6.5q-14 0 -19.5 -18.5t-5.5 -65.5h-102zM53 0v1468h160v-1468h-160z" />
    <glyph glyph-name="g.alt" horiz-adv-x="503" 
d="M236 -289q-218 0 -218 137q0 42 30.5 78t78.5 54q-94 24 -94 120q0 88 100 123q-88 28 -88 146v643q0 147 125 182q13 0 37 8q64 11 85 23t21 41v45h144v-21q0 -57 -26 -75t-97 -23q125 -26 125 -184v-641q0 -94 -54 -141.5t-149 -47.5h-14q-80 0 -80 -43q0 -21 19.5 -30
t68.5 -9h55q106 0 153.5 -42t47.5 -124v-10q0 -89 -74 -149t-194 -60h-2zM252 309q59 0 59 66v631q-1 35 -15.5 51t-43.5 16q-12 0 -14 -2q-43 -10 -43 -65v-631q0 -66 57 -66zM250 -164q45 0 76.5 22t31.5 54v8q0 49 -88 49h-14q-38 0 -66 -19t-28 -50v-9q0 -24 22.5 -39.5
t59.5 -15.5h6z" />
    <glyph glyph-name="gbreve.alt" horiz-adv-x="516" 
d="M260 1255q-99 0 -135.5 49.5t-36.5 172.5h111q0 -67 12 -89t49 -24q36 0 49 23.5t13 89.5h110q0 -121 -38.5 -171.5t-133.5 -50.5zM254 -385q-108 0 -154.5 49.5t-46.5 155.5v86h146v-76q0 -46 12.5 -63t42.5 -17q35 0 48 17.5t13 64.5v248q-12 -54 -38.5 -75t-75.5 -21
q-80 0 -117 56.5t-37 201.5v686q0 108 16 170q18 58 52.5 81t91.5 23q99 0 127 -104l16 92h115v-1368q0 -207 -211 -207zM258 119q57 0 57 108v725q0 61 -12.5 89t-48.5 28q-31 0 -43 -26.5t-12 -106.5v-692q0 -70 13 -97.5t46 -27.5z" />
    <glyph glyph-name="gcircumflex.alt" horiz-adv-x="516" 
d="M262 1386l-57 -129h-115l121 248h102l121 -248h-119zM254 -385q-108 0 -154.5 49.5t-46.5 155.5v86h146v-76q0 -46 12.5 -63t42.5 -17q35 0 48 17.5t13 64.5v248q-12 -54 -38.5 -75t-75.5 -21q-80 0 -117 56.5t-37 201.5v686q0 108 16 170q18 58 52.5 81t91.5 23
q99 0 127 -104l16 92h115v-1368q0 -207 -211 -207zM258 119q57 0 57 108v725q0 61 -12.5 89t-48.5 28q-31 0 -43 -26.5t-12 -106.5v-692q0 -70 13 -97.5t46 -27.5z" />
    <glyph glyph-name="gcommaaccent.alt" horiz-adv-x="516" 
d="M262 1266q-47 0 -65.5 28t-18.5 101q0 197 150 209v-84q-54 -3 -64 -72q2 2 15 2q35 0 50 -17.5t15 -70.5q0 -51 -19 -73.5t-63 -22.5zM254 -385q-108 0 -154.5 49.5t-46.5 155.5v86h146v-76q0 -46 12.5 -63t42.5 -17q35 0 48 17.5t13 64.5v248q-12 -54 -38.5 -75
t-75.5 -21q-80 0 -117 56.5t-37 201.5v686q0 108 16 170q18 58 52.5 81t91.5 23q99 0 127 -104l16 92h115v-1368q0 -207 -211 -207zM258 119q57 0 57 108v725q0 61 -12.5 89t-48.5 28q-31 0 -43 -26.5t-12 -106.5v-692q0 -70 13 -97.5t46 -27.5z" />
    <glyph glyph-name="gdotaccent.alt" horiz-adv-x="516" 
d="M258 1257q-50 0 -68 21.5t-18 85.5q0 62 20 85.5t66 23.5t65 -23t19 -86q0 -62 -19 -84.5t-65 -22.5zM254 -385q-108 0 -154.5 49.5t-46.5 155.5v86h146v-76q0 -46 12.5 -63t42.5 -17q35 0 48 17.5t13 64.5v248q-12 -54 -38.5 -75t-75.5 -21q-80 0 -117 56.5t-37 201.5
v686q0 108 16 170q18 58 52.5 81t91.5 23q99 0 127 -104l16 92h115v-1368q0 -207 -211 -207zM258 119q57 0 57 108v725q0 61 -12.5 89t-48.5 28q-31 0 -43 -26.5t-12 -106.5v-692q0 -70 13 -97.5t46 -27.5z" />
    <glyph glyph-name="g.alt2" horiz-adv-x="516" 
d="M254 -385q-108 0 -154.5 49.5t-46.5 155.5v86h146v-76q0 -46 12.5 -63t42.5 -17q35 0 48 17.5t13 64.5v248q-12 -54 -38.5 -75t-75.5 -21q-80 0 -117 56.5t-37 201.5v686q0 108 16 170q18 58 52.5 81t91.5 23q99 0 127 -104l16 92h115v-1368q0 -207 -211 -207zM258 119
q57 0 57 108v725q0 61 -12.5 89t-48.5 28q-31 0 -43 -26.5t-12 -106.5v-692q0 -70 13 -97.5t46 -27.5z" />
    <glyph glyph-name="i.dot" horiz-adv-x="251" 
d="M127 1237q-51 0 -67.5 23t-16.5 96t15.5 95t68.5 22t68.5 -22t15.5 -95q0 -71 -18 -95t-66 -24zM51 1194q20 -20 76 -20t76 20v-1194h-152v1194z" />
    <glyph glyph-name="zero.inf" horiz-adv-x="325" 
d="M164 -317q-133 0 -133 116v510q0 60 34.5 92.5t98.5 32.5q133 0 133 -125v-510q0 -116 -133 -116zM164 -221q31 0 31 37v491q0 39 -31 39t-31 -39v-491q0 -37 31 -37z" />
    <glyph glyph-name="one.inf" horiz-adv-x="280" 
d="M16 -307v102h74v434h-63v97q43 5 62.5 27t23.5 73h80v-631h73v-102h-250z" />
    <glyph glyph-name="two.inf" horiz-adv-x="317" 
d="M25 -203q0 113 81 209q27 32 41.5 52.5t27.5 52t13 63.5v131q0 37 -28 37q-29 0 -29 -37v-176h-106l2 182q0 59 34.5 91t98.5 32q133 0 133 -123v-143q0 -60 -20 -103.5t-56 -87.5q-38 -46 -58.5 -84t-21.5 -88l-4 -4h164v-108h-272v104z" />
    <glyph glyph-name="three.inf" horiz-adv-x="317" 
d="M154 -317q-66 0 -98.5 31t-32.5 87v160h102v-141q0 -37 31 -37q30 0 30 37v155q0 41 -39 41h-43v109h46q34 0 34 41v137q0 37 -28 37q-29 0 -29 -37v-119h-102v133q0 55 33 86t96 31q65 0 98 -31t33 -86v-149q0 -75 -49 -90q53 -15 53 -86v-191q0 -55 -34.5 -86.5
t-100.5 -31.5z" />
    <glyph glyph-name="four.inf" horiz-adv-x="323" 
d="M266 -172v-135h-92v135h-164v86l156 512h100v-502h53v-96h-53zM106 -76h68v172l23 199l-39 -191z" />
    <glyph glyph-name="five.inf" horiz-adv-x="319" 
d="M160 -317q-129 0 -129 116v174h100v-153q0 -37 27 -37q18 0 23 7.5t5 29.5v260q0 37 -24 37q-20 0 -31 -31l-12 -33l-88 23l24 350h228v-16q0 -58 -19.5 -74.5t-81.5 -16.5h-37q-1 -27 -5 -80t-5 -69q26 47 72 47q82 0 82 -104v-314q0 -55 -33 -85.5t-96 -30.5z" />
    <glyph glyph-name="six.inf" horiz-adv-x="321" 
d="M295 -195q0 -122 -133 -122t-133 122v508q0 59 35 90t98 31q131 0 131 -121v-141h-103v135q0 37 -28 37q-31 0 -31 -37v-233q21 49 76 49q88 0 88 -103v-215zM162 -219q31 0 31 37v186q0 37 -31 37q-28 0 -31 -31v-192q0 -37 31 -37z" />
    <glyph glyph-name="seven.inf" horiz-adv-x="286" 
d="M47 -307q8 120 30.5 246.5t40 194t50.5 185.5h-154v107h258v-90q-98 -353 -114 -643h-111z" />
    <glyph glyph-name="eight.inf" horiz-adv-x="329" 
d="M166 -317q-133 0 -133 127v188q0 61 47 82q-43 25 -43 86v149q0 119 127 119q129 0 129 -119v-149q0 -64 -43 -86q47 -20 47 -82v-188q0 -127 -131 -127zM166 127q18 0 23.5 8.5t5.5 28.5v145q0 19 -7 27t-24 8q-29 0 -29 -35v-145q0 -37 31 -37zM164 -219q33 0 33 37
v176q0 39 -31 39q-33 0 -33 -39v-176q0 -37 31 -37z" />
    <glyph glyph-name="nine.inf" horiz-adv-x="327" 
d="M164 -317q-131 0 -131 122v156h102v-143q0 -37 29 -37q31 0 31 37v237q-21 -47 -74 -47q-90 0 -90 105v200q0 121 131 121q133 0 133 -121v-508q0 -122 -131 -122zM164 90q31 0 31 51v164q0 39 -31 39t-31 -39v-176q0 -18 8.5 -28.5t22.5 -10.5z" />
    <glyph glyph-name="underscore" horiz-adv-x="522" 
d="M487 0h-450v127h450v-127z" />
    <glyph glyph-name="backslash.cap" horiz-adv-x="405" 
d="M193 1468l180 -1468h-158l-180 1468h158z" />
    <glyph glyph-name="periodcentered.cap" horiz-adv-x="303" 
d="M152 606q-53 0 -73 27t-20 108q0 83 18.5 108t74.5 25q57 0 75.5 -25t18.5 -108q0 -82 -19.5 -108.5t-74.5 -26.5z" />
    <glyph glyph-name="bullet.cap" horiz-adv-x="393" 
d="M197 594q-74 0 -105 33t-31 112q0 82 32 115t104 33q73 0 104 -32.5t31 -115.5q0 -78 -31.5 -111.5t-103.5 -33.5z" />
    <glyph glyph-name="uni2016.cap" horiz-adv-x="489" 
d="M51 -98v1659h150v-1659h-150zM289 -98v1659h149v-1659h-149z" />
    <glyph glyph-name="exclamdown.cap" horiz-adv-x="303" 
d="M152 1479q55 0 73.5 -26.5t18.5 -109.5q0 -82 -18.5 -107.5t-73.5 -25.5t-74 25.5t-19 107.5t20 109t73 27zM72 0v465q0 23 1 77t1 85q3 203 12 350l2 58t2 49.5t2 36.5t2 25v9q19 -8 58 -8q40 0 59 8v-3q0 -2 0.5 -6.5t1 -10t0.5 -14v-17.5q0 -15 5.5 -119t6.5 -176
q8 -164 8 -344v-465h-161z" />
    <glyph glyph-name="uni2E18.cap" horiz-adv-x="618" 
d="M303 1479q55 0 73.5 -26.5t18.5 -109.5q0 -82 -18.5 -107.5t-73.5 -25.5q-56 0 -74 25.5t-18 107.5t19.5 109t72.5 27zM315 -16q-137 0 -204.5 64.5t-67.5 168.5v350q0 69 26 123.5t74 118.5q33 45 50.5 73.5t34 76.5t16.5 98v98q17 -10 59 -10q39 0 62 10
q0 -2 0.5 -16.5t1 -38t0.5 -47.5l6 -179q1 -47 2.5 -134.5t2.5 -155.5t1 -121v-342q59 26 59 104v393h140v-401q0 -107 -64.5 -170t-198.5 -63zM184 225q0 -77 60 -102v342q0 50 2.5 173.5t3.5 156.5q-13 -66 -27 -90q-14 -27 -21 -42.5t-12.5 -44t-5.5 -65.5v-328z" />
    <glyph glyph-name="questiondown.cap" horiz-adv-x="528" 
d="M279 1479q55 0 72.5 -26t17.5 -110q0 -82 -19 -107.5t-74 -25.5t-73.5 25.5t-18.5 107.5q0 83 20 109.5t75 26.5zM203 1161q18 -18 76 -18q59 0 77 18v-155q0 -63 -14.5 -118.5t-29.5 -84t-42 -72.5q-22 -36 -32 -54.5t-19.5 -49t-9.5 -60.5v-370q0 -41 12 -60.5
t45 -19.5q31 0 43.5 20t12.5 60v419h155v-438q0 -90 -52 -141t-157 -51q-110 0 -163.5 51t-53.5 141v389q0 17 1.5 33t5 32.5t6 28t10 28t10.5 24.5t12.5 25t12 22t13.5 23.5t13 21.5q23 38 34.5 59t22.5 59t11 78v160z" />
    <glyph glyph-name="slash.cap" horiz-adv-x="405" 
d="M20 0l211 1468h156l-211 -1468h-156z" />
    <glyph glyph-name="uni3008.cap" horiz-adv-x="385" 
d="M217 -160l-180 895l176 875h154l-179 -875l183 -895h-154z" />
    <glyph glyph-name="uni3009.cap" horiz-adv-x="385" 
d="M14 -160l183 895l-179 875h154l176 -875l-180 -895h-154z" />
    <glyph glyph-name="braceleft.cap" horiz-adv-x="385" 
d="M274 -160q-198 0 -198 219q0 87 20 166q7 29 20.5 79.5t21 80.5t14 68t6.5 67q0 72 -24.5 100.5t-80.5 28.5h-20v164h20q56 0 80.5 26.5t24.5 94.5q0 64 -21 137q-3 10 -13.5 50t-14.5 55.5t-12 50.5t-11.5 57t-6.5 52t-3 57q0 109 47 163t147 54h90v-133h-34
q-53 0 -76 -24t-23 -79q0 -46 19 -143q1 -3 8 -30t8.5 -32t7.5 -29.5t7.5 -32.5t6.5 -30t6.5 -32.5t5 -29.5t4.5 -32t2 -29.5t1 -31.5q0 -98 -32.5 -140.5t-94.5 -44.5v-12q62 -2 94.5 -45t32.5 -145q0 -64 -18 -156q-5 -18 -16.5 -61.5t-17 -66.5t-13 -57t-10.5 -62t-3 -54
q0 -55 23.5 -79t77.5 -24h34v-135h-86z" />
    <glyph glyph-name="braceright.cap" horiz-adv-x="385" 
d="M25 -25h36q54 0 76.5 23.5t22.5 79.5q0 46 -19 143q-3 10 -11.5 43.5t-12 47.5t-10.5 43.5t-10.5 47t-7.5 42.5t-5.5 47t-1.5 43q0 102 32.5 145t94.5 45v12q-62 2 -94.5 44.5t-32.5 140.5q0 80 20 153q5 23 18.5 76.5t20.5 82t13 69t6 71.5q0 103 -99 103h-36v133h92
q100 0 146 -54t46 -163q0 -85 -20 -164q-7 -29 -20.5 -79t-21 -79.5t-14 -68t-6.5 -68.5q0 -68 25.5 -94.5t79.5 -26.5h20v-164h-20q-53 0 -79 -29t-26 -100q0 -61 21 -137q2 -9 13 -50t15 -56t12 -50.5t11.5 -57.5t6.5 -52.5t3 -57.5q0 -111 -48.5 -165t-149.5 -54h-86v135
z" />
    <glyph glyph-name="bracketleft.cap" horiz-adv-x="364" 
d="M340 -160h-277v1770h277v-152h-123v-1466h123v-152z" />
    <glyph glyph-name="bracketright.cap" horiz-adv-x="364" 
d="M25 -160v152h125v1466h-125v152h278v-1770h-278z" />
    <glyph glyph-name="parenleft.cap" horiz-adv-x="366" 
d="M344 -160q-101 0 -170 27q-60 26 -85.5 92.5t-25.5 190.5v1155q0 112 29 188q26 66 86.5 93.5t165.5 27.5v-156q-76 0 -100.5 -29.5t-24.5 -121.5v-1157q0 -91 24.5 -121.5t100.5 -30.5v-158z" />
    <glyph glyph-name="parenright.cap" horiz-adv-x="366" 
d="M23 -2q76 0 100 30t24 122v1157q0 93 -24 122t-100 29v156q94 0 163 -27q62 -26 90.5 -93.5t28.5 -188.5v-1155q0 -118 -24 -189q-26 -66 -86.5 -93.5t-171.5 -27.5v158z" />
    <glyph glyph-name="parenleft.inf" horiz-adv-x="204" 
d="M35 360q0 93 37 134t125 41v-103q-35 0 -47.5 -18t-12.5 -66v-588q0 -45 12.5 -62t47.5 -17v-107q-95 0 -128.5 36t-33.5 138v612z" />
    <glyph glyph-name="parenright.inf" horiz-adv-x="204" 
d="M8 -319q35 0 47.5 17t12.5 62v588q0 48 -12.5 66t-47.5 18v103q88 0 125 -41t37 -134v-612q0 -102 -33.5 -138t-128.5 -36v107z" />
    <glyph glyph-name="emdash.cap" 
d="M430 659h-391v152h391v-152z" />
    <glyph glyph-name="endash.cap" horiz-adv-x="366" 
d="M328 659h-289v152h289v-152z" />
    <glyph glyph-name="figuredash.cap" horiz-adv-x="530" 
d="M492 659h-453v152h453v-152z" />
    <glyph glyph-name="uni2015.cap" horiz-adv-x="694" 
d="M655 659h-616v152h616v-152z" />
    <glyph glyph-name="hyphen.cap" horiz-adv-x="428" 
d="M389 659h-350v152h350v-152z" />
    <glyph glyph-name="guillemotleft.cap" horiz-adv-x="610" 
d="M215 362l-176 345v4l180 356h137l-182 -354l184 -351h-143zM442 362l-182 349v10l178 346h135l-180 -348l193 -357h-144z" />
    <glyph glyph-name="guillemotright.cap" horiz-adv-x="610" 
d="M25 362l192 357l-178 348h135l178 -346v-10l-182 -349h-145zM252 362l186 351l-182 354h137l180 -356v-4l-178 -345h-143z" />
    <glyph glyph-name="guilsinglleft.cap" horiz-adv-x="389" 
d="M215 373l-176 346v4l174 354h143l-176 -354l185 -350h-150z" />
    <glyph glyph-name="guilsinglright.cap" horiz-adv-x="389" 
d="M27 362l184 351l-176 354h143l174 -354v-4l-176 -347h-149z" />
    <glyph glyph-name="periodcentered.smcp" horiz-adv-x="489" 
d="M451 659h-412v152h412v-152z" />
    <glyph glyph-name="space_dotbelowcomb" horiz-adv-x="477" 
d="M236 -297q-51 0 -70 22t-19 85q0 62 21 85t68 23q45 0 64 -23t19 -85q0 -60 -19 -83.5t-64 -23.5z" />
    <glyph glyph-name="uni00200326" horiz-adv-x="477" 
d="M166 -311q60 3 63 71q-2 -2 -14 -2q-35 0 -50 17.5t-15 70.5q0 51 18.5 73t62.5 22q47 0 65.5 -27.5t18.5 -99.5q0 -200 -149 -209v84z" />
    <glyph glyph-name="uni00200326.alt" horiz-adv-x="477" 
d="M244 1268q-47 0 -65.5 28t-18.5 101q0 198 149 209v-84q-53 -3 -63 -72q2 2 14 2q35 0 50.5 -18t15.5 -70q0 -51 -19 -73.5t-63 -22.5z" />
    <glyph glyph-name="plus.inf" horiz-adv-x="309" 
d="M201 12v-90h-90v90h-82v90h82v88h90v-88h80v-90h-80z" />
    <glyph glyph-name="minus.inf" horiz-adv-x="309" 
d="M31 10v96h248v-96h-248z" />
    <glyph glyph-name="equal.inf" horiz-adv-x="305" 
d="M31 78v90h243v-90h-243zM31 -61v90h243v-90h-243z" />
    <glyph glyph-name="at.cap" horiz-adv-x="860" 
d="M430 -113q-180 0 -280.5 96t-100.5 281v916q0 180 103.5 279.5t275.5 99.5q179 0 281 -97t102 -278v-903q0 -164 -170 -164q-99 0 -137 78q-20 -84 -115 -84q-67 0 -101 41.5t-34 134.5v868q0 96 34.5 136t98.5 40q82 0 105 -71l16 63h96v-1020q0 -41 10 -60.5t35 -19.5
q24 0 31.5 19.5t7.5 62.5v879q0 131 -66.5 197.5t-193.5 66.5q-125 0 -190.5 -69.5t-65.5 -198.5v-912q0 -132 69.5 -199t194.5 -67q64 0 102.5 17t65.5 55l146 -25q-55 -86 -128 -124t-192 -38zM428 221q29 0 39 23t10 80v790q0 61 -9.5 86t-39.5 25q-26 0 -36.5 -22
t-10.5 -77v-813q0 -51 10.5 -71.5t36.5 -20.5z" />
    <glyph glyph-name="registered.cap" horiz-adv-x="901" 
d="M457 -31q-195 0 -301.5 102.5t-106.5 288.5v725q0 187 107.5 296.5t289.5 109.5q187 0 297.5 -103.5t110.5 -279.5v-739q0 -179 -104.5 -289.5t-292.5 -110.5zM457 98q126 0 194 69.5t68 201.5v739q0 122 -70.5 190t-202.5 68q-126 0 -194 -73.5t-68 -207.5v-723
q0 -127 69.5 -195.5t203.5 -68.5zM412 647v-457h-131v1088h172q90 0 132 -33.5t42 -109.5v-304q0 -87 -64 -114q68 -20 68 -113v-348q0 -46 20 -66h-137q-18 14 -18 64v326q0 38 -11 52.5t-45 14.5h-28zM412 1163v-385h28q58 0 58 62v262q0 61 -62 61h-24z" />
    <glyph glyph-name="bar.cap" horiz-adv-x="251" 
d="M51 -113v1674h150v-1674h-150z" />
    <glyph glyph-name="brokenbar.cap" horiz-adv-x="251" 
d="M51 1561h150v-768h-150v768zM201 -113h-150v803h150v-803z" />
    <glyph glyph-name="Aumlaut" 
d="M59 1341q-30 0 -40.5 13.5t-10.5 52.5q0 37 12 51.5t39 14.5q29 0 40.5 -14t11.5 -52q0 -37 -11.5 -51.5t-40.5 -14.5zM401 1341q-30 0 -40.5 13.5t-10.5 52.5q0 38 11 52t40 14q30 0 42 -14t12 -52q0 -36 -12.5 -51t-41.5 -15zM297 182h-127l-14 -182h-148l144 1468h157
l154 -1468h-152zM180 322h107l-43 536l-13 332l-12 -332z" />
    <glyph glyph-name="Oumlaut" horiz-adv-x="536" 
d="M76 1448q-25 0 -34 9t-9 34q0 26 9.5 35.5t33.5 9.5q25 0 34 -9.5t9 -35.5q0 -43 -43 -43zM473 1448q-26 0 -34.5 9t-8.5 34q0 26 9.5 35.5t33.5 9.5t33.5 -9.5t9.5 -35.5q0 -43 -43 -43zM268 -16q-103 0 -161 52.5t-58 162.5v1073q0 102 59 156.5t162 54.5
q104 0 160.5 -54t56.5 -157v-1073q0 -215 -219 -215zM270 133q62 0 62 86v1043q0 84 -64 84q-61 0 -61 -84v-1043q0 -44 14.5 -65t48.5 -21z" />
    <glyph glyph-name="Uumlaut" horiz-adv-x="585" 
d="M254 1251q-18 0 -22.5 18.5t-4.5 88.5q0 72 5 93.5t22 21.5t22 -22t5 -93q0 -66 -5 -86.5t-22 -20.5zM332 1251q-17 0 -22 19.5t-5 87.5q0 46 3 71.5t8.5 34.5t15.5 9q17 0 22.5 -21.5t5.5 -93.5q0 -65 -5.5 -86t-22.5 -21zM293 -16q-242 0 -242 225v1259h156v-1243
q0 -50 21 -71t65 -21t65 21t21 71v1243h156v-1259q0 -225 -242 -225z" />
    <glyph glyph-name="cordinal" horiz-adv-x="391" 
d="M197 651q-158 0 -158 156v520q0 75 43 111.5t117 36.5t115.5 -37t41.5 -111v-190h-123v182q0 29 -8.5 40t-27.5 11q-37 0 -37 -51v-504q0 -47 39 -47q34 0 34 47v211h123v-219q0 -156 -159 -156z" />
    <glyph glyph-name="caronSlovak" horiz-adv-x="475" 
d="M209 1499h129l-82 -239h-96z" />
    <glyph glyph-name="altcedilla" horiz-adv-x="475" 
d="M240 -344q-89 0 -132.5 37t-54.5 121h125q9 -54 60 -54q55 0 55 50q0 45 -60 45h-55v96h76q160 0 160 -144q0 -76 -46.5 -113.5t-127.5 -37.5z" />
    <glyph glyph-name="doublegrave" horiz-adv-x="475" 
d="M31 1491h133l80 -231h-92zM211 1491h129l63 -231h-92z" />
    <glyph glyph-name="invertedbreve" horiz-adv-x="475" 
d="M236 1485q96 0 135 -51.5t39 -173.5h-113q0 67 -13 91.5t-48 26.5q-32 0 -45 -25.5t-13 -92.5h-112q0 121 40 173t130 52z" />
    <glyph glyph-name="onethirdemdash" horiz-adv-x="366" 
d="M328 528h-289v152h289v-152z" />
    <glyph glyph-name="threequarteremdash" 
d="M430 528h-391v152h391v-152z" />
    <glyph glyph-name="onethirdemdash.cap" horiz-adv-x="428" 
d="M389 659h-350v152h350v-152z" />
    <glyph glyph-name="threequarteremdash.cap" horiz-adv-x="407" 
d="M369 659h-330v152h330v-152z" />
    <glyph glyph-name="onesixteenth" horiz-adv-x="1009" 
d="M375 834l160 649l155 -43l-272 -621zM51 735v103h74v434h-64v96q44 5 63 26t23 74h80v-630h74v-103h-250zM963 113q0 -123 -134 -123q-133 0 -133 123v508q0 59 35 89.5t98 30.5q132 0 132 -120v-142h-103v135q0 37 -29 37q-30 0 -30 -37v-233q21 49 75 49q89 0 89 -102
v-215zM410 0v102h73v435h-63v96q43 5 62.5 27t23.5 73h80v-631h73v-102h-249zM356 645l-143 -661l-162 49l266 626zM829 88q31 0 31 37v186q0 37 -31 37q-27 0 -30 -31v-192q0 -37 30 -37z" />
    <glyph glyph-name="threesixteenths" horiz-adv-x="1009" 
d="M375 834l160 649l155 -43l-272 -621zM180 725q-66 0 -98.5 31.5t-32.5 87.5v160h103v-142q0 -37 30 -37q31 0 31 37v156q0 41 -39 41h-43v108h45q35 0 35 41v138q0 36 -29 36q-28 0 -28 -36v-119h-103v133q0 55 33 86t96 31q65 0 98 -31t33 -86v-150q0 -75 -49 -90
q53 -15 53 -86v-190q0 -55 -34.5 -87t-100.5 -32zM963 113q0 -123 -134 -123q-133 0 -133 123v508q0 59 35 89.5t98 30.5q132 0 132 -120v-142h-103v135q0 37 -29 37q-30 0 -30 -37v-233q21 49 75 49q89 0 89 -102v-215zM410 0v102h73v435h-63v96q43 5 62.5 27t23.5 73h80
v-631h73v-102h-249zM356 645l-143 -661l-162 49l266 626zM829 88q31 0 31 37v186q0 37 -31 37q-27 0 -30 -31v-192q0 -37 30 -37z" />
    <glyph glyph-name="fivesixteenths" horiz-adv-x="1009" 
d="M375 834l160 649l155 -43l-272 -621zM182 725q-129 0 -129 117v174h101v-154q0 -37 26 -37q18 0 23.5 8t5.5 29v260q0 37 -25 37q-19 0 -30 -31l-13 -32l-88 22l25 350h227v-16q0 -58 -18.5 -74t-81.5 -16h-37q-1 -27 -5 -80.5t-5 -69.5q27 48 71 48q82 0 82 -105v-313
q0 -55 -33 -86t-96 -31zM963 113q0 -123 -134 -123q-133 0 -133 123v508q0 59 35 89.5t98 30.5q132 0 132 -120v-142h-103v135q0 37 -29 37q-30 0 -30 -37v-233q21 49 75 49q89 0 89 -102v-215zM410 0v102h73v435h-63v96q43 5 62.5 27t23.5 73h80v-631h73v-102h-249z
M356 645l-143 -661l-162 49l266 626zM829 88q31 0 31 37v186q0 37 -31 37q-27 0 -30 -31v-192q0 -37 30 -37z" />
    <glyph glyph-name="sevensixteenths" horiz-adv-x="1009" 
d="M375 834l160 649l155 -43l-272 -621zM106 735q8 121 30.5 247t40 194.5t50.5 185.5h-153v106h258v-90q-99 -358 -115 -643h-111zM963 113q0 -123 -134 -123q-133 0 -133 123v508q0 59 35 89.5t98 30.5q132 0 132 -120v-142h-103v135q0 37 -29 37q-30 0 -30 -37v-233
q21 49 75 49q89 0 89 -102v-215zM410 0v102h73v435h-63v96q43 5 62.5 27t23.5 73h80v-631h73v-102h-249zM356 645l-143 -661l-162 49l266 626zM829 88q31 0 31 37v186q0 37 -31 37q-27 0 -30 -31v-192q0 -37 30 -37z" />
    <glyph glyph-name="ninesixteenths" horiz-adv-x="1009" 
d="M375 834l160 649l155 -43l-272 -621zM188 725q-131 0 -131 123v156h103v-144q0 -37 28 -37q31 0 31 37v238q-21 -47 -74 -47q-90 0 -90 104v201q0 121 131 121q133 0 133 -121v-508q0 -123 -131 -123zM188 1133q31 0 31 51v164q0 20 -7 29t-24 9q-30 0 -30 -38v-177
q0 -38 30 -38zM963 113q0 -123 -134 -123q-133 0 -133 123v508q0 59 35 89.5t98 30.5q132 0 132 -120v-142h-103v135q0 37 -29 37q-30 0 -30 -37v-233q21 49 75 49q89 0 89 -102v-215zM410 0v102h73v435h-63v96q43 5 62.5 27t23.5 73h80v-631h73v-102h-249zM356 645
l-143 -661l-162 49l266 626zM829 88q31 0 31 37v186q0 37 -31 37q-27 0 -30 -31v-192q0 -37 30 -37z" />
    <glyph glyph-name="elevensixteenths" horiz-adv-x="1265" 
d="M633 834l160 649l155 -43l-272 -621zM35 735v103h74v448q-25 -14 -64 -14v96q42 5 61 26t23 74h80v-630h74v-103h-248zM317 735v103h74v448q-25 -14 -63 -14v96q42 5 61 26t23 74h80v-630h73v-103h-248zM1219 113q0 -123 -134 -123q-133 0 -133 123v508q0 59 35 89.5
t98 30.5q132 0 132 -120v-142h-103v135q0 37 -29 37q-30 0 -30 -37v-233q21 49 75 49q89 0 89 -102v-215zM666 0v102h73v435h-63v96q43 5 62.5 27t23.5 73h80v-631h73v-102h-249zM614 645l-143 -661l-162 49l266 626zM1085 88q31 0 31 37v186q0 37 -31 37q-27 0 -30 -31
v-192q0 -37 30 -37z" />
    <glyph glyph-name="thirteensixteenths" horiz-adv-x="1271" 
d="M643 834l160 649l155 -43l-272 -621zM451 725q-66 0 -99 31.5t-33 87.5v160h103v-142q0 -37 31 -37q30 0 30 37v156q0 41 -39 41h-43v108h45q35 0 35 41v138q0 36 -28 36q-29 0 -29 -36v-119h-102v133q0 55 33 86t96 31q65 0 98 -31t33 -86v-150q0 -75 -50 -90
q54 -15 54 -86v-190q0 -55 -34.5 -87t-100.5 -32zM35 735v103h74v448q-25 -14 -64 -14v96q44 5 63 26t23 74h80v-630h74v-103h-250zM1225 113q0 -123 -133 -123q-134 0 -134 123v508q0 59 35.5 89.5t98.5 30.5q131 0 131 -120v-142h-103v135q0 37 -28 37q-31 0 -31 -37v-233
q21 49 76 49q88 0 88 -102v-215zM672 0v102h73v435h-63v96q43 5 62.5 27t23.5 73h80v-631h74v-102h-250zM625 645l-144 -661l-162 49l267 626zM1092 88q30 0 30 37v186q0 37 -30 37q-28 0 -31 -31v-192q0 -37 31 -37z" />
    <glyph glyph-name="fifteensixteenths" horiz-adv-x="1271" 
d="M641 834l160 649l155 -43l-272 -621zM35 735v103h74v448q-25 -14 -64 -14v96q44 5 63 26t23 74h80v-630h74v-103h-250zM451 725q-129 0 -129 117v174h100v-154q0 -37 27 -37q18 0 23 7.5t5 29.5v260q0 37 -24 37q-20 0 -31 -31l-12 -32l-88 22l24 350h227v-16
q0 -58 -18.5 -74t-81.5 -16h-37q-1 -27 -5 -80.5t-5 -69.5q27 48 72 48q82 0 82 -105v-313q0 -55 -33 -86t-96 -31zM1225 113q0 -123 -133 -123q-134 0 -134 123v508q0 59 35.5 89.5t98.5 30.5q131 0 131 -120v-142h-103v135q0 37 -28 37q-31 0 -31 -37v-233q21 49 76 49
q88 0 88 -102v-215zM672 0v102h73v435h-63v96q43 5 62.5 27t23.5 73h80v-631h74v-102h-250zM623 645l-144 -661l-162 49l267 626zM1092 88q30 0 30 37v186q0 37 -30 37q-28 0 -31 -31v-192q0 -37 31 -37z" />
    <glyph glyph-name="mediumblackcircle" horiz-adv-x="1439" 
d="M719 -20q-182 0 -318 77q-140 80 -217.5 218.5t-77.5 314.5t80 313q79 139 218.5 218t314.5 79q173 0 317 -78q142 -81 220.5 -218t78.5 -314q0 -180 -80 -311q-79 -141 -218 -220t-318 -79z" />
    <glyph glyph-name="ballotboxwithx" horiz-adv-x="1462" 
d="M143 1176h1176v-1176h-1176v1176zM481 326h502v526h-502v-526zM731 487l-115 -116l-98 98l115 117l-115 116l96 99l117 -117l115 117l98 -96l-117 -119l115 -115l-98 -98z" />
    <glyph glyph-name="ttfautohint" horiz-adv-x="450" 
 />
    </font>
</defs>
</svg>
