<?xml version="1.0" standalone="no"?>
<!DOCTYPE svg PUBLIC "-//W3C//DTD SVG 1.1//EN" "http://www.w3.org/Graphics/SVG/1.1/DTD/svg11.dtd" >
<svg xmlns="http://www.w3.org/2000/svg" xmlns:xlink="http://www.w3.org/1999/xlink" version="1.1">
<metadata>
Created by FontForge 20201107 at Thu Aug 14 22:38:54 2025
 By 
C 2016 Sharp Type Corporation
</metadata>
<defs>
<font id="SharpGrotesk-Thin05" horiz-adv-x="274" >
  <font-face 
    font-family="Sharp Grotesk Thin 05"
    font-weight="250"
    font-stretch="ultra-condensed"
    units-per-em="2048"
    panose-1="0 0 3 8 0 0 0 0 0 0"
    ascent="1638"
    descent="-410"
    x-height="1165"
    cap-height="1446"
    bbox="-18 -428 1739 1755"
    underline-thickness="102"
    underline-position="-153"
    unicode-range="U+0020-3009"
  />
<missing-glyph horiz-adv-x="126" 
 />
    <glyph glyph-name=".notdef" horiz-adv-x="126" 
 />
    <glyph glyph-name=".null" horiz-adv-x="0" 
 />
    <glyph glyph-name="nonmarkingreturn" horiz-adv-x="682" 
 />
    <glyph glyph-name="space" unicode=" " horiz-adv-x="126" 
 />
    <glyph glyph-name="exclam" unicode="!" horiz-adv-x="192" 
d="M104 115h-14v69q-2 86 -2 398q0 87 -1 256.5t-1 244.5v363h23v-162q0 -49 -1.5 -199.5t-1.5 -246.5q0 -347 -2 -486v-237zM96 -8q-20 0 -20 31q0 30 22 30q11 0 15 -6.5t4 -23.5q0 -31 -21 -31z" />
    <glyph glyph-name="quotedbl" unicode="&#x22;" horiz-adv-x="188" 
d="M68 1145q0 -36 -0.5 -75t-1 -65t-0.5 -30h-15q0 4 -0.5 30t-1 65t-0.5 75q-2 82 -2 174v127h21v-301zM141 1145q0 -36 -0.5 -75t-1 -65t-0.5 -30h-14q0 4 -0.5 30t-1 65t-0.5 75q-2 82 -2 174v127h20v-301z" />
    <glyph glyph-name="numbersign" unicode="#" horiz-adv-x="438" 
d="M258 618h-94l-35 -618h-20l34 618h-104v21h106l13 242h-103v20h105l30 545h21l-31 -545h94l31 545h21l-31 -545h104v-20h-106l-12 -242h102v-21h-104l-35 -618h-21zM272 881h-94l-12 -242h94z" />
    <glyph glyph-name="dollar" unicode="$" horiz-adv-x="270" 
d="M127 -279v271q-78 9 -78 96v473h21v-473q0 -34 14.5 -55t42.5 -21v762q-24 16 -36.5 26t-26 33t-13.5 50v479q0 42 20 67t56 25v264h18v-264q74 -9 74 -94v-436h-20v438q0 32 -14 52t-40 20v-648q39 -22 57.5 -51t18.5 -78v-571q0 -94 -76 -94v-271h-18zM72 883
q0 -52 55 -84v635q-55 -3 -55 -72v-479zM201 657q0 62 -56 105v-750q56 9 56 74v571z" />
    <glyph glyph-name="percent" unicode="%" horiz-adv-x="448" 
d="M145 836q-75 0 -75 94v432q0 92 75 92q74 0 74 -92v-432q0 -94 -74 -94zM358 1446h23l-289 -1446h-22zM145 856q54 0 54 74v434q0 70 -54 70q-55 0 -55 -70v-434q0 -74 55 -74zM305 -8q-74 0 -74 96v428q0 42 19 67t55 25q37 0 56.5 -24.5t19.5 -67.5v-428
q0 -45 -19.5 -70.5t-56.5 -25.5zM305 12q55 0 55 74v430q0 72 -55 72q-53 0 -53 -72v-430q0 -74 53 -74z" />
    <glyph glyph-name="ampersand" unicode="&#x26;" horiz-adv-x="378" 
d="M330 -8q-30 0 -66 88q-39 -88 -102 -88q-121 0 -121 201v153q0 86 14 170.5t27.5 130.5t42.5 135q-35 250 -35 457v70q0 82 17.5 113.5t56.5 31.5t56.5 -31.5t17.5 -113.5v-72q0 -39 -2 -75t-9 -75t-11 -62t-16.5 -67t-16.5 -57t-21 -65t-19 -60q1 -7 39 -241
q52 -283 84 -396q43 158 43 537v196h21v-196q0 -408 -54 -567q28 -97 58 -97q16 0 20 15v-25q-8 -10 -24 -10zM111 1227q0 -172 26 -408q27 85 41 136t26.5 128.5t12.5 153.5v72q0 69 -11.5 97t-41.5 28q-29 0 -41 -28.5t-12 -96.5v-82zM162 12q57 0 94 94q-37 119 -90 412
q-25 134 -37 225q-22 -76 -34 -124.5t-23 -124t-11 -148.5v-156q0 -85 22.5 -131.5t78.5 -46.5z" />
    <glyph glyph-name="quotesingle" unicode="'" horiz-adv-x="114" 
d="M68 1145q0 -36 -0.5 -75t-1 -65t-0.5 -30h-15q0 4 -0.5 30t-1 65t-0.5 75q-2 82 -2 174v127h21v-301z" />
    <glyph glyph-name="parenleft" unicode="(" horiz-adv-x="182" 
d="M57 1362q0 91 22.5 123.5t88.5 32.5v-21q-55 0 -72.5 -27t-17.5 -106v-1600q0 -79 17.5 -107t72.5 -28v-20q-65 0 -88 32.5t-23 122.5v1598z" />
    <glyph glyph-name="parenright" unicode=")" horiz-adv-x="182" 
d="M14 -371q55 0 72.5 28t17.5 107v1600q0 79 -17.5 106t-72.5 27v21q66 0 88.5 -32.5t22.5 -123.5v-1598q0 -90 -23 -122.5t-88 -32.5v20z" />
    <glyph glyph-name="asterisk" unicode="*" horiz-adv-x="239" 
d="M121 1341l10 -84h-22l8 84l-70 -49l-10 19l78 37l-78 34l10 19l70 -49l-8 86h22l-10 -86l72 49l10 -19l-80 -34l80 -35l-10 -21z" />
    <glyph glyph-name="plus" unicode="+" horiz-adv-x="329" 
d="M172 702v-79h-20v79h-82v21h82v80h20v-80h82v-21h-82z" />
    <glyph glyph-name="comma" unicode="," horiz-adv-x="192" 
d="M119 10q0 -49 -35 -98l-10 10q28 36 28 88v8q0 -26 -10 -26q-16 0 -16 31q0 32 18 32q25 0 25 -45z" />
    <glyph glyph-name="hyphen" unicode="-" horiz-adv-x="264" 
d="M223 588h-182v20h182v-20z" />
    <glyph glyph-name="period" unicode="." horiz-adv-x="192" 
d="M96 -8q-20 0 -20 31q0 30 22 30q11 0 15 -6.5t4 -23.5q0 -31 -21 -31z" />
    <glyph glyph-name="slash" unicode="/" horiz-adv-x="237" 
d="M47 0l123 1446h20l-122 -1446h-21z" />
    <glyph glyph-name="zero" unicode="0" horiz-adv-x="294" 
d="M147 -8q-92 0 -92 102v1258q0 47 24.5 74.5t67.5 27.5q44 0 68.5 -27t24.5 -75v-1258q0 -102 -93 -102zM147 12q36 0 54 22t18 60v1256q0 38 -18 61t-54 23q-34 0 -52.5 -23t-18.5 -61v-1256q0 -38 18.5 -60t52.5 -22z" />
    <glyph glyph-name="one" unicode="1" horiz-adv-x="217" 
d="M29 0v20h67v1352q-12 -36 -61 -39v21q38 0 49 19t16 73h17v-1426h71v-20h-159z" />
    <glyph glyph-name="two" unicode="2" horiz-adv-x="284" 
d="M51 0v440q0 41 14.5 83.5t27.5 65t42 66.5q32 52 55 117t23 117v461q0 38 -17 61t-51 23q-69 0 -69 -84v-435h-21v437q0 48 23 75t67 27q42 0 65 -27t23 -75v-463q0 -56 -23.5 -125t-55.5 -119q-29 -44 -41.5 -65.5t-26.5 -61.5t-14 -78v-420h168v-20h-189z" />
    <glyph glyph-name="three" unicode="3" horiz-adv-x="292" 
d="M145 -8q-42 0 -68 27t-26 75v465h21v-465q0 -37 19 -59.5t54 -22.5q36 0 55 22t19 60v555q0 96 -84 96h-16v21h14q40 0 61 27t21 73v486q0 82 -70 82q-34 0 -51.5 -22t-17.5 -60v-408h-21v408q0 48 24 75t66 27q44 0 67.5 -27t23.5 -75v-486q0 -95 -66 -110
q70 -12 70 -107v-555q0 -49 -25.5 -75.5t-69.5 -26.5z" />
    <glyph glyph-name="four" unicode="4" horiz-adv-x="270" 
d="M254 362h-59v-362h-23l2 362h-143v19l141 1065h23v-1063h59v-21zM180 1380l-129 -997h123z" />
    <glyph glyph-name="five" unicode="5" horiz-adv-x="286" 
d="M141 -8q-42 0 -67 26.5t-25 75.5v434h21v-434q0 -38 18.5 -60t52.5 -22q36 0 54 22t18 60v768q0 88 -59 88q-25 0 -46 -24t-32 -62l-10 -37l-13 2l23 617h164q0 -12 -5.5 -16.5t-23.5 -4.5h-117q0 -90 -8 -241q-3 -188 -12 -291q25 78 82 78q77 0 77 -105v-772
q0 -102 -92 -102z" />
    <glyph glyph-name="six" unicode="6" horiz-adv-x="290" 
d="M242 94q0 -49 -25 -75.5t-67 -26.5q-44 0 -69.5 26.5t-25.5 75.5v1258q0 47 24.5 74.5t67.5 27.5q44 0 68.5 -27t24.5 -75v-402h-21v402q0 38 -18 60t-54 22q-34 0 -52.5 -22t-18.5 -60v-572q23 60 80 60q43 0 64.5 -28t21.5 -77v-641zM150 12q34 0 52.5 22t18.5 60v637
q0 88 -67 88q-32 0 -54.5 -24.5t-23.5 -71.5v-629q0 -38 19 -60t55 -22z" />
    <glyph glyph-name="seven" unicode="7" horiz-adv-x="237" 
d="M57 0q4 48 14 200.5t17 245.5q6 123 41 578q26 293 53 401h-151v21h172v-19q-29 -120 -51 -407q-1 -9 -43 -576q-11 -204 -31 -444h-21z" />
    <glyph glyph-name="eight" unicode="8" horiz-adv-x="290" 
d="M145 -8q-43 0 -68.5 26.5t-25.5 75.5v586q0 72 53 96q-51 22 -51 92v484q0 47 24.5 74.5t67.5 27.5q44 0 68.5 -27t24.5 -75v-484q0 -70 -54 -92q56 -23 56 -96v-586q0 -102 -95 -102zM145 786q36 0 54 22t18 60v484q0 38 -18 60t-54 22q-34 0 -52.5 -22t-18.5 -60v-484
q0 -82 71 -82zM145 12q36 0 55 22t19 60v588q0 37 -19.5 61.5t-54.5 24.5t-54 -24.5t-19 -61.5v-588q0 -38 18.5 -60t54.5 -22z" />
    <glyph glyph-name="nine" unicode="9" horiz-adv-x="290" 
d="M141 -8q-88 0 -88 102v432h21v-432q0 -82 67 -82q36 0 55 22t19 60v623q-22 -64 -76 -64q-45 0 -67.5 29t-22.5 76v594q0 47 24.5 74.5t67.5 27.5q44 0 69.5 -27.5t25.5 -74.5v-1258q0 -49 -25.5 -75.5t-69.5 -26.5zM139 674q31 0 53 24.5t23 71.5v582q0 38 -19 60
t-55 22q-34 0 -52.5 -22t-18.5 -60v-592q0 -86 69 -86z" />
    <glyph glyph-name="colon" unicode=":" horiz-adv-x="192" 
d="M96 727q-20 0 -20 31q0 30 22 30q11 0 15 -6.5t4 -23.5q0 -31 -21 -31zM96 123q-20 0 -20 31q0 30 22 30q11 0 15 -6.5t4 -23.5q0 -31 -21 -31z" />
    <glyph glyph-name="semicolon" unicode=";" horiz-adv-x="192" 
d="M96 694q-20 0 -20 31t22 31q19 0 19 -31t-21 -31zM119 10q0 -49 -35 -98l-10 10q28 36 28 88v8q0 -26 -10 -26q-16 0 -16 31q0 32 18 32q25 0 25 -45z" />
    <glyph glyph-name="less" unicode="&#x3c;" horiz-adv-x="329" 
d="M68 721v14l186 82v-20l-158 -68l158 -70v-22z" />
    <glyph glyph-name="equal" unicode="=" horiz-adv-x="329" 
d="M70 772v21h184v-21h-184zM70 657v21h184v-21h-184z" />
    <glyph glyph-name="greater" unicode="&#x3e;" horiz-adv-x="329" 
d="M76 659l157 70l-157 68v20l186 -82v-14l-186 -84v22z" />
    <glyph glyph-name="question" unicode="?" horiz-adv-x="305" 
d="M143 131v428q0 129 45 213q13 30 18 42t11 40.5t6 60.5v437q0 82 -67 82q-70 0 -70 -82v-437h-20v437q0 48 23 75t67 27q42 0 65 -27t23 -75v-437q0 -33 -6.5 -64t-11.5 -43.5t-19 -43.5q-1 -3 -9 -23t-10.5 -27t-8.5 -27.5t-8 -36t-4.5 -40t-2.5 -51.5v-428h-21zM154 -8
q-21 0 -21 31q0 30 23 30q10 0 14 -6.5t4 -23.5q0 -31 -20 -31z" />
    <glyph glyph-name="at" unicode="@" horiz-adv-x="471" 
d="M240 -188q-193 0 -193 192v1258q0 93 51 142.5t133 49.5q84 0 138.5 -48.5t54.5 -141.5v-1237q0 -97 -68 -97q-45 0 -57 62q-12 -68 -66 -68q-42 0 -59.5 26.5t-17.5 90.5v1178q0 71 18.5 97.5t54.5 26.5q52 0 64 -57l2 53h16v-1316q0 -32 12.5 -52t32.5 -20
q23 0 35 21.5t12 54.5v1237q0 82 -48.5 126t-123.5 44q-73 0 -118 -45t-45 -127v-1258q0 -172 172 -172q42 0 81.5 15t55.5 44l16 -10q-49 -69 -153 -69zM233 -55q30 0 44 27t14 87v1135q0 70 -12 99.5t-48 29.5q-28 0 -41.5 -22.5t-13.5 -83.5v-1176q0 -53 13.5 -74.5
t43.5 -21.5z" />
    <glyph glyph-name="A" unicode="A" horiz-adv-x="245" 
d="M180 328h-114l-19 -328h-20l84 1446h20l88 -1446h-20zM66 348h112l-49 826l-8 260l-8 -260z" />
    <glyph glyph-name="B" unicode="B" horiz-adv-x="282" 
d="M57 0v1446h62q61 0 87.5 -24t26.5 -83v-481q0 -88 -63 -100q66 -12 66 -101v-551q0 -60 -23 -83t-82 -23h-74zM78 1425v-659h51q84 0 84 92v481q0 47 -21 66.5t-73 19.5h-41zM78 745v-725h53q48 0 66 18t18 68v551q0 88 -84 88h-53z" />
    <glyph glyph-name="C" unicode="C" horiz-adv-x="284" 
d="M143 -8q-88 0 -88 102v1258q0 48 22.5 75t65.5 27q41 0 64.5 -26t23.5 -70v-457h-20v459q0 34 -17 54t-51 20q-67 0 -67 -82v-1258q0 -82 67 -82q34 0 51 21t17 55v533h20v-533q0 -96 -88 -96z" />
    <glyph glyph-name="D" unicode="D" horiz-adv-x="292" 
d="M57 1446h60q62 0 91.5 -26.5t29.5 -90.5v-1214q0 -62 -30.5 -88.5t-92.5 -26.5h-58v1446zM78 1425v-1405h37q52 0 77 21.5t25 73.5v1214q0 52 -24.5 74t-75.5 22h-39z" />
    <glyph glyph-name="E" unicode="E" horiz-adv-x="210" 
d="M182 0h-125v1446h123v-21h-102v-688h100v-20h-100v-697h104v-20z" />
    <glyph glyph-name="F" unicode="F" horiz-adv-x="215" 
d="M78 700v-700h-21v1446h133v-21h-112v-704h104v-21h-104z" />
    <glyph glyph-name="G" unicode="G" horiz-adv-x="288" 
d="M219 70q-15 -78 -80 -78q-84 0 -84 102v1258q0 48 24 75t68 27q42 0 65.5 -27t23.5 -75v-451h-21v451q0 82 -68 82q-71 0 -71 -82v-1258q0 -82 63 -82q25 0 41 10t23.5 30t9.5 38t2 45v584h-80v20h101v-739h-17v70z" />
    <glyph glyph-name="H" unicode="H" horiz-adv-x="290" 
d="M213 719h-135v-719h-21v1446h21v-707h135v707h20v-1446h-20v719z" />
    <glyph glyph-name="I" unicode="I" horiz-adv-x="159" 
d="M23 0v18h47v1407h-47v21h114v-21h-47v-1407h47v-18h-114z" />
    <glyph glyph-name="J" unicode="J" horiz-adv-x="262" 
d="M125 -8q-43 0 -61.5 25.5t-18.5 76.5v471h21v-471q0 -41 12.5 -61.5t46.5 -20.5q61 0 61 82v1352h21v-1352q0 -102 -82 -102z" />
    <glyph glyph-name="K" unicode="K" horiz-adv-x="264" 
d="M152 963l-74 -435v-528h-21v1446h21v-701l-8 -221l20 172l131 750h21l-82 -457l78 -989h-21l-59 786z" />
    <glyph glyph-name="L" unicode="L" horiz-adv-x="206" 
d="M57 0v1446h21v-1426h102v-20h-123z" />
    <glyph glyph-name="M" unicode="M" horiz-adv-x="346" 
d="M78 0h-21v1446h21l88 -830l10 -149l8 149l84 830h21v-1446h-21v1087l11 353l-23 -285l-74 -706h-14l-76 700l-24 291l10 -353v-1087z" />
    <glyph glyph-name="N" unicode="N" horiz-adv-x="321" 
d="M78 0h-21v1446h19l151 -1196l27 -242l-10 268v1170h20v-1446h-22l-133 1049l-39 337l8 -450v-936z" />
    <glyph glyph-name="O" unicode="O" horiz-adv-x="294" 
d="M147 -8q-92 0 -92 102v1258q0 102 92 102q93 0 93 -102v-1258q0 -102 -93 -102zM147 12q36 0 54 22t18 60v1258q0 38 -18 60t-54 22q-34 0 -52.5 -22t-18.5 -60v-1258q0 -38 18.5 -60t52.5 -22z" />
    <glyph glyph-name="P" unicode="P" horiz-adv-x="280" 
d="M78 453v-453h-21v1446h68q58 0 81 -25t23 -86v-766q0 -116 -104 -116h-47zM78 1425v-952h47q84 0 84 96v766q0 52 -18 71t-66 19h-47z" />
    <glyph glyph-name="Q" unicode="Q" horiz-adv-x="294" 
d="M209 -84l-35 80q-16 -4 -27 -4q-92 0 -92 102v1258q0 102 92 102q93 0 93 -102v-1258q0 -70 -50 -94l48 -84h-29zM147 12q36 0 54 22t18 60v1258q0 38 -18 60t-54 22q-34 0 -52.5 -22t-18.5 -60v-1258q0 -38 18.5 -60t52.5 -22z" />
    <glyph glyph-name="R" unicode="R" horiz-adv-x="282" 
d="M78 676v-676h-21v1446h62q61 0 87.5 -24.5t26.5 -84.5v-551q0 -85 -63 -100q34 -6 46.5 -28.5t12.5 -71.5v-545q0 -22 15 -41h-27q-8 11 -8 41v545q0 49 -16 69.5t-62 20.5h-53zM78 1425v-729h51q84 0 84 90v551q0 49 -20.5 68.5t-73.5 19.5h-41z" />
    <glyph glyph-name="S" unicode="S" horiz-adv-x="282" 
d="M141 -8q-88 0 -88 94v535h21v-535q0 -74 67 -74q68 0 68 74v559q0 41 -17 67.5t-59 49.5q-20 13 -28 19t-23 20.5t-21 31t-6 37.5v492q0 42 22 67t62 25q42 0 65 -25.5t23 -68.5v-459h-20v461q0 32 -17 52t-51 20q-31 0 -47 -20t-16 -52v-492q0 -8 1 -14.5t2.5 -12
t5.5 -11.5t6 -9.5t8 -9t8 -8t10 -8t10 -7t11.5 -7.5t11.5 -7q44 -26 61.5 -53.5t17.5 -77.5v-559q0 -94 -88 -94z" />
    <glyph glyph-name="T" unicode="T" horiz-adv-x="180" 
d="M100 1425v-1425h-20v1425h-64v21h148v-21h-64z" />
    <glyph glyph-name="U" unicode="U" horiz-adv-x="294" 
d="M147 -8q-90 0 -90 102v1352h21v-1352q0 -38 17.5 -60t51.5 -22q70 0 70 82v1352h21v-1352q0 -102 -91 -102z" />
    <glyph glyph-name="V" unicode="V" horiz-adv-x="245" 
d="M113 0l-86 1446h20l72 -1280l6 -137l4 137l70 1280h20l-84 -1446h-22z" />
    <glyph glyph-name="W" unicode="W" horiz-adv-x="376" 
d="M109 0h-23l-47 1446h20l37 -1225l2 -219l6 188l76 1256h17l73 -1243l6 -201l5 225l36 1219h21l-49 -1446h-23l-73 1257l-5 185l-4 -185z" />
    <glyph glyph-name="X" unicode="X" horiz-adv-x="243" 
d="M41 0h-21l99 776l-94 670h20l55 -393l29 -252l25 252l47 393h20l-82 -670l84 -776h-20l-51 473l-23 283l-29 -283z" />
    <glyph glyph-name="Y" unicode="Y" horiz-adv-x="243" 
d="M113 0v494l-86 952h20l64 -737l12 -197l12 197l62 737h20l-84 -950v-496h-20z" />
    <glyph glyph-name="Z" unicode="Z" horiz-adv-x="215" 
d="M39 0v16l117 1409h-117v21h137v-19l-117 -1407h125v-20h-145z" />
    <glyph glyph-name="bracketleft" unicode="[" horiz-adv-x="182" 
d="M168 -387h-111v1900h111v-20h-90v-1860h90v-20z" />
    <glyph glyph-name="backslash" unicode="\" horiz-adv-x="237" 
d="M68 1446l122 -1446h-20l-123 1446h21z" />
    <glyph glyph-name="bracketright" unicode="]" horiz-adv-x="182" 
d="M14 -387v20h90v1860h-90v20h111v-1900h-111z" />
    <glyph glyph-name="asciicircum" unicode="^" 
d="M137 1237l-55 -152h-23l70 181h16l68 -181h-23z" />
    <glyph glyph-name="uni005F" unicode="_" horiz-adv-x="204" 
d="M184 -125h-164v21h164v-21z" />
    <glyph glyph-name="grave" unicode="`" 
d="M74 1339h22l58 -104h-19z" />
    <glyph glyph-name="a" unicode="a" 
d="M203 68q-7 -37 -28.5 -56.5t-49.5 -19.5q-41 0 -58.5 24.5t-17.5 83.5v437q0 62 27 92q7 8 15.5 14t22.5 12.5t17 8.5q37 16 53.5 29.5t16.5 37.5v352q0 72 -66 72q-63 0 -63 -74v-323h-21v323q0 43 22 69t62 26q86 0 86 -93v-1083h-16zM125 12q34 0 55 31.5t21 77.5v571
q-11 -20 -60 -45q-36 -16 -49 -31q-22 -25 -22 -79v-428q0 -97 55 -97z" />
    <glyph glyph-name="b" unicode="b" horiz-adv-x="278" 
d="M141 -8q-55 0 -67 61l-2 -53h-17v1495h21v-389q15 70 74 70q43 0 60 -31t17 -98v-930q0 -125 -86 -125zM141 12q66 0 66 111v924q0 56 -13 82t-44 26q-36 0 -55 -32.5t-19 -82.5v-911q0 -58 14.5 -87.5t50.5 -29.5z" />
    <glyph glyph-name="c" unicode="c" horiz-adv-x="268" 
d="M135 -8q-84 0 -84 98v987q0 50 23.5 74.5t62.5 24.5t61.5 -24.5t22.5 -70.5v-387h-20v389q-4 72 -64 72q-32 0 -48.5 -21t-16.5 -57v-987q0 -34 16 -56t47 -22q63 0 66 72v416h20v-416q0 -43 -23.5 -67.5t-62.5 -24.5z" />
    <glyph glyph-name="d" unicode="d" 
d="M205 53q-12 -61 -68 -61q-86 0 -86 125v930q0 129 84 129q54 0 68 -56v375h20v-1495h-16zM137 12q36 0 51 29.5t15 87.5v922q0 104 -68 104q-63 0 -63 -108v-924q0 -111 65 -111z" />
    <glyph glyph-name="e" unicode="e" 
d="M223 84q0 -43 -23.5 -67.5t-62.5 -24.5q-40 0 -63 25.5t-23 74.5v981q0 52 23 77.5t63 25.5q86 0 86 -103v-485h-151v-496q0 -36 17 -58t48 -22q33 0 49.5 21.5t16.5 50.5v385h20v-385zM72 608h131v467q0 80 -66 80q-65 0 -65 -80v-467z" />
    <glyph glyph-name="f" unicode="f" horiz-adv-x="149" 
d="M80 1145v-1145h-21v1145h-47v20h47v238q0 54 15 73t57 19h6v-20h-6q-32 0 -41.5 -13.5t-9.5 -60.5v-236h57v-20h-57z" />
    <glyph glyph-name="g" unicode="g" horiz-adv-x="272" 
d="M127 -127q-88 0 -88 64q0 52 63 67q-55 3 -55 49q0 44 53 53q-49 16 -49 84v891q0 67 47 86q9 4 35 9q70 9 70 69v12h20v-12q0 -39 -15 -55t-48 -21q3 0 10 -2.5t10 -3.5q41 -21 41 -82v-891q0 -45 -23.5 -68.5t-60.5 -23.5h-2q-33 0 -50 -12t-17 -31t16.5 -25.5
t52.5 -6.5h23q86 0 86 -64v-4q0 -36 -31.5 -59t-83.5 -23h-4zM135 117q32 0 49 20t17 53v891q0 76 -66 76q-21 0 -29 -6q-34 -21 -34 -70v-891q0 -34 16 -53.5t47 -19.5zM131 -106q39 0 66.5 17.5t27.5 43.5v4q0 24 -14.5 33.5t-52.5 9.5q-40 -2 -69.5 -17.5t-29.5 -43.5v-2
q3 -45 70 -45h2z" />
    <glyph glyph-name="h" unicode="h" horiz-adv-x="276" 
d="M76 0h-21v1495h21v-379q15 60 67 60q43 0 61.5 -27.5t18.5 -91.5v-1057h-20v1055q0 57 -14 78.5t-46 21.5q-67 0 -67 -129v-1026z" />
    <glyph glyph-name="i" unicode="i" horiz-adv-x="131" 
d="M66 1237q-17 0 -17 29q0 28 19 28q16 0 16 -28q0 -29 -18 -29zM55 0v1165h21v-1165h-21z" />
    <glyph glyph-name="j" unicode="j" horiz-adv-x="131" 
d="M66 1237q-17 0 -17 29q0 28 19 28q16 0 16 -28q0 -29 -18 -29zM2 -104v20h16q37 0 37 51v1198h21v-1198q0 -37 -12.5 -54t-43.5 -17h-18z" />
    <glyph glyph-name="k" unicode="k" horiz-adv-x="256" 
d="M150 805l-74 -383v-422h-21v1495h21v-844l-4 -219l22 160l113 573h20l-69 -346l73 -819h-20l-49 573z" />
    <glyph glyph-name="l" unicode="l" horiz-adv-x="131" 
d="M55 0v1495h21v-1495h-21z" />
    <glyph glyph-name="m" unicode="m" horiz-adv-x="399" 
d="M76 0h-21v1165h17l2 -47q15 58 63 58q59 0 68 -76q13 76 65 76q39 0 57.5 -28t18.5 -91v-1057h-20v1055q0 57 -13 78.5t-43 21.5q-59 0 -59 -98v-1057h-21v1057q0 55 -12 76.5t-43 21.5q-35 0 -47 -32.5t-12 -100.5v-1022z" />
    <glyph glyph-name="n" unicode="n" horiz-adv-x="276" 
d="M76 0h-21v1165h17l2 -59q21 70 71 70q42 0 60 -27.5t18 -91.5v-1057h-20v1055q0 56 -13.5 78t-44.5 22q-69 0 -69 -129v-1026z" />
    <glyph glyph-name="o" unicode="o" 
d="M137 -8q-40 0 -63 25.5t-23 74.5v983q0 50 23.5 75.5t62.5 25.5t62.5 -25.5t23.5 -75.5v-983q0 -49 -23 -74.5t-63 -25.5zM137 12q33 0 49.5 22.5t16.5 57.5v983q0 36 -17 58t-49 22q-31 0 -48 -22t-17 -58v-983q0 -34 17 -57t48 -23z" />
    <glyph glyph-name="p" unicode="p" horiz-adv-x="278" 
d="M141 -8q-49 0 -65 55v-420h-21v1538h17l2 -57q20 68 71 68q43 0 62.5 -29t19.5 -103v-925q0 -127 -86 -127zM141 12q66 0 66 113v911q0 65 -15.5 92t-46.5 27q-69 0 -69 -131v-899q0 -49 16 -81t49 -32z" />
    <glyph glyph-name="q" unicode="q" horiz-adv-x="278" 
d="M203 -373v428q-15 -63 -68 -63q-84 0 -84 127v925q0 72 21 102t61 30q57 0 72 -62l2 51h16v-1538h-20zM135 12q31 0 49.5 28.5t18.5 86.5v899q0 66 -16.5 97.5t-53.5 31.5q-61 0 -61 -113v-921q0 -109 63 -109z" />
    <glyph glyph-name="r" unicode="r" horiz-adv-x="167" 
d="M55 0v1165h17l2 -57q12 57 76 57h2v-20h-2q-46 0 -60 -26t-14 -101v-1018h-21z" />
    <glyph glyph-name="s" unicode="s" horiz-adv-x="256" 
d="M127 -8q-80 0 -80 94v414h21v-414q4 -74 59 -74q61 0 61 70v410q0 41 -16 64t-55 48q-24 15 -36 25.5t-22 32t-10 51.5v370q0 93 78 93q80 0 80 -95v-360h-21v362q0 72 -59 72q-57 0 -57 -72v-368q0 -35 15 -55.5t48 -41.5q43 -28 59.5 -52t16.5 -74v-410q0 -90 -82 -90z
" />
    <glyph glyph-name="t" unicode="t" horiz-adv-x="163" 
d="M143 0h-8q-45 0 -58.5 21t-13.5 92v1032h-43v18l25 2q14 2 17 5t4 20q2 18 2 96h16v-121h59v-20h-59v-1030q0 -64 9 -79.5t44 -15.5h6v-20z" />
    <glyph glyph-name="u" unicode="u" horiz-adv-x="270" 
d="M197 55q-15 -63 -64 -63q-42 0 -61 27.5t-19 91.5v1054h21v-1052q0 -56 14 -78.5t45 -22.5q62 0 62 129v1024h20v-1165h-16z" />
    <glyph glyph-name="v" unicode="v" horiz-adv-x="233" 
d="M111 0l-82 1165h20l64 -956l6 -207l6 207l59 956h21l-78 -1165h-16z" />
    <glyph glyph-name="w" unicode="w" horiz-adv-x="364" 
d="M109 0h-19l-59 1165h20l45 -962l4 -189l9 189l65 962h16l66 -962l8 -189l4 189l45 962h21l-60 -1165h-18l-63 901l-11 252l-10 -252z" />
    <glyph glyph-name="x" unicode="x" horiz-adv-x="235" 
d="M39 0h-21l82 618l-73 547h20l51 -389l17 -151l16 149l51 391h21l-74 -544l88 -621h-20l-60 432l-22 184l-21 -182z" />
    <glyph glyph-name="y" unicode="y" horiz-adv-x="235" 
d="M43 -156v21h16q48 0 50 51l6 94l-86 1155h20l66 -925l8 -205l8 211l53 919h21l-78 -1247q-1 -40 -17 -57t-49 -17h-18z" />
    <glyph glyph-name="z" unicode="z" horiz-adv-x="184" 
d="M31 0v12l104 1133h-104v20h125v-18l-105 -1127h109v-20h-129z" />
    <glyph glyph-name="braceleft" unicode="{" horiz-adv-x="182" 
d="M154 -391q-65 0 -97 24t-32 82q0 34 8 99l51 360q31 246 31 254q0 94 -90 94h-2v23h2q39 0 64.5 23t25.5 71q0 32 -23 203q-5 49 -19.5 160.5t-19.5 166.5q-22 163 -22 215q0 61 32 97.5t91 36.5h4v-21h-4q-48 0 -75.5 -31t-27.5 -82q0 -44 23 -215q5 -55 19.5 -166.5
t19.5 -160.5q22 -163 22 -203q0 -49 -27 -76.5t-57 -27.5v-3q30 0 57 -27.5t27 -76.5q0 -25 -8 -90q-21 -141 -51 -356q-31 -250 -31 -267q0 -88 109 -88h6v-18h-6z" />
    <glyph glyph-name="bar" unicode="|" horiz-adv-x="137" 
d="M57 -258v2013h23v-2013h-23z" />
    <glyph glyph-name="braceright" unicode="}" horiz-adv-x="182" 
d="M16 -373h7q108 0 108 88q0 34 -8 97l-51 362q-31 246 -31 254q0 49 27 76.5t57 27.5v3q-30 0 -57 27.5t-27 76.5q0 40 22 203q5 49 19.5 160.5t19.5 166.5q23 171 23 215q0 51 -27 82t-75 31h-5v21h5q59 0 90.5 -36.5t31.5 -97.5q0 -52 -22 -215q-5 -55 -19.5 -166.5
t-19.5 -160.5q-23 -171 -23 -203q0 -48 26 -71t65 -23h2v-23h-2q-40 0 -65.5 -22t-25.5 -72q0 -16 9 -90q25 -171 51 -354q31 -250 31 -269q0 -58 -32 -82t-97 -24h-7v18z" />
    <glyph glyph-name="asciitilde" unicode="~" 
d="M53 1202q0 62 41 62q21 0 47 -21.5t37 -21.5q25 0 25 43h20q0 -64 -45 -64q-21 0 -46.5 22.5t-37.5 22.5q-13 0 -17.5 -9.5t-4.5 -33.5h-19z" />
    <glyph glyph-name="uni00A0" unicode="&#xa0;" horiz-adv-x="126" 
 />
    <glyph glyph-name="exclamdown" unicode="&#xa1;" horiz-adv-x="192" 
d="M96 1198q21 0 21 -31q0 -30 -23 -30q-18 0 -18 30q0 31 20 31zM106 -256h-22v162q0 49 1 199.5t1 246.5q0 347 2 486v237h14v-69q2 -86 2 -398q0 -87 1 -257t1 -245v-362z" />
    <glyph glyph-name="cent" unicode="&#xa2;" 
d="M223 84q0 -43 -22 -67.5t-54 -24.5v-271h-20v271q-34 2 -55 27t-21 71v987q0 49 22 74t54 25v270h20v-270q36 -2 56 -26.5t20 -68.5v-381h-20v383q-2 32 -18.5 52t-47.5 20q-32 0 -48.5 -21t-16.5 -57v-987q0 -34 17 -56t48 -22q63 0 66 72v416h20v-416z" />
    <glyph glyph-name="sterling" unicode="&#xa3;" horiz-adv-x="358" 
d="M244 -10q-37 0 -88 55q-24 -57 -72 -57q-30 0 -48 24.5t-18 53.5q0 24 18 41.5t42 17.5q28 0 69 -41q5 58 5 61l-5 70q-2 22 -6 69.5t-8 92.5t-8 84q-13 141 -23 188h-73v21h69q0 2 -4.5 36t-5.5 62q-3 51 -8.5 166t-7.5 151q-1 59 -3.5 142t-2.5 102q0 125 86 125
q51 0 69.5 -37.5t18.5 -124.5v-35h-21v35q0 80 -13.5 111t-53.5 31q-66 0 -66 -105q0 -49 2 -92q4 -159 12 -317q10 -189 19 -250h94v-21h-90l12 -76q12 -112 25 -247q12 -129 12 -181q0 -46 -10 -77q3 -3 15 -15.5t17 -17t14.5 -12t18 -10.5t17.5 -3q49 0 49 119v82h20v-84
q0 -137 -69 -137zM84 8q40 0 57 53q-34 43 -65 43q-37 0 -37 -38q0 -20 13 -39t32 -19z" />
    <glyph glyph-name="currency" unicode="&#xa4;" horiz-adv-x="258" 
d="M172 514q-16 -16 -43 -16q-29 0 -45 16l-37 -51l-12 12l39 51q-11 18 -11 39v289q0 23 11 41l-35 47l12 12l35 -47q15 15 43 15t43 -15l35 49l12 -10l-37 -53q11 -11 11 -37v-289q0 -27 -11 -41l39 -51l-12 -12zM129 518q43 0 43 49v287q0 47 -43 47q-45 0 -45 -49v-285
q0 -22 11.5 -35.5t33.5 -13.5z" />
    <glyph glyph-name="yen" unicode="&#xa5;" horiz-adv-x="247" 
d="M135 301v-301h-20v301h-82v21h82v145h-82v20h82v56l-86 903h22l68 -701l6 -163l6 163l66 701h22l-84 -901v-58h82v-20h-82v-145h82v-21h-82z" />
    <glyph glyph-name="brokenbar" unicode="&#xa6;" horiz-adv-x="137" 
d="M57 1755h23v-895h-23v895zM80 662v-920h-23v920h23z" />
    <glyph glyph-name="section" unicode="&#xa7;" horiz-adv-x="282" 
d="M141 -6q-82 0 -82 94v281h21v-281q0 -33 15 -53.5t46 -20.5q62 0 62 70v424q0 12 -2 22.5t-8 21t-9.5 16.5t-14.5 16.5t-14 14t-17.5 15t-16.5 13.5q-26 21 -40.5 35.5t-28 40.5t-13.5 55v47q0 69 45 84q-23 38 -23 74v399q0 92 80 92q78 0 78 -92v-281h-20v279
q-4 74 -60 74q-57 0 -57 -72v-399q0 -24 12.5 -46.5t24 -34t37.5 -33.5q5 -5 8 -7q26 -21 40 -35.5t27 -40.5t13 -57v-60q0 -54 -39 -74q18 -32 18 -67v-424q0 -90 -82 -90zM141 639q28 -19 56 -51q26 14 26 61v60q0 10 -2 20t-4.5 17.5t-9 17t-10 14.5t-12.5 14.5
t-12.5 12.5t-15 13t-14.5 13q-27 24 -49 46q-35 -11 -35 -72v-47q0 -27 14.5 -51t25.5 -33.5t42 -34.5z" />
    <glyph glyph-name="dieresis" unicode="&#xa8;" 
d="M98 1245q-18 0 -18 27q0 26 18 26q19 0 19 -28q0 -25 -19 -25zM168 1245q-18 0 -18 27q0 26 18 26q16 0 16 -28q0 -25 -16 -25z" />
    <glyph glyph-name="copyright" unicode="&#xa9;" horiz-adv-x="458" 
d="M227 -8q-82 0 -129 44t-47 136v1092q0 94 47.5 142t128.5 48q83 0 132 -47.5t49 -140.5v-1094q0 -91 -49 -135.5t-132 -44.5zM227 12q75 0 117.5 39t42.5 121v1096q0 82 -43 124t-117 42q-72 0 -113.5 -42.5t-41.5 -125.5v-1096q0 -158 155 -158zM229 100q-34 0 -55.5 22
t-21.5 64v1069q0 45 21.5 68t55.5 23q36 0 57 -22t21 -62v-433h-20v433q-3 63 -58 63q-57 0 -57 -70v-1069q0 -65 57 -65q55 0 58 61v467h20v-467q0 -40 -21 -61t-57 -21z" />
    <glyph glyph-name="ordfeminine" unicode="&#xaa;" horiz-adv-x="225" 
d="M158 653q-15 -51 -60 -51q-55 0 -55 78v313q0 48 20 68q11 11 41 24q25 9 38.5 19.5t13.5 28.5v253q0 48 -45 48t-45 -50v-227h-21v229q0 68 66 68q30 0 47.5 -17.5t17.5 -47.5v-783h-16zM98 623q25 0 41.5 19.5t16.5 51.5v408q-7 -19 -43 -33q-24 -9 -37 -25
q-13 -13 -13 -51v-307q0 -35 8.5 -49t26.5 -14z" />
    <glyph glyph-name="guillemotleft" unicode="&#xab;" horiz-adv-x="299" 
d="M129 258l-92 340v2l86 363h24l-90 -363l97 -342h-25zM231 258l-92 340v2l86 363h25l-90 -363l96 -342h-25z" />
    <glyph glyph-name="logicalnot" unicode="&#xac;" horiz-adv-x="393" 
d="M299 553v133h-248v21h268v-154h-20z" />
    <glyph glyph-name="uni00AD" unicode="&#xad;" horiz-adv-x="264" 
d="M223 588h-182v20h182v-20z" />
    <glyph glyph-name="registered" unicode="&#xae;" horiz-adv-x="362" 
d="M182 1163q-66 0 -105.5 38.5t-39.5 105.5v2q0 66 39 105.5t104 39.5q64 0 105 -38.5t41 -106.5v-2q0 -66 -41 -105t-103 -39zM182 1184q55 0 89 32t34 91q0 60 -34 93.5t-91 33.5q-56 0 -89.5 -33t-33.5 -92v-2q0 -59 33 -91t92 -32zM145 1298v-59h-20v145h61
q56 0 56 -41q0 -35 -33 -38q31 -3 31 -37v-29h-19q0 1 -1 3t-1 3v23q0 18 -5.5 24t-29.5 6h-39zM145 1368v-55h37q39 0 39 30q0 25 -35 25h-41z" />
    <glyph glyph-name="macron" unicode="&#xaf;" 
d="M70 1303h133v-21h-133v21z" />
    <glyph glyph-name="degree" unicode="&#xb0;" horiz-adv-x="272" 
d="M135 1110q-38 0 -63 24t-25 62v4q0 40 25.5 64t62.5 24q41 0 65.5 -23.5t24.5 -64.5v-4q0 -39 -24.5 -62.5t-65.5 -23.5zM135 1130q34 0 52 18t18 48v4q0 31 -20 49.5t-50 18.5q-28 0 -47.5 -17.5t-19.5 -50.5v-4q0 -66 67 -66z" />
    <glyph glyph-name="plusminus" unicode="&#xb1;" horiz-adv-x="329" 
d="M172 764v-78h-20v78h-82v20h82v80h20v-80h82v-20h-82zM70 608v21h184v-21h-184z" />
    <glyph glyph-name="uni00B2" unicode="&#xb2;" horiz-adv-x="163" 
d="M31 836q0 54 41 186q41 128 41 176v205q0 19 -7 27t-24 8q-31 0 -31 -37v-225h-18v229q0 51 49 51t49 -51v-207q0 -52 -41 -180q-41 -132 -41 -182v-48h86v-18h-104v66z" />
    <glyph glyph-name="uni00B3" unicode="&#xb3;" horiz-adv-x="167" 
d="M84 762q-51 0 -51 53v207h18v-207q0 -35 33 -35t33 35v252q0 28 -9 36.5t-34 8.5h-8v16h8q41 0 41 70v207q0 33 -31 33t-31 -33v-186h-18v186q0 51 49 51t49 -51v-207q0 -59 -31 -76q33 -3 33 -55v-252q0 -53 -51 -53z" />
    <glyph glyph-name="acute" unicode="&#xb4;" 
d="M178 1366h25l-72 -131h-18z" />
    <glyph glyph-name="paragraph" unicode="&#xb6;" horiz-adv-x="366" 
d="M197 0v1143h-37q-53 0 -89 38.5t-36 102.5v27q0 66 34.5 100.5t94.5 34.5h145v-1446h-20v1425h-72v-1425h-20zM197 1163v262h-33q-48 0 -78.5 -28.5t-30.5 -85.5v-27q0 -53 31 -87t76 -34h35z" />
    <glyph glyph-name="periodcentered" unicode="&#xb7;" horiz-adv-x="192" 
d="M96 561q-20 0 -20 31t22 31q19 0 19 -31t-21 -31z" />
    <glyph glyph-name="cedilla" unicode="&#xb8;" 
d="M135 -156q-64 0 -67 58h20q4 -22 15 -29.5t32 -7.5q26 0 38.5 6.5t12.5 28.5q0 30 -53 30h-6v76h20v-57q60 -3 60 -49q0 -28 -20.5 -42t-51.5 -14z" />
    <glyph glyph-name="uni00B9" unicode="&#xb9;" horiz-adv-x="129" 
d="M18 770v18h37v619q-3 -23 -32 -23v21q19 0 25.5 9t8.5 34h17v-660h35v-18h-91z" />
    <glyph glyph-name="ordmasculine" unicode="&#xba;" horiz-adv-x="227" 
d="M113 602q-30 0 -47 18t-17 48v718q0 68 64 68q32 0 48.5 -17.5t16.5 -47.5v-719q0 -68 -65 -68zM113 623q45 0 45 49v714q0 48 -45 48q-43 0 -43 -50v-714q0 -47 43 -47z" />
    <glyph glyph-name="guillemotright" unicode="&#xbb;" horiz-adv-x="299" 
d="M43 258l96 342l-90 363h25l86 -363v-2l-92 -340h-25zM145 258l97 342l-90 363h24l86 -363v-2l-92 -340h-25z" />
    <glyph glyph-name="onequarter" unicode="&#xbc;" horiz-adv-x="337" 
d="M178 815l98 660l25 -5l-115 -659zM63 768v18h37v619q-3 -23 -32 -23v21q19 0 25.5 9t8.5 34h17v-660h35v-18h-91zM162 678l-105 -692l-24 6l121 690zM281 150v-150h-17v150h-78v16l74 512h21v-510h24v-18h-24zM203 168h61l2 450v29l-2 -20z" />
    <glyph glyph-name="onehalf" unicode="&#xbd;" horiz-adv-x="337" 
d="M178 815l98 660l25 -5l-115 -659zM63 768v18h37v619q-3 -23 -32 -23v21q19 0 25.5 9t8.5 34h17v-660h35v-18h-91zM184 66q0 54 41 186q41 128 41 176v205q0 19 -6.5 27t-23.5 8q-31 0 -31 -37v-225h-19v229q0 51 50 51q49 0 49 -51v-207q0 -52 -41 -180
q-41 -132 -41 -182v-48h86v-18h-105v66zM162 678l-105 -692l-24 6l121 690z" />
    <glyph glyph-name="threequarters" unicode="&#xbe;" horiz-adv-x="337" 
d="M178 815l98 660l25 -5l-115 -659zM102 760q-51 0 -51 53v207h19v-207q0 -35 32 -35q33 0 33 35v252q0 28 -9 36.5t-34 8.5h-8v16h8q41 0 41 70v207q0 33 -31 33q-30 0 -30 -33v-186h-19v186q0 51 49 51q50 0 50 -51v-207q0 -59 -31 -76q33 -3 33 -55v-252q0 -53 -52 -53z
M162 678l-105 -692l-24 6l121 690zM281 150v-150h-17v150h-78v16l74 512h21v-510h24v-18h-24zM203 168h61l2 450v29l-2 -20z" />
    <glyph glyph-name="questiondown" unicode="&#xbf;" horiz-adv-x="305" 
d="M131 1176q21 0 21 -31t-23 -31q-8 0 -13 9t-5 22q0 31 20 31zM141 1036v-428q0 -54 -7 -97t-15.5 -65t-22.5 -51q-1 -2 -6 -13t-6 -13.5l-5 -12.5t-5 -14.5t-4 -14t-4 -16.5t-2.5 -17t-2 -20.5t-0.5 -21.5v-436q0 -82 68 -82q70 0 70 82v436h20v-436q0 -48 -23 -75.5
t-67 -27.5q-42 0 -65 27.5t-23 75.5v436q0 33 6.5 64t11.5 43.5t19 43.5q14 29 22 50.5t14.5 62t6.5 92.5v428h20z" />
    <glyph glyph-name="Agrave" unicode="&#xc0;" horiz-adv-x="245" 
d="M51 1606h23l57 -105h-18zM180 328h-114l-19 -328h-20l84 1446h20l88 -1446h-20zM66 348h112l-49 826l-8 260l-8 -260z" />
    <glyph glyph-name="Aacute" unicode="&#xc1;" horiz-adv-x="245" 
d="M178 1630h25l-72 -131h-18zM180 328h-114l-19 -328h-20l84 1446h20l88 -1446h-20zM66 348h112l-49 826l-8 260l-8 -260z" />
    <glyph glyph-name="Acircumflex" unicode="&#xc2;" horiz-adv-x="245" 
d="M127 1579l-45 -80h-23l60 100h16l58 -100h-23zM180 328h-114l-19 -328h-20l84 1446h20l88 -1446h-20zM66 348h112l-49 826l-8 260l-8 -260z" />
    <glyph glyph-name="Atilde" unicode="&#xc3;" horiz-adv-x="245" 
d="M37 1520q0 61 41 61q21 0 47 -21.5t37 -21.5q24 0 24 43h21q0 -63 -45 -63q-21 0 -46.5 21.5t-37.5 21.5q-13 0 -18 -9t-5 -32h-18zM180 328h-114l-19 -328h-20l84 1446h20l88 -1446h-20zM66 348h112l-49 826l-8 260l-8 -260z" />
    <glyph glyph-name="Adieresis" unicode="&#xc4;" horiz-adv-x="245" 
d="M86 1509q-18 0 -18 27t18 27t18 -29q0 -25 -18 -25zM156 1509q-8 0 -13.5 7.5t-5.5 19.5q0 27 19 27q16 0 16 -29q0 -25 -16 -25zM180 328h-114l-19 -328h-20l84 1446h20l88 -1446h-20zM66 348h112l-49 826l-8 260l-8 -260z" />
    <glyph glyph-name="Aring" unicode="&#xc5;" horiz-adv-x="245" 
d="M121 1501q-29 0 -48.5 18.5t-19.5 47.5t19 47t49 18q29 0 47 -18t18 -47t-18 -47.5t-47 -18.5zM121 1520q20 0 32.5 13.5t12.5 33.5q0 47 -45 47q-47 0 -47 -47q0 -20 13.5 -33.5t33.5 -13.5zM180 328h-114l-19 -328h-20l84 1446h20l88 -1446h-20zM66 348h112l-49 826
l-8 260l-8 -260z" />
    <glyph glyph-name="AE" unicode="&#xc6;" horiz-adv-x="346" 
d="M182 328h-110l-25 -328h-20l110 1446h178v-21h-155l28 -702h117v-21h-117l27 -682h102v-20h-122zM72 348h110l-32 940l-3 156l-6 -156z" />
    <glyph glyph-name="Ccedilla" unicode="&#xc7;" horiz-adv-x="284" 
d="M141 -166q-64 0 -67 57h20q4 -22 15 -29t32 -7q27 0 39.5 6.5t12.5 27.5q0 31 -54 31h-6v72q-78 3 -78 102v1258q0 48 22.5 75t65.5 27q41 0 64.5 -26t23.5 -70v-457h-20v459q0 34 -17 54t-51 20q-67 0 -67 -82v-1258q0 -82 67 -82q34 0 51 21t17 55v533h20v-533
q0 -44 -21 -70t-56 -26v-53q59 -3 59 -50q0 -28 -20 -41.5t-52 -13.5z" />
    <glyph glyph-name="Egrave" unicode="&#xc8;" horiz-adv-x="210" 
d="M53 1606h23l57 -105h-18zM182 0h-125v1446h123v-21h-102v-688h100v-20h-100v-697h104v-20z" />
    <glyph glyph-name="Eacute" unicode="&#xc9;" horiz-adv-x="210" 
d="M180 1630h25l-72 -131h-18zM182 0h-125v1446h123v-21h-102v-688h100v-20h-100v-697h104v-20z" />
    <glyph glyph-name="Ecircumflex" unicode="&#xca;" horiz-adv-x="210" 
d="M129 1579l-45 -80h-23l60 100h16l58 -100h-23zM182 0h-125v1446h123v-21h-102v-688h100v-20h-100v-697h104v-20z" />
    <glyph glyph-name="Edieresis" unicode="&#xcb;" horiz-adv-x="210" 
d="M88 1509q-18 0 -18 27t18 27t18 -29q0 -25 -18 -25zM158 1509q-8 0 -13.5 7.5t-5.5 19.5q0 27 19 27q16 0 16 -29q0 -25 -16 -25zM182 0h-125v1446h123v-21h-102v-688h100v-20h-100v-697h104v-20z" />
    <glyph glyph-name="Igrave" unicode="&#xcc;" horiz-adv-x="159" 
d="M10 1606h23l57 -105h-18zM23 0v18h47v1407h-47v21h114v-21h-47v-1407h47v-18h-114z" />
    <glyph glyph-name="Iacute" unicode="&#xcd;" horiz-adv-x="159" 
d="M137 1630h25l-72 -131h-18zM23 0v18h47v1407h-47v21h114v-21h-47v-1407h47v-18h-114z" />
    <glyph glyph-name="Icircumflex" unicode="&#xce;" horiz-adv-x="159" 
d="M86 1579l-45 -80h-23l60 100h16l58 -100h-23zM23 0v18h47v1407h-47v21h114v-21h-47v-1407h47v-18h-114z" />
    <glyph glyph-name="Idieresis" unicode="&#xcf;" horiz-adv-x="159" 
d="M45 1509q-18 0 -18 27t18 27t18 -29q0 -25 -18 -25zM115 1509q-8 0 -13.5 7.5t-5.5 19.5q0 27 19 27q16 0 16 -29q0 -25 -16 -25zM23 0v18h47v1407h-47v21h114v-21h-47v-1407h47v-18h-114z" />
    <glyph glyph-name="Eth" unicode="&#xd0;" horiz-adv-x="296" 
d="M61 0v709h-41v20h41v717h60q62 0 91.5 -26.5t29.5 -90.5v-1214q0 -62 -30.5 -88.5t-92.5 -26.5h-58zM82 709v-689h37q52 0 77 21.5t25 73.5v1214q0 52 -24.5 74t-75.5 22h-39v-696h63v-20h-63z" />
    <glyph glyph-name="Ntilde" unicode="&#xd1;" horiz-adv-x="321" 
d="M80 1495q0 61 41 61q21 0 47 -21.5t37 -21.5q24 0 24 43h21q0 -63 -45 -63q-21 0 -46.5 21.5t-37.5 21.5q-13 0 -18 -9t-5 -32h-18zM78 0h-21v1446h19l151 -1196l27 -242l-10 268v1170h20v-1446h-22l-133 1049l-39 337l8 -450v-936z" />
    <glyph glyph-name="Ograve" unicode="&#xd2;" horiz-adv-x="294" 
d="M78 1610h22l58 -105h-19zM147 -8q-92 0 -92 102v1258q0 102 92 102q93 0 93 -102v-1258q0 -102 -93 -102zM147 12q36 0 54 22t18 60v1258q0 38 -18 60t-54 22q-34 0 -52.5 -22t-18.5 -60v-1258q0 -38 18.5 -60t52.5 -22z" />
    <glyph glyph-name="Oacute" unicode="&#xd3;" horiz-adv-x="294" 
d="M197 1640h24l-71 -131h-19zM147 -8q-92 0 -92 102v1258q0 102 92 102q93 0 93 -102v-1258q0 -102 -93 -102zM147 12q36 0 54 22t18 60v1258q0 38 -18 60t-54 22q-34 0 -52.5 -22t-18.5 -60v-1258q0 -38 18.5 -60t52.5 -22z" />
    <glyph glyph-name="Ocircumflex" unicode="&#xd4;" horiz-adv-x="294" 
d="M154 1583l-45 -80h-23l59 101h17l57 -101h-22zM147 -8q-92 0 -92 102v1258q0 102 92 102q93 0 93 -102v-1258q0 -102 -93 -102zM147 12q36 0 54 22t18 60v1258q0 38 -18 60t-54 22q-34 0 -52.5 -22t-18.5 -60v-1258q0 -38 18.5 -60t52.5 -22z" />
    <glyph glyph-name="Otilde" unicode="&#xd5;" horiz-adv-x="294" 
d="M63 1524q0 61 41 61q21 0 47 -21.5t37 -21.5q25 0 25 43h20q0 -63 -45 -63q-21 0 -46.5 21.5t-37.5 21.5q-13 0 -17.5 -8.5t-4.5 -32.5h-19zM147 -8q-92 0 -92 102v1258q0 102 92 102q93 0 93 -102v-1258q0 -102 -93 -102zM147 12q36 0 54 22t18 60v1258q0 38 -18 60
t-54 22q-34 0 -52.5 -22t-18.5 -60v-1258q0 -38 18.5 -60t52.5 -22z" />
    <glyph glyph-name="Odieresis" unicode="&#xd6;" horiz-adv-x="294" 
d="M113 1513q-8 0 -13.5 7.5t-5.5 19.5q0 27 19 27q18 0 18 -29q0 -25 -18 -25zM182 1513q-18 0 -18 27t18 27q17 0 17 -29q0 -25 -17 -25zM147 -8q-92 0 -92 102v1258q0 102 92 102q93 0 93 -102v-1258q0 -102 -93 -102zM147 12q36 0 54 22t18 60v1258q0 38 -18 60t-54 22
q-34 0 -52.5 -22t-18.5 -60v-1258q0 -38 18.5 -60t52.5 -22z" />
    <glyph glyph-name="multiply" unicode="&#xd7;" horiz-adv-x="329" 
d="M162 721l-78 -84l-14 14l80 84l-74 74l14 14l72 -75l74 77l12 -14l-72 -76l78 -82l-12 -14z" />
    <glyph glyph-name="Oslash" unicode="&#xd8;" horiz-adv-x="294" 
d="M147 -8q-27 0 -47 10l-18 -186h-21l23 198q-29 29 -29 80v1258q0 102 92 102q28 0 41 -8l15 180h18l-16 -190q35 -22 35 -84v-1258q0 -102 -93 -102zM76 94q0 -26 10 -49l100 1380q-12 9 -39 9q-34 0 -52.5 -22t-18.5 -60v-1258zM147 12q36 0 54 22t18 60v1258
q0 37 -16 59l-101 -1386q23 -13 45 -13z" />
    <glyph glyph-name="Ugrave" unicode="&#xd9;" horiz-adv-x="294" 
d="M74 1597h22l58 -104h-19zM147 -8q-90 0 -90 102v1352h21v-1352q0 -38 17.5 -60t51.5 -22q70 0 70 82v1352h21v-1352q0 -102 -91 -102z" />
    <glyph glyph-name="Uacute" unicode="&#xda;" horiz-adv-x="294" 
d="M201 1622h24l-71 -131h-19zM147 -8q-90 0 -90 102v1352h21v-1352q0 -38 17.5 -60t51.5 -22q70 0 70 82v1352h21v-1352q0 -102 -91 -102z" />
    <glyph glyph-name="Ucircumflex" unicode="&#xdb;" horiz-adv-x="294" 
d="M150 1571l-46 -80h-22l59 100h17l57 -100h-22zM147 -8q-90 0 -90 102v1352h21v-1352q0 -38 17.5 -60t51.5 -22q70 0 70 82v1352h21v-1352q0 -102 -91 -102z" />
    <glyph glyph-name="Udieresis" unicode="&#xdc;" horiz-adv-x="294" 
d="M115 1503q-8 0 -13.5 7.5t-5.5 19.5q0 26 19 26q18 0 18 -28q0 -25 -18 -25zM184 1503q-18 0 -18 27q0 26 18 26q17 0 17 -28q0 -25 -17 -25zM147 -8q-90 0 -90 102v1352h21v-1352q0 -38 17.5 -60t51.5 -22q70 0 70 82v1352h21v-1352q0 -102 -91 -102z" />
    <glyph glyph-name="Yacute" unicode="&#xdd;" horiz-adv-x="243" 
d="M180 1618h25l-72 -131h-18zM113 0v494l-86 952h20l64 -737l12 -197l12 197l62 737h20l-84 -950v-496h-20z" />
    <glyph glyph-name="Thorn" unicode="&#xde;" horiz-adv-x="276" 
d="M78 305v-305h-21v1446h21v-270h47q58 0 81 -24.5t23 -86.5v-643q0 -117 -104 -117h-47zM78 1155v-829h47q84 0 84 96v643q0 53 -18 71.5t-66 18.5h-47z" />
    <glyph glyph-name="germandbls" unicode="&#xdf;" horiz-adv-x="272" 
d="M76 0h-21v1415q0 40 23 63t61 23t61 -23t23 -63v-571q0 -72 -51 -84q29 -6 41 -24.5t12 -59.5v-592q0 -47 -18.5 -65.5t-65.5 -18.5h-8v20h8q36 0 50 13.5t14 50.5v592q0 69 -68 69h-4v21h2q68 0 68 74v575q0 29 -17.5 47.5t-46.5 18.5q-27 0 -45 -18.5t-18 -47.5v-1415z
" />
    <glyph glyph-name="agrave" unicode="&#xe0;" 
d="M66 1335h22l57 -104h-18zM203 68q-7 -37 -28.5 -56.5t-49.5 -19.5q-41 0 -58.5 24.5t-17.5 83.5v437q0 62 27 92q7 8 15.5 14t22.5 12.5t17 8.5q37 16 53.5 29.5t16.5 37.5v352q0 72 -66 72q-63 0 -63 -74v-323h-21v323q0 43 22 69t62 26q86 0 86 -93v-1083h-16zM125 12
q34 0 55 31.5t21 77.5v571q-11 -20 -60 -45q-36 -16 -49 -31q-22 -25 -22 -79v-428q0 -97 55 -97z" />
    <glyph glyph-name="aacute" unicode="&#xe1;" 
d="M193 1360h24l-72 -131h-18zM203 68q-7 -37 -28.5 -56.5t-49.5 -19.5q-41 0 -58.5 24.5t-17.5 83.5v437q0 62 27 92q7 8 15.5 14t22.5 12.5t17 8.5q37 16 53.5 29.5t16.5 37.5v352q0 72 -66 72q-63 0 -63 -74v-323h-21v323q0 43 22 69t62 26q86 0 86 -93v-1083h-16z
M125 12q34 0 55 31.5t21 77.5v571q-11 -20 -60 -45q-36 -16 -49 -31q-22 -25 -22 -79v-428q0 -97 55 -97z" />
    <glyph glyph-name="acircumflex" unicode="&#xe2;" 
d="M141 1309l-45 -80h-22l59 100h17l57 -100h-23zM203 68q-7 -37 -28.5 -56.5t-49.5 -19.5q-41 0 -58.5 24.5t-17.5 83.5v437q0 62 27 92q7 8 15.5 14t22.5 12.5t17 8.5q37 16 53.5 29.5t16.5 37.5v352q0 72 -66 72q-63 0 -63 -74v-323h-21v323q0 43 22 69t62 26
q86 0 86 -93v-1083h-16zM125 12q34 0 55 31.5t21 77.5v571q-11 -20 -60 -45q-36 -16 -49 -31q-22 -25 -22 -79v-428q0 -97 55 -97z" />
    <glyph glyph-name="atilde" unicode="&#xe3;" 
d="M57 1237q0 61 41 61q21 0 47 -21.5t37 -21.5q25 0 25 43h20q0 -63 -45 -63q-21 0 -46.5 21.5t-37.5 21.5q-13 0 -17.5 -8.5t-4.5 -32.5h-19zM203 68q-7 -37 -28.5 -56.5t-49.5 -19.5q-41 0 -58.5 24.5t-17.5 83.5v437q0 62 27 92q7 8 15.5 14t22.5 12.5t17 8.5
q37 16 53.5 29.5t16.5 37.5v352q0 72 -66 72q-63 0 -63 -74v-323h-21v323q0 43 22 69t62 26q86 0 86 -93v-1083h-16zM125 12q34 0 55 31.5t21 77.5v571q-11 -20 -60 -45q-36 -16 -49 -31q-22 -25 -22 -79v-428q0 -97 55 -97z" />
    <glyph glyph-name="adieresis" unicode="&#xe4;" 
d="M100 1239q-18 0 -18 27q0 26 18 26q19 0 19 -28q0 -25 -19 -25zM170 1239q-18 0 -18 27q0 26 18 26q16 0 16 -28q0 -25 -16 -25zM203 68q-7 -37 -28.5 -56.5t-49.5 -19.5q-41 0 -58.5 24.5t-17.5 83.5v437q0 62 27 92q7 8 15.5 14t22.5 12.5t17 8.5q37 16 53.5 29.5
t16.5 37.5v352q0 72 -66 72q-63 0 -63 -74v-323h-21v323q0 43 22 69t62 26q86 0 86 -93v-1083h-16zM125 12q34 0 55 31.5t21 77.5v571q-11 -20 -60 -45q-36 -16 -49 -31q-22 -25 -22 -79v-428q0 -97 55 -97z" />
    <glyph glyph-name="aring" unicode="&#xe5;" 
d="M135 1237q-29 0 -48 18.5t-19 47.5t19 47t48 18t47.5 -18t18.5 -47t-18.5 -47.5t-47.5 -18.5zM135 1255q20 0 32.5 13.5t12.5 34.5q0 47 -45 47q-47 0 -47 -47q0 -20 13.5 -34t33.5 -14zM203 68q-7 -37 -28.5 -56.5t-49.5 -19.5q-41 0 -58.5 24.5t-17.5 83.5v437
q0 62 27 92q7 8 15.5 14t22.5 12.5t17 8.5q37 16 53.5 29.5t16.5 37.5v352q0 72 -66 72q-63 0 -63 -74v-323h-21v323q0 43 22 69t62 26q86 0 86 -93v-1083h-16zM125 12q34 0 55 31.5t21 77.5v571q-11 -20 -60 -45q-36 -16 -49 -31q-22 -25 -22 -79v-428q0 -97 55 -97z" />
    <glyph glyph-name="ae" unicode="&#xe6;" horiz-adv-x="423" 
d="M373 84q0 -43 -23 -67.5t-61 -24.5q-82 0 -82 88q-6 -45 -28 -66.5t-54 -21.5q-41 0 -58.5 24.5t-17.5 83.5v387q0 58 27 93q13 14 57 34q23 9 34.5 15t22.5 20t11 33v401q0 72 -64 72q-65 0 -65 -74v-323h-21v323q2 43 24 69t62 26q61 0 76 -52q15 52 76 52
q84 0 84 -103v-485h-152v-496q0 -36 18 -58t50 -22q33 0 48 21t15 51v385h21v-385zM221 608h131v467q0 80 -63 80q-68 0 -68 -80v-467zM125 12q34 0 55 31.5t21 77.5v516q-10 -18 -58 -39q-36 -16 -51 -33q-22 -25 -22 -78v-378q0 -97 55 -97z" />
    <glyph glyph-name="ccedilla" unicode="&#xe7;" horiz-adv-x="268" 
d="M135 -166q-64 0 -67 57h20q4 -22 15 -29t32 -7q27 0 39 6.5t12 27.5q0 31 -53 31h-6v72q-76 9 -76 98v987q0 50 23.5 74.5t62.5 24.5t61.5 -24.5t22.5 -70.5v-387h-20v389q-4 72 -64 72q-32 0 -48.5 -21t-16.5 -57v-987q0 -34 16 -56t47 -22q63 0 66 72v416h20v-416
q0 -83 -74 -92v-53q60 -3 60 -50q0 -28 -20 -41.5t-52 -13.5z" />
    <glyph glyph-name="egrave" unicode="&#xe8;" 
d="M68 1335h22l57 -104h-18zM223 84q0 -43 -23.5 -67.5t-62.5 -24.5q-40 0 -63 25.5t-23 74.5v981q0 52 23 77.5t63 25.5q86 0 86 -103v-485h-151v-496q0 -36 17 -58t48 -22q33 0 49.5 21.5t16.5 50.5v385h20v-385zM72 608h131v467q0 80 -66 80q-65 0 -65 -80v-467z" />
    <glyph glyph-name="eacute" unicode="&#xe9;" 
d="M195 1360h24l-72 -131h-18zM223 84q0 -43 -23.5 -67.5t-62.5 -24.5q-40 0 -63 25.5t-23 74.5v981q0 52 23 77.5t63 25.5q86 0 86 -103v-485h-151v-496q0 -36 17 -58t48 -22q33 0 49.5 21.5t16.5 50.5v385h20v-385zM72 608h131v467q0 80 -66 80q-65 0 -65 -80v-467z" />
    <glyph glyph-name="ecircumflex" unicode="&#xea;" 
d="M143 1309l-45 -80h-22l59 100h17l57 -100h-23zM223 84q0 -43 -23.5 -67.5t-62.5 -24.5q-40 0 -63 25.5t-23 74.5v981q0 52 23 77.5t63 25.5q86 0 86 -103v-485h-151v-496q0 -36 17 -58t48 -22q33 0 49.5 21.5t16.5 50.5v385h20v-385zM72 608h131v467q0 80 -66 80
q-65 0 -65 -80v-467z" />
    <glyph glyph-name="edieresis" unicode="&#xeb;" 
d="M102 1239q-18 0 -18 27q0 26 18 26q19 0 19 -28q0 -25 -19 -25zM172 1239q-18 0 -18 27q0 26 18 26q16 0 16 -28q0 -25 -16 -25zM223 84q0 -43 -23.5 -67.5t-62.5 -24.5q-40 0 -63 25.5t-23 74.5v981q0 52 23 77.5t63 25.5q86 0 86 -103v-485h-151v-496q0 -36 17 -58
t48 -22q33 0 49.5 21.5t16.5 50.5v385h20v-385zM72 608h131v467q0 80 -66 80q-65 0 -65 -80v-467z" />
    <glyph glyph-name="igrave" unicode="&#xec;" horiz-adv-x="131" 
d="M-4 1325h22l58 -104h-19zM55 0v1165h21v-1165h-21z" />
    <glyph glyph-name="iacute" unicode="&#xed;" horiz-adv-x="131" 
d="M121 1366h24l-71 -131h-19zM55 0v1165h21v-1165h-21z" />
    <glyph glyph-name="icircumflex" unicode="&#xee;" horiz-adv-x="131" 
d="M72 1298l-45 -79h-23l59 100h17l57 -100h-22zM55 0v1165h21v-1165h-21z" />
    <glyph glyph-name="idieresis" unicode="&#xef;" horiz-adv-x="131" 
d="M31 1229q-8 0 -13.5 7t-5.5 19q0 27 19 27q18 0 18 -29q0 -24 -18 -24zM100 1229q-18 0 -18 26q0 27 18 27q17 0 17 -29q0 -24 -17 -24zM55 0v1165h21v-1165h-21z" />
    <glyph glyph-name="eth" unicode="&#xf0;" horiz-adv-x="276" 
d="M137 -8q-40 0 -63 25.5t-23 74.5v983q0 50 23.5 75.5t58.5 25.5q58 0 72 -56q-11 157 -60 283l-61 -127h-23l74 154q-38 84 -84 114h31q37 -24 65 -90l43 90h25l-57 -117q23 -65 37 -124q28 -140 28 -242l2 -969q0 -48 -24 -74t-64 -26zM137 12q66 0 66 80v973
q0 90 -66 90q-31 0 -48 -22t-17 -58v-983q0 -34 17 -57t48 -23z" />
    <glyph glyph-name="ntilde" unicode="&#xf1;" horiz-adv-x="276" 
d="M61 1249q0 62 41 62q21 0 47 -21.5t37 -21.5q25 0 25 43h20q0 -64 -45 -64q-21 0 -46.5 21.5t-37.5 21.5q-13 0 -17.5 -8.5t-4.5 -32.5h-19zM76 0h-21v1165h17l2 -59q21 70 71 70q42 0 60 -27.5t18 -91.5v-1057h-20v1055q0 56 -13.5 78t-44.5 22q-69 0 -69 -129v-1026z
" />
    <glyph glyph-name="ograve" unicode="&#xf2;" 
d="M68 1335h22l57 -104h-18zM137 -8q-40 0 -63 25.5t-23 74.5v983q0 50 23.5 75.5t62.5 25.5t62.5 -25.5t23.5 -75.5v-983q0 -49 -23 -74.5t-63 -25.5zM137 12q33 0 49.5 22.5t16.5 57.5v983q0 36 -17 58t-49 22q-31 0 -48 -22t-17 -58v-983q0 -34 17 -57t48 -23z" />
    <glyph glyph-name="oacute" unicode="&#xf3;" 
d="M195 1360h24l-72 -131h-18zM137 -8q-40 0 -63 25.5t-23 74.5v983q0 50 23.5 75.5t62.5 25.5t62.5 -25.5t23.5 -75.5v-983q0 -49 -23 -74.5t-63 -25.5zM137 12q33 0 49.5 22.5t16.5 57.5v983q0 36 -17 58t-49 22q-31 0 -48 -22t-17 -58v-983q0 -34 17 -57t48 -23z" />
    <glyph glyph-name="ocircumflex" unicode="&#xf4;" 
d="M143 1309l-45 -80h-22l59 100h17l57 -100h-23zM137 -8q-40 0 -63 25.5t-23 74.5v983q0 50 23.5 75.5t62.5 25.5t62.5 -25.5t23.5 -75.5v-983q0 -49 -23 -74.5t-63 -25.5zM137 12q33 0 49.5 22.5t16.5 57.5v983q0 36 -17 58t-49 22q-31 0 -48 -22t-17 -58v-983
q0 -34 17 -57t48 -23z" />
    <glyph glyph-name="otilde" unicode="&#xf5;" 
d="M53 1249q0 62 41 62q21 0 47 -21.5t37 -21.5q25 0 25 43h20q0 -64 -45 -64q-21 0 -46.5 21.5t-37.5 21.5q-13 0 -17.5 -8.5t-4.5 -32.5h-19zM137 -8q-40 0 -63 25.5t-23 74.5v983q0 50 23.5 75.5t62.5 25.5t62.5 -25.5t23.5 -75.5v-983q0 -49 -23 -74.5t-63 -25.5z
M137 12q33 0 49.5 22.5t16.5 57.5v983q0 36 -17 58t-49 22q-31 0 -48 -22t-17 -58v-983q0 -34 17 -57t48 -23z" />
    <glyph glyph-name="odieresis" unicode="&#xf6;" 
d="M102 1239q-18 0 -18 27q0 26 18 26q19 0 19 -28q0 -25 -19 -25zM172 1239q-18 0 -18 27q0 26 18 26q16 0 16 -28q0 -25 -16 -25zM137 -8q-40 0 -63 25.5t-23 74.5v983q0 50 23.5 75.5t62.5 25.5t62.5 -25.5t23.5 -75.5v-983q0 -49 -23 -74.5t-63 -25.5zM137 12
q33 0 49.5 22.5t16.5 57.5v983q0 36 -17 58t-49 22q-31 0 -48 -22t-17 -58v-983q0 -34 17 -57t48 -23z" />
    <glyph glyph-name="divide" unicode="&#xf7;" horiz-adv-x="329" 
d="M162 762q-19 0 -19 24q0 25 19 25q18 0 18 -27q0 -22 -18 -22zM70 702v21h184v-21h-184zM162 614q-19 0 -19 25t19 25q16 0 16 -27q0 -23 -16 -23z" />
    <glyph glyph-name="oslash" unicode="&#xf8;" horiz-adv-x="276" 
d="M137 -8q-26 0 -39 8l-18 -184h-19l21 194q-31 31 -31 82v983q0 50 23.5 75.5t62.5 25.5q25 0 37 -9l16 164h19l-19 -174q33 -23 33 -82v-983q0 -49 -23 -74.5t-63 -25.5zM72 92q0 -30 12 -51l88 1104q-13 10 -35 10q-31 0 -48 -22t-17 -58v-983zM137 12q33 0 49.5 22.5
t16.5 57.5v983q0 38 -15 53l-88 -1105q18 -11 37 -11z" />
    <glyph glyph-name="ugrave" unicode="&#xf9;" horiz-adv-x="270" 
d="M63 1321h23l57 -104h-18zM197 55q-15 -63 -64 -63q-42 0 -61 27.5t-19 91.5v1054h21v-1052q0 -56 14 -78.5t45 -22.5q62 0 62 129v1024h20v-1165h-16z" />
    <glyph glyph-name="uacute" unicode="&#xfa;" horiz-adv-x="270" 
d="M190 1346h25l-72 -132h-18zM197 55q-15 -63 -64 -63q-42 0 -61 27.5t-19 91.5v1054h21v-1052q0 -56 14 -78.5t45 -22.5q62 0 62 129v1024h20v-1165h-16z" />
    <glyph glyph-name="ucircumflex" unicode="&#xfb;" horiz-adv-x="270" 
d="M139 1294l-45 -80h-22l59 101h16l58 -101h-23zM197 55q-15 -63 -64 -63q-42 0 -61 27.5t-19 91.5v1054h21v-1052q0 -56 14 -78.5t45 -22.5q62 0 62 129v1024h20v-1165h-16z" />
    <glyph glyph-name="udieresis" unicode="&#xfc;" horiz-adv-x="270" 
d="M98 1225q-18 0 -18 26q0 27 18 27q19 0 19 -29q0 -24 -19 -24zM168 1225q-18 0 -18 26q0 27 18 27q16 0 16 -29q0 -24 -16 -24zM197 55q-15 -63 -64 -63q-42 0 -61 27.5t-19 91.5v1054h21v-1052q0 -56 14 -78.5t45 -22.5q62 0 62 129v1024h20v-1165h-16z" />
    <glyph glyph-name="yacute" unicode="&#xfd;" horiz-adv-x="235" 
d="M176 1343h25l-72 -131h-18zM43 -156v21h16q48 0 50 51l6 94l-86 1155h20l66 -925l8 -205l8 211l53 919h21l-78 -1247q-1 -40 -17 -57t-49 -17h-18z" />
    <glyph glyph-name="thorn" unicode="&#xfe;" horiz-adv-x="278" 
d="M141 -8q-49 0 -65 55v-420h-21v1868h21v-383q15 64 69 64q82 0 82 -132v-925q0 -127 -86 -127zM141 12q66 0 66 113v922q0 108 -64 108q-67 0 -67 -115v-915q0 -49 16 -81t49 -32z" />
    <glyph glyph-name="ydieresis" unicode="&#xff;" horiz-adv-x="235" 
d="M84 1223q-18 0 -18 26q0 27 18 27t18 -29q0 -24 -18 -24zM154 1223q-8 0 -13.5 7t-5.5 19q0 27 19 27q16 0 16 -29q0 -24 -16 -24zM43 -156v21h16q48 0 50 51l6 94l-86 1155h20l66 -925l8 -205l8 211l53 919h21l-78 -1247q-1 -40 -17 -57t-49 -17h-18z" />
    <glyph glyph-name="Amacron" unicode="&#x100;" horiz-adv-x="245" 
d="M55 1546h133v-20h-133v20zM180 328h-114l-19 -328h-20l84 1446h20l88 -1446h-20zM66 348h112l-49 826l-8 260l-8 -260z" />
    <glyph glyph-name="amacron" unicode="&#x101;" 
d="M70 1296h133v-20h-133v20zM203 68q-7 -37 -28.5 -56.5t-49.5 -19.5q-41 0 -58.5 24.5t-17.5 83.5v437q0 62 27 92q7 8 15.5 14t22.5 12.5t17 8.5q37 16 53.5 29.5t16.5 37.5v352q0 72 -66 72q-63 0 -63 -74v-323h-21v323q0 43 22 69t62 26q86 0 86 -93v-1083h-16zM125 12
q34 0 55 31.5t21 77.5v571q-11 -20 -60 -45q-36 -16 -49 -31q-22 -25 -22 -79v-428q0 -97 55 -97z" />
    <glyph glyph-name="Abreve" unicode="&#x102;" horiz-adv-x="245" 
d="M121 1497q-37 0 -53.5 22t-18.5 66h19q2 -35 13.5 -51.5t41.5 -17.5q52 3 55 69h19q-3 -88 -76 -88zM180 328h-114l-19 -328h-20l84 1446h20l88 -1446h-20zM66 348h112l-49 826l-8 260l-8 -260z" />
    <glyph glyph-name="abreve" unicode="&#x103;" 
d="M135 1227q-37 0 -53.5 22t-18.5 66h19q2 -35 13.5 -52t41.5 -18q53 3 56 70h18q-3 -88 -76 -88zM203 68q-7 -37 -28.5 -56.5t-49.5 -19.5q-41 0 -58.5 24.5t-17.5 83.5v437q0 62 27 92q7 8 15.5 14t22.5 12.5t17 8.5q37 16 53.5 29.5t16.5 37.5v352q0 72 -66 72
q-63 0 -63 -74v-323h-21v323q0 43 22 69t62 26q86 0 86 -93v-1083h-16zM125 12q34 0 55 31.5t21 77.5v571q-11 -20 -60 -45q-36 -16 -49 -31q-22 -25 -22 -79v-428q0 -97 55 -97z" />
    <glyph glyph-name="Aogonek" unicode="&#x104;" horiz-adv-x="245" 
d="M289 -92q-14 -55 -72 -55q-65 0 -65 63q0 43 47 90l-19 322h-114l-19 -328h-20l84 1446h20l88 -1446q-49 -49 -49 -84q0 -45 47 -45q39 0 51 37h21zM66 348h112l-49 826l-8 260l-8 -260z" />
    <glyph glyph-name="aogonek" unicode="&#x105;" 
d="M291 -92q-14 -55 -72 -55q-65 0 -65 63q0 16 8 33.5t17 29t26 31.5l-2 58q-7 -37 -28.5 -56.5t-49.5 -19.5q-41 0 -58.5 24.5t-17.5 83.5v437q0 62 27 92q7 8 15.5 14t22.5 12.5t17 8.5q37 16 53.5 29.5t16.5 37.5v352q0 72 -66 72q-63 0 -63 -74v-323h-21v323
q0 43 22 69t62 26q86 0 86 -93v-1083q-49 -49 -49 -84q0 -45 47 -45q39 0 51 37h21zM125 12q34 0 55 31.5t21 77.5v571q-11 -20 -60 -45q-36 -16 -49 -31q-22 -25 -22 -79v-428q0 -97 55 -97z" />
    <glyph glyph-name="Cacute" unicode="&#x106;" horiz-adv-x="284" 
d="M203 1638h24l-71 -131h-19zM143 -8q-88 0 -88 102v1258q0 48 22.5 75t65.5 27q41 0 64.5 -26t23.5 -70v-457h-20v459q0 34 -17 54t-51 20q-67 0 -67 -82v-1258q0 -82 67 -82q34 0 51 21t17 55v533h20v-533q0 -96 -88 -96z" />
    <glyph glyph-name="cacute" unicode="&#x107;" horiz-adv-x="268" 
d="M195 1360h24l-72 -131h-18zM135 -8q-84 0 -84 98v987q0 50 23.5 74.5t62.5 24.5t61.5 -24.5t22.5 -70.5v-387h-20v389q-4 72 -64 72q-32 0 -48.5 -21t-16.5 -57v-987q0 -34 16 -56t47 -22q63 0 66 72v416h20v-416q0 -43 -23.5 -67.5t-62.5 -24.5z" />
    <glyph glyph-name="Ccircumflex" unicode="&#x108;" horiz-adv-x="284" 
d="M152 1587l-46 -80h-22l59 101h17l57 -101h-22zM143 -8q-88 0 -88 102v1258q0 48 22.5 75t65.5 27q41 0 64.5 -26t23.5 -70v-457h-20v459q0 34 -17 54t-51 20q-67 0 -67 -82v-1258q0 -82 67 -82q34 0 51 21t17 55v533h20v-533q0 -96 -88 -96z" />
    <glyph glyph-name="ccircumflex" unicode="&#x109;" horiz-adv-x="268" 
d="M143 1309l-45 -80h-22l59 100h17l57 -100h-23zM135 -8q-84 0 -84 98v987q0 50 23.5 74.5t62.5 24.5t61.5 -24.5t22.5 -70.5v-387h-20v389q-4 72 -64 72q-32 0 -48.5 -21t-16.5 -57v-987q0 -34 16 -56t47 -22q63 0 66 72v416h20v-416q0 -43 -23.5 -67.5t-62.5 -24.5z" />
    <glyph glyph-name="Cdotaccent" unicode="&#x10a;" horiz-adv-x="284" 
d="M147 1507q-20 0 -20 29q0 31 20 31q21 0 21 -31q0 -29 -21 -29zM143 -8q-88 0 -88 102v1258q0 48 22.5 75t65.5 27q41 0 64.5 -26t23.5 -70v-457h-20v459q0 34 -17 54t-51 20q-67 0 -67 -82v-1258q0 -82 67 -82q34 0 51 21t17 55v533h20v-533q0 -96 -88 -96z" />
    <glyph glyph-name="cdotaccent" unicode="&#x10b;" horiz-adv-x="268" 
d="M139 1229q-20 0 -20 28q0 31 20 31q21 0 21 -31q0 -28 -21 -28zM135 -8q-84 0 -84 98v987q0 50 23.5 74.5t62.5 24.5t61.5 -24.5t22.5 -70.5v-387h-20v389q-4 72 -64 72q-32 0 -48.5 -21t-16.5 -57v-987q0 -34 16 -56t47 -22q63 0 66 72v416h20v-416q0 -43 -23.5 -67.5
t-62.5 -24.5z" />
    <glyph glyph-name="Ccaron" unicode="&#x10c;" horiz-adv-x="284" 
d="M139 1507l-57 101h22l46 -82l45 82h22l-61 -101h-17zM143 -8q-88 0 -88 102v1258q0 48 22.5 75t65.5 27q41 0 64.5 -26t23.5 -70v-457h-20v459q0 34 -17 54t-51 20q-67 0 -67 -82v-1258q0 -82 67 -82q34 0 51 21t17 55v533h20v-533q0 -96 -88 -96z" />
    <glyph glyph-name="ccaron" unicode="&#x10d;" horiz-adv-x="268" 
d="M131 1229l-57 100h22l45 -82l45 82h23l-62 -100h-16zM135 -8q-84 0 -84 98v987q0 50 23.5 74.5t62.5 24.5t61.5 -24.5t22.5 -70.5v-387h-20v389q-4 72 -64 72q-32 0 -48.5 -21t-16.5 -57v-987q0 -34 16 -56t47 -22q63 0 66 72v416h20v-416q0 -43 -23.5 -67.5t-62.5 -24.5
z" />
    <glyph glyph-name="Dcaron" unicode="&#x10e;" horiz-adv-x="292" 
d="M133 1495l-57 100h22l45 -82l45 82h23l-61 -100h-17zM57 1446h60q62 0 91.5 -26.5t29.5 -90.5v-1214q0 -62 -30.5 -88.5t-92.5 -26.5h-58v1446zM78 1425v-1405h37q52 0 77 21.5t25 73.5v1214q0 52 -24.5 74t-75.5 22h-39z" />
    <glyph glyph-name="dcaron" unicode="&#x10f;" horiz-adv-x="270" 
d="M205 53q-12 -61 -68 -61q-86 0 -86 125v930q0 129 84 129q54 0 68 -56v375h20v-1495h-16zM291 1495h22l-34 -115h-17zM137 12q36 0 51 29.5t15 87.5v922q0 104 -68 104q-63 0 -63 -108v-924q0 -111 65 -111z" />
    <glyph glyph-name="Dcroat" unicode="&#x110;" horiz-adv-x="296" 
d="M61 0v709h-41v20h41v717h60q62 0 91.5 -26.5t29.5 -90.5v-1214q0 -62 -30.5 -88.5t-92.5 -26.5h-58zM82 709v-689h37q52 0 77 21.5t25 73.5v1214q0 52 -24.5 74t-75.5 22h-39v-696h63v-20h-63z" />
    <glyph glyph-name="dcroat" unicode="&#x111;" 
d="M205 53q-12 -61 -68 -61q-86 0 -86 125v930q0 129 84 129q54 0 68 -56v207h-62v19h62v149h20v-149h41v-19h-41v-1327h-16zM137 12q36 0 51 29.5t15 87.5v922q0 104 -68 104q-63 0 -63 -108v-924q0 -111 65 -111z" />
    <glyph glyph-name="Emacron" unicode="&#x112;" horiz-adv-x="210" 
d="M57 1567h133v-21h-133v21zM182 0h-125v1446h123v-21h-102v-688h100v-20h-100v-697h104v-20z" />
    <glyph glyph-name="emacron" unicode="&#x113;" 
d="M72 1276h133v-21h-133v21zM223 84q0 -43 -23.5 -67.5t-62.5 -24.5q-40 0 -63 25.5t-23 74.5v981q0 52 23 77.5t63 25.5q86 0 86 -103v-485h-151v-496q0 -36 17 -58t48 -22q33 0 49.5 21.5t16.5 50.5v385h20v-385zM72 608h131v467q0 80 -66 80q-65 0 -65 -80v-467z" />
    <glyph glyph-name="Ebreve" unicode="&#x114;" horiz-adv-x="210" 
d="M123 1497q-37 0 -53.5 22t-18.5 66h19q2 -35 13.5 -51.5t41.5 -17.5q52 3 55 69h19q-3 -88 -76 -88zM182 0h-125v1446h123v-21h-102v-688h100v-20h-100v-697h104v-20z" />
    <glyph glyph-name="ebreve" unicode="&#x115;" 
d="M137 1227q-37 0 -53 21.5t-18 66.5h18q2 -35 13.5 -52t41.5 -18q53 3 56 70h18q-3 -88 -76 -88zM223 84q0 -43 -23.5 -67.5t-62.5 -24.5q-40 0 -63 25.5t-23 74.5v981q0 52 23 77.5t63 25.5q86 0 86 -103v-485h-151v-496q0 -36 17 -58t48 -22q33 0 49.5 21.5t16.5 50.5
v385h20v-385zM72 608h131v467q0 80 -66 80q-65 0 -65 -80v-467z" />
    <glyph glyph-name="Edotaccent" unicode="&#x116;" horiz-adv-x="210" 
d="M125 1499q-21 0 -21 29q0 31 21 31q20 0 20 -31q0 -29 -20 -29zM182 0h-125v1446h123v-21h-102v-688h100v-20h-100v-697h104v-20z" />
    <glyph glyph-name="edotaccent" unicode="&#x117;" 
d="M139 1229q-20 0 -20 28q0 31 20 31q21 0 21 -31q0 -28 -21 -28zM223 84q0 -43 -23.5 -67.5t-62.5 -24.5q-40 0 -63 25.5t-23 74.5v981q0 52 23 77.5t63 25.5q86 0 86 -103v-485h-151v-496q0 -36 17 -58t48 -22q33 0 49.5 21.5t16.5 50.5v385h20v-385zM72 608h131v467
q0 80 -66 80q-65 0 -65 -80v-467z" />
    <glyph glyph-name="Eogonek" unicode="&#x118;" horiz-adv-x="210" 
d="M252 -92q-14 -55 -72 -55q-65 0 -65 63q0 40 41 84h-99v1446h123v-21h-102v-688h100v-20h-100v-697h104v-20q-49 -49 -49 -84q0 -45 47 -45q39 0 51 37h21z" />
    <glyph glyph-name="eogonek" unicode="&#x119;" 
d="M180 -141q-65 0 -65 63q0 30 28 70h-6q-40 0 -63 25.5t-23 74.5v981q0 52 23 77.5t63 25.5q86 0 86 -103v-485h-151v-496q0 -36 17 -58t48 -22q33 0 49.5 21.5t16.5 50.5v385h20v-385q0 -65 -49 -86q-41 -41 -41 -76q0 -45 47 -45q39 0 51 37h21q-14 -55 -72 -55zM72 608
h131v467q0 80 -66 80q-65 0 -65 -80v-467z" />
    <glyph glyph-name="Ecaron" unicode="&#x11a;" horiz-adv-x="210" 
d="M117 1499l-58 100h23l45 -81l45 81h23l-62 -100h-16zM182 0h-125v1446h123v-21h-102v-688h100v-20h-100v-697h104v-20z" />
    <glyph glyph-name="ecaron" unicode="&#x11b;" 
d="M131 1229l-57 100h22l45 -82l45 82h23l-62 -100h-16zM223 84q0 -43 -23.5 -67.5t-62.5 -24.5q-40 0 -63 25.5t-23 74.5v981q0 52 23 77.5t63 25.5q86 0 86 -103v-485h-151v-496q0 -36 17 -58t48 -22q33 0 49.5 21.5t16.5 50.5v385h20v-385zM72 608h131v467q0 80 -66 80
q-65 0 -65 -80v-467z" />
    <glyph glyph-name="Gcircumflex" unicode="&#x11c;" horiz-adv-x="288" 
d="M154 1587l-45 -80h-23l59 101h17l57 -101h-22zM219 70q-15 -78 -80 -78q-84 0 -84 102v1258q0 48 24 75t68 27q42 0 65.5 -27t23.5 -75v-451h-21v451q0 82 -68 82q-71 0 -71 -82v-1258q0 -82 63 -82q25 0 41 10t23.5 30t9.5 38t2 45v584h-80v20h101v-739h-17v70z" />
    <glyph glyph-name="gcircumflex" unicode="&#x11d;" horiz-adv-x="272" 
d="M141 1325l-45 -80h-22l59 101h17l57 -101h-23zM123 -127q-86 0 -86 64q0 42 63 67q-55 3 -55 49q0 41 57 53q-51 15 -51 84v891q0 90 82 95q6 1 18 2t16.5 2t12.5 2.5t10.5 3.5t6.5 6t5 9.5t1 12.5v5h20v-5q0 -30 -13.5 -37.5t-47.5 -7.5q3 0 7.5 -2.5t6.5 -3.5
q45 -15 45 -82v-891q0 -45 -23.5 -68.5t-60.5 -23.5h-2q-34 0 -51.5 -12.5t-17.5 -30.5q0 -19 17.5 -25.5t53.5 -6.5h23q86 0 86 -64v-4q0 -36 -31.5 -59t-83.5 -23h-8zM135 117q32 0 49 20t17 53v891q0 33 -17.5 54.5t-48.5 21.5q-20 0 -31 -8q-32 -14 -32 -68v-891
q0 -34 16 -53.5t47 -19.5zM131 -106q39 0 66.5 17.5t27.5 43.5v4q0 24 -14.5 33.5t-52.5 9.5q-40 -2 -70.5 -17.5t-30.5 -43.5q0 -47 68 -47h6z" />
    <glyph glyph-name="Gbreve" unicode="&#x11e;" horiz-adv-x="288" 
d="M147 1505q-37 0 -53 21.5t-18 66.5h18q2 -35 13.5 -51.5t42.5 -17.5q52 3 55 69h18q-3 -88 -76 -88zM219 70q-15 -78 -80 -78q-84 0 -84 102v1258q0 48 24 75t68 27q42 0 65.5 -27t23.5 -75v-451h-21v451q0 82 -68 82q-71 0 -71 -82v-1258q0 -82 63 -82q25 0 41 10
t23.5 30t9.5 38t2 45v584h-80v20h101v-739h-17v70z" />
    <glyph glyph-name="gbreve" unicode="&#x11f;" horiz-adv-x="272" 
d="M135 1243q-37 0 -53.5 22t-18.5 66h19q2 -35 13.5 -51.5t41.5 -17.5q53 3 56 69h18q-3 -88 -76 -88zM123 -127q-86 0 -86 64q0 42 63 67q-55 3 -55 49q0 41 57 53q-51 15 -51 84v891q0 90 82 95q6 1 18 2t16.5 2t12.5 2.5t10.5 3.5t6.5 6t5 9.5t1 12.5v5h20v-5
q0 -30 -13.5 -37.5t-47.5 -7.5q3 0 7.5 -2.5t6.5 -3.5q45 -15 45 -82v-891q0 -45 -23.5 -68.5t-60.5 -23.5h-2q-34 0 -51.5 -12.5t-17.5 -30.5q0 -19 17.5 -25.5t53.5 -6.5h23q86 0 86 -64v-4q0 -36 -31.5 -59t-83.5 -23h-8zM135 117q32 0 49 20t17 53v891q0 33 -17.5 54.5
t-48.5 21.5q-20 0 -31 -8q-32 -14 -32 -68v-891q0 -34 16 -53.5t47 -19.5zM131 -106q39 0 66.5 17.5t27.5 43.5v4q0 24 -14.5 33.5t-52.5 9.5q-40 -2 -70.5 -17.5t-30.5 -43.5q0 -47 68 -47h6z" />
    <glyph glyph-name="Gdotaccent" unicode="&#x120;" horiz-adv-x="288" 
d="M150 1507q-21 0 -21 29q0 31 21 31q20 0 20 -31q0 -29 -20 -29zM219 70q-15 -78 -80 -78q-84 0 -84 102v1258q0 48 24 75t68 27q42 0 65.5 -27t23.5 -75v-451h-21v451q0 82 -68 82q-71 0 -71 -82v-1258q0 -82 63 -82q25 0 41 10t23.5 30t9.5 38t2 45v584h-80v20h101v-739
h-17v70z" />
    <glyph glyph-name="gdotaccent" unicode="&#x121;" horiz-adv-x="272" 
d="M137 1245q-20 0 -20 29q0 31 20 31q21 0 21 -31q0 -29 -21 -29zM123 -127q-86 0 -86 64q0 42 63 67q-55 3 -55 49q0 41 57 53q-51 15 -51 84v891q0 90 82 95q6 1 18 2t16.5 2t12.5 2.5t10.5 3.5t6.5 6t5 9.5t1 12.5v5h20v-5q0 -30 -13.5 -37.5t-47.5 -7.5q3 0 7.5 -2.5
t6.5 -3.5q45 -15 45 -82v-891q0 -45 -23.5 -68.5t-60.5 -23.5h-2q-34 0 -51.5 -12.5t-17.5 -30.5q0 -19 17.5 -25.5t53.5 -6.5h23q86 0 86 -64v-4q0 -36 -31.5 -59t-83.5 -23h-8zM135 117q32 0 49 20t17 53v891q0 33 -17.5 54.5t-48.5 21.5q-20 0 -31 -8q-32 -14 -32 -68
v-891q0 -34 16 -53.5t47 -19.5zM131 -106q39 0 66.5 17.5t27.5 43.5v4q0 24 -14.5 33.5t-52.5 9.5q-40 -2 -70.5 -17.5t-30.5 -43.5q0 -47 68 -47h6z" />
    <glyph glyph-name="uni0122" unicode="&#x122;" horiz-adv-x="288" 
d="M219 70q-15 -78 -80 -78q-84 0 -84 102v1258q0 48 24 75t68 27q42 0 65.5 -27t23.5 -75v-451h-21v451q0 82 -68 82q-71 0 -71 -82v-1258q0 -82 63 -82q25 0 41 10t23.5 30t9.5 38t2 45v584h-80v20h101v-739h-17v70zM133 -182q25 36 25 71q-3 -8 -8 -8q-15 0 -15 27
q0 13 5.5 21t13.5 8q11 0 15.5 -8.5t4.5 -32.5q0 -51 -31 -86z" />
    <glyph glyph-name="uni0123" unicode="&#x123;" horiz-adv-x="272" 
d="M133 1245q-11 0 -15.5 8.5t-4.5 32.5q0 52 30 86l11 -8q-25 -36 -25 -72q3 8 8 8q15 0 15 -26q0 -29 -19 -29zM123 -127q-86 0 -86 64q0 42 63 67q-55 3 -55 49q0 41 57 53q-51 15 -51 84v891q0 90 82 95q6 1 18 2t16.5 2t12.5 2.5t10.5 3.5t6.5 6t5 9.5t1 12.5v5h20v-5
q0 -30 -13.5 -37.5t-47.5 -7.5q3 0 7.5 -2.5t6.5 -3.5q45 -15 45 -82v-891q0 -45 -23.5 -68.5t-60.5 -23.5h-2q-34 0 -51.5 -12.5t-17.5 -30.5q0 -19 17.5 -25.5t53.5 -6.5h23q86 0 86 -64v-4q0 -36 -31.5 -59t-83.5 -23h-8zM135 117q32 0 49 20t17 53v891q0 33 -17.5 54.5
t-48.5 21.5q-20 0 -31 -8q-32 -14 -32 -68v-891q0 -34 16 -53.5t47 -19.5zM131 -106q39 0 66.5 17.5t27.5 43.5v4q0 24 -14.5 33.5t-52.5 9.5q-40 -2 -70.5 -17.5t-30.5 -43.5q0 -47 68 -47h6z" />
    <glyph glyph-name="Hcircumflex" unicode="&#x124;" horiz-adv-x="290" 
d="M152 1563l-46 -80h-22l59 100h17l57 -100h-22zM213 719h-135v-719h-21v1446h21v-707h135v707h20v-1446h-20v719z" />
    <glyph glyph-name="hcircumflex" unicode="&#x125;" horiz-adv-x="276" 
d="M70 1628l-45 -80h-23l59 101h17l57 -101h-22zM76 0h-21v1495h21v-379q15 60 67 60q43 0 61.5 -27.5t18.5 -91.5v-1057h-20v1055q0 57 -14 78.5t-46 21.5q-67 0 -67 -129v-1026z" />
    <glyph glyph-name="Hbar" unicode="&#x126;" horiz-adv-x="290" 
d="M213 702h-135v-702h-21v1085h-32v19h32v342h21v-342h135v342h20v-342h33v-19h-33v-1085h-20v702zM213 1085h-135v-362h135v362z" />
    <glyph glyph-name="hbar" unicode="&#x127;" horiz-adv-x="276" 
d="M76 0h-21v1335h-39v19h39v141h21v-141h61v-19h-61v-219q15 60 67 60q43 0 61.5 -27.5t18.5 -91.5v-1057h-20v1055q0 57 -14 78.5t-46 21.5q-67 0 -67 -129v-1026z" />
    <glyph glyph-name="Itilde" unicode="&#x128;" horiz-adv-x="159" 
d="M-4 1520q0 61 41 61q21 0 47 -21.5t37 -21.5q24 0 24 43h21q0 -63 -45 -63q-21 0 -46.5 21.5t-37.5 21.5q-13 0 -18 -9t-5 -32h-18zM23 0v18h47v1407h-47v21h114v-21h-47v-1407h47v-18h-114z" />
    <glyph glyph-name="itilde" unicode="&#x129;" horiz-adv-x="131" 
d="M-18 1239q0 61 41 61q21 0 46.5 -21.5t36.5 -21.5q25 0 25 43h21q0 -63 -46 -63q-21 0 -46 21.5t-37 21.5q-13 0 -18 -9t-5 -32h-18zM55 0v1165h21v-1165h-21z" />
    <glyph glyph-name="Imacron" unicode="&#x12a;" horiz-adv-x="159" 
d="M14 1567h133v-21h-133v21zM23 0v18h47v1407h-47v21h114v-21h-47v-1407h47v-18h-114z" />
    <glyph glyph-name="imacron" unicode="&#x12b;" horiz-adv-x="131" 
d="M0 1264h133v-21h-133v21zM55 0v1165h21v-1165h-21z" />
    <glyph glyph-name="Ibreve" unicode="&#x12c;" horiz-adv-x="159" 
d="M80 1497q-37 0 -53.5 22t-18.5 66h19q2 -35 13.5 -51.5t41.5 -17.5q52 3 55 69h19q-3 -88 -76 -88zM23 0v18h47v1407h-47v21h114v-21h-47v-1407h47v-18h-114z" />
    <glyph glyph-name="ibreve" unicode="&#x12d;" horiz-adv-x="131" 
d="M66 1217q-37 0 -53.5 22t-18.5 66h18q2 -35 13.5 -52t42.5 -18q52 3 55 70h18q-3 -88 -75 -88zM55 0v1165h21v-1165h-21z" />
    <glyph glyph-name="Iogonek" unicode="&#x12e;" horiz-adv-x="159" 
d="M207 -92q-14 -55 -72 -55q-65 0 -65 63q0 40 41 84h-88v18h47v1407h-47v21h114v-21h-47v-1407h47v-18q-49 -49 -49 -84q0 -45 47 -45q39 0 51 37h21z" />
    <glyph glyph-name="iogonek" unicode="&#x12f;" horiz-adv-x="131" 
d="M66 1237q-17 0 -17 29q0 28 19 28q16 0 16 -28q0 -29 -18 -29zM145 -92q-14 -55 -71 -55q-66 0 -66 63q0 43 47 90v1159h21v-1165q-49 -49 -49 -84q0 -45 47 -45q39 0 51 37h20z" />
    <glyph glyph-name="Idotaccent" unicode="&#x130;" horiz-adv-x="159" 
d="M82 1499q-21 0 -21 29q0 31 21 31q20 0 20 -31q0 -29 -20 -29zM23 0v18h47v1407h-47v21h114v-21h-47v-1407h47v-18h-114z" />
    <glyph glyph-name="dotlessi" unicode="&#x131;" horiz-adv-x="131" 
d="M55 0v1165h21v-1165h-21z" />
    <glyph glyph-name="IJ" unicode="&#x132;" horiz-adv-x="286" 
d="M23 0v18h47v1407h-47v21h114v-21h-47v-1407h47v-18h-114zM172 20h12q20 0 25.5 12t5.5 50v1364h21v-1366q0 -49 -10.5 -64.5t-41.5 -15.5h-12v20z" />
    <glyph glyph-name="ij" unicode="&#x133;" horiz-adv-x="243" 
d="M66 1237q-17 0 -17 29q0 28 19 28q16 0 16 -28q0 -29 -18 -29zM178 1237q-16 0 -16 29q0 28 18 28q17 0 17 -28q0 -29 -19 -29zM55 1165q1 0 4.5 -1t6.5 -1l10 2v-1165h-21v1165zM57 -186h74q37 0 37 51v1300l3 -1q3 -1 7 -1l10 2v-1300q0 -37 -12 -54.5t-43 -17.5h-76
v21z" />
    <glyph glyph-name="Jcircumflex" unicode="&#x134;" horiz-adv-x="262" 
d="M199 1579l-45 -80h-23l59 100h17l57 -100h-22zM125 -8q-43 0 -61.5 25.5t-18.5 76.5v471h21v-471q0 -41 12.5 -61.5t46.5 -20.5q61 0 61 82v1352h21v-1352q0 -102 -82 -102z" />
    <glyph glyph-name="jcircumflex" unicode="&#x135;" horiz-adv-x="131" 
d="M74 1298l-45 -79h-23l60 100h16l57 -100h-22zM2 -84h16q37 0 37 51v1198h21v-1198q0 -37 -12.5 -54t-43.5 -17h-18v20z" />
    <glyph glyph-name="uni0136" unicode="&#x136;" horiz-adv-x="264" 
d="M152 963l-74 -435v-528h-21v1446h21v-701l-8 -221l20 172l131 750h21l-82 -457l78 -989h-21l-59 786zM131 -172q25 36 25 72q-3 -9 -9 -9q-14 0 -14 27q0 13 5.5 21t13.5 8q11 0 15.5 -8.5t4.5 -32.5q0 -51 -31 -86z" />
    <glyph glyph-name="uni0137" unicode="&#x137;" horiz-adv-x="256" 
d="M150 805l-74 -383v-422h-21v1495h21v-844l-4 -219l22 160l113 573h20l-69 -346l73 -819h-20l-49 573zM123 -170q24 35 24 72q-3 -8 -8 -8q-14 0 -14 26q0 29 18 29q21 0 21 -41q0 -51 -31 -86z" />
    <glyph glyph-name="kgreenlandic" unicode="&#x138;" horiz-adv-x="256" 
d="M150 805l-74 -383v-422h-21v1165h21v-514l-4 -219l22 160l113 573h20l-69 -346l73 -819h-20l-49 573z" />
    <glyph glyph-name="Lacute" unicode="&#x139;" horiz-adv-x="206" 
d="M125 1630h25l-72 -131h-19zM57 0v1446h21v-1426h102v-20h-123z" />
    <glyph glyph-name="lacute" unicode="&#x13a;" horiz-adv-x="131" 
d="M123 1679h24l-71 -131h-19zM55 0v1495h21v-1495h-21z" />
    <glyph glyph-name="uni013B" unicode="&#x13b;" horiz-adv-x="206" 
d="M57 0v1446h21v-1426h102v-20h-123zM102 -176q25 36 25 72q-3 -9 -8 -9q-15 0 -15 27q0 13 5.5 21t13.5 8q11 0 15.5 -8.5t4.5 -32.5q0 -52 -30 -86z" />
    <glyph glyph-name="uni013C" unicode="&#x13c;" horiz-adv-x="131" 
d="M55 0v1495h21v-1495h-21zM43 -176q25 36 25 72q-3 -9 -9 -9q-14 0 -14 27q0 29 18 29q21 0 21 -41q0 -51 -31 -86z" />
    <glyph glyph-name="Lcaron" unicode="&#x13d;" horiz-adv-x="206" 
d="M57 0v1446h21v-1426h102v-20h-123zM150 1444h22l-35 -115h-16z" />
    <glyph glyph-name="lcaron" unicode="&#x13e;" horiz-adv-x="131" 
d="M55 0v1495h21v-1495h-21zM152 1489h22l-35 -115h-16z" />
    <glyph glyph-name="Ldot" unicode="&#x13f;" horiz-adv-x="206" 
d="M57 0v1446h21v-1426h102v-20h-123zM160 565q-21 0 -21 29q0 31 21 31q20 0 20 -31q0 -29 -20 -29z" />
    <glyph glyph-name="ldot" unicode="&#x140;" horiz-adv-x="174" 
d="M55 0v1495h21v-1495h-21zM145 539q-20 0 -20 28q0 31 20 31q21 0 21 -31q0 -28 -21 -28z" />
    <glyph glyph-name="Lslash" unicode="&#x141;" horiz-adv-x="206" 
d="M57 0v743l-34 -14l-9 19l43 16v682h21v-674l57 23l6 -19l-63 -24v-732h102v-20h-123z" />
    <glyph glyph-name="lslash" unicode="&#x142;" horiz-adv-x="131" 
d="M55 0v575l-41 -18l-8 16l49 21v901h21v-891l43 19l6 -17l-49 -22v-584h-21z" />
    <glyph glyph-name="Nacute" unicode="&#x143;" horiz-adv-x="321" 
d="M219 1622h25l-72 -131h-18zM78 0h-21v1446h19l151 -1196l27 -242l-10 268v1170h20v-1446h-22l-133 1049l-39 337l8 -450v-936z" />
    <glyph glyph-name="nacute" unicode="&#x144;" horiz-adv-x="276" 
d="M203 1360h24l-71 -131h-19zM76 0h-21v1165h17l2 -59q21 70 71 70q42 0 60 -27.5t18 -91.5v-1057h-20v1055q0 56 -13.5 78t-44.5 22q-69 0 -69 -129v-1026z" />
    <glyph glyph-name="uni0145" unicode="&#x145;" horiz-adv-x="321" 
d="M78 0h-21v1446h19l151 -1196l27 -242l-10 268v1170h20v-1446h-22l-133 1049l-39 337l8 -450v-936zM137 -166q25 36 25 72q-3 -8 -8 -8q-15 0 -15 26q0 13 5.5 21t13.5 8q11 0 15.5 -8.5t4.5 -32.5q0 -51 -31 -86z" />
    <glyph glyph-name="uni0146" unicode="&#x146;" horiz-adv-x="276" 
d="M76 0h-21v1165h17l2 -59q21 70 71 70q42 0 60 -27.5t18 -91.5v-1057h-20v1055q0 56 -13.5 78t-44.5 22q-69 0 -69 -129v-1026zM115 -174q24 34 24 72q-3 -9 -8 -9q-14 0 -14 27q0 29 18 29q21 0 21 -41q0 -51 -31 -86z" />
    <glyph glyph-name="Ncaron" unicode="&#x147;" horiz-adv-x="321" 
d="M156 1491l-58 100h23l45 -82l45 82h22l-61 -100h-16zM78 0h-21v1446h19l151 -1196l27 -242l-10 268v1170h20v-1446h-22l-133 1049l-39 337l8 -450v-936z" />
    <glyph glyph-name="ncaron" unicode="&#x148;" horiz-adv-x="276" 
d="M139 1229l-57 100h22l46 -82l45 82h22l-61 -100h-17zM76 0h-21v1165h17l2 -59q21 70 71 70q42 0 60 -27.5t18 -91.5v-1057h-20v1055q0 56 -13.5 78t-44.5 22q-69 0 -69 -129v-1026z" />
    <glyph glyph-name="Eng" unicode="&#x14a;" horiz-adv-x="321" 
d="M190 -104v20h17q37 0 37 51v17l-135 1065l-39 337l8 -450v-936h-21v1446h19l151 -1196l27 -242l-10 268v1170h20v-1479q0 -37 -12 -54t-43 -17h-19z" />
    <glyph glyph-name="eng" unicode="&#x14b;" horiz-adv-x="278" 
d="M154 -207v21h16q35 0 35 51v1190q0 56 -13.5 78t-44.5 22q-71 0 -71 -129v-1026h-21v1165h17l2 -65q15 76 73 76q42 0 60 -27.5t18 -91.5v-1192q0 -37 -11.5 -54.5t-41.5 -17.5h-18z" />
    <glyph glyph-name="Omacron" unicode="&#x14c;" horiz-adv-x="294" 
d="M82 1550h133v-20h-133v20zM147 -8q-92 0 -92 102v1258q0 102 92 102q93 0 93 -102v-1258q0 -102 -93 -102zM147 12q36 0 54 22t18 60v1258q0 38 -18 60t-54 22q-34 0 -52.5 -22t-18.5 -60v-1258q0 -38 18.5 -60t52.5 -22z" />
    <glyph glyph-name="omacron" unicode="&#x14d;" 
d="M72 1272h133v-21h-133v21zM137 -8q-40 0 -63 25.5t-23 74.5v983q0 50 23.5 75.5t62.5 25.5t62.5 -25.5t23.5 -75.5v-983q0 -49 -23 -74.5t-63 -25.5zM137 12q33 0 49.5 22.5t16.5 57.5v983q0 36 -17 58t-49 22q-31 0 -48 -22t-17 -58v-983q0 -34 17 -57t48 -23z" />
    <glyph glyph-name="Obreve" unicode="&#x14e;" horiz-adv-x="294" 
d="M147 1501q-37 0 -53 21.5t-18 66.5h18q2 -35 13.5 -51.5t42.5 -17.5q52 3 55 69h18q-3 -88 -76 -88zM147 -8q-92 0 -92 102v1258q0 102 92 102q93 0 93 -102v-1258q0 -102 -93 -102zM147 12q36 0 54 22t18 60v1258q0 38 -18 60t-54 22q-34 0 -52.5 -22t-18.5 -60v-1258
q0 -38 18.5 -60t52.5 -22z" />
    <glyph glyph-name="obreve" unicode="&#x14f;" 
d="M137 1227q-37 0 -53 21.5t-18 66.5h18q2 -35 13.5 -52t41.5 -18q53 3 56 70h18q-3 -88 -76 -88zM137 -8q-40 0 -63 25.5t-23 74.5v983q0 50 23.5 75.5t62.5 25.5t62.5 -25.5t23.5 -75.5v-983q0 -49 -23 -74.5t-63 -25.5zM137 12q33 0 49.5 22.5t16.5 57.5v983
q0 36 -17 58t-49 22q-31 0 -48 -22t-17 -58v-983q0 -34 17 -57t48 -23z" />
    <glyph glyph-name="Ohungarumlaut" unicode="&#x150;" horiz-adv-x="294" 
d="M127 1503h-18l47 105h26zM186 1503h-18l55 105h27zM147 -8q-92 0 -92 102v1258q0 102 92 102q93 0 93 -102v-1258q0 -102 -93 -102zM147 12q36 0 54 22t18 60v1258q0 38 -18 60t-54 22q-34 0 -52.5 -22t-18.5 -60v-1258q0 -38 18.5 -60t52.5 -22z" />
    <glyph glyph-name="ohungarumlaut" unicode="&#x151;" 
d="M117 1229h-19l47 104h27zM176 1229h-18l55 104h27zM137 -8q-40 0 -63 25.5t-23 74.5v983q0 50 23.5 75.5t62.5 25.5t62.5 -25.5t23.5 -75.5v-983q0 -49 -23 -74.5t-63 -25.5zM137 12q33 0 49.5 22.5t16.5 57.5v983q0 36 -17 58t-49 22q-31 0 -48 -22t-17 -58v-983
q0 -34 17 -57t48 -23z" />
    <glyph glyph-name="OE" unicode="&#x152;" horiz-adv-x="393" 
d="M215 43q-15 -49 -70 -49q-90 0 -90 102v1256q0 48 23 75t67 27q55 0 70 -51v43h141v-21h-120v-704h112v-21h-112v-680h124v-20h-145v43zM145 14q34 0 52 22t18 60v1256q0 38 -18 60t-52 22q-69 0 -69 -82v-1256q0 -82 69 -82z" />
    <glyph glyph-name="oe" unicode="&#x153;" horiz-adv-x="425" 
d="M375 84q0 -43 -23 -67.5t-61 -24.5q-63 0 -78 57q-15 -57 -76 -57q-40 0 -63 25.5t-23 74.5v983q0 50 23.5 75.5t62.5 25.5q61 0 76 -60q15 60 78 60q84 0 84 -103v-485h-152v-496q0 -36 18 -58t50 -22q33 0 48 21t15 51v385h21v-385zM137 12q66 0 66 80v983q0 80 -66 80
q-31 0 -48 -22t-17 -58v-983q0 -34 17 -57t48 -23zM223 608h131v467q0 80 -63 80q-68 0 -68 -80v-467z" />
    <glyph glyph-name="Racute" unicode="&#x154;" horiz-adv-x="282" 
d="M199 1628h24l-71 -131h-19zM78 676v-676h-21v1446h62q61 0 87.5 -24.5t26.5 -84.5v-551q0 -85 -63 -100q34 -6 46.5 -28.5t12.5 -71.5v-545q0 -22 15 -41h-27q-8 11 -8 41v545q0 49 -16 69.5t-62 20.5h-53zM78 1425v-729h51q84 0 84 90v551q0 49 -20.5 68.5t-73.5 19.5
h-41z" />
    <glyph glyph-name="racute" unicode="&#x155;" horiz-adv-x="167" 
d="M150 1346h24l-72 -132h-18zM55 0v1165h17l2 -57q12 57 76 57h2v-20h-2q-46 0 -60 -26t-14 -101v-1018h-21z" />
    <glyph glyph-name="uni0156" unicode="&#x156;" horiz-adv-x="282" 
d="M78 676v-676h-21v1446h62q61 0 87.5 -24.5t26.5 -84.5v-551q0 -85 -63 -100q34 -6 46.5 -28.5t12.5 -71.5v-545q0 -22 15 -41h-27q-8 11 -8 41v545q0 49 -16 69.5t-62 20.5h-53zM78 1425v-729h51q84 0 84 90v551q0 49 -20.5 68.5t-73.5 19.5h-41zM123 -170q24 35 24 72
q-3 -8 -8 -8q-14 0 -14 26q0 29 18 29q21 0 21 -41q0 -51 -31 -86z" />
    <glyph glyph-name="uni0157" unicode="&#x157;" horiz-adv-x="167" 
d="M55 0v1165h17l2 -57q12 57 76 57h2v-20h-2q-46 0 -60 -26t-14 -101v-1018h-21zM43 -176q25 36 25 72q-3 -9 -9 -9q-14 0 -14 27q0 29 18 29q21 0 21 -41q0 -51 -31 -86z" />
    <glyph glyph-name="Rcaron" unicode="&#x158;" horiz-adv-x="282" 
d="M135 1497l-57 100h22l45 -81l45 81h23l-61 -100h-17zM78 676v-676h-21v1446h62q61 0 87.5 -24.5t26.5 -84.5v-551q0 -85 -63 -100q34 -6 46.5 -28.5t12.5 -71.5v-545q0 -22 15 -41h-27q-8 11 -8 41v545q0 49 -16 69.5t-62 20.5h-53zM78 1425v-729h51q84 0 84 90v551
q0 49 -20.5 68.5t-73.5 19.5h-41z" />
    <glyph glyph-name="rcaron" unicode="&#x159;" horiz-adv-x="167" 
d="M86 1214l-57 101h22l45 -82l45 82h23l-62 -101h-16zM55 0v1165h17l2 -57q12 57 76 57h2v-20h-2q-46 0 -60 -26t-14 -101v-1018h-21z" />
    <glyph glyph-name="Sacute" unicode="&#x15a;" horiz-adv-x="282" 
d="M190 1638h25l-72 -131h-18zM141 -8q-88 0 -88 94v535h21v-535q0 -74 67 -74q68 0 68 74v559q0 41 -17 67.5t-59 49.5q-20 13 -28 19t-23 20.5t-21 31t-6 37.5v492q0 42 22 67t62 25q42 0 65 -25.5t23 -68.5v-459h-20v461q0 32 -17 52t-51 20q-31 0 -47 -20t-16 -52v-492
q0 -8 1 -14.5t2.5 -12t5.5 -11.5t6 -9.5t8 -9t8 -8t10 -8t10 -7t11.5 -7.5t11.5 -7q44 -26 61.5 -53.5t17.5 -77.5v-559q0 -94 -88 -94z" />
    <glyph glyph-name="sacute" unicode="&#x15b;" horiz-adv-x="256" 
d="M184 1360h25l-72 -131h-18zM127 -8q-80 0 -80 94v414h21v-414q4 -74 59 -74q61 0 61 70v410q0 41 -16 64t-55 48q-24 15 -36 25.5t-22 32t-10 51.5v370q0 93 78 93q80 0 80 -95v-360h-21v362q0 72 -59 72q-57 0 -57 -72v-368q0 -35 15 -55.5t48 -41.5q43 -28 59.5 -52
t16.5 -74v-410q0 -90 -82 -90z" />
    <glyph glyph-name="Scircumflex" unicode="&#x15c;" horiz-adv-x="282" 
d="M139 1587l-45 -80h-22l59 101h16l58 -101h-23zM141 -8q-88 0 -88 94v535h21v-535q0 -74 67 -74q68 0 68 74v559q0 41 -17 67.5t-59 49.5q-20 13 -28 19t-23 20.5t-21 31t-6 37.5v492q0 42 22 67t62 25q42 0 65 -25.5t23 -68.5v-459h-20v461q0 32 -17 52t-51 20
q-31 0 -47 -20t-16 -52v-492q0 -8 1 -14.5t2.5 -12t5.5 -11.5t6 -9.5t8 -9t8 -8t10 -8t10 -7t11.5 -7.5t11.5 -7q44 -26 61.5 -53.5t17.5 -77.5v-559q0 -94 -88 -94z" />
    <glyph glyph-name="scircumflex" unicode="&#x15d;" horiz-adv-x="256" 
d="M133 1309l-45 -80h-22l59 100h16l58 -100h-23zM127 -8q-80 0 -80 94v414h21v-414q4 -74 59 -74q61 0 61 70v410q0 41 -16 64t-55 48q-24 15 -36 25.5t-22 32t-10 51.5v370q0 93 78 93q80 0 80 -95v-360h-21v362q0 72 -59 72q-57 0 -57 -72v-368q0 -35 15 -55.5t48 -41.5
q43 -28 59.5 -52t16.5 -74v-410q0 -90 -82 -90z" />
    <glyph glyph-name="uni015E" unicode="&#x15e;" horiz-adv-x="282" 
d="M135 -164q-64 0 -67 58h20q4 -22 15 -29.5t32 -7.5q27 0 39 6.5t12 27.5q0 31 -53 31h-6v70q-74 9 -74 94v535h21v-535q0 -74 67 -74q68 0 68 74v559q0 41 -17 67.5t-59 49.5q-20 13 -28 19t-23 20.5t-21 31t-6 37.5v492q0 42 22 67t62 25q42 0 65 -25.5t23 -68.5v-459
h-20v461q0 32 -17 52t-51 20q-31 0 -47 -20t-16 -52v-492q0 -8 1 -14.5t2.5 -12t5.5 -11.5t6 -9.5t8 -9t8 -8t10 -8t10 -7t11.5 -7.5t11.5 -7q44 -26 61.5 -53.5t17.5 -77.5v-559q0 -94 -82 -94v-51q60 -3 60 -50q0 -28 -20 -41.5t-52 -13.5z" />
    <glyph glyph-name="uni015F" unicode="&#x15f;" horiz-adv-x="256" 
d="M127 -166q-65 0 -68 57h21q4 -22 15 -29t32 -7q27 0 39 6.5t12 27.5q0 31 -53 31h-6v72q-72 9 -72 94v414h21v-414q4 -74 59 -74q61 0 61 70v410q0 41 -16 64t-55 48q-24 15 -36 25.5t-22 32t-10 51.5v370q0 93 78 93q80 0 80 -95v-360h-21v362q0 72 -59 72
q-57 0 -57 -72v-368q0 -35 15 -55.5t48 -41.5q43 -28 59.5 -52t16.5 -74v-410q0 -81 -70 -90v-53q60 -3 60 -50q0 -28 -20 -41.5t-52 -13.5z" />
    <glyph glyph-name="Scaron" unicode="&#x160;" horiz-adv-x="282" 
d="M127 1507l-57 101h22l45 -82l45 82h23l-62 -101h-16zM141 -8q-88 0 -88 94v535h21v-535q0 -74 67 -74q68 0 68 74v559q0 41 -17 67.5t-59 49.5q-20 13 -28 19t-23 20.5t-21 31t-6 37.5v492q0 42 22 67t62 25q42 0 65 -25.5t23 -68.5v-459h-20v461q0 32 -17 52t-51 20
q-31 0 -47 -20t-16 -52v-492q0 -8 1 -14.5t2.5 -12t5.5 -11.5t6 -9.5t8 -9t8 -8t10 -8t10 -7t11.5 -7.5t11.5 -7q44 -26 61.5 -53.5t17.5 -77.5v-559q0 -94 -88 -94z" />
    <glyph glyph-name="scaron" unicode="&#x161;" horiz-adv-x="256" 
d="M121 1229l-58 100h23l45 -82l45 82h23l-62 -100h-16zM127 -8q-80 0 -80 94v414h21v-414q4 -74 59 -74q61 0 61 70v410q0 41 -16 64t-55 48q-24 15 -36 25.5t-22 32t-10 51.5v370q0 93 78 93q80 0 80 -95v-360h-21v362q0 72 -59 72q-57 0 -57 -72v-368q0 -35 15 -55.5
t48 -41.5q43 -28 59.5 -52t16.5 -74v-410q0 -90 -82 -90z" />
    <glyph glyph-name="uni0162" unicode="&#x162;" horiz-adv-x="180" 
d="M100 1425v-1425h-20v1425h-64v21h148v-21h-64zM68 -176q24 34 24 72q-3 -9 -8 -9q-14 0 -14 27q0 29 18 29q21 0 21 -41q0 -51 -31 -86z" />
    <glyph glyph-name="uni0163" unicode="&#x163;" horiz-adv-x="163" 
d="M143 0h-8q-45 0 -58.5 21t-13.5 92v1032h-43v18l25 2q14 2 17 5t4 20q2 18 2 96h16v-121h59v-20h-59v-1030q0 -64 9 -79.5t44 -15.5h6v-20zM92 -176q25 36 25 72q-3 -9 -8 -9q-15 0 -15 27q0 13 5.5 21t13.5 8q11 0 15.5 -8.5t4.5 -32.5q0 -51 -31 -86z" />
    <glyph glyph-name="Tcaron" unicode="&#x164;" horiz-adv-x="180" 
d="M84 1499l-57 100h22l45 -81l45 81h23l-62 -100h-16zM100 1425v-1425h-20v1425h-64v21h148v-21h-64z" />
    <glyph glyph-name="tcaron" unicode="&#x165;" horiz-adv-x="163" 
d="M160 1358h22l-35 -115h-16zM143 0h-8q-45 0 -58.5 21t-13.5 92v1032h-43v18l25 2q14 2 17 5t4 20q2 18 2 96h16v-121h59v-20h-59v-1030q0 -64 9 -79.5t44 -15.5h6v-20z" />
    <glyph glyph-name="Tbar" unicode="&#x166;" horiz-adv-x="180" 
d="M100 713v-713h-20v713h-47v20h47v692h-64v21h148v-21h-64v-692h52v-20h-52z" />
    <glyph glyph-name="tbar" unicode="&#x167;" horiz-adv-x="151" 
d="M135 0h-8q-45 0 -58.5 21t-13.5 92v495h-35v21h35v516h-43v18l25 2q14 1 16.5 4.5t3.5 20.5q2 18 2 96h17v-121h59v-20h-59v-516h55v-21h-55v-493q0 -64 9 -79.5t44 -15.5h6v-20z" />
    <glyph glyph-name="Utilde" unicode="&#x168;" horiz-adv-x="294" 
d="M59 1511q0 62 41 62q21 0 47 -21.5t37 -21.5q25 0 25 43h20q0 -64 -45 -64q-21 0 -46.5 21.5t-37.5 21.5q-13 0 -17.5 -8.5t-4.5 -32.5h-19zM147 -8q-90 0 -90 102v1352h21v-1352q0 -38 17.5 -60t51.5 -22q70 0 70 82v1352h21v-1352q0 -102 -91 -102z" />
    <glyph glyph-name="utilde" unicode="&#x169;" horiz-adv-x="270" 
d="M49 1235q0 61 41 61q21 0 47 -21.5t37 -21.5q25 0 25 43h20q0 -63 -45 -63q-21 0 -46.5 21.5t-37.5 21.5q-13 0 -17.5 -8.5t-4.5 -32.5h-19zM197 55q-15 -63 -64 -63q-42 0 -61 27.5t-19 91.5v1054h21v-1052q0 -56 14 -78.5t45 -22.5q62 0 62 129v1024h20v-1165h-16z" />
    <glyph glyph-name="Umacron" unicode="&#x16a;" horiz-adv-x="294" 
d="M78 1559h133v-21h-133v21zM147 -8q-90 0 -90 102v1352h21v-1352q0 -38 17.5 -60t51.5 -22q70 0 70 82v1352h21v-1352q0 -102 -91 -102z" />
    <glyph glyph-name="umacron" unicode="&#x16b;" horiz-adv-x="270" 
d="M68 1282h133v-20h-133v20zM197 55q-15 -63 -64 -63q-42 0 -61 27.5t-19 91.5v1054h21v-1052q0 -56 14 -78.5t45 -22.5q62 0 62 129v1024h20v-1165h-16z" />
    <glyph glyph-name="Ubreve" unicode="&#x16c;" horiz-adv-x="294" 
d="M143 1489q-37 0 -53 21.5t-18 66.5h18q2 -35 13.5 -52t41.5 -18q53 3 56 70h18q-3 -88 -76 -88zM147 -8q-90 0 -90 102v1352h21v-1352q0 -38 17.5 -60t51.5 -22q70 0 70 82v1352h21v-1352q0 -102 -91 -102z" />
    <glyph glyph-name="ubreve" unicode="&#x16d;" horiz-adv-x="270" 
d="M133 1212q-37 0 -53.5 22t-18.5 66h19q2 -35 13.5 -51.5t41.5 -17.5q52 3 55 69h19q-3 -88 -76 -88zM197 55q-15 -63 -64 -63q-42 0 -61 27.5t-19 91.5v1054h21v-1052q0 -56 14 -78.5t45 -22.5q62 0 62 129v1024h20v-1165h-16z" />
    <glyph glyph-name="Uring" unicode="&#x16e;" horiz-adv-x="294" 
d="M147 1499q-29 0 -48 18.5t-19 47.5t19 47t48 18t47.5 -18t18.5 -47t-18.5 -47.5t-47.5 -18.5zM147 1518q20 0 33 13.5t13 33.5q0 47 -46 47q-47 0 -47 -47q0 -20 13.5 -33.5t33.5 -13.5zM147 -8q-90 0 -90 102v1352h21v-1352q0 -38 17.5 -60t51.5 -22q70 0 70 82v1352h21
v-1352q0 -102 -91 -102z" />
    <glyph glyph-name="uring" unicode="&#x16f;" horiz-adv-x="270" 
d="M133 1223q-29 0 -48 18t-19 47t19 47.5t48 18.5t47.5 -18.5t18.5 -47.5t-18.5 -47t-47.5 -18zM133 1241q20 0 32.5 13.5t12.5 33.5q0 47 -45 47q-47 0 -47 -47q0 -20 13.5 -33.5t33.5 -13.5zM197 55q-15 -63 -64 -63q-42 0 -61 27.5t-19 91.5v1054h21v-1052
q0 -56 14 -78.5t45 -22.5q62 0 62 129v1024h20v-1165h-16z" />
    <glyph glyph-name="Uhungarumlaut" unicode="&#x170;" horiz-adv-x="294" 
d="M123 1491h-19l48 104h26zM182 1491h-18l55 104h27zM147 -8q-90 0 -90 102v1352h21v-1352q0 -38 17.5 -60t51.5 -22q70 0 70 82v1352h21v-1352q0 -102 -91 -102z" />
    <glyph glyph-name="uhungarumlaut" unicode="&#x171;" horiz-adv-x="270" 
d="M113 1214h-19l47 105h27zM172 1214h-18l55 105h27zM197 55q-15 -63 -64 -63q-42 0 -61 27.5t-19 91.5v1054h21v-1052q0 -56 14 -78.5t45 -22.5q62 0 62 129v1024h20v-1165h-16z" />
    <glyph glyph-name="Uogonek" unicode="&#x172;" horiz-adv-x="294" 
d="M190 -143q-65 0 -65 63q0 32 31 72h-9q-90 0 -90 102v1352h21v-1352q0 -38 17.5 -60t51.5 -22q70 0 70 82v1352h21v-1352q0 -70 -50 -94q-45 -45 -45 -80q0 -45 47 -45q40 0 52 37h20q-14 -55 -72 -55z" />
    <glyph glyph-name="uogonek" unicode="&#x173;" horiz-adv-x="270" 
d="M285 -92q-14 -55 -72 -55q-66 0 -66 63q0 16 8.5 34t17 28.5t26.5 31.5l-2 45q-15 -63 -64 -63q-42 0 -61 27.5t-19 91.5v1054h21v-1052q0 -56 14 -78.5t45 -22.5q62 0 62 129v1024h20v-1165q-49 -49 -49 -84q0 -45 47 -45q39 0 51 37h21z" />
    <glyph glyph-name="Wcircumflex" unicode="&#x174;" horiz-adv-x="376" 
d="M197 1579l-45 -80h-23l59 100h17l57 -100h-22zM109 0h-23l-47 1446h20l37 -1225l2 -219l6 188l76 1256h17l73 -1243l6 -201l5 225l36 1219h21l-49 -1446h-23l-73 1257l-5 185l-4 -185z" />
    <glyph glyph-name="wcircumflex" unicode="&#x175;" horiz-adv-x="364" 
d="M188 1298l-45 -79h-22l59 100h17l57 -100h-23zM109 0h-19l-59 1165h20l45 -962l4 -189l9 189l65 962h16l66 -962l8 -189l4 189l45 962h21l-60 -1165h-18l-63 901l-11 252l-10 -252z" />
    <glyph glyph-name="Ycircumflex" unicode="&#x176;" horiz-adv-x="243" 
d="M129 1567l-45 -80h-23l60 100h16l58 -100h-23zM113 0v494l-86 952h20l64 -737l12 -197l12 197l62 737h20l-84 -950v-496h-20z" />
    <glyph glyph-name="ycircumflex" unicode="&#x177;" horiz-adv-x="235" 
d="M125 1292l-45 -80h-23l60 101h16l57 -101h-22zM43 -156v21h16q48 0 50 51l6 94l-86 1155h20l66 -925l8 -205l8 211l53 919h21l-78 -1247q-1 -40 -17 -57t-49 -17h-18z" />
    <glyph glyph-name="Ydieresis" unicode="&#x178;" horiz-adv-x="243" 
d="M88 1497q-18 0 -18 27q0 26 18 26t18 -28q0 -25 -18 -25zM158 1497q-8 0 -13.5 7.5t-5.5 19.5q0 26 19 26q16 0 16 -28q0 -25 -16 -25zM113 0v494l-86 952h20l64 -737l12 -197l12 197l62 737h20l-84 -950v-496h-20z" />
    <glyph glyph-name="Zacute" unicode="&#x179;" horiz-adv-x="215" 
d="M168 1630h25l-72 -131h-19zM39 0v16l117 1409h-117v21h137v-19l-117 -1407h125v-20h-145z" />
    <glyph glyph-name="zacute" unicode="&#x17a;" horiz-adv-x="184" 
d="M154 1350h24l-72 -131h-18zM31 0v12l104 1133h-104v20h125v-18l-105 -1127h109v-20h-129z" />
    <glyph glyph-name="Zdotaccent" unicode="&#x17b;" horiz-adv-x="215" 
d="M113 1499q-21 0 -21 29q0 31 21 31q20 0 20 -31q0 -29 -20 -29zM39 0v16l117 1409h-117v21h137v-19l-117 -1407h125v-20h-145z" />
    <glyph glyph-name="zdotaccent" unicode="&#x17c;" horiz-adv-x="184" 
d="M98 1219q-20 0 -20 28q0 31 20 31q21 0 21 -31q0 -28 -21 -28zM31 0v12l104 1133h-104v20h125v-18l-105 -1127h109v-20h-129z" />
    <glyph glyph-name="Zcaron" unicode="&#x17d;" horiz-adv-x="215" 
d="M104 1499l-57 100h23l45 -81l45 81h22l-61 -100h-17zM39 0v16l117 1409h-117v21h137v-19l-117 -1407h125v-20h-145z" />
    <glyph glyph-name="zcaron" unicode="&#x17e;" horiz-adv-x="184" 
d="M90 1219l-57 100h22l45 -82l45 82h23l-62 -100h-16zM31 0v12l104 1133h-104v20h125v-18l-105 -1127h109v-20h-129z" />
    <glyph glyph-name="uni0192" unicode="&#x192;" horiz-adv-x="169" 
d="M94 -119q0 -66 -17 -91.5t-59 -25.5h-6v21h6q33 0 44.5 19t11.5 79v819h-62v21h62v668q0 66 17 91t59 25h6v-20h-6q-33 0 -44.5 -19t-11.5 -79v-666h62v-21h-62v-821z" />
    <glyph glyph-name="Aringacute" unicode="&#x1fa;" horiz-adv-x="245" 
d="M178 1724h25l-72 -131h-18zM47 0h-20l84 1427q-58 9 -58 66q0 29 19.5 47.5t48.5 18.5t47 -18.5t18 -47.5q0 -28 -16 -47t-37 -19l86 -1427h-20l-19 328h-114zM121 1446q20 0 32.5 13.5t12.5 33.5q0 47 -45 47q-47 0 -47 -47q0 -20 13.5 -33.5t33.5 -13.5zM178 348
l-49 826l-8 253l-8 -253l-47 -826h112z" />
    <glyph glyph-name="aringacute" unicode="&#x1fb;" 
d="M197 1505h24l-71 -131h-19zM137 1210q-29 0 -48 18.5t-19 47.5t19 47t48 18t47.5 -18t18.5 -47t-18.5 -47.5t-47.5 -18.5zM137 1229q20 0 32.5 13.5t12.5 33.5q0 47 -45 47q-47 0 -47 -47q0 -20 13.5 -33.5t33.5 -13.5zM203 68q-7 -37 -28.5 -56.5t-49.5 -19.5
q-41 0 -58.5 24.5t-17.5 83.5v437q0 62 27 92q7 8 15.5 14t22.5 12.5t17 8.5q37 16 53.5 29.5t16.5 37.5v352q0 72 -66 72q-63 0 -63 -74v-323h-21v323q0 43 22 69t62 26q86 0 86 -93v-1083h-16zM125 12q34 0 55 31.5t21 77.5v571q-11 -20 -60 -45q-36 -16 -49 -31
q-22 -25 -22 -79v-428q0 -97 55 -97z" />
    <glyph glyph-name="AEacute" unicode="&#x1fc;" horiz-adv-x="346" 
d="M205 1630h24l-71 -131h-19zM182 328h-110l-25 -328h-20l110 1446h178v-21h-155l28 -702h117v-21h-117l27 -682h102v-20h-122zM72 348h110l-32 940l-3 156l-6 -156z" />
    <glyph glyph-name="aeacute" unicode="&#x1fd;" horiz-adv-x="423" 
d="M270 1366h25l-72 -131h-18zM373 84q0 -43 -23 -67.5t-61 -24.5q-82 0 -82 88q-6 -45 -28 -66.5t-54 -21.5q-41 0 -58.5 24.5t-17.5 83.5v387q0 58 27 93q13 14 57 34q23 9 34.5 15t22.5 20t11 33v401q0 72 -64 72q-65 0 -65 -74v-323h-21v323q2 43 24 69t62 26
q61 0 76 -52q15 52 76 52q84 0 84 -103v-485h-152v-496q0 -36 18 -58t50 -22q33 0 48 21t15 51v385h21v-385zM221 608h131v467q0 80 -63 80q-68 0 -68 -80v-467zM125 12q34 0 55 31.5t21 77.5v516q-10 -18 -58 -39q-36 -16 -51 -33q-22 -25 -22 -78v-378q0 -97 55 -97z" />
    <glyph glyph-name="Oslashacute" unicode="&#x1fe;" horiz-adv-x="294" 
d="M147 1632h25l-72 -131h-18zM147 -8q-27 0 -47 10l-18 -186h-21l23 198q-29 29 -29 80v1258q0 102 92 102q28 0 41 -8l15 180h18l-16 -190q35 -22 35 -84v-1258q0 -102 -93 -102zM76 94q0 -26 10 -49l100 1380q-12 9 -39 9q-34 0 -52.5 -22t-18.5 -60v-1258zM147 12
q36 0 54 22t18 60v1258q0 37 -16 59l-101 -1386q23 -13 45 -13z" />
    <glyph glyph-name="oslashacute" unicode="&#x1ff;" horiz-adv-x="276" 
d="M156 1386h24l-71 -131h-19zM137 -8q-26 0 -39 8l-18 -184h-19l21 194q-31 31 -31 82v983q0 50 23.5 75.5t62.5 25.5q25 0 37 -9l16 164h19l-19 -174q33 -23 33 -82v-983q0 -49 -23 -74.5t-63 -25.5zM72 92q0 -30 12 -51l88 1104q-13 10 -35 10q-31 0 -48 -22t-17 -58
v-983zM137 12q33 0 49.5 22.5t16.5 57.5v983q0 38 -15 53l-88 -1105q18 -11 37 -11z" />
    <glyph glyph-name="uni0218" unicode="&#x218;" horiz-adv-x="282" 
d="M141 -8q-88 0 -88 94v535h21v-535q0 -74 67 -74q68 0 68 74v559q0 41 -17 67.5t-59 49.5q-20 13 -28 19t-23 20.5t-21 31t-6 37.5v492q0 42 22 67t62 25q42 0 65 -25.5t23 -68.5v-459h-20v461q0 32 -17 52t-51 20q-31 0 -47 -20t-16 -52v-492q0 -8 1 -14.5t2.5 -12
t5.5 -11.5t6 -9.5t8 -9t8 -8t10 -8t10 -7t11.5 -7.5t11.5 -7q44 -26 61.5 -53.5t17.5 -77.5v-559q0 -94 -88 -94zM115 -184q24 34 24 71q-3 -8 -8 -8q-14 0 -14 27q0 28 18 28q11 0 16 -8t5 -32q0 -52 -31 -87z" />
    <glyph glyph-name="uni0219" unicode="&#x219;" horiz-adv-x="256" 
d="M127 -8q-80 0 -80 94v414h21v-414q4 -74 59 -74q61 0 61 70v410q0 41 -16 64t-55 48q-24 15 -36 25.5t-22 32t-10 51.5v370q0 93 78 93q80 0 80 -95v-360h-21v362q0 72 -59 72q-57 0 -57 -72v-368q0 -35 15 -55.5t48 -41.5q43 -28 59.5 -52t16.5 -74v-410q0 -90 -82 -90z
M106 -186q25 36 25 71q-3 -8 -8 -8q-14 0 -14 27q0 28 18 28q11 0 15.5 -8.5t4.5 -32.5q0 -52 -30 -86z" />
    <glyph glyph-name="uni0237" unicode="&#x237;" horiz-adv-x="131" 
d="M2 -84h16q37 0 37 51v1198h21v-1198q0 -37 -12.5 -54t-43.5 -17h-18v20z" />
    <glyph glyph-name="uni0245" unicode="&#x245;" horiz-adv-x="245" 
d="M47 0h-20l84 1446h20l88 -1446h-20l-70 1174l-8 260l-8 -260z" />
    <glyph glyph-name="circumflex" unicode="&#x2c6;" 
d="M137 1315l-45 -80h-22l59 100h16l58 -100h-23z" />
    <glyph glyph-name="caron" unicode="&#x2c7;" 
d="M127 1235l-57 100h22l45 -82l45 82h23l-62 -100h-16z" />
    <glyph glyph-name="breve" unicode="&#x2d8;" 
d="M131 1233q-37 0 -53.5 22t-18.5 66h19q2 -35 13.5 -52t41.5 -18q52 3 55 70h19q-3 -88 -76 -88z" />
    <glyph glyph-name="dotaccent" unicode="&#x2d9;" 
d="M135 1235q-20 0 -20 29q0 30 20 30q21 0 21 -30q0 -29 -21 -29z" />
    <glyph glyph-name="ring" unicode="&#x2da;" 
d="M135 1243q-29 0 -48 18.5t-19 47.5t19 47t48 18t47.5 -18t18.5 -47t-18.5 -47.5t-47.5 -18.5zM135 1262q20 0 32.5 13.5t12.5 33.5q0 47 -45 47q-47 0 -47 -47q0 -20 13.5 -33.5t33.5 -13.5z" />
    <glyph glyph-name="ogonek" unicode="&#x2db;" 
d="M156 -147q-66 0 -66 63q0 43 53 96l15 -12q-49 -49 -49 -84q0 -45 47 -45q39 0 51 37h20q-14 -55 -71 -55z" />
    <glyph glyph-name="tilde" unicode="&#x2dc;" 
d="M53 1253q0 62 41 62q21 0 47 -21.5t37 -21.5q25 0 25 43h20q0 -64 -45 -64q-21 0 -46.5 21.5t-37.5 21.5q-13 0 -17.5 -8.5t-4.5 -32.5h-19z" />
    <glyph glyph-name="hungarumlaut" unicode="&#x2dd;" 
d="M115 1235h-19l47 104h27zM174 1235h-18l55 104h27z" />
    <glyph glyph-name="uni03BC" unicode="&#x3bc;" horiz-adv-x="270" 
d="M133 -6q-41 0 -57 43v-449h-21v1577h21v-1038q0 -113 57 -113q62 0 62 129v1022h20v-1165h-14l-4 59q-15 -65 -64 -65z" />
    <glyph glyph-name="pi" unicode="&#x3c0;" horiz-adv-x="415" 
d="M285 1425h-156v-1425h-20v1425h-76v21h348v-21h-76v-1353q0 -30 9.5 -41t39.5 -11h27v-20h-29q-39 0 -53 16.5t-14 55.5v1353z" />
    <glyph glyph-name="uni0E3F" unicode="&#xe3f;" horiz-adv-x="292" 
d="M139 -184v184h-82v1446h82v166h21v-168q84 -9 84 -105v-481q0 -88 -64 -100q66 -12 66 -101v-551q0 -55 -19 -78t-67 -28v-184h-21zM139 766v659h-61v-659h61zM223 1339q0 75 -63 84v-655q63 9 63 90v481zM139 20v728h-61v-728h61zM225 657q0 85 -65 88v-725
q36 5 50.5 23.5t14.5 62.5v551z" />
    <glyph glyph-name="Wgrave" unicode="&#x1e80;" horiz-adv-x="376" 
d="M121 1606h22l58 -105h-19zM109 0h-23l-47 1446h20l37 -1225l2 -219l6 188l76 1256h17l73 -1243l6 -201l5 225l36 1219h21l-49 -1446h-23l-73 1257l-5 185l-4 -185z" />
    <glyph glyph-name="wgrave" unicode="&#x1e81;" horiz-adv-x="364" 
d="M113 1325h22l58 -104h-19zM109 0h-19l-59 1165h20l45 -962l4 -189l9 189l65 962h16l66 -962l8 -189l4 189l45 962h21l-60 -1165h-18l-63 901l-11 252l-10 -252z" />
    <glyph glyph-name="Wacute" unicode="&#x1e82;" horiz-adv-x="376" 
d="M248 1630h24l-71 -131h-19zM109 0h-23l-47 1446h20l37 -1225l2 -219l6 188l76 1256h17l73 -1243l6 -201l5 225l36 1219h21l-49 -1446h-23l-73 1257l-5 185l-4 -185z" />
    <glyph glyph-name="wacute" unicode="&#x1e83;" horiz-adv-x="364" 
d="M240 1350h24l-71 -131h-19zM109 0h-19l-59 1165h20l45 -962l4 -189l9 189l65 962h16l66 -962l8 -189l4 189l45 962h21l-60 -1165h-18l-63 901l-11 252l-10 -252z" />
    <glyph glyph-name="Wdieresis" unicode="&#x1e84;" horiz-adv-x="376" 
d="M156 1509q-8 0 -13.5 7.5t-5.5 19.5q0 27 19 27q18 0 18 -29q0 -25 -18 -25zM225 1509q-18 0 -18 27t18 27q17 0 17 -29q0 -25 -17 -25zM109 0h-23l-47 1446h20l37 -1225l2 -219l6 188l76 1256h17l73 -1243l6 -201l5 225l36 1219h21l-49 -1446h-23l-73 1257l-5 185
l-4 -185z" />
    <glyph glyph-name="wdieresis" unicode="&#x1e85;" horiz-adv-x="364" 
d="M147 1229q-18 0 -18 26q0 27 18 27q19 0 19 -29q0 -24 -19 -24zM217 1229q-18 0 -18 26q0 27 18 27q16 0 16 -29q0 -24 -16 -24zM109 0h-19l-59 1165h20l45 -962l4 -189l9 189l65 962h16l66 -962l8 -189l4 189l45 962h21l-60 -1165h-18l-63 901l-11 252l-10 -252z" />
    <glyph glyph-name="Ygrave" unicode="&#x1ef2;" horiz-adv-x="243" 
d="M53 1593h23l57 -104h-18zM113 0v494l-86 952h20l64 -737l12 -197l12 197l62 737h20l-84 -950v-496h-20z" />
    <glyph glyph-name="ygrave" unicode="&#x1ef3;" horiz-adv-x="235" 
d="M49 1319h23l57 -105h-18zM43 -156v21h16q48 0 50 51l6 94l-86 1155h20l66 -925l8 -205l8 211l53 919h21l-78 -1247q-1 -40 -17 -57t-49 -17h-18z" />
    <glyph glyph-name="figuredash" unicode="&#x2012;" horiz-adv-x="307" 
d="M266 588h-225v20h225v-20z" />
    <glyph glyph-name="endash" unicode="&#x2013;" horiz-adv-x="317" 
d="M276 588h-235v20h235v-20z" />
    <glyph glyph-name="emdash" unicode="&#x2014;" horiz-adv-x="389" 
d="M348 588h-307v20h307v-20z" />
    <glyph glyph-name="uni2015" unicode="&#x2015;" horiz-adv-x="512" 
d="M471 588h-430v20h430v-20z" />
    <glyph glyph-name="uni2016" unicode="&#x2016;" horiz-adv-x="231" 
d="M57 -258v2013h23v-2013h-23zM152 -258v2013h22v-2013h-22z" />
    <glyph glyph-name="underscoredbl" unicode="&#x2017;" horiz-adv-x="204" 
d="M184 -25h-164v21h164v-21zM184 -92h-164v20h164v-20z" />
    <glyph glyph-name="quoteleft" unicode="&#x2018;" horiz-adv-x="163" 
d="M80 1251q-21 0 -21 45q0 50 35 99l12 -11q-30 -34 -30 -79q2 10 10 10q14 0 14 -31q0 -33 -20 -33z" />
    <glyph glyph-name="quoteright" unicode="&#x2019;" horiz-adv-x="163" 
d="M104 1356q0 -49 -36 -99l-11 11q31 51 31 88v8q0 -27 -12 -27q-15 0 -15 31q0 33 21 33q22 0 22 -45z" />
    <glyph glyph-name="quotesinglbase" unicode="&#x201a;" horiz-adv-x="163" 
d="M104 8q0 -50 -36 -96l-11 8q31 40 31 90v8q0 -26 -12 -26q-15 0 -15 28q0 35 21 35q11 0 16.5 -9.5t5.5 -37.5z" />
    <glyph glyph-name="uni201B" unicode="&#x201b;" horiz-adv-x="163" 
d="M59 1356q0 45 23 45q20 0 20 -33q0 -31 -14 -31q-12 0 -12 27v-8q0 -39 30 -88l-10 -11q-37 51 -37 99z" />
    <glyph glyph-name="quotedblleft" unicode="&#x201c;" horiz-adv-x="237" 
d="M80 1249q-21 0 -21 45q0 50 35 99l12 -11q-30 -34 -30 -79q2 10 10 10q14 0 14 -31q0 -33 -20 -33zM131 1294q0 48 37 99l10 -11q-31 -40 -31 -88v-8q0 27 13 27q14 0 14 -31q0 -33 -20 -33q-23 0 -23 45z" />
    <glyph glyph-name="quotedblright" unicode="&#x201d;" horiz-adv-x="237" 
d="M106 1356q0 -49 -36 -99l-11 11q31 51 31 88v8q0 -27 -12 -27q-15 0 -15 31q0 33 21 33q22 0 22 -45zM131 1268q31 45 31 80q-4 -11 -10 -11q-15 0 -15 31q0 33 21 33q20 0 20 -45q0 -50 -35 -99z" />
    <glyph glyph-name="quotedblbase" unicode="&#x201e;" horiz-adv-x="237" 
d="M106 8q0 -50 -36 -96l-11 8q31 40 31 90v8q0 -26 -12 -26q-15 0 -15 28q0 35 21 35q11 0 16.5 -9.5t5.5 -37.5zM131 -80q31 35 31 82q-2 -10 -10 -10q-15 0 -15 28q0 35 21 35q11 0 15.5 -9.5t4.5 -37.5q0 -51 -35 -96z" />
    <glyph glyph-name="uni201F" unicode="&#x201f;" horiz-adv-x="237" 
d="M59 1356q0 45 23 45q20 0 20 -33q0 -31 -14 -31q-12 0 -12 27v-8q0 -39 30 -88l-10 -11q-37 51 -37 99zM168 1257q-35 49 -35 99q0 45 21 45q20 0 20 -33q0 -31 -14 -31q-7 0 -10 13q2 -46 30 -82z" />
    <glyph glyph-name="dagger" unicode="&#x2020;" horiz-adv-x="266" 
d="M143 977v-977h-20v977h-82v20h82v449h20v-449h82v-20h-82z" />
    <glyph glyph-name="daggerdbl" unicode="&#x2021;" horiz-adv-x="266" 
d="M143 573v-573h-20v573h-82v21h82v285h-82v20h82v547h20v-547h82v-20h-82v-285h82v-21h-82z" />
    <glyph glyph-name="bullet" unicode="&#x2022;" horiz-adv-x="204" 
d="M102 557q-36 0 -36 35q0 37 36 37q35 0 35 -37q0 -35 -35 -35z" />
    <glyph glyph-name="ellipsis" unicode="&#x2026;" horiz-adv-x="415" 
d="M96 -8q-8 0 -13 9t-5 22q0 30 20 30q17 0 17 -30q0 -31 -19 -31zM207 -8q-8 0 -13.5 9t-5.5 22q0 30 21 30q16 0 16 -30q0 -31 -18 -31zM317 -8q-8 0 -13 9t-5 22q0 30 20 30q17 0 17 -30q0 -31 -19 -31z" />
    <glyph glyph-name="perthousand" unicode="&#x2030;" horiz-adv-x="647" 
d="M145 836q-75 0 -75 94v432q0 92 75 92q74 0 74 -92v-432q0 -94 -74 -94zM358 1446h23l-289 -1446h-22zM145 856q54 0 54 74v434q0 70 -54 70q-55 0 -55 -70v-434q0 -74 55 -74zM305 -8q-74 0 -74 96v428q0 42 19 67t55 25q37 0 56.5 -24.5t19.5 -67.5v-428
q0 -45 -19.5 -70.5t-56.5 -25.5zM481 -8q-73 0 -73 96v428q0 43 18.5 67.5t54.5 24.5q37 0 56.5 -24.5t19.5 -67.5v-428q0 -45 -19.5 -70.5t-56.5 -25.5zM305 12q55 0 55 74v430q0 72 -55 72q-53 0 -53 -72v-430q0 -74 53 -74zM481 12q56 0 56 74v430q0 72 -56 72
q-53 0 -53 -72v-430q0 -74 53 -74z" />
    <glyph glyph-name="uni2032" unicode="&#x2032;" horiz-adv-x="157" 
d="M43 1042l47 404h23l-56 -404h-14z" />
    <glyph glyph-name="uni2033" unicode="&#x2033;" horiz-adv-x="229" 
d="M43 1042l47 404h23l-56 -404h-14zM109 1042l57 404h22l-65 -404h-14z" />
    <glyph glyph-name="uni2034" unicode="&#x2034;" horiz-adv-x="262" 
d="M68 1145q0 -36 -0.5 -75t-1 -65t-0.5 -30h-15q0 4 -0.5 30t-1 65t-0.5 75q-2 82 -2 174v127h21v-301zM141 1145q0 -36 -0.5 -75t-1 -65t-0.5 -30h-14q0 4 -0.5 30t-1 65t-0.5 75q-2 82 -2 174v127h20v-301zM215 1145q0 -36 -0.5 -75t-1 -65t-0.5 -30h-14q0 4 -0.5 30
t-1 65t-0.5 75q-2 82 -2 174v127h20v-301z" />
    <glyph glyph-name="guilsinglleft" unicode="&#x2039;" horiz-adv-x="194" 
d="M129 258l-92 340v2l86 363h24l-90 -363l97 -342h-25z" />
    <glyph glyph-name="guilsinglright" unicode="&#x203a;" horiz-adv-x="194" 
d="M41 258l96 342l-90 363h25l86 -363v-2l-92 -340h-25z" />
    <glyph glyph-name="exclamdbl" unicode="&#x203c;" horiz-adv-x="301" 
d="M106 336q-2 -127 -2 -221h-14v29q-1 30 -1.5 83t-0.5 109q0 62 -1 203.5t-1 212.5v694h23v-387q0 -93 -3 -307v-416zM213 336q0 -56 -0.5 -109t-0.5 -83l-1 -29h-14q0 94 -2 221v416q-2 143 -2 307v387h22v-694q0 -71 -1 -212.5t-1 -203.5zM96 -8q-20 0 -20 31
q0 30 22 30q11 0 15 -6.5t4 -23.5q0 -31 -21 -31zM205 -8q-21 0 -21 31q0 30 21 30q20 0 20 -30q0 -31 -20 -31z" />
    <glyph glyph-name="uni203D" unicode="&#x203d;" horiz-adv-x="309" 
d="M164 123h-19v1311q-59 -3 -59 -82v-592h-20v592q0 48 23 75t67 27q42 0 65 -27t23 -75v-811q0 -14 -1 -27.5t-2.5 -23.5t-4.5 -22.5t-4.5 -19t-6.5 -18.5t-6.5 -15.5t-7 -16.5t-6.5 -15q-41 -73 -41 -199v-61zM166 1405q0 -135 -2 -272q0 -299 -2 -459q0 -88 -1 -221.5
t-1 -173.5q6 78 37 137q26 58 26 125v811q0 82 -57 82v-29zM154 -8q-21 0 -21 31q0 30 23 30q10 0 14 -6.5t4 -23.5q0 -31 -20 -31z" />
    <glyph glyph-name="fraction" unicode="&#x2044;" horiz-adv-x="337" 
d="M178 815l98 660l25 -5l-115 -659zM162 678l-105 -692l-24 6l121 690z" />
    <glyph glyph-name="uni2070" unicode="&#x2070;" horiz-adv-x="167" 
d="M84 762q-51 0 -51 53v588q0 24 14.5 38.5t38.5 14.5q49 0 49 -53v-588q0 -53 -51 -53zM84 780q33 0 33 35v586q0 37 -31 37q-35 0 -35 -37v-586q0 -35 33 -35z" />
    <glyph glyph-name="uni2074" unicode="&#x2074;" horiz-adv-x="159" 
d="M119 926v-150h-17v150h-77v16l73 512h21v-510h24v-18h-24zM41 944h61l2 451v28l-2 -20z" />
    <glyph glyph-name="uni2075" unicode="&#x2075;" horiz-adv-x="163" 
d="M82 768q-53 0 -53 53v164h18v-164q0 -35 35 -35q33 0 33 35v314q0 36 -31 36q-26 0 -35 -36l-4 -19l-16 4l14 334h84q0 -18 -14 -18h-56q0 -6 -1 -35t-1 -51q-3 -107 -8 -199q14 39 43 39q43 0 43 -53v-316q0 -53 -51 -53z" />
    <glyph glyph-name="uni2076" unicode="&#x2076;" horiz-adv-x="165" 
d="M137 817q0 -55 -53 -55q-51 0 -51 55v588q0 51 51 51t51 -53v-199h-18v197q0 37 -33 37t-33 -35v-287q11 33 41 33q45 0 45 -53v-279zM84 780q35 0 35 37v275q0 38 -33 38q-24 0 -35 -34v-279q0 -37 33 -37z" />
    <glyph glyph-name="uni2077" unicode="&#x2077;" horiz-adv-x="131" 
d="M33 776q4 41 6 98q20 287 22 314q13 179 29 248h-67v18h86v-12q-8 -29 -17 -103q-9 -81 -26 -317l-15 -246h-18z" />
    <glyph glyph-name="uni2078" unicode="&#x2078;" horiz-adv-x="165" 
d="M84 762q-53 0 -53 51v258q0 49 28 49q-26 10 -26 47v238q0 51 51 51q49 0 49 -51v-238q0 -19 -9 -32t-20 -15q31 -3 31 -49v-258q0 -51 -51 -51zM84 1128q31 0 31 39v236q0 19 -7 27t-24 8q-33 0 -33 -35v-236q0 -15 8.5 -27t24.5 -12zM84 782q33 0 33 33v258
q0 39 -33 39q-35 0 -35 -39v-258q0 -33 35 -33z" />
    <glyph glyph-name="uni2079" unicode="&#x2079;" horiz-adv-x="165" 
d="M82 762q-49 0 -49 55v195h18v-195q0 -37 31 -37q33 0 33 35v285q-10 -31 -41 -31q-45 0 -45 55v277q0 55 53 55q51 0 51 -55v-586q0 -53 -51 -53zM82 1087q29 0 33 35v277q0 39 -33 39q-35 0 -35 -39v-271q0 -41 35 -41z" />
    <glyph glyph-name="uni207A" unicode="&#x207a;" horiz-adv-x="178" 
d="M98 1124v-37h-20v37h-37v19h37v37h20v-37h37v-19h-37z" />
    <glyph glyph-name="uni207B" unicode="&#x207b;" horiz-adv-x="178" 
d="M41 1128v19h94v-19h-94z" />
    <glyph glyph-name="uni207C" unicode="&#x207c;" horiz-adv-x="178" 
d="M41 1149v18h94v-18h-94zM41 1090v18h94v-18h-94z" />
    <glyph glyph-name="uni207D" unicode="&#x207d;" horiz-adv-x="102" 
d="M35 1528q0 45 11.5 62.5t43.5 17.5v-19q-23 0 -30 -12.5t-7 -48.5v-815q0 -36 8 -48t29 -12v-18q-32 0 -43.5 16.5t-11.5 63.5v813z" />
    <glyph glyph-name="uni207E" unicode="&#x207e;" horiz-adv-x="102" 
d="M12 653q23 0 30 12.5t7 49.5v813q0 38 -7 49.5t-30 11.5v19q34 0 45 -17t11 -63v-813q0 -48 -10.5 -64t-45.5 -16v18z" />
    <glyph glyph-name="uni2080" unicode="&#x2080;" horiz-adv-x="167" 
d="M84 -8q-51 0 -51 53v588q0 24 14.5 38.5t38.5 14.5q49 0 49 -53v-588q0 -53 -51 -53zM84 10q33 0 33 35v586q0 37 -31 37q-35 0 -35 -37v-586q0 -35 33 -35z" />
    <glyph glyph-name="uni2081" unicode="&#x2081;" horiz-adv-x="129" 
d="M18 0v18h37v619q-3 -23 -32 -23v21q19 0 25.5 9t8.5 34h17v-660h35v-18h-91z" />
    <glyph glyph-name="uni2082" unicode="&#x2082;" horiz-adv-x="163" 
d="M31 66q0 54 41 186q41 128 41 176v205q0 19 -7 27t-24 8q-31 0 -31 -37v-225h-18v229q0 51 49 51t49 -51v-207q0 -52 -41 -180q-41 -132 -41 -182v-48h86v-18h-104v66z" />
    <glyph glyph-name="uni2083" unicode="&#x2083;" horiz-adv-x="167" 
d="M84 -8q-51 0 -51 53v207h18v-207q0 -35 33 -35t33 35v252q0 28 -9 36.5t-34 8.5h-8v16h8q41 0 41 70v207q0 33 -31 33t-31 -33v-186h-18v186q0 51 49 51t49 -51v-207q0 -59 -31 -76q33 -3 33 -55v-252q0 -53 -51 -53z" />
    <glyph glyph-name="uni2084" unicode="&#x2084;" horiz-adv-x="159" 
d="M119 150v-150h-17v150h-77v16l73 512h21v-510h24v-18h-24zM41 168h61l2 450v29l-2 -20z" />
    <glyph glyph-name="uni2085" unicode="&#x2085;" horiz-adv-x="163" 
d="M82 -8q-53 0 -53 53v164h18v-164q0 -35 35 -35q33 0 33 35v313q0 37 -31 37q-26 0 -35 -37l-4 -18l-16 4l14 334h84q0 -19 -14 -19h-56q0 -6 -1 -35t-1 -51q-3 -105 -8 -198q14 39 43 39q43 0 43 -54v-315q0 -53 -51 -53z" />
    <glyph glyph-name="uni2086" unicode="&#x2086;" horiz-adv-x="165" 
d="M137 47q0 -55 -53 -55q-51 0 -51 55v588q0 51 51 51t51 -53v-199h-18v197q0 37 -33 37t-33 -35v-287q11 33 41 33q45 0 45 -53v-279zM84 10q35 0 35 37v275q0 38 -33 38q-24 0 -35 -34v-279q0 -37 33 -37z" />
    <glyph glyph-name="uni2087" unicode="&#x2087;" horiz-adv-x="131" 
d="M33 0q4 41 6 98q20 287 22 314q13 177 29 247h-67v19h86v-12q-8 -29 -17 -103q-9 -81 -26 -317l-15 -246h-18z" />
    <glyph glyph-name="uni2088" unicode="&#x2088;" horiz-adv-x="165" 
d="M84 -8q-53 0 -53 51v258q0 49 28 49q-26 10 -26 47v238q0 51 51 51q49 0 49 -51v-238q0 -19 -9 -32t-20 -15q31 -3 31 -49v-258q0 -51 -51 -51zM84 358q31 0 31 39v236q0 19 -7 27t-24 8q-33 0 -33 -35v-236q0 -15 8.5 -27t24.5 -12zM84 12q33 0 33 33v258q0 39 -33 39
q-35 0 -35 -39v-258q0 -33 35 -33z" />
    <glyph glyph-name="uni2089" unicode="&#x2089;" horiz-adv-x="165" 
d="M82 -8q-49 0 -49 55v195h18v-195q0 -37 31 -37q33 0 33 35v285q-10 -31 -41 -31q-45 0 -45 55v277q0 55 53 55q51 0 51 -55v-586q0 -53 -51 -53zM82 317q29 0 33 35v277q0 39 -33 39q-35 0 -35 -39v-271q0 -41 35 -41z" />
    <glyph glyph-name="uni208A" unicode="&#x208a;" horiz-adv-x="178" 
d="M98 354v-37h-20v37h-37v19h37v37h20v-37h37v-19h-37z" />
    <glyph glyph-name="uni208B" unicode="&#x208b;" horiz-adv-x="178" 
d="M41 354v19h94v-19h-94z" />
    <glyph glyph-name="uni208C" unicode="&#x208c;" horiz-adv-x="178" 
d="M41 385v18h94v-18h-94zM41 326v18h94v-18h-94z" />
    <glyph glyph-name="uni208D" unicode="&#x208d;" horiz-adv-x="102" 
d="M35 694q0 45 11.5 62.5t43.5 17.5v-18q-23 0 -30 -13t-7 -49v-815q0 -36 8 -47.5t29 -11.5v-19q-32 0 -43.5 16.5t-11.5 63.5v813z" />
    <glyph glyph-name="uni208E" unicode="&#x208e;" horiz-adv-x="102" 
d="M12 -180q23 0 30 12t7 49v813q0 38 -7 50t-30 12v18q34 0 45 -17t11 -63v-813q0 -48 -10.5 -64t-45.5 -16v19z" />
    <glyph glyph-name="colonmonetary" unicode="&#x20a1;" horiz-adv-x="299" 
d="M164 12q59 9 59 76v512h21v-512q0 -87 -80 -96l-8 -232h-21l8 232q-10 0 -26 4l-6 -236h-21l8 244q-43 22 -43 90v1258q0 49 22.5 75.5t61.5 26.5l8 232h21l-8 -232q5 -1 13.5 -2t12.5 -2l7 236h20l-8 -246q39 -23 39 -82v-463h-21v465q0 42 -18 55v-8zM139 1436
q-31 -1 -47 -24t-16 -60v-1258q0 -43 22 -65v4zM119 16q20 -4 24 -4l41 1395v23q-10 6 -24 6l-41 -1403v-17z" />
    <glyph glyph-name="uni20A2" unicode="&#x20a2;" horiz-adv-x="292" 
d="M238 90q0 -44 -25 -71t-66 -27q-44 0 -68 26.5t-24 77.5v1256q0 48 24 75t68 27q41 0 65 -26t26 -70v-436h-21v438q-3 74 -70 74q-71 0 -71 -82v-1256q0 -73 57 -82v793h17l2 -68q6 36 24 52t55 16h7v-21h-7q-46 0 -61.5 -27.5t-15.5 -101.5v-645q60 3 63 78v535h21v-535
z" />
    <glyph glyph-name="franc" unicode="&#x20a3;" horiz-adv-x="215" 
d="M78 494v-494h-21v1446h133v-21h-112v-624h104v-21h-104v-266h104v-20h-104z" />
    <glyph glyph-name="lira" unicode="&#x20a4;" horiz-adv-x="358" 
d="M244 -10q-35 0 -88 45q-21 -47 -72 -47q-66 0 -66 57q0 25 17 42t41 17q28 0 71 -34q5 40 5 55q0 8 -1 22.5t-2 38t-2 43.5q-2 30 -9 170t-13 230h-80v20h78l-6 123h-72v21h70q-3 39 -7.5 119t-7.5 120q-14 269 -14 334q0 129 86 129q52 0 70 -40.5t18 -127.5h-20
q0 80 -14 114t-54 34q-66 0 -66 -109q0 -12 1 -30.5t2 -46.5t2 -50q2 -43 10.5 -197t13.5 -249h94v-21h-92l6 -123h86v-20h-84q11 -139 13 -219q14 -243 14 -285q0 -39 -8 -70q49 -45 80 -45q27 0 38 20.5t11 78.5v272h20v-275q0 -64 -16.5 -90t-52.5 -26zM84 8q42 0 57 41
q-35 35 -65 35q-37 0 -37 -39q0 -37 45 -37z" />
    <glyph glyph-name="uni20A6" unicode="&#x20a6;" horiz-adv-x="364" 
d="M186 600h-88v-600h-20v600h-58v21h58v208h-58v21h58v596h18l78 -596h90v596h21v-596h59v-21h-59v-208h59v-21h-59v-600h-21zM98 850h56l-25 182l-39 344l8 -440v-86zM156 829h-58v-208h84zM264 829h-88l27 -208h61v208zM270 80l-6 184v336h-57l53 -414z" />
    <glyph glyph-name="peseta" unicode="&#x20a7;" horiz-adv-x="626" 
d="M580 133q0 -72 -25.5 -106.5t-97.5 -34.5h-27q-75 0 -102 34t-27 121v998h-72v-576q0 -116 -104 -116h-47v-453h-21v1446h68q58 0 81 -25t23 -86v-174l29 2q33 2 40 7.5t7 29.5l2 84h15v-119h71v-20h-71v-998q0 -76 24.5 -105.5t85.5 -29.5h25q58 0 80 28.5t22 92.5v342
q0 38 -19 59.5t-53 38.5q-71 47 -71 129v381q0 93 78 93q76 0 79 -95v-321h-20v323q0 72 -59 72q-58 0 -58 -72v-381q0 -69 72 -116q25 -16 36 -25t23.5 -32t12.5 -54v-342zM78 1425v-952h47q84 0 84 96v766q0 52 -18 71t-66 19h-47z" />
    <glyph glyph-name="uni20A8" unicode="&#x20a8;" horiz-adv-x="505" 
d="M328 -8q-74 0 -96.5 33t-22.5 122v457q0 49 -16 68.5t-62 19.5h-53v-692h-21v1446h62q61 0 87.5 -24.5t26.5 -84.5v-532q0 -85 -63 -100q34 -6 46.5 -29t12.5 -72v-457q0 -78 21 -106.5t80 -28.5h20q56 0 72 26.5t16 94.5v365q0 39 -18.5 60.5t-52.5 37.5q-72 33 -72 109
v378q0 93 80 93q78 0 78 -95v-313h-21v315q-4 72 -59 72q-58 0 -58 -72v-378q0 -38 19 -59.5t53 -37.5t53 -40.5t19 -69.5v-365q0 -76 -19.5 -108.5t-89.5 -32.5h-22zM78 1425v-712h51q84 0 84 92v532q0 49 -20.5 68.5t-73.5 19.5h-41z" />
    <glyph glyph-name="uni20A9" unicode="&#x20a9;" horiz-adv-x="376" 
d="M231 584h-86l-39 -584h-20l-18 584h-48v20h46l-9 250h-37v20h37l-18 572h20l17 -572h69l37 572h17l32 -572h68l18 572h21l-19 -572h37v-20h-39l-8 -250h47v-20h-47l-20 -584h-21zM166 874h47l-18 273l-5 262l-6 -262zM145 854h-69l8 -250h45zM213 854h-49l-17 -250h82z
M299 854h-66l15 -250h43zM100 166l27 418h-43l12 -434v-74zM276 166l15 418h-43l24 -414l7 -86z" />
    <glyph glyph-name="uni20AA" unicode="&#x20aa;" horiz-adv-x="442" 
d="M78 1425v-1425h-21v1446h105q63 0 93 -26.5t30 -90.5v-1198q0 -16 -5 -21.5t-16 -5.5v1225q0 52 -26 74t-76 22h-84zM160 0v1341q13 0 16.5 -4t3.5 -22v-1295h84q103 0 103 97v1329h20v-1329q0 -64 -30 -90.5t-93 -26.5h-104z" />
    <glyph glyph-name="Euro" unicode="&#x20ac;" horiz-adv-x="305" 
d="M254 88q0 -96 -88 -96q-90 0 -90 102v539h-53v20h53v146h-53v20h53v533q0 48 23 75t67 27q41 0 63.5 -25.5t24.5 -70.5v-346h-21v346q-4 76 -67 76q-70 0 -70 -84v-531h119l-6 -20h-113v-146h80l-6 -20h-74v-539q0 -82 70 -82q63 0 67 76v348h21v-348z" />
    <glyph glyph-name="uni20AE" unicode="&#x20ae;" horiz-adv-x="204" 
d="M113 571v-571h-21v561l-61 -31v23l61 31v141l-61 -31v23l61 31v677h-72v21h164v-21h-71v-667l61 30v-22l-61 -31v-141l61 31v-23z" />
    <glyph glyph-name="uni20B1" unicode="&#x20b1;" horiz-adv-x="305" 
d="M88 453v-453h-20v862h-48v21h48v147h-48v21h48v395h67q58 0 81.5 -25.5t23.5 -85.5v-284h45v-21h-45v-147h45v-21h-45v-293q0 -116 -105 -116h-47zM88 1425v-374h131v284q0 52 -18 71t-66 19h-47zM219 1030h-131v-147h131v147zM219 862h-131v-389h47q84 0 84 96v293z" />
    <glyph glyph-name="uni2105" unicode="&#x2105;" horiz-adv-x="448" 
d="M141 844q-75 0 -75 94v424q0 92 75 92q74 0 74 -92v-117h-20v119q0 70 -54 70q-55 0 -55 -70v-426q0 -74 55 -74q54 0 54 74v147h20v-147q0 -94 -74 -94zM358 1446h23l-289 -1446h-22zM305 -8q-74 0 -74 96v428q0 42 19 67t55 25q37 0 56.5 -24.5t19.5 -67.5v-428
q0 -45 -19.5 -70.5t-56.5 -25.5zM305 12q55 0 55 74v430q0 72 -55 72q-53 0 -53 -72v-430q0 -74 53 -74z" />
    <glyph glyph-name="uni2116" unicode="&#x2116;" horiz-adv-x="501" 
d="M387 598q-30 0 -46.5 18t-16.5 48v722q0 68 63 68q32 0 49 -17.5t17 -47.5v-723q0 -68 -66 -68zM78 0h-21v1446h19l164 -1260l10 -106l-6 184v1182h20v-1446h-20l-135 1032l-39 344l8 -440v-936zM387 618q45 0 45 50v718q0 48 -45 48q-43 0 -43 -50v-718q0 -48 43 -48z
M451 455h-125v20h125v-20z" />
    <glyph glyph-name="uni2117" unicode="&#x2117;" horiz-adv-x="458" 
d="M227 -8q-82 0 -129 44t-47 136v1092q0 94 47.5 142t128.5 48q83 0 132 -47.5t49 -140.5v-1094q0 -91 -49 -135.5t-132 -44.5zM227 12q75 0 117.5 39t42.5 121v1096q0 82 -43 124t-117 42q-72 0 -113.5 -42.5t-41.5 -125.5v-1096q0 -158 155 -158zM176 455v-349h-20v1207
h55q59 0 79.5 -23t20.5 -84v-639q0 -60 -21.5 -86t-74.5 -26h-39zM176 1292v-817h37q78 0 78 92v639q0 50 -15 68t-65 18h-35z" />
    <glyph glyph-name="uni2120" unicode="&#x2120;" horiz-adv-x="348" 
d="M90 817q-43 0 -43 43v203h19v-203q0 -26 24 -26q25 0 25 26v244q0 17 -6.5 25t-24.5 16q-23 13 -29 21t-6 30v217q0 41 41 41t41 -41v-190h-18v190q0 25 -23 25q-22 0 -22 -23v-219q0 -16 4.5 -22.5t19.5 -14.5q23 -12 32 -22t9 -33v-244q0 -43 -43 -43zM184 823h-16v623
h20l41 -459l4 -82l5 82l38 459h21v-623h-16v254l4 314l-11 -142l-38 -426h-7l-39 426l-10 142l4 -314v-254z" />
    <glyph glyph-name="trademark" unicode="&#x2122;" horiz-adv-x="327" 
d="M82 1430v-607h-19v607h-40v16h100v-16h-41zM164 823h-17v623h21l41 -459l4 -82l4 82l39 459h20v-623h-16v254l4 305l-10 -133l-39 -426h-6l-39 426l-10 133l4 -305v-254z" />
    <glyph glyph-name="uni2126" unicode="&#x2126;" horiz-adv-x="448" 
d="M172 0h-139v20h127q-21 63 -47 306q-27 278 -39 465q-19 289 -19 342q0 121 25 194q42 127 151 127q47 0 88 -24q93 -56 93 -297q0 -89 -23 -342q-11 -119 -49 -465q-30 -244 -53 -306h129v-20h-142l-10 20q22 48 51 287q35 290 54 475q22 245 22 351q0 129 -24 194
q-39 107 -136 107q-37 0 -73 -25q-82 -59 -82 -276q0 -63 18 -351q16 -242 41 -473q26 -240 47 -289z" />
    <glyph glyph-name="uni2153" unicode="&#x2153;" horiz-adv-x="337" 
d="M178 815l98 660l25 -5l-115 -659zM63 768v18h37v619q-3 -23 -32 -23v21q19 0 25.5 9t8.5 34h17v-660h35v-18h-91zM238 -10q-52 0 -52 53v207h19v-207q0 -35 33 -35q32 0 32 35v252q0 28 -9 36.5t-34 8.5h-8v16h8q41 0 41 70v207q0 18 -6.5 25.5t-23.5 7.5q-31 0 -31 -33
v-187h-19v187q0 51 50 51q49 0 49 -51v-207q0 -59 -31 -76q33 -3 33 -55v-252q0 -53 -51 -53zM162 678l-105 -692l-24 6l121 690z" />
    <glyph glyph-name="uni2154" unicode="&#x2154;" horiz-adv-x="337" 
d="M178 815l98 660l25 -5l-115 -659zM49 834q0 54 41 186q41 128 41 176v205q0 19 -7 27t-24 8q-30 0 -30 -37v-225h-19v229q0 51 49 51q50 0 50 -51v-207q0 -52 -41 -180q-41 -132 -41 -182v-48h86v-18h-105v66zM238 -10q-52 0 -52 53v207h19v-207q0 -35 33 -35q32 0 32 35
v252q0 28 -9 36.5t-34 8.5h-8v16h8q41 0 41 70v207q0 18 -6.5 25.5t-23.5 7.5q-31 0 -31 -33v-187h-19v187q0 51 50 51q49 0 49 -51v-207q0 -59 -31 -76q33 -3 33 -55v-252q0 -53 -51 -53zM162 678l-105 -692l-24 6l121 690z" />
    <glyph glyph-name="uni2155" unicode="&#x2155;" horiz-adv-x="337" 
d="M178 815l98 660l25 -5l-115 -659zM63 768v18h37v619q-3 -23 -32 -23v21q19 0 25.5 9t8.5 34h17v-660h35v-18h-91zM162 678l-105 -692l-24 6l121 690zM240 -10q-54 0 -54 53v164h19v-164q0 -35 35 -35q32 0 32 35v313q0 37 -30 37q-26 0 -35 -37l-4 -18l-17 4l15 334h84
q0 -19 -15 -19h-55q0 -6 -1 -35t-1 -51q-3 -105 -8 -198q14 39 43 39q43 0 43 -54v-315q0 -53 -51 -53z" />
    <glyph glyph-name="uni2156" unicode="&#x2156;" horiz-adv-x="337" 
d="M178 815l98 660l25 -5l-115 -659zM49 834q0 54 41 186q41 128 41 176v205q0 19 -7 27t-24 8q-30 0 -30 -37v-225h-19v229q0 51 49 51q50 0 50 -51v-207q0 -52 -41 -180q-41 -132 -41 -182v-48h86v-18h-105v66zM162 678l-105 -692l-24 6l121 690zM240 -10q-54 0 -54 53
v164h19v-164q0 -35 35 -35q32 0 32 35v313q0 37 -30 37q-26 0 -35 -37l-4 -18l-17 4l15 334h84q0 -19 -15 -19h-55q0 -6 -1 -35t-1 -51q-3 -105 -8 -198q14 39 43 39q43 0 43 -54v-315q0 -53 -51 -53z" />
    <glyph glyph-name="uni2157" unicode="&#x2157;" horiz-adv-x="337" 
d="M178 815l98 660l25 -5l-115 -659zM102 760q-51 0 -51 53v207h19v-207q0 -35 32 -35q33 0 33 35v252q0 28 -9 36.5t-34 8.5h-8v16h8q41 0 41 70v207q0 33 -31 33q-30 0 -30 -33v-186h-19v186q0 51 49 51q50 0 50 -51v-207q0 -59 -31 -76q33 -3 33 -55v-252q0 -53 -52 -53z
M162 678l-105 -692l-24 6l121 690zM240 -12q-54 0 -54 53v164h19v-164q0 -35 35 -35q32 0 32 35v313q0 37 -30 37q-26 0 -35 -37l-4 -18l-17 4l15 334h84q0 -19 -15 -19h-55q0 -6 -1 -35t-1 -51q-3 -105 -8 -198q14 39 43 39q43 0 43 -54v-315q0 -53 -51 -53z" />
    <glyph glyph-name="uni2158" unicode="&#x2158;" horiz-adv-x="337" 
d="M178 815l98 660l25 -5l-115 -659zM129 918v-150h-16v150h-78v16l74 512h20v-510h25v-18h-25zM51 936h62l2 450v29l-2 -20zM162 678l-105 -692l-24 6l121 690zM240 -10q-54 0 -54 53v164h19v-164q0 -35 35 -35q32 0 32 35v313q0 37 -30 37q-26 0 -35 -37l-4 -18l-17 4
l15 334h84q0 -19 -15 -19h-55q0 -6 -1 -35t-1 -51q-3 -105 -8 -198q14 39 43 39q43 0 43 -54v-315q0 -53 -51 -53z" />
    <glyph glyph-name="uni2159" unicode="&#x2159;" horiz-adv-x="337" 
d="M178 815l98 660l25 -5l-115 -659zM63 768v18h37v619q-3 -23 -32 -23v21q19 0 25.5 9t8.5 34h17v-660h35v-18h-91zM291 47q0 -55 -53 -55q-52 0 -52 55v588q0 51 52 51q51 0 51 -53v-199h-19v197q0 37 -32 37q-33 0 -33 -35v-287q11 33 41 33q45 0 45 -53v-279zM162 678
l-105 -692l-24 6l121 690zM238 10q34 0 34 37v275q0 38 -32 38q-24 0 -35 -34v-279q0 -37 33 -37z" />
    <glyph glyph-name="uni215A" unicode="&#x215a;" horiz-adv-x="337" 
d="M178 815l98 660l25 -5l-115 -659zM102 760q-53 0 -53 53v164h19v-164q0 -35 34 -35q33 0 33 35v313q0 37 -31 37q-25 0 -34 -37l-4 -18l-17 4l14 334h84q0 -19 -14 -19h-55q0 -6 -1 -35t-1 -51q-3 -105 -8 -198q14 39 43 39q43 0 43 -54v-315q0 -53 -52 -53zM291 47
q0 -55 -53 -55q-52 0 -52 55v588q0 51 52 51q51 0 51 -53v-199h-19v197q0 37 -32 37q-33 0 -33 -35v-287q11 33 41 33q45 0 45 -53v-279zM162 678l-105 -692l-24 6l121 690zM238 10q34 0 34 37v275q0 38 -32 38q-24 0 -35 -34v-279q0 -37 33 -37z" />
    <glyph glyph-name="uni215B" unicode="&#x215b;" horiz-adv-x="337" 
d="M178 815l98 660l25 -5l-115 -659zM63 768v18h37v619q-3 -23 -32 -23v21q19 0 25.5 9t8.5 34h17v-660h35v-18h-91zM240 -8q-54 0 -54 51v258q0 49 29 49q-27 10 -27 47v238q0 51 52 51q49 0 49 -51v-238q0 -19 -9 -32t-20 -15q31 -3 31 -49v-258q0 -51 -51 -51zM162 678
l-105 -692l-24 6l121 690zM240 358q30 0 30 39v236q0 19 -6.5 27t-23.5 8q-33 0 -33 -35v-236q0 -15 8.5 -27t24.5 -12zM240 12q32 0 32 33v258q0 39 -32 39q-35 0 -35 -39v-258q0 -33 35 -33z" />
    <glyph glyph-name="uni215C" unicode="&#x215c;" horiz-adv-x="337" 
d="M178 815l98 660l25 -5l-115 -659zM102 760q-51 0 -51 53v207h19v-207q0 -35 32 -35q33 0 33 35v252q0 28 -9 36.5t-34 8.5h-8v16h8q41 0 41 70v207q0 33 -31 33q-30 0 -30 -33v-186h-19v186q0 51 49 51q50 0 50 -51v-207q0 -59 -31 -76q33 -3 33 -55v-252q0 -53 -52 -53z
M240 -8q-54 0 -54 51v258q0 49 29 49q-27 10 -27 47v238q0 51 52 51q49 0 49 -51v-238q0 -19 -9 -32t-20 -15q31 -3 31 -49v-258q0 -51 -51 -51zM162 678l-105 -692l-24 6l121 690zM240 358q30 0 30 39v236q0 19 -6.5 27t-23.5 8q-33 0 -33 -35v-236q0 -15 8.5 -27t24.5 -12
zM240 12q32 0 32 33v258q0 39 -32 39q-35 0 -35 -39v-258q0 -33 35 -33z" />
    <glyph glyph-name="uni215D" unicode="&#x215d;" horiz-adv-x="337" 
d="M178 815l98 660l25 -5l-115 -659zM102 760q-53 0 -53 53v164h19v-164q0 -35 34 -35q33 0 33 35v313q0 37 -31 37q-25 0 -34 -37l-4 -18l-17 4l14 334h84q0 -19 -14 -19h-55q0 -6 -1 -35t-1 -51q-3 -105 -8 -198q14 39 43 39q43 0 43 -54v-315q0 -53 -52 -53zM240 -8
q-54 0 -54 51v258q0 49 29 49q-27 10 -27 47v238q0 51 52 51q49 0 49 -51v-238q0 -19 -9 -32t-20 -15q31 -3 31 -49v-258q0 -51 -51 -51zM162 678l-105 -692l-24 6l121 690zM240 358q30 0 30 39v236q0 19 -6.5 27t-23.5 8q-33 0 -33 -35v-236q0 -15 8.5 -27t24.5 -12z
M240 12q32 0 32 33v258q0 39 -32 39q-35 0 -35 -39v-258q0 -33 35 -33z" />
    <glyph glyph-name="uni215E" unicode="&#x215e;" horiz-adv-x="337" 
d="M178 815l98 660l25 -5l-115 -659zM78 768q4 41 6 98q20 287 22 314q13 177 29 247h-67v19h86v-12q-8 -29 -17 -103q-9 -81 -26 -317l-15 -246h-18zM240 -8q-54 0 -54 51v258q0 49 29 49q-27 10 -27 47v238q0 51 52 51q49 0 49 -51v-238q0 -19 -9 -32t-20 -15
q31 -3 31 -49v-258q0 -51 -51 -51zM162 678l-105 -692l-24 6l121 690zM240 358q30 0 30 39v236q0 19 -6.5 27t-23.5 8q-33 0 -33 -35v-236q0 -15 8.5 -27t24.5 -12zM240 12q32 0 32 33v258q0 39 -32 39q-35 0 -35 -39v-258q0 -33 35 -33z" />
    <glyph glyph-name="uni215F" unicode="&#x215f;" horiz-adv-x="337" 
d="M178 815l98 660l25 -5l-115 -659zM63 768v18h37v619q-3 -23 -32 -23v21q19 0 25.5 9t8.5 34h17v-660h35v-18h-91zM162 678l-105 -692l-24 6l121 690z" />
    <glyph glyph-name="arrowleft" unicode="&#x2190;" horiz-adv-x="1265" 
d="M150 698q65 -41 134 -121.5t105 -166.5h-45q-20 51 -72 120q-48 61 -102.5 110t-97.5 69v20q38 20 100 72q129 118 172 229h43q-25 -67 -68 -121q-74 -106 -174 -170h994v-41h-989z" />
    <glyph glyph-name="arrowup" unicode="&#x2191;" horiz-adv-x="1265" 
d="M915 936q-65 24 -120 68q-106 74 -170 174v-994h-41v992q-42 -64 -122 -133.5t-167 -108.5v45q53 21 121 72q61 48 109.5 102t68.5 98h20q20 -38 72 -100q114 -125 229 -172v-43z" />
    <glyph glyph-name="arrowright" unicode="&#x2192;" horiz-adv-x="1265" 
d="M870 410q39 86 108 166.5t132 121.5h-989v41h993q-13 8 -86 68q-110 103 -156 223h43q24 -61 72 -121q46 -58 100.5 -106t100.5 -74v-20q-46 -21 -98 -70q-127 -114 -175 -229h-45z" />
    <glyph glyph-name="arrowdown" unicode="&#x2193;" horiz-adv-x="1265" 
d="M594 182q-21 41 -72 101q-112 128 -229 172v43q67 -25 121 -68q106 -74 170 -174v993h41v-991q42 66 122 136t166 106v-45q-54 -22 -120 -72q-125 -99 -179 -201h-20z" />
    <glyph glyph-name="uni2196" unicode="&#x2196;" horiz-adv-x="1265" 
d="M967 326l-701 700q16 -61 7.5 -173.5t-42.5 -201.5l-30 33q22 57 35 135q17 175 -17 268l14 15q61 -19 121 -21q161 -10 285 41l31 -30q-71 -31 -133 -39q-141 -21 -244 4l702 -703z" />
    <glyph glyph-name="uni2197" unicode="&#x2197;" horiz-adv-x="1265" 
d="M967 651q-31 71 -39 133q-21 142 4 244l-703 -702l-28 28l700 701q-61 -16 -173.5 -7.5t-201.5 42.5l33 30q57 -22 135 -35q176 -17 269 17l14 -15q-19 -61 -21 -120q-10 -161 41 -285z" />
    <glyph glyph-name="uni2198" unicode="&#x2198;" horiz-adv-x="1265" 
d="M963 344q-61 19 -121 21q-167 10 -285 -41l-31 30q71 31 133 39q142 21 244 -4l-702 703l28 28l701 -700q-16 61 -7.5 173.5t42.5 201.5l30 -33q-20 -48 -34 -135q-17 -178 16 -269z" />
    <glyph glyph-name="uni2199" unicode="&#x2199;" horiz-adv-x="1265" 
d="M639 324q-48 20 -135 34q-177 17 -268 -16l-15 14q19 61 21 121q10 167 -41 285l30 31q31 -70 39 -134q20 -140 -4 -243l703 702l28 -28l-700 -701q61 16 173.5 7.5t201.5 -42.5z" />
    <glyph glyph-name="partialdiff" unicode="&#x2202;" horiz-adv-x="276" 
d="M137 -8q-40 0 -63 25.5t-23 74.5v983q0 50 23.5 75.5t58.5 25.5q55 0 70 -52q-10 79 -29 156q-49 208 -139 264h28q71 -50 115 -217q45 -142 45 -266v-969q0 -48 -23.5 -74t-62.5 -26zM137 12q66 0 66 80v973q0 90 -66 90q-31 0 -48 -22t-17 -58v-983q0 -34 17 -57
t48 -23z" />
    <glyph glyph-name="uni2206" unicode="&#x2206;" horiz-adv-x="305" 
d="M18 0l134 1473l135 -1473h-269zM152 1303l-109 -1283h219z" />
    <glyph glyph-name="product" unicode="&#x220f;" horiz-adv-x="415" 
d="M285 1425h-156v-1425h-20v1425h-76v21h350v-21h-78v-1425h-20v1425z" />
    <glyph glyph-name="summation" unicode="&#x2211;" horiz-adv-x="221" 
d="M190 0h-165v25l100 723l-94 669v29h155v-21h-137l98 -680l-98 -725h141v-20z" />
    <glyph glyph-name="minus" unicode="&#x2212;" horiz-adv-x="329" 
d="M70 702v21h184v-21h-184z" />
    <glyph glyph-name="radical" unicode="&#x221a;" horiz-adv-x="473" 
d="M195 0l-99 795h-63v20h80l92 -731l217 1362h20l-229 -1446h-18z" />
    <glyph glyph-name="infinity" unicode="&#x221e;" horiz-adv-x="571" 
d="M139 604q-39 0 -65.5 26.5t-26.5 67.5q0 42 25.5 68.5t66.5 26.5q27 0 59 -16.5t46 -28t43 -37.5q1 0 29 24t38.5 30.5t34 17t43.5 10.5q42 0 67 -26.5t25 -68.5q0 -41 -25.5 -67.5t-66.5 -26.5q-16 0 -32 4.5t-33.5 15.5t-27 17.5t-29 23t-23.5 19.5
q-27 -24 -42.5 -36.5t-47 -28t-58.5 -15.5zM139 625q16 0 31 4t31.5 14.5t24 16t26 21.5t20.5 17q-26 23 -40.5 34.5t-41.5 25.5t-51 14q-32 0 -51.5 -21.5t-19.5 -52.5t19.5 -52t51.5 -21zM432 625q32 0 52 21t20 52t-20 52.5t-52 21.5q-52 0 -131 -74q27 -24 38.5 -33.5
t40.5 -24.5t52 -15z" />
    <glyph glyph-name="integral" unicode="&#x222b;" horiz-adv-x="169" 
d="M12 -215h6q33 0 44.5 19t11.5 79v1508q0 66 17 91t59 25h6v-20h-6q-33 0 -44.5 -19t-11.5 -79v-1508q0 -66 -17 -91.5t-59 -25.5h-6v21z" />
    <glyph glyph-name="approxequal" unicode="&#x2248;" horiz-adv-x="329" 
d="M111 825q18 0 53.5 -13t50.5 -13q27 0 39 24v-26q-2 -7 -14 -14t-25 -7q-21 0 -55 14.5t-49 14.5q-29 0 -41 -27v25q13 22 41 22zM70 705q11 20 39 20q21 0 56 -13.5t50 -13.5q27 0 39 25v-25q-9 -20 -39 -20q-21 0 -56 14.5t-50 14.5q-11 0 -22.5 -9t-16.5 -20v27z" />
    <glyph glyph-name="notequal" unicode="&#x2260;" horiz-adv-x="329" 
d="M152 653l-21 -75h-20l20 75h-61v21h65l25 94h-90v20h96l18 70h21l-19 -70h68v-20h-74l-24 -94h98v-21h-102z" />
    <glyph glyph-name="equivalence" unicode="&#x2261;" horiz-adv-x="329" 
d="M70 831v21h184v-21h-184zM70 719v20h184v-20h-184zM70 604v21h184v-21h-184z" />
    <glyph glyph-name="lessequal" unicode="&#x2264;" horiz-adv-x="329" 
d="M68 647v15l186 81v-20l-158 -68l158 -69v-23zM68 496v20h186v-20h-186z" />
    <glyph glyph-name="greaterequal" unicode="&#x2265;" horiz-adv-x="329" 
d="M76 586l157 69l-157 68v20l186 -81v-15l-186 -84v23zM76 496v20h186v-20h-186z" />
    <glyph glyph-name="uni22A0" unicode="&#x22a0;" horiz-adv-x="1837" 
d="M201 1446h1437v-1446h-1437v1446zM262 59h1313v1327h-1313v-1327zM924 686l-396 -410l-39 43l396 408l-385 395l43 41l383 -393l377 391l40 -43l-376 -389l387 -399l-43 -41z" />
    <glyph glyph-name="house" unicode="&#x2302;" horiz-adv-x="1748" 
d="M207 0v831l667 642l668 -642v-831h-1335z" />
    <glyph glyph-name="filledbox" unicode="&#x25a0;" horiz-adv-x="1837" 
d="M201 1446h1437v-1446h-1437v1446z" />
    <glyph glyph-name="uni25A1" unicode="&#x25a1;" horiz-adv-x="1837" 
d="M201 0v1446h1437v-1446h-1437zM262 1386v-1327h1313v1327h-1313z" />
    <glyph glyph-name="uni25AA" unicode="&#x25aa;" horiz-adv-x="1566" 
d="M207 1153h1153v-1153h-1153v1153z" />
    <glyph glyph-name="uni25AB" unicode="&#x25ab;" horiz-adv-x="1566" 
d="M207 1153h1153v-1153h-1153v1153zM268 59h1030v1035h-1030v-1035z" />
    <glyph glyph-name="triagup" unicode="&#x25b2;" horiz-adv-x="1779" 
d="M41 0l850 1470l848 -1470h-1698z" />
    <glyph glyph-name="triagrt" unicode="&#x25ba;" horiz-adv-x="1779" 
d="M201 1585l1468 -848l-1468 -850v1698z" />
    <glyph glyph-name="triagdn" unicode="&#x25bc;" horiz-adv-x="1779" 
d="M1739 1446l-848 -1471l-850 1471h1698z" />
    <glyph glyph-name="triaglf" unicode="&#x25c4;" horiz-adv-x="1779" 
d="M1581 -113l-1470 850l1470 848v-1698z" />
    <glyph glyph-name="lozenge" unicode="&#x25ca;" horiz-adv-x="401" 
d="M41 707l158 159l161 -159l-159 -160zM201 575l131 132l-133 131l-129 -131z" />
    <glyph glyph-name="circle" unicode="&#x25cb;" horiz-adv-x="1855" 
d="M928 -20q-221 0 -385 96q-171 96 -265 263.5t-94 383.5q0 323 211 534q209 209 533 209q323 0 534 -211q209 -209 209 -532q0 -324 -211 -535q-208 -208 -532 -208zM928 37q283 0 485 196q195 201 195 490q0 286 -193 489q-197 197 -487 197q-143 0 -266.5 -50.5
t-217.5 -144.5q-196 -190 -196 -491q0 -291 190 -490q196 -196 490 -196z" />
    <glyph glyph-name="uni25CE" unicode="&#x25ce;" horiz-adv-x="1873" 
d="M936 -20q-217 0 -389 96q-172 98 -266.5 267.5t-94.5 389.5q0 329 209 541q213 213 541 213t539 -211q213 -213 213 -543q0 -328 -209 -540q-216 -213 -543 -213zM936 246q137 0 248 63q111 65 173 175.5t62 248.5q0 140 -63 248q-63 113 -173 178.5t-247 65.5
q-132 0 -246 -66q-110 -65 -172.5 -176.5t-62.5 -249.5q0 -136 63 -250q65 -111 174.5 -174t243.5 -63zM938 383q-106 0 -180 45q-80 45 -125 124t-45 179q0 105 47 178q48 80 127 125t176 45q104 0 178 -45q81 -45 126.5 -124t45.5 -179q0 -102 -45 -176
q-48 -81 -127 -126.5t-178 -45.5zM938 612q49 0 80 34t31 85q0 54 -30.5 86.5t-80.5 32.5t-80.5 -32.5t-30.5 -86.5q0 -51 31 -85t80 -34z" />
    <glyph glyph-name="uni25CF" unicode="&#x25cf;" horiz-adv-x="1855" 
d="M928 -20q-221 0 -385 96q-171 96 -265 263.5t-94 383.5q0 323 211 534q209 209 533 209q323 0 534 -211q209 -209 209 -532q0 -324 -211 -535q-208 -208 -532 -208z" />
    <glyph glyph-name="uni25E2" unicode="&#x25e2;" horiz-adv-x="1779" 
d="M530 -145l-438 1640l1639 -440z" />
    <glyph glyph-name="uni25E3" unicode="&#x25e3;" horiz-adv-x="1779" 
d="M53 1055l1641 440l-441 -1640z" />
    <glyph glyph-name="uni25E4" unicode="&#x25e4;" horiz-adv-x="1779" 
d="M59 332l1201 1200l440 -1638z" />
    <glyph glyph-name="uni25E5" unicode="&#x25e5;" horiz-adv-x="1779" 
d="M90 -115l440 1641l1199 -1202z" />
    <glyph glyph-name="uni2605" unicode="&#x2605;" horiz-adv-x="1847" 
d="M1300 174l-382 277l-381 -277l147 449l-381 276l469 -2l148 446l145 -446l471 -2l-383 -274z" />
    <glyph glyph-name="sun" unicode="&#x263c;" horiz-adv-x="1904" 
d="M891 1454h110l-34 -291h-41zM537 1331l96 58l112 -273l-30 -20zM1260 1389l96 -58l-178 -235l-31 20zM289 1044l57 97l236 -178l-21 -31zM1542 1141l62 -94l-273 -115l-20 33zM590 729q0 96 49 178q47 83 128.5 130.5t178.5 47.5q96 0 178 -49q84 -48 131.5 -128.5
t47.5 -178.5q0 -95 -50 -178q-47 -84 -128 -131t-179 -47q-96 0 -178 49q-83 47 -130.5 128.5t-47.5 178.5zM223 676v110l291 -34v-41zM1669 786v-110l-291 35v41zM350 322l-61 94l272 114l21 -32zM1604 418l-58 -96l-235 178l20 30zM633 74l-96 57l178 236l30 -21z
M1356 131l-96 -57l-113 272l31 21zM1001 8h-110l35 291h41z" />
    <glyph glyph-name="uni263E" unicode="&#x263e;" horiz-adv-x="1615" 
d="M1096 1239q-136 0 -246 -70q-113 -72 -178.5 -189t-65.5 -255q0 -135 66 -258q69 -119 180 -187.5t244 -68.5q61 0 145 25q-164 -117 -364 -117q-250 0 -428 178q-179 179 -179 428t179 428q178 178 428 178q200 0 364 -117q-84 25 -145 25z" />
    <glyph glyph-name="spade" unicode="&#x2660;" horiz-adv-x="1851" 
d="M991 582q0 -164 82 -342q19 -46 42.5 -93t46.5 -89.5t30 -57.5h-520l73 141q117 244 117 441q-25 -72 -69 -131q-97 -142 -271 -142q-91 0 -172 43q-79 43 -125.5 116.5t-46.5 158.5q0 117 49 211q48 94 148 195.5t276 240.5l281 223h2l280 -223q167 -130 267 -236
q101 -103 145.5 -199t44.5 -212q0 -93 -43 -158q-44 -74 -114.5 -116t-157.5 -42q-102 0 -170 39q-135 72 -195 232z" />
    <glyph glyph-name="club" unicode="&#x2663;" horiz-adv-x="1851" 
d="M1327 262q-112 0 -198.5 66t-129.5 174q10 -93 52 -203q40 -104 143 -299h-520l65 123q102 207 121 381q-43 -108 -132.5 -175t-203.5 -67q-102 0 -178 49q-84 50 -131 131t-47 179q0 102 49 178q48 81 129 128.5t178 47.5q30 0 84 -12q-41 90 -41 174q0 99 47 176
q50 81 131.5 127.5t176.5 46.5q100 0 178 -47q81 -48 127.5 -127t46.5 -176q0 -91 -37 -179q46 17 92 17q101 0 178 -47q81 -51 127.5 -131t46.5 -176q0 -98 -47 -181q-48 -81 -129.5 -129.5t-177.5 -48.5z" />
    <glyph glyph-name="heart" unicode="&#x2665;" horiz-adv-x="1851" 
d="M637 281q-164 178 -266 327q-101 144 -146 263t-45 237q0 105 49 190q50 88 134.5 138.5t185.5 50.5q109 0 180 -43q80 -42 130.5 -114.5t60.5 -164.5q13 96 59 164q51 75 129.5 116.5t179.5 41.5q103 0 191 -51q88 -52 139 -138.5t51 -189.5q0 -121 -47 -238
q-46 -117 -146.5 -257t-273.5 -332l-282 -316z" />
    <glyph glyph-name="diamond" unicode="&#x2666;" horiz-adv-x="1851" 
d="M926 1503l655 -758l-655 -765l-658 765z" />
    <glyph glyph-name="uni267B" unicode="&#x267b;" horiz-adv-x="1701" 
d="M719 1395h336q26 -1 37 -1.5t32 -5t33 -12.5t27.5 -24t27.5 -39l50 -84l75 43l-108 -291l-297 55l69 41l-124 217q-23 45 -64 68q-22 12 -45.5 20t-35.5 10l-13 1v2zM481 1286q18 31 60 53q46 30 110 27q60 -5 108.5 -29t65.5 -59l-200 -348l-260 149zM1536 754
q16 -28 16 -76q0 -65 -32 -111q-31 -48 -77.5 -77t-84.5 -29l-201 348l258 147zM338 256l-166 291q-19 33 -26.5 54t-4.5 53t23 69l49 86l-74 43l303 53l103 -289l-72 43l-61 -104q-62 -107 -64 -113q-24 -46 -24 -86q0 -25 4.5 -50t9.5 -38l4 -12h-4zM1518 502l-168 -291
q-19 -28 -27 -38t-27 -27.5t-42.5 -24t-55.5 -6.5h-100v-86l-195 235l195 236v-86h252q49 0 88 22q22 14 41.5 31t28.5 27l8 10zM559 115q-41 0 -78 22q-57 37 -78 84q-26 53 -28.5 108t16.5 85h402v-299h-234z" />
    <glyph glyph-name="uni267C" unicode="&#x267c;" horiz-adv-x="1701" 
d="M1544 725q0 -286 -203 -489q-201 -201 -487 -201q-143 0 -269.5 52.5t-222.5 148.5q-204 204 -204 489q0 290 204 494q97 97 223 149.5t269 52.5q285 0 487 -202q203 -203 203 -494zM737 1251l23 -4q72 -19 100 -71l98 -168l-55 -33l232 -43l82 225l-58 -33l-39 66
q-24 40 -51 51.5t-72 11.5h-260v-2zM471 1010l203 -117l153 270q-11 23 -51 45q-40 21 -82.5 23t-87.5 -21q-32 -18 -43 -43zM1286 913l-203 -116l158 -271q26 0 64 23q39 26 63.5 65t24.5 84q0 30 -17 60zM453 371q-5 6 -7 22q-22 60 11 123l98 168l55 -35l-80 223
l-233 -38l57 -35l-39 -66q-13 -21 -17.5 -38.5t0 -37t8.5 -29t16 -34.5l129 -223h2zM1362 561l-14 -16q-51 -51 -115 -51h-193v63l-153 -180l153 -182v67h76q34 0 57.5 11.5t33.5 23.5t26 39l131 223zM797 262v232h-314q-15 -24 -12 -68q2 -44 23.5 -83.5t60.5 -63.5
q39 -17 59 -17h183z" />
    <glyph glyph-name="uni267D" unicode="&#x267d;" horiz-adv-x="1701" 
d="M1544 725q0 -286 -203 -489q-201 -201 -487 -201q-143 0 -269.5 52.5t-222.5 148.5q-204 204 -204 489q0 290 204 494q97 97 223 149.5t269 52.5q285 0 487 -202q203 -203 203 -494zM1509 725q0 274 -192 469q-92 92 -211 142t-252 50q-274 0 -469 -192
q-192 -195 -192 -469q0 -273 192 -465q195 -192 469 -192q133 0 252 50t211 142q192 192 192 465zM737 1253h260q45 0 72 -11.5t51 -51.5l39 -66l58 33l-82 -225l-232 43l55 33l-98 168q-20 33 -49 49q-17 10 -35.5 16.5t-28.5 8.5l-10 1v2zM563 1167q11 25 43 43
q40 24 86 21q48 -5 85.5 -23.5t49.5 -44.5l-153 -270l-203 117zM1376 758q17 -30 17 -60q0 -48 -27 -86q-24 -38 -59.5 -62t-65.5 -24l-158 271l203 116zM451 371l-129 223q-12 25 -16 34.5t-8.5 29t0 37t17.5 38.5l39 66l-57 35l233 38l80 -223l-55 35l-98 -168
q-19 -31 -19 -67q0 -21 4 -40.5t8 -28.5l3 -9h-2zM1364 559l-131 -223q-16 -27 -26 -39t-33.5 -23.5t-57.5 -11.5h-76v-67l-153 182l153 180v-63h193q41 0 70 16q17 11 32 24t21 20l6 7zM614 262q-20 0 -59 17q-39 23 -61 65q-20 40 -22.5 83t11.5 67h314v-232h-183z" />
    <glyph glyph-name="uni26AC" unicode="&#x26ac;" horiz-adv-x="1560" 
d="M780 -20q-169 0 -305 77q-137 80 -214 215.5t-77 302.5q0 175 80 306q79 137 214 215t302 78q165 0 303 -78q138 -80 215.5 -214.5t77.5 -306.5q0 -169 -78 -307q-81 -135 -215.5 -211.5t-302.5 -76.5zM780 37q155 0 275 72q123 71 192.5 193t69.5 273q0 157 -70 279
q-73 125 -193.5 193.5t-273.5 68.5q-151 0 -274 -72q-123 -74 -191.5 -196t-68.5 -273q0 -152 69 -272q72 -124 193 -195t272 -71z" />
    <glyph glyph-name="uni2E18" unicode="&#x2e18;" horiz-adv-x="309" 
d="M156 1176q20 0 20 -31t-22 -31q-8 0 -13.5 9t-5.5 22q0 31 21 31zM244 -184q0 -48 -23 -75.5t-67 -27.5q-42 0 -65 27.5t-23 75.5v811q0 86 40 157q39 89 39 199v61h19v-1312q59 9 59 84v592h21v-592zM86 -184q0 -37 15.5 -60.5t41.5 -23.5v30q0 136 2 273q0 299 2 459
q0 88 1.5 221.5t1.5 173.5q-6 -78 -37 -137q-27 -60 -27 -125v-811z" />
    <glyph glyph-name="uni3008" unicode="&#x3008;" horiz-adv-x="182" 
d="M147 -387l-106 946l106 954h21l-107 -954l107 -946h-21z" />
    <glyph glyph-name="uni3009" unicode="&#x3009;" horiz-adv-x="182" 
d="M20 -387l101 948l-101 952h21l100 -952l-100 -948h-21z" />
    <glyph glyph-name="I.alt" horiz-adv-x="135" 
d="M57 0v1446h21v-1446h-21z" />
    <glyph glyph-name="Iacute.alt" horiz-adv-x="135" 
d="M127 1630h25l-72 -131h-19zM57 0v1446h21v-1446h-21z" />
    <glyph glyph-name="Ibreve.alt" horiz-adv-x="135" 
d="M70 1497q-37 0 -53.5 22t-18.5 66h18q2 -35 13.5 -51.5t42.5 -17.5q52 3 55 69h18q-3 -88 -75 -88zM57 0v1446h21v-1446h-21z" />
    <glyph glyph-name="Icircumflex.alt" horiz-adv-x="135" 
d="M76 1579l-45 -80h-23l60 100h16l57 -100h-22zM57 0v1446h21v-1446h-21z" />
    <glyph glyph-name="Idieresis.alt" horiz-adv-x="135" 
d="M35 1509q-8 0 -13.5 7.5t-5.5 19.5q0 27 19 27q18 0 18 -29q0 -25 -18 -25zM104 1509q-18 0 -18 27t18 27q17 0 17 -29q0 -25 -17 -25zM57 0v1446h21v-1446h-21z" />
    <glyph glyph-name="Idotaccent.alt" horiz-adv-x="135" 
d="M68 1499q-21 0 -21 29q0 31 21 31q20 0 20 -31q0 -29 -20 -29zM57 0v1446h21v-1446h-21z" />
    <glyph glyph-name="Igrave.alt" horiz-adv-x="135" 
d="M0 1606h23l57 -105h-19zM57 0v1446h21v-1446h-21z" />
    <glyph glyph-name="Imacron.alt" horiz-adv-x="135" 
d="M4 1567h133v-21h-133v21zM57 0v1446h21v-1446h-21z" />
    <glyph glyph-name="Iogonek.alt" horiz-adv-x="135" 
d="M78 -147q-66 0 -66 63q0 43 45 88v1442h21v-1444l2 -2q-49 -49 -49 -84q0 -45 47 -45q39 0 51 37h21q-14 -55 -72 -55z" />
    <glyph glyph-name="Itilde.alt" horiz-adv-x="135" 
d="M-14 1520q0 61 41 61q21 0 47 -21.5t37 -21.5q24 0 24 43h21q0 -63 -45 -63q-21 0 -46.5 21.5t-37.5 21.5q-13 0 -18 -9t-5 -32h-18zM57 0v1446h21v-1446h-21z" />
    <glyph glyph-name="g.alt" horiz-adv-x="272" 
d="M123 -127q-86 0 -86 64q0 42 63 67q-55 3 -55 49q0 41 57 53q-51 15 -51 84v891q0 90 82 95q6 1 18 2t16.5 2t12.5 2.5t10.5 3.5t6.5 6t5 9.5t1 12.5v5h20v-5q0 -30 -13.5 -37.5t-47.5 -7.5q3 0 7.5 -2.5t6.5 -3.5q45 -15 45 -82v-891q0 -45 -23.5 -68.5t-60.5 -23.5h-2
q-34 0 -51.5 -12.5t-17.5 -30.5q0 -19 17.5 -25.5t53.5 -6.5h23q86 0 86 -64v-4q0 -36 -31.5 -59t-83.5 -23h-8zM135 117q32 0 49 20t17 53v891q0 33 -17.5 54.5t-48.5 21.5q-20 0 -31 -8q-32 -14 -32 -68v-891q0 -34 16 -53.5t47 -19.5zM131 -106q39 0 66.5 17.5t27.5 43.5
v4q0 24 -14.5 33.5t-52.5 9.5q-40 -2 -70.5 -17.5t-30.5 -43.5q0 -47 68 -47h6z" />
    <glyph glyph-name="gbreve.alt" horiz-adv-x="280" 
d="M139 1227q-37 0 -53 21.5t-18 66.5h18q2 -35 13.5 -52t41.5 -18q53 3 56 70h18q-3 -88 -76 -88zM141 -176q-90 0 -90 90h21q0 -70 69 -70q64 0 64 80v131q-15 -63 -68 -63q-86 0 -86 127v925q0 132 84 132q57 0 72 -62l2 51h16v-1247q0 -44 -21 -69t-63 -25zM137 12
q31 0 49.5 28.5t18.5 86.5v899q0 66 -16.5 97.5t-53.5 31.5q-63 0 -63 -113v-921q0 -109 65 -109z" />
    <glyph glyph-name="gcircumflex.alt" horiz-adv-x="280" 
d="M145 1309l-45 -80h-22l59 100h17l57 -100h-23zM141 -176q-90 0 -90 90h21q0 -70 69 -70q64 0 64 80v131q-15 -63 -68 -63q-86 0 -86 127v925q0 132 84 132q57 0 72 -62l2 51h16v-1247q0 -44 -21 -69t-63 -25zM137 12q31 0 49.5 28.5t18.5 86.5v899q0 66 -16.5 97.5
t-53.5 31.5q-63 0 -63 -113v-921q0 -109 65 -109z" />
    <glyph glyph-name="gcommaaccent.alt" horiz-adv-x="280" 
d="M137 1229q-11 0 -15.5 8.5t-4.5 32.5q0 52 30 86l11 -8q-25 -36 -25 -72q3 8 8 8q15 0 15 -27q0 -28 -19 -28zM141 -176q-90 0 -90 90h21q0 -70 69 -70q64 0 64 80v131q-15 -63 -68 -63q-86 0 -86 127v925q0 132 84 132q57 0 72 -62l2 51h16v-1247q0 -44 -21 -69t-63 -25
zM137 12q31 0 49.5 28.5t18.5 86.5v899q0 66 -16.5 97.5t-53.5 31.5q-63 0 -63 -113v-921q0 -109 65 -109z" />
    <glyph glyph-name="gdotaccent.alt" horiz-adv-x="280" 
d="M141 1229q-20 0 -20 28q0 31 20 31q21 0 21 -31q0 -28 -21 -28zM141 -176q-90 0 -90 90h21q0 -70 69 -70q64 0 64 80v131q-15 -63 -68 -63q-86 0 -86 127v925q0 132 84 132q57 0 72 -62l2 51h16v-1247q0 -44 -21 -69t-63 -25zM137 12q31 0 49.5 28.5t18.5 86.5v899
q0 66 -16.5 97.5t-53.5 31.5q-63 0 -63 -113v-921q0 -109 65 -109z" />
    <glyph glyph-name="g.alt2" horiz-adv-x="280" 
d="M141 -176q-90 0 -90 90h21q0 -70 69 -70q64 0 64 80v131q-15 -63 -68 -63q-86 0 -86 127v925q0 132 84 132q57 0 72 -62l2 51h16v-1247q0 -44 -21 -69t-63 -25zM137 12q31 0 49.5 28.5t18.5 86.5v899q0 66 -16.5 97.5t-53.5 31.5q-63 0 -63 -113v-921q0 -109 65 -109z
" />
    <glyph glyph-name="i.dot" horiz-adv-x="131" 
d="M66 1237q-17 0 -17 29q0 28 19 28q16 0 16 -28q0 -29 -18 -29zM55 0v1165h21v-1165h-21z" />
    <glyph glyph-name="zero.inf" horiz-adv-x="167" 
d="M84 -295q-51 0 -51 53v588q0 24 14.5 38.5t38.5 14.5q49 0 49 -53v-588q0 -53 -51 -53zM84 -276q33 0 33 34v586q0 37 -31 37q-35 0 -35 -37v-586q0 -34 33 -34z" />
    <glyph glyph-name="one.inf" horiz-adv-x="129" 
d="M18 -287v19h37v618q-3 -22 -32 -22v20q19 0 25.5 9t8.5 34h17v-659h35v-19h-91z" />
    <glyph glyph-name="two.inf" horiz-adv-x="163" 
d="M33 -221q0 54 41 186q41 128 41 176v205q0 19 -7 27t-24 8q-31 0 -31 -37v-225h-18v229q0 51 49 51t49 -51v-207q0 -52 -41 -180q-41 -132 -41 -182v-47h86v-19h-104v66z" />
    <glyph glyph-name="three.inf" horiz-adv-x="167" 
d="M84 -295q-51 0 -51 53v207h18v-207q0 -34 33 -34t33 34v252q0 28 -9 36.5t-34 8.5h-8v17h8q41 0 41 69v207q0 33 -31 33t-31 -33v-186h-18v186q0 51 49 51t49 -51v-207q0 -58 -31 -75q33 -3 33 -56v-252q0 -53 -51 -53z" />
    <glyph glyph-name="four.inf" horiz-adv-x="159" 
d="M119 -131v-150h-17v150h-77v16l73 512h21v-510h24v-18h-24zM41 -113h61l2 451v29l-2 -21z" />
    <glyph glyph-name="five.inf" horiz-adv-x="163" 
d="M82 -289q-53 0 -53 53v164h18v-164q0 -34 35 -34q33 0 33 34v314q0 37 -31 37q-26 0 -35 -37l-4 -19l-16 4l14 334h84q0 -18 -14 -18h-56q0 -6 -1 -35t-1 -51q-3 -107 -8 -199q14 39 43 39q43 0 43 -53v-316q0 -53 -51 -53z" />
    <glyph glyph-name="six.inf" horiz-adv-x="165" 
d="M137 -238q0 -55 -53 -55q-51 0 -51 55v588q0 51 51 51t51 -53v-198h-18v196q0 37 -33 37t-33 -35v-287q11 33 41 33q45 0 45 -53v-279zM84 -274q35 0 35 36v275q0 39 -33 39q-23 0 -35 -35v-279q0 -36 33 -36z" />
    <glyph glyph-name="seven.inf" horiz-adv-x="131" 
d="M33 -283q3 40 6 99q19 283 22 313q13 179 29 248h-67v18h86v-12q-8 -30 -17 -102q-9 -79 -26 -318l-15 -246h-18z" />
    <glyph glyph-name="eight.inf" horiz-adv-x="165" 
d="M84 -291q-53 0 -53 51v258q0 50 28 50q-26 10 -26 47v237q0 51 51 51q49 0 49 -51v-237q0 -19 -9 -32t-20 -15q31 -3 31 -50v-258q0 -51 -51 -51zM84 76q31 0 31 39v235q0 19 -7 27t-24 8q-33 0 -33 -35v-235q0 -15 8.5 -27t24.5 -12zM84 -270q33 0 33 32v258
q0 39 -33 39q-35 0 -35 -39v-258q0 -32 35 -32z" />
    <glyph glyph-name="nine.inf" horiz-adv-x="165" 
d="M82 -291q-49 0 -49 55v195h18v-195q0 -36 31 -36q33 0 33 34v285q-10 -31 -41 -31q-45 0 -45 56v276q0 55 53 55q51 0 51 -55v-586q0 -53 -51 -53zM82 35q29 0 33 35v276q0 39 -33 39q-35 0 -35 -39v-270q0 -41 35 -41z" />
    <glyph glyph-name="underscore" horiz-adv-x="204" 
d="M184 10h-164v21h164v-21z" />
    <glyph glyph-name="backslash.cap" horiz-adv-x="237" 
d="M68 1446l122 -1446h-20l-123 1446h21z" />
    <glyph glyph-name="periodcentered.cap" horiz-adv-x="192" 
d="M96 670q-20 0 -20 30q0 31 22 31q19 0 19 -31q0 -30 -21 -30z" />
    <glyph glyph-name="bullet.cap" horiz-adv-x="204" 
d="M102 666q-36 0 -36 34q0 37 36 37q35 0 35 -37q0 -34 -35 -34z" />
    <glyph glyph-name="uni2016.cap" horiz-adv-x="231" 
d="M57 -258v2013h23v-2013h-23zM152 -258v2013h22v-2013h-22z" />
    <glyph glyph-name="exclamdown.cap" horiz-adv-x="192" 
d="M96 1454q21 0 21 -31q0 -30 -23 -30q-18 0 -18 30q0 31 20 31zM106 0h-22v162q0 49 1 199.5t1 246.5q0 347 2 486v237h14v-69q2 -86 2 -398q0 -87 1 -257t1 -245v-362z" />
    <glyph glyph-name="uni2E18.cap" horiz-adv-x="309" 
d="M156 1454q20 0 20 -31q0 -30 -22 -30q-8 0 -13.5 8.5t-5.5 21.5q0 31 21 31zM244 94q0 -46 -23.5 -74t-66.5 -28q-42 0 -65 28t-23 74v811q0 87 40 158q39 89 39 199v61h19v-1313q59 9 59 84v592h21v-592zM86 94q0 -37 15.5 -60.5t41.5 -23.5v31q0 135 2 272q0 299 2 459
q0 88 1.5 221.5t1.5 173.5q-6 -78 -37 -137q-27 -60 -27 -125v-811z" />
    <glyph glyph-name="questiondown.cap" horiz-adv-x="305" 
d="M131 1454q21 0 21 -31q0 -30 -23 -30q-18 0 -18 30q0 31 20 31zM141 1315v-428q0 -54 -7 -97t-15.5 -65t-22.5 -51q-14 -31 -18.5 -42t-10.5 -40t-6 -62v-436q0 -82 68 -82q70 0 70 82v436h20v-436q0 -46 -23.5 -74t-66.5 -28q-42 0 -65 28t-23 74v436q0 33 6.5 64t12 44
t18.5 44q14 29 22 50.5t14.5 62t6.5 92.5v428h20z" />
    <glyph glyph-name="slash.cap" horiz-adv-x="237" 
d="M47 0l123 1446h20l-122 -1446h-21z" />
    <glyph glyph-name="uni3008.cap" horiz-adv-x="182" 
d="M143 -244l-102 946l104 955h21l-105 -955l103 -946h-21z" />
    <glyph glyph-name="uni3009.cap" horiz-adv-x="182" 
d="M16 -244l103 946l-105 955h21l106 -955l-102 -946h-23z" />
    <glyph glyph-name="braceleft.cap" horiz-adv-x="182" 
d="M154 -248q-64 0 -96.5 24.5t-32.5 82.5q0 33 8 98l51 360q31 246 31 254q0 50 -25 72.5t-65 22.5h-2v22h2q39 0 64.5 23t25.5 71q0 32 -23 203q-5 49 -19.5 161t-19.5 167q-22 163 -22 215q0 61 32 97t91 36h4v-21h-4q-49 0 -76 -30.5t-27 -81.5q0 -44 23 -215
q5 -55 19.5 -167t19.5 -161q22 -163 22 -203q0 -49 -27 -76.5t-57 -27.5v-2q29 0 56.5 -28t27.5 -77q0 -25 -8 -90q-21 -141 -51 -356q-31 -250 -31 -266q0 -88 109 -88h6v-19h-6z" />
    <glyph glyph-name="braceright.cap" horiz-adv-x="182" 
d="M16 -229h7q108 0 108 88q0 33 -8 96l-51 362q-31 246 -31 254q0 49 27.5 77t56.5 28v2q-30 0 -57 27.5t-27 76.5q0 40 22 203q5 49 19.5 161t19.5 167q23 171 23 215q0 51 -27 81.5t-75 30.5h-5v21h5q59 0 90.5 -36t31.5 -97q0 -52 -22 -215q-5 -55 -19.5 -167
t-19.5 -161q-23 -171 -23 -203q0 -48 26 -71t65 -23h2v-22h-2q-40 0 -65.5 -22.5t-25.5 -72.5q0 -17 9 -90q25 -171 51 -354q31 -250 31 -268q0 -58 -32.5 -82.5t-96.5 -24.5h-7v19z" />
    <glyph glyph-name="bracketleft.cap" horiz-adv-x="182" 
d="M168 -244h-111v1901h111v-21h-90v-1859h90v-21z" />
    <glyph glyph-name="bracketright.cap" horiz-adv-x="182" 
d="M14 -244v21h90v1859h-90v21h111v-1901h-111z" />
    <glyph glyph-name="parenleft.cap" horiz-adv-x="182" 
d="M168 -248q-65 0 -88 33t-23 123v1597q0 91 22.5 123.5t88.5 32.5v-21q-55 0 -72.5 -27t-17.5 -106v-1599q0 -79 17.5 -107t72.5 -28v-21z" />
    <glyph glyph-name="parenright.cap" horiz-adv-x="182" 
d="M14 -227q55 0 72.5 28t17.5 107v1599q0 79 -17.5 106t-72.5 27v21q66 0 88.5 -32.5t22.5 -123.5v-1597q0 -90 -23 -123t-88 -33v21z" />
    <glyph glyph-name="parenleft.inf" horiz-adv-x="102" 
d="M35 465q0 45 11.5 62.5t43.5 17.5v-19q-23 0 -30 -12.5t-7 -48.5v-815q0 -36 8 -48t29 -12v-18q-32 0 -43.5 16.5t-11.5 63.5v813z" />
    <glyph glyph-name="parenright.inf" horiz-adv-x="102" 
d="M12 -410q23 0 30 12.5t7 49.5v813q0 38 -7 49.5t-30 11.5v19q34 0 45 -17t11 -63v-813q0 -48 -10.5 -64t-45.5 -16v18z" />
    <glyph glyph-name="emdash.cap" horiz-adv-x="352" 
d="M311 700h-270v21h270v-21z" />
    <glyph glyph-name="endash.cap" horiz-adv-x="264" 
d="M223 700h-182v21h182v-21z" />
    <glyph glyph-name="figuredash.cap" horiz-adv-x="389" 
d="M348 700h-307v21h307v-21z" />
    <glyph glyph-name="uni2015.cap" horiz-adv-x="307" 
d="M266 700h-225v21h225v-21z" />
    <glyph glyph-name="hyphen.cap" horiz-adv-x="264" 
d="M223 700h-182v21h182v-21z" />
    <glyph glyph-name="guillemotleft.cap" horiz-adv-x="299" 
d="M129 360l-92 340v2l86 363h24l-90 -363l97 -342h-25zM231 360l-92 340v2l86 363h25l-90 -363l96 -342h-25z" />
    <glyph glyph-name="guillemotright.cap" horiz-adv-x="299" 
d="M43 360l96 342l-90 363h25l86 -363v-2l-92 -340h-25zM145 360l97 342l-90 363h24l86 -363v-2l-92 -340h-25z" />
    <glyph glyph-name="guilsinglleft.cap" horiz-adv-x="194" 
d="M129 360l-92 340v2l86 363h24l-90 -363l97 -342h-25z" />
    <glyph glyph-name="guilsinglright.cap" horiz-adv-x="194" 
d="M41 360l96 342l-90 363h25l86 -363v-2l-92 -340h-25z" />
    <glyph glyph-name="periodcentered.smcp" horiz-adv-x="512" 
d="M471 700h-430v21h430v-21z" />
    <glyph glyph-name="space_dotbelowcomb" 
d="M133 -106q-20 0 -20 28q0 31 20 31q19 0 19 -31q0 -28 -19 -28z" />
    <glyph glyph-name="uni00200326" 
d="M106 -176q25 36 25 72q-3 -9 -8 -9q-14 0 -14 27q0 29 18 29q11 0 15.5 -8.5t4.5 -32.5q0 -52 -30 -86z" />
    <glyph glyph-name="uni00200326.alt" 
d="M137 1235q-11 0 -15.5 8.5t-4.5 32.5q0 52 30 86l11 -8q-25 -36 -25 -72q3 8 8 8q15 0 15 -26q0 -29 -19 -29z" />
    <glyph glyph-name="plus.inf" horiz-adv-x="178" 
d="M98 66v-37h-20v37h-37v18h37v37h20v-37h37v-18h-37z" />
    <glyph glyph-name="minus.inf" horiz-adv-x="178" 
d="M41 66v18h94v-18h-94z" />
    <glyph glyph-name="equal.inf" horiz-adv-x="178" 
d="M41 84v18h94v-18h-94zM41 25v18h94v-18h-94z" />
    <glyph glyph-name="at.cap" horiz-adv-x="471" 
d="M240 -100q-193 0 -193 192v1258q0 93 51 142.5t133 49.5q84 0 138.5 -48.5t54.5 -141.5v-1237q0 -42 -16.5 -69.5t-51.5 -27.5q-45 0 -57 62q-13 -68 -66 -68q-42 0 -59.5 26.5t-17.5 90.5v1178q0 71 18.5 98t54.5 27q52 0 64 -58l2 53h16v-1316q0 -32 12.5 -52t32.5 -20
q23 0 35 21.5t12 54.5v1237q0 82 -48.5 126t-123.5 44q-73 0 -118 -45t-45 -127v-1258q0 -172 172 -172q42 0 81.5 15.5t55.5 44.5l16 -11q-49 -69 -153 -69zM233 33q30 0 44 27t14 87v1135q0 70 -12 99.5t-48 29.5q-28 0 -41.5 -22.5t-13.5 -83.5v-1176q0 -53 13.5 -74.5
t43.5 -21.5z" />
    <glyph glyph-name="registered.cap" horiz-adv-x="458" 
d="M227 -8q-82 0 -129 44t-47 136v1092q0 94 47.5 142t128.5 48q83 0 132 -47.5t49 -140.5v-1094q0 -91 -49 -135.5t-132 -44.5zM227 12q75 0 117.5 39t42.5 121v1096q0 82 -43 124t-117 42q-72 0 -113.5 -42.5t-41.5 -125.5v-1096q0 -158 155 -158zM176 696v-590h-20v1231
h53q59 0 79.5 -22.5t20.5 -83.5v-424q0 -46 -11.5 -69.5t-39.5 -30.5q30 -6 39.5 -28t9.5 -73v-459q0 -26 12 -41h-22q-10 13 -10 41v459q0 52 -12 71t-56 19h-43zM176 1317v-600h41q41 0 56.5 21.5t15.5 68.5v424q0 50 -15 68t-65 18h-33z" />
    <glyph glyph-name="bar.cap" horiz-adv-x="137" 
d="M57 -258v2013h23v-2013h-23z" />
    <glyph glyph-name="brokenbar.cap" horiz-adv-x="137" 
d="M57 1755h23v-895h-23v895zM80 -258h-23v920h23v-920z" />
    <glyph glyph-name="Aumlaut" horiz-adv-x="245" 
d="M41 1401q-16 0 -16 26q0 27 18 27q16 0 16 -29q0 -24 -18 -24zM197 1401q-8 0 -13.5 7t-5.5 19q0 27 19 27q16 0 16 -29q0 -24 -16 -24zM180 328h-114l-19 -328h-20l84 1446h20l88 -1446h-20zM66 348h112l-49 826l-8 260l-8 -260z" />
    <glyph glyph-name="Oumlaut" horiz-adv-x="294" 
d="M49 1436q-12 0 -12 18q0 19 12 19t12 -19q0 -18 -12 -18zM248 1436q-6 0 -10.5 5.5t-4.5 12.5q0 19 15 19q10 0 10 -19q0 -18 -10 -18zM147 -8q-92 0 -92 102v1258q0 102 92 102q93 0 93 -102v-1258q0 -102 -93 -102zM147 12q36 0 54 22t18 60v1258q0 38 -18 60t-54 22
q-34 0 -52.5 -22t-18.5 -60v-1258q0 -38 18.5 -60t52.5 -22z" />
    <glyph glyph-name="Uumlaut" horiz-adv-x="284" 
d="M143 -8q-86 0 -86 102v1352h21v-1352q0 -82 65 -82q64 0 64 82v1352h20v-1352q0 -102 -84 -102zM119 1393q-13 0 -13 26q0 27 13 27q12 0 12 -27q0 -26 -12 -26zM170 1393q-14 0 -14 26q0 27 14 27q12 0 12 -27q0 -26 -12 -26z" />
    <glyph glyph-name="cordinal" horiz-adv-x="225" 
d="M113 602q-30 0 -47 18t-17 48v718q0 68 64 68q32 0 48.5 -17.5t16.5 -47.5v-236h-20v233q0 48 -45 48q-43 0 -43 -50v-714q0 -47 43 -47q45 0 45 49v282h20v-284q0 -68 -65 -68z" />
    <glyph glyph-name="caronSlovak" 
d="M143 1350h23l-35 -115h-16z" />
    <glyph glyph-name="altcedilla" 
d="M137 -154q-64 0 -67 58h20q3 -39 47 -39q49 0 49 37q0 30 -51 30h-6v19h8q70 0 70 -49q0 -28 -19.5 -42t-50.5 -14z" />
    <glyph glyph-name="doublegrave" 
d="M55 1339h27l55 -104h-18zM123 1339h27l47 -104h-19z" />
    <glyph glyph-name="invertedbreve" 
d="M135 1323q73 0 76 -88h-21q-2 37 -13.5 52.5t-41.5 15.5q-31 0 -41 -15t-12 -53h-21q3 88 74 88z" />
    <glyph glyph-name="onethirdemdash" horiz-adv-x="264" 
d="M223 588h-182v20h182v-20z" />
    <glyph glyph-name="threequarteremdash" horiz-adv-x="352" 
d="M311 588h-270v20h270v-20z" />
    <glyph glyph-name="onethirdemdash.cap" horiz-adv-x="264" 
d="M223 700h-182v21h182v-21z" />
    <glyph glyph-name="threequarteremdash.cap" horiz-adv-x="317" 
d="M276 700h-235v21h235v-21z" />
    <glyph glyph-name="onesixteenth" horiz-adv-x="452" 
d="M178 815l98 660l25 -5l-115 -659zM63 768v18h37v619q-3 -23 -32 -23v21q19 0 25.5 9t8.5 34h17v-660h35v-18h-91zM389 47q0 -55 -53 -55q-51 0 -51 55v588q0 51 51 51t51 -53v-199h-18v197q0 37 -33 37t-33 -35v-287q11 33 41 33q45 0 45 -53v-279zM162 678l-105 -692
l-24 6l121 690zM186 0v18h37v619q-3 -23 -33 -23v21q20 0 26.5 9.5t8.5 33.5h17v-660h34v-18h-90zM336 10q35 0 35 37v275q0 38 -33 38q-24 0 -35 -34v-279q0 -37 33 -37z" />
    <glyph glyph-name="threesixteenths" horiz-adv-x="452" 
d="M178 815l98 660l25 -5l-115 -659zM102 760q-51 0 -51 53v207h19v-207q0 -35 32 -35q33 0 33 35v252q0 28 -9 36.5t-34 8.5h-8v16h8q41 0 41 70v207q0 33 -31 33q-30 0 -30 -33v-186h-19v186q0 51 49 51q50 0 50 -51v-207q0 -59 -31 -76q33 -3 33 -55v-252q0 -53 -52 -53z
M391 47q0 -55 -53 -55q-51 0 -51 55v588q0 51 51 51t51 -53v-199h-18v197q0 37 -33 37t-33 -35v-287q11 33 41 33q45 0 45 -53v-279zM162 678l-105 -692l-24 6l121 690zM188 0v18h37v619q-3 -23 -32 -23v21q19 0 25.5 9t8.5 34h17v-660h35v-18h-91zM338 10q35 0 35 37v275
q0 38 -33 38q-24 0 -35 -34v-279q0 -37 33 -37z" />
    <glyph glyph-name="fivesixteenths" horiz-adv-x="452" 
d="M178 815l98 660l25 -5l-115 -659zM102 760q-53 0 -53 53v164h19v-164q0 -35 34 -35q33 0 33 35v313q0 37 -31 37q-25 0 -34 -37l-4 -18l-17 4l14 334h84q0 -19 -14 -19h-55q0 -6 -1 -35t-1 -51q-3 -105 -8 -198q14 39 43 39q43 0 43 -54v-315q0 -53 -52 -53zM391 47
q0 -55 -53 -55q-51 0 -51 55v588q0 51 51 51t51 -53v-199h-18v197q0 37 -33 37t-33 -35v-287q11 33 41 33q45 0 45 -53v-279zM162 678l-105 -692l-24 6l121 690zM188 0v18h37v619q-3 -23 -32 -23v21q19 0 25.5 9t8.5 34h17v-660h35v-18h-91zM338 10q35 0 35 37v275
q0 38 -33 38q-24 0 -35 -34v-279q0 -37 33 -37z" />
    <glyph glyph-name="sevensixteenths" horiz-adv-x="452" 
d="M178 815l98 660l25 -5l-115 -659zM78 768q4 41 6 98q20 287 22 314q13 177 29 247h-67v19h86v-12q-8 -29 -17 -103q-9 -81 -26 -317l-15 -246h-18zM391 47q0 -55 -53 -55q-51 0 -51 55v588q0 51 51 51t51 -53v-199h-18v197q0 37 -33 37t-33 -35v-287q11 33 41 33
q45 0 45 -53v-279zM162 678l-105 -692l-24 6l121 690zM188 0v18h37v619q-3 -23 -32 -23v21q19 0 25.5 9t8.5 34h17v-660h35v-18h-91zM338 10q35 0 35 37v275q0 38 -33 38q-24 0 -35 -34v-279q0 -37 33 -37z" />
    <glyph glyph-name="ninesixteenths" horiz-adv-x="452" 
d="M178 815l98 660l25 -5l-115 -659zM102 760q-49 0 -49 55v195h19v-195q0 -37 30 -37q33 0 33 35v285q-10 -31 -41 -31q-45 0 -45 55v277q0 55 53 55q52 0 52 -55v-586q0 -53 -52 -53zM102 1085q29 0 33 35v277q0 39 -33 39q-34 0 -34 -39v-271q0 -41 34 -41zM391 47
q0 -55 -53 -55q-51 0 -51 55v588q0 51 51 51t51 -53v-199h-18v197q0 37 -33 37t-33 -35v-287q11 33 41 33q45 0 45 -53v-279zM162 678l-105 -692l-24 6l121 690zM188 0v18h37v619q-3 -23 -32 -23v21q19 0 25.5 9t8.5 34h17v-660h35v-18h-91zM338 10q35 0 35 37v275
q0 38 -33 38q-24 0 -35 -34v-279q0 -37 33 -37z" />
    <glyph glyph-name="elevensixteenths" horiz-adv-x="573" 
d="M244 815l98 660l25 -5l-115 -659zM10 768v18h37v619q-3 -23 -33 -23v21q20 0 26.5 9.5t8.5 33.5h17v-660h34v-18h-90zM129 768v18h37v619q-3 -23 -33 -23v21q20 0 26.5 9.5t8.5 33.5h16v-660h35v-18h-90zM455 47q0 -55 -54 -55q-51 0 -51 55v588q0 51 51 51q52 0 52 -53
v-199h-19v197q0 37 -33 37q-32 0 -32 -35v-287q11 33 41 33q45 0 45 -53v-279zM227 678l-104 -692l-25 6l121 690zM252 0v18h37v619q-3 -23 -33 -23v21q20 0 26.5 9.5t8.5 33.5h16v-660h35v-18h-90zM401 10q35 0 35 37v275q0 38 -33 38q-23 0 -34 -34v-279q0 -37 32 -37z
" />
    <glyph glyph-name="thirteensixteenths" horiz-adv-x="583" 
d="M244 815l98 660l25 -5l-115 -659zM168 760q-51 0 -51 53v207h18v-207q0 -35 33 -35t33 35v252q0 28 -9 36.5t-34 8.5h-8v16h8q41 0 41 70v207q0 33 -31 33t-31 -33v-186h-18v186q0 51 49 51t49 -51v-207q0 -59 -31 -76q33 -3 33 -55v-252q0 -53 -51 -53zM18 768v18h37
v619q-3 -23 -32 -23v21q19 0 25.5 9t8.5 34h17v-660h35v-18h-91zM455 47q0 -55 -54 -55q-51 0 -51 55v588q0 51 51 51q52 0 52 -53v-199h-19v197q0 37 -33 37q-32 0 -32 -35v-287q11 33 41 33q45 0 45 -53v-279zM227 678l-104 -692l-25 6l121 690zM252 0v18h37v619
q-3 -23 -33 -23v21q20 0 26.5 9.5t8.5 33.5h16v-660h35v-18h-90zM401 10q35 0 35 37v275q0 38 -33 38q-23 0 -34 -34v-279q0 -37 32 -37z" />
    <glyph glyph-name="fifteensixteenths" horiz-adv-x="583" 
d="M244 815l98 660l25 -5l-115 -659zM16 768v18h37v619q-3 -23 -33 -23v21q20 0 26.5 9.5t8.5 33.5h17v-660h34v-18h-90zM168 760q-53 0 -53 53v164h18v-164q0 -35 35 -35q33 0 33 35v313q0 37 -31 37q-26 0 -35 -37l-4 -18l-16 4l14 334h84q0 -19 -14 -19h-56q0 -6 -1 -35
t-1 -51q-3 -105 -8 -198q14 39 43 39q43 0 43 -54v-315q0 -53 -51 -53zM455 47q0 -55 -54 -55q-51 0 -51 55v588q0 51 51 51q52 0 52 -53v-199h-19v197q0 37 -33 37q-32 0 -32 -35v-287q11 33 41 33q45 0 45 -53v-279zM227 678l-104 -692l-25 6l121 690zM252 0v18h37v619
q-3 -23 -33 -23v21q20 0 26.5 9.5t8.5 33.5h16v-660h35v-18h-90zM401 10q35 0 35 37v275q0 38 -33 38q-23 0 -34 -34v-279q0 -37 32 -37z" />
    <glyph glyph-name="mediumblackcircle" horiz-adv-x="1560" 
d="M780 -20q-169 0 -305 77q-137 80 -214 215.5t-77 302.5q0 175 80 306q79 137 214 215t302 78q165 0 303 -78q138 -80 215.5 -214.5t77.5 -306.5q0 -169 -78 -307q-81 -135 -215.5 -211.5t-302.5 -76.5z" />
    <glyph glyph-name="ballotboxwithx" horiz-adv-x="1566" 
d="M207 1153h1153v-1153h-1153v1153zM268 59h1030v1035h-1030v-1035zM795 530l-256 -260l-37 45l252 256l-250 250l39 41l250 -250l247 252l37 -45l-243 -248l251 -254l-38 -38z" />
    <glyph glyph-name="ttfautohint" horiz-adv-x="272" 
 />
    </font>
</defs>
</svg>
