<?xml version="1.0" standalone="no"?>
<!DOCTYPE svg PUBLIC "-//W3C//DTD SVG 1.1//EN" "http://www.w3.org/Graphics/SVG/1.1/DTD/svg11.dtd" >
<svg xmlns="http://www.w3.org/2000/svg" xmlns:xlink="http://www.w3.org/1999/xlink" version="1.1">
<metadata>
Created by FontForge 20201107 at Thu Aug 14 22:38:22 2025
 By 
C 2016 Sharp Type Corporation
</metadata>
<defs>
<font id="SharpGrotesk-Light10" horiz-adv-x="503" >
  <font-face 
    font-family="Sharp Grotesk Light 10"
    font-weight="300"
    font-stretch="condensed"
    units-per-em="2048"
    panose-1="0 0 4 6 0 0 0 0 0 0"
    ascent="1638"
    descent="-410"
    x-height="1171"
    cap-height="1450"
    bbox="-57 -438 1745 1987"
    underline-thickness="102"
    underline-position="-153"
    unicode-range="U+0020-3009"
  />
<missing-glyph horiz-adv-x="124" 
 />
    <glyph glyph-name=".notdef" horiz-adv-x="124" 
 />
    <glyph glyph-name=".null" horiz-adv-x="0" 
 />
    <glyph glyph-name="nonmarkingreturn" horiz-adv-x="682" 
 />
    <glyph glyph-name="space" unicode=" " horiz-adv-x="251" 
 />
    <glyph glyph-name="exclam" unicode="!" horiz-adv-x="335" 
d="M205 1450v-170q0 -42 -1 -173t-1 -214l-6 -424q-1 -51 -2 -104t-1.5 -80t-0.5 -33q-4 4 -23 4q-21 0 -25 -4l-4 217q-2 136 -6 424q0 83 -1 214.5t-1 172.5v170h72zM170 -10q-29 0 -41 17.5t-12 60.5q0 42 13 59.5t40 17.5q29 0 40 -17t11 -60t-11 -60.5t-40 -17.5z" />
    <glyph glyph-name="quotedbl" unicode="&#x22;" horiz-adv-x="350" 
d="M80 987l-6 96q-4 164 -4 240v127h55v-127q0 -72 -2 -115q0 -143 -10 -221h-33zM236 987l-7 96q-1 28 -2.5 80t-2.5 92t-1 68v127h58v-127q0 -72 -2 -115q0 -135 -11 -221h-32z" />
    <glyph glyph-name="numbersign" unicode="#" horiz-adv-x="821" 
d="M479 571h-174l-59 -571h-64l60 571h-189v64h195l26 250h-190v61h197l51 504h63l-51 -504h174l53 504h64l-51 -504h188v-61h-194l-27 -250h190v-64h-196l-60 -571h-65zM512 885h-174l-27 -250h174z" />
    <glyph glyph-name="dollar" unicode="$" horiz-adv-x="501" 
d="M215 -256v246q-145 15 -145 194v385h67v-383q0 -137 113 -137q112 0 112 133v365q0 49 -14 80q-5 8 -10.5 15.5t-13.5 15t-14 12.5t-18.5 13.5t-18.5 13t-22.5 15t-23.5 15.5q-37 22 -59.5 38.5t-46.5 42.5t-35.5 59.5t-11.5 76.5v330q0 80 37 129.5t106 56.5v242h66
v-242q70 -7 105.5 -55.5t37.5 -128.5v-354h-66v350q0 131 -112 131q-107 0 -107 -131v-324q0 -62 32 -97.5t108 -80.5q17 -10 79 -53q35 -29 52.5 -66.5t17.5 -99.5v-371q0 -89 -36.5 -136t-112.5 -54v-246h-66z" />
    <glyph glyph-name="percent" unicode="%" horiz-adv-x="860" 
d="M219 823q-149 0 -149 185v278q0 85 38 130.5t113 45.5q150 0 150 -176v-278q0 -87 -38 -136t-114 -49zM678 1450h61l-553 -1450h-63zM219 881q94 0 94 131v272q0 64 -22.5 94.5t-69.5 30.5q-94 0 -94 -125v-272q0 -131 92 -131zM641 -12q-149 0 -149 184v277
q0 85 37 131.5t112 46.5t112.5 -46.5t37.5 -131.5v-277q0 -87 -37.5 -135.5t-112.5 -48.5zM641 45q92 0 92 131v270q0 127 -92 127q-49 0 -70.5 -32t-21.5 -95v-270q0 -131 92 -131z" />
    <glyph glyph-name="ampersand" unicode="&#x26;" horiz-adv-x="716" 
d="M641 -10q-73 0 -145 90q-77 -90 -197 -90q-115 0 -180.5 74.5t-65.5 230.5v33q0 121 42 231t120 225q-61 241 -61 430v25q0 104 42 163.5t119 59.5q158 0 158 -202v-23q0 -66 -14 -127.5t-46 -126t-56.5 -106t-71.5 -113.5q49 -165 75 -238q66 -190 140 -331
q82 168 82 530v168h63v-168q0 -403 -108 -588q58 -82 108 -82q22 0 49 19v-72q-21 -12 -53 -12zM219 1214q0 -180 45 -370q74 118 110 203.5t36 191.5v23q0 70 -21.5 105.5t-73.5 35.5q-48 0 -72 -43.5t-24 -118.5v-27zM303 53q95 0 158 78q-80 134 -160 371
q-36 100 -63 200q-119 -201 -119 -380v-23q0 -122 51.5 -184t132.5 -62z" />
    <glyph glyph-name="quotesingle" unicode="'" horiz-adv-x="194" 
d="M82 987q-6 69 -6 96q-6 82 -6 240v127h55v-127q0 -72 -2 -115q0 -143 -10 -221h-31z" />
    <glyph glyph-name="parenleft" unicode="(" horiz-adv-x="344" 
d="M94 1190q0 120 21 184q19 67 69 96t142 29v-63q-69 0 -105 -23q-34 -19 -46.5 -70t-12.5 -151v-1241q0 -143 32 -193.5t132 -50.5v-67q-91 0 -142 28q-50 29 -70 94.5t-20 188.5v1239z" />
    <glyph glyph-name="parenright" unicode=")" horiz-adv-x="344" 
d="M18 -293q101 0 133.5 50.5t32.5 193.5v1241q0 94 -12 147q-13 54 -48 75.5t-106 21.5v63q89 0 142 -29q51 -29 71.5 -93t20.5 -187v-1239q0 -123 -21 -187q-19 -67 -68 -95.5t-145 -28.5v67z" />
    <glyph glyph-name="asterisk" unicode="*" horiz-adv-x="448" 
d="M233 1257l25 -172h-65l24 172l-139 -106l-31 53l162 68l-162 63l31 58l139 -107l-24 172h65l-25 -172l138 107l30 -56l-161 -65l161 -66l-30 -55z" />
    <glyph glyph-name="plus" unicode="+" horiz-adv-x="610" 
d="M330 682v-160h-60v160h-164v61h164v162h60v-162h166v-61h-166z" />
    <glyph glyph-name="comma" unicode="," horiz-adv-x="335" 
d="M113 -139q55 52 63 139q-8 -10 -18 -10q-41 0 -41 73q0 44 11.5 63t37.5 19q32 0 44.5 -21t12.5 -85q0 -149 -96 -219z" />
    <glyph glyph-name="hyphen" unicode="-" horiz-adv-x="473" 
d="M420 561h-363v66h363v-66z" />
    <glyph glyph-name="period" unicode="." horiz-adv-x="335" 
d="M170 -8q-29 0 -41 17t-12 61q0 41 13 58t40 17q29 0 40 -16t11 -59q0 -44 -11 -61t-40 -17z" />
    <glyph glyph-name="slash" unicode="/" horiz-adv-x="430" 
d="M63 0l236 1450h68l-236 -1450h-68z" />
    <glyph glyph-name="zero" unicode="0" horiz-adv-x="548" 
d="M274 -12q-90 0 -141 53.5t-51 153.5v1060q0 97 50.5 152t141.5 55q92 0 142.5 -55t50.5 -152v-1060q0 -100 -50.5 -153.5t-142.5 -53.5zM274 51q125 0 125 148v1056q0 69 -30.5 108.5t-94.5 39.5q-62 0 -93 -39.5t-31 -108.5v-1056q0 -69 31 -108.5t93 -39.5z" />
    <glyph glyph-name="one" unicode="1" horiz-adv-x="393" 
d="M33 0v66h129v1210q-33 -56 -113 -59v57q68 1 92 38.5t37 141.5h53v-1388h129v-66h-327z" />
    <glyph glyph-name="two" unicode="2" horiz-adv-x="528" 
d="M76 0v190q0 83 26.5 167t55.5 135.5t80 130.5q51 80 76 123t49 114t24 139v261q0 143 -119 143q-118 0 -118 -146v-342h-70v340q0 97 49.5 152t138.5 55q90 0 138.5 -54.5t48.5 -150.5v-258q0 -58 -11.5 -111.5t-38 -108.5t-46 -89.5t-58.5 -95.5q-52 -78 -79 -125
t-52 -123t-25 -151v-125h320v-70h-389z" />
    <glyph glyph-name="three" unicode="3" horiz-adv-x="544" 
d="M270 -12q-92 0 -143 53.5t-51 153.5v364h67v-362q0 -69 32 -107.5t95 -38.5q127 0 127 146v358q0 85 -34.5 126.5t-112.5 41.5h-45v68h43q141 0 141 174v295q0 143 -119 143q-118 0 -118 -143v-310h-68v310q0 96 48.5 149t137.5 53q90 0 138.5 -52.5t48.5 -149.5v-299
q0 -167 -113 -203q121 -27 121 -199v-364q0 -98 -52 -152.5t-143 -54.5z" />
    <glyph glyph-name="four" unicode="4" horiz-adv-x="507" 
d="M496 348h-111v-348h-63v348h-285v55l282 1047h66v-1036h111v-66zM293 1124l-191 -710h220v702l16 223z" />
    <glyph glyph-name="five" unicode="5" horiz-adv-x="530" 
d="M264 -12q-91 0 -141.5 53.5t-50.5 151.5v344h67v-336q0 -69 30.5 -108.5t92.5 -39.5q123 0 123 148v594q0 155 -102 155q-45 0 -79 -41t-54 -110l-23 -72l-53 16l49 707h340v-6q0 -38 -16 -50t-70 -12h-197q0 -5 -4.5 -55.5t-5.5 -85.5q-20 -305 -25 -369q41 144 152 144
q158 0 158 -207v-616q0 -98 -50 -151.5t-141 -53.5z" />
    <glyph glyph-name="six" unicode="6" horiz-adv-x="538" 
d="M471 197q0 -100 -51.5 -154.5t-143.5 -54.5t-143 53.5t-51 155.5v1056q0 98 50.5 153.5t141.5 55.5q94 0 143.5 -55.5t49.5 -153.5v-303h-70v305q0 69 -30.5 108.5t-92.5 39.5t-93 -39.5t-31 -108.5v-522q40 111 151 111q85 0 127.5 -54t42.5 -153v-440zM276 51
q63 0 94 39t31 107v430q0 155 -116 155q-49 0 -87 -39t-48 -110v-436q0 -67 32 -106.5t94 -39.5z" />
    <glyph glyph-name="seven" unicode="7" horiz-adv-x="438" 
d="M86 0q59 697 240 1382h-289v68h356v-59q-176 -689 -237 -1391h-70z" />
    <glyph glyph-name="eight" unicode="8" horiz-adv-x="540" 
d="M272 -12q-95 0 -146.5 54t-51.5 153v399q0 67 28 115.5t78 68.5q-98 37 -98 178v301q0 95 48.5 150t141.5 55q91 0 140 -55.5t49 -149.5v-301q0 -141 -101 -180q52 -20 79.5 -67.5t27.5 -114.5v-399q0 -98 -51.5 -152.5t-143.5 -54.5zM272 807q121 0 121 149v301
q0 146 -121 146q-62 0 -93.5 -39.5t-31.5 -106.5v-301q0 -69 31 -109t94 -40zM272 51q64 0 95.5 39t31.5 109v397q0 68 -32 110t-95 42t-96 -42t-33 -110v-397q0 -68 32.5 -108t96.5 -40z" />
    <glyph glyph-name="nine" unicode="9" horiz-adv-x="538" 
d="M264 -12q-91 0 -138.5 53t-47.5 154v335h67v-331q0 -148 119 -148q63 0 94 39t31 109v561q-38 -109 -141 -109q-89 0 -133.5 53t-44.5 150v397q0 98 50.5 154.5t141.5 56.5q94 0 144.5 -56t50.5 -155v-1056q0 -101 -51 -154t-142 -53zM260 713q52 0 87 38.5t42 112.5v391
q0 69 -31.5 108.5t-93.5 39.5q-63 0 -95 -40t-32 -108v-389q0 -153 123 -153z" />
    <glyph glyph-name="colon" unicode=":" horiz-adv-x="335" 
d="M170 725q-29 0 -41 17.5t-12 60.5q0 78 53 78q29 0 40 -17.5t11 -60.5t-11 -60.5t-40 -17.5zM170 92q-29 0 -41 17.5t-12 60.5q0 78 53 78q29 0 40 -17.5t11 -60.5t-11 -60.5t-40 -17.5z" />
    <glyph glyph-name="semicolon" unicode=";" horiz-adv-x="335" 
d="M170 725q-29 0 -41 17.5t-12 60.5q0 78 53 78q29 0 40 -17.5t11 -60.5t-11 -60.5t-40 -17.5zM113 -139q55 52 63 139q-8 -10 -18 -10q-41 0 -41 73q0 44 11.5 63t37.5 19q32 0 44.5 -21t12.5 -85q0 -149 -96 -219z" />
    <glyph glyph-name="less" unicode="&#x3c;" horiz-adv-x="606" 
d="M102 713v53l383 174v-70l-303 -131l303 -133v-71z" />
    <glyph glyph-name="equal" unicode="=" horiz-adv-x="606" 
d="M109 809v61h380v-61h-380zM109 578v63h380v-63h-380z" />
    <glyph glyph-name="greater" unicode="&#x3e;" horiz-adv-x="606" 
d="M119 606l301 133l-301 131v70l383 -174v-53l-383 -178v71z" />
    <glyph glyph-name="question" unicode="?" horiz-adv-x="561" 
d="M311 264q-4 4 -32 4q-31 0 -35 -4v123q0 110 14 176q15 90 76 219q25 50 36.5 77.5t22 76t10.5 104.5v217q0 146 -118 146q-119 0 -119 -146v-356h-68v359q0 94 49 148t138 54t137.5 -54t48.5 -148v-220q0 -63 -12.5 -119.5t-24.5 -85t-39 -83.5q-27 -57 -41.5 -93.5
t-28.5 -110t-14 -161.5v-123zM279 -10q-27 0 -39.5 18t-12.5 60q0 77 54 77q29 0 40 -17t11 -60t-12 -60.5t-41 -17.5z" />
    <glyph glyph-name="at" unicode="@" horiz-adv-x="892" 
d="M449 -209q-187 0 -284 97.5t-97 289.5v873q0 185 101.5 287t268.5 102q106 0 197 -43q188 -90 188 -340v-842q0 -188 -141 -188q-96 0 -123 110q-21 -123 -125 -123q-79 0 -115 51.5t-36 170.5v749q0 131 36.5 182.5t106.5 51.5q53 0 82 -26t41 -81l6 96h47v-995
q0 -60 21 -95.5t59 -35.5q42 0 61 38t19 99v840q0 154 -89.5 237.5t-234.5 83.5q-141 0 -224 -85.5t-83 -241.5v-875q0 -325 320 -325q80 0 145 27.5t96 80.5l62 -31q-98 -139 -305 -139zM442 70q99 0 99 202v666q0 120 -20.5 173.5t-82.5 53.5q-47 0 -69.5 -42t-22.5 -148
v-731q0 -96 22 -135t74 -39z" />
    <glyph glyph-name="A" unicode="A" horiz-adv-x="458" 
d="M330 287h-205l-29 -287h-67l161 1450h68l172 -1450h-70zM133 348h189l-82 746l-15 299l-16 -299z" />
    <glyph glyph-name="B" unicode="B" horiz-adv-x="524" 
d="M84 0v1450h141q120 0 173 -46t53 -159v-297q0 -82 -27 -126.5t-84 -63.5q60 -14 88.5 -59.5t28.5 -129.5v-360q0 -114 -48 -161.5t-163 -47.5h-162zM152 1393v-607h86q145 0 145 162v291q0 85 -36.5 119.5t-127.5 34.5h-67zM152 727v-666h88q85 0 116 32.5t31 121.5v354
q0 84 -34 121t-113 37h-88z" />
    <glyph glyph-name="C" unicode="C" horiz-adv-x="530" 
d="M268 -12q-186 0 -186 207v1060q0 99 49 153t139 54q89 0 136 -50.5t49 -143.5v-373h-68v371q-3 137 -119 137q-118 0 -118 -150v-1054q0 -148 118 -148q116 0 119 137v420h68v-424q-3 -196 -187 -196z" />
    <glyph glyph-name="D" unicode="D" horiz-adv-x="542" 
d="M86 1450h139q121 0 178.5 -52t57.5 -177v-994q0 -123 -61 -175t-183 -52h-131v1450zM154 1389v-1326h63q90 0 133 38t43 130v990q0 92 -42 130t-130 38h-67z" />
    <glyph glyph-name="E" unicode="E" horiz-adv-x="421" 
d="M383 0h-297v1450h291v-64h-223v-628h206v-66h-206v-626h229v-66z" />
    <glyph glyph-name="F" unicode="F" horiz-adv-x="389" 
d="M154 684v-684h-68v1450h276v-64h-208v-638h194v-64h-194z" />
    <glyph glyph-name="G" unicode="G" horiz-adv-x="536" 
d="M408 160q-17 -172 -156 -172q-170 0 -170 205v1062q0 97 50 152t140 55t138.5 -54.5t48.5 -152.5v-337h-68v335q0 150 -119 150q-62 0 -92 -40.5t-30 -109.5v-1054q0 -71 25.5 -109.5t86.5 -38.5q58 0 84 33q45 55 45 195v387h-125v63h191v-729h-37z" />
    <glyph glyph-name="H" unicode="H" horiz-adv-x="542" 
d="M389 686h-235v-686h-68v1450h68v-698h235v698h68v-1450h-68v686z" />
    <glyph glyph-name="I" unicode="I" horiz-adv-x="323" 
d="M27 0v63h102v1326h-102v61h270v-61h-100v-1326h100v-63h-270z" />
    <glyph glyph-name="J" unicode="J" horiz-adv-x="483" 
d="M233 -12q-92 0 -131 51t-39 156v380h68v-376q0 -74 21 -110t81 -36t81.5 36t21.5 110v1251h67v-1255q0 -104 -40.5 -155.5t-129.5 -51.5z" />
    <glyph glyph-name="K" unicode="K" horiz-adv-x="516" 
d="M258 860l-104 -311v-549h-68v1450h68v-651l-15 -189l37 146l232 694h65l-178 -528l199 -922h-70l-150 729z" />
    <glyph glyph-name="L" unicode="L" horiz-adv-x="393" 
d="M86 0v1450h68v-1384h213v-66h-281z" />
    <glyph glyph-name="M" unicode="M" horiz-adv-x="659" 
d="M152 0h-66v1450h61l175 -750l12 -59l10 59l168 750h59v-1450h-63v885l29 506l-48 -273l-145 -641h-22l-152 641l-43 242l25 -475v-885z" />
    <glyph glyph-name="N" unicode="N" horiz-adv-x="593" 
d="M150 0h-64v1450h57l256 -1020l64 -303l-21 379v944h64v-1450h-55l-261 1038l-61 287l21 -369v-956z" />
    <glyph glyph-name="O" unicode="O" horiz-adv-x="548" 
d="M274 -12q-90 0 -141 53.5t-51 153.5v1060q0 97 50.5 152t141.5 55q92 0 142.5 -55t50.5 -152v-1060q0 -100 -50.5 -153.5t-142.5 -53.5zM274 51q125 0 125 148v1056q0 69 -30.5 108.5t-94.5 39.5q-62 0 -93 -39.5t-31 -108.5v-1056q0 -69 31 -108.5t93 -39.5z" />
    <glyph glyph-name="P" unicode="P" horiz-adv-x="512" 
d="M154 461v-461h-68v1450h152q115 0 163 -49.5t48 -165.5v-545q0 -116 -52 -172.5t-159 -56.5h-84zM154 1391v-867h77q78 0 114 41.5t36 126.5v541q0 90 -32 124t-116 34h-79z" />
    <glyph glyph-name="Q" unicode="Q" horiz-adv-x="546" 
d="M381 -158l-66 150q-20 -4 -41 -4q-90 0 -141 53.5t-51 153.5v1060q0 97 50.5 152t141.5 55q92 0 142.5 -55t50.5 -152v-1060q0 -142 -96 -187l92 -166h-82zM274 51q125 0 125 148v1056q0 69 -30.5 108.5t-94.5 39.5q-62 0 -93 -39.5t-31 -108.5v-1056q0 -69 31 -108.5
t93 -39.5z" />
    <glyph glyph-name="R" unicode="R" horiz-adv-x="524" 
d="M154 672v-672h-68v1450h141q119 0 171.5 -47t52.5 -162v-346q0 -82 -26 -126.5t-81 -63.5q58 -13 81.5 -57t23.5 -132v-434q0 -55 24 -82h-74q-18 29 -18 82v430q0 88 -28.5 124t-108.5 36h-90zM154 1393v-660h86q145 0 145 162v342q0 87 -36 121.5t-126 34.5h-69z" />
    <glyph glyph-name="S" unicode="S" horiz-adv-x="499" 
d="M250 -12q-180 0 -180 196v385h67v-381q0 -137 113 -137q61 0 86.5 34t25.5 97v367q0 66 -25 96.5t-95 72.5l-15 9q-38 24 -59.5 40t-45.5 42t-35 59.5t-11 77.5v328q0 89 43.5 138.5t130.5 49.5q173 0 176 -186v-354h-66v348q0 133 -110 133q-109 0 -109 -131v-322
q0 -34 8 -58.5t32 -47.5t40 -34.5t60 -39.5q17 -10 79 -53q35 -27 52.5 -64.5t17.5 -99.5v-373q0 -192 -180 -192z" />
    <glyph glyph-name="T" unicode="T" horiz-adv-x="380" 
d="M223 1386v-1386h-67v1386h-140v64h346v-64h-139z" />
    <glyph glyph-name="U" unicode="U" horiz-adv-x="530" 
d="M264 -12q-178 0 -178 205v1257h68v-1253q0 -146 110 -146q113 0 113 146v1253h67v-1257q0 -205 -180 -205z" />
    <glyph glyph-name="V" unicode="V" horiz-adv-x="462" 
d="M199 0l-168 1450h65l117 -1063l20 -313l19 317l115 1059h67l-166 -1450h-69z" />
    <glyph glyph-name="W" unicode="W" horiz-adv-x="714" 
d="M209 0h-62l-98 1450h66l65 -1114l4 -217l19 213l135 1118h45l127 -1114l16 -217l6 225l70 1106h64l-103 -1450h-61l-133 1133l-9 213l-10 -213z" />
    <glyph glyph-name="X" unicode="X" horiz-adv-x="464" 
d="M84 0h-68l174 774l-149 676h65l99 -459l22 -166l25 166l96 459h66l-152 -674l187 -776h-68l-121 530l-33 195l-30 -195z" />
    <glyph glyph-name="Y" unicode="Y" horiz-adv-x="454" 
d="M193 0v512l-164 938h67l107 -629l24 -231l25 231l104 629h68l-164 -938v-512h-67z" />
    <glyph glyph-name="Z" unicode="Z" horiz-adv-x="421" 
d="M33 0v57l276 1327h-258v66h326v-55l-273 -1329h277v-66h-348z" />
    <glyph glyph-name="bracketleft" unicode="[" horiz-adv-x="344" 
d="M326 -356h-232v1851h232v-65h-164v-1721h164v-65z" />
    <glyph glyph-name="backslash" unicode="\" horiz-adv-x="430" 
d="M133 1450l229 -1450h-69l-230 1450h70z" />
    <glyph glyph-name="bracketright" unicode="]" horiz-adv-x="344" 
d="M18 -356v65h166v1721h-166v65h234v-1851h-234z" />
    <glyph glyph-name="asciicircum" unicode="^" horiz-adv-x="532" 
d="M264 1372l-114 -323h-66l156 401h51l155 -401h-65z" />
    <glyph glyph-name="uni005F" unicode="_" horiz-adv-x="415" 
d="M385 -145h-354v61h354v-61z" />
    <glyph glyph-name="grave" unicode="`" horiz-adv-x="505" 
d="M125 1491h70l100 -213h-51z" />
    <glyph glyph-name="a" unicode="a" horiz-adv-x="505" 
d="M371 141q-13 -75 -54 -114t-98 -39q-83 0 -118 50.5t-35 170.5v180q0 124 53 180q14 16 36.5 30.5t36 20.5t44.5 19q73 31 92 47q37 30 37 84v221q0 131 -113 131t-113 -135v-244h-65v248q2 89 46.5 140t131.5 51q88 0 133 -50t45 -139v-993h-51zM231 51q60 0 97 53.5
t37 137.5v417q-8 -16 -26.5 -29.5t-32.5 -20t-42 -17.5q-64 -26 -92 -60q-39 -42 -39 -143v-168q0 -90 23.5 -130t74.5 -40z" />
    <glyph glyph-name="b" unicode="b" horiz-adv-x="526" 
d="M281 -12q-108 0 -142 127l-6 -115h-51v1499h65v-444q27 127 138 127q86 0 125 -63t39 -197v-666q0 -149 -42 -208.5t-126 -59.5zM270 47q57 0 85 49.5t28 167.5v660q0 102 -27.5 150t-85.5 48q-64 0 -93.5 -57t-29.5 -150v-653q0 -215 123 -215z" />
    <glyph glyph-name="c" unicode="c" horiz-adv-x="507" 
d="M256 -12q-86 0 -134 49t-48 149v795q0 100 49.5 150.5t132.5 50.5q85 0 132 -48t48 -143v-295h-67v293q-3 133 -113 133q-57 0 -86 -37.5t-29 -105.5v-791q0 -63 29.5 -101t85.5 -38q110 0 113 131v332h67v-334q-1 -94 -49.5 -142t-130.5 -48z" />
    <glyph glyph-name="d" unicode="d" horiz-adv-x="522" 
d="M383 127q-28 -139 -143 -139q-84 0 -125 59t-41 209v666q0 260 168 260q106 0 133 -119v436h67v-1499h-51zM252 47q123 0 123 213v658q0 204 -121 204q-59 0 -86 -48t-27 -150v-660q0 -217 111 -217z" />
    <glyph glyph-name="e" unicode="e" horiz-adv-x="507" 
d="M436 178q0 -94 -48.5 -142t-131.5 -48q-182 0 -182 202v787q0 205 182 205q180 0 180 -205v-395h-295v-389q0 -67 28.5 -105.5t86.5 -38.5q57 0 85 36.5t28 94.5v289h67v-291zM141 641h228v336q0 145 -113 145q-115 0 -115 -145v-336z" />
    <glyph glyph-name="f" unicode="f" horiz-adv-x="288" 
d="M162 1110v-1110h-66v1110h-90v61h90v99q0 131 35 180t123 49h27v-59h-19q-61 0 -80.5 -33t-19.5 -139v-97h119v-61h-119z" />
    <glyph glyph-name="g" unicode="g" 
d="M227 -262q-182 0 -182 129q0 45 36 80t93 55q-59 7 -85 32t-26 70q0 38 30 69t83 44q-102 29 -102 162v610q0 138 108 178q25 9 58 13q73 11 101 39.5t28 95.5v45h63v-41q0 -77 -30 -110.5t-97 -41.5q6 -1 16.5 -4t12.5 -4q96 -33 96 -170v-612q0 -92 -47.5 -138
t-128.5 -46h-6q-62 0 -92.5 -21t-30.5 -55q0 -35 30 -47.5t99 -12.5h49q97 0 137.5 -35t40.5 -98v-8q0 -77 -67.5 -127.5t-175.5 -50.5h-11zM250 250q58 0 86.5 34t28.5 95v612q-2 60 -30.5 94.5t-82.5 34.5q-26 0 -45 -8q-66 -28 -66 -121v-612q0 -60 27.5 -94.5
t81.5 -34.5zM242 -203q72 0 123 34t51 83v8q0 39 -28.5 57.5t-94.5 18.5q-73 -2 -127.5 -31.5t-54.5 -81.5v-2q0 -86 120 -86h11z" />
    <glyph glyph-name="h" unicode="h" horiz-adv-x="514" 
d="M145 0h-65v1499h65v-432q37 115 134 115q86 0 121.5 -55t35.5 -185v-942h-67v944q0 99 -24 137.5t-79 38.5q-67 0 -94 -57.5t-27 -167.5v-895z" />
    <glyph glyph-name="i" unicode="i" horiz-adv-x="229" 
d="M115 1284q-45 0 -45 72q0 38 10.5 53.5t36.5 15.5q25 0 35 -15.5t10 -53.5q0 -72 -47 -72zM82 1176q15 -5 33 -5q17 0 32 5v-1176h-65v1176z" />
    <glyph glyph-name="j" unicode="j" horiz-adv-x="231" 
d="M117 1284q-26 0 -35.5 16.5t-9.5 55.5q0 38 10.5 53.5t36.5 15.5q25 0 34 -15t9 -54q0 -72 -45 -72zM-23 -166h39q37 0 51.5 22.5t14.5 69.5v1250q28 -7 35 -7q5 0 33 7v-1252q0 -82 -29 -119.5t-101 -37.5h-43v67z" />
    <glyph glyph-name="k" unicode="k" horiz-adv-x="475" 
d="M244 702l-99 -268v-434h-65v1499h65v-833l-8 -162l29 110l209 557h65l-155 -417l176 -754h-68l-133 586z" />
    <glyph glyph-name="l" unicode="l" horiz-adv-x="229" 
d="M82 0v1499h65v-1499h-65z" />
    <glyph glyph-name="m" unicode="m" horiz-adv-x="755" 
d="M147 0h-67v1171h51l6 -114q26 125 129 125q64 0 93.5 -33.5t37.5 -104.5q26 138 135 138q78 0 112 -55.5t34 -182.5v-944h-68v944q0 101 -20 139.5t-72 38.5q-42 0 -67 -28q-39 -49 -39 -148v-946h-66v946q0 98 -20.5 137t-73.5 39q-33 0 -54.5 -16t-32 -49t-14.5 -72
t-4 -96v-889z" />
    <glyph glyph-name="n" unicode="n" horiz-adv-x="512" 
d="M145 0h-65v1171h51l8 -129q34 140 142 140q84 0 119.5 -55t35.5 -183v-944h-67v944q0 97 -23.5 137.5t-77.5 40.5q-123 0 -123 -225v-897z" />
    <glyph glyph-name="o" unicode="o" horiz-adv-x="512" 
d="M256 -12q-182 0 -182 202v789q0 99 49.5 151t132.5 52q85 0 133.5 -52t48.5 -151v-789q0 -99 -48.5 -150.5t-133.5 -51.5zM256 49q58 0 86.5 38.5t28.5 105.5v786q0 67 -28.5 105t-86.5 38q-57 0 -86 -37.5t-29 -105.5v-786q0 -67 29 -105.5t86 -38.5z" />
    <glyph glyph-name="p" unicode="p" horiz-adv-x="518" 
d="M272 -12q-100 0 -127 112v-497h-65v1568h49l8 -127q36 138 144 138q83 0 123 -58.5t40 -208.5v-663q0 -138 -41.5 -201t-130.5 -63zM262 51q60 0 87.5 48t27.5 155v653q0 119 -26.5 167t-82.5 48q-123 0 -123 -229v-641q0 -201 117 -201z" />
    <glyph glyph-name="q" unicode="q" horiz-adv-x="522" 
d="M375 -373v492q-13 -69 -45 -100t-86 -31q-86 0 -128 64t-42 200v663q0 148 43 207.5t123 59.5q116 0 143 -129l6 118h51v-1544h-65zM256 47q53 0 86 51.5t33 153.5v641q0 116 -27.5 172.5t-95.5 56.5q-111 0 -111 -204v-674q0 -197 115 -197z" />
    <glyph glyph-name="r" unicode="r" horiz-adv-x="319" 
d="M80 0v1171h51l10 -151q11 80 46.5 115.5t111.5 35.5h10v-73h-18q-87 0 -116.5 -51t-29.5 -183v-864h-65z" />
    <glyph glyph-name="s" unicode="s" horiz-adv-x="477" 
d="M238 -12q-85 0 -128 46t-44 146v258h67v-256q3 -133 105 -133q106 0 106 129v221q0 37 -9 65.5t-30.5 50t-39.5 34t-52 31.5q-35 22 -52.5 35.5t-42.5 40t-36.5 62t-11.5 81.5v194q0 95 44 142t124 47q165 0 168 -191v-227h-66v227q-2 64 -24.5 97.5t-77.5 33.5
q-56 0 -78.5 -32.5t-22.5 -96.5v-192q0 -28 7.5 -51.5t15 -38t28.5 -32t30.5 -24t36.5 -23.5q7 -5 11 -7q27 -16 43.5 -27t38.5 -31.5t34 -41.5t21 -52.5t9 -69.5v-227q0 -96 -42.5 -142t-131.5 -46z" />
    <glyph glyph-name="t" unicode="t" horiz-adv-x="317" 
d="M299 0h-29q-64 0 -104 16q-35 13 -48.5 60.5t-13.5 144.5v889h-84v53q38 0 56 6q23 4 28.5 13.5t10.5 42.5q8 41 8 137h47v-191h129v-61h-129v-883q0 -75 8 -108q6 -34 29.5 -46t75.5 -12h16v-61z" />
    <glyph glyph-name="u" unicode="u" horiz-adv-x="499" 
d="M362 117q-27 -127 -129 -127q-85 0 -121 55t-36 184v942h67v-944q0 -98 25 -138t78 -40q58 0 83 53t25 174v895h66v-1171h-49z" />
    <glyph glyph-name="v" unicode="v" horiz-adv-x="438" 
d="M193 0l-158 1171h67l107 -837l16 -254l15 254l100 837h66l-148 -1171h-65z" />
    <glyph glyph-name="w" unicode="w" horiz-adv-x="679" 
d="M207 0h-60l-112 1171h61l78 -862l8 -203l19 203l118 862h41l119 -862l17 -203l10 203l78 862h61l-117 -1171h-57l-117 846l-14 209l-14 -209z" />
    <glyph glyph-name="x" unicode="x" horiz-adv-x="454" 
d="M82 0h-70l174 623l-151 548h65l88 -329l35 -183l35 181l90 331h64l-152 -550l182 -621h-67l-113 391l-39 180l-37 -180z" />
    <glyph glyph-name="y" unicode="y" horiz-adv-x="440" 
d="M61 -219v65h37q44 0 66 21t26 78l11 84l-168 1142h67l113 -817l20 -254l13 254l94 817h66l-150 -1230q-11 -91 -43.5 -125.5t-108.5 -34.5h-43z" />
    <glyph glyph-name="z" unicode="z" horiz-adv-x="399" 
d="M37 0v49l262 1059h-252v63h315v-61l-256 -1044h263v-66h-332z" />
    <glyph glyph-name="braceleft" unicode="{" horiz-adv-x="348" 
d="M311 -360q-114 0 -166.5 56t-52.5 173q0 68 17 180q51 263 51 338q0 96 -28 134t-95 38h-4v72h4q67 0 95 33t28 118q0 52 -17 146q-3 21 -18.5 103.5t-22 135.5t-6.5 103q0 119 48 174t165 55h21v-59h-8q-85 0 -122.5 -42t-37.5 -132q0 -72 16 -166q3 -14 13.5 -68
t14 -74.5t10 -59.5t9 -67t2.5 -53q0 -90 -32 -136t-86 -46v-4q55 0 86.5 -50t31.5 -151q0 -57 -16 -158q-53 -257 -53 -360q0 -89 39 -129.5t125 -40.5h8v-63h-19z" />
    <glyph glyph-name="bar" unicode="|" horiz-adv-x="237" 
d="M86 -213v1907h66v-1907h-66z" />
    <glyph glyph-name="braceright" unicode="}" horiz-adv-x="348" 
d="M18 -297h9q88 0 124.5 39.5t36.5 130.5q0 68 -16 174q-3 15 -11.5 61.5t-12 65.5t-9.5 57t-8.5 60t-5 49.5t-2.5 48.5q0 100 32 150.5t85 50.5v4q-53 2 -85 48.5t-32 135.5q0 59 16 150q49 241 49 338q0 91 -36.5 132.5t-124.5 41.5h-9v59h21q117 0 165 -55t48 -174
q0 -78 -16 -172q-6 -41 -19.5 -110.5t-21 -119.5t-7.5 -88q0 -84 28.5 -117.5t94.5 -33.5h6v-72h-6q-66 0 -94.5 -38.5t-28.5 -133.5q0 -52 17 -152q49 -254 49 -364q0 -117 -50.5 -173t-164.5 -56h-21v63z" />
    <glyph glyph-name="asciitilde" unicode="~" horiz-adv-x="526" 
d="M82 1223q0 78 21.5 112.5t70.5 34.5q45 0 72 -24q14 -11 34.5 -31t35 -30.5t28.5 -10.5q26 0 36.5 20t10.5 74h55q0 -149 -100 -149q-45 0 -72 24q-11 9 -33 31t-36 31.5t-29 9.5q-24 0 -31.5 -18.5t-7.5 -73.5h-55z" />
    <glyph glyph-name="uni00A0" unicode="&#xa0;" horiz-adv-x="251" 
 />
    <glyph glyph-name="exclamdown" unicode="&#xa1;" horiz-adv-x="335" 
d="M170 1200q29 0 40 -17.5t11 -60.5q0 -44 -11 -61t-40 -17t-41 17t-12 61q0 78 53 78zM133 -260v172q0 41 1 172.5t1 214.5l6 422q1 52 2 105l1.5 79.5t0.5 30.5l25 -2q4 0 14 1t11 1q0 -1 0.5 -30.5t1 -81t0.5 -105.5l6 -422q0 -83 1 -213.5t1 -171.5v-172h-72z" />
    <glyph glyph-name="cent" unicode="&#xa2;" horiz-adv-x="509" 
d="M436 178q-3 -172 -149 -188v-246h-66v246q-70 8 -108.5 57t-38.5 139v797q0 90 40.5 140.5t108.5 58.5v243h66v-243q67 -8 106.5 -57t40.5 -134v-295h-67v295q-3 133 -113 133q-57 0 -86 -37.5t-29 -105.5v-793q0 -63 29.5 -101t85.5 -38q110 0 113 131v332h67v-334z" />
    <glyph glyph-name="sterling" unicode="&#xa3;" horiz-adv-x="661" 
d="M457 -25q-46 0 -84 23t-84 65q-43 -88 -142 -88q-129 0 -129 117q0 57 36 91t87 34q63 0 123 -53q6 27 6 88q0 139 -47 360h-145v60h131q-3 16 -14 69t-15.5 76t-13.5 71t-13 79.5t-9 75.5t-7 85.5t-2 83.5q0 250 187 250q102 0 144 -72t42 -229v-102h-68v102
q0 132 -24.5 187t-93.5 55q-119 0 -119 -191q0 -35 2 -73t4 -67.5t8 -71t9 -65t11.5 -69.5t11.5 -63t13 -68t12 -63h175v-60h-166q45 -229 45 -362q0 -68 -15 -127q39 -38 71 -58t67 -20q49 0 67.5 39.5t18.5 153.5v135h65v-144q0 -142 -31 -198t-114 -56zM152 31
q69 0 96 71q-64 60 -107 60q-26 0 -44.5 -19.5t-18.5 -48.5q0 -63 74 -63z" />
    <glyph glyph-name="currency" unicode="&#xa4;" horiz-adv-x="468" 
d="M319 547q-36 -25 -86 -25t-86 25l-71 -96l-39 32l76 103q-17 39 -17 76v139q0 43 23 84l-70 94l37 35l68 -92q32 22 79 22q48 0 80 -22l66 94l39 -29l-70 -100q23 -36 23 -82v-139q0 -47 -19 -78l76 -103l-37 -34zM233 575q40 0 61 25.5t21 65.5v137q0 39 -20.5 63.5
t-61.5 24.5q-38 0 -58.5 -24t-20.5 -66v-137q0 -39 20 -64t59 -25z" />
    <glyph glyph-name="yen" unicode="&#xa5;" horiz-adv-x="454" 
d="M260 311v-311h-67v311h-156v60h156v125h-156v57h156v12l-164 885h69l105 -602l24 -211l27 211l102 602h70l-166 -887v-10h158v-57h-158v-125h158v-60h-158z" />
    <glyph glyph-name="brokenbar" unicode="&#xa6;" horiz-adv-x="237" 
d="M86 1694h66v-850h-66v850zM152 664v-877h-66v877h66z" />
    <glyph glyph-name="section" unicode="&#xa7;" horiz-adv-x="552" 
d="M276 -12q-85 0 -128 46t-44 146v197h68v-195q3 -133 104 -133q107 0 107 129v103q0 48 -25.5 93.5t-47 66t-78.5 68.5q-11 10 -17 15q-42 35 -64 56t-50.5 56t-41 73.5t-12.5 83.5v81q0 73 30.5 116.5t74.5 49.5q-43 65 -43 142v90q0 95 43.5 142.5t123.5 47.5
q168 0 168 -192v-176h-65v176q-2 64 -25 97.5t-78 33.5q-56 0 -78 -32.5t-22 -96.5v-86q0 -30 10.5 -58.5t22 -47.5t39.5 -47.5t42.5 -41t51.5 -43.5t61 -54.5t50.5 -58t39.5 -75t13 -86.5v-96q0 -68 -26 -106t-70 -46q41 -67 41 -143v-107q0 -188 -175 -188zM283 557
q57 -46 102 -96q55 23 55 119v90q0 40 -12 73.5t-40 65.5t-50 51.5t-64 52.5q-64 57 -98 95q-61 -26 -61 -136v-75q0 -25 5 -47.5t20.5 -46t24.5 -37t37.5 -39.5t37 -33.5t43.5 -36.5z" />
    <glyph glyph-name="dieresis" unicode="&#xa8;" horiz-adv-x="507" 
d="M172 1286q-43 0 -43 66q0 63 43 63t43 -65q0 -64 -43 -64zM324 1286q-45 0 -45 66q0 63 45 63q43 0 43 -65q0 -64 -43 -64z" />
    <glyph glyph-name="copyright" unicode="&#xa9;" horiz-adv-x="878" 
d="M440 -25q-170 0 -267 91t-97 274v747q0 185 97 284t263 99q169 0 268 -94.5t99 -277.5v-752q0 -181 -99 -276t-264 -95zM440 35q144 0 222.5 77t78.5 234v754q0 153 -81 233t-224 80q-141 0 -220 -82.5t-79 -240.5v-750q0 -154 79.5 -229.5t223.5 -75.5zM442 186
q-76 0 -118.5 44.5t-42.5 134.5v718q0 88 43.5 134.5t117.5 46.5t117.5 -44.5t44.5 -127.5v-244h-63v244q-3 114 -99 114q-98 0 -98 -125v-716q0 -119 98 -119q51 0 74 28t25 84v285h63v-287q-1 -84 -44.5 -127t-117.5 -43z" />
    <glyph glyph-name="ordfeminine" unicode="&#xaa;" horiz-adv-x="405" 
d="M283 705q-35 -91 -113 -91q-59 0 -85 37t-26 123v133q0 78 37 129q32 32 84 49q62 26 78 41q21 21 21 54v145q0 39 -20 61.5t-58 22.5q-36 0 -55 -23.5t-19 -62.5v-162h-61v164q0 63 35 100t100 37q66 0 100.5 -36t34.5 -99v-704h-49zM184 670q42 0 68.5 36t26.5 95v303
q-7 -20 -23.5 -32t-48.5 -25q-46 -19 -64 -41q-22 -25 -22 -93v-131q0 -63 15 -87.5t48 -24.5z" />
    <glyph glyph-name="guillemotleft" unicode="&#xab;" horiz-adv-x="573" 
d="M236 256l-177 340v4l177 361h65l-176 -359l180 -346h-69zM451 256l-187 342v4l174 359h68l-176 -361l190 -344h-69z" />
    <glyph glyph-name="logicalnot" unicode="&#xac;" horiz-adv-x="716" 
d="M537 502v256h-459v63h524v-319h-65z" />
    <glyph glyph-name="uni00AD" unicode="&#xad;" horiz-adv-x="473" 
d="M420 561h-363v66h363v-66z" />
    <glyph glyph-name="registered" unicode="&#xae;" horiz-adv-x="675" 
d="M340 885q-130 0 -209.5 74t-79.5 208v15q0 132 80 211.5t207 79.5q124 0 204.5 -78.5t80.5 -210.5v-17q0 -130 -80 -206t-203 -76zM340 936q105 0 167 61t62 174v9q0 114 -63 177.5t-168 63.5q-104 0 -168 -64.5t-64 -176.5v-9q0 -112 63.5 -173.5t170.5 -61.5zM279 1145
v-111h-50v297h121q113 0 113 -88q0 -61 -60 -76q54 -9 54 -75v-43q0 -11 4 -15h-53l-5 15v43q0 31 -11 42t-50 11h-63zM279 1288v-100h63q72 0 72 53q0 28 -15.5 37.5t-52.5 9.5h-67z" />
    <glyph glyph-name="macron" unicode="&#xaf;" 
d="M119 1368h266v-57h-266v57z" />
    <glyph glyph-name="degree" unicode="&#xb0;" horiz-adv-x="491" 
d="M244 1108q-83 0 -132 48t-49 126v8q0 81 52.5 128.5t128.5 47.5q83 0 132.5 -48t49.5 -128v-8q0 -78 -49 -126t-133 -48zM244 1165q58 0 89.5 33t31.5 86v6q0 55 -33.5 88t-87.5 33q-50 0 -83.5 -32t-33.5 -89v-6q0 -56 31 -87.5t86 -31.5z" />
    <glyph glyph-name="plusminus" unicode="&#xb1;" horiz-adv-x="610" 
d="M330 836v-160h-60v160h-164v61h164v162h60v-162h166v-61h-166zM106 512v63h390v-63h-390z" />
    <glyph glyph-name="uni00B2" unicode="&#xb2;" horiz-adv-x="296" 
d="M41 821q0 102 82 215q39 54 60.5 99.5t21.5 95.5v119q0 63 -53 63q-58 0 -58 -63v-176h-51v176q0 52 29 81t80 29q106 0 106 -110v-121q0 -55 -21 -102.5t-59 -102.5q-39 -54 -60.5 -100.5t-21.5 -100.5v-12h168v-53h-223v63z" />
    <glyph glyph-name="uni00B3" unicode="&#xb3;" horiz-adv-x="303" 
d="M152 752q-113 0 -113 108v158h53v-156q0 -61 60 -61q57 0 57 61v150q0 46 -16 62t-58 16h-22v53h20q39 0 55.5 17.5t16.5 66.5v125q0 59 -53 59q-58 0 -58 -59v-135h-51v133q0 52 29 81t80 29q104 0 104 -110v-121q0 -52 -11.5 -76.5t-41.5 -34.5q59 -12 59 -102v-156
q0 -108 -110 -108z" />
    <glyph glyph-name="acute" unicode="&#xb4;" 
d="M317 1524h72l-145 -246h-51z" />
    <glyph glyph-name="paragraph" unicode="&#xb6;" horiz-adv-x="720" 
d="M369 0v797h-54q-122 -2 -195 80.5t-73 230.5v37q0 151 71.5 228t198.5 77h318v-1450h-68v1389h-133v-1389h-65zM369 860v529h-52q-95 0 -147.5 -59.5t-52.5 -184.5v-37q0 -115 54.5 -181.5t145.5 -66.5h52z" />
    <glyph glyph-name="periodcentered" unicode="&#xb7;" horiz-adv-x="335" 
d="M170 518q-29 0 -41 17t-12 61q0 41 13 58.5t40 17.5q29 0 40 -16.5t11 -59.5q0 -44 -11 -61t-40 -17z" />
    <glyph glyph-name="cedilla" unicode="&#xb8;" 
d="M248 -313q-131 0 -146 125h60q8 -74 86 -74q90 0 90 67q0 34 -21.5 48t-70.5 14h-23v153h53v-106q121 -9 121 -107q0 -59 -40.5 -89.5t-108.5 -30.5z" />
    <glyph glyph-name="uni00B9" unicode="&#xb9;" horiz-adv-x="237" 
d="M20 758v51h72v537q-12 -41 -65 -41v53q41 1 53.5 20.5t17.5 73.5h47v-643h72v-51h-197z" />
    <glyph glyph-name="ordmasculine" unicode="&#xba;" horiz-adv-x="407" 
d="M205 614q-66 0 -101.5 37t-35.5 103v569q0 66 36 102.5t101 36.5q66 0 100.5 -35.5t34.5 -101.5v-569q0 -67 -35 -104.5t-100 -37.5zM205 674q36 0 55 22.5t19 61.5v565q0 40 -18.5 63t-55.5 23q-76 0 -76 -86v-567q0 -37 19.5 -59.5t56.5 -22.5z" />
    <glyph glyph-name="guillemotright" unicode="&#xbb;" horiz-adv-x="573" 
d="M53 256l191 344l-176 361h67l174 -359v-4l-186 -342h-70zM268 256l181 346l-177 359h66l176 -361v-4l-176 -340h-70z" />
    <glyph glyph-name="onequarter" unicode="&#xbc;" horiz-adv-x="675" 
d="M354 817l199 658l61 -17l-237 -647zM63 758v51h72v537q-12 -41 -65 -41v53q41 1 53.5 20.5t17.5 73.5h47v-643h72v-51h-197zM543 154v-154h-47v154h-160v43l153 497h54v-495h51v-45h-51zM324 659l-201 -682l-66 19l244 670zM385 199h111v307l12 145l-31 -143z" />
    <glyph glyph-name="onehalf" unicode="&#xbd;" horiz-adv-x="675" 
d="M354 817l199 658l61 -17l-237 -647zM59 758v51h72v537q-12 -41 -65 -41v53q41 1 53.5 20.5t17.5 73.5h47v-643h72v-51h-197zM393 63q0 103 82 216q39 54 60.5 99t21.5 95v119q0 63 -53 63q-58 0 -58 -63v-176h-51v176q0 52 29 81t80 29q106 0 106 -110v-121
q0 -55 -21 -102.5t-59 -102.5q-39 -54 -60 -100t-21 -100v-13h167v-53h-223v63zM324 659l-201 -682l-66 19l244 670z" />
    <glyph glyph-name="threequarters" unicode="&#xbe;" horiz-adv-x="675" 
d="M354 817l199 658l61 -17l-237 -647zM164 752q-113 0 -113 108v158h53v-156q0 -61 60 -61q57 0 57 61v150q0 46 -16 62t-58 16h-22v53h20q39 0 55.5 17.5t16.5 66.5v125q0 59 -53 59q-58 0 -58 -59v-135h-51v133q0 52 29 81t80 29q104 0 104 -110v-121q0 -52 -11.5 -76.5
t-41.5 -34.5q59 -12 59 -102v-156q0 -108 -110 -108zM541 154v-154h-47v154h-160v43l153 497h54v-495h51v-45h-51zM324 659l-201 -682l-66 19l244 670zM383 199h111v307l12 145l-31 -143z" />
    <glyph glyph-name="questiondown" unicode="&#xbf;" horiz-adv-x="561" 
d="M287 1182q29 0 40 -17.5t11 -60.5t-12 -60.5t-41 -17.5q-27 0 -39.5 18t-12.5 60q0 43 12.5 60.5t41.5 17.5zM254 907q4 -4 33 -4q31 0 35 4v-123q0 -106 -15 -176q-18 -109 -76 -219q-3 -6 -14.5 -31.5t-15 -33.5t-12 -30t-11.5 -36t-8 -35.5t-6.5 -44t-1.5 -47.5v-217
q0 -145 119 -145q118 0 118 145v356h68v-358q0 -94 -48.5 -148.5t-137.5 -54.5t-138 54.5t-49 148.5v219q0 33 4 65t7.5 52t14 50.5t14.5 40t19 43t17 38.5q28 61 41.5 94.5t28 108t14.5 161.5v123z" />
    <glyph glyph-name="Agrave" unicode="&#xc0;" horiz-adv-x="458" 
d="M78 1761h69l101 -213h-51zM330 287h-205l-29 -287h-67l161 1450h68l172 -1450h-70zM133 348h189l-82 746l-15 299l-16 -299z" />
    <glyph glyph-name="Aacute" unicode="&#xc1;" horiz-adv-x="458" 
d="M322 1790h71l-145 -246h-51zM330 287h-205l-29 -287h-67l161 1450h68l172 -1450h-70zM133 348h189l-82 746l-15 299l-16 -299z" />
    <glyph glyph-name="Acircumflex" unicode="&#xc2;" horiz-adv-x="458" 
d="M225 1692l-84 -150h-61l123 207h47l119 -207h-64zM330 287h-205l-29 -287h-67l161 1450h68l172 -1450h-70zM133 348h189l-82 746l-15 299l-16 -299z" />
    <glyph glyph-name="Atilde" unicode="&#xc3;" horiz-adv-x="458" 
d="M49 1552q0 76 21 109t69 33q40 0 70 -23q11 -9 27 -24t25 -23.5t21 -15t21 -6.5q25 0 35 18.5t10 71.5h53q-3 -146 -94 -146q-41 0 -69 25q-11 9 -33 30t-36.5 30t-29.5 9q-23 0 -30 -18.5t-7 -69.5h-53zM330 287h-205l-29 -287h-67l161 1450h68l172 -1450h-70zM133 348
h189l-82 746l-15 299l-16 -299z" />
    <glyph glyph-name="Adieresis" unicode="&#xc4;" horiz-adv-x="458" 
d="M147 1552q-43 0 -43 66q0 63 43 63t43 -65q0 -64 -43 -64zM299 1552q-45 0 -45 66q0 63 45 63q43 0 43 -65q0 -64 -43 -64zM330 287h-205l-29 -287h-67l161 1450h68l172 -1450h-70zM133 348h189l-82 746l-15 299l-16 -299z" />
    <glyph glyph-name="Aring" unicode="&#xc5;" horiz-adv-x="458" 
d="M223 1540q-60 0 -98.5 36t-38.5 99q0 60 38.5 97.5t98.5 37.5q62 0 100.5 -37t38.5 -98q0 -63 -38.5 -99t-100.5 -36zM223 1591q37 0 59.5 23.5t22.5 60.5t-22.5 60.5t-59.5 23.5q-35 0 -57.5 -23.5t-22.5 -60.5t22 -60.5t58 -23.5zM330 287h-205l-29 -287h-67l161 1450
h68l172 -1450h-70zM133 348h189l-82 746l-15 299l-16 -299z" />
    <glyph glyph-name="AE" unicode="&#xc6;" horiz-adv-x="649" 
d="M334 287h-203l-41 -287h-65l217 1450h362v-66h-291l49 -632h226v-66h-221l47 -620h196v-66h-256zM141 348h189l-51 744l-5 292l-26 -292z" />
    <glyph glyph-name="Ccedilla" unicode="&#xc7;" horiz-adv-x="530" 
d="M264 -326q-66 0 -102 30.5t-43 94.5h59q8 -73 86 -73q90 0 90 67q0 34 -21.5 48t-70.5 14h-22v135q-158 15 -158 205v1060q0 99 49 153t139 54q89 0 136 -50.5t49 -143.5v-373h-68v371q-3 137 -119 137q-118 0 -118 -150v-1054q0 -148 118 -148q116 0 119 137v420h68
v-424q-3 -182 -162 -194v-88q121 -9 121 -107q0 -59 -41.5 -90t-108.5 -31z" />
    <glyph glyph-name="Egrave" unicode="&#xc8;" horiz-adv-x="421" 
d="M94 1761h70l100 -213h-51zM383 0h-297v1450h291v-64h-223v-628h206v-66h-206v-626h229v-66z" />
    <glyph glyph-name="Eacute" unicode="&#xc9;" horiz-adv-x="421" 
d="M334 1792h72l-146 -246h-51zM383 0h-297v1450h291v-64h-223v-628h206v-66h-206v-626h229v-66z" />
    <glyph glyph-name="Ecircumflex" unicode="&#xca;" horiz-adv-x="421" 
d="M236 1700l-84 -150h-62l123 207h47l119 -207h-64zM383 0h-297v1450h291v-64h-223v-628h206v-66h-206v-626h229v-66z" />
    <glyph glyph-name="Edieresis" unicode="&#xcb;" horiz-adv-x="421" 
d="M162 1554q-43 0 -43 66q0 63 43 63t43 -65q0 -64 -43 -64zM313 1554q-45 0 -45 66q0 63 45 63q43 0 43 -65q0 -64 -43 -64zM383 0h-297v1450h291v-64h-223v-628h206v-66h-206v-626h229v-66z" />
    <glyph glyph-name="Igrave" unicode="&#xcc;" horiz-adv-x="323" 
d="M20 1761h70l100 -213h-51zM27 0v63h102v1326h-102v61h270v-61h-100v-1326h100v-63h-270z" />
    <glyph glyph-name="Iacute" unicode="&#xcd;" horiz-adv-x="323" 
d="M260 1792h72l-146 -246h-51zM27 0v63h102v1326h-102v61h270v-61h-100v-1326h100v-63h-270z" />
    <glyph glyph-name="Icircumflex" unicode="&#xce;" horiz-adv-x="323" 
d="M172 1696l-84 -150h-61l123 207h47l118 -207h-63zM27 0v63h102v1326h-102v61h270v-61h-100v-1326h100v-63h-270z" />
    <glyph glyph-name="Idieresis" unicode="&#xcf;" horiz-adv-x="323" 
d="M88 1554q-43 0 -43 66q0 63 43 63t43 -65q0 -64 -43 -64zM240 1554q-45 0 -45 66q0 63 45 63q43 0 43 -65q0 -64 -43 -64zM27 0v63h102v1326h-102v61h270v-61h-100v-1326h100v-63h-270z" />
    <glyph glyph-name="Eth" unicode="&#xd0;" horiz-adv-x="552" 
d="M96 0v690h-73v66h73v694h137q122 0 180 -52t58 -177v-994q0 -123 -61 -175t-183 -52h-131zM164 690v-627h63q90 0 133 38t43 130v990q0 92 -42 130t-130 38h-67v-633h112v-66h-112z" />
    <glyph glyph-name="Ntilde" unicode="&#xd1;" horiz-adv-x="593" 
d="M135 1556q0 76 21 109t69 33q40 0 70 -23q11 -9 27 -24t25 -23.5t21 -15t21 -6.5q25 0 35 18.5t10 71.5h53q-3 -146 -94 -146q-41 0 -69 25q-11 9 -33 30t-36.5 30.5t-29.5 9.5q-23 0 -30 -19t-7 -70h-53zM150 0h-64v1450h57l256 -1020l64 -303l-21 379v944h64v-1450h-55
l-261 1038l-61 287l21 -369v-956z" />
    <glyph glyph-name="Ograve" unicode="&#xd2;" horiz-adv-x="548" 
d="M131 1769h70l100 -213h-51zM274 -12q-90 0 -141 53.5t-51 153.5v1060q0 97 50.5 152t141.5 55q92 0 142.5 -55t50.5 -152v-1060q0 -100 -50.5 -153.5t-142.5 -53.5zM274 51q125 0 125 148v1056q0 69 -30.5 108.5t-94.5 39.5q-62 0 -93 -39.5t-31 -108.5v-1056
q0 -69 31 -108.5t93 -39.5z" />
    <glyph glyph-name="Oacute" unicode="&#xd3;" horiz-adv-x="548" 
d="M383 1804h72l-146 -245h-51zM274 -12q-90 0 -141 53.5t-51 153.5v1060q0 97 50.5 152t141.5 55q92 0 142.5 -55t50.5 -152v-1060q0 -100 -50.5 -153.5t-142.5 -53.5zM274 51q125 0 125 148v1056q0 69 -30.5 108.5t-94.5 39.5q-62 0 -93 -39.5t-31 -108.5v-1056
q0 -69 31 -108.5t93 -39.5z" />
    <glyph glyph-name="Ocircumflex" unicode="&#xd4;" horiz-adv-x="548" 
d="M279 1700l-84 -150h-62l123 207h47l119 -207h-64zM274 -12q-90 0 -141 53.5t-51 153.5v1060q0 97 50.5 152t141.5 55q92 0 142.5 -55t50.5 -152v-1060q0 -100 -50.5 -153.5t-142.5 -53.5zM274 51q125 0 125 148v1056q0 69 -30.5 108.5t-94.5 39.5q-62 0 -93 -39.5
t-31 -108.5v-1056q0 -69 31 -108.5t93 -39.5z" />
    <glyph glyph-name="Otilde" unicode="&#xd5;" horiz-adv-x="548" 
d="M104 1561q0 76 21.5 108.5t69.5 32.5q39 0 69 -23q11 -9 27 -24t25 -23.5t21 -15t21 -6.5q25 0 35 18.5t10 71.5h54q-3 -146 -95 -146q-41 0 -69 25q-12 9 -33 30t-35.5 30.5t-29.5 9.5q-23 0 -30 -18.5t-7 -69.5h-54zM274 -12q-90 0 -141 53.5t-51 153.5v1060
q0 97 50.5 152t141.5 55q92 0 142.5 -55t50.5 -152v-1060q0 -100 -50.5 -153.5t-142.5 -53.5zM274 51q125 0 125 148v1056q0 69 -30.5 108.5t-94.5 39.5q-62 0 -93 -39.5t-31 -108.5v-1056q0 -69 31 -108.5t93 -39.5z" />
    <glyph glyph-name="Odieresis" unicode="&#xd6;" horiz-adv-x="548" 
d="M199 1563q-43 0 -43 65q0 64 43 64t43 -66q0 -63 -43 -63zM350 1563q-45 0 -45 65q0 64 45 64q43 0 43 -66q0 -63 -43 -63zM274 -12q-90 0 -141 53.5t-51 153.5v1060q0 97 50.5 152t141.5 55q92 0 142.5 -55t50.5 -152v-1060q0 -100 -50.5 -153.5t-142.5 -53.5zM274 51
q125 0 125 148v1056q0 69 -30.5 108.5t-94.5 39.5q-62 0 -93 -39.5t-31 -108.5v-1056q0 -69 31 -108.5t93 -39.5z" />
    <glyph glyph-name="multiply" unicode="&#xd7;" horiz-adv-x="610" 
d="M301 690l-151 -158l-46 43l154 160l-139 144l41 43l139 -144l143 148l41 -43l-141 -148l154 -157l-43 -46z" />
    <glyph glyph-name="Oslash" unicode="&#xd8;" horiz-adv-x="552" 
d="M276 -12q-38 0 -69 8l-21 -180h-55l27 204q-76 51 -76 175v1060q0 98 50 152.5t144 54.5q42 0 58 -6l22 170h56l-25 -190q84 -49 84 -181v-1060q0 -100 -51 -153.5t-144 -53.5zM147 199q0 -53 21 -90l158 1286q-19 8 -50 8q-63 0 -96 -40t-33 -108v-1056zM276 49
q64 0 97 40t33 110v1056q0 59 -29 103l-162 -1297q27 -12 61 -12z" />
    <glyph glyph-name="Ugrave" unicode="&#xd9;" horiz-adv-x="530" 
d="M123 1755h70l100 -213h-51zM264 -12q-178 0 -178 205v1257h68v-1253q0 -146 110 -146q113 0 113 146v1253h67v-1257q0 -205 -180 -205z" />
    <glyph glyph-name="Uacute" unicode="&#xda;" horiz-adv-x="530" 
d="M360 1784h72l-145 -246h-51zM264 -12q-178 0 -178 205v1257h68v-1253q0 -146 110 -146q113 0 113 146v1253h67v-1257q0 -205 -180 -205z" />
    <glyph glyph-name="Ucircumflex" unicode="&#xdb;" horiz-adv-x="530" 
d="M270 1690l-84 -150h-61l123 207h47l119 -207h-64zM264 -12q-178 0 -178 205v1257h68v-1253q0 -146 110 -146q113 0 113 146v1253h67v-1257q0 -205 -180 -205z" />
    <glyph glyph-name="Udieresis" unicode="&#xdc;" horiz-adv-x="530" 
d="M190 1548q-43 0 -43 66q0 63 43 63t43 -65q0 -64 -43 -64zM342 1548q-45 0 -45 66q0 63 45 63q43 0 43 -65q0 -64 -43 -64zM264 -12q-178 0 -178 205v1257h68v-1253q0 -146 110 -146q113 0 113 146v1253h67v-1257q0 -205 -180 -205z" />
    <glyph glyph-name="Yacute" unicode="&#xdd;" horiz-adv-x="454" 
d="M324 1784h71l-145 -246h-51zM193 0v512l-164 938h67l107 -629l24 -231l25 231l104 629h68l-164 -938v-512h-67z" />
    <glyph glyph-name="Thorn" unicode="&#xde;" horiz-adv-x="512" 
d="M154 299v-299h-68v1450h68v-242h84q115 0 163 -49.5t48 -165.5v-465q0 -116 -52 -172.5t-159 -56.5h-84zM154 1147v-785h77q78 0 114 41.5t36 126.5v461q0 90 -32 123t-116 33h-79z" />
    <glyph glyph-name="germandbls" unicode="&#xdf;" horiz-adv-x="522" 
d="M147 0h-65v1321q0 98 47.5 145t134.5 47q176 0 176 -188v-340q0 -145 -90 -172q101 -23 101 -172v-453q0 -102 -37.5 -145t-122.5 -43h-51v63h34q59 0 84 29t25 94v449q0 147 -117 147h-26v60h24q111 0 111 147v336q0 127 -111 127q-117 0 -117 -131v-1321z" />
    <glyph glyph-name="agrave" unicode="&#xe0;" horiz-adv-x="505" 
d="M109 1489h69l101 -213h-52zM371 141q-13 -75 -54 -114t-98 -39q-83 0 -118 50.5t-35 170.5v180q0 124 53 180q14 16 36.5 30.5t36 20.5t44.5 19q73 31 92 47q37 30 37 84v221q0 131 -113 131t-113 -135v-244h-65v248q2 89 46.5 140t131.5 51q88 0 133 -50t45 -139v-993
h-51zM231 51q60 0 97 53.5t37 137.5v417q-8 -16 -26.5 -29.5t-32.5 -20t-42 -17.5q-64 -26 -92 -60q-39 -42 -39 -143v-168q0 -90 23.5 -130t74.5 -40z" />
    <glyph glyph-name="aacute" unicode="&#xe1;" horiz-adv-x="505" 
d="M348 1520h72l-146 -246h-51zM371 141q-13 -75 -54 -114t-98 -39q-83 0 -118 50.5t-35 170.5v180q0 124 53 180q14 16 36.5 30.5t36 20.5t44.5 19q73 31 92 47q37 30 37 84v221q0 131 -113 131t-113 -135v-244h-65v248q2 89 46.5 140t131.5 51q88 0 133 -50t45 -139v-993
h-51zM231 51q60 0 97 53.5t37 137.5v417q-8 -16 -26.5 -29.5t-32.5 -20t-42 -17.5q-64 -26 -92 -60q-39 -42 -39 -143v-168q0 -90 23.5 -130t74.5 -40z" />
    <glyph glyph-name="acircumflex" unicode="&#xe2;" horiz-adv-x="505" 
d="M260 1423l-84 -149h-61l123 207h47l118 -207h-63zM371 141q-13 -75 -54 -114t-98 -39q-83 0 -118 50.5t-35 170.5v180q0 124 53 180q14 16 36.5 30.5t36 20.5t44.5 19q73 31 92 47q37 30 37 84v221q0 131 -113 131t-113 -135v-244h-65v248q2 89 46.5 140t131.5 51
q88 0 133 -50t45 -139v-993h-51zM231 51q60 0 97 53.5t37 137.5v417q-8 -16 -26.5 -29.5t-32.5 -20t-42 -17.5q-64 -26 -92 -60q-39 -42 -39 -143v-168q0 -90 23.5 -130t74.5 -40z" />
    <glyph glyph-name="atilde" unicode="&#xe3;" horiz-adv-x="505" 
d="M78 1280q0 76 21 108.5t69 32.5q42 0 70 -22q11 -9 27 -24t25 -23.5t21 -15.5t21 -7q25 0 35 18.5t10 71.5h53q-2 -73 -24 -109t-70 -36q-43 0 -70 24q-12 9 -33 30t-35.5 30.5t-29.5 9.5q-23 0 -30 -18.5t-7 -69.5h-53zM371 141q-13 -75 -54 -114t-98 -39
q-83 0 -118 50.5t-35 170.5v180q0 124 53 180q14 16 36.5 30.5t36 20.5t44.5 19q73 31 92 47q37 30 37 84v221q0 131 -113 131t-113 -135v-244h-65v248q2 89 46.5 140t131.5 51q88 0 133 -50t45 -139v-993h-51zM231 51q60 0 97 53.5t37 137.5v417q-8 -16 -26.5 -29.5
t-32.5 -20t-42 -17.5q-64 -26 -92 -60q-39 -42 -39 -143v-168q0 -90 23.5 -130t74.5 -40z" />
    <glyph glyph-name="adieresis" unicode="&#xe4;" horiz-adv-x="505" 
d="M176 1282q-43 0 -43 66q0 63 43 63t43 -65q0 -64 -43 -64zM328 1282q-45 0 -45 66q0 63 45 63q43 0 43 -65q0 -64 -43 -64zM371 141q-13 -75 -54 -114t-98 -39q-83 0 -118 50.5t-35 170.5v180q0 124 53 180q14 16 36.5 30.5t36 20.5t44.5 19q73 31 92 47q37 30 37 84v221
q0 131 -113 131t-113 -135v-244h-65v248q2 89 46.5 140t131.5 51q88 0 133 -50t45 -139v-993h-51zM231 51q60 0 97 53.5t37 137.5v417q-8 -16 -26.5 -29.5t-32.5 -20t-42 -17.5q-64 -26 -92 -60q-39 -42 -39 -143v-168q0 -90 23.5 -130t74.5 -40z" />
    <glyph glyph-name="aring" unicode="&#xe5;" horiz-adv-x="505" 
d="M250 1278q-60 0 -98.5 36t-38.5 99q0 60 38.5 97.5t98.5 37.5q62 0 100.5 -37t38.5 -98q0 -63 -38.5 -99t-100.5 -36zM250 1329q37 0 59.5 23.5t22.5 60.5t-22.5 60.5t-59.5 23.5q-35 0 -57.5 -23.5t-22.5 -60.5t22 -60.5t58 -23.5zM371 141q-13 -75 -54 -114t-98 -39
q-83 0 -118 50.5t-35 170.5v180q0 124 53 180q14 16 36.5 30.5t36 20.5t44.5 19q73 31 92 47q37 30 37 84v221q0 131 -113 131t-113 -135v-244h-65v248q2 89 46.5 140t131.5 51q88 0 133 -50t45 -139v-993h-51zM231 51q60 0 97 53.5t37 137.5v417q-8 -16 -26.5 -29.5
t-32.5 -20t-42 -17.5q-64 -26 -92 -60q-39 -42 -39 -143v-168q0 -90 23.5 -130t74.5 -40z" />
    <glyph glyph-name="ae" unicode="&#xe6;" horiz-adv-x="796" 
d="M725 178q0 -95 -47.5 -142.5t-132.5 -47.5q-145 0 -168 147q-16 -74 -58 -109.5t-100 -35.5q-83 0 -118 50t-35 171v186q0 112 53 181q31 33 117 69q35 13 52 21t38 23t30 36t9 51v213q0 131 -111 131q-113 0 -113 -135v-233h-65v235q0 91 44.5 142t129.5 51
q112 0 147 -90q38 90 150 90q178 0 178 -205v-395h-295v-389q0 -67 28.5 -105.5t86.5 -38.5q57 0 85.5 36.5t28.5 94.5v291h66v-293zM430 641h229v336q0 145 -114 145q-115 0 -115 -145v-336zM233 51q59 0 95.5 54.5t36.5 138.5v426q-21 -41 -101 -72q-68 -27 -92 -57
q-39 -46 -39 -144v-174q0 -90 24.5 -131t75.5 -41z" />
    <glyph glyph-name="ccedilla" unicode="&#xe7;" horiz-adv-x="507" 
d="M254 -326q-66 0 -102 30.5t-43 94.5h59q8 -73 86 -73q90 0 90 67q0 34 -21.5 48t-70.5 14h-23v135q-73 6 -114 55t-41 141v795q0 100 49.5 150.5t132.5 50.5q85 0 132 -48t48 -143v-295h-67v293q-3 133 -113 133q-57 0 -86 -37.5t-29 -105.5v-791q0 -63 29.5 -101
t85.5 -38q110 0 113 131v332h67v-334q-3 -175 -153 -188v-88q120 -9 120 -107q0 -59 -41 -90t-108 -31z" />
    <glyph glyph-name="egrave" unicode="&#xe8;" horiz-adv-x="507" 
d="M111 1487h69l101 -213h-52zM436 178q0 -94 -48.5 -142t-131.5 -48q-182 0 -182 202v787q0 205 182 205q180 0 180 -205v-395h-295v-389q0 -67 28.5 -105.5t86.5 -38.5q57 0 85 36.5t28 94.5v289h67v-291zM141 641h228v336q0 145 -113 145q-115 0 -115 -145v-336z" />
    <glyph glyph-name="eacute" unicode="&#xe9;" horiz-adv-x="507" 
d="M350 1518h72l-146 -246h-51zM436 178q0 -94 -48.5 -142t-131.5 -48q-182 0 -182 202v787q0 205 182 205q180 0 180 -205v-395h-295v-389q0 -67 28.5 -105.5t86.5 -38.5q57 0 85 36.5t28 94.5v289h67v-291zM141 641h228v336q0 145 -113 145q-115 0 -115 -145v-336z" />
    <glyph glyph-name="ecircumflex" unicode="&#xea;" horiz-adv-x="507" 
d="M262 1419l-84 -149h-61l123 207h47l119 -207h-64zM436 178q0 -94 -48.5 -142t-131.5 -48q-182 0 -182 202v787q0 205 182 205q180 0 180 -205v-395h-295v-389q0 -67 28.5 -105.5t86.5 -38.5q57 0 85 36.5t28 94.5v289h67v-291zM141 641h228v336q0 145 -113 145
q-115 0 -115 -145v-336z" />
    <glyph glyph-name="edieresis" unicode="&#xeb;" horiz-adv-x="507" 
d="M178 1280q-43 0 -43 66q0 63 43 63t43 -66q0 -63 -43 -63zM330 1280q-45 0 -45 66q0 63 45 63q43 0 43 -66q0 -63 -43 -63zM436 178q0 -94 -48.5 -142t-131.5 -48q-182 0 -182 202v787q0 205 182 205q180 0 180 -205v-395h-295v-389q0 -67 28.5 -105.5t86.5 -38.5
q57 0 85 36.5t28 94.5v289h67v-291zM141 641h228v336q0 145 -113 145q-115 0 -115 -145v-336z" />
    <glyph glyph-name="igrave" unicode="&#xec;" horiz-adv-x="229" 
d="M-27 1483h70l100 -213h-51zM82 0v1171h65v-1171h-65z" />
    <glyph glyph-name="iacute" unicode="&#xed;" horiz-adv-x="229" 
d="M211 1528h72l-146 -246h-51zM82 0v1171h65v-1171h-65z" />
    <glyph glyph-name="icircumflex" unicode="&#xee;" horiz-adv-x="229" 
d="M117 1413l-84 -149h-62l123 206h47l119 -206h-63zM82 0v1171h65v-1171h-65z" />
    <glyph glyph-name="idieresis" unicode="&#xef;" horiz-adv-x="229" 
d="M41 1276q-43 0 -43 65q0 64 43 64t43 -66q0 -63 -43 -63zM193 1276q-46 0 -46 65q0 64 46 64q43 0 43 -66q0 -63 -43 -63zM82 0v1171h65v-1171h-65z" />
    <glyph glyph-name="eth" unicode="&#xf0;" horiz-adv-x="512" 
d="M256 -12q-86 0 -134 50.5t-48 151.5v789q0 99 45.5 151t120.5 52q99 0 133 -88q-21 155 -107 272l-90 -90h-72l129 131q-57 66 -153 125h92q48 -31 100 -86l86 86h72l-125 -125q131 -171 131 -449l2 -768q0 -99 -48.5 -150.5t-133.5 -51.5zM256 49q58 0 86.5 38.5
t28.5 105.5v772q0 157 -115 157q-57 0 -86 -37.5t-29 -105.5v-786q0 -67 29 -105.5t86 -38.5z" />
    <glyph glyph-name="ntilde" unicode="&#xf1;" horiz-adv-x="512" 
d="M96 1280q0 76 21 108.5t69 32.5q42 0 70 -22q11 -9 27 -24t25 -23.5t21 -15.5t21 -7q25 0 35 18.5t10 71.5h54q-3 -145 -95 -145q-42 0 -69 24q-11 9 -33 30t-36.5 30.5t-29.5 9.5q-22 0 -29 -18t-7 -70h-54zM145 0h-65v1171h51l8 -129q34 140 142 140q84 0 119.5 -55
t35.5 -183v-944h-67v944q0 97 -23.5 137.5t-77.5 40.5q-123 0 -123 -225v-897z" />
    <glyph glyph-name="ograve" unicode="&#xf2;" horiz-adv-x="512" 
d="M113 1489h69l101 -213h-52zM256 -12q-182 0 -182 202v789q0 99 49.5 151t132.5 52q85 0 133.5 -52t48.5 -151v-789q0 -99 -48.5 -150.5t-133.5 -51.5zM256 49q58 0 86.5 38.5t28.5 105.5v786q0 67 -28.5 105t-86.5 38q-57 0 -86 -37.5t-29 -105.5v-786q0 -67 29 -105.5
t86 -38.5z" />
    <glyph glyph-name="oacute" unicode="&#xf3;" horiz-adv-x="512" 
d="M352 1520h72l-145 -246h-52zM256 -12q-182 0 -182 202v789q0 99 49.5 151t132.5 52q85 0 133.5 -52t48.5 -151v-789q0 -99 -48.5 -150.5t-133.5 -51.5zM256 49q58 0 86.5 38.5t28.5 105.5v786q0 67 -28.5 105t-86.5 38q-57 0 -86 -37.5t-29 -105.5v-786q0 -67 29 -105.5
t86 -38.5z" />
    <glyph glyph-name="ocircumflex" unicode="&#xf4;" horiz-adv-x="512" 
d="M258 1417l-84 -149h-61l123 207h47l118 -207h-63zM256 -12q-182 0 -182 202v789q0 99 49.5 151t132.5 52q85 0 133.5 -52t48.5 -151v-789q0 -99 -48.5 -150.5t-133.5 -51.5zM256 49q58 0 86.5 38.5t28.5 105.5v786q0 67 -28.5 105t-86.5 38q-57 0 -86 -37.5t-29 -105.5
v-786q0 -67 29 -105.5t86 -38.5z" />
    <glyph glyph-name="otilde" unicode="&#xf5;" horiz-adv-x="512" 
d="M82 1280q0 76 21 108.5t69 32.5q42 0 70 -22q11 -9 27 -24t25 -23.5t21 -15.5t21 -7q25 0 35 18.5t10 71.5h53q-2 -73 -24 -109t-70 -36q-43 0 -70 24q-12 9 -33 30t-35.5 30.5t-29.5 9.5q-23 0 -30 -18.5t-7 -69.5h-53zM256 -12q-182 0 -182 202v789q0 99 49.5 151
t132.5 52q85 0 133.5 -52t48.5 -151v-789q0 -99 -48.5 -150.5t-133.5 -51.5zM256 49q58 0 86.5 38.5t28.5 105.5v786q0 67 -28.5 105t-86.5 38q-57 0 -86 -37.5t-29 -105.5v-786q0 -67 29 -105.5t86 -38.5z" />
    <glyph glyph-name="odieresis" unicode="&#xf6;" horiz-adv-x="512" 
d="M176 1272q-43 0 -43 65q0 64 43 64t43 -66q0 -63 -43 -63zM328 1272q-45 0 -45 65q0 64 45 64q43 0 43 -66q0 -63 -43 -63zM256 -12q-182 0 -182 202v789q0 99 49.5 151t132.5 52q85 0 133.5 -52t48.5 -151v-789q0 -99 -48.5 -150.5t-133.5 -51.5zM256 49q58 0 86.5 38.5
t28.5 105.5v786q0 67 -28.5 105t-86.5 38q-57 0 -86 -37.5t-29 -105.5v-786q0 -67 29 -105.5t86 -38.5z" />
    <glyph glyph-name="divide" unicode="&#xf7;" horiz-adv-x="610" 
d="M301 819q-24 0 -34.5 12t-10.5 43q0 56 45 56q26 0 35.5 -13t9.5 -45q0 -30 -10.5 -41.5t-34.5 -11.5zM106 680v63h390v-63h-390zM301 494q-24 0 -35.5 12t-11.5 43q0 55 47 55q25 0 35 -12.5t10 -44.5q0 -30 -10.5 -41.5t-34.5 -11.5z" />
    <glyph glyph-name="oslash" unicode="&#xf8;" horiz-adv-x="514" 
d="M258 -12q-39 0 -68 10l-28 -182h-49l32 202q-71 50 -71 172v789q0 99 50.5 151t133.5 52q28 0 70 -11l24 160h49l-30 -184q69 -53 69 -168v-789q0 -99 -48.5 -150.5t-133.5 -51.5zM141 193q0 -41 19 -89l157 1002q-26 16 -59 16q-57 0 -87 -38t-30 -105v-786zM258 49
q58 0 87.5 38.5t29.5 105.5v786q0 51 -19 82l-155 -998q28 -14 57 -14z" />
    <glyph glyph-name="ugrave" unicode="&#xf9;" horiz-adv-x="499" 
d="M104 1479h70l100 -213h-51zM362 117q-27 -127 -129 -127q-85 0 -121 55t-36 184v942h67v-944q0 -98 25 -138t78 -40q58 0 83 53t25 174v895h66v-1171h-49z" />
    <glyph glyph-name="uacute" unicode="&#xfa;" horiz-adv-x="499" 
d="M344 1509h72l-146 -245h-51zM362 117q-27 -127 -129 -127q-85 0 -121 55t-36 184v942h67v-944q0 -98 25 -138t78 -40q58 0 83 53t25 174v895h66v-1171h-49z" />
    <glyph glyph-name="ucircumflex" unicode="&#xfb;" horiz-adv-x="499" 
d="M250 1413l-84 -149h-62l123 206h47l119 -206h-63zM362 117q-27 -127 -129 -127q-85 0 -121 55t-36 184v942h67v-944q0 -98 25 -138t78 -40q58 0 83 53t25 174v895h66v-1171h-49z" />
    <glyph glyph-name="udieresis" unicode="&#xfc;" horiz-adv-x="499" 
d="M172 1272q-43 0 -43 65q0 64 43 64t43 -66q0 -63 -43 -63zM324 1272q-45 0 -45 65q0 64 45 64q43 0 43 -66q0 -63 -43 -63zM362 117q-27 -127 -129 -127q-85 0 -121 55t-36 184v942h67v-944q0 -98 25 -138t78 -40q58 0 83 53t25 174v895h66v-1171h-49z" />
    <glyph glyph-name="yacute" unicode="&#xfd;" horiz-adv-x="440" 
d="M319 1505h72l-145 -245h-51zM61 -219v65h37q44 0 66 21t26 78l11 84l-168 1142h67l113 -817l20 -254l13 254l94 817h66l-150 -1230q-11 -91 -43.5 -125.5t-108.5 -34.5h-43z" />
    <glyph glyph-name="thorn" unicode="&#xfe;" horiz-adv-x="518" 
d="M272 -12q-100 0 -127 112v-497h-65v1929h65v-471q34 121 134 121q86 0 125.5 -63t39.5 -204v-663q0 -138 -41.5 -201t-130.5 -63zM262 51q60 0 87.5 48t27.5 155v666q0 107 -26 154.5t-85 47.5q-63 0 -92 -56.5t-29 -152.5v-661q0 -201 117 -201z" />
    <glyph glyph-name="ydieresis" unicode="&#xff;" horiz-adv-x="440" 
d="M147 1268q-43 0 -43 65q0 64 43 64t43 -66q0 -63 -43 -63zM299 1268q-45 0 -45 65q0 64 45 64q43 0 43 -66q0 -63 -43 -63zM61 -219v65h37q44 0 66 21t26 78l11 84l-168 1142h67l113 -817l20 -254l13 254l94 817h66l-150 -1230q-11 -91 -43.5 -125.5t-108.5 -34.5h-43z
" />
    <glyph glyph-name="Amacron" unicode="&#x100;" horiz-adv-x="458" 
d="M90 1636h266v-57h-266v57zM330 287h-205l-29 -287h-67l161 1450h68l172 -1450h-70zM133 348h189l-82 746l-15 299l-16 -299z" />
    <glyph glyph-name="amacron" unicode="&#x101;" horiz-adv-x="505" 
d="M119 1364h266v-57h-266v57zM371 141q-13 -75 -54 -114t-98 -39q-83 0 -118 50.5t-35 170.5v180q0 124 53 180q14 16 36.5 30.5t36 20.5t44.5 19q73 31 92 47q37 30 37 84v221q0 131 -113 131t-113 -135v-244h-65v248q2 89 46.5 140t131.5 51q88 0 133 -50t45 -139v-993
h-51zM231 51q60 0 97 53.5t37 137.5v417q-8 -16 -26.5 -29.5t-32.5 -20t-42 -17.5q-64 -26 -92 -60q-39 -42 -39 -143v-168q0 -90 23.5 -130t74.5 -40z" />
    <glyph glyph-name="Abreve" unicode="&#x102;" horiz-adv-x="458" 
d="M223 1544q-81 0 -114.5 44t-38.5 143h55q5 -75 24.5 -105t75.5 -31q54 1 77.5 33t25.5 103h53q-2 -95 -40.5 -141t-117.5 -46zM330 287h-205l-29 -287h-67l161 1450h68l172 -1450h-70zM133 348h189l-82 746l-15 299l-16 -299z" />
    <glyph glyph-name="abreve" unicode="&#x103;" horiz-adv-x="505" 
d="M252 1272q-81 0 -115 44t-39 142h56q5 -75 24.5 -104.5t75.5 -30.5q54 1 77 32.5t25 102.5h54q-2 -95 -40.5 -140.5t-117.5 -45.5zM371 141q-13 -75 -54 -114t-98 -39q-83 0 -118 50.5t-35 170.5v180q0 124 53 180q14 16 36.5 30.5t36 20.5t44.5 19q73 31 92 47
q37 30 37 84v221q0 131 -113 131t-113 -135v-244h-65v248q2 89 46.5 140t131.5 51q88 0 133 -50t45 -139v-993h-51zM231 51q60 0 97 53.5t37 137.5v417q-8 -16 -26.5 -29.5t-32.5 -20t-42 -17.5q-64 -26 -92 -60q-39 -42 -39 -143v-168q0 -90 23.5 -130t74.5 -40z" />
    <glyph glyph-name="Aogonek" unicode="&#x104;" horiz-adv-x="458" 
d="M559 -166q-26 -125 -153 -125q-138 0 -138 129q0 80 92 166l-30 283h-205l-29 -287h-67l161 1450h68l172 -1450q-104 -90 -104 -160q0 -37 21 -58.5t61 -21.5q75 0 90 74h61zM133 348h189l-82 746l-15 299l-16 -299z" />
    <glyph glyph-name="aogonek" unicode="&#x105;" horiz-adv-x="505" 
d="M559 -166q-26 -125 -153 -125q-138 0 -138 129q0 89 109 180l-6 123q-13 -75 -54 -114t-98 -39q-83 0 -118 50.5t-35 170.5v180q0 124 53 180q14 16 36.5 30.5t36 20.5t44.5 19q73 31 92 47q37 30 37 84v221q0 131 -113 131t-113 -135v-244h-65v248q2 89 46.5 140
t131.5 51q88 0 133 -50t45 -139v-993q-104 -90 -104 -160q0 -37 21 -58.5t61 -21.5q75 0 90 74h61zM231 51q60 0 97 53.5t37 137.5v417q-8 -16 -26.5 -29.5t-32.5 -20t-42 -17.5q-64 -26 -92 -60q-39 -42 -39 -143v-168q0 -90 23.5 -130t74.5 -40z" />
    <glyph glyph-name="Cacute" unicode="&#x106;" horiz-adv-x="530" 
d="M367 1804h71l-145 -245h-51zM268 -12q-186 0 -186 207v1060q0 99 49 153t139 54q89 0 136 -50.5t49 -143.5v-373h-68v371q-3 137 -119 137q-118 0 -118 -150v-1054q0 -148 118 -148q116 0 119 137v420h68v-424q-3 -196 -187 -196z" />
    <glyph glyph-name="cacute" unicode="&#x107;" horiz-adv-x="507" 
d="M352 1520h72l-145 -246h-52zM256 -12q-86 0 -134 49t-48 149v795q0 100 49.5 150.5t132.5 50.5q85 0 132 -48t48 -143v-295h-67v293q-3 133 -113 133q-57 0 -86 -37.5t-29 -105.5v-791q0 -63 29.5 -101t85.5 -38q110 0 113 131v332h67v-334q-1 -94 -49.5 -142t-130.5 -48
z" />
    <glyph glyph-name="Ccircumflex" unicode="&#x108;" horiz-adv-x="530" 
d="M279 1708l-84 -149h-62l123 206h47l119 -206h-64zM268 -12q-186 0 -186 207v1060q0 99 49 153t139 54q89 0 136 -50.5t49 -143.5v-373h-68v371q-3 137 -119 137q-118 0 -118 -150v-1054q0 -148 118 -148q116 0 119 137v420h68v-424q-3 -196 -187 -196z" />
    <glyph glyph-name="ccircumflex" unicode="&#x109;" horiz-adv-x="507" 
d="M264 1423l-84 -149h-61l123 207h47l119 -207h-64zM256 -12q-86 0 -134 49t-48 149v795q0 100 49.5 150.5t132.5 50.5q85 0 132 -48t48 -143v-295h-67v293q-3 133 -113 133q-57 0 -86 -37.5t-29 -105.5v-791q0 -63 29.5 -101t85.5 -38q110 0 113 131v332h67v-334
q-1 -94 -49.5 -142t-130.5 -48z" />
    <glyph glyph-name="Cdotaccent" unicode="&#x10a;" horiz-adv-x="530" 
d="M270 1559q-51 0 -51 71q0 72 51 72q52 0 52 -74q0 -69 -52 -69zM268 -12q-186 0 -186 207v1060q0 99 49 153t139 54q89 0 136 -50.5t49 -143.5v-373h-68v371q-3 137 -119 137q-118 0 -118 -150v-1054q0 -148 118 -148q116 0 119 137v420h68v-424q-3 -196 -187 -196z" />
    <glyph glyph-name="cdotaccent" unicode="&#x10b;" horiz-adv-x="507" 
d="M256 1274q-51 0 -51 72q0 71 51 71t51 -74q0 -69 -51 -69zM256 -12q-86 0 -134 49t-48 149v795q0 100 49.5 150.5t132.5 50.5q85 0 132 -48t48 -143v-295h-67v293q-3 133 -113 133q-57 0 -86 -37.5t-29 -105.5v-791q0 -63 29.5 -101t85.5 -38q110 0 113 131v332h67v-334
q-1 -94 -49.5 -142t-130.5 -48z" />
    <glyph glyph-name="Ccaron" unicode="&#x10c;" horiz-adv-x="530" 
d="M250 1556l-119 209h62l79 -147l84 147h62l-121 -209h-47zM268 -12q-186 0 -186 207v1060q0 99 49 153t139 54q89 0 136 -50.5t49 -143.5v-373h-68v371q-3 137 -119 137q-118 0 -118 -150v-1054q0 -148 118 -148q116 0 119 137v420h68v-424q-3 -196 -187 -196z" />
    <glyph glyph-name="ccaron" unicode="&#x10d;" horiz-adv-x="507" 
d="M236 1272l-119 209h61l80 -148l84 148h61l-120 -209h-47zM256 -12q-86 0 -134 49t-48 149v795q0 100 49.5 150.5t132.5 50.5q85 0 132 -48t48 -143v-295h-67v293q-3 133 -113 133q-57 0 -86 -37.5t-29 -105.5v-791q0 -63 29.5 -101t85.5 -38q110 0 113 131v332h67v-334
q-1 -94 -49.5 -142t-130.5 -48z" />
    <glyph glyph-name="Dcaron" unicode="&#x10e;" horiz-adv-x="542" 
d="M244 1542l-119 209h61l80 -147l84 147h62l-121 -209h-47zM86 1450h139q121 0 178.5 -52t57.5 -177v-994q0 -123 -61 -175t-183 -52h-131v1450zM154 1389v-1326h63q90 0 133 38t43 130v990q0 92 -42 130t-130 38h-67z" />
    <glyph glyph-name="dcaron" unicode="&#x10f;" horiz-adv-x="522" 
d="M561 1540h60l-64 -231h-45zM383 127q-28 -139 -143 -139q-84 0 -125 59t-41 209v666q0 260 168 260q106 0 133 -119v436h67v-1499h-51zM252 47q123 0 123 213v658q0 204 -121 204q-59 0 -86 -48t-27 -150v-660q0 -217 111 -217z" />
    <glyph glyph-name="Dcroat" unicode="&#x110;" horiz-adv-x="552" 
d="M96 0v690h-73v66h73v694h137q122 0 180 -52t58 -177v-994q0 -123 -61 -175t-183 -52h-131zM164 690v-627h63q90 0 133 38t43 130v990q0 92 -42 130t-130 38h-67v-633h112v-66h-112z" />
    <glyph glyph-name="dcroat" unicode="&#x111;" horiz-adv-x="522" 
d="M383 127q-28 -139 -143 -139q-84 0 -125 59t-41 209v666q0 260 168 260q106 0 133 -119v248h-115v57h115v131h67v-131h72v-57h-72v-1311h-51zM252 47q123 0 123 213v658q0 204 -121 204q-59 0 -86 -48t-27 -150v-660q0 -217 111 -217z" />
    <glyph glyph-name="Emacron" unicode="&#x112;" horiz-adv-x="421" 
d="M104 1636h267v-57h-267v57zM383 0h-297v1450h291v-64h-223v-628h206v-66h-206v-626h229v-66z" />
    <glyph glyph-name="emacron" unicode="&#x113;" horiz-adv-x="507" 
d="M121 1362h266v-57h-266v57zM436 178q0 -94 -48.5 -142t-131.5 -48q-182 0 -182 202v787q0 205 182 205q180 0 180 -205v-395h-295v-389q0 -67 28.5 -105.5t86.5 -38.5q57 0 85 36.5t28 94.5v289h67v-291zM141 641h228v336q0 145 -113 145q-115 0 -115 -145v-336z" />
    <glyph glyph-name="Ebreve" unicode="&#x114;" horiz-adv-x="421" 
d="M238 1544q-81 0 -115 44.5t-39 142.5h55q5 -75 25 -105t76 -31q54 1 77 33t25 103h53q-2 -96 -40 -141.5t-117 -45.5zM383 0h-297v1450h291v-64h-223v-628h206v-66h-206v-626h229v-66z" />
    <glyph glyph-name="ebreve" unicode="&#x115;" horiz-adv-x="507" 
d="M254 1270q-81 0 -115 44t-39 142h56q5 -75 24.5 -104.5t75.5 -30.5q54 1 77 32.5t25 102.5h54q-2 -95 -40.5 -140.5t-117.5 -45.5zM436 178q0 -94 -48.5 -142t-131.5 -48q-182 0 -182 202v787q0 205 182 205q180 0 180 -205v-395h-295v-389q0 -67 28.5 -105.5t86.5 -38.5
q57 0 85 36.5t28 94.5v289h67v-291zM141 641h228v336q0 145 -113 145q-115 0 -115 -145v-336z" />
    <glyph glyph-name="Edotaccent" unicode="&#x116;" horiz-adv-x="421" 
d="M238 1546q-52 0 -52 72t52 72q51 0 51 -74q0 -70 -51 -70zM383 0h-297v1450h291v-64h-223v-628h206v-66h-206v-626h229v-66z" />
    <glyph glyph-name="edotaccent" unicode="&#x117;" horiz-adv-x="507" 
d="M254 1272q-51 0 -51 71q0 72 51 72t51 -74q0 -69 -51 -69zM436 178q0 -94 -48.5 -142t-131.5 -48q-182 0 -182 202v787q0 205 182 205q180 0 180 -205v-395h-295v-389q0 -67 28.5 -105.5t86.5 -38.5q57 0 85 36.5t28 94.5v289h67v-291zM141 641h228v336q0 145 -113 145
q-115 0 -115 -145v-336z" />
    <glyph glyph-name="Eogonek" unicode="&#x118;" horiz-adv-x="421" 
d="M360 -291q-137 0 -137 129q0 80 88 162h-225v1450h291v-64h-223v-628h206v-66h-206v-626h229v-64l2 -2q-104 -90 -104 -160q0 -37 20.5 -58.5t60.5 -21.5q76 0 91 74h61q-26 -125 -154 -125z" />
    <glyph glyph-name="eogonek" unicode="&#x119;" horiz-adv-x="507" 
d="M342 -270q-137 0 -137 129q0 61 55 129h-4q-182 0 -182 202v787q0 205 182 205q180 0 180 -205v-395h-295v-389q0 -67 28.5 -105.5t86.5 -38.5q57 0 85 36.5t28 94.5v289h67v-291q0 -117 -78 -166q-96 -89 -96 -151q0 -37 21 -58.5t61 -21.5q75 0 90 74h62
q-26 -125 -154 -125zM141 641h228v336q0 145 -113 145q-115 0 -115 -145v-336z" />
    <glyph glyph-name="Ecaron" unicode="&#x11a;" horiz-adv-x="421" 
d="M217 1544l-119 209h62l80 -147l84 147h61l-121 -209h-47zM383 0h-297v1450h291v-64h-223v-628h206v-66h-206v-626h229v-66z" />
    <glyph glyph-name="ecaron" unicode="&#x11b;" horiz-adv-x="507" 
d="M233 1270l-118 209h61l80 -148l84 148h61l-120 -209h-48zM436 178q0 -94 -48.5 -142t-131.5 -48q-182 0 -182 202v787q0 205 182 205q180 0 180 -205v-395h-295v-389q0 -67 28.5 -105.5t86.5 -38.5q57 0 85 36.5t28 94.5v289h67v-291zM141 641h228v336q0 145 -113 145
q-115 0 -115 -145v-336z" />
    <glyph glyph-name="Gcircumflex" unicode="&#x11c;" horiz-adv-x="536" 
d="M274 1700l-84 -150h-61l123 207h47l119 -207h-64zM408 160q-17 -172 -156 -172q-170 0 -170 205v1062q0 97 50 152t140 55t138.5 -54.5t48.5 -152.5v-337h-68v335q0 150 -119 150q-62 0 -92 -40.5t-30 -109.5v-1054q0 -71 25.5 -109.5t86.5 -38.5q58 0 84 33
q45 55 45 195v387h-125v63h191v-729h-37z" />
    <glyph glyph-name="gcircumflex" unicode="&#x11d;" 
d="M238 1473l-84 -150h-62l123 207h47l119 -207h-64zM227 -262q-182 0 -182 129q0 45 36 80t93 55q-59 7 -85 32t-26 70q0 38 30 69t83 44q-102 29 -102 162v610q0 138 108 178q25 9 58 13q80 12 104.5 26t24.5 62v12h63v-8q0 -61 -27 -80.5t-96 -26.5q1 0 25 -6
q96 -33 96 -170v-612q0 -92 -47.5 -138t-128.5 -46h-6q-62 0 -92.5 -21t-30.5 -55q0 -35 30 -47.5t99 -12.5h49q97 0 137.5 -35t40.5 -98v-8q0 -77 -67.5 -127.5t-175.5 -50.5h-11zM250 250q58 0 86.5 34t28.5 95v612q-2 60 -30.5 94.5t-82.5 34.5q-26 0 -45 -8
q-66 -28 -66 -121v-612q0 -60 27.5 -94.5t81.5 -34.5zM242 -203q72 0 123 34t51 83v8q0 39 -28.5 57.5t-94.5 18.5q-73 -2 -127.5 -31.5t-54.5 -81.5v-2q0 -86 120 -86h11z" />
    <glyph glyph-name="Gbreve" unicode="&#x11e;" horiz-adv-x="536" 
d="M272 1556q-81 0 -114.5 44t-38.5 143h55q5 -75 24.5 -104.5t75.5 -30.5q54 1 77.5 32.5t25.5 102.5h53q-2 -95 -40.5 -141t-117.5 -46zM408 160q-17 -172 -156 -172q-170 0 -170 205v1062q0 97 50 152t140 55t138.5 -54.5t48.5 -152.5v-337h-68v335q0 150 -119 150
q-62 0 -92 -40.5t-30 -109.5v-1054q0 -71 25.5 -109.5t86.5 -38.5q58 0 84 33q45 55 45 195v387h-125v63h191v-729h-37z" />
    <glyph glyph-name="gbreve" unicode="&#x11f;" 
d="M225 1294q-81 0 -114.5 44t-38.5 143h55q5 -75 24.5 -104.5t75.5 -30.5q54 1 77.5 32.5t25.5 102.5h53q-2 -95 -40.5 -141t-117.5 -46zM227 -262q-182 0 -182 129q0 45 36 80t93 55q-59 7 -85 32t-26 70q0 38 30 69t83 44q-102 29 -102 162v610q0 138 108 178q25 9 58 13
q80 12 104.5 26t24.5 62v12h63v-8q0 -61 -27 -80.5t-96 -26.5q1 0 25 -6q96 -33 96 -170v-612q0 -92 -47.5 -138t-128.5 -46h-6q-62 0 -92.5 -21t-30.5 -55q0 -35 30 -47.5t99 -12.5h49q97 0 137.5 -35t40.5 -98v-8q0 -77 -67.5 -127.5t-175.5 -50.5h-11zM250 250
q58 0 86.5 34t28.5 95v612q-2 60 -30.5 94.5t-82.5 34.5q-26 0 -45 -8q-66 -28 -66 -121v-612q0 -60 27.5 -94.5t81.5 -34.5zM242 -203q72 0 123 34t51 83v8q0 39 -28.5 57.5t-94.5 18.5q-73 -2 -127.5 -31.5t-54.5 -81.5v-2q0 -86 120 -86h11z" />
    <glyph glyph-name="Gdotaccent" unicode="&#x120;" horiz-adv-x="536" 
d="M272 1559q-51 0 -51 71q0 72 51 72q52 0 52 -74q0 -69 -52 -69zM408 160q-17 -172 -156 -172q-170 0 -170 205v1062q0 97 50 152t140 55t138.5 -54.5t48.5 -152.5v-337h-68v335q0 150 -119 150q-62 0 -92 -40.5t-30 -109.5v-1054q0 -71 25.5 -109.5t86.5 -38.5
q58 0 84 33q45 55 45 195v387h-125v63h191v-729h-37z" />
    <glyph glyph-name="gdotaccent" unicode="&#x121;" 
d="M240 1286q-52 0 -52 72t52 72q51 0 51 -74q0 -70 -51 -70zM227 -262q-182 0 -182 129q0 45 36 80t93 55q-59 7 -85 32t-26 70q0 38 30 69t83 44q-102 29 -102 162v610q0 138 108 178q25 9 58 13q80 12 104.5 26t24.5 62v12h63v-8q0 -61 -27 -80.5t-96 -26.5q1 0 25 -6
q96 -33 96 -170v-612q0 -92 -47.5 -138t-128.5 -46h-6q-62 0 -92.5 -21t-30.5 -55q0 -35 30 -47.5t99 -12.5h49q97 0 137.5 -35t40.5 -98v-8q0 -77 -67.5 -127.5t-175.5 -50.5h-11zM250 250q58 0 86.5 34t28.5 95v612q-2 60 -30.5 94.5t-82.5 34.5q-26 0 -45 -8
q-66 -28 -66 -121v-612q0 -60 27.5 -94.5t81.5 -34.5zM242 -203q72 0 123 34t51 83v8q0 39 -28.5 57.5t-94.5 18.5q-73 -2 -127.5 -31.5t-54.5 -81.5v-2q0 -86 120 -86h11z" />
    <glyph glyph-name="uni0122" unicode="&#x122;" horiz-adv-x="536" 
d="M408 160q-17 -172 -156 -172q-170 0 -170 205v1062q0 97 50 152t140 55t138.5 -54.5t48.5 -152.5v-337h-68v335q0 150 -119 150q-62 0 -92 -40.5t-30 -109.5v-1054q0 -71 25.5 -109.5t86.5 -38.5q58 0 84 33q45 55 45 195v387h-125v63h191v-729h-37zM221 -342
q52 42 55 125q-8 -14 -18 -14q-39 0 -39 61q0 68 49 68q29 0 40 -20.5t11 -74.5q0 -130 -81 -182z" />
    <glyph glyph-name="uni0123" unicode="&#x123;" 
d="M236 1282q-27 0 -39.5 22t-12.5 72q0 129 82 185l17 -37q-48 -38 -56 -127q3 14 19 14q19 0 29 -12.5t10 -46.5q0 -70 -49 -70zM227 -262q-182 0 -182 129q0 45 36 80t93 55q-59 7 -85 32t-26 70q0 38 30 69t83 44q-102 29 -102 162v610q0 138 108 178q25 9 58 13
q80 12 104.5 26t24.5 62v12h63v-8q0 -61 -27 -80.5t-96 -26.5q1 0 25 -6q96 -33 96 -170v-612q0 -92 -47.5 -138t-128.5 -46h-6q-62 0 -92.5 -21t-30.5 -55q0 -35 30 -47.5t99 -12.5h49q97 0 137.5 -35t40.5 -98v-8q0 -77 -67.5 -127.5t-175.5 -50.5h-11zM250 250
q58 0 86.5 34t28.5 95v612q-2 60 -30.5 94.5t-82.5 34.5q-26 0 -45 -8q-66 -28 -66 -121v-612q0 -60 27.5 -94.5t81.5 -34.5zM242 -203q72 0 123 34t51 83v8q0 39 -28.5 57.5t-94.5 18.5q-73 -2 -127.5 -31.5t-54.5 -81.5v-2q0 -86 120 -86h11z" />
    <glyph glyph-name="Hcircumflex" unicode="&#x124;" horiz-adv-x="542" 
d="M279 1686l-84 -150h-62l123 207h47l119 -207h-64zM389 686h-235v-686h-68v1450h68v-698h235v698h68v-1450h-68v686z" />
    <glyph glyph-name="hcircumflex" unicode="&#x125;" horiz-adv-x="514" 
d="M117 1737l-84 -150h-62l123 207h47l119 -207h-63zM145 0h-65v1499h65v-432q37 115 134 115q86 0 121.5 -55t35.5 -185v-942h-67v944q0 99 -24 137.5t-79 38.5q-67 0 -94 -57.5t-27 -167.5v-895z" />
    <glyph glyph-name="Hbar" unicode="&#x126;" horiz-adv-x="548" 
d="M391 686h-233v-686h-68v1073h-65v64h65v313h68v-313h233v313h68v-313h67v-64h-67v-1073h-68v686zM391 1073h-233v-321h233v321z" />
    <glyph glyph-name="hbar" unicode="&#x127;" horiz-adv-x="514" 
d="M145 0h-65v1311h-72v59h72v129h65v-129h117v-59h-117v-244q37 115 134 115q86 0 121.5 -55t35.5 -185v-942h-67v944q0 99 -24 137.5t-79 38.5q-67 0 -94 -57.5t-27 -167.5v-895z" />
    <glyph glyph-name="Itilde" unicode="&#x128;" horiz-adv-x="323" 
d="M-10 1552q0 76 21 109t69 33q40 0 70 -23q11 -9 27 -24t25 -23.5t21 -15t21 -6.5q25 0 35 18.5t10 71.5h53q-3 -146 -94 -146q-42 0 -70 25q-11 9 -33 30t-36 30t-29 9q-23 0 -30 -18.5t-7 -69.5h-53zM27 0v63h102v1326h-102v61h270v-61h-100v-1326h100v-63h-270z" />
    <glyph glyph-name="itilde" unicode="&#x129;" horiz-adv-x="229" 
d="M-57 1274q0 76 21 108.5t69 32.5q41 0 69 -22q11 -9 27 -24.5t25.5 -23.5t21.5 -15t21 -7q25 0 35 18.5t10 71.5h53q-2 -73 -24 -109t-70 -36q-43 0 -70 24q-12 9 -33 30t-35.5 30.5t-29.5 9.5q-23 0 -30 -18.5t-7 -69.5h-53zM82 0v1171h65v-1171h-65z" />
    <glyph glyph-name="Imacron" unicode="&#x12a;" horiz-adv-x="323" 
d="M31 1636h266v-57h-266v57zM27 0v63h102v1326h-102v61h270v-61h-100v-1326h100v-63h-270z" />
    <glyph glyph-name="imacron" unicode="&#x12b;" horiz-adv-x="229" 
d="M-16 1358h266v-58h-266v58zM82 0v1171h65v-1171h-65z" />
    <glyph glyph-name="Ibreve" unicode="&#x12c;" horiz-adv-x="323" 
d="M164 1544q-81 0 -115 44.5t-39 142.5h56q5 -75 24.5 -105t75.5 -31q54 1 77 33t25 103h54q-2 -95 -40.5 -141t-117.5 -46zM27 0v63h102v1326h-102v61h270v-61h-100v-1326h100v-63h-270z" />
    <glyph glyph-name="ibreve" unicode="&#x12d;" horiz-adv-x="229" 
d="M115 1266q-81 0 -115 44t-39 142h55q5 -74 25 -104t76 -31q54 1 77 32.5t25 102.5h53q-2 -95 -40 -140.5t-117 -45.5zM82 0v1171h65v-1171h-65z" />
    <glyph glyph-name="Iogonek" unicode="&#x12e;" horiz-adv-x="323" 
d="M274 -291q-137 0 -137 129q0 80 88 162h-198v63h102v1326h-102v61h270v-61h-100v-1326h100v-61l2 -2q-104 -90 -104 -160q0 -37 20.5 -58.5t60.5 -21.5q76 0 91 74h61q-26 -125 -154 -125z" />
    <glyph glyph-name="iogonek" unicode="&#x12f;" horiz-adv-x="229" 
d="M115 1284q-45 0 -45 72q0 38 10.5 53.5t36.5 15.5q25 0 35 -15.5t10 -53.5q0 -72 -47 -72zM125 -291q-137 0 -137 129q0 80 94 168v1170q15 -5 33 -5q17 0 32 5v-1174l3 -2q-105 -91 -105 -160q0 -37 21 -58.5t61 -21.5q75 0 90 74h62q-26 -125 -154 -125z" />
    <glyph glyph-name="Idotaccent" unicode="&#x130;" horiz-adv-x="323" 
d="M164 1546q-51 0 -51 72t51 72t51 -74q0 -70 -51 -70zM27 0v63h102v1326h-102v61h270v-61h-100v-1326h100v-63h-270z" />
    <glyph glyph-name="dotlessi" unicode="&#x131;" horiz-adv-x="229" 
d="M82 0v1171h65v-1171h-65z" />
    <glyph glyph-name="IJ" unicode="&#x132;" horiz-adv-x="624" 
d="M27 0v63h102v1326h-102v61h270v-61h-100v-1326h92v-63h-262zM358 61h52q42 0 54.5 22t12.5 91v1276h66v-1278q0 -102 -28 -137t-105 -35h-52v61z" />
    <glyph glyph-name="ij" unicode="&#x133;" horiz-adv-x="460" 
d="M115 1284q-45 0 -45 72q0 38 10.5 53.5t36.5 15.5q25 0 35 -15.5t10 -53.5q0 -72 -47 -72zM346 1284q-45 0 -45 72q0 38 10.5 53.5t36.5 15.5t35.5 -15t9.5 -54q0 -72 -47 -72zM82 1176q15 -5 33 -5q17 0 32 5v-1176h-65v1176zM84 -156h162q37 0 52 23t15 72v1237
q28 -7 33 -7q12 0 33 7v-1239q0 -83 -28 -120.5t-99 -37.5h-168v65z" />
    <glyph glyph-name="Jcircumflex" unicode="&#x134;" horiz-adv-x="483" 
d="M377 1696l-84 -150h-62l123 207h47l119 -207h-63zM233 -12q-92 0 -131 51t-39 156v380h68v-376q0 -74 21 -110t81 -36t81.5 36t21.5 110v1251h67v-1255q0 -104 -40.5 -155.5t-129.5 -51.5z" />
    <glyph glyph-name="jcircumflex" unicode="&#x135;" horiz-adv-x="231" 
d="M123 1417l-84 -149h-62l123 207h47l119 -207h-63zM-23 -166h39q37 0 51.5 22.5t14.5 69.5v1245h68v-1247q0 -82 -29 -119.5t-101 -37.5h-43v67z" />
    <glyph glyph-name="uni0136" unicode="&#x136;" horiz-adv-x="516" 
d="M258 860l-104 -311v-549h-68v1450h68v-651l-15 -189l37 146l232 694h65l-178 -528l199 -922h-70l-150 729zM242 -303q52 42 55 125q-9 -15 -18 -15q-39 0 -39 62q0 68 49 68q29 0 40 -20.5t11 -74.5q0 -130 -82 -182z" />
    <glyph glyph-name="uni0137" unicode="&#x137;" horiz-adv-x="475" 
d="M244 702l-99 -268v-434h-65v1499h65v-833l-8 -162l29 110l209 557h65l-155 -417l176 -754h-68l-133 586zM227 -301q53 43 56 125q-8 -14 -19 -14q-39 0 -39 61q0 68 49 68q29 0 40.5 -20.5t11.5 -74.5q0 -130 -82 -182z" />
    <glyph glyph-name="kgreenlandic" unicode="&#x138;" horiz-adv-x="475" 
d="M244 702l-99 -268v-434h-65v1171h65v-505l-8 -162l29 110l209 557h65l-155 -417l176 -754h-68l-133 586z" />
    <glyph glyph-name="Lacute" unicode="&#x139;" horiz-adv-x="393" 
d="M215 1792h72l-146 -246h-51zM86 0v1450h68v-1384h213v-66h-281z" />
    <glyph glyph-name="lacute" unicode="&#x13a;" horiz-adv-x="229" 
d="M209 1841h72l-146 -246h-51zM82 0v1499h65v-1499h-65z" />
    <glyph glyph-name="uni013B" unicode="&#x13b;" horiz-adv-x="393" 
d="M86 0v1450h68v-1384h213v-66h-281zM180 -326q53 43 56 125q-8 -14 -19 -14q-39 0 -39 61q0 68 49 68q29 0 40.5 -20t11.5 -74q0 -130 -82 -182z" />
    <glyph glyph-name="uni013C" unicode="&#x13c;" horiz-adv-x="229" 
d="M82 0v1499h65v-1499h-65zM68 -324q52 42 55 125q-8 -14 -19 -14q-38 0 -38 61q0 68 49 68q29 0 40 -20t11 -74q0 -130 -82 -182z" />
    <glyph glyph-name="Lcaron" unicode="&#x13d;" horiz-adv-x="393" 
d="M313 1577h60l-64 -231h-45zM86 0v1450h68v-1384h213v-66h-281z" />
    <glyph glyph-name="lcaron" unicode="&#x13e;" horiz-adv-x="229" 
d="M268 1540h60l-64 -231h-45zM82 0v1499h65v-1499h-65z" />
    <glyph glyph-name="Ldot" unicode="&#x13f;" horiz-adv-x="393" 
d="M86 0v1450h68v-1384h213v-66h-281zM336 543q-51 0 -51 71q0 72 51 72t51 -74q0 -69 -51 -69z" />
    <glyph glyph-name="ldot" unicode="&#x140;" horiz-adv-x="331" 
d="M82 0v1499h65v-1499h-65zM276 483q-51 0 -51 72t51 72q52 0 52 -74q0 -70 -52 -70z" />
    <glyph glyph-name="Lslash" unicode="&#x141;" horiz-adv-x="397" 
d="M90 0v721l-67 -23l-17 60l84 28v664h68v-643l108 37l17 -60l-125 -41v-677h213v-66h-281z" />
    <glyph glyph-name="lslash" unicode="&#x142;" horiz-adv-x="243" 
d="M88 0v575l-76 -32l-22 47l98 43v866h66v-835l79 34l21 -49l-100 -45v-604h-66z" />
    <glyph glyph-name="Nacute" unicode="&#x143;" horiz-adv-x="593" 
d="M393 1763h72l-146 -245h-51zM150 0h-64v1450h57l256 -1020l64 -303l-21 379v944h64v-1450h-55l-261 1038l-61 287l21 -369v-956z" />
    <glyph glyph-name="nacute" unicode="&#x144;" horiz-adv-x="512" 
d="M367 1520h71l-145 -246h-51zM145 0h-65v1171h51l8 -129q34 140 142 140q84 0 119.5 -55t35.5 -183v-944h-67v944q0 97 -23.5 137.5t-77.5 40.5q-123 0 -123 -225v-897z" />
    <glyph glyph-name="uni0145" unicode="&#x145;" horiz-adv-x="593" 
d="M150 0h-64v1450h57l256 -1020l64 -303l-21 379v944h64v-1450h-55l-261 1038l-61 287l21 -369v-956zM252 -299q52 42 55 125q-8 -14 -18 -14q-39 0 -39 61q0 68 49 68q29 0 40 -20.5t11 -74.5q0 -130 -82 -182z" />
    <glyph glyph-name="uni0146" unicode="&#x146;" horiz-adv-x="512" 
d="M145 0h-65v1171h51l8 -129q34 140 142 140q84 0 119.5 -55t35.5 -183v-944h-67v944q0 97 -23.5 137.5t-77.5 40.5q-123 0 -123 -225v-897zM213 -305q52 42 55 125q-9 -15 -18 -15q-39 0 -39 62q0 67 49 67q29 0 40 -20t11 -74q0 -130 -82 -182z" />
    <glyph glyph-name="Ncaron" unicode="&#x147;" horiz-adv-x="593" 
d="M268 1518l-118 208h61l80 -147l84 147h61l-121 -208h-47zM150 0h-64v1450h57l256 -1020l64 -303l-21 379v944h64v-1450h-55l-261 1038l-61 287l21 -369v-956z" />
    <glyph glyph-name="ncaron" unicode="&#x148;" horiz-adv-x="512" 
d="M250 1272l-119 209h62l79 -148l84 148h62l-121 -209h-47zM145 0h-65v1171h51l8 -129q34 140 142 140q84 0 119.5 -55t35.5 -183v-944h-67v944q0 97 -23.5 137.5t-77.5 40.5q-123 0 -123 -225v-897z" />
    <glyph glyph-name="Eng" unicode="&#x14a;" horiz-adv-x="593" 
d="M336 -229v63h37q40 0 55.5 22.5t15.5 71.5v97l-254 1013l-61 287l21 -369v-956h-64v1450h57l256 -1020l64 -303l-21 379v944h64v-1526q0 -81 -27.5 -117t-97.5 -36h-45z" />
    <glyph glyph-name="eng" unicode="&#x14b;" horiz-adv-x="512" 
d="M266 -229v63h39q37 0 51.5 22.5t14.5 71.5v1016q0 97 -24 136.5t-79 39.5q-123 0 -123 -225v-895h-65v1171h51l6 -135q34 146 144 146q84 0 119.5 -55t35.5 -185v-1018q0 -81 -26.5 -117t-96.5 -36h-47z" />
    <glyph glyph-name="Omacron" unicode="&#x14c;" horiz-adv-x="548" 
d="M141 1645h267v-58h-267v58zM274 -12q-90 0 -141 53.5t-51 153.5v1060q0 97 50.5 152t141.5 55q92 0 142.5 -55t50.5 -152v-1060q0 -100 -50.5 -153.5t-142.5 -53.5zM274 51q125 0 125 148v1056q0 69 -30.5 108.5t-94.5 39.5q-62 0 -93 -39.5t-31 -108.5v-1056
q0 -69 31 -108.5t93 -39.5z" />
    <glyph glyph-name="omacron" unicode="&#x14d;" horiz-adv-x="512" 
d="M125 1348h266v-58h-266v58zM256 -12q-182 0 -182 202v789q0 99 49.5 151t132.5 52q85 0 133.5 -52t48.5 -151v-789q0 -99 -48.5 -150.5t-133.5 -51.5zM256 49q58 0 86.5 38.5t28.5 105.5v786q0 67 -28.5 105t-86.5 38q-57 0 -86 -37.5t-29 -105.5v-786q0 -67 29 -105.5
t86 -38.5z" />
    <glyph glyph-name="Obreve" unicode="&#x14e;" horiz-adv-x="548" 
d="M274 1552q-81 0 -114.5 44t-38.5 143h55q5 -75 24.5 -104.5t75.5 -30.5q54 1 77.5 32.5t25.5 102.5h53q-2 -95 -40.5 -141t-117.5 -46zM274 -12q-90 0 -141 53.5t-51 153.5v1060q0 97 50.5 152t141.5 55q92 0 142.5 -55t50.5 -152v-1060q0 -100 -50.5 -153.5
t-142.5 -53.5zM274 51q125 0 125 148v1056q0 69 -30.5 108.5t-94.5 39.5q-62 0 -93 -39.5t-31 -108.5v-1056q0 -69 31 -108.5t93 -39.5z" />
    <glyph glyph-name="obreve" unicode="&#x14f;" horiz-adv-x="512" 
d="M256 1272q-81 0 -115 44t-39 142h56q5 -75 24.5 -104.5t75.5 -30.5q54 1 77 32.5t25 102.5h54q-2 -95 -40.5 -140.5t-117.5 -45.5zM256 -12q-182 0 -182 202v789q0 99 49.5 151t132.5 52q85 0 133.5 -52t48.5 -151v-789q0 -99 -48.5 -150.5t-133.5 -51.5zM256 49
q58 0 86.5 38.5t28.5 105.5v786q0 67 -28.5 105t-86.5 38q-57 0 -86 -37.5t-29 -105.5v-786q0 -67 29 -105.5t86 -38.5z" />
    <glyph glyph-name="Ohungarumlaut" unicode="&#x150;" horiz-adv-x="548" 
d="M233 1554h-49l88 213h72zM365 1554h-50l103 213h71zM274 -12q-90 0 -141 53.5t-51 153.5v1060q0 97 50.5 152t141.5 55q92 0 142.5 -55t50.5 -152v-1060q0 -100 -50.5 -153.5t-142.5 -53.5zM274 51q125 0 125 148v1056q0 69 -30.5 108.5t-94.5 39.5q-62 0 -93 -39.5
t-31 -108.5v-1056q0 -69 31 -108.5t93 -39.5z" />
    <glyph glyph-name="ohungarumlaut" unicode="&#x151;" horiz-adv-x="512" 
d="M215 1274h-49l88 213h72zM346 1274h-49l102 213h72zM256 -12q-182 0 -182 202v789q0 99 49.5 151t132.5 52q85 0 133.5 -52t48.5 -151v-789q0 -99 -48.5 -150.5t-133.5 -51.5zM256 49q58 0 86.5 38.5t28.5 105.5v786q0 67 -28.5 105t-86.5 38q-57 0 -86 -37.5t-29 -105.5
v-786q0 -67 29 -105.5t86 -38.5z" />
    <glyph glyph-name="OE" unicode="&#x152;" horiz-adv-x="735" 
d="M399 84q-29 -96 -135 -96q-89 0 -135.5 53t-46.5 154v1060q0 97 47 152t133 55q110 0 137 -94v82h291v-66h-225v-632h209v-66h-209v-620h231v-66h-297v84zM274 51q121 0 121 148v1056q0 148 -123 148q-62 0 -92 -39.5t-30 -108.5v-1056q0 -69 31 -108.5t93 -39.5z" />
    <glyph glyph-name="oe" unicode="&#x153;" horiz-adv-x="802" 
d="M731 178q0 -94 -47.5 -142t-128.5 -48q-117 0 -154 98q-34 -98 -147 -98q-83 0 -131.5 50.5t-48.5 151.5v789q0 99 49.5 151t130.5 52q112 0 149 -99q37 99 152 99q176 0 176 -205v-395h-295v-389q0 -67 28.5 -105.5t86.5 -38.5q57 0 85 36.5t28 94.5v291h67v-293z
M256 49q58 0 86.5 38.5t28.5 105.5v786q0 65 -28.5 104t-86.5 39q-57 0 -86 -37.5t-29 -105.5v-786q0 -67 29 -105.5t86 -38.5zM436 641h230v336q0 145 -115 145t-115 -145v-336z" />
    <glyph glyph-name="Racute" unicode="&#x154;" horiz-adv-x="524" 
d="M352 1792h72l-145 -246h-52zM154 672v-672h-68v1450h141q119 0 171.5 -47t52.5 -162v-346q0 -82 -26 -126.5t-81 -63.5q58 -13 81.5 -57t23.5 -132v-434q0 -55 24 -82h-74q-18 29 -18 82v430q0 88 -28.5 124t-108.5 36h-90zM154 1393v-660h86q145 0 145 162v342
q0 87 -36 121.5t-126 34.5h-69z" />
    <glyph glyph-name="racute" unicode="&#x155;" horiz-adv-x="319" 
d="M266 1505h72l-145 -245h-52zM80 0v1171h51l10 -151q11 80 46.5 115.5t111.5 35.5h10v-73h-18q-87 0 -116.5 -51t-29.5 -183v-864h-65z" />
    <glyph glyph-name="uni0156" unicode="&#x156;" horiz-adv-x="524" 
d="M154 672v-672h-68v1450h141q119 0 171.5 -47t52.5 -162v-346q0 -82 -26 -126.5t-81 -63.5q58 -13 81.5 -57t23.5 -132v-434q0 -55 24 -82h-74q-18 29 -18 82v430q0 88 -28.5 124t-108.5 36h-90zM154 1393v-660h86q145 0 145 162v342q0 87 -36 121.5t-126 34.5h-69z
M225 -319q53 43 56 124q-8 -14 -19 -14q-39 0 -39 62q0 67 49 67q29 0 40.5 -20t11.5 -74q0 -130 -82 -182z" />
    <glyph glyph-name="uni0157" unicode="&#x157;" horiz-adv-x="319" 
d="M80 0v1171h51l10 -151q11 80 46.5 115.5t111.5 35.5h10v-73h-18q-87 0 -116.5 -51t-29.5 -183v-864h-65zM72 -324q52 42 55 125q-8 -14 -18 -14q-39 0 -39 61q0 68 49 68q29 0 40 -20t11 -74q0 -130 -82 -182z" />
    <glyph glyph-name="Rcaron" unicode="&#x158;" horiz-adv-x="524" 
d="M236 1544l-119 209h61l80 -147l84 147h61l-120 -209h-47zM154 672v-672h-68v1450h141q119 0 171.5 -47t52.5 -162v-346q0 -82 -26 -126.5t-81 -63.5q58 -13 81.5 -57t23.5 -132v-434q0 -55 24 -82h-74q-18 29 -18 82v430q0 88 -28.5 124t-108.5 36h-90zM154 1393v-660h86
q145 0 145 162v342q0 87 -36 121.5t-126 34.5h-69z" />
    <glyph glyph-name="rcaron" unicode="&#x159;" horiz-adv-x="319" 
d="M150 1257l-119 209h61l80 -147l84 147h61l-120 -209h-47zM80 0v1171h51l10 -151q11 80 46.5 115.5t111.5 35.5h10v-73h-18q-87 0 -116.5 -51t-29.5 -183v-864h-65z" />
    <glyph glyph-name="Sacute" unicode="&#x15a;" horiz-adv-x="499" 
d="M346 1804h72l-146 -245h-51zM250 -12q-180 0 -180 196v385h67v-381q0 -137 113 -137q61 0 86.5 34t25.5 97v367q0 66 -25 96.5t-95 72.5l-15 9q-38 24 -59.5 40t-45.5 42t-35 59.5t-11 77.5v328q0 89 43.5 138.5t130.5 49.5q173 0 176 -186v-354h-66v348q0 133 -110 133
q-109 0 -109 -131v-322q0 -34 8 -58.5t32 -47.5t40 -34.5t60 -39.5q17 -10 79 -53q35 -27 52.5 -64.5t17.5 -99.5v-373q0 -192 -180 -192z" />
    <glyph glyph-name="sacute" unicode="&#x15b;" horiz-adv-x="477" 
d="M334 1520h72l-146 -246h-51zM238 -12q-85 0 -128 46t-44 146v258h67v-256q3 -133 105 -133q106 0 106 129v221q0 37 -9 65.5t-30.5 50t-39.5 34t-52 31.5q-35 22 -52.5 35.5t-42.5 40t-36.5 62t-11.5 81.5v194q0 95 44 142t124 47q165 0 168 -191v-227h-66v227
q-2 64 -24.5 97.5t-77.5 33.5q-56 0 -78.5 -32.5t-22.5 -96.5v-192q0 -28 7.5 -51.5t15 -38t28.5 -32t30.5 -24t36.5 -23.5q7 -5 11 -7q27 -16 43.5 -27t38.5 -31.5t34 -41.5t21 -52.5t9 -69.5v-227q0 -96 -42.5 -142t-131.5 -46z" />
    <glyph glyph-name="Scircumflex" unicode="&#x15c;" horiz-adv-x="499" 
d="M256 1708l-84 -149h-61l122 206h48l118 -206h-63zM250 -12q-180 0 -180 196v385h67v-381q0 -137 113 -137q61 0 86.5 34t25.5 97v367q0 66 -25 96.5t-95 72.5l-15 9q-38 24 -59.5 40t-45.5 42t-35 59.5t-11 77.5v328q0 89 43.5 138.5t130.5 49.5q173 0 176 -186v-354h-66
v348q0 133 -110 133q-109 0 -109 -131v-322q0 -34 8 -58.5t32 -47.5t40 -34.5t60 -39.5q17 -10 79 -53q35 -27 52.5 -64.5t17.5 -99.5v-373q0 -192 -180 -192z" />
    <glyph glyph-name="scircumflex" unicode="&#x15d;" horiz-adv-x="477" 
d="M246 1417l-84 -149h-62l123 207h47l119 -207h-63zM238 -12q-85 0 -128 46t-44 146v258h67v-256q3 -133 105 -133q106 0 106 129v221q0 37 -9 65.5t-30.5 50t-39.5 34t-52 31.5q-35 22 -52.5 35.5t-42.5 40t-36.5 62t-11.5 81.5v194q0 95 44 142t124 47q165 0 168 -191
v-227h-66v227q-2 64 -24.5 97.5t-77.5 33.5q-56 0 -78.5 -32.5t-22.5 -96.5v-192q0 -28 7.5 -51.5t15 -38t28.5 -32t30.5 -24t36.5 -23.5q7 -5 11 -7q27 -16 43.5 -27t38.5 -31.5t34 -41.5t21 -52.5t9 -69.5v-227q0 -96 -42.5 -142t-131.5 -46z" />
    <glyph glyph-name="uni015E" unicode="&#x15e;" horiz-adv-x="499" 
d="M250 -324q-131 0 -146 125h60q8 -73 86 -73q90 0 90 67q0 34 -21.5 48t-70.5 14h-23v133q-155 12 -155 194v385h67v-381q0 -137 113 -137q61 0 86.5 34t25.5 97v367q0 66 -25 96.5t-95 72.5l-15 9q-38 24 -59.5 40t-45.5 42t-35 59.5t-11 77.5v328q0 89 43.5 138.5
t130.5 49.5q173 0 176 -186v-354h-66v348q0 133 -110 133q-109 0 -109 -131v-322q0 -34 8 -58.5t32 -47.5t40 -34.5t60 -39.5q17 -10 79 -53q35 -27 52.5 -64.5t17.5 -99.5v-373q0 -175 -151 -190v-86q120 -9 120 -107q0 -59 -41 -90t-108 -31z" />
    <glyph glyph-name="uni015F" unicode="&#x15f;" horiz-adv-x="477" 
d="M238 -326q-131 0 -146 125h60q8 -73 86 -73q90 0 90 67q0 34 -21.5 48t-70.5 14h-23v135q-144 12 -147 190v258h67v-256q3 -133 105 -133q106 0 106 129v221q0 37 -9 65.5t-30.5 50t-39.5 34t-52 31.5q-35 22 -52.5 35.5t-42.5 40t-36.5 62t-11.5 81.5v194q0 95 44 142
t124 47q165 0 168 -191v-227h-66v227q-2 64 -24.5 97.5t-77.5 33.5q-56 0 -78.5 -32.5t-22.5 -96.5v-192q0 -28 7.5 -51.5t15 -38t28.5 -32t30.5 -24t36.5 -23.5q7 -5 11 -7q27 -16 43.5 -27t38.5 -31.5t34 -41.5t21 -52.5t9 -69.5v-227q0 -171 -146 -186v-88
q121 -9 121 -107q0 -59 -41 -90t-108 -31z" />
    <glyph glyph-name="Scaron" unicode="&#x160;" horiz-adv-x="499" 
d="M229 1556l-118 209h61l80 -147l84 147h61l-121 -209h-47zM250 -12q-180 0 -180 196v385h67v-381q0 -137 113 -137q61 0 86.5 34t25.5 97v367q0 66 -25 96.5t-95 72.5l-15 9q-38 24 -59.5 40t-45.5 42t-35 59.5t-11 77.5v328q0 89 43.5 138.5t130.5 49.5q173 0 176 -186
v-354h-66v348q0 133 -110 133q-109 0 -109 -131v-322q0 -34 8 -58.5t32 -47.5t40 -34.5t60 -39.5q17 -10 79 -53q35 -27 52.5 -64.5t17.5 -99.5v-373q0 -192 -180 -192z" />
    <glyph glyph-name="scaron" unicode="&#x161;" horiz-adv-x="477" 
d="M217 1272l-119 209h62l80 -148l84 148h61l-121 -209h-47zM238 -12q-85 0 -128 46t-44 146v258h67v-256q3 -133 105 -133q106 0 106 129v221q0 37 -9 65.5t-30.5 50t-39.5 34t-52 31.5q-35 22 -52.5 35.5t-42.5 40t-36.5 62t-11.5 81.5v194q0 95 44 142t124 47
q165 0 168 -191v-227h-66v227q-2 64 -24.5 97.5t-77.5 33.5q-56 0 -78.5 -32.5t-22.5 -96.5v-192q0 -28 7.5 -51.5t15 -38t28.5 -32t30.5 -24t36.5 -23.5q7 -5 11 -7q27 -16 43.5 -27t38.5 -31.5t34 -41.5t21 -52.5t9 -69.5v-227q0 -96 -42.5 -142t-131.5 -46z" />
    <glyph glyph-name="uni0162" unicode="&#x162;" horiz-adv-x="380" 
d="M223 1386v-1386h-67v1386h-140v64h346v-64h-139zM141 -324q53 43 56 125q-8 -14 -19 -14q-39 0 -39 61q0 68 49 68q29 0 40.5 -20t11.5 -74q0 -130 -82 -182z" />
    <glyph glyph-name="uni0163" unicode="&#x163;" horiz-adv-x="317" 
d="M299 0h-29q-64 0 -104 16q-35 13 -48.5 60.5t-13.5 144.5v889h-84v53q38 0 56 6q23 4 28.5 13.5t10.5 42.5q8 41 8 137h47v-191h129v-61h-129v-883q0 -75 8 -108q6 -34 29.5 -46t75.5 -12h16v-61zM150 -330q52 42 55 125q-8 -14 -19 -14q-39 0 -39 61q0 68 50 68
q29 0 40 -20t11 -74q0 -131 -82 -183z" />
    <glyph glyph-name="Tcaron" unicode="&#x164;" horiz-adv-x="380" 
d="M170 1544l-119 209h62l80 -147l83 147h62l-121 -209h-47zM223 1386v-1386h-67v1386h-140v64h346v-64h-139z" />
    <glyph glyph-name="tcaron" unicode="&#x165;" horiz-adv-x="317" 
d="M291 1542h59l-63 -231h-45zM299 0h-29q-64 0 -104 16q-35 13 -48.5 60.5t-13.5 144.5v889h-84v53q38 0 56 6q23 4 28.5 13.5t10.5 42.5q8 41 8 137h47v-191h129v-61h-129v-883q0 -75 8 -108q6 -34 29.5 -46t75.5 -12h16v-61z" />
    <glyph glyph-name="Tbar" unicode="&#x166;" horiz-adv-x="380" 
d="M223 686v-686h-67v686h-93v66h93v634h-140v64h346v-64h-139v-634h92v-66h-92z" />
    <glyph glyph-name="tbar" unicode="&#x167;" horiz-adv-x="317" 
d="M299 0h-29q-64 0 -104 16q-35 13 -48.5 60.5t-13.5 144.5v363h-65v57h65v469h-84v53q38 0 56 6q23 4 28.5 13.5t10.5 42.5q8 41 8 137h47v-191h129v-61h-129v-469h94v-57h-94v-357q0 -75 8 -108q6 -34 29.5 -46t75.5 -12h16v-61z" />
    <glyph glyph-name="Utilde" unicode="&#x168;" horiz-adv-x="530" 
d="M92 1546q0 76 21 109t69 33q40 0 70 -23q11 -9 27 -24t25 -23.5t21 -15.5t21 -7q25 0 35 19t10 72h53q-3 -146 -94 -146q-41 0 -69 25q-11 9 -33 30t-36.5 30t-29.5 9q-23 0 -30 -18.5t-7 -69.5h-53zM264 -12q-178 0 -178 205v1257h68v-1253q0 -146 110 -146
q113 0 113 146v1253h67v-1257q0 -205 -180 -205z" />
    <glyph glyph-name="utilde" unicode="&#x169;" horiz-adv-x="499" 
d="M74 1270q0 76 21 108.5t69 32.5q41 0 69 -22q11 -9 27 -24.5t25.5 -23.5t21.5 -15t21 -7q25 0 35 18.5t10 71.5h53q-2 -73 -24 -109t-70 -36q-43 0 -70 24q-12 9 -33 30t-35.5 30.5t-29.5 9.5q-23 0 -30 -18.5t-7 -69.5h-53zM362 117q-27 -127 -129 -127q-85 0 -121 55
t-36 184v942h67v-944q0 -98 25 -138t78 -40q58 0 83 53t25 174v895h66v-1171h-49z" />
    <glyph glyph-name="Umacron" unicode="&#x16a;" horiz-adv-x="530" 
d="M133 1630h266v-57h-266v57zM264 -12q-178 0 -178 205v1257h68v-1253q0 -146 110 -146q113 0 113 146v1253h67v-1257q0 -205 -180 -205z" />
    <glyph glyph-name="umacron" unicode="&#x16b;" horiz-adv-x="499" 
d="M117 1354h266v-58h-266v58zM362 117q-27 -127 -129 -127q-85 0 -121 55t-36 184v942h67v-944q0 -98 25 -138t78 -40q58 0 83 53t25 174v895h66v-1171h-49z" />
    <glyph glyph-name="Ubreve" unicode="&#x16c;" horiz-adv-x="530" 
d="M266 1538q-81 0 -114.5 43.5t-38.5 142.5h55q5 -75 24.5 -104.5t75.5 -30.5q54 1 77.5 32.5t25.5 102.5h53q-2 -95 -40.5 -140.5t-117.5 -45.5zM264 -12q-178 0 -178 205v1257h68v-1253q0 -146 110 -146q113 0 113 146v1253h67v-1257q0 -205 -180 -205z" />
    <glyph glyph-name="ubreve" unicode="&#x16d;" horiz-adv-x="499" 
d="M248 1262q-81 0 -115 44t-39 142h56q5 -75 24.5 -104.5t75.5 -30.5q54 1 77 32.5t25 102.5h54q-2 -95 -40.5 -140.5t-117.5 -45.5zM362 117q-27 -127 -129 -127q-85 0 -121 55t-36 184v942h67v-944q0 -98 25 -138t78 -40q58 0 83 53t25 174v895h66v-1171h-49z" />
    <glyph glyph-name="Uring" unicode="&#x16e;" horiz-adv-x="530" 
d="M262 1544q-60 0 -98.5 36t-38.5 99q0 60 38.5 98t98.5 38q62 0 100.5 -37.5t38.5 -98.5q0 -63 -38.5 -99t-100.5 -36zM262 1595q37 0 59.5 23.5t22.5 60.5t-22.5 60.5t-59.5 23.5q-35 0 -57.5 -23.5t-22.5 -60.5t22 -60.5t58 -23.5zM264 -12q-178 0 -178 205v1257h68
v-1253q0 -146 110 -146q113 0 113 146v1253h67v-1257q0 -205 -180 -205z" />
    <glyph glyph-name="uring" unicode="&#x16f;" horiz-adv-x="499" 
d="M246 1262q-60 0 -98.5 36t-38.5 99q0 60 38.5 97.5t98.5 37.5q62 0 100.5 -37t38.5 -98q0 -63 -38.5 -99t-100.5 -36zM246 1313q37 0 59.5 23.5t22.5 60.5t-22.5 60.5t-59.5 23.5q-35 0 -57.5 -23.5t-22.5 -60.5t22 -60.5t58 -23.5zM362 117q-27 -127 -129 -127
q-85 0 -121 55t-36 184v942h67v-944q0 -98 25 -138t78 -40q58 0 83 53t25 174v895h66v-1171h-49z" />
    <glyph glyph-name="Uhungarumlaut" unicode="&#x170;" horiz-adv-x="530" 
d="M223 1540h-49l88 213h72zM354 1540h-49l103 213h71zM264 -12q-178 0 -178 205v1257h68v-1253q0 -146 110 -146q113 0 113 146v1253h67v-1257q0 -205 -180 -205z" />
    <glyph glyph-name="uhungarumlaut" unicode="&#x171;" horiz-adv-x="499" 
d="M205 1264h-49l88 213h71zM336 1264h-49l102 213h72zM362 117q-27 -127 -129 -127q-85 0 -121 55t-36 184v942h67v-944q0 -98 25 -138t78 -40q58 0 83 53t25 174v895h66v-1171h-49z" />
    <glyph glyph-name="Uogonek" unicode="&#x172;" horiz-adv-x="530" 
d="M344 -276q-137 0 -137 129q0 65 61 135h-4q-178 0 -178 205v1257h68v-1253q0 -146 110 -146q113 0 113 146v1253h67v-1257q0 -138 -79 -183q-101 -87 -101 -155q0 -37 21 -58.5t61 -21.5q75 0 90 73h62q-26 -124 -154 -124z" />
    <glyph glyph-name="uogonek" unicode="&#x173;" horiz-adv-x="499" 
d="M397 -291q-137 0 -137 129q0 89 109 180l-7 99q-27 -127 -129 -127q-85 0 -121 55t-36 184v942h67v-944q0 -98 25 -138t78 -40q58 0 83 53t25 174v895h66v-1169l2 -2q-105 -91 -105 -160q0 -37 21 -58.5t61 -21.5q75 0 90 74h62q-26 -125 -154 -125z" />
    <glyph glyph-name="Wcircumflex" unicode="&#x174;" horiz-adv-x="714" 
d="M365 1696l-84 -150h-62l123 207h47l119 -207h-64zM209 0h-62l-98 1450h66l65 -1114l4 -217l19 213l135 1118h45l127 -1114l16 -217l6 225l70 1106h64l-103 -1450h-61l-133 1133l-9 213l-10 -213z" />
    <glyph glyph-name="wcircumflex" unicode="&#x175;" horiz-adv-x="679" 
d="M348 1417l-84 -149h-61l123 207h47l119 -207h-64zM207 0h-60l-112 1171h61l78 -862l8 -203l19 203l118 862h41l119 -862l17 -203l10 203l78 862h61l-117 -1171h-57l-117 846l-14 209l-14 -209z" />
    <glyph glyph-name="Ycircumflex" unicode="&#x176;" horiz-adv-x="454" 
d="M236 1688l-84 -150h-62l123 207h47l119 -207h-64zM193 0v512l-164 938h67l107 -629l24 -231l25 231l104 629h68l-164 -938v-512h-67z" />
    <glyph glyph-name="ycircumflex" unicode="&#x177;" horiz-adv-x="440" 
d="M225 1409l-84 -149h-61l123 206h47l119 -206h-64zM61 -219v65h37q44 0 66 21t26 78l11 84l-168 1142h67l113 -817l20 -254l13 254l94 817h66l-150 -1230q-11 -91 -43.5 -125.5t-108.5 -34.5h-43z" />
    <glyph glyph-name="Ydieresis" unicode="&#x178;" horiz-adv-x="454" 
d="M152 1546q-43 0 -43 66q0 63 43 63t43 -65q0 -64 -43 -64zM303 1546q-45 0 -45 66q0 63 45 63q43 0 43 -65q0 -64 -43 -64zM193 0v512l-164 938h67l107 -629l24 -231l25 231l104 629h68l-164 -938v-512h-67z" />
    <glyph glyph-name="Zacute" unicode="&#x179;" horiz-adv-x="421" 
d="M311 1792h72l-145 -246h-52zM33 0v57l276 1327h-258v66h326v-55l-273 -1329h277v-66h-348z" />
    <glyph glyph-name="zacute" unicode="&#x17a;" horiz-adv-x="399" 
d="M299 1513h72l-146 -245h-51zM37 0v49l262 1059h-252v63h315v-61l-256 -1044h263v-66h-332z" />
    <glyph glyph-name="Zdotaccent" unicode="&#x17b;" horiz-adv-x="421" 
d="M215 1546q-51 0 -51 72t51 72t51 -74q0 -70 -51 -70zM33 0v57l276 1327h-258v66h326v-55l-273 -1329h277v-66h-348z" />
    <glyph glyph-name="zdotaccent" unicode="&#x17c;" horiz-adv-x="399" 
d="M207 1268q-51 0 -51 71q0 72 51 72t51 -74q0 -69 -51 -69zM37 0v49l262 1059h-252v63h315v-61l-256 -1044h263v-66h-332z" />
    <glyph glyph-name="Zcaron" unicode="&#x17d;" horiz-adv-x="421" 
d="M195 1544l-119 209h61l80 -147l84 147h61l-120 -209h-47zM33 0v57l276 1327h-258v66h326v-55l-273 -1329h277v-66h-348z" />
    <glyph glyph-name="zcaron" unicode="&#x17e;" horiz-adv-x="399" 
d="M186 1266l-118 209h61l80 -148l84 148h61l-121 -209h-47zM37 0v49l262 1059h-252v63h315v-61l-256 -1044h263v-66h-332z" />
    <glyph glyph-name="uni0192" unicode="&#x192;" horiz-adv-x="311" 
d="M188 -35q0 -121 -33 -167t-118 -46h-33v64h25q56 0 74 30t18 125v705h-115v61h115v535q0 132 35 180.5t125 48.5h24v-61h-16q-61 0 -81 -33t-20 -139v-531h117v-61h-117v-711z" />
    <glyph glyph-name="Aringacute" unicode="&#x1fa;" horiz-adv-x="458" 
d="M324 1987h71l-145 -246h-51zM96 0h-67l155 1403q-44 11 -71 46t-27 85q0 60 38.5 97.5t98.5 37.5q62 0 100.5 -37t38.5 -98q0 -50 -27 -85t-71 -46l166 -1403h-70l-30 287h-205zM223 1450q37 0 59.5 23.5t22.5 60.5t-22.5 60.5t-59.5 23.5q-35 0 -57.5 -23.5t-22.5 -60.5
t22 -60.5t58 -23.5zM133 348h189l-82 746l-15 299l-16 -299z" />
    <glyph glyph-name="aringacute" unicode="&#x1fb;" horiz-adv-x="505" 
d="M344 1829h72l-146 -246h-51zM248 1245q-60 0 -98.5 36t-38.5 99q0 60 38.5 98t98.5 38q62 0 100.5 -37.5t38.5 -98.5q0 -63 -38.5 -99t-100.5 -36zM248 1296q37 0 59.5 23.5t22.5 60.5t-22.5 60.5t-59.5 23.5q-35 0 -57.5 -23.5t-22.5 -60.5t22 -60.5t58 -23.5zM371 141
q-13 -75 -54 -114t-98 -39q-83 0 -118 50.5t-35 170.5v180q0 124 53 180q14 16 36.5 30.5t36 20.5t44.5 19q73 31 92 47q37 30 37 84v221q0 131 -113 131t-113 -135v-244h-65v248q2 89 46.5 140t131.5 51q88 0 133 -50t45 -139v-993h-51zM231 51q60 0 97 53.5t37 137.5v417
q-8 -16 -26.5 -29.5t-32.5 -20t-42 -17.5q-64 -26 -92 -60q-39 -42 -39 -143v-168q0 -90 23.5 -130t74.5 -40z" />
    <glyph glyph-name="AEacute" unicode="&#x1fc;" horiz-adv-x="649" 
d="M395 1796h72l-145 -246h-52zM334 287h-203l-41 -287h-65l217 1450h362v-66h-291l49 -632h226v-66h-221l47 -620h196v-66h-256zM141 348h189l-51 744l-5 292l-26 -292z" />
    <glyph glyph-name="aeacute" unicode="&#x1fd;" horiz-adv-x="796" 
d="M496 1499h71l-145 -246h-51zM725 178q0 -95 -47.5 -142.5t-132.5 -47.5q-145 0 -168 147q-16 -74 -58 -109.5t-100 -35.5q-83 0 -118 50t-35 171v186q0 112 53 181q31 33 117 69q35 13 52 21t38 23t30 36t9 51v213q0 131 -111 131q-113 0 -113 -135v-233h-65v235
q0 91 44.5 142t129.5 51q112 0 147 -90q38 90 150 90q178 0 178 -205v-395h-295v-389q0 -67 28.5 -105.5t86.5 -38.5q57 0 85.5 36.5t28.5 94.5v291h66v-293zM430 641h229v336q0 145 -114 145q-115 0 -115 -145v-336zM233 51q59 0 95.5 54.5t36.5 138.5v426
q-21 -41 -101 -72q-68 -27 -92 -57q-39 -46 -39 -144v-174q0 -90 24.5 -131t75.5 -41z" />
    <glyph glyph-name="Oslashacute" unicode="&#x1fe;" horiz-adv-x="552" 
d="M371 1872h71l-145 -246h-51zM276 -12q-38 0 -69 8l-21 -180h-55l27 204q-76 51 -76 175v1060q0 98 50 152.5t144 54.5q42 0 58 -6l22 170h56l-25 -190q84 -49 84 -181v-1060q0 -100 -51 -153.5t-144 -53.5zM147 199q0 -53 21 -90l158 1286q-19 8 -50 8q-63 0 -96 -40
t-33 -108v-1056zM276 49q64 0 97 40t33 110v1056q0 59 -29 103l-162 -1297q27 -12 61 -12z" />
    <glyph glyph-name="oslashacute" unicode="&#x1ff;" horiz-adv-x="514" 
d="M362 1575h72l-145 -246h-51zM258 -12q-39 0 -68 10l-28 -182h-49l32 202q-71 50 -71 172v789q0 99 50.5 151t133.5 52q28 0 70 -11l24 160h49l-30 -184q69 -53 69 -168v-789q0 -99 -48.5 -150.5t-133.5 -51.5zM141 193q0 -41 19 -89l157 1002q-26 16 -59 16
q-57 0 -87 -38t-30 -105v-786zM258 49q58 0 87.5 38.5t29.5 105.5v786q0 51 -19 82l-155 -998q28 -14 57 -14z" />
    <glyph glyph-name="uni0218" unicode="&#x218;" horiz-adv-x="499" 
d="M250 -12q-180 0 -180 196v385h67v-381q0 -137 113 -137q61 0 86.5 34t25.5 97v367q0 66 -25 96.5t-95 72.5l-15 9q-38 24 -59.5 40t-45.5 42t-35 59.5t-11 77.5v328q0 89 43.5 138.5t130.5 49.5q173 0 176 -186v-354h-66v348q0 133 -110 133q-109 0 -109 -131v-322
q0 -34 8 -58.5t32 -47.5t40 -34.5t60 -39.5q17 -10 79 -53q35 -27 52.5 -64.5t17.5 -99.5v-373q0 -192 -180 -192zM203 -340q52 42 55 125q-8 -14 -18 -14q-39 0 -39 61q0 68 49 68q29 0 40 -20.5t11 -74.5q0 -130 -82 -182z" />
    <glyph glyph-name="uni0219" unicode="&#x219;" horiz-adv-x="477" 
d="M238 -12q-85 0 -128 46t-44 146v258h67v-256q3 -133 105 -133q106 0 106 129v221q0 37 -9 65.5t-30.5 50t-39.5 34t-52 31.5q-35 22 -52.5 35.5t-42.5 40t-36.5 62t-11.5 81.5v194q0 95 44 142t124 47q165 0 168 -191v-227h-66v227q-2 64 -24.5 97.5t-77.5 33.5
q-56 0 -78.5 -32.5t-22.5 -96.5v-192q0 -28 7.5 -51.5t15 -38t28.5 -32t30.5 -24t36.5 -23.5q7 -5 11 -7q27 -16 43.5 -27t38.5 -31.5t34 -41.5t21 -52.5t9 -69.5v-227q0 -96 -42.5 -142t-131.5 -46zM193 -338q52 42 55 125q-8 -14 -19 -14q-39 0 -39 61q0 68 50 68
q29 0 40 -20.5t11 -74.5q0 -130 -82 -182z" />
    <glyph glyph-name="uni0237" unicode="&#x237;" horiz-adv-x="231" 
d="M-23 -166h39q37 0 51.5 22.5t14.5 69.5v1245h68v-1247q0 -82 -29 -119.5t-101 -37.5h-43v67z" />
    <glyph glyph-name="uni0245" unicode="&#x245;" horiz-adv-x="458" 
d="M96 0h-67l161 1450h68l172 -1450h-70l-120 1094l-15 299l-16 -299z" />
    <glyph glyph-name="circumflex" unicode="&#x2c6;" 
d="M252 1427l-84 -149h-62l123 207h47l119 -207h-63z" />
    <glyph glyph-name="caron" unicode="&#x2c7;" 
d="M227 1276l-118 209h61l80 -148l84 148h61l-121 -209h-47z" />
    <glyph glyph-name="breve" unicode="&#x2d8;" 
d="M244 1276q-81 0 -115 44t-39 142h55q5 -74 25 -104t76 -31q54 1 77 32.5t25 102.5h53q-2 -95 -40 -140.5t-117 -45.5z" />
    <glyph glyph-name="dotaccent" unicode="&#x2d9;" horiz-adv-x="505" 
d="M246 1278q-51 0 -51 72q0 71 51 71t51 -73q0 -70 -51 -70z" />
    <glyph glyph-name="ring" unicode="&#x2da;" 
d="M248 1282q-60 0 -98.5 36t-38.5 99q0 60 38.5 97.5t98.5 37.5q62 0 100.5 -37t38.5 -98q0 -63 -38.5 -99t-100.5 -36zM248 1333q37 0 59.5 23.5t22.5 60.5t-22.5 60.5t-59.5 23.5q-35 0 -57.5 -23.5t-22.5 -60.5t22 -60.5t58 -23.5z" />
    <glyph glyph-name="ogonek" unicode="&#x2db;" 
d="M274 -291q-137 0 -137 129q0 93 121 191l41 -29q-104 -90 -104 -160q0 -37 20.5 -58.5t60.5 -21.5q76 0 91 74h61q-26 -125 -154 -125z" />
    <glyph glyph-name="tilde" unicode="&#x2dc;" 
d="M82 1282q0 76 21 108.5t69 32.5q42 0 70 -22q11 -9 27 -24t25 -23.5t21 -15.5t21 -7q25 0 35 18.5t10 71.5h53q-2 -73 -24 -109t-70 -36q-43 0 -70 24q-12 9 -33 30t-35.5 30.5t-29.5 9.5q-23 0 -30 -18.5t-7 -69.5h-53z" />
    <glyph glyph-name="hungarumlaut" unicode="&#x2dd;" horiz-adv-x="505" 
d="M195 1278h-50l88 213h72zM326 1278h-50l103 213h72z" />
    <glyph glyph-name="uni03BC" unicode="&#x3bc;" 
d="M252 -12q-83 0 -107 90v-475h-65v1568h67v-925q0 -97 22.5 -146t80.5 -49t83 52.5t25 172.5v895h66v-1171h-49l-8 106q-27 -118 -115 -118z" />
    <glyph glyph-name="pi" unicode="&#x3c0;" horiz-adv-x="753" 
d="M504 1391h-258v-1391h-68v1391h-143v59h680v-59h-144v-1233q0 -53 17.5 -74t66.5 -21h52v-63h-60q-81 0 -112 36t-31 118v1237z" />
    <glyph glyph-name="uni0E3F" unicode="&#xe3f;" horiz-adv-x="559" 
d="M254 -164v164h-170v1450h170v147h55v-149q92 -8 134 -55t42 -148v-297q0 -82 -26 -126.5t-82 -63.5q60 -13 87.5 -58.5t27.5 -130.5v-360q0 -107 -42 -155t-141 -54v-164h-55zM150 1393v-607h104v607h-104zM420 1239q0 135 -111 150v-601q111 21 111 160v291zM254 61v666
h-104v-666h104zM424 569q0 73 -27 111t-88 45v-662q64 4 89.5 38.5t25.5 113.5v354z" />
    <glyph glyph-name="Wgrave" unicode="&#x1e80;" horiz-adv-x="714" 
d="M217 1761h70l100 -213h-51zM209 0h-62l-98 1450h66l65 -1114l4 -217l19 213l135 1118h45l127 -1114l16 -217l6 225l70 1106h64l-103 -1450h-61l-133 1133l-9 213l-10 -213z" />
    <glyph glyph-name="wgrave" unicode="&#x1e81;" horiz-adv-x="679" 
d="M197 1483h69l101 -213h-52zM207 0h-60l-112 1171h61l78 -862l8 -203l19 203l118 862h41l119 -862l17 -203l10 203l78 862h61l-117 -1171h-57l-117 846l-14 209l-14 -209z" />
    <glyph glyph-name="Wacute" unicode="&#x1e82;" horiz-adv-x="714" 
d="M457 1792h71l-145 -246h-51zM209 0h-62l-98 1450h66l65 -1114l4 -217l19 213l135 1118h45l127 -1114l16 -217l6 225l70 1106h64l-103 -1450h-61l-133 1133l-9 213l-10 -213z" />
    <glyph glyph-name="wacute" unicode="&#x1e83;" horiz-adv-x="679" 
d="M436 1513h72l-146 -245h-51zM207 0h-60l-112 1171h61l78 -862l8 -203l19 203l118 862h41l119 -862l17 -203l10 203l78 862h61l-117 -1171h-57l-117 846l-14 209l-14 -209z" />
    <glyph glyph-name="Wdieresis" unicode="&#x1e84;" horiz-adv-x="714" 
d="M285 1563q-43 0 -43 65q0 64 43 64t43 -66q0 -63 -43 -63zM436 1563q-45 0 -45 65q0 64 45 64q43 0 43 -66q0 -63 -43 -63zM209 0h-62l-98 1450h66l65 -1114l4 -217l19 213l135 1118h45l127 -1114l16 -217l6 225l70 1106h64l-103 -1450h-61l-133 1133l-9 213l-10 -213z
" />
    <glyph glyph-name="wdieresis" unicode="&#x1e85;" horiz-adv-x="679" 
d="M264 1276q-43 0 -43 65q0 64 43 64t43 -66q0 -63 -43 -63zM416 1276q-45 0 -45 65q0 64 45 64q43 0 43 -66q0 -63 -43 -63zM207 0h-60l-112 1171h61l78 -862l8 -203l19 203l118 862h41l119 -862l17 -203l10 203l78 862h61l-117 -1171h-57l-117 846l-14 209l-14 -209z" />
    <glyph glyph-name="Ygrave" unicode="&#x1ef2;" horiz-adv-x="454" 
d="M84 1753h70l100 -213h-51zM193 0v512l-164 938h67l107 -629l24 -231l25 231l104 629h68l-164 -938v-512h-67z" />
    <glyph glyph-name="ygrave" unicode="&#x1ef3;" horiz-adv-x="440" 
d="M80 1475h70l100 -213h-51zM61 -219v65h37q44 0 66 21t26 78l11 84l-168 1142h67l113 -817l20 -254l13 254l94 817h66l-150 -1230q-11 -91 -43.5 -125.5t-108.5 -34.5h-43z" />
    <glyph glyph-name="figuredash" unicode="&#x2012;" horiz-adv-x="618" 
d="M563 561h-506v66h506v-66z" />
    <glyph glyph-name="endash" unicode="&#x2013;" horiz-adv-x="536" 
d="M481 561h-424v66h424v-66z" />
    <glyph glyph-name="emdash" unicode="&#x2014;" horiz-adv-x="673" 
d="M616 561h-559v66h559v-66z" />
    <glyph glyph-name="uni2015" unicode="&#x2015;" horiz-adv-x="823" 
d="M768 561h-711v66h711v-66z" />
    <glyph glyph-name="uni2016" unicode="&#x2016;" horiz-adv-x="434" 
d="M86 -213v1907h66v-1907h-66zM285 -213v1907h63v-1907h-63z" />
    <glyph glyph-name="underscoredbl" unicode="&#x2017;" horiz-adv-x="389" 
d="M358 0h-327v61h327v-61zM358 -152h-327v62h327v-62z" />
    <glyph glyph-name="quoteleft" unicode="&#x2018;" horiz-adv-x="288" 
d="M143 1161q-30 0 -42.5 23.5t-12.5 87.5q0 148 96 207l15 -37q-56 -46 -64 -137q9 12 21 12q39 0 39 -74q0 -45 -11.5 -63.5t-40.5 -18.5z" />
    <glyph glyph-name="quoteright" unicode="&#x2019;" horiz-adv-x="288" 
d="M88 1188q62 58 64 137q-3 -12 -21 -12q-39 0 -39 73q0 44 12 63t39 19q30 0 43 -23t13 -87q0 -156 -97 -207z" />
    <glyph glyph-name="quotesinglbase" unicode="&#x201a;" horiz-adv-x="288" 
d="M88 -135q62 50 64 139q-3 -12 -21 -12q-39 0 -39 74q0 44 12 62.5t39 18.5q30 0 43 -23t13 -87q0 -152 -97 -209z" />
    <glyph glyph-name="uni201B" unicode="&#x201b;" horiz-adv-x="288" 
d="M186 1151q-96 53 -96 207q0 64 12.5 87t42.5 23q29 0 40.5 -18.5t11.5 -63.5q0 -73 -39 -73q-12 0 -21 12q7 -84 64 -137z" />
    <glyph glyph-name="quotedblleft" unicode="&#x201c;" horiz-adv-x="458" 
d="M143 1161q-30 0 -42.5 23.5t-12.5 87.5q0 148 96 207l15 -37q-57 -53 -64 -137q9 12 21 12q39 0 39 -74q0 -45 -11.5 -63.5t-40.5 -18.5zM313 1161q-32 0 -44.5 23.5t-12.5 87.5q0 72 25.5 126t70.5 81l17 -37q-59 -55 -66 -137q9 12 23 12q39 0 39 -74q0 -82 -52 -82z
" />
    <glyph glyph-name="quotedblright" unicode="&#x201d;" horiz-adv-x="458" 
d="M88 1188q62 58 64 137q-3 -12 -21 -12q-39 0 -39 73q0 44 12 63t39 19q30 0 43 -23t13 -87q0 -150 -97 -207zM258 1188q57 57 64 137q-9 -12 -23 -12q-19 0 -28 15.5t-9 57.5q0 44 12 63t39 19q30 0 43 -23t13 -87q0 -150 -97 -207z" />
    <glyph glyph-name="quotedblbase" unicode="&#x201e;" horiz-adv-x="458" 
d="M88 -135q62 50 64 139q-3 -12 -21 -12q-39 0 -39 74q0 44 12 62.5t39 18.5q30 0 43 -23t13 -87q0 -152 -97 -209zM258 -135q57 49 64 139q-9 -12 -23 -12q-19 0 -28 16t-9 58q0 44 12 62.5t39 18.5q30 0 43 -23t13 -87q0 -152 -97 -209z" />
    <glyph glyph-name="uni201F" unicode="&#x201f;" horiz-adv-x="458" 
d="M186 1151q-96 59 -96 207q0 64 12.5 87t42.5 23q29 0 40.5 -18.5t11.5 -63.5q0 -73 -39 -73q-12 0 -21 12q7 -84 64 -137zM354 1151q-96 63 -96 207q0 64 12.5 87t44.5 23q52 0 52 -82q0 -73 -39 -73q-12 0 -23 14q7 -84 66 -139z" />
    <glyph glyph-name="dagger" unicode="&#x2020;" horiz-adv-x="456" 
d="M260 977v-1018h-63v1018h-150v61h150v449h63v-449h150v-61h-150z" />
    <glyph glyph-name="daggerdbl" unicode="&#x2021;" horiz-adv-x="456" 
d="M260 475v-516h-63v516h-150v62h150v440h-150v61h150v449h63v-449h150v-61h-150v-440h150v-62h-150z" />
    <glyph glyph-name="bullet" unicode="&#x2022;" horiz-adv-x="356" 
d="M178 508q-84 0 -84 84t84 84q43 0 63.5 -19t20.5 -65q0 -84 -84 -84z" />
    <glyph glyph-name="ellipsis" unicode="&#x2026;" horiz-adv-x="800" 
d="M170 -8q-29 0 -39 16.5t-10 61.5q0 42 11 58.5t38 16.5q29 0 39 -16t10 -59t-11.5 -60.5t-37.5 -17.5zM399 -8q-27 0 -38 17t-11 61q0 42 12 58.5t39 16.5t37.5 -16.5t10.5 -58.5q0 -43 -11.5 -60.5t-38.5 -17.5zM631 -8q-29 0 -39 16.5t-10 61.5q0 42 12 58.5t39 16.5
q26 0 36.5 -16t10.5 -59q0 -44 -11 -61t-38 -17z" />
    <glyph glyph-name="perthousand" unicode="&#x2030;" horiz-adv-x="1251" 
d="M219 823q-149 0 -149 185v278q0 85 38 130.5t113 45.5q150 0 150 -176v-278q0 -87 -38 -136t-114 -49zM678 1450h61l-553 -1450h-63zM219 881q94 0 94 131v272q0 64 -22.5 94.5t-69.5 30.5q-94 0 -94 -125v-272q0 -131 92 -131zM641 -12q-149 0 -149 184v277
q0 85 37 131.5t112 46.5t112.5 -46.5t37.5 -131.5v-277q0 -87 -37.5 -135.5t-112.5 -48.5zM1032 -12q-151 0 -151 184v277q0 85 38 131.5t113 46.5q73 0 111.5 -47t38.5 -131v-277q0 -87 -37.5 -135.5t-112.5 -48.5zM641 45q92 0 92 131v270q0 127 -92 127q-49 0 -70.5 -32
t-21.5 -95v-270q0 -131 92 -131zM1032 45q92 0 92 131v270q0 127 -92 127q-94 0 -94 -127v-270q0 -131 94 -131z" />
    <glyph glyph-name="uni2032" unicode="&#x2032;" horiz-adv-x="272" 
d="M55 1047l90 403h72l-113 -403h-49z" />
    <glyph glyph-name="uni2033" unicode="&#x2033;" horiz-adv-x="434" 
d="M55 1047l88 403h72l-111 -403h-49zM201 1047l112 403h70l-133 -403h-49z" />
    <glyph glyph-name="uni2034" unicode="&#x2034;" 
d="M125 1450v-127q0 -72 -2 -115q0 -158 -8 -221h-33q-6 69 -6 96q-6 82 -6 240v127h55zM281 1450v-127q0 -72 -2 -115q0 -135 -11 -221h-32l-7 96q-1 28 -2.5 80t-2.5 92t-1 68v127h58zM436 1450v-127q0 -72 -2 -115q-4 -155 -12 -221h-33l-6 96q-4 164 -4 240v127h57z" />
    <glyph glyph-name="guilsinglleft" unicode="&#x2039;" horiz-adv-x="362" 
d="M238 256l-185 342v4l174 359h68l-176 -361l188 -344h-69z" />
    <glyph glyph-name="guilsinglright" unicode="&#x203a;" horiz-adv-x="362" 
d="M55 256l189 346l-176 359h65l176 -359v-4l-184 -342h-70z" />
    <glyph glyph-name="exclamdbl" unicode="&#x203c;" horiz-adv-x="573" 
d="M205 1450v-170q0 -42 -1 -173t-1 -214l-6 -424q-1 -51 -2 -104t-1.5 -80t-0.5 -33q-4 4 -23 4q-21 0 -25 -4l-4 217q-2 136 -6 424q0 83 -1 214.5t-1 172.5v170h72zM438 1450v-170q0 -42 -1 -173t-1 -214q-4 -304 -4 -424l-4 -217q-12 4 -25 4q-20 0 -24 -4l-4 217
q0 120 -4 424q0 83 -1 214.5t-1 172.5v170h69zM170 -10q-29 0 -41 17.5t-12 60.5q0 42 13 59.5t40 17.5q29 0 40 -17t11 -60t-11 -60.5t-40 -17.5zM403 -10q-29 0 -41 17.5t-12 60.5q0 42 13 59.5t43 17.5q29 0 40 -17t11 -60t-12.5 -60.5t-41.5 -17.5z" />
    <glyph glyph-name="uni203D" unicode="&#x203d;" horiz-adv-x="571" 
d="M322 264q-4 4 -29 4t-29 -4v29q0 76 -2 86q0 49 -1 203t-1 247q-2 172 -2 451v123q-50 -7 -76 -46t-26 -100v-358h-64v361q0 94 51 148t146 54q96 0 146 -53.5t50 -148.5v-220q0 -81 -16 -143q-10 -36 -23.5 -68.5t-36.5 -81.5t-30 -65q-57 -124 -57 -309v-109zM319 1280
q0 -121 -2 -201q0 -286 -8 -499q15 129 68 237q45 99 45 223v217q0 131 -103 146v-123zM293 -10q-29 0 -41 17.5t-12 60.5q0 42 12.5 59.5t42.5 17.5q29 0 39 -16.5t10 -60.5q0 -43 -11 -60.5t-40 -17.5z" />
    <glyph glyph-name="fraction" unicode="&#x2044;" horiz-adv-x="675" 
d="M354 817l199 658l61 -17l-237 -647zM324 659l-201 -682l-66 19l244 670z" />
    <glyph glyph-name="uni2070" unicode="&#x2070;" horiz-adv-x="307" 
d="M156 752q-52 0 -82.5 29t-30.5 79v490q0 51 31 79.5t82 28.5q53 0 81.5 -28t28.5 -80v-490q0 -50 -30 -79t-80 -29zM156 801q57 0 57 61v484q0 65 -57 65q-60 0 -60 -65v-484q0 -61 60 -61z" />
    <glyph glyph-name="uni2074" unicode="&#x2074;" horiz-adv-x="290" 
d="M231 911v-153h-47v153h-159v43l153 498h53v-496h52v-45h-52zM74 956h110v308l13 145l-31 -143z" />
    <glyph glyph-name="uni2075" unicode="&#x2075;" horiz-adv-x="299" 
d="M150 752q-111 0 -111 108v129h51v-127q0 -61 60 -61q57 0 57 61v256q0 68 -53 68q-47 0 -62 -64l-8 -37l-45 9l27 358h180v-4q0 -30 -7 -38.5t-36 -8.5h-92q-2 -54 -17 -230q21 64 80 64q84 0 84 -109v-266q0 -108 -108 -108z" />
    <glyph glyph-name="uni2076" unicode="&#x2076;" horiz-adv-x="303" 
d="M266 864q0 -112 -112 -112q-111 0 -111 112v486q0 110 109 110q58 0 84 -28t26 -82v-142h-51v142q0 63 -59 63q-58 0 -58 -63v-256q24 59 82 59q90 0 90 -109v-180zM154 801q59 0 59 63v172q0 72 -57 72q-25 0 -41 -18t-21 -48v-178q0 -63 60 -63z" />
    <glyph glyph-name="uni2077" unicode="&#x2077;" horiz-adv-x="237" 
d="M47 758q21 265 115 641h-142v53h195v-37q-95 -351 -115 -657h-53z" />
    <glyph glyph-name="uni2078" unicode="&#x2078;" horiz-adv-x="303" 
d="M152 752q-113 0 -113 108v160q0 75 53 96q-47 21 -47 92v144q0 52 28 80t79 28q108 0 108 -108v-144q0 -68 -49 -92q53 -21 53 -96v-160q0 -108 -112 -108zM152 1139q57 0 57 67v146q0 61 -57 61q-58 0 -58 -61v-146q0 -67 58 -67zM152 801q61 0 61 59v162q0 68 -61 68
q-62 0 -62 -68v-162q0 -27 16 -43t46 -16z" />
    <glyph glyph-name="uni2079" unicode="&#x2079;" horiz-adv-x="303" 
d="M152 752q-109 0 -109 112v142h51v-142q0 -33 13 -48t45 -15q57 0 57 63v254q-16 -57 -80 -57q-92 0 -92 110v175q0 114 113 114q110 0 110 -114v-484q0 -110 -108 -110zM150 1108q48 0 59 63v175q0 35 -14 51t-45 16q-60 0 -60 -67v-164q0 -74 60 -74z" />
    <glyph glyph-name="uni207A" unicode="&#x207a;" horiz-adv-x="315" 
d="M182 1094v-78h-49v78h-80v47h80v78h49v-78h78v-47h-78z" />
    <glyph glyph-name="uni207B" unicode="&#x207b;" horiz-adv-x="315" 
d="M55 1094v51h203v-51h-203z" />
    <glyph glyph-name="uni207C" unicode="&#x207c;" horiz-adv-x="315" 
d="M55 1141v49h203v-49h-203zM55 1018v49h203v-49h-203z" />
    <glyph glyph-name="uni207D" unicode="&#x207d;" horiz-adv-x="176" 
d="M47 1434q0 97 26.5 134.5t98.5 37.5v-54q-43 0 -57.5 -24.5t-14.5 -91.5v-652q0 -67 15 -90.5t57 -23.5v-54q-75 0 -100 34.5t-25 131.5v652z" />
    <glyph glyph-name="uni207E" unicode="&#x207e;" horiz-adv-x="176" 
d="M6 670q41 0 55.5 23.5t14.5 90.5v652q0 70 -14 93t-56 23v54q71 0 97 -37.5t26 -134.5v-652q0 -96 -25 -131t-98 -35v54z" />
    <glyph glyph-name="uni2080" unicode="&#x2080;" horiz-adv-x="307" 
d="M156 -6q-52 0 -82.5 29t-30.5 79v490q0 51 31 79.5t82 28.5q53 0 81.5 -28t28.5 -80v-490q0 -50 -30 -79t-80 -29zM156 43q57 0 57 61v484q0 65 -57 65q-60 0 -60 -65v-484q0 -61 60 -61z" />
    <glyph glyph-name="uni2081" unicode="&#x2081;" horiz-adv-x="237" 
d="M20 0v51h72v537q-12 -41 -65 -41v53q41 1 53.5 20.5t17.5 73.5h47v-643h72v-51h-197z" />
    <glyph glyph-name="uni2082" unicode="&#x2082;" horiz-adv-x="296" 
d="M41 63q0 103 82 216q39 54 60.5 99t21.5 95v119q0 63 -53 63q-58 0 -58 -63v-176h-51v176q0 52 29 81t80 29q106 0 106 -110v-121q0 -55 -21 -102.5t-59 -102.5q-40 -54 -61 -100t-21 -100v-13h168v-53h-223v63z" />
    <glyph glyph-name="uni2083" unicode="&#x2083;" horiz-adv-x="303" 
d="M152 -6q-113 0 -113 108v158h53v-156q0 -61 60 -61q57 0 57 61v150q0 46 -16 62t-58 16h-22v53h20q39 0 55.5 17.5t16.5 66.5v125q0 59 -53 59q-58 0 -58 -59v-135h-51v133q0 52 29 81t80 29q104 0 104 -110v-121q0 -52 -11.5 -76.5t-41.5 -34.5q59 -12 59 -102v-156
q0 -108 -110 -108z" />
    <glyph glyph-name="uni2084" unicode="&#x2084;" horiz-adv-x="290" 
d="M231 154v-154h-47v154h-159v43l153 497h53v-495h52v-45h-52zM74 199h110v307l13 145l-31 -143z" />
    <glyph glyph-name="uni2085" unicode="&#x2085;" horiz-adv-x="299" 
d="M150 -6q-111 0 -111 108v129h51v-127q0 -61 60 -61q57 0 57 61v256q0 68 -53 68q-47 0 -62 -63l-8 -37l-45 8l27 358h180v-4q0 -30 -7 -38.5t-36 -8.5h-92q-2 -52 -17 -229q21 63 80 63q84 0 84 -108v-267q0 -108 -108 -108z" />
    <glyph glyph-name="uni2086" unicode="&#x2086;" horiz-adv-x="303" 
d="M266 106q0 -112 -112 -112q-111 0 -111 112v486q0 110 109 110q58 0 84 -28t26 -82v-141h-51v141q0 63 -59 63q-58 0 -58 -63v-256q24 59 82 59q90 0 90 -108v-181zM154 43q59 0 59 63v173q0 71 -57 71q-52 0 -62 -65v-179q0 -63 60 -63z" />
    <glyph glyph-name="uni2087" unicode="&#x2087;" horiz-adv-x="237" 
d="M47 0q21 265 115 641h-142v53h195v-37q-95 -351 -115 -657h-53z" />
    <glyph glyph-name="uni2088" unicode="&#x2088;" horiz-adv-x="303" 
d="M152 -6q-113 0 -113 108v160q0 75 53 96q-47 21 -47 93v143q0 52 28 80t79 28q108 0 108 -108v-143q0 -69 -49 -93q53 -21 53 -96v-160q0 -108 -112 -108zM152 381q57 0 57 68v145q0 61 -57 61q-58 0 -58 -61v-145q0 -68 58 -68zM152 43q61 0 61 59v162q0 68 -61 68
q-62 0 -62 -68v-162q0 -27 16 -43t46 -16z" />
    <glyph glyph-name="uni2089" unicode="&#x2089;" horiz-adv-x="303" 
d="M152 -6q-109 0 -109 112v142h51v-142q0 -33 13 -48t45 -15q57 0 57 63v254q-16 -57 -80 -57q-92 0 -92 111v174q0 114 113 114q110 0 110 -114v-484q0 -110 -108 -110zM150 350q48 0 59 64v174q0 35 -14 51t-45 16q-60 0 -60 -67v-164q0 -74 60 -74z" />
    <glyph glyph-name="uni208A" unicode="&#x208a;" horiz-adv-x="315" 
d="M182 336v-78h-49v78h-80v47h80v78h49v-78h78v-47h-78z" />
    <glyph glyph-name="uni208B" unicode="&#x208b;" horiz-adv-x="315" 
d="M55 336v51h203v-51h-203z" />
    <glyph glyph-name="uni208C" unicode="&#x208c;" horiz-adv-x="315" 
d="M55 397v49h203v-49h-203zM55 274v50h203v-50h-203z" />
    <glyph glyph-name="uni208D" unicode="&#x208d;" horiz-adv-x="176" 
d="M47 635q0 97 26.5 134.5t98.5 37.5v-53q-43 0 -57.5 -24.5t-14.5 -92.5v-651q0 -67 15 -91t57 -24v-53q-75 0 -100 34.5t-25 131.5v651z" />
    <glyph glyph-name="uni208E" unicode="&#x208e;" horiz-adv-x="176" 
d="M6 -129q41 0 55.5 23.5t14.5 91.5v651q0 70 -14 93.5t-56 23.5v53q71 0 97 -37.5t26 -134.5v-651q0 -96 -25 -131t-98 -35v53z" />
    <glyph glyph-name="colonmonetary" unicode="&#x20a1;" horiz-adv-x="589" 
d="M274 -12q-40 5 -47 8l-14 -236h-45l16 250q-102 52 -102 197v1032q0 100 50.5 158.5t146.5 64.5l12 224h43l-12 -224q42 -5 49 -8l14 232h43l-16 -246q100 -47 100 -189v-356h-63v354q0 74 -41 115l-84 -1311q125 15 125 148v407h63v-411q0 -95 -51.5 -149t-143.5 -60
l-12 -228h-45zM365 1389q-20 8 -48 12l-86 -1338q20 -8 48 -12zM145 211q0 -84 45 -123l84 1311q-129 -12 -129 -162v-1026z" />
    <glyph glyph-name="uni20A2" unicode="&#x20a2;" horiz-adv-x="567" 
d="M489 195q-1 -100 -55.5 -153.5t-146.5 -53.5q-97 0 -151 56.5t-54 160.5v1042q0 101 54.5 158t150.5 57q93 0 147 -53t55 -149v-324h-65v321q0 67 -36 106.5t-101 39.5q-69 0 -104.5 -42t-35.5 -116v-1036q0 -135 103 -156v770h47l10 -131q12 68 49 99.5t109 31.5h24v-69
h-30q-67 0 -94 -21q-30 -20 -41 -68.5t-11 -146.5v-467q54 7 82.5 46t28.5 102v422h65v-426z" />
    <glyph glyph-name="franc" unicode="&#x20a3;" horiz-adv-x="389" 
d="M154 467v-467h-68v1450h276v-66h-208v-569h194v-63h-194v-222h194v-63h-194z" />
    <glyph glyph-name="lira" unicode="&#x20a4;" horiz-adv-x="661" 
d="M457 -25q-46 0 -84 23t-84 65q-43 -88 -142 -88q-129 0 -129 117q0 57 36 91t87 34q63 0 123 -53q6 27 6 88q0 145 -34 299h-164v57h153l-26 133h-127v60h114q-51 270 -51 440q0 262 187 262q107 0 146.5 -80.5t39.5 -267.5h-68q0 159 -24.5 222t-93.5 63
q-119 0 -119 -199q0 -177 49 -440h190v-60h-178q18 -95 23 -133h155v-57h-145q31 -179 31 -301q0 -68 -15 -127q39 -38 71 -58t67 -20q49 0 67.5 39.5t18.5 153.5v135h65v-144q0 -142 -31 -198t-114 -56zM152 31q69 0 96 71q-64 60 -107 60q-26 0 -44.5 -19.5t-18.5 -48.5
q0 -63 74 -63z" />
    <glyph glyph-name="uni20A6" unicode="&#x20a6;" horiz-adv-x="686" 
d="M350 590h-166v-590h-63v590h-105v57h105v160h-105v57h105v586h57l154 -586h168v586h63v-586h107v-57h-107v-160h107v-57h-107v-590h-59zM184 864h95l-54 201l-59 248l18 -361v-88zM293 807h-109v-160h150zM500 807h-152l41 -160h111v160zM518 135l-18 371v84h-94l47 -182
z" />
    <glyph glyph-name="peseta" unicode="&#x20a7;" horiz-adv-x="1243" 
d="M154 461v-461h-68v1450h152q115 0 163 -49.5t48 -165.5v-76q3 0 15 1t21 1q68 4 70 6q23 4 29.5 15t11.5 49q6 31 6 131h49v-191h133v-63h-133v-786q0 -145 44.5 -202t154.5 -57h86q98 0 136 52t38 166v118q0 37 -10 65.5t-34.5 51.5t-41 34.5t-53.5 33.5
q-35 22 -52.5 35.5t-41.5 39.5t-35 60.5t-11 79.5v194q0 95 43 142t123 47q165 0 168 -191v-227h-65v225q-2 65 -25 99t-78 34t-77.5 -33t-22.5 -98v-190q0 -35 9.5 -61.5t31.5 -48t38.5 -33t49.5 -31.5q7 -4 10 -6q34 -20 53.5 -35t42.5 -40.5t33.5 -61t10.5 -81.5v-127
q0 -65 -19 -143q-21 -67 -73.5 -100t-147.5 -33h-94q-148 0 -202 68.5t-54 244.5v795h-137v-418q0 -116 -52 -172.5t-159 -56.5h-84zM154 1391v-867h77q78 0 114 41.5t36 126.5v541q0 90 -32 124t-116 34h-79z" />
    <glyph glyph-name="uni20A8" unicode="&#x20a8;" horiz-adv-x="976" 
d="M154 672v-672h-68v1450h139q122 0 174 -47t52 -162v-346q0 -82 -26.5 -126.5t-82.5 -63.5q57 -13 80.5 -57t23.5 -132v-194q0 -151 39 -205t148 -54h47q99 0 131.5 50t32.5 176v110q0 59 -29 99q-12 17 -32 34t-35 26.5t-43.5 26.5t-40.5 25q-99 61 -99 189v194
q0 95 43 142t123 47q165 0 168 -191v-227h-65v225q-2 65 -25 99t-78 34t-77.5 -33t-22.5 -98v-190q0 -60 28 -99q16 -21 40 -38.5t59 -38t53 -33.5q98 -60 98 -189v-116q0 -89 -16 -158q-18 -67 -65.5 -98t-141.5 -31h-63q-105 0 -152 31q-50 30 -71 97t-21 185v199
q0 88 -28.5 124t-108.5 36h-88zM154 1393v-660h84q147 0 147 162v342q0 87 -36 121.5t-126 34.5h-69z" />
    <glyph glyph-name="uni20A9" unicode="&#x20a9;" horiz-adv-x="727" 
d="M440 584h-151l-72 -584h-63l-39 584h-99v51h95l-13 190h-82v52h78l-39 573h64l35 -573h125l69 573h41l66 -573h118l37 573h62l-41 -573h82v-52h-86l-13 -190h99v-51h-103l-41 -584h-61zM326 877h80l-29 256l-10 184l-11 -184zM272 825h-114l10 -190h80zM412 825h-93
l-24 -190h139zM571 825h-110l20 -190h78zM190 133l21 199l31 252h-70l14 -248zM535 135l6 209l14 240h-68l29 -248z" />
    <glyph glyph-name="uni20AA" unicode="&#x20aa;" horiz-adv-x="866" 
d="M154 1391v-1391h-68v1450h217q133 0 200.5 -60t67.5 -194v-913q0 -43 -15.5 -59.5t-51.5 -16.5v989q0 105 -51 150t-154 45h-145zM295 0v1247q39 0 52 -13t13 -56v-1117h152q201 0 201 203v1186h67v-1186q0 -136 -66.5 -200t-197.5 -64h-221z" />
    <glyph glyph-name="Euro" unicode="&#x20ac;" horiz-adv-x="585" 
d="M498 184q-3 -196 -187 -196q-186 0 -186 207v395h-102v59h102v170h-102v60h102v376q0 99 49 153t139 54q89 0 136 -50.5t49 -143.5v-250h-68v248q-3 137 -119 137q-118 0 -118 -150v-374h233l-16 -60h-217v-170h163l-18 -59h-145v-391q0 -148 118 -148q116 0 119 137v263
h68v-267z" />
    <glyph glyph-name="uni20AE" unicode="&#x20ae;" horiz-adv-x="376" 
d="M221 623v-623h-67v590l-111 -55v55l111 55v105l-111 -56v56l111 55v581h-138v64h344v-64h-139v-548l115 57v-55l-115 -58v-104l115 57v-55z" />
    <glyph glyph-name="uni20B1" unicode="&#x20b1;" horiz-adv-x="569" 
d="M174 461v-461h-68v825h-90v56h90v161h-90v56h90v352h152q115 0 163 -49.5t48 -165.5v-137h86v-56h-86v-161h86v-56h-86v-135q0 -116 -52 -172.5t-159 -56.5h-84zM174 1391v-293h227v135q0 90 -31.5 124t-115.5 34h-80zM401 1042h-227v-161h227v161zM401 825h-227v-301h78
q78 0 113.5 41.5t35.5 126.5v133z" />
    <glyph glyph-name="uni2105" unicode="&#x2105;" horiz-adv-x="860" 
d="M219 823q-149 0 -149 185v278q0 176 151 176q150 0 150 -176v-55h-58v53q0 64 -22.5 94.5t-69.5 30.5q-94 0 -94 -125v-274q0 -129 92 -129q94 0 94 129v67h58v-69q0 -88 -38 -136.5t-114 -48.5zM678 1450h61l-553 -1450h-63zM641 -12q-77 0 -113 44.5t-36 137.5v281
q0 176 149 176q150 0 150 -176v-281q0 -182 -150 -182zM641 43q92 0 92 129v277q0 126 -92 126q-49 0 -70.5 -31.5t-21.5 -94.5v-277q0 -129 92 -129z" />
    <glyph glyph-name="uni2116" unicode="&#x2116;" horiz-adv-x="962" 
d="M758 606q-66 0 -100.5 36.5t-34.5 102.5v576q0 66 35.5 102.5t99.5 36.5q65 0 100 -36t35 -101v-575q0 -67 -35 -104.5t-100 -37.5zM150 0h-64v1450h57l263 -1040l53 -244l-17 340v944h64v-1450h-57l-265 1063l-49 215l15 -326v-952zM758 664q36 0 56 23t20 61v573
q0 38 -19.5 61t-56.5 23q-76 0 -76 -86v-571q0 -38 19.5 -61t56.5 -23zM887 436h-260v64h260v-64z" />
    <glyph glyph-name="uni2117" unicode="&#x2117;" horiz-adv-x="878" 
d="M440 -25q-170 0 -267 91t-97 274v747q0 185 97 284t263 99q169 0 268 -94.5t99 -277.5v-752q0 -181 -99 -276t-264 -95zM440 35q144 0 222.5 77t78.5 234v754q0 153 -81 233t-224 80q-141 0 -220 -82.5t-79 -240.5v-750q0 -154 79.5 -229.5t223.5 -75.5zM356 524v-323
h-63v1048h117q109 0 152.5 -42t43.5 -150v-322q0 -107 -43.5 -159t-142.5 -52h-64zM356 1192v-606h56q71 0 101 36.5t30 116.5v308q0 85 -26 115t-109 30h-52z" />
    <glyph glyph-name="uni2120" unicode="&#x2120;" horiz-adv-x="675" 
d="M168 819q-94 0 -94 92v158h47v-156q0 -51 47 -51q45 0 45 49v142q0 32 -14 47t-52 35q-30 19 -41.5 28.5t-20.5 28t-9 47.5v131q0 88 92 88q87 0 90 -88v-143h-47v141q0 49 -43 49q-45 0 -45 -47v-129q0 -29 13 -43.5t44 -30.5q43 -22 61.5 -43.5t18.5 -66.5v-146
q0 -92 -92 -92zM369 827h-45v623h49l82 -412l4 -43l4 43l76 412h49v-623h-43v275l10 280l-23 -151l-69 -350h-12l-70 348l-23 153l11 -280v-275z" />
    <glyph glyph-name="trademark" unicode="&#x2122;" horiz-adv-x="628" 
d="M156 1407v-580h-47v580h-78v43h205v-43h-80zM322 827h-46v623h50l82 -412l4 -43l4 43l76 412h49v-623h-43v275l10 280l-23 -151l-69 -350h-13l-69 348l-23 153l11 -280v-275z" />
    <glyph glyph-name="uni2126" unicode="&#x2126;" horiz-adv-x="845" 
d="M319 0h-278v66h240q-37 70 -91 196q-104 256 -104 563q0 257 43 387q78 258 291 258q159 0 244 -129q98 -149 98 -516q0 -170 -29 -315q-18 -85 -49 -174.5t-50.5 -133t-62.5 -136.5h240v-66h-279l-34 61q45 95 92 205q104 256 104 559q0 340 -84 475q-66 111 -190 111
q-72 0 -133 -49q-133 -113 -133 -537q0 -165 30 -315q14 -63 38 -132t37.5 -103t51 -117.5t43.5 -96.5z" />
    <glyph glyph-name="uni2153" unicode="&#x2153;" horiz-adv-x="675" 
d="M354 817l199 658l61 -17l-237 -647zM59 758v51h72v537q-12 -41 -65 -41v53q41 1 53.5 20.5t17.5 73.5h47v-643h72v-51h-197zM504 -6q-113 0 -113 108v158h53v-156q0 -61 60 -61q57 0 57 61v150q0 46 -16 62t-58 16h-22v53h20q39 0 55.5 17.5t16.5 66.5v125q0 59 -53 59
q-58 0 -58 -59v-135h-51v133q0 52 29 81t80 29q104 0 104 -110v-121q0 -52 -11.5 -76.5t-41.5 -34.5q59 -12 59 -102v-156q0 -108 -110 -108zM324 659l-201 -682l-66 19l244 670z" />
    <glyph glyph-name="uni2154" unicode="&#x2154;" horiz-adv-x="675" 
d="M354 817l199 658l61 -17l-237 -647zM55 821q0 102 82 215q39 54 60.5 99.5t21.5 95.5v119q0 63 -53 63q-57 0 -57 -63v-176h-52v176q0 52 29 81t80 29q106 0 106 -110v-121q0 -56 -20.5 -103.5t-58.5 -101.5q-39 -54 -60.5 -100.5t-21.5 -100.5v-12h168v-53h-224v63z
M504 -6q-113 0 -113 108v158h53v-156q0 -61 60 -61q57 0 57 61v150q0 46 -16 62t-58 16h-22v53h20q39 0 55.5 17.5t16.5 66.5v125q0 59 -53 59q-58 0 -58 -59v-135h-51v133q0 52 29 81t80 29q104 0 104 -110v-121q0 -52 -11.5 -76.5t-41.5 -34.5q59 -12 59 -102v-156
q0 -108 -110 -108zM324 659l-201 -682l-66 19l244 670z" />
    <glyph glyph-name="uni2155" unicode="&#x2155;" horiz-adv-x="675" 
d="M354 817l199 658l61 -17l-237 -647zM63 758v51h72v537q-12 -41 -65 -41v53q41 1 53.5 20.5t17.5 73.5h47v-643h72v-51h-197zM498 -6q-111 0 -111 108v129h51v-127q0 -61 60 -61q57 0 57 61v256q0 68 -53 68q-47 0 -62 -63l-8 -37l-45 8l27 358h180v-4q0 -30 -7 -38.5
t-36 -8.5h-92q-2 -52 -17 -229q21 63 80 63q84 0 84 -108v-267q0 -108 -108 -108zM324 659l-201 -682l-66 19l244 670z" />
    <glyph glyph-name="uni2156" unicode="&#x2156;" horiz-adv-x="675" 
d="M354 817l199 658l61 -17l-237 -647zM55 821q0 102 82 215q39 54 60.5 99.5t21.5 95.5v119q0 63 -53 63q-57 0 -57 -63v-176h-52v176q0 52 29 81t80 29q106 0 106 -110v-121q0 -56 -20.5 -103.5t-58.5 -101.5q-39 -54 -60.5 -100.5t-21.5 -100.5v-12h168v-53h-224v63z
M498 -6q-111 0 -111 108v129h51v-127q0 -61 60 -61q57 0 57 61v256q0 68 -53 68q-47 0 -62 -63l-8 -37l-45 8l27 358h180v-4q0 -30 -7 -38.5t-36 -8.5h-92q-2 -52 -17 -229q21 63 80 63q84 0 84 -108v-267q0 -108 -108 -108zM324 659l-201 -682l-66 19l244 670z" />
    <glyph glyph-name="uni2157" unicode="&#x2157;" horiz-adv-x="675" 
d="M354 817l199 658l61 -17l-237 -647zM168 752q-113 0 -113 108v158h54v-156q0 -61 59 -61q57 0 57 61v150q0 46 -15.5 62t-57.5 16h-23v53h21q39 0 55 17.5t16 66.5v125q0 59 -53 59q-57 0 -57 -59v-135h-52v133q0 52 29 81t80 29q104 0 104 -110v-121q0 -52 -11.5 -76.5
t-41.5 -34.5q60 -12 60 -102v-156q0 -108 -111 -108zM498 -6q-111 0 -111 108v129h51v-127q0 -61 60 -61q57 0 57 61v256q0 68 -53 68q-47 0 -62 -63l-8 -37l-45 8l27 358h180v-4q0 -30 -7 -38.5t-36 -8.5h-92q-2 -52 -17 -229q21 63 80 63q84 0 84 -108v-267
q0 -108 -108 -108zM324 659l-201 -682l-66 19l244 670z" />
    <glyph glyph-name="uni2158" unicode="&#x2158;" horiz-adv-x="675" 
d="M354 817l199 658l61 -17l-237 -647zM246 911v-153h-47v153h-160v43l154 498h53v-496h51v-45h-51zM88 956h111v308l12 145l-31 -143zM498 -6q-111 0 -111 108v129h51v-127q0 -61 60 -61q57 0 57 61v256q0 68 -53 68q-47 0 -62 -63l-8 -37l-45 8l27 358h180v-4
q0 -30 -7 -38.5t-36 -8.5h-92q-2 -52 -17 -229q21 63 80 63q84 0 84 -108v-267q0 -108 -108 -108zM324 659l-201 -682l-66 19l244 670z" />
    <glyph glyph-name="uni2159" unicode="&#x2159;" horiz-adv-x="675" 
d="M354 817l199 658l61 -17l-237 -647zM63 758v51h72v537q-12 -41 -65 -41v53q41 1 53.5 20.5t17.5 73.5h47v-643h72v-51h-197zM610 106q0 -112 -112 -112q-111 0 -111 112v486q0 110 109 110q58 0 84 -28t26 -82v-141h-51v141q0 63 -59 63q-58 0 -58 -63v-256q24 59 82 59
q90 0 90 -108v-181zM324 659l-201 -682l-66 19l244 670zM498 43q59 0 59 63v173q0 71 -57 71q-52 0 -62 -65v-179q0 -63 60 -63z" />
    <glyph glyph-name="uni215A" unicode="&#x215a;" horiz-adv-x="675" 
d="M354 817l199 658l61 -17l-237 -647zM170 752q-111 0 -111 108v129h52v-127q0 -61 59 -61q57 0 57 61v256q0 68 -53 68q-46 0 -61 -64l-9 -37l-45 9l27 358h180v-4q0 -30 -7 -38.5t-36 -8.5h-92q-3 -73 -16 -230q21 64 80 64q84 0 84 -109v-266q0 -108 -109 -108zM610 106
q0 -112 -112 -112q-111 0 -111 112v486q0 110 109 110q58 0 84 -28t26 -82v-141h-51v141q0 63 -59 63q-58 0 -58 -63v-256q24 59 82 59q90 0 90 -108v-181zM324 659l-201 -682l-66 19l244 670zM498 43q59 0 59 63v173q0 71 -57 71q-52 0 -62 -65v-179q0 -63 60 -63z" />
    <glyph glyph-name="uni215B" unicode="&#x215b;" horiz-adv-x="675" 
d="M354 817l199 658l61 -17l-237 -647zM66 758v51h71v537q-12 -41 -65 -41v53q41 1 53.5 20.5t17.5 73.5h47v-643h72v-51h-196zM498 -6q-113 0 -113 108v160q0 75 53 96q-47 21 -47 93v143q0 52 28 80t79 28q108 0 108 -108v-143q0 -69 -49 -93q53 -21 53 -96v-160
q0 -108 -112 -108zM324 659l-201 -682l-66 19l244 670zM498 381q57 0 57 68v145q0 61 -57 61q-58 0 -58 -61v-145q0 -68 58 -68zM498 43q61 0 61 59v162q0 68 -61 68q-62 0 -62 -68v-162q0 -27 16 -43t46 -16z" />
    <glyph glyph-name="uni215C" unicode="&#x215c;" horiz-adv-x="675" 
d="M354 817l199 658l61 -17l-237 -647zM166 752q-113 0 -113 108v158h53v-156q0 -61 60 -61q57 0 57 61v150q0 46 -15.5 62t-57.5 16h-23v53h20q39 0 55.5 17.5t16.5 66.5v125q0 59 -53 59q-57 0 -57 -59v-135h-52v133q0 52 29 81t80 29q104 0 104 -110v-121
q0 -52 -11.5 -76.5t-41.5 -34.5q59 -12 59 -102v-156q0 -108 -110 -108zM500 -6q-113 0 -113 108v160q0 75 53 96q-47 21 -47 93v143q0 52 28 80t79 28q108 0 108 -108v-143q0 -69 -49 -93q53 -21 53 -96v-160q0 -108 -112 -108zM324 659l-201 -682l-66 19l244 670zM500 381
q57 0 57 68v145q0 61 -57 61q-58 0 -58 -61v-145q0 -68 58 -68zM500 43q61 0 61 59v162q0 68 -61 68q-62 0 -62 -68v-162q0 -27 16 -43t46 -16z" />
    <glyph glyph-name="uni215D" unicode="&#x215d;" horiz-adv-x="675" 
d="M354 817l199 658l61 -17l-237 -647zM170 752q-111 0 -111 108v129h52v-127q0 -61 59 -61q57 0 57 61v256q0 68 -53 68q-46 0 -61 -64l-9 -37l-45 9l27 358h180v-4q0 -30 -7 -38.5t-36 -8.5h-92q-3 -73 -16 -230q21 64 80 64q84 0 84 -109v-266q0 -108 -109 -108zM500 -6
q-113 0 -113 108v160q0 75 53 96q-47 21 -47 93v143q0 52 28 80t79 28q108 0 108 -108v-143q0 -69 -49 -93q53 -21 53 -96v-160q0 -108 -112 -108zM324 659l-201 -682l-66 19l244 670zM500 381q57 0 57 68v145q0 61 -57 61q-58 0 -58 -61v-145q0 -68 58 -68zM500 43
q61 0 61 59v162q0 68 -61 68q-62 0 -62 -68v-162q0 -27 16 -43t46 -16z" />
    <glyph glyph-name="uni215E" unicode="&#x215e;" horiz-adv-x="675" 
d="M354 817l199 658l61 -17l-237 -647zM147 758q21 265 115 641h-141v53h194v-37q-94 -346 -114 -657h-54zM500 -6q-113 0 -113 108v160q0 75 53 96q-47 21 -47 93v143q0 52 28 80t79 28q108 0 108 -108v-143q0 -69 -49 -93q53 -21 53 -96v-160q0 -108 -112 -108zM324 659
l-201 -682l-66 19l244 670zM500 381q57 0 57 68v145q0 61 -57 61q-58 0 -58 -61v-145q0 -68 58 -68zM500 43q61 0 61 59v162q0 68 -61 68q-62 0 -62 -68v-162q0 -27 16 -43t46 -16z" />
    <glyph glyph-name="uni215F" unicode="&#x215f;" horiz-adv-x="675" 
d="M354 817l199 658l61 -17l-237 -647zM59 758v51h72v537q-12 -41 -65 -41v53q41 1 53.5 20.5t17.5 73.5h47v-643h72v-51h-197zM324 659l-201 -682l-66 19l244 670z" />
    <glyph glyph-name="arrowleft" unicode="&#x2190;" horiz-adv-x="1261" 
d="M188 688q69 -46 134.5 -120t101.5 -158h-74q-20 51 -74 118q-103 130 -198 174v33q45 23 98 70q125 107 174 225h70q-34 -86 -99.5 -159.5t-134.5 -120.5h953v-62h-951z" />
    <glyph glyph-name="arrowup" unicode="&#x2191;" horiz-adv-x="1261" 
d="M922 911q-85 34 -158.5 99t-120.5 135v-950h-63v950q-44 -69 -118.5 -133.5t-160.5 -100.5v72q56 22 119 72q58 46 105 100t71 100h33q28 -55 69 -98q107 -126 224 -174v-72z" />
    <glyph glyph-name="arrowright" unicode="&#x2192;" horiz-adv-x="1261" 
d="M834 410q39 86 103.5 159.5t131.5 118.5h-950v62h952q-69 46 -134 120t-99 160h69q22 -56 72 -119q45 -57 99 -103t102 -73v-33q-48 -22 -99 -67q-122 -107 -174 -225h-73z" />
    <glyph glyph-name="arrowdown" unicode="&#x2193;" horiz-adv-x="1261" 
d="M596 193q-23 45 -70 98q-108 127 -225 174v72q87 -36 162.5 -101.5t116.5 -132.5v950h63v-950q45 67 120 131.5t159 100.5v-70q-55 -23 -119 -74q-119 -94 -174 -198h-33z" />
    <glyph glyph-name="uni2196" unicode="&#x2196;" horiz-adv-x="1261" 
d="M965 328l-672 671q16 -67 8 -172t-43 -190l-49 51q24 62 33 135q17 171 -17 264l23 25q39 -12 119 -22q169 -11 282 36l49 -51q-85 -35 -192 -41t-172 10l674 -671z" />
    <glyph glyph-name="uni2197" unicode="&#x2197;" horiz-adv-x="1261" 
d="M958 635q-35 85 -41.5 191.5t9.5 170.5l-672 -669l-45 43l672 671q-67 -16 -171 -8t-190 41l49 49q57 -22 136 -32q171 -17 266 18l22 -23q-12 -40 -22 -118q-10 -165 37 -283z" />
    <glyph glyph-name="uni2198" unicode="&#x2198;" horiz-adv-x="1261" 
d="M969 340q-37 12 -119 22q-168 11 -281 -36l-51 51q89 39 195 45t170 -14l-674 671l45 45l672 -671q-16 66 -9 171.5t41 190.5l50 -51q-24 -62 -33 -135q-17 -169 18 -264z" />
    <glyph glyph-name="uni2199" unicode="&#x2199;" horiz-adv-x="1261" 
d="M647 326q-55 23 -135 32q-164 17 -264 -18l-23 22q19 61 21 119q10 168 -37 283l51 51q39 -86 45 -192t-14 -172l674 671l43 -43l-670 -671q67 16 170.5 8t189.5 -41z" />
    <glyph glyph-name="partialdiff" unicode="&#x2202;" horiz-adv-x="512" 
d="M256 -12q-86 0 -134 50.5t-48 151.5v789q0 99 45.5 151t120.5 52q99 0 133 -88q-20 139 -88.5 245.5t-204.5 192.5h92q264 -176 264 -574l2 -768q0 -99 -48.5 -150.5t-133.5 -51.5zM256 49q58 0 86.5 38.5t28.5 105.5v772q0 157 -115 157q-57 0 -86 -37.5t-29 -105.5
v-786q0 -67 29 -105.5t86 -38.5z" />
    <glyph glyph-name="uni2206" unicode="&#x2206;" horiz-adv-x="598" 
d="M20 0l279 1477l281 -1477h-560zM299 1163l-199 -1097h400z" />
    <glyph glyph-name="product" unicode="&#x220f;" horiz-adv-x="753" 
d="M504 1391h-258v-1391h-68v1391h-143v59h684v-59h-148v-1391h-67v1391z" />
    <glyph glyph-name="summation" unicode="&#x2211;" horiz-adv-x="407" 
d="M369 0h-342v66l194 688l-184 626v70h325v-64h-260l189 -634l-195 -686h273v-66z" />
    <glyph glyph-name="minus" unicode="&#x2212;" horiz-adv-x="610" 
d="M106 682v63h390v-63h-390z" />
    <glyph glyph-name="radical" unicode="&#x221a;" horiz-adv-x="819" 
d="M330 0l-178 825h-109v66h160l159 -741l359 1300h65l-399 -1450h-57z" />
    <glyph glyph-name="infinity" unicode="&#x221e;" horiz-adv-x="1112" 
d="M272 514q-90 0 -146 53.5t-56 143.5t56 145t146 55q60 0 111 -26q20 -9 39 -21t39.5 -28t32 -25.5t34.5 -30.5t29 -26q12 11 39 33.5t41 35.5q106 88 207 88q89 0 142.5 -54.5t53.5 -145.5q0 -86 -55.5 -141.5t-140.5 -55.5q-58 0 -113 25q-19 10 -38 22t-39.5 27.5
t-32.5 25.5t-35 29.5t-29 24.5q-11 -10 -24.5 -21.5t-30 -25t-25.5 -21.5q-100 -86 -205 -86zM272 575q14 0 29 2.5t27 5.5t27.5 10.5t24.5 12t25.5 16t23 16t23.5 18.5t20.5 17.5t21.5 19.5t20 18q-39 36 -55.5 50.5t-52.5 40.5t-68 37t-66 11q-59 0 -98 -39.5t-39 -99.5
q0 -59 38.5 -97.5t98.5 -38.5zM840 575q61 0 100 38.5t39 97.5q0 60 -39.5 99.5t-99.5 39.5q-15 0 -30 -2t-31 -9t-27 -10.5t-28.5 -16t-24.5 -17t-27 -21.5t-23.5 -19.5t-25.5 -22.5t-23 -21q2 -2 19.5 -17.5t22 -19.5t21 -18t23 -18.5t22.5 -16t25.5 -16t24.5 -12
t27 -10.5t26.5 -5.5t28.5 -2.5z" />
    <glyph glyph-name="integral" unicode="&#x222b;" horiz-adv-x="311" 
d="M4 -184h25q56 0 74 30t18 125v1301q0 132 35 180.5t125 48.5h24v-61h-16q-61 0 -81 -33t-20 -139v-1303q0 -121 -33 -167t-118 -46h-33v64z" />
    <glyph glyph-name="approxequal" unicode="&#x2248;" horiz-adv-x="606" 
d="M197 895q37 0 109 -25.5t102 -25.5q59 0 81 51v-72q-9 -16 -31.5 -29.5t-49.5 -13.5q-42 0 -113 27t-100 27q-26 0 -51 -14.5t-35 -37.5v70q13 16 36.5 29.5t51.5 13.5zM109 647q11 18 34.5 30.5t49.5 12.5q41 0 114.5 -25.5t100.5 -25.5q53 0 81 49v-70q-24 -43 -81 -43
q-41 0 -113 27t-102 27q-25 0 -49 -15.5t-35 -35.5v69z" />
    <glyph glyph-name="notequal" unicode="&#x2260;" horiz-adv-x="606" 
d="M279 578l-37 -140h-49l36 140h-120v63h137l45 168h-182v61h198l35 131h49l-35 -131h133v-61h-149l-45 -168h194v-63h-210z" />
    <glyph glyph-name="equivalence" unicode="&#x2261;" horiz-adv-x="606" 
d="M109 926v63h380v-63h-380zM109 696v62h380v-62h-380zM109 465v61h380v-61h-380z" />
    <glyph glyph-name="lessequal" unicode="&#x2264;" horiz-adv-x="606" 
d="M102 774v51l383 162v-69l-299 -117l299 -123v-70zM102 455v63h383v-63h-383z" />
    <glyph glyph-name="greaterequal" unicode="&#x2265;" horiz-adv-x="606" 
d="M121 678l299 123l-299 117v69l381 -162v-51l-381 -166v70zM121 455v63h381v-63h-381z" />
    <glyph glyph-name="uni22A0" unicode="&#x22a0;" horiz-adv-x="1839" 
d="M199 1450h1441v-1450h-1441v1450zM328 123h1181v1206h-1181v-1206zM924 651l-340 -350l-78 80l340 350l-334 342l80 78l332 -340l327 338l78 -78l-330 -340l336 -344l-80 -78z" />
    <glyph glyph-name="house" unicode="&#x2302;" horiz-adv-x="1732" 
d="M203 0v825l663 637l664 -637v-825h-1327z" />
    <glyph glyph-name="filledbox" unicode="&#x25a0;" horiz-adv-x="1839" 
d="M199 1450h1441v-1450h-1441v1450z" />
    <glyph glyph-name="uni25A1" unicode="&#x25a1;" horiz-adv-x="1839" 
d="M199 0v1450h1441v-1450h-1441zM328 1329v-1206h1181v1206h-1181z" />
    <glyph glyph-name="uni25AA" unicode="&#x25aa;" horiz-adv-x="1558" 
d="M203 1153h1153v-1153h-1153v1153z" />
    <glyph glyph-name="uni25AB" unicode="&#x25ab;" horiz-adv-x="1558" 
d="M203 1153h1153v-1153h-1153v1153zM332 123h897v907h-897v-907z" />
    <glyph glyph-name="triagup" unicode="&#x25b2;" horiz-adv-x="1783" 
d="M39 0l854 1477l852 -1477h-1706z" />
    <glyph glyph-name="triagrt" unicode="&#x25ba;" horiz-adv-x="1783" 
d="M199 1591l1476 -852l-1476 -852v1704z" />
    <glyph glyph-name="triagdn" unicode="&#x25bc;" horiz-adv-x="1783" 
d="M1745 1452l-852 -1477l-854 1477h1706z" />
    <glyph glyph-name="triaglf" unicode="&#x25c4;" horiz-adv-x="1783" 
d="M1585 -113l-1476 852l1476 852v-1704z" />
    <glyph glyph-name="lozenge" unicode="&#x25ca;" horiz-adv-x="745" 
d="M53 717l318 317l321 -319l-319 -318zM373 483l235 232l-237 235l-232 -233z" />
    <glyph glyph-name="circle" unicode="&#x25cb;" horiz-adv-x="1845" 
d="M922 -20q-219 0 -383 96q-169 96 -263 263.5t-94 381.5q0 319 209 534q215 209 531 209q327 0 532 -211q209 -209 209 -532q0 -318 -209 -533q-214 -208 -532 -208zM922 104q173 0 313 82q139 80 219 221t80 314q0 176 -80 313q-81 143 -219.5 224t-312.5 81
q-171 0 -310 -79q-142 -85 -221.5 -223.5t-79.5 -315.5q0 -178 80 -315q79 -142 217.5 -222t313.5 -80z" />
    <glyph glyph-name="uni25CE" unicode="&#x25ce;" horiz-adv-x="1857" 
d="M928 -20q-223 0 -387 96q-171 96 -265 264.5t-94 386.5q0 328 209 537q213 213 537 213q322 0 536 -211q211 -211 211 -539q0 -325 -209 -537q-210 -210 -538 -210zM928 244q135 0 246 63q110 65 171.5 174.5t61.5 245.5q0 138 -61 248q-66 113 -174 177.5t-244 64.5
q-128 0 -244 -64q-109 -67 -171 -178t-62 -248q0 -141 63 -246q65 -112 173 -174.5t241 -62.5zM930 381q-106 0 -180 45q-79 45 -123.5 123.5t-44.5 175.5q0 105 47 178q44 80 123.5 125t177.5 45t178 -45q79 -45 124.5 -124t45.5 -179q0 -102 -45 -176q-48 -80 -126 -124
t-177 -44zM930 608q49 0 79.5 33.5t30.5 83.5q0 54 -30 86.5t-80 32.5t-80.5 -32.5t-30.5 -86.5q0 -50 31 -83.5t80 -33.5z" />
    <glyph glyph-name="uni25CF" unicode="&#x25cf;" horiz-adv-x="1845" 
d="M922 -20q-219 0 -383 96q-169 96 -263 263.5t-94 381.5q0 319 209 534q215 209 531 209q327 0 532 -211q209 -209 209 -532q0 -318 -209 -533q-214 -208 -532 -208z" />
    <glyph glyph-name="uni25E2" unicode="&#x25e2;" horiz-adv-x="1783" 
d="M530 -145l-440 1646l1647 -440z" />
    <glyph glyph-name="uni25E3" unicode="&#x25e3;" horiz-adv-x="1783" 
d="M51 1061l1649 440l-443 -1646z" />
    <glyph glyph-name="uni25E4" unicode="&#x25e4;" horiz-adv-x="1783" 
d="M57 334l1207 1204l442 -1644z" />
    <glyph glyph-name="uni25E5" unicode="&#x25e5;" horiz-adv-x="1783" 
d="M88 -115l442 1647l1205 -1208z" />
    <glyph glyph-name="uni2605" unicode="&#x2605;" horiz-adv-x="1830" 
d="M1290 172l-381 277l-379 -277l148 446l-379 275l465 -2l147 444l146 -444l467 -2l-381 -273z" />
    <glyph glyph-name="sun" unicode="&#x263c;" horiz-adv-x="1888" 
d="M883 1444h110l-35 -289h-40zM530 1323l97 55l110 -268l-28 -20zM1249 1378l94 -55l-176 -233l-30 20zM285 1038l57 95l233 -177l-20 -30zM1530 1133l61 -93l-270 -114l-21 32zM584 723q0 95 47 178q50 84 130.5 131t176.5 47q100 0 176 -49q84 -47 131 -128t47 -179
q0 -100 -49 -176q-48 -81 -129 -128.5t-176 -47.5t-178 47q-81 51 -128.5 130.5t-47.5 174.5zM219 672v108l289 -35v-38zM1657 780v-108l-291 35v38zM346 319l-61 95l270 112l20 -30zM1591 416l-57 -97l-234 179l21 28zM627 74l-97 55l179 236l28 -21zM1343 129l-94 -55
l-112 270l30 21zM993 8h-110l35 289h40z" />
    <glyph glyph-name="uni263E" unicode="&#x263e;" horiz-adv-x="1601" 
d="M1087 1231q-135 0 -245 -70q-112 -68 -177 -185.5t-65 -256.5q0 -133 66 -256q67 -118 177.5 -186t243.5 -68q63 0 144 24q-163 -116 -363 -116q-248 0 -426 178q-84 84 -130 193t-46 231q0 249 176 428q179 176 426 176q199 0 363 -117q-84 25 -144 25z" />
    <glyph glyph-name="spade" unicode="&#x2660;" horiz-adv-x="1835" 
d="M983 578q0 -150 80 -340q28 -62 73 -150l46 -88h-516q5 10 29 58.5t42 82.5q117 240 117 437q-24 -72 -70 -132q-97 -139 -268 -139q-89 0 -170 43q-79 43 -125.5 115.5t-46.5 157.5q0 113 49 211q48 93 147.5 193.5t274.5 238.5l279 221h2l278 -221q172 -136 264 -234
q102 -103 146.5 -198.5t44.5 -210.5q0 -90 -43 -158q-44 -72 -115 -114t-158 -42q-99 0 -167 39q-131 69 -193 230z" />
    <glyph glyph-name="club" unicode="&#x2663;" horiz-adv-x="1835" 
d="M1317 260q-112 0 -197.5 65.5t-128.5 172.5q12 -103 51 -201q17 -46 40 -96.5t36 -76t39.5 -74.5t26.5 -50h-516q54 104 63 123q101 202 121 377q-43 -107 -132 -173.5t-202 -66.5q-96 0 -178 49q-81 48 -128.5 129t-47.5 178q0 96 47 179q50 81 131 127.5t176 46.5
q26 0 84 -13q-41 90 -41 172q0 100 47 177q48 80 128.5 126t176.5 46q104 0 177 -47q80 -45 127 -125t47 -177q0 -88 -37 -176q46 17 92 17q99 0 176 -47q81 -48 127.5 -128.5t46.5 -177.5q0 -95 -47 -178q-48 -84 -127.5 -131t-177.5 -47z" />
    <glyph glyph-name="heart" unicode="&#x2665;" horiz-adv-x="1835" 
d="M631 279q-137 152 -266 325q-100 143 -144.5 261.5t-44.5 236.5q0 103 49 188q51 87 134 137t184 50q96 0 180 -41q79 -43 128.5 -115.5t59.5 -163.5q18 141 117.5 230.5t249.5 89.5q103 0 188 -52q88 -52 139.5 -137t51.5 -186q0 -122 -47 -236q-47 -118 -147 -258
t-271 -329l-281 -314z" />
    <glyph glyph-name="diamond" unicode="&#x2666;" horiz-adv-x="1835" 
d="M918 1493l651 -754l-651 -759l-654 759z" />
    <glyph glyph-name="uni267B" unicode="&#x267b;" horiz-adv-x="1687" 
d="M713 1384h334q27 -1 37 -1.5t31.5 -4.5t32.5 -12t26.5 -23t27.5 -38l49 -84l76 43l-108 -289l-295 55l69 41l-125 215q-22 43 -63 66q-22 12 -45 19.5t-35 8.5l-12 2v2zM477 1278q19 33 58 53q54 28 110 25q59 -4 106.5 -28.5t65.5 -57.5l-199 -346l-258 149zM1524 748
q16 -28 16 -74q0 -62 -33 -109q-31 -48 -77 -77t-84 -29l-199 344l256 147zM334 254l-166 289q-19 33 -26.5 54t-4.5 53t23 69l49 84l-74 43l303 53l101 -287l-70 43l-61 -104q-61 -101 -64 -111q-25 -48 -25 -86q0 -25 4.5 -50t9.5 -38l5 -12h-4zM1505 500l-168 -291
q-18 -27 -26 -38t-26 -28t-41.5 -23.5t-55.5 -6.5h-98v-84l-195 233l195 236v-86h247q49 0 88 22q22 14 41.5 31t27.5 27l9 10zM553 113q-39 0 -76 22q-57 37 -78 84q-26 53 -28.5 108t16.5 85h397v-299h-231z" />
    <glyph glyph-name="uni267C" unicode="&#x267c;" horiz-adv-x="1687" 
d="M1532 719q0 -140 -52.5 -265t-148.5 -218q-96 -96 -221 -148.5t-264 -52.5q-286 0 -490 201q-96 93 -149 218t-53 265q0 286 202 491q204 201 490 201q139 0 264 -52.5t221 -148.5q201 -204 201 -491zM729 1243l23 -4q72 -18 100 -72l98 -166l-55 -32l229 -43l82 223
l-57 -31l-37 64q-24 40 -51 51.5t-72 11.5h-260v-2zM467 1004l201 -117l151 268q-11 23 -51 45q-93 47 -168 2q-32 -18 -43 -43zM1276 907l-201 -116l156 -269q25 0 63 23q86 60 86 149q0 30 -16 58zM449 369q-5 6 -7 22q-9 17 -7.5 54.5t18.5 66.5l96 168l55 -35l-80 221
l-231 -39l57 -34l-39 -66q-17 -28 -18.5 -53t3.5 -38.5t21 -45.5l129 -221h3zM1350 557l-15 -16q-38 -49 -112 -49h-191v61l-153 -178l153 -182v67h76q34 0 57 11.5t32 23t26 39.5l129 221zM788 260v232h-309q-15 -24 -12 -68q2 -43 23.5 -83.5t58.5 -64.5q37 -16 59 -16
h180z" />
    <glyph glyph-name="uni267D" unicode="&#x267d;" horiz-adv-x="1687" 
d="M1532 719q0 -140 -52.5 -265t-148.5 -218q-96 -96 -221 -148.5t-264 -52.5q-286 0 -490 201q-96 93 -149 218t-53 265q0 286 202 491q204 201 490 201q139 0 264 -52.5t221 -148.5q201 -204 201 -491zM1497 719q0 277 -190 467t-461 190q-134 0 -254 -49.5t-211 -140.5
q-193 -193 -193 -467q0 -268 193 -461q91 -91 211 -140.5t254 -49.5q271 0 461 190t190 461zM729 1245h260q45 0 72 -11.5t51 -51.5l37 -64l57 31l-82 -223l-229 43l55 32l-98 166q-21 34 -49 50q-17 10 -35.5 16.5t-28.5 8.5l-10 1v2zM557 1159q11 25 43 43q40 24 86 21
q45 -5 83 -23.5t50 -44.5l-151 -268l-201 117zM1364 752q16 -28 16 -58q0 -48 -24 -86q-26 -38 -61 -62t-64 -24l-156 269l201 116zM446 369l-129 221q-16 32 -21 45.5t-3.5 38.5t18.5 53l39 66l-57 34l231 39l80 -221l-55 35l-96 -168q-19 -31 -19 -68q0 -19 4 -38t8 -28
l3 -9h-3zM1352 555l-129 -221q-17 -28 -26 -39.5t-32 -23t-57 -11.5h-76v-67l-153 182l153 178v-61h191q40 0 69 16q17 10 31.5 22.5t20.5 19.5l6 7zM608 260q-22 0 -59 16q-37 22 -60 66q-20 40 -22 83.5t12 66.5h309v-232h-180z" />
    <glyph glyph-name="uni26AC" unicode="&#x26ac;" horiz-adv-x="1556" 
d="M778 -20q-171 0 -307 77q-137 80 -214 216.5t-77 304.5q0 176 80 307q80 137 215.5 214t302.5 77t305 -78q138 -80 216.5 -214.5t78.5 -305.5q0 -177 -80 -308q-79 -136 -215 -213t-305 -77zM778 98q135 0 242 64q108 62 168.5 170.5t60.5 245.5t-61 247
q-62 110 -169 171t-241 61q-136 0 -243 -64q-106 -66 -166 -174t-60 -241q0 -130 60 -244q63 -111 168.5 -173.5t240.5 -62.5z" />
    <glyph glyph-name="uni2E18" unicode="&#x2e18;" horiz-adv-x="571" 
d="M281 1186q29 0 41 -17.5t12 -60.5q0 -44 -12.5 -61t-42.5 -17q-27 0 -38.5 17.5t-11.5 60.5q0 42 12.5 60t39.5 18zM285 -287q-96 0 -146.5 53.5t-50.5 147.5v219q0 80 16 146q10 36 23.5 68.5t37.5 81.5t30 63q57 128 57 311v108q4 -4 29 -4q24 0 28 4v-26
q0 -19 1 -50.5t1 -33.5q0 -49 1 -203t1 -250q2 -176 2 -452v-125q103 15 103 147v356h63v-360q0 -94 -50.5 -147.5t-145.5 -53.5zM152 -82q0 -133 102 -147v125q0 118 2 198q0 94 3.5 276.5t4.5 225.5q-16 -134 -67 -238q-45 -99 -45 -225v-215z" />
    <glyph glyph-name="uni3008" unicode="&#x3008;" horiz-adv-x="350" 
d="M266 -356l-203 925l205 926h66l-205 -926l203 -925h-66z" />
    <glyph glyph-name="uni3009" unicode="&#x3009;" horiz-adv-x="350" 
d="M18 -356l203 925l-205 926h66l205 -926l-203 -925h-66z" />
    <glyph glyph-name="I.alt" horiz-adv-x="245" 
d="M88 0v1450h72l-2 -784v-666h-70z" />
    <glyph glyph-name="Iacute.alt" horiz-adv-x="245" 
d="M221 1792h72l-146 -246h-51zM88 0v1450h72l-2 -784v-666h-70z" />
    <glyph glyph-name="Ibreve.alt" horiz-adv-x="245" 
d="M125 1544q-81 0 -115 44.5t-39 142.5h56q5 -75 24.5 -105t75.5 -31q54 1 77 33t25 103h54q-2 -95 -40.5 -141t-117.5 -46zM88 0v1450h72l-2 -784v-666h-70z" />
    <glyph glyph-name="Icircumflex.alt" horiz-adv-x="245" 
d="M133 1696l-84 -150h-61l123 207h47l118 -207h-63zM88 0v1450h72l-2 -784v-666h-70z" />
    <glyph glyph-name="Idieresis.alt" horiz-adv-x="245" 
d="M49 1554q-43 0 -43 66q0 63 43 63t43 -65q0 -64 -43 -64zM201 1554q-45 0 -45 66q0 63 45 63q43 0 43 -65q0 -64 -43 -64zM88 0v1450h72l-2 -784v-666h-70z" />
    <glyph glyph-name="Idotaccent.alt" horiz-adv-x="245" 
d="M125 1546q-51 0 -51 72t51 72t51 -74q0 -70 -51 -70zM88 0v1450h72l-2 -784v-666h-70z" />
    <glyph glyph-name="Igrave.alt" horiz-adv-x="245" 
d="M-18 1761h69l101 -213h-52zM88 0v1450h72l-2 -784v-666h-70z" />
    <glyph glyph-name="Imacron.alt" horiz-adv-x="245" 
d="M-8 1636h266v-57h-266v57zM88 0v1450h72l-2 -784v-666h-70z" />
    <glyph glyph-name="Iogonek.alt" horiz-adv-x="245" 
d="M287 -166q-26 -125 -154 -125q-137 0 -137 129q0 77 92 166v1446h72l-2 -784v-666q-105 -91 -105 -160q0 -37 21 -58.5t61 -21.5q75 0 90 74h62z" />
    <glyph glyph-name="Itilde.alt" horiz-adv-x="245" 
d="M-49 1552q0 76 21 109t69 33q40 0 70 -23q11 -9 27 -24t25 -23.5t21 -15t21 -6.5q25 0 35 18.5t10 71.5h53q-3 -146 -94 -146q-42 0 -70 25q-11 9 -33 30t-36 30t-29 9q-23 0 -30 -18.5t-7 -69.5h-53zM88 0v1450h72l-2 -784v-666h-70z" />
    <glyph glyph-name="g.alt" 
d="M227 -262q-182 0 -182 129q0 45 36 80t93 55q-59 7 -85 32t-26 70q0 38 30 69t83 44q-102 29 -102 162v610q0 138 108 178q25 9 58 13q80 12 104.5 26t24.5 62v12h63v-8q0 -61 -27 -80.5t-96 -26.5q1 0 25 -6q96 -33 96 -170v-612q0 -92 -47.5 -138t-128.5 -46h-6
q-62 0 -92.5 -21t-30.5 -55q0 -35 30 -47.5t99 -12.5h49q97 0 137.5 -35t40.5 -98v-8q0 -77 -67.5 -127.5t-175.5 -50.5h-11zM250 250q58 0 86.5 34t28.5 95v612q-2 60 -30.5 94.5t-82.5 34.5q-26 0 -45 -8q-66 -28 -66 -121v-612q0 -60 27.5 -94.5t81.5 -34.5zM242 -203
q72 0 123 34t51 83v8q0 39 -28.5 57.5t-94.5 18.5q-73 -2 -127.5 -31.5t-54.5 -81.5v-2q0 -86 120 -86h11z" />
    <glyph glyph-name="gbreve.alt" horiz-adv-x="522" 
d="M258 1272q-81 0 -115 44t-39 142h56q5 -75 24.5 -104.5t75.5 -30.5q54 1 77 32.5t25 102.5h54q-2 -95 -40.5 -140.5t-117.5 -45.5zM260 -391q-93 0 -134.5 48.5t-41.5 141.5v76h66v-74q0 -68 25 -100.5t85 -32.5q63 0 89 34.5t26 98.5v318q-13 -69 -45 -100t-86 -31
q-170 0 -170 250v682q0 144 43 203t123 59q116 0 143 -129l6 118h51v-1372q0 -89 -45.5 -139.5t-134.5 -50.5zM256 47q53 0 86 51.5t33 153.5v641q0 116 -27.5 172.5t-95.5 56.5q-111 0 -111 -204v-674q0 -197 115 -197z" />
    <glyph glyph-name="gcircumflex.alt" horiz-adv-x="522" 
d="M266 1423l-84 -149h-61l123 207h47l119 -207h-64zM260 -391q-93 0 -134.5 48.5t-41.5 141.5v76h66v-74q0 -68 25 -100.5t85 -32.5q63 0 89 34.5t26 98.5v318q-13 -69 -45 -100t-86 -31q-170 0 -170 250v682q0 144 43 203t123 59q116 0 143 -129l6 118h51v-1372
q0 -89 -45.5 -139.5t-134.5 -50.5zM256 47q53 0 86 51.5t33 153.5v641q0 116 -27.5 172.5t-95.5 56.5q-111 0 -111 -204v-674q0 -197 115 -197z" />
    <glyph glyph-name="gcommaaccent.alt" horiz-adv-x="522" 
d="M256 1272q-27 0 -39 22t-12 72q0 128 82 184l16 -37q-46 -37 -55 -127q3 15 18 15q19 0 29 -13t10 -47q0 -69 -49 -69zM260 -391q-93 0 -134.5 48.5t-41.5 141.5v76h66v-74q0 -68 25 -100.5t85 -32.5q63 0 89 34.5t26 98.5v318q-13 -69 -45 -100t-86 -31q-170 0 -170 250
v682q0 144 43 203t123 59q116 0 143 -129l6 118h51v-1372q0 -89 -45.5 -139.5t-134.5 -50.5zM256 47q53 0 86 51.5t33 153.5v641q0 116 -27.5 172.5t-95.5 56.5q-111 0 -111 -204v-674q0 -197 115 -197z" />
    <glyph glyph-name="gdotaccent.alt" horiz-adv-x="522" 
d="M258 1274q-51 0 -51 72q0 71 51 71t51 -74q0 -69 -51 -69zM260 -391q-93 0 -134.5 48.5t-41.5 141.5v76h66v-74q0 -68 25 -100.5t85 -32.5q63 0 89 34.5t26 98.5v318q-13 -69 -45 -100t-86 -31q-170 0 -170 250v682q0 144 43 203t123 59q116 0 143 -129l6 118h51v-1372
q0 -89 -45.5 -139.5t-134.5 -50.5zM256 47q53 0 86 51.5t33 153.5v641q0 116 -27.5 172.5t-95.5 56.5q-111 0 -111 -204v-674q0 -197 115 -197z" />
    <glyph glyph-name="g.alt2" horiz-adv-x="522" 
d="M260 -391q-93 0 -134.5 48.5t-41.5 141.5v76h66v-74q0 -68 25 -100.5t85 -32.5q63 0 89 34.5t26 98.5v318q-13 -69 -45 -100t-86 -31q-170 0 -170 250v682q0 144 43 203t123 59q116 0 143 -129l6 118h51v-1372q0 -89 -45.5 -139.5t-134.5 -50.5zM256 47q53 0 86 51.5
t33 153.5v641q0 116 -27.5 172.5t-95.5 56.5q-111 0 -111 -204v-674q0 -197 115 -197z" />
    <glyph glyph-name="i.dot" horiz-adv-x="229" 
d="M115 1284q-45 0 -45 72q0 38 10.5 53.5t36.5 15.5q25 0 35 -15.5t10 -53.5q0 -72 -47 -72zM82 1176q15 -5 33 -5q17 0 32 5v-1176h-65v1176z" />
    <glyph glyph-name="zero.inf" horiz-adv-x="307" 
d="M156 -299q-52 0 -82.5 28.5t-30.5 80.5v489q0 51 31 80t82 29q53 0 81.5 -28.5t28.5 -80.5v-489q0 -52 -30 -80.5t-80 -28.5zM156 -250q57 0 57 62v483q0 65 -57 65q-60 0 -60 -65v-483q0 -62 60 -62z" />
    <glyph glyph-name="one.inf" horiz-adv-x="237" 
d="M20 -293v51h72v537q-12 -41 -65 -41v53q41 1 53.5 20.5t17.5 73.5h47v-643h72v-51h-197z" />
    <glyph glyph-name="two.inf" horiz-adv-x="296" 
d="M41 -229q0 102 82 215q39 54 60.5 99t21.5 95v119q0 63 -53 63q-58 0 -58 -63v-176h-51v176q0 52 29 81.5t80 29.5q106 0 106 -111v-121q0 -55 -21 -102.5t-59 -102.5q-40 -54 -61 -100t-21 -100v-13h168v-53h-223v64z" />
    <glyph glyph-name="three.inf" horiz-adv-x="303" 
d="M152 -299q-113 0 -113 109v157h53v-155q0 -62 60 -62q57 0 57 62v149q0 46 -16 62t-58 16h-22v53h20q39 0 55.5 17.5t16.5 66.5v125q0 59 -53 59q-58 0 -58 -59v-135h-51v133q0 52 29 81.5t80 29.5q104 0 104 -111v-121q0 -52 -11.5 -76t-41.5 -34q59 -12 59 -103v-155
q0 -109 -110 -109z" />
    <glyph glyph-name="four.inf" horiz-adv-x="290" 
d="M231 -139v-154h-47v154h-159v43l153 497h53v-495h52v-45h-52zM74 -94h110v307l13 145l-31 -143z" />
    <glyph glyph-name="five.inf" horiz-adv-x="299" 
d="M150 -299q-111 0 -111 109v129h51v-127q0 -62 60 -62q57 0 57 62v256q0 67 -53 67q-47 0 -62 -63l-8 -37l-45 8l27 358h180v-4q0 -30 -7 -38.5t-36 -8.5h-92q-2 -52 -17 -229q21 63 80 63q84 0 84 -108v-266q0 -109 -108 -109z" />
    <glyph glyph-name="six.inf" horiz-adv-x="303" 
d="M266 -186q0 -113 -112 -113q-111 0 -111 113v485q0 111 109 111q110 0 110 -111v-141h-51v141q0 63 -59 63q-58 0 -58 -63v-256q24 59 82 59q90 0 90 -108v-180zM154 -250q59 0 59 64v172q0 71 -57 71q-52 0 -62 -65v-178q0 -64 60 -64z" />
    <glyph glyph-name="seven.inf" horiz-adv-x="237" 
d="M47 -293q21 265 115 641h-142v53h195v-36q-95 -351 -115 -658h-53z" />
    <glyph glyph-name="eight.inf" horiz-adv-x="303" 
d="M152 -299q-113 0 -113 109v159q0 76 53 97q-47 21 -47 92v143q0 52 28 80.5t79 28.5q108 0 108 -109v-143q0 -68 -49 -92q53 -21 53 -97v-159q0 -109 -112 -109zM152 88q57 0 57 68v145q0 61 -57 61q-58 0 -58 -61v-145q0 -68 58 -68zM152 -250q61 0 61 60v161
q0 68 -61 68q-62 0 -62 -68v-161q0 -27 16 -43.5t46 -16.5z" />
    <glyph glyph-name="nine.inf" horiz-adv-x="303" 
d="M152 -301q-109 0 -109 113v141h51v-141q0 -33 13.5 -48.5t44.5 -15.5q57 0 57 64v254q-17 -58 -80 -58q-92 0 -92 111v174q0 115 113 115q110 0 110 -115v-483q0 -111 -108 -111zM150 55q48 0 59 64v174q0 35 -14 51t-45 16q-60 0 -60 -67v-164q0 -74 60 -74z" />
    <glyph glyph-name="underscore" horiz-adv-x="415" 
d="M385 0h-354v61h354v-61z" />
    <glyph glyph-name="backslash.cap" horiz-adv-x="430" 
d="M135 1450l227 -1450h-67l-227 1450h67z" />
    <glyph glyph-name="periodcentered.cap" horiz-adv-x="335" 
d="M170 637q-29 0 -41 17.5t-12 60.5q0 78 53 78q29 0 40 -17.5t11 -60.5t-11 -60.5t-40 -17.5z" />
    <glyph glyph-name="bullet.cap" horiz-adv-x="356" 
d="M178 629q-84 0 -84 84t84 84q43 0 63.5 -19t20.5 -65q0 -84 -84 -84z" />
    <glyph glyph-name="uni2016.cap" horiz-adv-x="434" 
d="M86 -213v1907h66v-1907h-66zM285 -213v1907h63v-1907h-63z" />
    <glyph glyph-name="exclamdown.cap" horiz-adv-x="335" 
d="M170 1460q29 0 40 -17.5t11 -60.5q0 -44 -11 -60.5t-40 -16.5q-30 0 -41.5 16.5t-11.5 60.5q0 78 53 78zM133 0v172q0 42 1 173t1 214l6 422q1 52 2 105l1.5 79.5t0.5 30.5l25 -2q4 0 14 1t11 1q0 -1 0.5 -30.5t1 -81t0.5 -105.5l6 -422q0 -83 1 -213.5t1 -171.5v-172
h-72z" />
    <glyph glyph-name="uni2E18.cap" horiz-adv-x="571" 
d="M281 1456q29 0 41 -17t12 -61q0 -42 -12.5 -58.5t-42.5 -16.5q-27 0 -38.5 16.5t-11.5 58.5q0 43 12.5 60.5t39.5 17.5zM285 -14q-96 0 -146.5 53t-50.5 147v220q0 81 16 143q10 36 24 69.5t36.5 80t30.5 65.5q57 124 57 309v109q2 -2 29 -2q24 0 28 4v-27q0 -19 1 -50.5
t1 -33.5q0 -47 1 -201.5t1 -250.5q2 -172 2 -453v-125q103 15 103 147v357h63v-361q0 -94 -50.5 -147t-145.5 -53zM152 190q0 -132 102 -147v125q0 119 2 199q0 94 3.5 276t4.5 225q-16 -134 -67 -239q-45 -99 -45 -223v-216z" />
    <glyph glyph-name="questiondown.cap" horiz-adv-x="561" 
d="M287 1460q29 0 40 -17.5t11 -60.5t-12 -60t-41 -17q-27 0 -39.5 17.5t-12.5 59.5q0 43 12.5 60.5t41.5 17.5zM254 1186q4 -4 33 -4q31 0 35 4v-123q0 -105 -15 -176q-18 -109 -76 -219q-3 -6 -14.5 -31.5t-15 -33.5t-12 -30t-11.5 -36t-8 -35.5t-6.5 -44t-1.5 -47.5v-217
q0 -146 119 -146q118 0 118 146v356h68v-359q0 -94 -48.5 -148t-137.5 -54t-138 54t-49 148v220q0 33 4 64.5t7.5 52t14 50t14.5 40.5t18.5 43t17.5 38q28 61 41.5 95t28 108t14.5 162v123z" />
    <glyph glyph-name="slash.cap" horiz-adv-x="430" 
d="M63 0l236 1450h68l-236 -1450h-68z" />
    <glyph glyph-name="uni3008.cap" horiz-adv-x="350" 
d="M266 -215l-203 926l205 925h66l-205 -925l203 -926h-66z" />
    <glyph glyph-name="uni3009.cap" horiz-adv-x="350" 
d="M18 -215l203 926l-205 925h66l205 -925l-203 -926h-66z" />
    <glyph glyph-name="braceleft.cap" horiz-adv-x="348" 
d="M311 -219q-114 0 -166.5 56t-52.5 173q0 68 17 180q51 263 51 338q0 96 -28 134t-95 38h-4v72h4q67 0 95 33.5t28 118.5q0 52 -17 145q-3 21 -18.5 103.5t-22 135.5t-6.5 103q0 119 48 174t165 55h21v-59h-8q-85 0 -122.5 -42t-37.5 -132q0 -72 16 -166q3 -16 13.5 -68
t14.5 -73.5t10 -60t8.5 -66.5t2.5 -53q0 -90 -32 -136.5t-86 -46.5v-4q55 0 86.5 -50t31.5 -151q0 -56 -16 -157q-53 -257 -53 -361q0 -89 39 -129.5t125 -40.5h8v-63h-19z" />
    <glyph glyph-name="braceright.cap" horiz-adv-x="348" 
d="M18 -156h9q88 0 124.5 39.5t36.5 130.5q0 68 -16 174q-3 15 -11.5 61.5t-12 65.5t-9.5 57t-8.5 60t-5 49.5t-2.5 48.5q0 100 32 150.5t85 50.5v4q-53 2 -85 49t-32 136q0 58 16 149q49 241 49 338q0 91 -36.5 132.5t-124.5 41.5h-9v59h21q117 0 165 -55t48 -174
q0 -78 -16 -172q-6 -41 -19.5 -110t-21 -119t-7.5 -88q0 -85 28.5 -118.5t94.5 -33.5h6v-72h-6q-66 0 -94.5 -38.5t-28.5 -133.5q0 -51 17 -151q49 -254 49 -365q0 -117 -50.5 -173t-164.5 -56h-21v63z" />
    <glyph glyph-name="bracketleft.cap" horiz-adv-x="344" 
d="M326 -215h-232v1851h232v-65h-164v-1721h164v-65z" />
    <glyph glyph-name="bracketright.cap" horiz-adv-x="344" 
d="M18 -215v65h166v1721h-166v65h234v-1851h-234z" />
    <glyph glyph-name="parenleft.cap" horiz-adv-x="344" 
d="M326 -219q-89 0 -142 29q-50 29 -70 94t-20 188v1239q0 121 21 185q18 67 68.5 95.5t142.5 28.5v-63q-69 0 -105 -23q-34 -19 -46.5 -70t-12.5 -151v-1241q0 -143 32 -193.5t132 -50.5v-67z" />
    <glyph glyph-name="parenright.cap" horiz-adv-x="344" 
d="M18 -152q101 0 133.5 50.5t32.5 193.5v1241q0 95 -12 148q-13 53 -48 74.5t-106 21.5v63q91 0 142 -28q51 -29 71.5 -93.5t20.5 -187.5v-1239q0 -122 -21 -186q-19 -67 -68 -96t-145 -29v67z" />
    <glyph glyph-name="parenleft.inf" horiz-adv-x="176" 
d="M47 379q0 97 26.5 134.5t98.5 37.5v-53q-43 0 -57.5 -24.5t-14.5 -92.5v-651q0 -67 15 -91t57 -24v-53q-75 0 -100 34.5t-25 131.5v651z" />
    <glyph glyph-name="parenright.inf" horiz-adv-x="176" 
d="M6 -385q41 0 55.5 23.5t14.5 91.5v651q0 70 -14 93.5t-56 23.5v53q71 0 97 -37.5t26 -134.5v-651q0 -96 -25 -131t-98 -35v53z" />
    <glyph glyph-name="emdash.cap" horiz-adv-x="606" 
d="M549 680h-492v65h492v-65z" />
    <glyph glyph-name="endash.cap" horiz-adv-x="454" 
d="M399 680h-342v65h342v-65z" />
    <glyph glyph-name="figuredash.cap" horiz-adv-x="673" 
d="M616 680h-559v65h559v-65z" />
    <glyph glyph-name="uni2015.cap" horiz-adv-x="618" 
d="M563 680h-506v65h506v-65z" />
    <glyph glyph-name="hyphen.cap" horiz-adv-x="473" 
d="M420 680h-363v65h363v-65z" />
    <glyph glyph-name="guillemotleft.cap" horiz-adv-x="573" 
d="M236 365l-177 342v4l177 358h65l-176 -358l180 -346h-69zM451 365l-187 342v4l174 358h68l-176 -358l190 -346h-69z" />
    <glyph glyph-name="guillemotright.cap" horiz-adv-x="573" 
d="M53 365l191 346l-176 358h67l174 -358v-4l-186 -342h-70zM268 365l181 346l-177 358h66l176 -358v-4l-176 -342h-70z" />
    <glyph glyph-name="guilsinglleft.cap" horiz-adv-x="362" 
d="M238 365l-185 342v4l174 358h68l-176 -360l188 -344h-69z" />
    <glyph glyph-name="guilsinglright.cap" horiz-adv-x="362" 
d="M55 365l189 346l-176 358h65l176 -358v-4l-184 -342h-70z" />
    <glyph glyph-name="periodcentered.smcp" horiz-adv-x="823" 
d="M768 680h-711v65h711v-65z" />
    <glyph glyph-name="space_dotbelowcomb" horiz-adv-x="505" 
d="M242 -240q-52 0 -52 72t52 72q49 0 49 -74q0 -70 -49 -70z" />
    <glyph glyph-name="uni00200326" horiz-adv-x="505" 
d="M197 -307q52 42 55 125q-9 -15 -19 -15q-38 0 -38 62q0 67 49 67q29 0 40 -20t11 -74q0 -130 -82 -182z" />
    <glyph glyph-name="uni00200326.alt" horiz-adv-x="505" 
d="M258 1276q-27 0 -39 22t-12 72q0 128 82 184l16 -36q-46 -37 -55 -127q3 14 18 14q19 0 29 -12.5t10 -46.5q0 -70 -49 -70z" />
    <glyph glyph-name="plus.inf" horiz-adv-x="315" 
d="M182 39v-78h-49v78h-80v47h80v78h49v-78h78v-47h-78z" />
    <glyph glyph-name="minus.inf" horiz-adv-x="315" 
d="M55 39v51h203v-51h-203z" />
    <glyph glyph-name="equal.inf" horiz-adv-x="315" 
d="M55 86v49h203v-49h-203zM55 -37v49h203v-49h-203z" />
    <glyph glyph-name="at.cap" horiz-adv-x="892" 
d="M449 -104q-187 0 -284 97t-97 288v874q0 185 101.5 287t268.5 102q106 0 197 -43q188 -90 188 -340v-844q0 -186 -141 -186q-96 0 -123 111q-21 -123 -125 -123q-79 0 -115 51t-36 170v750q0 131 36.5 182t106.5 51q53 0 82 -25.5t41 -80.5l6 96h47v-996q0 -61 21 -96
t59 -35q80 0 80 138v839q0 154 -90 238t-234 84q-140 0 -223.5 -86t-83.5 -242v-874q0 -328 320 -328q79 0 144.5 28.5t96.5 82.5l62 -33q-97 -137 -305 -137zM442 174q99 0 99 203v665q0 119 -20.5 172.5t-82.5 53.5q-47 0 -69.5 -41.5t-22.5 -147.5v-731q0 -96 22 -135
t74 -39z" />
    <glyph glyph-name="registered.cap" horiz-adv-x="878" 
d="M440 -25q-170 0 -267 91t-97 274v747q0 185 97 284t263 99q169 0 268 -94.5t99 -277.5v-752q0 -181 -99 -276t-264 -95zM440 35q144 0 222.5 77t78.5 234v754q0 153 -81 233t-224 80q-141 0 -220 -82.5t-79 -240.5v-750q0 -154 79.5 -229.5t223.5 -75.5zM352 678v-477
h-63v1048h117q109 0 152.5 -42t43.5 -150v-172q0 -140 -88 -174q50 -13 67 -52t17 -127v-256q0 -47 25 -75h-70q-18 25 -18 75v250q0 86 -20 119t-93 33h-70zM352 1192v-457h66q69 0 95 36.5t26 117.5v158q0 85 -26.5 115t-109.5 30h-51z" />
    <glyph glyph-name="bar.cap" horiz-adv-x="237" 
d="M86 -213v1907h66v-1907h-66z" />
    <glyph glyph-name="brokenbar.cap" horiz-adv-x="237" 
d="M86 1694h66v-850h-66v850zM152 -213h-66v877h66v-877z" />
    <glyph glyph-name="Aumlaut" horiz-adv-x="458" 
d="M68 1343q-41 0 -41 58q0 57 41 57t41 -59q0 -56 -41 -56zM383 1343q-43 0 -43 58q0 57 43 57q39 0 39 -59q0 -56 -39 -56zM330 287h-205l-29 -287h-67l161 1450h68l172 -1450h-70zM133 348h189l-82 746l-15 299l-16 -299z" />
    <glyph glyph-name="Oumlaut" horiz-adv-x="548" 
d="M82 1430q-33 0 -33 36q0 37 35 37q31 0 31 -37q0 -36 -33 -36zM471 1430q-35 0 -35 36q0 37 35 37q31 0 31 -37q0 -36 -31 -36zM274 -12q-90 0 -141 53.5t-51 153.5v1060q0 97 50.5 152t141.5 55q92 0 142.5 -55t50.5 -152v-1060q0 -100 -50.5 -153.5t-142.5 -53.5z
M274 51q125 0 125 148v1056q0 69 -30.5 108.5t-94.5 39.5q-62 0 -93 -39.5t-31 -108.5v-1056q0 -69 31 -108.5t93 -39.5z" />
    <glyph glyph-name="Uumlaut" horiz-adv-x="542" 
d="M225 1300q-14 0 -20 16.5t-6 59.5q0 78 26 78q17 0 22 -17t5 -63q0 -74 -27 -74zM322 1300q-29 0 -29 76q0 78 29 78q14 0 20 -17t6 -63q0 -74 -26 -74zM272 -12q-186 0 -186 205v1257h68v-1253q0 -146 118 -146q117 0 117 146v1253h68v-1257q0 -205 -185 -205z" />
    <glyph glyph-name="cordinal" horiz-adv-x="403" 
d="M205 614q-66 0 -101.5 37t-35.5 103v569q0 66 36 102.5t101 36.5q66 0 100.5 -35.5t34.5 -101.5v-178h-61v176q0 40 -18.5 63t-55.5 23q-76 0 -76 -86v-567q0 -37 19.5 -59.5t56.5 -22.5q36 0 55 22.5t19 61.5v217h61v-219q0 -67 -35 -104.5t-100 -37.5z" />
    <glyph glyph-name="caronSlovak" 
d="M256 1509h59l-63 -231h-45z" />
    <glyph glyph-name="altcedilla" 
d="M250 -281q-134 0 -146 125h60q8 -73 86 -73q90 0 90 67q0 34 -21.5 48t-70.5 14h-25v49h33q143 0 143 -109q0 -59 -41 -90t-108 -31z" />
    <glyph glyph-name="doublegrave" horiz-adv-x="505" 
d="M80 1491h72l102 -213h-49zM225 1491h72l88 -213h-49z" />
    <glyph glyph-name="invertedbreve" 
d="M248 1464q82 0 119 -45t39 -141h-56q-2 73 -23.5 103.5t-76.5 31.5q-56 0 -76 -30t-22 -105h-58q5 96 41 141t113 45z" />
    <glyph glyph-name="onethirdemdash" horiz-adv-x="454" 
d="M399 561h-342v66h342v-66z" />
    <glyph glyph-name="threequarteremdash" horiz-adv-x="606" 
d="M549 561h-492v66h492v-66z" />
    <glyph glyph-name="onethirdemdash.cap" horiz-adv-x="473" 
d="M420 680h-363v65h363v-65z" />
    <glyph glyph-name="threequarteremdash.cap" horiz-adv-x="536" 
d="M481 680h-424v65h424v-65z" />
    <glyph glyph-name="onesixteenth" horiz-adv-x="919" 
d="M354 817l199 658l61 -17l-237 -647zM59 758v51h74v537q-12 -40 -65 -43v55q40 1 53 20.5t18 73.5h45v-643h74v-51h-199zM870 104q0 -112 -112 -112q-111 0 -111 112v486q0 110 109 110q58 0 84 -28t26 -82v-141h-51v141q0 63 -59 63q-58 0 -58 -63v-256q24 59 82 59
q90 0 90 -108v-181zM395 0v51h72v537q-12 -41 -66 -41v53q41 1 54 20.5t18 73.5h47v-643h72v-51h-197zM324 659l-201 -682l-66 19l244 670zM758 41q59 0 59 63v172q0 72 -57 72q-52 0 -62 -65v-179q0 -63 60 -63z" />
    <glyph glyph-name="threesixteenths" horiz-adv-x="919" 
d="M354 817l199 658l61 -17l-237 -647zM168 752q-113 0 -113 108v158h54v-156q0 -61 59 -61q57 0 57 61v150q0 46 -15.5 62t-57.5 16h-23v53h21q39 0 55 17.5t16 66.5v125q0 59 -53 59q-57 0 -57 -59v-135h-52v133q0 52 29 81t80 29q104 0 104 -110v-121q0 -52 -11.5 -76.5
t-41.5 -34.5q60 -12 60 -102v-156q0 -108 -111 -108zM870 104q0 -112 -112 -112q-111 0 -111 112v486q0 110 109 110q58 0 84 -28t26 -82v-141h-51v141q0 63 -59 63q-58 0 -58 -63v-256q24 59 82 59q90 0 90 -108v-181zM395 0v51h72v537q-12 -41 -66 -41v53q41 1 54 20.5
t18 73.5h47v-643h72v-51h-197zM324 659l-201 -682l-66 19l244 670zM758 41q59 0 59 63v172q0 72 -57 72q-52 0 -62 -65v-179q0 -63 60 -63z" />
    <glyph glyph-name="fivesixteenths" horiz-adv-x="919" 
d="M354 817l199 658l61 -17l-237 -647zM172 752q-111 0 -111 108v129h52v-127q0 -61 59 -61q57 0 57 61v256q0 68 -53 68q-46 0 -61 -64l-9 -37l-45 9l27 358h180v-4q0 -30 -7 -38.5t-36 -8.5h-92q-3 -73 -16 -230q21 64 80 64q84 0 84 -109v-266q0 -108 -109 -108zM870 104
q0 -112 -112 -112q-111 0 -111 112v486q0 110 109 110q58 0 84 -28t26 -82v-141h-51v141q0 63 -59 63q-58 0 -58 -63v-256q24 59 82 59q90 0 90 -108v-181zM395 0v51h72v537q-12 -41 -66 -41v53q41 1 54 20.5t18 73.5h47v-643h72v-51h-197zM324 659l-201 -682l-66 19
l244 670zM758 41q59 0 59 63v172q0 72 -57 72q-52 0 -62 -65v-179q0 -63 60 -63z" />
    <glyph glyph-name="sevensixteenths" horiz-adv-x="919" 
d="M354 817l199 658l61 -17l-237 -647zM135 758q21 265 115 641h-141v53h194v-37q-95 -351 -115 -657h-53zM870 104q0 -112 -112 -112q-111 0 -111 112v486q0 110 109 110q58 0 84 -28t26 -82v-141h-51v141q0 63 -59 63q-58 0 -58 -63v-256q24 59 82 59q90 0 90 -108v-181z
M395 0v51h72v537q-12 -41 -66 -41v53q41 1 54 20.5t18 73.5h47v-643h72v-51h-197zM324 659l-201 -682l-66 19l244 670zM758 41q59 0 59 63v172q0 72 -57 72q-52 0 -62 -65v-179q0 -63 60 -63z" />
    <glyph glyph-name="ninesixteenths" horiz-adv-x="919" 
d="M354 817l199 658l61 -17l-237 -647zM172 752q-109 0 -109 112v142h52v-142q0 -33 13 -48t44 -15q57 0 57 63v254q-16 -57 -79 -57q-93 0 -93 110v175q0 114 113 114q111 0 111 -114v-484q0 -52 -27.5 -81t-81.5 -29zM170 1108q48 0 59 63v175q0 35 -14 51t-45 16
q-59 0 -59 -67v-164q0 -74 59 -74zM870 104q0 -112 -112 -112q-111 0 -111 112v486q0 110 109 110q58 0 84 -28t26 -82v-141h-51v141q0 63 -59 63q-58 0 -58 -63v-256q24 59 82 59q90 0 90 -108v-181zM395 0v51h72v537q-12 -41 -66 -41v53q41 1 54 20.5t18 73.5h47v-643h72
v-51h-197zM324 659l-201 -682l-66 19l244 670zM758 41q59 0 59 63v172q0 72 -57 72q-52 0 -62 -65v-179q0 -63 60 -63z" />
    <glyph glyph-name="elevensixteenths" horiz-adv-x="1167" 
d="M604 817l199 658l61 -17l-237 -647zM311 758v51h74v539q-12 -40 -66 -43v55q40 0 53.5 20t18.5 74h45v-645h74v-51h-199zM63 758v51h74v541q-11 -44 -67 -47v55q41 1 54.5 20.5t18.5 73.5h45v-643h74v-51h-199zM1120 104q0 -112 -112 -112q-111 0 -111 112v486
q0 110 109 110q58 0 84 -28t26 -82v-141h-51v141q0 63 -59 63q-58 0 -58 -63v-256q24 59 82 59q90 0 90 -108v-181zM643 0v51h72v537q-12 -41 -66 -41v53q41 1 54 20.5t18 73.5h47v-643h72v-51h-197zM573 659l-200 -682l-66 19l244 670zM1008 41q59 0 59 63v172q0 72 -57 72
q-52 0 -62 -65v-179q0 -63 60 -63z" />
    <glyph glyph-name="thirteensixteenths" horiz-adv-x="1179" 
d="M618 817l199 658l62 -17l-238 -647zM426 752q-113 0 -113 108v158h54v-156q0 -61 59 -61q57 0 57 61v150q0 46 -15.5 62t-57.5 16h-23v53h21q39 0 55 17.5t16 66.5v125q0 59 -53 59q-57 0 -57 -59v-135h-52v133q0 52 29 81t80 29q104 0 104 -110v-121q0 -52 -11.5 -76.5
t-41.5 -34.5q60 -12 60 -102v-156q0 -108 -111 -108zM63 758v51h74v541q-11 -44 -67 -47v55q41 1 54.5 20.5t18.5 73.5h45v-643h74v-51h-199zM1133 104q0 -112 -113 -112q-111 0 -111 112v486q0 110 109 110q58 0 84 -28t26 -82v-141h-51v141q0 63 -59 63q-57 0 -57 -63
v-256q24 59 81 59q91 0 91 -108v-181zM657 0v51h72v537q-12 -41 -65 -41v53q41 1 53.5 20.5t17.5 73.5h47v-643h72v-51h-197zM588 659l-201 -682l-65 19l243 670zM1020 41q59 0 59 63v172q0 72 -57 72q-51 0 -61 -65v-179q0 -63 59 -63z" />
    <glyph glyph-name="fifteensixteenths" horiz-adv-x="1179" 
d="M618 817l199 658l62 -17l-238 -647zM63 758v51h74v541q-11 -44 -67 -47v55q41 1 54.5 20.5t18.5 73.5h45v-643h74v-51h-199zM422 752q-111 0 -111 108v129h51v-127q0 -61 60 -61q57 0 57 61v256q0 68 -53 68q-46 0 -61 -64l-9 -37l-45 9l27 358h180v-4q0 -30 -7 -38.5
t-36 -8.5h-92q-3 -73 -16 -230q21 64 79 64q84 0 84 -109v-266q0 -108 -108 -108zM1133 104q0 -112 -113 -112q-111 0 -111 112v486q0 110 109 110q58 0 84 -28t26 -82v-141h-51v141q0 63 -59 63q-57 0 -57 -63v-256q24 59 81 59q91 0 91 -108v-181zM657 0v51h72v537
q-12 -41 -65 -41v53q41 1 53.5 20.5t17.5 73.5h47v-643h72v-51h-197zM588 659l-201 -682l-65 19l243 670zM1020 41q59 0 59 63v172q0 72 -57 72q-51 0 -61 -65v-179q0 -63 59 -63z" />
    <glyph glyph-name="mediumblackcircle" horiz-adv-x="1556" 
d="M778 -20q-171 0 -307 77q-137 80 -214 216.5t-77 304.5q0 176 80 307q80 137 215.5 214t302.5 77t305 -78q138 -80 216.5 -214.5t78.5 -305.5q0 -177 -80 -308q-79 -136 -215 -213t-305 -77z" />
    <glyph glyph-name="ballotboxwithx" horiz-adv-x="1558" 
d="M203 1153h1153v-1153h-1153v1153zM332 123h897v907h-897v-907zM786 500l-215 -219l-69 73l213 217l-213 213l71 72l211 -213l211 215l70 -76l-207 -211l211 -213l-70 -71z" />
    <glyph glyph-name="ttfautohint" horiz-adv-x="491" 
 />
    </font>
</defs>
</svg>
