<?xml version="1.0" standalone="no"?>
<!DOCTYPE svg PUBLIC "-//W3C//DTD SVG 1.1//EN" "http://www.w3.org/Graphics/SVG/1.1/DTD/svg11.dtd" >
<svg xmlns="http://www.w3.org/2000/svg" xmlns:xlink="http://www.w3.org/1999/xlink" version="1.1">
<metadata>
Created by FontForge 20201107 at Thu Aug 14 22:38:25 2025
 By 
C 2016 Sharp Type Corporation
</metadata>
<defs>
<font id="SharpGrotesk-LightItalic05" horiz-adv-x="268" >
  <font-face 
    font-family="Sharp Grotesk Light Italic 05"
    font-weight="300"
    font-style="italic"
    font-stretch="ultra-condensed"
    units-per-em="2048"
    panose-1="0 0 4 8 0 0 0 0 0 0"
    ascent="1638"
    descent="-410"
    x-height="1171"
    cap-height="1450"
    bbox="-168 -438 1747 1716"
    underline-thickness="102"
    underline-position="-153"
    unicode-range="U+0020-3009"
  />
<missing-glyph horiz-adv-x="124" 
 />
    <glyph glyph-name=".notdef" horiz-adv-x="124" 
 />
    <glyph glyph-name=".null" horiz-adv-x="0" 
 />
    <glyph glyph-name="nonmarkingreturn" horiz-adv-x="682" 
 />
    <glyph glyph-name="space" unicode=" " horiz-adv-x="124" 
 />
    <glyph glyph-name="exclam" unicode="!" horiz-adv-x="182" 
d="M2 137q0 9 41 244q47 287 78 461q15 91 34.5 204.5t20.5 122.5l51 281h35l-49 -281q-4 -23 -24.5 -134t-34.5 -193q-15 -88 -45 -250t-39 -211q-11 -60 -22.5 -122.5t-16.5 -91t-6 -30.5h-23zM-12 -8q-28 0 -19 39q1 23 9 31t26 8q12 0 16 -8t3 -31q-9 -39 -35 -39z" />
    <glyph glyph-name="quotedbl" unicode="&#x22;" horiz-adv-x="192" 
d="M121 987q0 23 24 160q6 46 31 184q0 3 2.5 14t3.5 21l15 84h28q0 -1 -1 -4.5t-2.5 -10.5t-2.5 -14l-16 -90q-2 -9 -14.5 -75t-20.5 -111q-26 -147 -31 -158h-16zM197 987q0 3 4.5 27.5t10 60t9.5 70.5q8 44 18.5 108t12.5 76q3 9 6 37l16 84h29q0 -1 -1 -4.5t-2.5 -10.5
t-2.5 -14l-16 -92q-2 -9 -14.5 -74t-20.5 -110q-26 -147 -31 -158h-18z" />
    <glyph glyph-name="numbersign" unicode="#" horiz-adv-x="428" 
d="M250 590h-86l-133 -590h-33l133 590h-94l4 31h96l64 278h-97l7 33h98l117 518h32l-116 -518h86l118 518h33l-119 -518h95l-6 -33h-95l-63 -278h94l-6 -31h-96l-133 -590h-35zM319 899h-86l-63 -278h86z" />
    <glyph glyph-name="dollar" unicode="$" horiz-adv-x="274" 
d="M-29 -256l43 250q-66 15 -51 110l94 535h33l-96 -537q-12 -77 49 -77q30 0 44.5 15.5t21.5 45.5l98 561q7 41 -3.5 63.5t-47.5 47.5q-34 22 -49.5 45.5t-8.5 62.5l90 508q6 40 30.5 62t57.5 22l41 244h33l-41 -246q68 -14 53 -100l-81 -471h-33l82 473q13 69 -47 69
q-55 0 -64 -57l-88 -502q-6 -30 6.5 -49t46.5 -41q39 -28 52 -55t6 -72l-101 -563q-16 -96 -98 -96l-41 -248h-31z" />
    <glyph glyph-name="percent" unicode="%" horiz-adv-x="446" 
d="M180 823q-78 0 -63 95l82 456q15 84 86 84q76 0 63 -88l-80 -461q-15 -86 -88 -86zM502 1450h30l-532 -1452h-33zM184 852q28 0 39.5 14t16.5 47l79 455q12 64 -38 64q-45 0 -54 -62l-82 -452q-12 -66 39 -66zM215 -8q-79 0 -63 92l79 453q15 84 86 84q38 0 54 -23.5
t10 -65.5l-80 -454q-15 -86 -86 -86zM219 18q25 0 37 15.5t18 48.5l78 448q12 64 -39 64q-44 0 -53 -59l-82 -449q-9 -68 41 -68z" />
    <glyph glyph-name="ampersand" unicode="&#x26;" horiz-adv-x="374" 
d="M219 -8q-35 0 -51 67q-51 -67 -115 -67q-125 0 -90 194l29 164q15 81 42.5 162t50.5 131t67 137q9 251 45 447l14 86q17 80 40 112.5t64 32.5q44 0 60 -33t0 -114l-15 -78q-6 -34 -15 -69t-16 -60t-21.5 -62.5t-21 -54t-26.5 -58t-24.5 -51.5t-28.5 -57t-27 -53
q-4 -156 -4 -242q-3 -248 10 -376q60 136 125 499l39 223h33l-39 -223q-70 -405 -151 -551q12 -73 38 -73q17 0 27 16l-6 -37q-12 -12 -33 -12zM227 1214q-30 -162 -43 -380q58 116 92 204.5t52 194.5l14 76q11 65 4.5 91.5t-35.5 26.5q-26 0 -41 -27t-26 -87zM59 25
q55 0 101 73q-18 132 -15 410q0 143 2 211q-90 -184 -124 -371l-27 -162q-30 -161 63 -161z" />
    <glyph glyph-name="quotesingle" unicode="'" horiz-adv-x="114" 
d="M121 987q0 7 3.5 31t10 64t10.5 73q31 176 31 178l21 117h28l-20 -117q-1 -11 -6 -37t-13 -67.5t-14 -73.5q-30 -156 -35 -168h-16z" />
    <glyph glyph-name="parenleft" unicode="(" horiz-adv-x="188" 
d="M6 -360q-70 0 -88.5 34.5t-1.5 124.5l272 1547q17 93 45.5 123t98.5 30l-4 -33q-51 0 -74 -26.5t-35 -98.5l-270 -1544q-13 -72 -1.5 -98.5t62.5 -26.5z" />
    <glyph glyph-name="parenright" unicode=")" horiz-adv-x="188" 
d="M-145 -328q53 0 75.5 26t34.5 99l268 1546q14 72 3 98.5t-62 26.5l2 31q71 0 89.5 -34.5t0.5 -125.5l-270 -1544q-17 -95 -46 -125t-100 -30z" />
    <glyph glyph-name="asterisk" unicode="*" horiz-adv-x="239" 
d="M260 1356l-2 -84h-33l25 84l-76 -51l-10 26l86 33l-76 33l21 28l59 -53l2 86h33l-27 -86l78 53l12 -28l-86 -33l74 -31l-21 -28z" />
    <glyph glyph-name="plus" unicode="+" horiz-adv-x="321" 
d="M199 696l-15 -80h-32l14 80h-80l4 33h80l14 80h33l-14 -80h80l-4 -33h-80z" />
    <glyph glyph-name="comma" unicode="," horiz-adv-x="184" 
d="M-49 -74q38 33 45 72q-3 -8 -12 -8q-22 0 -13 39q3 41 31 41q18 0 22.5 -11t-1.5 -43q-15 -75 -68 -110z" />
    <glyph glyph-name="hyphen" unicode="-" horiz-adv-x="251" 
d="M41 610h180l-4 -32h-180z" />
    <glyph glyph-name="period" unicode="." horiz-adv-x="184" 
d="M-12 -8q-30 0 -21 39q3 39 35 39q21 0 18 -39q-4 -23 -11 -31t-21 -8z" />
    <glyph glyph-name="slash" unicode="/" horiz-adv-x="229" 
d="M311 1450h33l-373 -1450h-32z" />
    <glyph glyph-name="zero" unicode="0" horiz-adv-x="288" 
d="M47 -8q-105 0 -84 117l219 1241q15 108 105 108q49 0 72.5 -29.5t13.5 -87.5l-221 -1247q-21 -102 -105 -102zM49 25q60 0 72 77l219 1244q6 37 -7.5 59t-47.5 22q-58 0 -70 -75l-219 -1243q-13 -84 53 -84z" />
    <glyph glyph-name="one" unicode="1" horiz-adv-x="212" 
d="M-76 0l4 33h66l233 1331q-23 -30 -63 -33l6 29q34 1 50 20.5t30 69.5h24l-247 -1417h63l-4 -33h-162z" />
    <glyph glyph-name="two" unicode="2" horiz-adv-x="278" 
d="M12 383q8 46 30.5 94.5t41.5 78t53 77.5q5 7 23.5 34t24.5 36t20 32.5t20 38t13 36t10 42.5l90 510q6 32 -8.5 48.5t-44.5 16.5q-31 0 -46 -16.5t-20 -50.5l-84 -475h-33l84 479q11 48 34.5 71t66.5 23q45 0 68 -25t16 -67l-90 -514q-7 -44 -28.5 -90.5t-36 -68.5
t-52.5 -77q-36 -51 -52.5 -75.5t-38 -71.5t-28.5 -92l-61 -344h161l-6 -33h-194z" />
    <glyph glyph-name="three" unicode="3" horiz-adv-x="288" 
d="M43 -8q-105 0 -84 112l86 482h31l-84 -482q-12 -81 53 -81q33 0 49.5 18.5t24.5 56.5l100 561q12 84 -57 84h-25l6 31h21q71 0 88 88l86 484q13 81 -53 81q-58 0 -70 -77l-74 -422h-32l75 426q20 104 105 104q50 0 71 -28t11 -80l-86 -488q-15 -87 -74 -102
q56 -14 41 -98l-100 -568q-21 -102 -109 -102z" />
    <glyph glyph-name="four" unicode="4" horiz-adv-x="270" 
d="M213 348h-53l-62 -348h-35l64 348h-141l6 29l330 1073h32l-188 -1071h53zM281 1229l-258 -850h110l156 846l35 168z" />
    <glyph glyph-name="five" unicode="5" horiz-adv-x="280" 
d="M43 -8q-98 0 -82 108l74 437h33l-74 -437q-6 -39 5 -58t48 -19q58 0 70 77q15 75 33 181q9 61 31.5 183t27.5 154l31 183q15 80 -39 80q-44 0 -78 -76l-17 -37l-24 6l141 676h170v-2q-1 -17 -11 -23t-36 -6h-98l-55 -270q-26 -127 -64 -305q19 35 37.5 51t46.5 16
q81 0 61 -104l-32 -184q-10 -62 -31.5 -183t-28.5 -161l-32 -185q-11 -51 -36 -76.5t-71 -25.5z" />
    <glyph glyph-name="six" unicode="6" horiz-adv-x="284" 
d="M154 96q-15 -104 -109 -104q-103 0 -82 112l219 1250q14 104 107 104q48 0 71 -28.5t13 -81.5l-62 -351h-32l61 349q8 38 -5.5 59.5t-47.5 21.5q-57 0 -72 -75l-86 -494q24 49 78 49q41 0 60.5 -27.5t11.5 -74.5zM51 25q55 0 72 75l121 701q8 36 -4.5 57t-44.5 21
q-59 0 -78 -84l-121 -691q-13 -79 55 -79z" />
    <glyph glyph-name="seven" unicode="7" horiz-adv-x="233" 
d="M-49 0q41 154 104 436q120 495 144 584q78 311 120 399h-145l4 31h180l-6 -29q-42 -92 -121 -405q-84 -317 -143 -584q-21 -87 -55.5 -237.5t-46.5 -194.5h-35z" />
    <glyph glyph-name="eight" unicode="8" horiz-adv-x="286" 
d="M45 -8q-100 0 -84 110l102 586q9 77 70 92q-47 21 -35 86l86 490q20 102 109 102q49 0 70 -28t10 -78l-84 -486q-12 -68 -66 -90q46 -24 37 -88l-106 -596q-16 -100 -109 -100zM131 866q-6 -33 7.5 -53t43.5 -20q60 0 74 73l84 484q13 77 -51 77q-60 0 -72 -73zM49 25
q58 0 74 75l102 588q6 32 -9 53t-46 21q-60 0 -74 -74l-100 -586q-15 -77 53 -77z" />
    <glyph glyph-name="nine" unicode="9" horiz-adv-x="284" 
d="M41 -8q-47 0 -68 29.5t-10 80.5l76 428h33l-76 -426q-12 -79 51 -79q58 0 70 75l106 596q-26 -45 -78 -45q-42 0 -60.5 27.5t-10.5 75.5l106 600q11 55 35.5 79.5t73.5 24.5q53 0 72.5 -27t9.5 -85l-221 -1248q-7 -57 -33.5 -81.5t-75.5 -24.5zM158 682q62 0 73 70
l107 596q8 37 -5.5 58t-49.5 21q-59 0 -72 -77l-105 -592q-12 -76 52 -76z" />
    <glyph glyph-name="colon" unicode=":" horiz-adv-x="184" 
d="M119 748q-28 0 -19 38q3 37 33 37q24 0 21 -37q-9 -38 -35 -38zM12 135q-23 0 -20 39t35 39q24 0 16 -39q-1 -18 -10 -28.5t-21 -10.5z" />
    <glyph glyph-name="semicolon" unicode=";" horiz-adv-x="184" 
d="M119 725q-30 0 -21 39q3 39 35 39q22 0 19 -39q-9 -39 -33 -39zM-49 -74q38 33 45 72q-3 -8 -12 -8q-22 0 -13 39q3 41 31 41q18 0 22.5 -11t-1.5 -43q-15 -75 -68 -110z" />
    <glyph glyph-name="less" unicode="&#x3c;" horiz-adv-x="319" 
d="M84 725l4 27l207 88l-6 -37l-162 -66l139 -65l-6 -35z" />
    <glyph glyph-name="equal" unicode="=" horiz-adv-x="319" 
d="M96 766l4 33h191l-6 -33h-189zM76 649l4 33h190l-6 -33h-188z" />
    <glyph glyph-name="greater" unicode="&#x3e;" horiz-adv-x="319" 
d="M80 674l162 65l-140 66l7 35l176 -90l-4 -25l-207 -88z" />
    <glyph glyph-name="question" unicode="?" horiz-adv-x="296" 
d="M53 135l4 29l64 368q8 48 23 89.5t25.5 60.5t29.5 49q2 3 10.5 16t11.5 18t10 16.5t10 19t7.5 19t7 23t4.5 23.5l86 484q15 80 -51 80q-58 0 -68 -74l-82 -455h-32l82 457q16 100 102 100q97 0 82 -106l-86 -492q-3 -19 -8 -36t-13 -33.5t-13 -25t-17 -26t-15 -22.5
q-18 -29 -28 -47.5t-24 -56t-21 -81.5l-68 -397h-33zM43 -8q-21 0 -18 39q9 39 32 39q29 0 21 -39q-9 -39 -35 -39z" />
    <glyph glyph-name="at" unicode="@" horiz-adv-x="462" 
d="M104 -209q-93 0 -136.5 54.5t-26.5 150.5l221 1251q17 95 72.5 144t140.5 49q86 0 132.5 -52.5t29.5 -144.5l-220 -1243q-15 -90 -81 -90q-49 0 -58 51q-20 -57 -69 -57q-78 0 -58 108l211 1200q11 68 33 92.5t57 24.5q51 0 54 -55l12 51h22l-233 -1325q-10 -66 31 -66
q39 0 51 70l217 1241q13 81 -24.5 122.5t-110.5 41.5q-71 0 -118 -42t-60 -120l-222 -1253q-13 -84 22.5 -128t115.5 -44q81 0 122 53l27 -18q-33 -36 -67.5 -51t-86.5 -15zM119 -70q48 0 63 99l205 1161q12 56 6 83t-37 27q-26 0 -39.5 -19t-23.5 -73l-211 -1194
q-7 -46 2 -65t35 -19z" />
    <glyph glyph-name="A" unicode="A" horiz-adv-x="243" 
d="M125 311h-100l-72 -311h-33l334 1450h37l-170 -1450h-33zM31 344h98l94 780l39 267l-53 -267z" />
    <glyph glyph-name="B" unicode="B" horiz-adv-x="280" 
d="M-51 0l254 1450h69q62 0 84.5 -24t10.5 -87l-86 -485q-15 -81 -74 -96q57 -12 45 -94l-98 -560q-11 -59 -35 -81.5t-82 -22.5h-88zM231 1419l-114 -647h43q76 0 88 82l88 489q7 42 -9 59t-61 17h-35zM111 741l-125 -708h49q42 0 60.5 15.5t25.5 57.5l96 558q15 77 -59 77
h-47z" />
    <glyph glyph-name="C" unicode="C" horiz-adv-x="278" 
d="M41 -8q-45 0 -66.5 27t-11.5 77l12 68q9 51 35.5 205.5t38.5 220.5l92 514l43 250q14 104 105 104q99 0 78 -106l-84 -475h-33l86 475q5 38 -5.5 56.5t-43.5 18.5t-48 -18.5t-22 -56.5l-221 -1254q-12 -73 51 -73q56 0 68 77l96 545h33l-97 -545q-10 -60 -34.5 -85
t-71.5 -25z" />
    <glyph glyph-name="D" unicode="D" horiz-adv-x="286" 
d="M205 1450h67q122 0 97 -127l-213 -1210q-10 -64 -41.5 -88.5t-98.5 -24.5h-67zM229 1419l-241 -1386h32q48 0 72 19t31 65l215 1210q10 50 -8.5 71t-63.5 21h-37z" />
    <glyph glyph-name="E" unicode="E" horiz-adv-x="204" 
d="M86 0h-137l256 1450h133l-6 -31h-101l-118 -667h100l-6 -33h-98l-123 -686h104z" />
    <glyph glyph-name="F" unicode="F" horiz-adv-x="204" 
d="M104 700l-122 -700h-33l254 1450h141l-6 -31h-107l-120 -686h102l-6 -33h-103z" />
    <glyph glyph-name="G" unicode="G" horiz-adv-x="280" 
d="M119 76q-26 -84 -92 -84q-87 0 -66 102l221 1262q20 102 105 102q49 0 70 -27.5t10 -80.5l-82 -463h-33l84 465q10 75 -51 75q-58 0 -70 -73l-221 -1256q-12 -73 45 -73q38 0 54.5 27t25.5 81l104 586h-67l6 33h98l-131 -752h-18z" />
    <glyph glyph-name="H" unicode="H" horiz-adv-x="286" 
d="M227 715h-118l-127 -715h-33l256 1450h33l-125 -705h118l125 705h33l-254 -1450h-35z" />
    <glyph glyph-name="I" unicode="I" horiz-adv-x="163" 
d="M-84 0l4 31h49l246 1388h-49l6 31h127l-6 -31h-45l-246 -1388h45l-4 -31h-127z" />
    <glyph glyph-name="J" unicode="J" horiz-adv-x="260" 
d="M27 -8q-93 0 -74 108l84 480h33l-84 -484q-7 -35 2.5 -53t42.5 -18q28 0 41 20.5t22 63.5l236 1341h32l-237 -1346q-7 -60 -30.5 -86t-67.5 -26z" />
    <glyph glyph-name="K" unicode="K" horiz-adv-x="264" 
d="M217 948l-143 -420l-92 -528h-33l254 1450h33l-113 -647l-62 -275l70 234l234 688h32l-161 -479l-95 -971h-32l73 733z" />
    <glyph glyph-name="L" unicode="L" horiz-adv-x="202" 
d="M-51 0l254 1450h33l-250 -1417h100l-4 -33h-133z" />
    <glyph glyph-name="M" unicode="M" horiz-adv-x="348" 
d="M-18 0h-33l254 1450h33l-60 -813l-26 -191l45 191l223 813h33l-256 -1450h-31l160 913l96 471l-84 -325l-178 -643h-23l43 639l29 317l-66 -459z" />
    <glyph glyph-name="N" unicode="N" horiz-adv-x="311" 
d="M-20 0h-31l254 1450h30l-59 -1102l-24 -295l47 342l186 1055h31l-254 -1450h-33l53 1006l29 346l-72 -455z" />
    <glyph glyph-name="O" unicode="O" horiz-adv-x="288" 
d="M45 -8q-101 0 -80 112l219 1248q15 106 109 106q46 0 70 -29t14 -81l-223 -1262q-14 -94 -109 -94zM49 25q59 0 74 65l221 1262q13 75 -53 75q-58 0 -74 -75l-219 -1246q-13 -81 51 -81z" />
    <glyph glyph-name="P" unicode="P" horiz-adv-x="274" 
d="M63 461l-81 -461h-33l254 1450h69q60 0 80.5 -26.5t9.5 -86.5l-133 -764q-15 -112 -123 -112h-43zM231 1419l-163 -925h38q78 0 93 84l133 761q7 44 -7 62t-55 18h-39z" />
    <glyph glyph-name="Q" unicode="Q" horiz-adv-x="288" 
d="M80 -80l-14 74q-6 -2 -21 -2q-101 0 -80 112l219 1248q15 106 109 106q46 0 70 -29t14 -81l-223 -1262q-12 -66 -60 -86l25 -80h-39zM49 25q59 0 74 65l221 1262q13 75 -53 75q-58 0 -74 -75l-219 -1246q-13 -81 51 -81z" />
    <glyph glyph-name="R" unicode="R" horiz-adv-x="278" 
d="M100 676l-118 -676h-33l254 1450h67q117 0 97 -113l-99 -557q-12 -76 -73 -88q30 -7 38 -31.5t0 -68.5l-98 -551q-3 -30 8 -41h-39q-11 14 -2 41l97 549q8 44 -2.5 65t-49.5 21h-47zM231 1419l-125 -710h44q38 0 58.5 16t27.5 57l98 551q15 86 -70 86h-33z" />
    <glyph glyph-name="S" unicode="S" horiz-adv-x="274" 
d="M41 -8q-101 0 -80 117l94 530h33l-94 -535q-15 -79 47 -79q55 0 68 65l98 559q6 37 -5 60.5t-46 46.5q-26 20 -35.5 28.5t-19.5 31.5t-5 52l88 502q15 88 97 88q47 0 69 -27.5t12 -74.5l-83 -471h-33l84 469q12 73 -49 73q-55 0 -64 -59l-88 -498q-1 -9 -1 -17.5
t0.5 -14.5t4.5 -12.5t5.5 -10t9 -10t10 -9t12.5 -10l14 -10.5q40 -28 53 -52t3 -73l-99 -563q-16 -96 -100 -96z" />
    <glyph glyph-name="T" unicode="T" horiz-adv-x="186" 
d="M256 1419l-248 -1419h-33l248 1419h-61l6 31h156l-7 -31h-61z" />
    <glyph glyph-name="U" unicode="U" horiz-adv-x="288" 
d="M43 -8q-99 0 -78 117l236 1341h35l-238 -1344q-13 -81 49 -81q60 0 70 73l237 1352h35l-239 -1356q-15 -102 -107 -102z" />
    <glyph glyph-name="V" unicode="V" horiz-adv-x="243" 
d="M0 0l176 1450h33l-143 -1147l-35 -248l49 248l262 1147h33l-336 -1450h-39z" />
    <glyph glyph-name="W" unicode="W" horiz-adv-x="372" 
d="M14 0h-37l207 1450h31l-174 -1190l-41 -242l45 222l281 1210h28l-147 -1202l-27 -189l39 205l244 1186h33l-306 -1450h-36l135 1124l41 260l-54 -260z" />
    <glyph glyph-name="X" unicode="X" horiz-adv-x="243" 
d="M-51 0h-33l219 760l41 690h33l-27 -414l-18 -237l63 237l113 414h33l-193 -678l-57 -772h-33l37 473l29 270l-74 -270z" />
    <glyph glyph-name="Y" unicode="Y" horiz-adv-x="241" 
d="M2 0l82 461l90 989h33l-64 -686l-32 -240l55 240l174 686h33l-256 -983l-82 -467h-33z" />
    <glyph glyph-name="Z" unicode="Z" horiz-adv-x="200" 
d="M-70 0l4 29l353 1390h-109l6 31h138l-5 -29l-350 -1388h111l-4 -33h-144z" />
    <glyph glyph-name="bracketleft" unicode="[" horiz-adv-x="188" 
d="M6 -356h-117l324 1851h117l-4 -31h-84l-314 -1790h82z" />
    <glyph glyph-name="backslash" unicode="\" horiz-adv-x="229" 
d="M225 1450l-139 -1450h-33l140 1450h32z" />
    <glyph glyph-name="bracketright" unicode="]" horiz-adv-x="188" 
d="M-147 -356l6 30h84l313 1790h-84l4 31h117l-324 -1851h-116z" />
    <glyph glyph-name="asciicircum" unicode="^" horiz-adv-x="282" 
d="M250 1212l-88 -163h-33l115 200h24l43 -200h-32z" />
    <glyph glyph-name="uni005F" unicode="_" horiz-adv-x="225" 
d="M-94 -98h178l-6 -33h-176z" />
    <glyph glyph-name="grave" unicode="`" 
d="M203 1337h33l32 -104h-24z" />
    <glyph glyph-name="a" unicode="a" horiz-adv-x="270" 
d="M147 0q-48 0 -45 55q-22 -63 -79 -63q-85 0 -64 119l74 415q10 59 41 90q21 19 63 37q6 3 18.5 9t17 8t13 7t11.5 8.5t7.5 9.5t7 12.5t3.5 15.5l64 356q6 32 -5.5 51t-40.5 19q-56 0 -65 -68l-62 -338h-32l61 342q16 95 101 95q45 0 64 -27.5t11 -71.5l-168 -956
q-8 -59 -4.5 -76.5t23.5 -17.5h8l-6 -31h-17zM37 23q29 0 46.5 23t27.5 77l96 547q-12 -21 -60 -43q-33 -11 -49 -29q-19 -13 -32 -72l-74 -417q-15 -86 45 -86z" />
    <glyph glyph-name="b" unicode="b" horiz-adv-x="274" 
d="M45 -8q-56 0 -59 67l-15 -59h-24l262 1499h33l-66 -381q24 62 76 62q42 0 57.5 -29.5t5.5 -95.5l-168 -940q-11 -73 -34.5 -98t-67.5 -25zM41 23q29 0 47.5 20t28.5 76l166 936q8 51 -1.5 72.5t-43.5 21.5q-56 0 -74 -98l-164 -932q-15 -96 41 -96z" />
    <glyph glyph-name="c" unicode="c" horiz-adv-x="264" 
d="M35 -8q-96 0 -76 110l174 981q15 97 94 97q103 0 82 -111l-65 -377h-33l65 377q15 80 -49 80q-28 0 -41 -17.5t-20 -52.5l-172 -977q-15 -77 45 -77q53 0 65 69l74 418h33l-74 -418q-15 -102 -102 -102z" />
    <glyph glyph-name="d" unicode="d" horiz-adv-x="272" 
d="M104 59q-25 -67 -79 -67q-44 0 -60.5 27t-3.5 100l166 942q10 64 31.5 91.5t60.5 27.5q63 0 66 -72l67 391h33l-262 -1499h-25zM35 23q58 0 74 90l2 10h2v4l161 922q15 100 -47 100q-30 0 -45 -20t-22 -72l-166 -936q-10 -56 1.5 -77t39.5 -21z" />
    <glyph glyph-name="e" unicode="e" horiz-adv-x="266" 
d="M139 96q-7 -51 -34 -77.5t-70 -26.5q-98 0 -78 110l174 979q19 99 102 99q44 0 66 -28t12 -79l-86 -491h-149l-84 -480q-15 -77 45 -77q57 0 69 73l68 377h33zM82 612h115l82 461q15 76 -50 76q-53 0 -65 -70z" />
    <glyph glyph-name="f" unicode="f" horiz-adv-x="153" 
d="M186 1139l-200 -1139h-33l201 1139h-45l6 32h43l41 230q10 59 30 78.5t64 19.5h10l-6 -31h-6q-29 0 -41 -13t-19 -56l-41 -228h56l-6 -32h-54z" />
    <glyph glyph-name="g" unicode="g" horiz-adv-x="274" 
d="M2 -193q-48 0 -67.5 26.5t-8.5 70.5l2 16h35l-2 -14q-14 -68 45 -68q54 0 66 64l24 149q-24 -59 -73 -59q-83 0 -62 133l164 926q13 74 36 101.5t62 27.5q63 0 66 -66l14 57h25l-226 -1275q-8 -46 -31 -67.5t-69 -21.5zM37 23q59 0 74 104l161 911q20 113 -45 113
q-27 0 -43 -22.5t-26 -79.5l-164 -926q-15 -100 43 -100z" />
    <glyph glyph-name="h" unicode="h" horiz-adv-x="274" 
d="M-20 0h-33l264 1499h33l-68 -375q26 56 74 56q83 0 61 -119l-186 -1061h-33l187 1061q18 88 -39 88q-31 0 -49.5 -26t-28.5 -87z" />
    <glyph glyph-name="i" unicode="i" horiz-adv-x="129" 
d="M180 1241q-19 0 -16 35q8 35 31 35q19 0 16 -35q-9 -35 -31 -35zM-53 0l207 1171h32l-206 -1171h-33z" />
    <glyph glyph-name="j" unicode="j" horiz-adv-x="129" 
d="M180 1241q-19 0 -16 35q8 35 31 35q19 0 16 -35q-9 -35 -31 -35zM-127 -121l6 33h17q34 0 43 45l213 1214h32l-213 -1216q-8 -42 -23.5 -59t-51.5 -17h-23z" />
    <glyph glyph-name="k" unicode="k" horiz-adv-x="253" 
d="M182 764l-137 -385l-65 -379h-33l262 1499h33l-142 -811l-67 -307l73 237l197 553h31l-135 -387l-66 -784h-33l47 528z" />
    <glyph glyph-name="l" unicode="l" horiz-adv-x="129" 
d="M211 1499h33l-264 -1499h-33z" />
    <glyph glyph-name="m" unicode="m" horiz-adv-x="397" 
d="M-20 0h-33l207 1171h24l-6 -49q24 58 74 58q54 0 57 -66q26 66 76 66q39 0 53 -28t2 -91l-10 -64q-20 -115 -64 -362q-71 -416 -73 -428l-37 -207h-33l184 1061q9 49 1.5 68.5t-33.5 19.5q-29 0 -46 -25.5t-22 -60.5l-12 -64q-20 -115 -64 -362q-48 -293 -73 -430
l-37 -207h-33l186 1063q19 86 -32 86q-33 0 -48.5 -27.5t-27.5 -87.5z" />
    <glyph glyph-name="n" unicode="n" horiz-adv-x="274" 
d="M-20 0h-33l207 1171h24l-6 -55q27 64 78 64q83 0 61 -119l-12 -64q-2 -9 -24.5 -140.5t-38.5 -221.5q-61 -356 -74 -428l-37 -207h-33l187 1061q18 88 -39 88q-31 0 -49.5 -25.5t-28.5 -87.5z" />
    <glyph glyph-name="o" unicode="o" horiz-adv-x="272" 
d="M33 -8q-94 0 -74 114l172 975q19 99 98 99q48 0 70 -29t12 -78l-174 -979q-15 -102 -104 -102zM37 25q54 0 69 73l173 975q12 76 -50 76q-56 0 -65 -70l-172 -975q-15 -79 45 -79z" />
    <glyph glyph-name="p" unicode="p" horiz-adv-x="274" 
d="M51 -8q-60 0 -63 63l-76 -428h-31l273 1544h24l-6 -57q28 66 82 66q40 0 55.5 -29t3.5 -100l-163 -934q-11 -63 -34 -94t-65 -31zM43 23q59 0 74 100l162 919q10 59 0.5 83t-37.5 24q-60 0 -80 -113l-162 -917q-17 -96 43 -96z" />
    <glyph glyph-name="q" unicode="q" horiz-adv-x="274" 
d="M23 -373l75 428q-25 -63 -75 -63q-86 0 -62 125l164 936q13 73 36 100t64 27q55 0 64 -66l14 57h25l-273 -1544h-32zM35 23q26 0 47.5 25.5t28.5 74.5l161 915q21 111 -45 111q-26 0 -42.5 -21.5t-26.5 -78.5l-164 -932q-19 -94 41 -94z" />
    <glyph glyph-name="r" unicode="r" horiz-adv-x="165" 
d="M-53 0l205 1171h26l-8 -67q11 36 29.5 51.5t54.5 15.5h4l-6 -36h-8q-41 0 -57 -22t-27 -89l-180 -1024h-33z" />
    <glyph glyph-name="s" unicode="s" horiz-adv-x="256" 
d="M27 -8q-95 0 -74 100l74 414h32l-73 -414q-9 -67 45 -67q52 0 61 63l74 414q6 37 -5 57t-44 41q-36 26 -48.5 48.5t-5.5 62.5l66 374q15 95 94 95q89 0 74 -99l-64 -364h-32l63 366q10 66 -41 66t-61 -66l-64 -368q-7 -35 1 -50t42 -40q14 -10 22 -16t17 -15t13 -17
t7.5 -19t2.5 -25t-4 -31l-74 -416q-8 -48 -31 -71t-67 -23z" />
    <glyph glyph-name="t" unicode="t" horiz-adv-x="163" 
d="M47 0h-14q-48 0 -60 21t0 90l183 1030h-43l6 30q21 0 24 3q20 0 23 22q10 42 18 88h29l-18 -110h57l-6 -33h-58l-180 -1026q-10 -55 -4 -68.5t39 -13.5h8z" />
    <glyph glyph-name="u" unicode="u" 
d="M98 59q-25 -67 -78 -67q-41 0 -54.5 28t-2.5 93l187 1058h32l-186 -1058q-19 -90 39 -90q53 0 74 112l182 1036h33l-205 -1171h-27z" />
    <glyph glyph-name="v" unicode="v" horiz-adv-x="231" 
d="M0 0l127 1171h33l-107 -921l-37 -246l50 246l213 921h32l-278 -1171h-33z" />
    <glyph glyph-name="w" unicode="w" horiz-adv-x="352" 
d="M8 0h-33l154 1171h33l-125 -905l-39 -246l53 250l217 901h27l-102 -905l-31 -213l43 213l194 905h31l-256 -1171h-33l90 834l48 319l-66 -319z" />
    <glyph glyph-name="x" unicode="x" horiz-adv-x="237" 
d="M-53 0h-33l186 614l27 557h33l-21 -370l-14 -160l43 158l113 372h32l-170 -555l-24 -616h-31l16 410l17 196l-53 -194z" />
    <glyph glyph-name="y" unicode="y" horiz-adv-x="235" 
d="M-104 -156l6 33h18q21 0 33 9t18 36l21 74l137 1175h33l-105 -856l-45 -288l66 297l205 847h32l-307 -1245q-12 -48 -32 -65t-60 -17h-20z" />
    <glyph glyph-name="z" unicode="z" horiz-adv-x="180" 
d="M-76 0l4 25l295 1116h-98l6 30h129l-6 -30l-293 -1110h100l-4 -31h-133z" />
    <glyph glyph-name="braceleft" unicode="{" horiz-adv-x="190" 
d="M-14 -360q-120 0 -97 124q3 23 23 89l98 346q68 241 70 247q7 42 -11.5 65.5t-52.5 23.5h-4l6 36h5q81 0 94 82q6 42 8 88q4 52 13.5 179t13.5 182q14 224 22 270q11 67 42 97t97 30h9l-5 -31h-4q-91 0 -106 -98q-9 -71 -10 -98q-19 -229 -27 -363q-14 -233 -20 -256
q-7 -46 -36 -70t-61 -30v-2q28 -2 49 -30t11 -72q-3 -23 -23 -89q-5 -19 -41 -144.5t-55 -197.5q-64 -225 -70 -256q-6 -46 11 -69t63 -23h4l-6 -30h-10z" />
    <glyph glyph-name="bar" unicode="|" horiz-adv-x="135" 
d="M-88 -213l334 1907h33l-334 -1907h-33z" />
    <glyph glyph-name="braceright" unicode="}" horiz-adv-x="190" 
d="M-139 -330h6q91 0 106 99q11 84 11 96q15 181 26 362q4 57 8.5 114.5t8.5 97.5t4 46q10 48 37.5 72.5t58.5 26.5v2q-28 2 -47 31t-12 71q4 27 22 88q5 19 41 144.5t55 197.5q64 225 70 256q12 94 -74 94h-4l4 31h13q119 0 96 -127q-3 -21 -23 -88l-98 -346
q-67 -235 -70 -248q-7 -42 11.5 -65t52.5 -23h2l-6 -37h-2q-82 0 -95 -82q-5 -27 -8 -88q-4 -51 -12.5 -174.5t-13.5 -183.5q-13 -216 -23 -270q-11 -68 -42 -97.5t-97 -29.5h-10z" />
    <glyph glyph-name="asciitilde" unicode="~" horiz-adv-x="278" 
d="M162 1223q15 75 57 75q23 0 46 -24.5t34 -24.5q12 0 18.5 9.5t10.5 37.5h28q-12 -75 -59 -75q-22 0 -45 23.5t-35 23.5t-17 -9t-10 -36h-28z" />
    <glyph glyph-name="uni00A0" unicode="&#xa0;" horiz-adv-x="124" 
 />
    <glyph glyph-name="exclamdown" unicode="&#xa1;" horiz-adv-x="184" 
d="M184 1120q-21 0 -18 39q9 39 35 39q27 0 18 -39q-1 -18 -11 -28.5t-24 -10.5zM-25 23q3 21 24 131.5t36 195.5q15 88 45 250t39 211q45 238 45 244q4 -2 10 -2q10 0 12 2q0 -16 -41 -244q-68 -412 -77 -463q-15 -91 -34.5 -203t-21.5 -122l-51 -283h-35z" />
    <glyph glyph-name="cent" unicode="&#xa2;" horiz-adv-x="264" 
d="M137 90q-15 -98 -90 -98l-43 -248h-33l43 250q-68 12 -53 112l172 979q20 95 92 95l43 245h33l-43 -249q66 -12 51 -103l-65 -381h-33l68 381q12 76 -52 76q-48 0 -61 -68l-172 -977q-12 -79 47 -79q28 0 42.5 16.5t20.5 52.5l74 418h33z" />
    <glyph glyph-name="sterling" unicode="&#xa3;" horiz-adv-x="348" 
d="M129 -12q-40 0 -74 51q-30 -51 -78 -51q-29 0 -43.5 21.5t-9.5 49.5q4 28 26 46t48 18q24 0 55 -31q6 14 10 47q35 187 54 486h-80l4 30h80q3 40 8.5 116.5t7.5 107.5q18 283 47 450q21 133 115 133q102 0 78 -147l-23 -125h-32l22 123q21 119 -47 119q-31 0 -50.5 -23
t-29.5 -80q-21 -142 -29 -217q-16 -175 -36 -457h75l-6 -30h-71q-29 -337 -58 -486q-1 -18 -20 -71q31 -45 59 -45q50 0 64 110l12 66h33q-9 -45 -15 -70q-11 -72 -33.5 -106.5t-62.5 -34.5zM-16 16q30 0 55 43q-21 35 -47 35q-34 0 -37 -33q-5 -18 3.5 -31.5t25.5 -13.5z
" />
    <glyph glyph-name="currency" unicode="&#xa4;" horiz-adv-x="249" 
d="M156 518q-15 -12 -43 -12t-43 12l-45 -49l-17 16l47 54q-3 15 0 36l51 299q12 32 19 41l-25 48l23 16l22 -45q21 12 43 12q26 0 41 -12l39 47l17 -12l-43 -51q8 -13 4 -41l-53 -299q-1 -8 -15 -41l27 -52l-23 -16zM115 532q20 0 33.5 13.5t15.5 34.5l53 292q11 46 -33 46
q-38 0 -49 -46l-51 -294q-4 -46 31 -46z" />
    <glyph glyph-name="yen" unicode="&#xa5;" horiz-adv-x="243" 
d="M98 344l-61 -344h-33l62 344h-78l6 31h76l20 114h-78l6 31h78l4 23l76 907h35l-64 -676l-26 -199l43 199l176 676h35l-242 -905l-4 -25h76l-4 -31h-78l-21 -114h78l-6 -31h-76z" />
    <glyph glyph-name="brokenbar" unicode="&#xa6;" horiz-adv-x="133" 
d="M244 1694h32l-149 -850h-33zM94 664l-151 -877h-33l151 877h33z" />
    <glyph glyph-name="section" unicode="&#xa7;" horiz-adv-x="276" 
d="M43 -8q-49 0 -70 28.5t-10 79.5l76 428h31l-76 -430q-9 -73 51 -73q54 0 66 65l75 436q-1 11 1.5 15.5t-2 14t-4.5 13.5t-6 12.5t-8 11.5t-10 11.5t-11 12t-12 12t-13 12.5q-37 35 -51 61t-7 66l9 41q6 35 24.5 57.5t38.5 24.5q-25 41 -18 80l69 391q20 96 97 96
q45 0 67 -25.5t15 -72.5l-72 -402h-33l72 400q12 69 -49 69q-29 0 -43.5 -15.5t-20.5 -51.5l-67 -387q0 -13 -1.5 -20.5t3.5 -18.5t7.5 -17t11 -16t13 -15.5t14.5 -15.5t15 -16q33 -30 47 -59.5t4 -73.5l-6 -43q-11 -61 -57 -72q25 -35 16 -80l-76 -438q-16 -96 -100 -96z
M190 621q34 15 37 57l6 41q5 38 -7.5 63t-43.5 56q-5 7 -17.5 18t-17.5 18q-33 -11 -43 -67l-6 -37q-2 -12 -2.5 -21t2 -18t5 -14.5t9 -14t10.5 -13t14.5 -14.5t15.5 -16z" />
    <glyph glyph-name="dieresis" unicode="&#xa8;" 
d="M209 1239q-19 0 -16 31q3 33 26 33q22 0 19 -33q-2 -14 -9.5 -22.5t-19.5 -8.5zM285 1239q-20 0 -17 31q3 33 27 33q19 0 16 -33q-3 -31 -26 -31z" />
    <glyph glyph-name="copyright" unicode="&#xa9;" horiz-adv-x="454" 
d="M129 -14q-86 0 -130.5 46.5t-27.5 133.5l193 1108q17 90 71 137t138 47q81 0 126.5 -49.5t28.5 -132.5l-196 -1112q-34 -178 -203 -178zM131 16q144 0 172 152l195 1108q12 70 -23.5 110.5t-103.5 40.5q-149 0 -176 -155l-193 -1104q-13 -72 22 -112t107 -40zM145 98
q-43 0 -60 26.5t-9 72.5l190 1075q12 82 92 82t68 -88l-74 -418h-30l73 416q9 61 -39 61q-51 0 -59 -55l-191 -1077q-6 -30 5 -48t39 -18q46 0 55 57l80 459h32l-81 -461q-12 -84 -91 -84z" />
    <glyph glyph-name="ordfeminine" unicode="&#xaa;" horiz-adv-x="219" 
d="M197 618q-38 0 -35 41q-20 -45 -62 -45q-57 0 -41 80l52 301q10 51 28 64q10 10 47 24q6 3 17 7t15.5 6.5t10.5 6.5t8 9.5t3 13.5l49 263q5 18 -4 29.5t-29 11.5q-36 0 -45 -41l-41 -234h-31l41 236q4 30 26.5 48.5t53.5 18.5q32 0 47.5 -18.5t9.5 -50.5l-124 -705
q-4 -26 -1 -32.5t17 -6.5h4l-6 -27h-10zM111 643q45 0 57 64l65 380q-8 -14 -38 -24q-17 -3 -33 -19q-14 -14 -21 -47l-53 -299q-8 -55 23 -55z" />
    <glyph glyph-name="guillemotleft" unicode="&#xab;" horiz-adv-x="301" 
d="M68 256l-33 342l2 2l151 361h35l-157 -361l36 -344h-34zM170 256l-33 342l2 2l152 361h35l-158 -361l37 -344h-35z" />
    <glyph glyph-name="logicalnot" unicode="&#xac;" horiz-adv-x="374" 
d="M287 594l20 127h-227l6 33h262l-29 -160h-32z" />
    <glyph glyph-name="uni00AD" unicode="&#xad;" horiz-adv-x="251" 
d="M41 610h180l-4 -32h-180z" />
    <glyph glyph-name="registered" unicode="&#xae;" horiz-adv-x="354" 
d="M287 1165q-66 0 -101.5 46.5t-23.5 109.5v2q11 62 53.5 98.5t106.5 36.5q67 0 103 -44.5t24 -110.5v-3q-12 -64 -54.5 -99.5t-107.5 -35.5zM293 1192q108 0 129 111v2q11 55 -18 92t-87 37q-51 0 -85 -29.5t-44 -83.5v-2q-8 -53 20.5 -90t84.5 -37zM274 1294l-10 -53h-26
l26 148h60q30 0 41.5 -10t7.5 -33q-3 -36 -39 -39q23 -3 20 -37l-2 -17q-2 -7 2 -12h-26q-3 3 0 12q0 15 2 17q4 17 -1 20.5t-26 3.5h-29zM287 1366l-8 -49h26q40 0 43 26q3 23 -31 23h-30z" />
    <glyph glyph-name="macron" unicode="&#xaf;" 
d="M193 1294h133l-7 -28h-133z" />
    <glyph glyph-name="degree" unicode="&#xb0;" horiz-adv-x="260" 
d="M227 1108q-42 0 -63.5 27t-13.5 65v2q6 40 35 63t67 23q41 0 63.5 -27.5t14.5 -66.5q-6 -38 -33 -62t-70 -24zM231 1139q57 0 66 57q4 29 -9 45t-38 16q-59 0 -68 -57q-6 -27 7 -44t42 -17z" />
    <glyph glyph-name="plusminus" unicode="&#xb1;" horiz-adv-x="321" 
d="M205 764l-15 -80h-32l14 80h-80l6 31h80l15 79h32l-14 -79h80l-6 -31h-80zM63 600l7 31h192l-6 -31h-193z" />
    <glyph glyph-name="uni00B2" unicode="&#xb2;" horiz-adv-x="165" 
d="M76 840q2 13 6.5 29.5t14 40t15.5 37.5t20.5 46.5t19.5 42.5q56 119 67 168l35 197q3 35 -25 35q-25 0 -28 -31l-39 -217h-27l39 219q9 53 57 53q57 0 48 -57l-35 -201q-5 -34 -68 -176q-67 -142 -76 -190l-10 -54h84l-4 -24h-111z" />
    <glyph glyph-name="uni00B3" unicode="&#xb3;" horiz-adv-x="167" 
d="M115 750q-58 0 -49 59l36 209h27l-37 -209q-3 -35 25 -35q27 0 30 33l48 260q4 23 -2 30t-27 7h-12l4 24h10q20 0 28.5 8.5t14.5 34.5l41 234q8 31 -21 31q-24 0 -32 -31l-33 -188h-27l33 188q8 55 64 55q24 0 35.5 -14.5t7.5 -40.5l-41 -234q-8 -43 -37 -53
q29 -10 20 -51l-47 -262q-9 -55 -59 -55z" />
    <glyph glyph-name="acute" unicode="&#xb4;" 
d="M303 1356h37l-94 -123h-27z" />
    <glyph glyph-name="paragraph" unicode="&#xb6;" horiz-adv-x="374" 
d="M88 0l199 1122h-29q-59 0 -88 42.5t-16 115.5l2 20q12 74 54.5 112t106.5 38h160l-256 -1450h-33l252 1419h-67l-252 -1419h-33zM293 1155l47 264h-31q-101 0 -121 -123l-2 -18q-10 -57 12.5 -90t67.5 -33h27z" />
    <glyph glyph-name="periodcentered" unicode="&#xb7;" horiz-adv-x="184" 
d="M86 553q-14 0 -18 8t0 31q3 37 32 37q24 0 21 -37q-4 -22 -12.5 -30.5t-22.5 -8.5z" />
    <glyph glyph-name="cedilla" unicode="&#xb8;" 
d="M2 -154q-64 0 -61 62h28q-1 -21 8 -28t29 -7q49 0 51 33q2 14 -8 21t-33 7h-10l12 78h29l-10 -53q60 -9 51 -53q-6 -29 -29.5 -44.5t-56.5 -15.5z" />
    <glyph glyph-name="uni00B9" unicode="&#xb9;" horiz-adv-x="135" 
d="M49 758l4 24h39l109 625q-10 -29 -39 -29l4 29q22 1 30.5 10t14.5 35h25l-119 -670h35l-7 -24h-96z" />
    <glyph glyph-name="ordmasculine" unicode="&#xba;" horiz-adv-x="221" 
d="M115 614q-65 0 -56 70q15 76 33 182l60 340l32 185q11 67 80 67q67 0 58 -67l-125 -705q-12 -72 -82 -72zM121 645q36 0 45 41l123 703q9 41 -31 41q-19 0 -28.5 -10.5t-14.5 -33.5l-125 -700q-3 -41 31 -41z" />
    <glyph glyph-name="guillemotright" unicode="&#xbb;" horiz-adv-x="301" 
d="M-20 256l157 365l-37 340h35l33 -340l-2 -7l-152 -358h-34zM82 256l158 365l-37 340h35l32 -340l-2 -7l-151 -358h-35z" />
    <glyph glyph-name="onequarter" unicode="&#xbc;" horiz-adv-x="354" 
d="M231 815l213 655l33 -12l-235 -647zM102 756l4 24h39l109 625q-10 -29 -39 -29l4 29q22 1 30.5 10t14.5 35h25l-119 -670h35l-6 -24h-97zM221 152l-26 -152h-25l29 152h-80l6 22l166 520h26l-92 -518h27l-6 -24h-25zM-63 0l241 672l12 -6l-219 -678zM150 176h53l86 457
l2 14l-10 -45z" />
    <glyph glyph-name="onehalf" unicode="&#xbd;" horiz-adv-x="354" 
d="M231 815l213 655l33 -12l-235 -647zM94 756l4 24h39l109 625q-10 -29 -39 -29l4 29q22 1 30.5 10t14.5 35h25l-119 -670h35l-7 -24h-96zM115 82q5 40 75 197q58 124 68 167l35 197q3 35 -25 35q-25 0 -28 -31l-39 -217h-27l39 219q9 53 57 53q56 0 47 -57l-34 -201
q-5 -34 -68 -176q-67 -142 -76 -190l-10 -53h84l-4 -25h-111zM-63 0l241 672l12 -6l-219 -678z" />
    <glyph glyph-name="threequarters" unicode="&#xbe;" horiz-adv-x="354" 
d="M231 815l213 655l33 -12l-235 -647zM137 748q-58 0 -49 59l37 209h27l-37 -209q-3 -35 24 -35q28 0 31 33l47 260q4 23 -2 30t-27 7h-12l4 24h10q20 0 28.5 8.5t14.5 34.5l41 234q8 31 -20 31q-25 0 -33 -31l-33 -189h-26l33 189q8 55 63 55q24 0 35.5 -14.5t7.5 -40.5
l-41 -234q-8 -43 -37 -53q30 -10 21 -51l-47 -262q-9 -55 -60 -55zM221 152l-26 -152h-25l29 152h-80l6 22l166 520h26l-92 -518h27l-6 -24h-25zM-63 0l241 672l12 -6l-219 -678zM150 176h53l86 457l2 14l-10 -45z" />
    <glyph glyph-name="questiondown" unicode="&#xbf;" horiz-adv-x="296" 
d="M254 1180q27 0 18 -39q-3 -39 -32 -39q-28 0 -19 39q3 39 33 39zM213 1038q0 -2 14 -2q17 0 19 2l-6 -30l-64 -367q-20 -119 -78 -199q-1 -2 -8 -12.5t-9 -14t-8 -13t-8.5 -14.5l-7 -14t-7 -16t-5.5 -16t-5 -18t-3 -19l-84 -483q-10 -39 4 -58.5t45 -19.5q56 0 70 72
l80 454h32l-80 -456q-17 -101 -104 -101q-103 0 -82 107l88 491q2 17 7 33t8 26.5t11.5 26t11 20t14 22t12.5 18.5q28 39 45.5 79.5t27.5 104.5z" />
    <glyph glyph-name="Agrave" unicode="&#xc0;" horiz-adv-x="243" 
d="M229 1608h33l33 -105h-25zM125 311h-100l-72 -311h-33l334 1450h37l-170 -1450h-33zM31 344h98l94 780l39 267l-53 -267z" />
    <glyph glyph-name="Aacute" unicode="&#xc1;" horiz-adv-x="243" 
d="M350 1624h37l-94 -123h-27zM125 311h-100l-72 -311h-33l334 1450h37l-170 -1450h-33zM31 344h98l94 780l39 267l-53 -267z" />
    <glyph glyph-name="Acircumflex" unicode="&#xc2;" horiz-adv-x="243" 
d="M297 1575l-55 -76h-31l78 105h22l43 -105h-30zM125 311h-100l-72 -311h-33l334 1450h37l-170 -1450h-33zM31 344h98l94 780l39 267l-53 -267z" />
    <glyph glyph-name="Atilde" unicode="&#xc3;" horiz-adv-x="243" 
d="M199 1516q14 71 59 71q22 0 42 -23.5t30 -23.5q12 0 19 9.5t11 35.5h27q-12 -72 -61 -72q-19 0 -40 24t-32 24q-20 0 -29 -45h-26zM125 311h-100l-72 -311h-33l334 1450h37l-170 -1450h-33zM31 344h98l94 780l39 267l-53 -267z" />
    <glyph glyph-name="Adieresis" unicode="&#xc4;" horiz-adv-x="243" 
d="M242 1507q-20 0 -17 31q3 33 27 33q21 0 18 -33q-3 -31 -28 -31zM317 1507q-19 0 -16 31q3 33 27 33q19 0 16 -33q-2 -14 -9.5 -22.5t-17.5 -8.5zM125 311h-100l-72 -311h-33l334 1450h37l-170 -1450h-33zM31 344h98l94 780l39 267l-53 -267z" />
    <glyph glyph-name="Aring" unicode="&#xc5;" horiz-adv-x="243" 
d="M285 1497q-30 0 -48 19.5t-12 50.5q12 65 80 65q31 0 47 -19t10 -50q-4 -30 -25.5 -48t-51.5 -18zM289 1522q35 0 45 43q4 18 -5.5 29.5t-27.5 11.5q-37 0 -49 -41q-3 -43 37 -43zM125 311h-100l-72 -311h-33l334 1450h37l-170 -1450h-33zM31 344h98l94 780l39 267
l-53 -267z" />
    <glyph glyph-name="AE" unicode="&#xc6;" horiz-adv-x="331" 
d="M125 303h-100l-74 -303h-33l365 1450h180l-6 -31h-142l-94 -676h107l-6 -30h-105l-96 -680h94l-4 -33h-129zM33 336h98l127 887l41 225l-49 -234z" />
    <glyph glyph-name="Ccedilla" unicode="&#xc7;" horiz-adv-x="278" 
d="M6 -168q-64 0 -61 62h28q-1 -21 8 -28t29 -7q49 0 51 32q2 14 -8 21.5t-33 7.5h-10l13 74q-75 9 -60 102l12 68q9 51 35.5 205.5t38.5 220.5l92 514l43 250q14 104 105 104q99 0 78 -106l-84 -475h-33l86 475q5 38 -5.5 56.5t-43.5 18.5t-48 -18.5t-22 -56.5l-221 -1254
q-12 -73 51 -73q56 0 68 77l96 545h33l-97 -545q-10 -59 -33 -84.5t-65 -25.5l-8 -47q60 -9 51 -54q-12 -59 -86 -59z" />
    <glyph glyph-name="Egrave" unicode="&#xc8;" horiz-adv-x="204" 
d="M229 1608h33l33 -105h-25zM86 0h-137l256 1450h133l-6 -31h-101l-118 -667h100l-6 -33h-98l-123 -686h104z" />
    <glyph glyph-name="Eacute" unicode="&#xc9;" horiz-adv-x="204" 
d="M350 1624h37l-94 -123h-27zM86 0h-137l256 1450h133l-6 -31h-101l-118 -667h100l-6 -33h-98l-123 -686h104z" />
    <glyph glyph-name="Ecircumflex" unicode="&#xca;" horiz-adv-x="204" 
d="M297 1575l-55 -76h-31l78 105h22l43 -105h-30zM86 0h-137l256 1450h133l-6 -31h-101l-118 -667h100l-6 -33h-98l-123 -686h104z" />
    <glyph glyph-name="Edieresis" unicode="&#xcb;" horiz-adv-x="204" 
d="M242 1507q-20 0 -17 31q3 33 27 33q21 0 18 -33q-3 -31 -28 -31zM317 1507q-19 0 -16 31q3 33 27 33q19 0 16 -33q-2 -14 -9.5 -22.5t-17.5 -8.5zM86 0h-137l256 1450h133l-6 -31h-101l-118 -667h100l-6 -33h-98l-123 -686h104z" />
    <glyph glyph-name="Igrave" unicode="&#xcc;" horiz-adv-x="163" 
d="M195 1608h32l33 -105h-24zM-84 0l4 31h49l246 1388h-49l6 31h127l-6 -31h-45l-246 -1388h45l-4 -31h-127z" />
    <glyph glyph-name="Iacute" unicode="&#xcd;" horiz-adv-x="163" 
d="M313 1624h37l-94 -123h-27zM-84 0l4 31h49l246 1388h-49l6 31h127l-6 -31h-45l-246 -1388h45l-4 -31h-127z" />
    <glyph glyph-name="Icircumflex" unicode="&#xce;" horiz-adv-x="163" 
d="M260 1575l-55 -76h-31l78 105h22l43 -105h-30zM-84 0l4 31h49l246 1388h-49l6 31h127l-6 -31h-45l-246 -1388h45l-4 -31h-127z" />
    <glyph glyph-name="Idieresis" unicode="&#xcf;" horiz-adv-x="163" 
d="M207 1507q-20 0 -17 31q3 33 27 33q22 0 19 -33q-2 -14 -9.5 -22.5t-19.5 -8.5zM283 1507q-20 0 -17 31q3 33 27 33q19 0 16 -33q-3 -31 -26 -31zM-84 0l4 31h49l246 1388h-49l6 31h127l-6 -31h-45l-246 -1388h45l-4 -31h-127z" />
    <glyph glyph-name="Eth" unicode="&#xd0;" horiz-adv-x="290" 
d="M-49 0l125 713h-39l6 32h39l125 705h67q62 0 86.5 -28t12.5 -93l-215 -1216q-10 -62 -43.5 -87.5t-96.5 -25.5h-67zM109 713l-119 -680h33q91 0 104 84l215 1218q7 46 -11.5 65t-62.5 19h-35l-118 -674h57l-4 -32h-59z" />
    <glyph glyph-name="Ntilde" unicode="&#xd1;" horiz-adv-x="311" 
d="M231 1497q15 72 60 72q21 0 41 -23.5t30 -23.5q12 0 19.5 10t11.5 35h27q-12 -72 -62 -72q-19 0 -39.5 23.5t-31.5 23.5q-20 0 -29 -45h-27zM-20 0h-31l254 1450h30l-59 -1102l-24 -295l47 342l186 1055h31l-254 -1450h-33l53 1006l29 346l-72 -455z" />
    <glyph glyph-name="Ograve" unicode="&#xd2;" horiz-adv-x="288" 
d="M256 1614h33l33 -105h-25zM45 -8q-101 0 -80 112l219 1248q15 106 109 106q46 0 70 -29t14 -81l-223 -1262q-14 -94 -109 -94zM49 25q59 0 74 65l221 1262q13 75 -53 75q-58 0 -74 -75l-219 -1246q-13 -81 51 -81z" />
    <glyph glyph-name="Oacute" unicode="&#xd3;" horiz-adv-x="288" 
d="M373 1634h37l-95 -123h-26zM45 -8q-101 0 -80 112l219 1248q15 106 109 106q46 0 70 -29t14 -81l-223 -1262q-14 -94 -109 -94zM49 25q59 0 74 65l221 1262q13 75 -53 75q-58 0 -74 -75l-219 -1246q-13 -81 51 -81z" />
    <glyph glyph-name="Ocircumflex" unicode="&#xd4;" horiz-adv-x="288" 
d="M324 1581l-56 -76h-30l77 105h23l43 -105h-31zM45 -8q-101 0 -80 112l219 1248q15 106 109 106q46 0 70 -29t14 -81l-223 -1262q-14 -94 -109 -94zM49 25q59 0 74 65l221 1262q13 75 -53 75q-58 0 -74 -75l-219 -1246q-13 -81 51 -81z" />
    <glyph glyph-name="Otilde" unicode="&#xd5;" horiz-adv-x="288" 
d="M225 1522q14 71 60 71q21 0 41 -23.5t30 -23.5q12 0 19.5 10t11.5 35h27q-12 -71 -62 -71q-19 0 -39.5 23.5t-31.5 23.5q-20 0 -29 -45h-27zM45 -8q-101 0 -80 112l219 1248q15 106 109 106q46 0 70 -29t14 -81l-223 -1262q-14 -94 -109 -94zM49 25q59 0 74 65l221 1262
q13 75 -53 75q-58 0 -74 -75l-219 -1246q-13 -81 51 -81z" />
    <glyph glyph-name="Odieresis" unicode="&#xd6;" horiz-adv-x="288" 
d="M270 1513q-19 0 -16 31q3 33 27 33q21 0 18 -33q-2 -14 -9.5 -22.5t-19.5 -8.5zM346 1513q-19 0 -16 31q3 33 26 33q20 0 17 -33q-2 -14 -9.5 -22.5t-17.5 -8.5zM45 -8q-101 0 -80 112l219 1248q15 106 109 106q46 0 70 -29t14 -81l-223 -1262q-14 -94 -109 -94zM49 25
q59 0 74 65l221 1262q13 75 -53 75q-58 0 -74 -75l-219 -1246q-13 -81 51 -81z" />
    <glyph glyph-name="multiply" unicode="&#xd7;" horiz-adv-x="321" 
d="M182 709l-88 -80l-22 24l90 80l-58 70l27 22l55 -69l84 73l21 -24l-84 -76l61 -76l-22 -20z" />
    <glyph glyph-name="Oslash" unicode="&#xd8;" horiz-adv-x="288" 
d="M45 -8q-15 0 -35 4l-45 -180h-28l51 194q-35 23 -23 94l219 1248q15 106 109 106q25 0 35 -6l43 174h26l-45 -186q38 -27 25 -92l-223 -1262q-14 -94 -109 -94zM-2 106q-9 -28 0 -49l324 1364q-8 6 -31 6q-58 0 -74 -75zM49 25q59 0 74 65l221 1262q4 33 -2 47
l-324 -1368q24 -6 31 -6z" />
    <glyph glyph-name="Ugrave" unicode="&#xd9;" horiz-adv-x="288" 
d="M252 1602h33l32 -105h-24zM43 -8q-99 0 -78 117l236 1341h35l-238 -1344q-13 -81 49 -81q60 0 70 73l237 1352h35l-239 -1356q-15 -102 -107 -102z" />
    <glyph glyph-name="Uacute" unicode="&#xda;" horiz-adv-x="288" 
d="M373 1618h37l-95 -123h-26zM43 -8q-99 0 -78 117l236 1341h35l-238 -1344q-13 -81 49 -81q60 0 70 73l237 1352h35l-239 -1356q-15 -102 -107 -102z" />
    <glyph glyph-name="Ucircumflex" unicode="&#xdb;" horiz-adv-x="288" 
d="M319 1569l-55 -76h-31l78 104h23l43 -104h-31zM43 -8q-99 0 -78 117l236 1341h35l-238 -1344q-13 -81 49 -81q60 0 70 73l237 1352h35l-239 -1356q-15 -102 -107 -102z" />
    <glyph glyph-name="Udieresis" unicode="&#xdc;" horiz-adv-x="288" 
d="M268 1503q-19 0 -16 31q3 33 27 33q21 0 18 -33q-2 -14 -9.5 -22.5t-19.5 -8.5zM344 1503q-19 0 -16 31q3 33 26 33q20 0 17 -33q-2 -14 -9.5 -22.5t-17.5 -8.5zM43 -8q-99 0 -78 117l236 1341h35l-238 -1344q-13 -81 49 -81q60 0 70 73l237 1352h35l-239 -1356
q-15 -102 -107 -102z" />
    <glyph glyph-name="Yacute" unicode="&#xdd;" horiz-adv-x="241" 
d="M350 1616h37l-94 -123h-27zM2 0l82 461l90 989h33l-64 -686l-32 -240l55 240l174 686h33l-256 -983l-82 -467h-33z" />
    <glyph glyph-name="Thorn" unicode="&#xde;" horiz-adv-x="272" 
d="M35 305l-53 -305h-33l254 1450h33l-48 -274h43q58 0 77.5 -24.5t8.5 -84.5l-114 -647q-21 -115 -125 -115h-43zM182 1143l-141 -805h41q76 0 88 84l113 643q10 46 -3.5 62t-56.5 16h-41z" />
    <glyph glyph-name="germandbls" unicode="&#xdf;" horiz-adv-x="270" 
d="M-20 0h-33l248 1417q20 92 100 92q43 0 64.5 -26t11.5 -74l-99 -557q-10 -72 -61 -84q49 -15 37 -84l-107 -596q-8 -48 -29.5 -68t-70.5 -20h-10l4 33h6q35 0 48.5 12t19.5 47l104 590q12 72 -53 72h-6l4 30h4q34 0 53 15.5t25 52.5l98 555q12 70 -47 70q-51 0 -64 -62z
" />
    <glyph glyph-name="agrave" unicode="&#xe0;" horiz-adv-x="270" 
d="M199 1337h32l33 -104h-24zM147 0q-48 0 -45 55q-22 -63 -79 -63q-85 0 -64 119l74 415q10 59 41 90q21 19 63 37q6 3 18.5 9t17 8t13 7t11.5 8.5t7.5 9.5t7 12.5t3.5 15.5l64 356q6 32 -5.5 51t-40.5 19q-56 0 -65 -68l-62 -338h-32l61 342q16 95 101 95q45 0 64 -27.5
t11 -71.5l-168 -956q-8 -59 -4.5 -76.5t23.5 -17.5h8l-6 -31h-17zM37 23q29 0 46.5 23t27.5 77l96 547q-12 -21 -60 -43q-33 -11 -49 -29q-19 -13 -32 -72l-74 -417q-15 -86 45 -86z" />
    <glyph glyph-name="aacute" unicode="&#xe1;" horiz-adv-x="270" 
d="M319 1354h37l-94 -123h-26zM147 0q-48 0 -45 55q-22 -63 -79 -63q-85 0 -64 119l74 415q10 59 41 90q21 19 63 37q6 3 18.5 9t17 8t13 7t11.5 8.5t7.5 9.5t7 12.5t3.5 15.5l64 356q6 32 -5.5 51t-40.5 19q-56 0 -65 -68l-62 -338h-32l61 342q16 95 101 95q45 0 64 -27.5
t11 -71.5l-168 -956q-8 -59 -4.5 -76.5t23.5 -17.5h8l-6 -31h-17zM37 23q29 0 46.5 23t27.5 77l96 547q-12 -21 -60 -43q-33 -11 -49 -29q-19 -13 -32 -72l-74 -417q-15 -86 45 -86z" />
    <glyph glyph-name="acircumflex" unicode="&#xe2;" horiz-adv-x="270" 
d="M264 1305l-55 -76h-31l78 104h23l43 -104h-31zM147 0q-48 0 -45 55q-22 -63 -79 -63q-85 0 -64 119l74 415q10 59 41 90q21 19 63 37q6 3 18.5 9t17 8t13 7t11.5 8.5t7.5 9.5t7 12.5t3.5 15.5l64 356q6 32 -5.5 51t-40.5 19q-56 0 -65 -68l-62 -338h-32l61 342
q16 95 101 95q45 0 64 -27.5t11 -71.5l-168 -956q-8 -59 -4.5 -76.5t23.5 -17.5h8l-6 -31h-17zM37 23q29 0 46.5 23t27.5 77l96 547q-12 -21 -60 -43q-33 -11 -49 -29q-19 -13 -32 -72l-74 -417q-15 -86 45 -86z" />
    <glyph glyph-name="atilde" unicode="&#xe3;" horiz-adv-x="270" 
d="M168 1237q15 72 59 72q21 0 42 -23.5t30 -23.5q12 0 19.5 10t11.5 35h26q-12 -72 -61 -72q-19 0 -40 23.5t-32 23.5q-19 0 -28 -45h-27zM147 0q-48 0 -45 55q-22 -63 -79 -63q-85 0 -64 119l74 415q10 59 41 90q21 19 63 37q6 3 18.5 9t17 8t13 7t11.5 8.5t7.5 9.5
t7 12.5t3.5 15.5l64 356q6 32 -5.5 51t-40.5 19q-56 0 -65 -68l-62 -338h-32l61 342q16 95 101 95q45 0 64 -27.5t11 -71.5l-168 -956q-8 -59 -4.5 -76.5t23.5 -17.5h8l-6 -31h-17zM37 23q29 0 46.5 23t27.5 77l96 547q-12 -21 -60 -43q-33 -11 -49 -29q-19 -13 -32 -72
l-74 -417q-15 -86 45 -86z" />
    <glyph glyph-name="adieresis" unicode="&#xe4;" horiz-adv-x="270" 
d="M211 1237q-19 0 -16 31q3 32 26 32q22 0 19 -32q-2 -14 -9.5 -22.5t-19.5 -8.5zM287 1237q-20 0 -17 31q3 32 27 32q19 0 16 -32q-3 -31 -26 -31zM147 0q-48 0 -45 55q-22 -63 -79 -63q-85 0 -64 119l74 415q10 59 41 90q21 19 63 37q6 3 18.5 9t17 8t13 7t11.5 8.5
t7.5 9.5t7 12.5t3.5 15.5l64 356q6 32 -5.5 51t-40.5 19q-56 0 -65 -68l-62 -338h-32l61 342q16 95 101 95q45 0 64 -27.5t11 -71.5l-168 -956q-8 -59 -4.5 -76.5t23.5 -17.5h8l-6 -31h-17zM37 23q29 0 46.5 23t27.5 77l96 547q-12 -21 -60 -43q-33 -11 -49 -29
q-19 -13 -32 -72l-74 -417q-15 -86 45 -86z" />
    <glyph glyph-name="aring" unicode="&#xe5;" horiz-adv-x="270" 
d="M252 1235q-30 0 -47.5 19.5t-11.5 50.5q12 65 79 65q31 0 47.5 -19.5t10.5 -50.5q-4 -30 -26 -47.5t-52 -17.5zM256 1260q35 0 45 43q4 18 -5.5 29t-27.5 11q-37 0 -49 -40q-3 -43 37 -43zM147 0q-48 0 -45 55q-22 -63 -79 -63q-85 0 -64 119l74 415q10 59 41 90
q21 19 63 37q6 3 18.5 9t17 8t13 7t11.5 8.5t7.5 9.5t7 12.5t3.5 15.5l64 356q6 32 -5.5 51t-40.5 19q-56 0 -65 -68l-62 -338h-32l61 342q16 95 101 95q45 0 64 -27.5t11 -71.5l-168 -956q-8 -59 -4.5 -76.5t23.5 -17.5h8l-6 -31h-17zM37 23q29 0 46.5 23t27.5 77l96 547
q-12 -21 -60 -43q-33 -11 -49 -29q-19 -13 -32 -72l-74 -417q-15 -86 45 -86z" />
    <glyph glyph-name="ae" unicode="&#xe6;" horiz-adv-x="417" 
d="M287 88q-21 -96 -105 -96q-70 0 -73 69q-24 -69 -93 -69q-42 0 -55.5 25.5t-3.5 84.5l70 392q10 59 41 90q15 15 65 37q40 14 56 26.5t22 42.5l70 393q10 66 -48 66q-56 0 -65 -68l-62 -338h-32l61 340q8 45 33.5 71t67.5 26q60 0 69 -45q26 45 80 45q97 0 76 -103
l-88 -495h-150l-86 -488q-12 -69 49 -69q28 0 45.5 17.5t22.5 45.5l68 387h32zM229 612h117l80 465q6 33 -5 52.5t-40 19.5q-58 0 -70 -72zM27 23q67 0 82 94l90 514q-9 -17 -56 -37q-32 -11 -53 -29q-24 -28 -31 -71l-67 -385q-15 -86 35 -86z" />
    <glyph glyph-name="ccedilla" unicode="&#xe7;" horiz-adv-x="264" 
d="M2 -170q-64 0 -61 61h28q-1 -21 8 -27.5t29 -6.5q49 0 51 32q2 14 -8 21.5t-33 7.5h-10l12 76q-74 9 -59 108l174 981q15 97 94 97q103 0 82 -111l-65 -377h-33l65 377q15 80 -49 80q-28 0 -41 -17.5t-20 -52.5l-172 -977q-15 -77 45 -77q53 0 65 69l74 418h33l-74 -418
q-15 -102 -90 -102l-10 -49q60 -9 51 -54q-12 -59 -86 -59z" />
    <glyph glyph-name="egrave" unicode="&#xe8;" horiz-adv-x="266" 
d="M201 1337h32l33 -104h-24zM139 96q-7 -51 -34 -77.5t-70 -26.5q-98 0 -78 110l174 979q19 99 102 99q44 0 66 -28t12 -79l-86 -491h-149l-84 -480q-15 -77 45 -77q57 0 69 73l68 377h33zM82 612h115l82 461q15 76 -50 76q-53 0 -65 -70z" />
    <glyph glyph-name="eacute" unicode="&#xe9;" horiz-adv-x="266" 
d="M319 1354h37l-94 -123h-26zM139 96q-7 -51 -34 -77.5t-70 -26.5q-98 0 -78 110l174 979q19 99 102 99q44 0 66 -28t12 -79l-86 -491h-149l-84 -480q-15 -77 45 -77q57 0 69 73l68 377h33zM82 612h115l82 461q15 76 -50 76q-53 0 -65 -70z" />
    <glyph glyph-name="ecircumflex" unicode="&#xea;" horiz-adv-x="266" 
d="M266 1305l-55 -76h-31l78 104h23l43 -104h-31zM139 96q-7 -51 -34 -77.5t-70 -26.5q-98 0 -78 110l174 979q19 99 102 99q44 0 66 -28t12 -79l-86 -491h-149l-84 -480q-15 -77 45 -77q57 0 69 73l68 377h33zM82 612h115l82 461q15 76 -50 76q-53 0 -65 -70z" />
    <glyph glyph-name="edieresis" unicode="&#xeb;" horiz-adv-x="266" 
d="M211 1237q-19 0 -16 31q3 32 26 32q22 0 19 -32q-2 -14 -9.5 -22.5t-19.5 -8.5zM287 1237q-20 0 -17 31q3 32 27 32q19 0 16 -32q-3 -31 -26 -31zM139 96q-7 -51 -34 -77.5t-70 -26.5q-98 0 -78 110l174 979q19 99 102 99q44 0 66 -28t12 -79l-86 -491h-149l-84 -480
q-15 -77 45 -77q57 0 69 73l68 377h33zM82 612h115l82 461q15 76 -50 76q-53 0 -65 -70z" />
    <glyph glyph-name="igrave" unicode="&#xec;" horiz-adv-x="129" 
d="M129 1329h33l33 -104h-25zM154 1171h32l-206 -1171h-33z" />
    <glyph glyph-name="iacute" unicode="&#xed;" horiz-adv-x="129" 
d="M248 1356h37l-95 -123h-26zM154 1171h32l-206 -1171h-33z" />
    <glyph glyph-name="icircumflex" unicode="&#xee;" horiz-adv-x="129" 
d="M197 1296l-56 -75h-30l77 104h23l43 -104h-31zM154 1171h32l-206 -1171h-33z" />
    <glyph glyph-name="idieresis" unicode="&#xef;" horiz-adv-x="129" 
d="M141 1229q-19 0 -16 31q3 32 27 32q21 0 18 -32q-2 -14 -9.5 -22.5t-19.5 -8.5zM217 1229q-19 0 -16 31q3 32 26 32q20 0 17 -32q-2 -14 -9.5 -22.5t-17.5 -8.5zM154 1171h32l-206 -1171h-33z" />
    <glyph glyph-name="eth" unicode="&#xf0;" horiz-adv-x="272" 
d="M33 -8q-94 0 -74 114l172 975q15 99 88 99q59 0 68 -60q27 186 0 287l-72 -92h-33l94 125q-25 69 -65 92h43q25 -19 47 -62l47 62h35l-72 -92q41 -125 -2 -371l-172 -975q-15 -102 -104 -102zM37 25q54 0 69 73l170 969q13 82 -49 82q-54 0 -63 -70l-172 -975
q-15 -79 45 -79z" />
    <glyph glyph-name="ntilde" unicode="&#xf1;" horiz-adv-x="274" 
d="M172 1245q15 72 59 72q21 0 42 -23.5t30 -23.5q12 0 19.5 10t11.5 35h26q-12 -72 -61 -72q-19 0 -40 23.5t-32 23.5q-19 0 -28 -45h-27zM-20 0h-33l207 1171h24l-6 -55q27 64 78 64q83 0 61 -119l-12 -64q-2 -9 -24.5 -140.5t-38.5 -221.5q-61 -356 -74 -428l-37 -207
h-33l187 1061q18 88 -39 88q-31 0 -49.5 -25.5t-28.5 -87.5z" />
    <glyph glyph-name="ograve" unicode="&#xf2;" horiz-adv-x="272" 
d="M199 1337h32l33 -104h-24zM33 -8q-94 0 -74 114l172 975q19 99 98 99q48 0 70 -29t12 -78l-174 -979q-15 -102 -104 -102zM37 25q54 0 69 73l173 975q12 76 -50 76q-56 0 -65 -70l-172 -975q-15 -79 45 -79z" />
    <glyph glyph-name="oacute" unicode="&#xf3;" horiz-adv-x="272" 
d="M319 1354h37l-94 -123h-26zM33 -8q-94 0 -74 114l172 975q19 99 98 99q48 0 70 -29t12 -78l-174 -979q-15 -102 -104 -102zM37 25q54 0 69 73l173 975q12 76 -50 76q-56 0 -65 -70l-172 -975q-15 -79 45 -79z" />
    <glyph glyph-name="ocircumflex" unicode="&#xf4;" horiz-adv-x="272" 
d="M268 1305l-55 -76h-31l78 104h23l43 -104h-31zM33 -8q-94 0 -74 114l172 975q19 99 98 99q48 0 70 -29t12 -78l-174 -979q-15 -102 -104 -102zM37 25q54 0 69 73l173 975q12 76 -50 76q-56 0 -65 -70l-172 -975q-15 -79 45 -79z" />
    <glyph glyph-name="otilde" unicode="&#xf5;" horiz-adv-x="272" 
d="M168 1245q15 72 59 72q21 0 42 -23.5t30 -23.5q12 0 19.5 10t11.5 35h26q-12 -72 -61 -72q-19 0 -40 23.5t-32 23.5q-19 0 -28 -45h-27zM33 -8q-94 0 -74 114l172 975q19 99 98 99q48 0 70 -29t12 -78l-174 -979q-15 -102 -104 -102zM37 25q54 0 69 73l173 975
q12 76 -50 76q-56 0 -65 -70l-172 -975q-15 -79 45 -79z" />
    <glyph glyph-name="odieresis" unicode="&#xf6;" horiz-adv-x="272" 
d="M213 1239q-19 0 -16 31q3 33 26 33q22 0 19 -33q-2 -14 -9.5 -22.5t-19.5 -8.5zM289 1239q-20 0 -17 31q3 33 27 33q19 0 16 -33q-3 -31 -26 -31zM33 -8q-94 0 -74 114l172 975q19 99 98 99q48 0 70 -29t12 -78l-174 -979q-15 -102 -104 -102zM37 25q54 0 69 73l173 975
q12 76 -50 76q-56 0 -65 -70l-172 -975q-15 -79 45 -79z" />
    <glyph glyph-name="divide" unicode="&#xf7;" horiz-adv-x="321" 
d="M195 764q-12 0 -17.5 8t-1.5 21q3 26 27 26q21 0 18 -26q-3 -29 -26 -29zM90 727h193l-4 -33h-195zM164 602q-22 0 -19 29q3 26 29 26q22 0 19 -26q-3 -29 -29 -29z" />
    <glyph glyph-name="oslash" unicode="&#xf8;" horiz-adv-x="272" 
d="M35 -8q-11 0 -31 4l-47 -180h-23l50 190q-35 25 -23 100l172 975q19 99 98 99q27 0 37 -6l41 157h23l-45 -168q38 -23 26 -90l-174 -979q-15 -102 -104 -102zM-8 104q-3 -38 4 -55l264 1094q-8 6 -29 6q-55 0 -67 -70zM39 25q58 0 70 73l172 975q9 33 -2 51l-267 -1093
q24 -6 27 -6z" />
    <glyph glyph-name="ugrave" unicode="&#xf9;" 
d="M195 1325h32l33 -104h-24zM98 59q-25 -67 -78 -67q-41 0 -54.5 28t-2.5 93l187 1058h32l-186 -1058q-19 -90 39 -90q53 0 74 112l182 1036h33l-205 -1171h-27z" />
    <glyph glyph-name="uacute" unicode="&#xfa;" 
d="M315 1341h37l-94 -122h-27zM98 59q-25 -67 -78 -67q-41 0 -54.5 28t-2.5 93l187 1058h32l-186 -1058q-19 -90 39 -90q53 0 74 112l182 1036h33l-205 -1171h-27z" />
    <glyph glyph-name="ucircumflex" unicode="&#xfb;" 
d="M264 1292l-55 -75h-31l78 104h23l43 -104h-31zM98 59q-25 -67 -78 -67q-41 0 -54.5 28t-2.5 93l187 1058h32l-186 -1058q-19 -90 39 -90q53 0 74 112l182 1036h33l-205 -1171h-27z" />
    <glyph glyph-name="udieresis" unicode="&#xfc;" 
d="M209 1225q-19 0 -16 30q3 33 26 33q22 0 19 -33q-3 -30 -29 -30zM285 1225q-20 0 -17 30q3 33 27 33q19 0 16 -33q-3 -30 -26 -30zM98 59q-25 -67 -78 -67q-41 0 -54.5 28t-2.5 93l187 1058h32l-186 -1058q-19 -90 39 -90q53 0 74 112l182 1036h33l-205 -1171h-27z" />
    <glyph glyph-name="yacute" unicode="&#xfd;" horiz-adv-x="235" 
d="M301 1339h37l-94 -122h-27zM-104 -156l6 33h18q21 0 33 9t18 36l21 74l137 1175h33l-105 -856l-45 -288l66 297l205 847h32l-307 -1245q-12 -48 -32 -65t-60 -17h-20z" />
    <glyph glyph-name="thorn" unicode="&#xfe;" horiz-adv-x="274" 
d="M41 -8q-46 0 -55 53l-74 -418h-31l328 1872h33l-66 -377q24 58 78 58q42 0 56 -30t1 -101l-161 -926q-24 -131 -109 -131zM41 23q61 0 76 102l164 926q15 98 -39 98q-31 0 -51.5 -28t-26.5 -74l-164 -924q-18 -100 41 -100z" />
    <glyph glyph-name="ydieresis" unicode="&#xff;" horiz-adv-x="235" 
d="M193 1223q-20 0 -17 30q3 33 27 33q21 0 18 -33q-3 -30 -28 -30zM268 1223q-19 0 -16 30q3 33 27 33q19 0 16 -33q-1 -13 -8.5 -21.5t-18.5 -8.5zM-104 -156l6 33h18q21 0 33 9t18 36l21 74l137 1175h33l-105 -856l-45 -288l66 297l205 847h32l-307 -1245
q-12 -48 -32 -65t-60 -17h-20z" />
    <glyph glyph-name="Amacron" unicode="&#x100;" horiz-adv-x="243" 
d="M223 1550h133l-6 -28h-133zM125 311h-100l-72 -311h-33l334 1450h37l-170 -1450h-33zM31 344h98l94 780l39 267l-53 -267z" />
    <glyph glyph-name="amacron" unicode="&#x101;" horiz-adv-x="270" 
d="M195 1292h133l-6 -28h-134zM147 0q-48 0 -45 55q-22 -63 -79 -63q-85 0 -64 119l74 415q10 59 41 90q21 19 63 37q6 3 18.5 9t17 8t13 7t11.5 8.5t7.5 9.5t7 12.5t3.5 15.5l64 356q6 32 -5.5 51t-40.5 19q-56 0 -65 -68l-62 -338h-32l61 342q16 95 101 95q45 0 64 -27.5
t11 -71.5l-168 -956q-8 -59 -4.5 -76.5t23.5 -17.5h8l-6 -31h-17zM37 23q29 0 46.5 23t27.5 77l96 547q-12 -21 -60 -43q-33 -11 -49 -29q-19 -13 -32 -72l-74 -417q-15 -86 45 -86z" />
    <glyph glyph-name="Abreve" unicode="&#x102;" horiz-adv-x="243" 
d="M283 1497q-77 0 -62 94h27q-5 -37 3 -51.5t36 -15.5q51 3 63 67h27q-21 -94 -94 -94zM125 311h-100l-72 -311h-33l334 1450h37l-170 -1450h-33zM31 344h98l94 780l39 267l-53 -267z" />
    <glyph glyph-name="abreve" unicode="&#x103;" horiz-adv-x="270" 
d="M250 1227q-77 0 -62 94h27q-5 -37 3 -52t36 -16q51 3 63 68h27q-21 -94 -94 -94zM147 0q-48 0 -45 55q-22 -63 -79 -63q-85 0 -64 119l74 415q10 59 41 90q21 19 63 37q6 3 18.5 9t17 8t13 7t11.5 8.5t7.5 9.5t7 12.5t3.5 15.5l64 356q6 32 -5.5 51t-40.5 19
q-56 0 -65 -68l-62 -338h-32l61 342q16 95 101 95q45 0 64 -27.5t11 -71.5l-168 -956q-8 -59 -4.5 -76.5t23.5 -17.5h8l-6 -31h-17zM37 23q29 0 46.5 23t27.5 77l96 547q-12 -21 -60 -43q-33 -11 -49 -29q-19 -13 -32 -72l-74 -417q-15 -86 45 -86z" />
    <glyph glyph-name="Aogonek" unicode="&#x104;" horiz-adv-x="243" 
d="M170 -84q-24 -61 -88 -61q-66 0 -57 63q9 44 63 86l37 307h-100l-72 -311h-33l334 1450h37l-170 -1450q-65 -49 -68 -80q-9 -39 35 -39q37 0 51 35h31zM31 344h98l94 780l39 267l-53 -267z" />
    <glyph glyph-name="aogonek" unicode="&#x105;" horiz-adv-x="270" 
d="M213 -84q-24 -61 -88 -61q-66 0 -57 63q7 36 61 84q-30 10 -27 53q-22 -63 -79 -63q-85 0 -64 119l74 415q10 59 41 90q21 19 63 37q6 3 18.5 9t17 8t13 7t11.5 8.5t7.5 9.5t7 12.5t3.5 15.5l64 356q6 32 -5.5 51t-40.5 19q-56 0 -65 -68l-62 -338h-32l61 342
q16 95 101 95q45 0 64 -27.5t11 -71.5l-168 -956q-8 -59 -4.5 -76.5t23.5 -17.5h8l-6 -31q-65 -49 -68 -80q-9 -39 35 -39q37 0 51 35h31zM37 23q29 0 46.5 23t27.5 77l96 547q-12 -21 -60 -43q-33 -11 -49 -29q-19 -13 -32 -72l-74 -417q-15 -86 45 -86z" />
    <glyph glyph-name="Cacute" unicode="&#x106;" horiz-adv-x="278" 
d="M375 1632h37l-95 -123h-26zM41 -8q-45 0 -66.5 27t-11.5 77l12 68q9 51 35.5 205.5t38.5 220.5l92 514l43 250q14 104 105 104q99 0 78 -106l-84 -475h-33l86 475q5 38 -5.5 56.5t-43.5 18.5t-48 -18.5t-22 -56.5l-221 -1254q-12 -73 51 -73q56 0 68 77l96 545h33
l-97 -545q-10 -60 -34.5 -85t-71.5 -25z" />
    <glyph glyph-name="cacute" unicode="&#x107;" horiz-adv-x="264" 
d="M319 1354h37l-94 -123h-26zM35 -8q-96 0 -76 110l174 981q15 97 94 97q103 0 82 -111l-65 -377h-33l65 377q15 80 -49 80q-28 0 -41 -17.5t-20 -52.5l-172 -977q-15 -77 45 -77q53 0 65 69l74 418h33l-74 -418q-15 -102 -102 -102z" />
    <glyph glyph-name="Ccircumflex" unicode="&#x108;" horiz-adv-x="278" 
d="M322 1583l-56 -76h-30l77 105h23l43 -105h-31zM41 -8q-45 0 -66.5 27t-11.5 77l12 68q9 51 35.5 205.5t38.5 220.5l92 514l43 250q14 104 105 104q99 0 78 -106l-84 -475h-33l86 475q5 38 -5.5 56.5t-43.5 18.5t-48 -18.5t-22 -56.5l-221 -1254q-12 -73 51 -73
q56 0 68 77l96 545h33l-97 -545q-10 -60 -34.5 -85t-71.5 -25z" />
    <glyph glyph-name="ccircumflex" unicode="&#x109;" horiz-adv-x="264" 
d="M266 1305l-55 -76h-31l78 104h23l43 -104h-31zM35 -8q-96 0 -76 110l174 981q15 97 94 97q103 0 82 -111l-65 -377h-33l65 377q15 80 -49 80q-28 0 -41 -17.5t-20 -52.5l-172 -977q-15 -77 45 -77q53 0 65 69l74 418h33l-74 -418q-15 -102 -102 -102z" />
    <glyph glyph-name="Cdotaccent" unicode="&#x10a;" horiz-adv-x="278" 
d="M307 1509q-21 0 -18 35q9 37 30 37q28 0 19 -37q-3 -35 -31 -35zM41 -8q-45 0 -66.5 27t-11.5 77l12 68q9 51 35.5 205.5t38.5 220.5l92 514l43 250q14 104 105 104q99 0 78 -106l-84 -475h-33l86 475q5 38 -5.5 56.5t-43.5 18.5t-48 -18.5t-22 -56.5l-221 -1254
q-12 -73 51 -73q56 0 68 77l96 545h33l-97 -545q-10 -60 -34.5 -85t-71.5 -25z" />
    <glyph glyph-name="cdotaccent" unicode="&#x10b;" horiz-adv-x="264" 
d="M250 1231q-22 0 -19 35q9 37 31 37q28 0 19 -37q-3 -35 -31 -35zM35 -8q-96 0 -76 110l174 981q15 97 94 97q103 0 82 -111l-65 -377h-33l65 377q15 80 -49 80q-28 0 -41 -17.5t-20 -52.5l-172 -977q-15 -77 45 -77q53 0 65 69l74 418h33l-74 -418q-15 -102 -102 -102z
" />
    <glyph glyph-name="Ccaron" unicode="&#x10c;" horiz-adv-x="278" 
d="M295 1509l-41 103h31l28 -76l54 76h30l-80 -103h-22zM41 -8q-45 0 -66.5 27t-11.5 77l12 68q9 51 35.5 205.5t38.5 220.5l92 514l43 250q14 104 105 104q99 0 78 -106l-84 -475h-33l86 475q5 38 -5.5 56.5t-43.5 18.5t-48 -18.5t-22 -56.5l-221 -1254q-12 -73 51 -73
q56 0 68 77l96 545h33l-97 -545q-10 -60 -34.5 -85t-71.5 -25z" />
    <glyph glyph-name="ccaron" unicode="&#x10d;" horiz-adv-x="264" 
d="M238 1231l-41 102h30l29 -76l53 76h31l-80 -102h-22zM35 -8q-96 0 -76 110l174 981q15 97 94 97q103 0 82 -111l-65 -377h-33l65 377q15 80 -49 80q-28 0 -41 -17.5t-20 -52.5l-172 -977q-15 -77 45 -77q53 0 65 69l74 418h33l-74 -418q-15 -102 -102 -102z" />
    <glyph glyph-name="Dcaron" unicode="&#x10e;" horiz-adv-x="286" 
d="M289 1499l-41 103h31l28 -76l53 76h31l-80 -103h-22zM205 1450h67q122 0 97 -127l-213 -1210q-10 -64 -41.5 -88.5t-98.5 -24.5h-67zM229 1419l-241 -1386h32q48 0 72 19t31 65l215 1210q10 50 -8.5 71t-63.5 21h-37z" />
    <glyph glyph-name="dcaron" unicode="&#x10f;" horiz-adv-x="272" 
d="M104 59q-25 -67 -79 -67q-44 0 -60.5 27t-3.5 100l166 942q10 64 31.5 91.5t60.5 27.5q63 0 66 -72l67 391h33l-262 -1499h-25zM442 1499h31l-53 -115h-23zM35 23q58 0 74 90l2 10h2v4l161 922q15 100 -47 100q-30 0 -45 -20t-22 -72l-166 -936q-10 -56 1.5 -77t39.5 -21
z" />
    <glyph glyph-name="Dcroat" unicode="&#x110;" horiz-adv-x="290" 
d="M-49 0l125 713h-39l6 32h39l125 705h67q62 0 86.5 -28t12.5 -93l-215 -1216q-10 -62 -43.5 -87.5t-96.5 -25.5h-67zM109 713l-119 -680h33q91 0 104 84l215 1218q7 46 -11.5 65t-62.5 19h-35l-118 -674h57l-4 -32h-59z" />
    <glyph glyph-name="dcroat" unicode="&#x111;" horiz-adv-x="272" 
d="M104 59q-25 -67 -79 -67q-44 0 -60.5 27t-3.5 100l166 942q10 64 31.5 91.5t60.5 27.5q63 0 66 -72l37 217h-56l4 31h58l24 143h33l-25 -143h39l-6 -31h-39l-231 -1325h-25zM35 23q58 0 74 90l2 10h2v4l161 922q15 100 -47 100q-30 0 -45 -20t-22 -72l-166 -936
q-10 -56 1.5 -77t39.5 -21z" />
    <glyph glyph-name="Emacron" unicode="&#x112;" horiz-adv-x="204" 
d="M225 1563h133l-6 -29h-133zM86 0h-137l256 1450h133l-6 -31h-101l-118 -667h100l-6 -33h-98l-123 -686h104z" />
    <glyph glyph-name="emacron" unicode="&#x113;" horiz-adv-x="266" 
d="M195 1280h133l-6 -29h-134zM139 96q-7 -51 -34 -77.5t-70 -26.5q-98 0 -78 110l174 979q19 99 102 99q44 0 66 -28t12 -79l-86 -491h-149l-84 -480q-15 -77 45 -77q57 0 69 73l68 377h33zM82 612h115l82 461q15 76 -50 76q-53 0 -65 -70z" />
    <glyph glyph-name="Ebreve" unicode="&#x114;" horiz-adv-x="204" 
d="M283 1497q-77 0 -62 94h27q-5 -37 3 -51.5t36 -15.5q51 3 63 67h27q-21 -94 -94 -94zM86 0h-137l256 1450h133l-6 -31h-101l-118 -667h100l-6 -33h-98l-123 -686h104z" />
    <glyph glyph-name="ebreve" unicode="&#x115;" horiz-adv-x="266" 
d="M252 1227q-77 0 -62 94h27q-5 -37 3 -52t36 -16q51 3 63 68h27q-21 -94 -94 -94zM139 96q-7 -51 -34 -77.5t-70 -26.5q-98 0 -78 110l174 979q19 99 102 99q44 0 66 -28t12 -79l-86 -491h-149l-84 -480q-15 -77 45 -77q57 0 69 73l68 377h33zM82 612h115l82 461
q15 76 -50 76q-53 0 -65 -70z" />
    <glyph glyph-name="Edotaccent" unicode="&#x116;" horiz-adv-x="204" 
d="M281 1501q-22 0 -19 35q9 37 31 37q27 0 18 -37q-3 -35 -30 -35zM86 0h-137l256 1450h133l-6 -31h-101l-118 -667h100l-6 -33h-98l-123 -686h104z" />
    <glyph glyph-name="edotaccent" unicode="&#x117;" horiz-adv-x="266" 
d="M252 1231q-22 0 -19 35q9 37 31 37q28 0 19 -37q-3 -35 -31 -35zM139 96q-7 -51 -34 -77.5t-70 -26.5q-98 0 -78 110l174 979q19 99 102 99q44 0 66 -28t12 -79l-86 -491h-149l-84 -480q-15 -77 45 -77q57 0 69 73l68 377h33zM82 612h115l82 461q15 76 -50 76
q-53 0 -65 -70z" />
    <glyph glyph-name="Eogonek" unicode="&#x118;" horiz-adv-x="204" 
d="M133 -84q-24 -61 -88 -61q-66 0 -57 63q8 44 59 82h-98l256 1450h133l-6 -31h-101l-118 -667h100l-6 -33h-98l-123 -686h104l-4 -33h-2q-65 -49 -68 -80q-9 -39 35 -39q37 0 51 35h31z" />
    <glyph glyph-name="eogonek" unicode="&#x119;" horiz-adv-x="266" 
d="M41 -139q-66 0 -57 63q3 31 43 68q-42 2 -61 29.5t-9 80.5l174 979q19 99 102 99q44 0 66 -28t12 -79l-86 -491h-149l-84 -480q-15 -77 45 -77q57 0 69 73l68 377h33l-68 -379q-15 -86 -71 -100q-53 -43 -56 -70q-9 -39 35 -39q37 0 51 35h31q-24 -61 -88 -61zM82 612
h115l82 461q15 76 -50 76q-53 0 -65 -70z" />
    <glyph glyph-name="Ecaron" unicode="&#x11a;" horiz-adv-x="204" 
d="M268 1501l-41 103h31l29 -76l53 76h31l-80 -103h-23zM86 0h-137l256 1450h133l-6 -31h-101l-118 -667h100l-6 -33h-98l-123 -686h104z" />
    <glyph glyph-name="ecaron" unicode="&#x11b;" horiz-adv-x="266" 
d="M240 1231l-41 102h30l29 -76l53 76h31l-80 -102h-22zM139 96q-7 -51 -34 -77.5t-70 -26.5q-98 0 -78 110l174 979q19 99 102 99q44 0 66 -28t12 -79l-86 -491h-149l-84 -480q-15 -77 45 -77q57 0 69 73l68 377h33zM82 612h115l82 461q15 76 -50 76q-53 0 -65 -70z" />
    <glyph glyph-name="Gcircumflex" unicode="&#x11c;" horiz-adv-x="280" 
d="M322 1583l-56 -76h-30l77 105h23l43 -105h-31zM119 76q-26 -84 -92 -84q-87 0 -66 102l221 1262q20 102 105 102q49 0 70 -27.5t10 -80.5l-82 -463h-33l84 465q10 75 -51 75q-58 0 -70 -73l-221 -1256q-12 -73 45 -73q38 0 54.5 27t25.5 81l104 586h-67l6 33h98
l-131 -752h-18z" />
    <glyph glyph-name="gcircumflex" unicode="&#x11d;" horiz-adv-x="274" 
d="M279 1319l-56 -76h-30l77 105h23l43 -105h-31zM2 -193q-48 0 -67.5 26.5t-8.5 70.5l2 16h35l-2 -14q-14 -68 45 -68q54 0 66 64l24 149q-24 -59 -73 -59q-83 0 -62 133l164 926q13 74 36 101.5t62 27.5q63 0 66 -66l14 57h25l-226 -1275q-8 -46 -31 -67.5t-69 -21.5z
M37 23q59 0 74 104l161 911q20 113 -45 113q-27 0 -43 -22.5t-26 -79.5l-164 -926q-15 -100 43 -100z" />
    <glyph glyph-name="Gbreve" unicode="&#x11e;" horiz-adv-x="280" 
d="M307 1505q-76 0 -61 94h26q-5 -37 3 -51.5t36 -15.5q52 3 64 67h26q-21 -94 -94 -94zM119 76q-26 -84 -92 -84q-87 0 -66 102l221 1262q20 102 105 102q49 0 70 -27.5t10 -80.5l-82 -463h-33l84 465q10 75 -51 75q-58 0 -70 -73l-221 -1256q-12 -73 45 -73q38 0 54.5 27
t25.5 81l104 586h-67l6 33h98l-131 -752h-18z" />
    <glyph glyph-name="gbreve" unicode="&#x11f;" horiz-adv-x="274" 
d="M266 1241q-76 0 -61 94h26q-5 -37 3 -51.5t36 -15.5q52 3 64 67h26q-21 -94 -94 -94zM2 -193q-48 0 -67.5 26.5t-8.5 70.5l2 16h35l-2 -14q-14 -68 45 -68q54 0 66 64l24 149q-24 -59 -73 -59q-83 0 -62 133l164 926q13 74 36 101.5t62 27.5q63 0 66 -66l14 57h25
l-226 -1275q-8 -46 -31 -67.5t-69 -21.5zM37 23q59 0 74 104l161 911q20 113 -45 113q-27 0 -43 -22.5t-26 -79.5l-164 -926q-15 -100 43 -100z" />
    <glyph glyph-name="Gdotaccent" unicode="&#x120;" horiz-adv-x="280" 
d="M307 1509q-21 0 -18 35q9 37 30 37q28 0 19 -37q-3 -35 -31 -35zM119 76q-26 -84 -92 -84q-87 0 -66 102l221 1262q20 102 105 102q49 0 70 -27.5t10 -80.5l-82 -463h-33l84 465q10 75 -51 75q-58 0 -70 -73l-221 -1256q-12 -73 45 -73q38 0 54.5 27t25.5 81l104 586h-67
l6 33h98l-131 -752h-18z" />
    <glyph glyph-name="gdotaccent" unicode="&#x121;" horiz-adv-x="274" 
d="M268 1245q-21 0 -18 35q9 37 31 37q27 0 18 -37q-3 -35 -31 -35zM2 -193q-48 0 -67.5 26.5t-8.5 70.5l2 16h35l-2 -14q-14 -68 45 -68q54 0 66 64l24 149q-24 -59 -73 -59q-83 0 -62 133l164 926q13 74 36 101.5t62 27.5q63 0 66 -66l14 57h25l-226 -1275
q-8 -46 -31 -67.5t-69 -21.5zM37 23q59 0 74 104l161 911q20 113 -45 113q-27 0 -43 -22.5t-26 -79.5l-164 -926q-15 -100 43 -100z" />
    <glyph glyph-name="uni0122" unicode="&#x122;" horiz-adv-x="280" 
d="M119 76q-26 -84 -92 -84q-87 0 -66 102l221 1262q20 102 105 102q49 0 70 -27.5t10 -80.5l-82 -463h-33l84 465q10 75 -51 75q-58 0 -70 -73l-221 -1256q-12 -73 45 -73q38 0 54.5 27t25.5 81l104 586h-67l6 33h98l-131 -752h-18zM-12 -180q30 21 39 63q-2 -6 -11 -6
q-19 0 -12 31q3 33 31 33q13 0 17 -10.5t-1 -36.5q-13 -68 -57 -91z" />
    <glyph glyph-name="uni0123" unicode="&#x123;" horiz-adv-x="274" 
d="M260 1243q-27 0 -18 47q13 69 57 92l4 -18q-34 -24 -37 -59l10 4q16 0 13 -31q-3 -35 -29 -35zM2 -193q-48 0 -67.5 26.5t-8.5 70.5l2 16h35l-2 -14q-14 -68 45 -68q54 0 66 64l24 149q-24 -59 -73 -59q-83 0 -62 133l164 926q13 74 36 101.5t62 27.5q63 0 66 -66l14 57
h25l-226 -1275q-8 -46 -31 -67.5t-69 -21.5zM37 23q59 0 74 104l161 911q20 113 -45 113q-27 0 -43 -22.5t-26 -79.5l-164 -926q-15 -100 43 -100z" />
    <glyph glyph-name="Hcircumflex" unicode="&#x124;" horiz-adv-x="286" 
d="M317 1565l-55 -76h-31l78 104h23l43 -104h-31zM227 715h-118l-127 -715h-33l256 1450h33l-125 -705h118l125 705h33l-254 -1450h-35z" />
    <glyph glyph-name="hcircumflex" unicode="&#x125;" horiz-adv-x="274" 
d="M252 1624l-55 -76h-31l78 105h22l43 -105h-30zM-20 0h-33l264 1499h33l-68 -375q26 56 74 56q83 0 61 -119l-186 -1061h-33l187 1061q18 88 -39 88q-31 0 -49.5 -26t-28.5 -87z" />
    <glyph glyph-name="Hbar" unicode="&#x126;" horiz-adv-x="286" 
d="M225 702h-119l-124 -702h-33l192 1090h-35l7 30h34l58 330h33l-58 -330h119l57 330h33l-57 -330h33l-7 -30h-32l-191 -1090h-35zM293 1090h-119l-63 -355h118z" />
    <glyph glyph-name="hbar" unicode="&#x127;" horiz-adv-x="274" 
d="M-20 0h-33l233 1329h-37l7 31h36l25 139h33l-25 -139h55l-6 -31h-55l-37 -205q26 56 74 56q83 0 61 -119l-186 -1061h-33l187 1061q18 88 -39 88q-31 0 -49.5 -26t-28.5 -87z" />
    <glyph glyph-name="Itilde" unicode="&#x128;" horiz-adv-x="163" 
d="M162 1516q14 71 59 71q21 0 42 -23.5t30 -23.5q12 0 19.5 10t11.5 35h26q-12 -72 -61 -72q-19 0 -40 24t-32 24q-20 0 -29 -45h-26zM-84 0l4 31h49l246 1388h-49l6 31h127l-6 -31h-45l-246 -1388h45l-4 -31h-127z" />
    <glyph glyph-name="itilde" unicode="&#x129;" horiz-adv-x="129" 
d="M96 1237q15 72 60 72q17 0 29.5 -11.5t22.5 -23.5t19 -12q12 0 19.5 10t11.5 35h27q-12 -72 -62 -72q-19 0 -39.5 23.5t-31.5 23.5q-20 0 -29 -45h-27zM154 1171h32l-206 -1171h-33z" />
    <glyph glyph-name="Imacron" unicode="&#x12a;" horiz-adv-x="163" 
d="M190 1563h134l-7 -29h-133zM-84 0l4 31h49l246 1388h-49l6 31h127l-6 -31h-45l-246 -1388h45l-4 -31h-127z" />
    <glyph glyph-name="imacron" unicode="&#x12b;" horiz-adv-x="129" 
d="M123 1268h133l-6 -29h-133zM154 1171h32l-206 -1171h-33z" />
    <glyph glyph-name="Ibreve" unicode="&#x12c;" horiz-adv-x="163" 
d="M246 1497q-77 0 -62 94h27q-5 -37 3 -51.5t36 -15.5q51 3 63 67h27q-21 -94 -94 -94zM-84 0l4 31h49l246 1388h-49l6 31h127l-6 -31h-45l-246 -1388h45l-4 -31h-127z" />
    <glyph glyph-name="ibreve" unicode="&#x12d;" horiz-adv-x="129" 
d="M182 1219q-76 0 -61 94h26q-5 -37 3 -52t36 -16q52 3 64 68h26q-21 -94 -94 -94zM154 1171h32l-206 -1171h-33z" />
    <glyph glyph-name="Iogonek" unicode="&#x12e;" horiz-adv-x="163" 
d="M6 -145q-66 0 -57 63q8 44 59 82h-92l4 31h49l246 1388h-49l6 31h127l-6 -31h-45l-246 -1388h45l-4 -29l2 -2q-65 -49 -68 -80q-9 -39 35 -39q37 0 51 35h31q-24 -61 -88 -61z" />
    <glyph glyph-name="iogonek" unicode="&#x12f;" horiz-adv-x="129" 
d="M178 1241q-19 0 -16 35q8 35 31 35q19 0 16 -35q-9 -35 -31 -35zM27 -84q-24 -61 -88 -61q-67 0 -58 63q8 43 64 86l207 1167h32l-207 -1171q-64 -49 -67 -80q-9 -39 35 -39q37 0 51 35h31z" />
    <glyph glyph-name="Idotaccent" unicode="&#x130;" horiz-adv-x="163" 
d="M246 1501q-22 0 -19 35q9 37 31 37q27 0 18 -37q-3 -35 -30 -35zM-84 0l4 31h49l246 1388h-49l6 31h127l-6 -31h-45l-246 -1388h45l-4 -31h-127z" />
    <glyph glyph-name="dotlessi" unicode="&#x131;" horiz-adv-x="129" 
d="M154 1171h32l-206 -1171h-33z" />
    <glyph glyph-name="IJ" unicode="&#x132;" horiz-adv-x="301" 
d="M-82 0l4 31h45l246 1388h-45l4 31h125l-6 -31h-45l-246 -1388h43l-4 -31h-121zM76 33h14q22 0 29.5 10t15.5 45l240 1362h33l-242 -1366q-7 -50 -24.5 -67t-55.5 -17h-14z" />
    <glyph glyph-name="ij" unicode="&#x133;" horiz-adv-x="247" 
d="M180 1241q-19 0 -16 35q8 35 31 35q19 0 16 -35t-31 -35zM311 1311q20 0 17 -35t-29 -35q-13 0 -15.5 6.5t-0.5 28.5q3 35 28 35zM270 1171q4 -4 17 -4q12 0 16 4l-225 -1277q-8 -42 -24 -59t-52 -17h-86l4 32h82q34 0 43 46zM184 1171l-204 -1171h-33l205 1171
q4 -4 16 -4q16 0 16 4z" />
    <glyph glyph-name="Jcircumflex" unicode="&#x134;" horiz-adv-x="260" 
d="M371 1575l-56 -76h-30l77 105h23l43 -105h-31zM27 -8q-93 0 -74 108l84 480h33l-84 -484q-7 -35 2.5 -53t42.5 -18q28 0 41 20.5t22 63.5l236 1341h32l-237 -1346q-7 -60 -30.5 -86t-67.5 -26z" />
    <glyph glyph-name="jcircumflex" unicode="&#x135;" horiz-adv-x="129" 
d="M197 1296l-56 -75h-30l77 104h23l43 -104h-31zM-127 -121l6 33h17q34 0 43 45l213 1214h32l-213 -1216q-8 -42 -23.5 -59t-51.5 -17h-23z" />
    <glyph glyph-name="uni0136" unicode="&#x136;" horiz-adv-x="264" 
d="M217 948l-143 -420l-92 -528h-33l254 1450h33l-113 -647l-62 -275l70 234l234 688h32l-161 -479l-95 -971h-32l73 733zM-8 -170q29 20 39 64q-2 -7 -11 -7q-19 0 -12 31q3 33 31 33q13 0 17 -10.5t-1 -36.5q-12 -67 -57 -90z" />
    <glyph glyph-name="uni0137" unicode="&#x137;" horiz-adv-x="253" 
d="M182 764l-137 -385l-65 -379h-33l262 1499h33l-142 -811l-67 -307l73 237l197 553h31l-135 -387l-66 -784h-33l47 528zM-14 -170q29 20 39 64q-2 -7 -11 -7q-19 0 -12 31q3 33 31 33q13 0 17 -10.5t-1 -36.5q-12 -67 -57 -90z" />
    <glyph glyph-name="kgreenlandic" unicode="&#x138;" horiz-adv-x="253" 
d="M182 764l-137 -385l-65 -379h-33l205 1171h32l-84 -483l-67 -307l73 237l197 553h31l-135 -387l-66 -784h-33l47 528z" />
    <glyph glyph-name="Lacute" unicode="&#x139;" horiz-adv-x="202" 
d="M299 1624h37l-94 -123h-27zM-51 0l254 1450h33l-250 -1417h100l-4 -33h-133z" />
    <glyph glyph-name="lacute" unicode="&#x13a;" horiz-adv-x="129" 
d="M307 1673h37l-94 -123h-27zM211 1499h33l-264 -1499h-33z" />
    <glyph glyph-name="uni013B" unicode="&#x13b;" horiz-adv-x="202" 
d="M-51 0l254 1450h33l-250 -1417h100l-4 -33h-133zM-37 -174q30 21 39 63q-2 -6 -10 -6q-19 0 -12 31q3 33 30 33q14 0 17.5 -10.5t-0.5 -36.5q-12 -66 -58 -90z" />
    <glyph glyph-name="uni013C" unicode="&#x13c;" horiz-adv-x="129" 
d="M211 1499h33l-264 -1499h-33zM-92 -174q30 21 39 63q-2 -6 -10 -6q-20 0 -13 31q3 33 31 33q13 0 17 -10.5t-1 -36.5q-12 -67 -57 -90z" />
    <glyph glyph-name="Lcaron" unicode="&#x13d;" horiz-adv-x="202" 
d="M-51 0l254 1450h33l-250 -1417h100l-4 -33h-133zM299 1448h31l-54 -115h-22z" />
    <glyph glyph-name="lcaron" unicode="&#x13e;" horiz-adv-x="129" 
d="M211 1499h33l-264 -1499h-33zM303 1495h31l-53 -115h-23z" />
    <glyph glyph-name="Ldot" unicode="&#x13f;" horiz-adv-x="202" 
d="M-51 0l254 1450h33l-250 -1417h100l-4 -33h-133zM158 563q-22 0 -19 37q3 35 31 35q23 0 20 -35q-9 -37 -32 -37z" />
    <glyph glyph-name="ldot" unicode="&#x140;" horiz-adv-x="206" 
d="M211 1499h33l-264 -1499h-33zM166 567q-22 0 -19 35q9 37 31 37q28 0 19 -37q-3 -35 -31 -35z" />
    <glyph glyph-name="Lslash" unicode="&#x141;" horiz-adv-x="204" 
d="M-49 0l127 725l-37 -12l-4 28l47 15l121 694h33l-121 -684l57 18l2 -28l-63 -21l-125 -702h100l-4 -33h-133z" />
    <glyph glyph-name="lslash" unicode="&#x142;" horiz-adv-x="133" 
d="M-51 0l100 571l-41 -16l-6 25l53 20l158 899h33l-156 -885l39 17l8 -25l-53 -20l-102 -586h-33z" />
    <glyph glyph-name="Nacute" unicode="&#x143;" horiz-adv-x="311" 
d="M385 1618h37l-94 -123h-27zM-20 0h-31l254 1450h30l-59 -1102l-24 -295l47 342l186 1055h31l-254 -1450h-33l53 1006l29 346l-72 -455z" />
    <glyph glyph-name="nacute" unicode="&#x144;" horiz-adv-x="274" 
d="M330 1354h37l-95 -123h-26zM-20 0h-33l207 1171h24l-6 -55q27 64 78 64q83 0 61 -119l-12 -64q-2 -9 -24.5 -140.5t-38.5 -221.5q-61 -356 -74 -428l-37 -207h-33l187 1061q18 88 -39 88q-31 0 -49.5 -25.5t-28.5 -87.5z" />
    <glyph glyph-name="uni0145" unicode="&#x145;" horiz-adv-x="311" 
d="M-20 0h-31l254 1450h30l-59 -1102l-24 -295l47 342l186 1055h31l-254 -1450h-33l53 1006l29 346l-72 -455zM-4 -166q29 20 39 64q-2 -7 -10 -7q-20 0 -13 31q3 33 31 33q13 0 17 -10.5t-1 -36.5q-12 -67 -57 -90z" />
    <glyph glyph-name="uni0146" unicode="&#x146;" horiz-adv-x="274" 
d="M-20 0h-33l207 1171h24l-6 -55q27 64 78 64q83 0 61 -119l-12 -64q-2 -9 -24.5 -140.5t-38.5 -221.5q-61 -356 -74 -428l-37 -207h-33l187 1061q18 88 -39 88q-31 0 -49.5 -25.5t-28.5 -87.5zM-23 -172q30 21 39 63q-2 -6 -10 -6q-19 0 -12 31q3 33 31 33q13 0 17 -10.5
t-1 -36.5q-12 -67 -57 -90z" />
    <glyph glyph-name="Ncaron" unicode="&#x147;" horiz-adv-x="311" 
d="M305 1495l-41 102h31l29 -75l53 75h31l-80 -102h-23zM-20 0h-31l254 1450h30l-59 -1102l-24 -295l47 342l186 1055h31l-254 -1450h-33l53 1006l29 346l-72 -455z" />
    <glyph glyph-name="ncaron" unicode="&#x148;" horiz-adv-x="274" 
d="M248 1231l-41 102h31l28 -76l53 76h31l-80 -102h-22zM-20 0h-33l207 1171h24l-6 -55q27 64 78 64q83 0 61 -119l-12 -64q-2 -9 -24.5 -140.5t-38.5 -221.5q-61 -356 -74 -428l-37 -207h-33l187 1061q18 88 -39 88q-31 0 -49.5 -25.5t-28.5 -87.5z" />
    <glyph glyph-name="Eng" unicode="&#x14a;" horiz-adv-x="311" 
d="M53 -115l4 31h19q36 0 45 47l4 25l57 1016l27 352l-72 -459l-157 -897h-31l254 1450h30l-61 -1102l-22 -295l47 342l186 1055h31l-262 -1489q-6 -40 -23 -58t-53 -18h-23z" />
    <glyph glyph-name="eng" unicode="&#x14b;" horiz-adv-x="274" 
d="M8 -190l6 32h19q32 0 41 47l207 1172q19 88 -39 88q-31 0 -50.5 -27t-29.5 -86l-182 -1036h-33l207 1171h24l-8 -63q26 72 80 72q42 0 57.5 -28t3.5 -91l-205 -1174q-8 -41 -23.5 -59t-49.5 -18h-25z" />
    <glyph glyph-name="Omacron" unicode="&#x14c;" horiz-adv-x="288" 
d="M250 1554h133l-6 -28h-133zM45 -8q-101 0 -80 112l219 1248q15 106 109 106q46 0 70 -29t14 -81l-223 -1262q-14 -94 -109 -94zM49 25q59 0 74 65l221 1262q13 75 -53 75q-58 0 -74 -75l-219 -1246q-13 -81 51 -81z" />
    <glyph glyph-name="omacron" unicode="&#x14d;" horiz-adv-x="272" 
d="M195 1276h133l-6 -29h-134zM33 -8q-94 0 -74 114l172 975q19 99 98 99q48 0 70 -29t12 -78l-174 -979q-15 -102 -104 -102zM37 25q54 0 69 73l173 975q12 76 -50 76q-56 0 -65 -70l-172 -975q-15 -79 45 -79z" />
    <glyph glyph-name="Obreve" unicode="&#x14e;" horiz-adv-x="288" 
d="M309 1503q-76 0 -61 94h26q-5 -37 3 -51.5t36 -15.5q52 3 64 67h26q-21 -94 -94 -94zM45 -8q-101 0 -80 112l219 1248q15 106 109 106q46 0 70 -29t14 -81l-223 -1262q-14 -94 -109 -94zM49 25q59 0 74 65l221 1262q13 75 -53 75q-58 0 -74 -75l-219 -1246
q-13 -81 51 -81z" />
    <glyph glyph-name="obreve" unicode="&#x14f;" horiz-adv-x="272" 
d="M254 1227q-76 0 -61 94h26q-5 -37 3 -52t36 -16q52 3 64 68h26q-21 -94 -94 -94zM33 -8q-94 0 -74 114l172 975q19 99 98 99q48 0 70 -29t12 -78l-174 -979q-15 -102 -104 -102zM37 25q54 0 69 73l173 975q12 76 -50 76q-56 0 -65 -70l-172 -975q-15 -79 45 -79z" />
    <glyph glyph-name="Ohungarumlaut" unicode="&#x150;" horiz-adv-x="288" 
d="M287 1507h-27l64 105h34zM352 1507h-26l69 105h37zM45 -8q-101 0 -80 112l219 1248q15 106 109 106q46 0 70 -29t14 -81l-223 -1262q-14 -94 -109 -94zM49 25q59 0 74 65l221 1262q13 75 -53 75q-58 0 -74 -75l-219 -1246q-13 -81 51 -81z" />
    <glyph glyph-name="ohungarumlaut" unicode="&#x151;" horiz-adv-x="272" 
d="M229 1231h-26l63 104h35zM295 1231h-27l70 104h37zM33 -8q-94 0 -74 114l172 975q19 99 98 99q48 0 70 -29t12 -78l-174 -979q-15 -102 -104 -102zM37 25q54 0 69 73l173 975q12 76 -50 76q-56 0 -65 -70l-172 -975q-15 -79 45 -79z" />
    <glyph glyph-name="OE" unicode="&#x152;" horiz-adv-x="382" 
d="M111 47q-24 -53 -78 -53q-93 0 -72 102l221 1260q23 102 103 102q62 0 65 -63v4l8 51h144l-6 -31h-113l-121 -684h107l-7 -33h-104l-119 -669h115l-4 -33h-148zM43 25q64 0 76 73l221 1258q6 33 -6.5 52t-42.5 19q-63 0 -76 -71l-221 -1258q-12 -73 49 -73z" />
    <glyph glyph-name="oe" unicode="&#x153;" horiz-adv-x="419" 
d="M287 88q-15 -96 -101 -96q-61 0 -73 49q-24 -49 -82 -49q-43 0 -63.5 26.5t-10.5 75.5l172 981q20 105 102 105q62 0 74 -50q24 50 82 50q95 0 74 -103l-88 -495h-150l-86 -486q-10 -71 51 -71q55 0 66 63l70 395h32zM37 25q58 0 67 71l175 983q6 31 -7.5 50.5
t-42.5 19.5q-25 0 -43 -21t-24 -55l-172 -977q-6 -33 6 -52t41 -19zM229 612h117l82 465q6 33 -6 52.5t-41 19.5q-58 0 -70 -70z" />
    <glyph glyph-name="Racute" unicode="&#x154;" horiz-adv-x="278" 
d="M371 1624h37l-95 -123h-26zM100 676l-118 -676h-33l254 1450h67q117 0 97 -113l-99 -557q-12 -76 -73 -88q30 -7 38 -31.5t0 -68.5l-98 -551q-3 -30 8 -41h-39q-11 14 -2 41l97 549q8 44 -2.5 65t-49.5 21h-47zM231 1419l-125 -710h44q38 0 58.5 16t27.5 57l98 551
q15 86 -70 86h-33z" />
    <glyph glyph-name="racute" unicode="&#x155;" horiz-adv-x="165" 
d="M276 1341h37l-94 -122h-26zM-53 0l205 1171h26l-8 -67q11 36 29.5 51.5t54.5 15.5h4l-6 -36h-8q-41 0 -57 -22t-27 -89l-180 -1024h-33z" />
    <glyph glyph-name="uni0156" unicode="&#x156;" horiz-adv-x="278" 
d="M100 676l-118 -676h-33l254 1450h67q117 0 97 -113l-99 -557q-12 -76 -73 -88q30 -7 38 -31.5t0 -68.5l-98 -551q-3 -30 8 -41h-39q-11 14 -2 41l97 549q8 44 -2.5 65t-49.5 21h-47zM231 1419l-125 -710h44q38 0 58.5 16t27.5 57l98 551q15 86 -70 86h-33zM-14 -170
q29 20 39 64q-2 -7 -11 -7q-19 0 -12 31q3 33 31 33q13 0 17 -10.5t-1 -36.5q-12 -67 -57 -90z" />
    <glyph glyph-name="uni0157" unicode="&#x157;" horiz-adv-x="165" 
d="M-53 0l205 1171h26l-8 -67q11 36 29.5 51.5t54.5 15.5h4l-6 -36h-8q-41 0 -57 -22t-27 -89l-180 -1024h-33zM-94 -174q30 21 39 63q-2 -6 -11 -6q-19 0 -12 31q3 33 31 33q13 0 17 -10.5t-1 -36.5q-12 -67 -57 -90z" />
    <glyph glyph-name="Rcaron" unicode="&#x158;" horiz-adv-x="278" 
d="M289 1501l-41 103h31l28 -76l53 76h31l-80 -103h-22zM100 676l-118 -676h-33l254 1450h67q117 0 97 -113l-99 -557q-12 -76 -73 -88q30 -7 38 -31.5t0 -68.5l-98 -551q-3 -30 8 -41h-39q-11 14 -2 41l97 549q8 44 -2.5 65t-49.5 21h-47zM231 1419l-125 -710h44
q38 0 58.5 16t27.5 57l98 551q15 86 -70 86h-33z" />
    <glyph glyph-name="rcaron" unicode="&#x159;" horiz-adv-x="165" 
d="M195 1219l-41 102h30l29 -76l53 76h31l-80 -102h-22zM-53 0l205 1171h26l-8 -67q11 36 29.5 51.5t54.5 15.5h4l-6 -36h-8q-41 0 -57 -22t-27 -89l-180 -1024h-33z" />
    <glyph glyph-name="Sacute" unicode="&#x15a;" horiz-adv-x="274" 
d="M367 1632h36l-94 -123h-26zM41 -8q-101 0 -80 117l94 530h33l-94 -535q-15 -79 47 -79q55 0 68 65l98 559q6 37 -5 60.5t-46 46.5q-26 20 -35.5 28.5t-19.5 31.5t-5 52l88 502q15 88 97 88q47 0 69 -27.5t12 -74.5l-83 -471h-33l84 469q12 73 -49 73q-55 0 -64 -59
l-88 -498q-1 -9 -1 -17.5t0.5 -14.5t4.5 -12.5t5.5 -10t9 -10t10 -9t12.5 -10l14 -10.5q40 -28 53 -52t3 -73l-99 -563q-16 -96 -100 -96z" />
    <glyph glyph-name="sacute" unicode="&#x15b;" horiz-adv-x="256" 
d="M311 1354h37l-94 -123h-27zM27 -8q-95 0 -74 100l74 414h32l-73 -414q-9 -67 45 -67q52 0 61 63l74 414q6 37 -5 57t-44 41q-36 26 -48.5 48.5t-5.5 62.5l66 374q15 95 94 95q89 0 74 -99l-64 -364h-32l63 366q10 66 -41 66t-61 -66l-64 -368q-7 -35 1 -50t42 -40
q14 -10 22 -16t17 -15t13 -17t7.5 -19t2.5 -25t-4 -31l-74 -416q-8 -48 -31 -71t-67 -23z" />
    <glyph glyph-name="Scircumflex" unicode="&#x15c;" horiz-adv-x="274" 
d="M313 1583l-55 -76h-31l78 105h23l43 -105h-31zM41 -8q-101 0 -80 117l94 530h33l-94 -535q-15 -79 47 -79q55 0 68 65l98 559q6 37 -5 60.5t-46 46.5q-26 20 -35.5 28.5t-19.5 31.5t-5 52l88 502q15 88 97 88q47 0 69 -27.5t12 -74.5l-83 -471h-33l84 469q12 73 -49 73
q-55 0 -64 -59l-88 -498q-1 -9 -1 -17.5t0.5 -14.5t4.5 -12.5t5.5 -10t9 -10t10 -9t12.5 -10l14 -10.5q40 -28 53 -52t3 -73l-99 -563q-16 -96 -100 -96z" />
    <glyph glyph-name="scircumflex" unicode="&#x15d;" horiz-adv-x="256" 
d="M260 1305l-55 -76h-31l78 104h22l43 -104h-30zM27 -8q-95 0 -74 100l74 414h32l-73 -414q-9 -67 45 -67q52 0 61 63l74 414q6 37 -5 57t-44 41q-36 26 -48.5 48.5t-5.5 62.5l66 374q15 95 94 95q89 0 74 -99l-64 -364h-32l63 366q10 66 -41 66t-61 -66l-64 -368
q-7 -35 1 -50t42 -40q14 -10 22 -16t17 -15t13 -17t7.5 -19t2.5 -25t-4 -31l-74 -416q-8 -48 -31 -71t-67 -23z" />
    <glyph glyph-name="uni015E" unicode="&#x15e;" horiz-adv-x="274" 
d="M2 -168q-64 0 -61 62h28q-1 -21 8 -28t29 -7q49 0 51 32q2 14 -8 21.5t-33 7.5h-10l12 74q-76 16 -55 115l94 530h33l-94 -535q-15 -79 47 -79q55 0 68 65l98 559q6 37 -5 60.5t-46 46.5q-26 20 -35.5 28.5t-19.5 31.5t-5 52l88 502q15 88 97 88q48 0 70 -27.5t12 -74.5
l-84 -471h-33l84 469q12 73 -49 73q-55 0 -64 -59l-88 -498q-1 -9 -1 -17.5t0.5 -14.5t4.5 -12.5t5.5 -10t9 -10t10 -9t12.5 -10l14 -10.5q40 -28 53 -52t3 -73l-99 -563q-16 -96 -98 -96l-8 -47q60 -9 51 -54q-12 -59 -86 -59z" />
    <glyph glyph-name="uni015F" unicode="&#x15f;" horiz-adv-x="256" 
d="M-4 -166q-65 0 -62 62h29q-1 -21 8 -28t29 -7q49 0 51 33q2 14 -8 21t-33 7h-10l10 72q-70 9 -55 98l74 414h32l-73 -414q-9 -67 45 -67q52 0 61 63l74 414q6 37 -5 57t-44 41q-35 25 -47.5 48t-5.5 63l65 374q15 95 94 95q89 0 74 -99l-63 -364h-33l63 366q10 66 -41 66
t-61 -66l-64 -368q-7 -35 1 -50t42 -40q14 -10 22 -16t17 -15t13 -17t7.5 -19t2.5 -25t-4 -31l-74 -416q-15 -94 -88 -94l-8 -45q60 -9 51 -53q-6 -29 -29.5 -44.5t-56.5 -15.5z" />
    <glyph glyph-name="Scaron" unicode="&#x160;" horiz-adv-x="274" 
d="M285 1509l-41 103h30l29 -76l53 76h31l-80 -103h-22zM41 -8q-101 0 -80 117l94 530h33l-94 -535q-15 -79 47 -79q55 0 68 65l98 559q6 37 -5 60.5t-46 46.5q-26 20 -35.5 28.5t-19.5 31.5t-5 52l88 502q15 88 97 88q47 0 69 -27.5t12 -74.5l-83 -471h-33l84 469
q12 73 -49 73q-55 0 -64 -59l-88 -498q-1 -9 -1 -17.5t0.5 -14.5t4.5 -12.5t5.5 -10t9 -10t10 -9t12.5 -10l14 -10.5q40 -28 53 -52t3 -73l-99 -563q-16 -96 -100 -96z" />
    <glyph glyph-name="scaron" unicode="&#x161;" horiz-adv-x="256" 
d="M231 1231l-41 102h31l29 -76l53 76h31l-80 -102h-23zM27 -8q-95 0 -74 100l74 414h32l-73 -414q-9 -67 45 -67q52 0 61 63l74 414q6 37 -5 57t-44 41q-36 26 -48.5 48.5t-5.5 62.5l66 374q15 95 94 95q89 0 74 -99l-64 -364h-32l63 366q10 66 -41 66t-61 -66l-64 -368
q-7 -35 1 -50t42 -40q14 -10 22 -16t17 -15t13 -17t7.5 -19t2.5 -25t-4 -31l-74 -416q-8 -48 -31 -71t-67 -23z" />
    <glyph glyph-name="uni0162" unicode="&#x162;" horiz-adv-x="186" 
d="M256 1419l-248 -1419h-33l248 1419h-61l6 31h156l-7 -31h-61zM-66 -174q30 21 39 63q-2 -6 -10 -6q-19 0 -12 31q3 33 31 33q13 0 17 -10.5t-1 -36.5q-12 -67 -57 -90z" />
    <glyph glyph-name="uni0163" unicode="&#x163;" horiz-adv-x="163" 
d="M47 0h-14q-48 0 -60 21t0 90l183 1030h-43l6 30q21 0 24 3q20 0 23 22q10 42 18 88h29l-18 -110h57l-6 -33h-58l-180 -1026q-10 -55 -4 -68.5t39 -13.5h8zM-53 -174q30 21 39 63q-2 -6 -11 -6q-19 0 -12 31q3 33 31 33q13 0 17 -10.5t-1 -36.5q-12 -67 -57 -90z" />
    <glyph glyph-name="Tcaron" unicode="&#x164;" horiz-adv-x="186" 
d="M244 1501l-41 103h30l29 -76l53 76h31l-80 -103h-22zM256 1419l-248 -1419h-33l248 1419h-61l6 31h156l-7 -31h-61z" />
    <glyph glyph-name="tcaron" unicode="&#x165;" horiz-adv-x="163" 
d="M291 1352h31l-54 -115h-22zM47 0h-14q-48 0 -60 21t0 90l183 1030h-43l6 30q21 0 24 3q20 0 23 22q10 42 18 88h29l-18 -110h57l-6 -33h-58l-180 -1026q-10 -55 -4 -68.5t39 -13.5h8z" />
    <glyph glyph-name="Tbar" unicode="&#x166;" horiz-adv-x="186" 
d="M133 719l-125 -719h-33l125 719h-45l6 33h45l117 667h-61l6 31h156l-7 -31h-61l-117 -667h47l-6 -33h-47z" />
    <glyph glyph-name="tbar" unicode="&#x167;" horiz-adv-x="163" 
d="M47 0h-14q-50 0 -61 20t1 91l88 493h-38l6 33h39l88 504h-43l6 30q21 0 24 3q20 0 23 22q10 42 18 88h29l-20 -110h59l-6 -33h-58l-90 -504h49l-6 -33h-49l-86 -489q-10 -55 -3 -68.5t40 -13.5h8z" />
    <glyph glyph-name="Utilde" unicode="&#x168;" horiz-adv-x="288" 
d="M219 1509q15 72 60 72q21 0 41 -23.5t30 -23.5q12 0 19.5 10t11.5 35h27q-12 -72 -62 -72q-19 0 -40 23.5t-32 23.5q-19 0 -28 -45h-27zM43 -8q-99 0 -78 117l236 1341h35l-238 -1344q-13 -81 49 -81q60 0 70 73l237 1352h35l-239 -1356q-15 -102 -107 -102z" />
    <glyph glyph-name="utilde" unicode="&#x169;" 
d="M164 1233q15 72 59 72q17 0 30 -12t23 -24t19 -12q23 0 31 46h26q-12 -72 -61 -72q-19 0 -40 23.5t-32 23.5q-20 0 -29 -45h-26zM98 59q-25 -67 -78 -67q-41 0 -54.5 28t-2.5 93l187 1058h32l-186 -1058q-19 -90 39 -90q53 0 74 112l182 1036h33l-205 -1171h-27z" />
    <glyph glyph-name="Umacron" unicode="&#x16a;" horiz-adv-x="288" 
d="M248 1556h133l-6 -28h-133zM43 -8q-99 0 -78 117l236 1341h35l-238 -1344q-13 -81 49 -81q60 0 70 73l237 1352h35l-239 -1356q-15 -102 -107 -102z" />
    <glyph glyph-name="umacron" unicode="&#x16b;" 
d="M193 1280h133l-7 -29h-133zM98 59q-25 -67 -78 -67q-41 0 -54.5 28t-2.5 93l187 1058h32l-186 -1058q-19 -90 39 -90q53 0 74 112l182 1036h33l-205 -1171h-27z" />
    <glyph glyph-name="Ubreve" unicode="&#x16c;" horiz-adv-x="288" 
d="M305 1491q-76 0 -61 94h26q-5 -37 3 -51.5t36 -15.5q52 3 64 67h26q-21 -94 -94 -94zM43 -8q-99 0 -78 117l236 1341h35l-238 -1344q-13 -81 49 -81q60 0 70 73l237 1352h35l-239 -1356q-15 -102 -107 -102z" />
    <glyph glyph-name="ubreve" unicode="&#x16d;" 
d="M248 1214q-77 0 -62 95h27q-5 -37 3 -52t36 -16q51 3 63 68h27q-21 -95 -94 -95zM98 59q-25 -67 -78 -67q-41 0 -54.5 28t-2.5 93l187 1058h32l-186 -1058q-19 -90 39 -90q53 0 74 112l182 1036h33l-205 -1171h-27z" />
    <glyph glyph-name="Uring" unicode="&#x16e;" horiz-adv-x="288" 
d="M307 1499q-30 0 -47.5 19.5t-11.5 50.5q12 65 80 65q31 0 47 -19t10 -50q-4 -30 -26 -48t-52 -18zM311 1524q35 0 45 43q4 18 -5 29.5t-27 11.5q-38 0 -50 -41q-3 -43 37 -43zM43 -8q-99 0 -78 117l236 1341h35l-238 -1344q-13 -81 49 -81q60 0 70 73l237 1352h35
l-239 -1356q-15 -102 -107 -102z" />
    <glyph glyph-name="uring" unicode="&#x16f;" 
d="M248 1223q-30 0 -48 19t-12 50q12 66 80 66q31 0 47.5 -19.5t10.5 -50.5q-4 -30 -26 -47.5t-52 -17.5zM252 1247q35 0 45 43q4 18 -5.5 29.5t-27.5 11.5q-37 0 -49 -41q-3 -43 37 -43zM98 59q-25 -67 -78 -67q-41 0 -54.5 28t-2.5 93l187 1058h32l-186 -1058
q-19 -90 39 -90q53 0 74 112l182 1036h33l-205 -1171h-27z" />
    <glyph glyph-name="Uhungarumlaut" unicode="&#x170;" horiz-adv-x="288" 
d="M283 1495h-27l63 104h35zM348 1495h-26l69 104h37zM43 -8q-99 0 -78 117l236 1341h35l-238 -1344q-13 -81 49 -81q60 0 70 73l237 1352h35l-239 -1356q-15 -102 -107 -102z" />
    <glyph glyph-name="uhungarumlaut" unicode="&#x171;" 
d="M225 1219h-26l63 104h35zM291 1219h-27l70 104h37zM98 59q-25 -67 -78 -67q-41 0 -54.5 28t-2.5 93l187 1058h32l-186 -1058q-19 -90 39 -90q53 0 74 112l182 1036h33l-205 -1171h-27z" />
    <glyph glyph-name="Uogonek" unicode="&#x172;" horiz-adv-x="288" 
d="M57 -141q-66 0 -57 63q3 31 45 70h-2q-99 0 -78 117l236 1341h35l-238 -1344q-13 -81 49 -81q60 0 70 73l237 1352h35l-239 -1356q-12 -72 -56 -92q-62 -47 -65 -78q-9 -39 34 -39q38 0 52 35h30q-24 -61 -88 -61z" />
    <glyph glyph-name="uogonek" unicode="&#x173;" 
d="M168 -84q-24 -61 -88 -61q-66 0 -57 63q7 42 69 90l6 51q-25 -67 -78 -67q-41 0 -54.5 28t-2.5 93l187 1058h32l-186 -1058q-19 -90 39 -90q53 0 74 112l182 1036h33l-205 -1171q-65 -49 -68 -80q-9 -39 35 -39q37 0 51 35h31z" />
    <glyph glyph-name="Wcircumflex" unicode="&#x174;" horiz-adv-x="372" 
d="M367 1575l-56 -76h-30l77 105h23l43 -105h-31zM14 0h-37l207 1450h31l-174 -1190l-41 -242l45 222l281 1210h28l-147 -1202l-27 -189l39 205l244 1186h33l-306 -1450h-36l135 1124l41 260l-54 -260z" />
    <glyph glyph-name="wcircumflex" unicode="&#x175;" horiz-adv-x="352" 
d="M305 1296l-55 -75h-31l78 104h22l43 -104h-30zM8 0h-33l154 1171h33l-125 -905l-39 -246l53 250l217 901h27l-102 -905l-31 -213l43 213l194 905h31l-256 -1171h-33l90 834l48 319l-66 -319z" />
    <glyph glyph-name="Ycircumflex" unicode="&#x176;" horiz-adv-x="241" 
d="M297 1567l-55 -76h-31l78 104h22l43 -104h-30zM2 0l82 461l90 989h33l-64 -686l-32 -240l55 240l174 686h33l-256 -983l-82 -467h-33z" />
    <glyph glyph-name="ycircumflex" unicode="&#x177;" horiz-adv-x="235" 
d="M246 1290l-56 -76h-30l78 105h22l43 -105h-31zM-104 -156l6 33h18q21 0 33 9t18 36l21 74l137 1175h33l-105 -856l-45 -288l66 297l205 847h32l-307 -1245q-12 -48 -32 -65t-60 -17h-20z" />
    <glyph glyph-name="Ydieresis" unicode="&#x178;" horiz-adv-x="241" 
d="M242 1499q-20 0 -17 31q3 33 27 33q21 0 18 -33q-3 -31 -28 -31zM317 1499q-19 0 -16 31q3 33 27 33q19 0 16 -33q-2 -14 -9.5 -22.5t-17.5 -8.5zM2 0l82 461l90 989h33l-64 -686l-32 -240l55 240l174 686h33l-256 -983l-82 -467h-33z" />
    <glyph glyph-name="Zacute" unicode="&#x179;" horiz-adv-x="200" 
d="M334 1624h37l-95 -123h-26zM-70 0l4 29l353 1390h-109l6 31h138l-5 -29l-350 -1388h111l-4 -33h-144z" />
    <glyph glyph-name="zacute" unicode="&#x17a;" horiz-adv-x="180" 
d="M279 1346h36l-94 -123h-26zM-76 0l4 25l295 1116h-98l6 30h129l-6 -30l-293 -1110h100l-4 -31h-133z" />
    <glyph glyph-name="Zdotaccent" unicode="&#x17b;" horiz-adv-x="200" 
d="M266 1501q-21 0 -18 35q9 37 31 37q27 0 18 -37q-3 -35 -31 -35zM-70 0l4 29l353 1390h-109l6 31h138l-5 -29l-350 -1388h111l-4 -33h-144z" />
    <glyph glyph-name="zdotaccent" unicode="&#x17c;" horiz-adv-x="180" 
d="M209 1223q-22 0 -19 34q9 37 31 37q28 0 19 -37q-3 -34 -31 -34zM-76 0l4 25l295 1116h-98l6 30h129l-6 -30l-293 -1110h100l-4 -31h-133z" />
    <glyph glyph-name="Zcaron" unicode="&#x17d;" horiz-adv-x="200" 
d="M254 1501l-41 103h31l28 -76l54 76h30l-80 -103h-22zM-70 0l4 29l353 1390h-109l6 31h138l-5 -29l-350 -1388h111l-4 -33h-144z" />
    <glyph glyph-name="zcaron" unicode="&#x17e;" horiz-adv-x="180" 
d="M197 1223l-41 102h30l29 -76l53 76h31l-80 -102h-22zM-76 0l4 25l295 1116h-98l6 30h129l-6 -30l-293 -1110h100l-4 -31h-133z" />
    <glyph glyph-name="uni0192" unicode="&#x192;" horiz-adv-x="172" 
d="M-23 -135q-10 -65 -30.5 -89t-65.5 -24h-16l8 33h10q27 0 41 18t21 66l145 831h-59l6 31h57l113 641q13 70 37 96.5t69 26.5h9l-7 -33h-4q-31 0 -46 -18.5t-25 -73.5l-111 -639h57l-6 -31h-57z" />
    <glyph glyph-name="Aringacute" unicode="&#x1fa;" horiz-adv-x="243" 
d="M369 1716h37l-95 -123h-26zM-47 0h-33l330 1427q-21 6 -33 24.5t-8 43.5q12 66 80 66q31 0 47 -19.5t10 -50.5q-1 -24 -17 -41.5t-40 -22.5l-168 -1427h-33l37 311h-100zM272 1450q35 0 45 43q4 18 -5 29.5t-27 11.5q-37 0 -49 -41q-3 -43 36 -43zM31 344h98l94 780
l39 267l-53 -267z" />
    <glyph glyph-name="aringacute" unicode="&#x1fb;" horiz-adv-x="270" 
d="M346 1501h37l-94 -123h-27zM250 1212q-30 0 -48 19.5t-12 50.5q12 66 80 66q31 0 47.5 -19.5t10.5 -50.5q-4 -30 -26 -48t-52 -18zM254 1237q35 0 45 43q4 18 -5.5 29.5t-27.5 11.5q-37 0 -49 -41q-3 -43 37 -43zM147 0q-48 0 -45 55q-22 -63 -79 -63q-85 0 -64 119
l74 415q10 59 41 90q21 19 63 37q6 3 18.5 9t17 8t13 7t11.5 8.5t7.5 9.5t7 12.5t3.5 15.5l64 356q6 32 -5.5 51t-40.5 19q-56 0 -65 -68l-62 -338h-32l61 342q16 95 101 95q45 0 64 -27.5t11 -71.5l-168 -956q-8 -59 -4.5 -76.5t23.5 -17.5h8l-6 -31h-17zM37 23
q29 0 46.5 23t27.5 77l96 547q-12 -21 -60 -43q-33 -11 -49 -29q-19 -13 -32 -72l-74 -417q-15 -86 45 -86z" />
    <glyph glyph-name="AEacute" unicode="&#x1fc;" horiz-adv-x="331" 
d="M379 1624h37l-94 -123h-27zM125 303h-100l-74 -303h-33l365 1450h180l-6 -31h-142l-94 -676h107l-6 -30h-105l-96 -680h94l-4 -33h-129zM33 336h98l127 887l41 225l-49 -234z" />
    <glyph glyph-name="aeacute" unicode="&#x1fd;" horiz-adv-x="417" 
d="M395 1358h37l-94 -123h-27zM287 88q-21 -96 -105 -96q-70 0 -73 69q-24 -69 -93 -69q-42 0 -55.5 25.5t-3.5 84.5l70 392q10 59 41 90q15 15 65 37q40 14 56 26.5t22 42.5l70 393q10 66 -48 66q-56 0 -65 -68l-62 -338h-32l61 340q8 45 33.5 71t67.5 26q60 0 69 -45
q26 45 80 45q97 0 76 -103l-88 -495h-150l-86 -488q-12 -69 49 -69q28 0 45.5 17.5t22.5 45.5l68 387h32zM229 612h117l80 465q6 33 -5 52.5t-40 19.5q-58 0 -70 -72zM27 23q67 0 82 94l90 514q-9 -17 -56 -37q-32 -11 -53 -29q-24 -28 -31 -71l-67 -385q-15 -86 35 -86z
" />
    <glyph glyph-name="Oslashacute" unicode="&#x1fe;" horiz-adv-x="288" 
d="M330 1657h37l-95 -123h-26zM45 -8q-15 0 -35 4l-45 -180h-28l51 194q-35 23 -23 94l219 1248q15 106 109 106q25 0 35 -6l43 174h26l-45 -186q38 -27 25 -92l-223 -1262q-14 -94 -109 -94zM-2 106q-9 -28 0 -49l324 1364q-8 6 -31 6q-58 0 -74 -75zM49 25q59 0 74 65
l221 1262q4 33 -2 47l-324 -1368q24 -6 31 -6z" />
    <glyph glyph-name="oslashacute" unicode="&#x1ff;" horiz-adv-x="272" 
d="M283 1391h36l-94 -123h-26zM35 -8q-11 0 -31 4l-47 -180h-23l50 190q-35 25 -23 100l172 975q19 99 98 99q27 0 37 -6l41 157h23l-45 -168q38 -23 26 -90l-174 -979q-15 -102 -104 -102zM-8 104q-3 -38 4 -55l264 1094q-8 6 -29 6q-55 0 -67 -70zM39 25q58 0 70 73
l172 975q9 33 -2 51l-267 -1093q24 -6 27 -6z" />
    <glyph glyph-name="uni0218" unicode="&#x218;" horiz-adv-x="274" 
d="M41 -8q-101 0 -80 117l94 530h33l-94 -535q-15 -79 47 -79q55 0 68 65l98 559q6 37 -5 60.5t-46 46.5q-26 20 -35.5 28.5t-19.5 31.5t-5 52l88 502q15 88 97 88q47 0 69 -27.5t12 -74.5l-83 -471h-33l84 469q12 73 -49 73q-55 0 -64 -59l-88 -498q-1 -9 -1 -17.5
t0.5 -14.5t4.5 -12.5t5.5 -10t9 -10t10 -9t12.5 -10l14 -10.5q40 -28 53 -52t3 -73l-99 -563q-16 -96 -100 -96zM-25 -182q30 21 39 63q-2 -6 -10 -6q-19 0 -12 31q3 33 31 33q13 0 17 -11t-1 -37q-12 -67 -57 -90z" />
    <glyph glyph-name="uni0219" unicode="&#x219;" horiz-adv-x="256" 
d="M27 -8q-95 0 -74 100l74 414h32l-73 -414q-9 -67 45 -67q52 0 61 63l74 414q6 37 -5 57t-44 41q-36 26 -48.5 48.5t-5.5 62.5l66 374q15 95 94 95q89 0 74 -99l-64 -364h-32l63 366q10 66 -41 66t-61 -66l-64 -368q-7 -35 1 -50t42 -40q14 -10 22 -16t17 -15t13 -17
t7.5 -19t2.5 -25t-4 -31l-74 -416q-8 -48 -31 -71t-67 -23zM-31 -184q30 21 39 63q-2 -6 -10 -6q-19 0 -12 31q3 33 30 33q25 0 17 -48q-12 -66 -58 -90z" />
    <glyph glyph-name="uni0237" unicode="&#x237;" horiz-adv-x="129" 
d="M-127 -121l6 33h17q34 0 43 45l213 1214h32l-213 -1216q-8 -42 -23.5 -59t-51.5 -17h-23z" />
    <glyph glyph-name="uni0245" unicode="&#x245;" horiz-adv-x="243" 
d="M-47 0h-33l334 1450h37l-170 -1450h-33l135 1124l39 267l-53 -267z" />
    <glyph glyph-name="circumflex" unicode="&#x2c6;" 
d="M262 1307l-55 -76h-31l78 104h22l43 -104h-30z" />
    <glyph glyph-name="caron" unicode="&#x2c7;" 
d="M236 1233l-41 102h30l29 -75l53 75h31l-80 -102h-22z" />
    <glyph glyph-name="breve" unicode="&#x2d8;" 
d="M248 1229q-77 0 -62 94h27q-5 -37 3 -52t36 -16q51 3 63 68h27q-21 -94 -94 -94z" />
    <glyph glyph-name="dotaccent" unicode="&#x2d9;" 
d="M248 1233q-22 0 -19 35q9 37 31 37q28 0 19 -37q-3 -35 -31 -35z" />
    <glyph glyph-name="ring" unicode="&#x2da;" 
d="M250 1237q-30 0 -48 19.5t-12 50.5q12 65 80 65q31 0 47.5 -19t10.5 -50q-4 -30 -26 -48t-52 -18zM254 1262q35 0 45 43q4 18 -5.5 29.5t-27.5 11.5q-37 0 -49 -41q-3 -43 37 -43z" />
    <glyph glyph-name="ogonek" unicode="&#x2db;" 
d="M14 -145q-66 0 -57 63q7 42 78 96l18 -14q-64 -49 -67 -80q-9 -39 34 -39q38 0 52 35h30q-24 -61 -88 -61z" />
    <glyph glyph-name="tilde" unicode="&#x2dc;" 
d="M166 1245q15 72 59 72q21 0 42 -23.5t30 -23.5q12 0 19.5 10t11.5 35h26q-12 -72 -61 -72q-19 0 -40 23.5t-32 23.5q-19 0 -28 -45h-27z" />
    <glyph glyph-name="hungarumlaut" unicode="&#x2dd;" 
d="M221 1233h-26l63 104h35zM287 1233h-27l70 104h37z" />
    <glyph glyph-name="uni03BC" unicode="&#x3bc;" 
d="M29 -6q-40 0 -43 41l-76 -434h-33l275 1570h30l-182 -1052q-17 -94 33 -94q56 0 71 106l185 1040h33l-205 -1171h-25l6 66q-21 -72 -69 -72z" />
    <glyph glyph-name="pi" unicode="&#x3c0;" horiz-adv-x="393" 
d="M410 1419h-131l-250 -1419h-33l250 1419h-74l6 31h340l-4 -31h-72l-237 -1339q-5 -27 2 -37t31 -10h26l-6 -33h-31q-38 0 -51.5 18.5t-5.5 59.5z" />
    <glyph glyph-name="uni0E3F" unicode="&#xe3f;" horiz-adv-x="296" 
d="M-2 -164l29 164h-86l254 1450h84l26 147h29l-27 -149q47 -4 62.5 -30.5t7.5 -76.5l-86 -487q-15 -85 -82 -96q65 -22 49 -113l-98 -547q-8 -47 -31.5 -70.5t-75.5 -27.5l-28 -164h-27zM162 774l112 645h-53l-112 -645h53zM344 1339q5 38 -3.5 56t-37.5 22l-113 -641
q56 9 68 78zM102 743l-122 -710h53l123 710h-54zM225 651q12 78 -41 90l-125 -706q34 4 49 21.5t21 54.5z" />
    <glyph glyph-name="Wgrave" unicode="&#x1e80;" horiz-adv-x="372" 
d="M299 1608h33l33 -105h-25zM14 0h-37l207 1450h31l-174 -1190l-41 -242l45 222l281 1210h28l-147 -1202l-27 -189l39 205l244 1186h33l-306 -1450h-36l135 1124l41 260l-54 -260z" />
    <glyph glyph-name="wgrave" unicode="&#x1e81;" horiz-adv-x="352" 
d="M238 1329h32l33 -104h-24zM8 0h-33l154 1171h33l-125 -905l-39 -246l53 250l217 901h27l-102 -905l-31 -213l43 213l194 905h31l-256 -1171h-33l90 834l48 319l-66 -319z" />
    <glyph glyph-name="Wacute" unicode="&#x1e82;" horiz-adv-x="372" 
d="M420 1624h37l-95 -123h-26zM14 0h-37l207 1450h31l-174 -1190l-41 -242l45 222l281 1210h28l-147 -1202l-27 -189l39 205l244 1186h33l-306 -1450h-36l135 1124l41 260l-54 -260z" />
    <glyph glyph-name="wacute" unicode="&#x1e83;" horiz-adv-x="352" 
d="M360 1346h37l-94 -123h-27zM8 0h-33l154 1171h33l-125 -905l-39 -246l53 250l217 901h27l-102 -905l-31 -213l43 213l194 905h31l-256 -1171h-33l90 834l48 319l-66 -319z" />
    <glyph glyph-name="Wdieresis" unicode="&#x1e84;" horiz-adv-x="372" 
d="M311 1507q-19 0 -16 31q3 33 27 33q21 0 18 -33q-2 -14 -9.5 -22.5t-19.5 -8.5zM387 1507q-19 0 -16 31q3 33 26 33q20 0 17 -33q-2 -14 -9.5 -22.5t-17.5 -8.5zM14 0h-37l207 1450h31l-174 -1190l-41 -242l45 222l281 1210h28l-147 -1202l-27 -189l39 205l244 1186h33
l-306 -1450h-36l135 1124l41 260l-54 -260z" />
    <glyph glyph-name="wdieresis" unicode="&#x1e85;" horiz-adv-x="352" 
d="M252 1229q-19 0 -16 31q3 32 26 32q22 0 19 -32q-2 -14 -9.5 -22.5t-19.5 -8.5zM328 1229q-20 0 -17 31q3 32 27 32q19 0 16 -32q-3 -31 -26 -31zM8 0h-33l154 1171h33l-125 -905l-39 -246l53 250l217 901h27l-102 -905l-31 -213l43 213l194 905h31l-256 -1171h-33
l90 834l48 319l-66 -319z" />
    <glyph glyph-name="Ygrave" unicode="&#x1ef2;" horiz-adv-x="241" 
d="M229 1599h33l33 -104h-25zM2 0l82 461l90 989h33l-64 -686l-32 -240l55 240l174 686h33l-256 -983l-82 -467h-33z" />
    <glyph glyph-name="ygrave" unicode="&#x1ef3;" horiz-adv-x="235" 
d="M178 1323h33l33 -104h-25zM-104 -156l6 33h18q21 0 33 9t18 36l21 74l137 1175h33l-105 -856l-45 -288l66 297l205 847h32l-307 -1245q-12 -48 -32 -65t-60 -17h-20z" />
    <glyph glyph-name="figuredash" unicode="&#x2012;" horiz-adv-x="325" 
d="M41 610h254l-6 -32h-252z" />
    <glyph glyph-name="endash" unicode="&#x2013;" horiz-adv-x="284" 
d="M41 610h213l-6 -32h-211z" />
    <glyph glyph-name="emdash" unicode="&#x2014;" horiz-adv-x="352" 
d="M41 610h281l-5 -32h-280z" />
    <glyph glyph-name="uni2015" unicode="&#x2015;" horiz-adv-x="428" 
d="M41 610h356l-6 -32h-354z" />
    <glyph glyph-name="uni2016" unicode="&#x2016;" horiz-adv-x="231" 
d="M244 1694h32l-331 -1907h-33zM344 1694h33l-334 -1907h-33z" />
    <glyph glyph-name="underscoredbl" unicode="&#x2017;" horiz-adv-x="210" 
d="M82 -25h-164l6 33h164zM70 -100h-164l4 30h164z" />
    <glyph glyph-name="quoteleft" unicode="&#x2018;" horiz-adv-x="159" 
d="M199 1239q-31 0 -21 53q16 80 66 107l4 -21q-34 -23 -43 -65l10 4q23 0 14 -37q-3 -41 -30 -41z" />
    <glyph glyph-name="quoteright" unicode="&#x2019;" horiz-adv-x="159" 
d="M174 1251q34 23 43 66q-2 -1 -4.5 -2t-3.5 -1.5t-2 -0.5q-23 0 -14 37q3 41 30 41q18 0 22.5 -11t-1.5 -43q-15 -78 -66 -106z" />
    <glyph glyph-name="quotesinglbase" unicode="&#x201a;" horiz-adv-x="159" 
d="M-51 -70q40 26 43 66q-2 -6 -10 -6q-18 0 -15 39q9 41 33 41q17 0 21 -11t-1 -43q-15 -79 -65 -106z" />
    <glyph glyph-name="uni201B" unicode="&#x201b;" horiz-adv-x="159" 
d="M215 1231q-40 29 -31 90q9 51 20 62q9 8 21 8q22 0 19 -31q-4 -47 -27 -47q-4 0 -10 6q-2 -41 18 -70z" />
    <glyph glyph-name="quotedblleft" unicode="&#x201c;" horiz-adv-x="245" 
d="M199 1237q-31 0 -21 53q15 82 66 107l4 -21q-34 -21 -43 -65q6 6 10 6q23 0 14 -39q-3 -41 -30 -41zM283 1237q-31 0 -21 53q15 82 66 107l4 -21q-34 -21 -43 -65q6 6 10 6q23 0 14 -39q-3 -41 -30 -41z" />
    <glyph glyph-name="quotedblright" unicode="&#x201d;" horiz-adv-x="245" 
d="M176 1251q34 24 43 70q-3 -8 -12 -8q-21 0 -12 37q3 41 30 41q18 0 22.5 -11t-1.5 -43q-15 -78 -66 -106zM260 1251q34 24 43 70q-3 -8 -12 -8q-21 0 -12 37q3 41 30 41q18 0 22.5 -11t-1.5 -43q-15 -78 -66 -106z" />
    <glyph glyph-name="quotedblbase" unicode="&#x201e;" horiz-adv-x="245" 
d="M-59 -70q40 26 43 66q-2 -6 -11 -6q-17 0 -14 39q9 41 33 41q17 0 21 -11t-1 -43q-15 -79 -65 -106zM25 -70q34 21 43 66q-2 -6 -11 -6q-23 0 -14 39q3 41 31 41q17 0 21.5 -11t-1.5 -43q-15 -82 -65 -106z" />
    <glyph glyph-name="uni201F" unicode="&#x201f;" horiz-adv-x="245" 
d="M215 1231q-40 29 -31 90q9 51 20 62q9 8 21 8q22 0 19 -31q-4 -47 -27 -47q-4 0 -10 6q-2 -41 18 -70zM299 1231q-40 29 -31 90q9 51 20 62q9 8 21 8q22 0 19 -31q-4 -47 -27 -47q-4 0 -10 6q-2 -41 18 -70z" />
    <glyph glyph-name="dagger" unicode="&#x2020;" horiz-adv-x="243" 
d="M211 991l-182 -1032h-31l180 1032h-76l7 33h75l80 463h33l-82 -463h74l-6 -33h-72z" />
    <glyph glyph-name="daggerdbl" unicode="&#x2021;" horiz-adv-x="243" 
d="M119 483l-88 -503h-31l88 503h-72l4 33h74l86 481h-76l7 33h75l80 457h31l-80 -457h74l-6 -33h-74l-86 -481h76l-4 -33h-78z" />
    <glyph glyph-name="bullet" unicode="&#x2022;" horiz-adv-x="192" 
d="M92 549q-38 0 -35 41q8 43 49 43q23 0 31 -10t4 -33q-3 -41 -49 -41z" />
    <glyph glyph-name="ellipsis" unicode="&#x2026;" horiz-adv-x="415" 
d="M-14 -8q-26 0 -17 39q3 39 31 39q21 0 18 -39q-9 -39 -32 -39zM102 -8q-13 0 -16.5 8.5t-1.5 30.5q3 39 33 39q19 0 16 -39q-1 -18 -10 -28.5t-21 -10.5zM217 -8q-25 0 -16 39q3 39 30 39q13 0 17 -7.5t2 -31.5q-9 -39 -33 -39z" />
    <glyph glyph-name="perthousand" unicode="&#x2030;" horiz-adv-x="641" 
d="M180 823q-78 0 -63 95l82 456q15 84 86 84q76 0 63 -88l-80 -461q-15 -86 -88 -86zM502 1450h30l-532 -1452h-33zM184 852q28 0 39.5 14t16.5 47l79 455q12 64 -38 64q-45 0 -54 -62l-82 -452q-12 -66 39 -66zM215 -8q-79 0 -63 92l79 453q15 84 86 84q38 0 54 -23.5
t10 -65.5l-80 -454q-15 -86 -86 -86zM406 -8q-80 0 -64 92l82 453q12 84 84 84q38 0 54.5 -23.5t10.5 -65.5l-81 -454q-15 -86 -86 -86zM219 18q25 0 37 15.5t18 48.5l78 448q12 64 -39 64q-44 0 -53 -59l-82 -449q-9 -68 41 -68zM410 18q27 0 37.5 14.5t17.5 49.5l80 448
q9 64 -41 64q-41 0 -53 -59l-80 -449q-13 -68 39 -68z" />
    <glyph glyph-name="uni2032" unicode="&#x2032;" horiz-adv-x="151" 
d="M117 1047l116 403h37l-129 -403h-24z" />
    <glyph glyph-name="uni2033" unicode="&#x2033;" horiz-adv-x="231" 
d="M117 1047l116 403h37l-129 -403h-24zM193 1047l124 403h37l-135 -403h-26z" />
    <glyph glyph-name="uni2034" unicode="&#x2034;" horiz-adv-x="270" 
d="M121 987q0 25 24 166l33 188l19 109h28l-20 -109l-35 -190q-25 -143 -33 -164h-16zM197 987q6 51 26 166q8 44 18.5 109t12.5 79l20 109h29l-20 -109l-35 -190q-33 -163 -33 -164h-18zM274 987q4 29 27 166q7 56 31 188l18 109h29l-19 -109l-34 -190q-30 -151 -35 -164
h-17z" />
    <glyph glyph-name="guilsinglleft" unicode="&#x2039;" horiz-adv-x="196" 
d="M68 256l-33 340l2 4l151 361h35l-157 -367l36 -338h-34z" />
    <glyph glyph-name="guilsinglright" unicode="&#x203a;" horiz-adv-x="196" 
d="M-20 256l157 365l-37 340h35l33 -340l-2 -7l-152 -358h-34z" />
    <glyph glyph-name="exclamdbl" unicode="&#x203c;" horiz-adv-x="301" 
d="M2 137q0 2 31 185q7 44 27 165t30 187q14 75 47 266l90 510h35l-90 -510q-12 -72 -49 -268q-10 -68 -34 -192t-30 -158q-29 -169 -34 -185h-23zM117 137q4 11 30 185q54 314 60 352q14 75 47 266l90 510h35l-90 -510q-12 -72 -49 -268q-10 -68 -34 -192t-30 -158
q-28 -163 -35 -185h-24zM-12 -8q-28 0 -19 39q1 23 9 31t26 8q12 0 16 -8t3 -31q-9 -39 -35 -39zM104 -8q-27 0 -18 39q4 23 11.5 31t21.5 8q13 0 17.5 -8t2.5 -31q-9 -39 -35 -39z" />
    <glyph glyph-name="uni203D" unicode="&#x203d;" horiz-adv-x="303" 
d="M88 129q0 2 -12 2q-15 0 -17 -2q2 5 6.5 29t4.5 28q24 153 57 330q43 266 90 522q12 71 25 145.5t21.5 122t10.5 62.5l13 62q-53 -8 -66 -76l-98 -557h-31l98 561q11 50 36.5 75t74.5 25q48 0 72 -27.5t14 -76.5l-147 -834q-5 -32 -15.5 -60.5t-19.5 -44t-27 -42.5
q-19 -27 -31.5 -47.5t-27 -58.5t-21.5 -83zM305 1368l-49 -272q-8 -46 -24 -137.5t-30 -171t-28 -148.5q-2 -11 -70 -377q20 78 54 129q16 27 21.5 37.5t14 35.5t13.5 56l147 832q11 66 -37 75zM53 -8q-29 0 -20 41q9 37 33 37q21 0 18 -39q-6 -23 -12.5 -31t-18.5 -8z" />
    <glyph glyph-name="fraction" unicode="&#x2044;" horiz-adv-x="354" 
d="M209 815l213 655l33 -12l-236 -647zM-86 0l242 672l12 -6l-219 -678z" />
    <glyph glyph-name="uni2070" unicode="&#x2070;" horiz-adv-x="169" 
d="M117 750q-26 0 -39.5 15.5t-9.5 41.5l104 600q4 24 22 38.5t42 14.5q56 0 47 -57l-105 -600q-9 -53 -61 -53zM119 774q13 0 22 8.5t11 22.5l104 596q8 35 -23 35t-34 -33l-105 -594q-9 -35 25 -35z" />
    <glyph glyph-name="uni2074" unicode="&#x2074;" horiz-adv-x="161" 
d="M182 913l-26 -151h-25l29 151h-80l6 23l166 520h27l-93 -518h27l-6 -25h-25zM111 938h53l86 457l2 14l-10 -45z" />
    <glyph glyph-name="uni2075" unicode="&#x2075;" horiz-adv-x="165" 
d="M115 756q-54 0 -45 57l28 176h27l-31 -174q-4 -17 2.5 -26t20.5 -9t24 9t11 22l57 322q3 32 -23 32q-24 0 -34 -30l-9 -19l-22 2l74 338h90v-2q-3 -22 -27 -22h-43q-1 -8 -3.5 -20t-7 -30.5t-7.5 -33.5q-24 -118 -45 -199q21 41 49 41q44 0 35 -53l-58 -326
q-9 -55 -63 -55z" />
    <glyph glyph-name="uni2076" unicode="&#x2076;" horiz-adv-x="167" 
d="M178 803q-9 -53 -63 -53q-56 0 -47 59l104 598q9 53 64 53t45 -57l-35 -201h-27l35 199q8 35 -23 35q-24 0 -32 -35l-49 -275q12 27 40 27q48 0 39 -53zM117 774q32 0 35 33q0 11 6 29q2 15 12 69.5t14 85.5l19 103q4 18 -1.5 26t-23.5 8q-24 0 -35 -43v2l-49 -276
q-9 -37 23 -37z" />
    <glyph glyph-name="uni2077" unicode="&#x2077;" horiz-adv-x="133" 
d="M61 762q34 171 84 346q61 238 95 324h-72l6 24h96l-2 -18q-18 -42 -98 -328q-57 -226 -80 -348h-29z" />
    <glyph glyph-name="uni2078" unicode="&#x2078;" horiz-adv-x="167" 
d="M117 750q-61 0 -49 57l45 262q10 43 34 51q-17 7 -14 43l41 242q11 55 62 55q30 0 41.5 -13t7.5 -42l-43 -242q-9 -35 -33 -47q25 -9 16 -47l-45 -262q-9 -57 -63 -57zM158 1163q-3 -33 24 -33q24 0 33 33l43 242q3 31 -25 31q-29 0 -32 -31zM119 776q14 0 24 9t11 22
l45 264q3 33 -27 33t-33 -33l-45 -262q-3 -33 25 -33z" />
    <glyph glyph-name="uni2079" unicode="&#x2079;" horiz-adv-x="167" 
d="M113 750q-55 0 -45 57l34 199h25l-33 -197q-4 -17 2.5 -26t20.5 -9q24 0 33 35l49 281q-13 -29 -41 -29q-23 0 -33.5 14.5t-5.5 38.5l51 293q9 53 63 53q57 0 48 -59l-105 -598q-9 -53 -63 -53zM170 1085q31 0 35 43v-4l49 275q9 37 -25 37q-29 0 -32 -33l-52 -283
q-3 -35 25 -35z" />
    <glyph glyph-name="uni207A" unicode="&#x207a;" horiz-adv-x="174" 
d="M190 1106l-6 -39h-26l6 39h-39l4 24h39l6 39h27l-6 -39h36l-2 -24h-39z" />
    <glyph glyph-name="uni207B" unicode="&#x207b;" horiz-adv-x="174" 
d="M127 1133h102l-4 -25h-100z" />
    <glyph glyph-name="uni207C" unicode="&#x207c;" horiz-adv-x="174" 
d="M133 1159h103l-5 -26h-102zM123 1096h102l-6 -25h-100z" />
    <glyph glyph-name="uni207D" unicode="&#x207d;" horiz-adv-x="104" 
d="M96 618q-32 0 -43 19t-4 63l146 824q8 48 23.5 66t51.5 18l-4 -27q-20 0 -30.5 -12.5t-14.5 -44.5l-145 -826q-5 -31 0.5 -42t25.5 -11z" />
    <glyph glyph-name="uni207E" unicode="&#x207e;" horiz-adv-x="104" 
d="M25 643q20 0 29.5 13t15.5 46l143 824q6 32 0.5 43.5t-25.5 11.5l5 27q35 0 46 -19t1 -63l-144 -824q-11 -49 -25.5 -66.5t-50.5 -17.5z" />
    <glyph glyph-name="uni2080" unicode="&#x2080;" horiz-adv-x="169" 
d="M-16 -8q-27 0 -40.5 15.5t-9.5 41.5l105 600q4 24 21.5 38.5t41.5 14.5q57 0 48 -57l-105 -600q-9 -53 -61 -53zM-14 16q13 0 21.5 8.5t10.5 22.5l105 596q8 35 -23 35t-34 -33l-105 -594q-9 -35 25 -35z" />
    <glyph glyph-name="uni2081" unicode="&#x2081;" horiz-adv-x="135" 
d="M-84 0l4 25h39l109 624q-9 -28 -39 -28l4 28q22 1 30.5 10t14.5 35h24l-118 -669h34l-6 -25h-96z" />
    <glyph glyph-name="uni2082" unicode="&#x2082;" horiz-adv-x="165" 
d="M-57 82q5 40 75 197q58 124 68 167l35 197q3 35 -25 35q-25 0 -28 -31l-39 -217h-27l39 219q9 53 57 53q56 0 47 -57l-34 -201q-5 -34 -68 -176q-67 -142 -76 -190l-10 -53h84l-4 -25h-111z" />
    <glyph glyph-name="uni2083" unicode="&#x2083;" horiz-adv-x="167" 
d="M-18 -8q-59 0 -50 59l37 209h27l-37 -209q-3 -35 25 -35q27 0 30 33l47 260q4 23 -1.5 30t-26.5 7h-13l5 25h10q20 0 28.5 8.5t14.5 34.5l41 233q8 31 -21 31q-24 0 -32 -31l-33 -188h-27l33 188q8 55 63 55q24 0 35.5 -14.5t7.5 -40.5l-41 -233q-9 -45 -36 -54
q29 -10 20 -51l-47 -262q-9 -55 -59 -55z" />
    <glyph glyph-name="uni2084" unicode="&#x2084;" horiz-adv-x="161" 
d="M47 152l-27 -152h-24l29 152h-80l6 22l166 520h26l-92 -518h27l-6 -24h-25zM-25 176h54l86 457l2 14l-11 -45z" />
    <glyph glyph-name="uni2085" unicode="&#x2085;" horiz-adv-x="165" 
d="M-20 -6q-55 0 -46 57l29 176h27l-31 -174q-4 -17 2.5 -26t20.5 -9q13 0 22.5 8.5t11.5 22.5l58 322q3 32 -23 32q-25 0 -35 -30l-8 -19l-22 2l73 338h91v-2q-3 -22 -27 -22h-43q-1 -10 -8 -38t-11 -46q-24 -117 -45 -199q21 41 50 41q43 0 34 -53l-57 -326
q-9 -55 -63 -55z" />
    <glyph glyph-name="uni2086" unicode="&#x2086;" horiz-adv-x="167" 
d="M45 45q-9 -53 -63 -53q-57 0 -48 59l105 598q9 53 63 53q55 0 45 -57l-34 -201h-27l35 199q8 35 -23 35q-24 0 -32 -35l-50 -274q12 26 41 26q48 0 39 -53zM-16 16q31 0 34 33q1 11 7 29q2 15 12 69.5t14 85.5l19 103q8 35 -25 35q-24 0 -35 -43v2l-49 -277
q-9 -37 23 -37z" />
    <glyph glyph-name="uni2087" unicode="&#x2087;" horiz-adv-x="133" 
d="M-74 0q34 171 84 346q62 245 94 324h-71l6 24h96l-2 -18q-18 -42 -98 -328q-57 -226 -80 -348h-29z" />
    <glyph glyph-name="uni2088" unicode="&#x2088;" horiz-adv-x="167" 
d="M-16 -8q-62 0 -50 57l46 262q10 43 34 51q-17 7 -14 44l41 241q11 55 61 55q58 0 50 -55l-43 -241q-9 -36 -33 -48q25 -9 16 -47l-45 -262q-9 -57 -63 -57zM25 406q-3 -33 24 -33q24 0 33 33l43 241q3 31 -25 31q-29 0 -32 -31zM-14 18q13 0 22.5 8.5t11.5 22.5l46 264
q3 33 -27 33t-33 -33l-45 -262q-3 -33 25 -33z" />
    <glyph glyph-name="uni2089" unicode="&#x2089;" horiz-adv-x="167" 
d="M-20 -8q-56 0 -46 57l35 199h25l-33 -197q-4 -17 2.5 -26t20.5 -9q23 0 32 35l50 281q-13 -29 -41 -29q-23 0 -33.5 14.5t-5.5 38.5l51 293q9 53 63 53q56 0 47 -59l-104 -598q-9 -53 -63 -53zM37 328q31 0 35 43v-4l49 274q9 37 -25 37q-30 0 -33 -33l-51 -283
q-3 -34 25 -34z" />
    <glyph glyph-name="uni208A" unicode="&#x208a;" horiz-adv-x="174" 
d="M59 348l-6 -39h-26l6 39h-39l4 25h39l6 39h27l-7 -39h37l-2 -25h-39z" />
    <glyph glyph-name="uni208B" unicode="&#x208b;" horiz-adv-x="174" 
d="M-2 373h102l-4 -25h-100z" />
    <glyph glyph-name="uni208C" unicode="&#x208c;" horiz-adv-x="174" 
d="M4 408h102l-4 -27h-102zM-6 344h102l-6 -25h-100z" />
    <glyph glyph-name="uni208D" unicode="&#x208d;" horiz-adv-x="104" 
d="M-45 -182q-32 0 -43 19t-4 63l145 823q8 48 24 66t52 18l-4 -27q-20 0 -30.5 -12.5t-14.5 -44.5l-146 -825q-5 -31 1 -42.5t26 -11.5z" />
    <glyph glyph-name="uni208E" unicode="&#x208e;" horiz-adv-x="104" 
d="M-115 -158q20 0 29.5 13.5t15.5 46.5l144 823q6 32 0.5 43.5t-25.5 11.5l4 27q35 0 46 -19t1 -63l-143 -823q-11 -49 -25.5 -66.5t-50.5 -17.5z" />
    <glyph glyph-name="colonmonetary" unicode="&#x20a1;" horiz-adv-x="311" 
d="M41 -8q-3 0 -10.5 2.5l-10.5 3.5l-49 -238h-26l51 248q-40 34 -31 103l217 1232q21 115 115 115l47 228h25l-50 -230q11 0 27 -4l47 234h27l-53 -246q40 -27 28 -99l-61 -352h-33l64 350q8 32 -7 58l-284 -1374q57 8 73 81l89 504h32l-90 -510q-21 -106 -112 -106
l-46 -232h-24zM-2 111q-9 -39 8 -62l285 1381q-30 -2 -51 -24.5t-27 -62.5zM27 31q18 -6 20 -6l291 1390v4q-11 8 -25 8z" />
    <glyph glyph-name="uni20A2" unicode="&#x20a2;" horiz-adv-x="299" 
d="M164 100q-21 -108 -113 -108q-53 0 -75 31t-11 86l217 1239q21 110 115 110q53 0 75.5 -29t12.5 -83l-72 -410h-32l71 407q8 39 -7.5 63t-51.5 24q-66 0 -78 -82l-217 -1237q-10 -73 35 -86l141 798h23l-7 -65q24 65 91 65h12l-6 -35h-15q-46 0 -64 -23.5t-30 -96.5
l-115 -645q57 8 72 81l90 517h33z" />
    <glyph glyph-name="franc" unicode="&#x20a3;" horiz-adv-x="210" 
d="M68 483l-86 -483h-33l254 1450h139l-6 -31h-105l-108 -620h96l-6 -31h-96l-45 -254h98l-6 -31h-96z" />
    <glyph glyph-name="lira" unicode="&#x20a4;" horiz-adv-x="348" 
d="M131 -12q-42 0 -76 43q-37 -43 -78 -43q-64 0 -55 59q4 28 25 45t47 17t57 -27q7 15 10 43l15 100q5 44 20 170t23 203h-74l4 29h74q6 35 10 96h-67l6 31h65q23 198 29 250q14 143 43 350q24 133 108 133q54 0 71 -44.5t-1 -142.5l-4 -24h-33l4 24q24 154 -39 154
q-54 0 -69 -96q-8 -34 -21 -133q-6 -45 -25 -208t-32 -263h90l-6 -31h-86q-3 -45 -12 -96h82l-7 -29h-79l-25 -205q-22 -200 -35 -268q-13 -54 -18 -64q32 -32 49 -36q6 -2 12 -2q24 0 37 19.5t23 76.5l22 135l21 119h32q-10 -56 -20 -119l-23 -139q-14 -72 -33.5 -99.5
t-60.5 -27.5zM-16 16q32 0 53 35q-25 29 -47 29q-34 0 -37 -33q-5 -14 3.5 -22.5t27.5 -8.5z" />
    <glyph glyph-name="uni20A6" unicode="&#x20a6;" horiz-adv-x="360" 
d="M186 612h-71l-109 -612h-33l109 612h-59l6 29h57l31 172h-62l6 31h62l106 606h29l-35 -606h76l107 606h32l-106 -606h57l-6 -31h-57l-31 -172h59l-6 -29h-57l-109 -612h-32zM154 844h45l10 160l27 376l-72 -483zM197 813h-47l-31 -172h69zM295 813h-72l-10 -172h51z
M221 395l39 217h-49l-14 -264l-23 -295z" />
    <glyph glyph-name="peseta" unicode="&#x20a7;" horiz-adv-x="636" 
d="M516 133q-12 -69 -42.5 -104t-98.5 -35h-49q-75 0 -96 34.5t-7 123.5l176 993h-67l-103 -567q-15 -120 -133 -117h-33l-79 -461h-35l254 1450h73q107 0 91 -107l-31 -172q10 0 30.5 2.5t22.5 4.5q24 9 27 30q13 33 16 80h25l-21 -110h68l-4 -33h-68l-176 -991
q-12 -72 5.5 -99.5t72.5 -27.5h45q49 0 72.5 25.5t31.5 82.5l64 352q6 34 -6 53t-45 40q-22 17 -31.5 25t-18.5 31t-4 54l70 395q10 51 33.5 73t62.5 22q90 0 70 -101l-60 -334h-32l59 338q12 66 -43 66q-48 0 -57 -64l-70 -393q-4 -24 4.5 -42t16.5 -25t32 -23
q22 -16 32 -25.5t18 -33t2 -54.5zM229 1419l-159 -925h28q86 0 101 88l133 757q15 80 -62 80h-41z" />
    <glyph glyph-name="uni20A8" unicode="&#x20a8;" horiz-adv-x="528" 
d="M219 -6q-70 0 -92 33.5t-8 117.5l84 467q6 44 -3 61t-46 17h-52l-120 -690h-33l254 1450h71q60 0 81.5 -25.5t11.5 -83.5l-99 -555q-11 -65 -65 -81q48 -15 33 -93l-84 -462q-12 -73 4 -98t71 -25h41q50 0 75 25t32 83l65 373q4 33 -8.5 52t-44.5 40q-20 15 -30 25
t-18 31t-3 49l65 382q20 93 97 93q86 0 71 -99l-59 -329h-33l60 333q12 64 -43 64q-46 0 -58 -64l-69 -378q-4 -8 -1.5 -17t2 -14t4.5 -12t7 -10t8.5 -8.5t10 -8t11 -8t11.5 -8.5q20 -15 31 -26t19 -34.5t3 -52.5l-65 -371q-13 -76 -42.5 -109.5t-97.5 -33.5h-49zM229 1419
l-123 -698h46q37 0 58 16t28 54l96 550q15 78 -68 78h-37z" />
    <glyph glyph-name="uni20A9" unicode="&#x20a9;" horiz-adv-x="378" 
d="M227 602h-69l-142 -602h-39l86 602h-45l5 27h45l28 202h-39l4 27h39l86 592h33l-90 -592h61l138 592h30l-73 -592h59l121 592h33l-125 -592h37l-7 -27h-36l-41 -202h41l-2 -27h-46l-126 -602h-37zM217 858h41l25 207l55 367l-72 -365zM184 831h-59l-31 -202h43zM254 831
h-43l-47 -202h67zM338 831h-57l-25 -202h41zM47 240l84 362h-41l-51 -342l-37 -240zM221 264l70 338h-37l-45 -354l-33 -228z" />
    <glyph glyph-name="uni20AA" unicode="&#x20aa;" horiz-adv-x="446" 
d="M229 1419l-247 -1419h-33l254 1450h108q136 0 113 -137l-207 -1168q-4 -23 -13 -31t-28 -8l213 1207q10 59 -9.5 82.5t-74.5 23.5h-76zM51 0l238 1346q17 0 22.5 -8t3.5 -27l-225 -1278h74q104 0 123 102l231 1315h33l-234 -1317q-21 -133 -155 -133h-111z" />
    <glyph glyph-name="Euro" unicode="&#x20ac;" horiz-adv-x="301" 
d="M164 90q-21 -100 -103 -100q-98 0 -77 110l104 588h-53l6 29h51l14 78h-53l6 28h52l94 533q15 102 104 102q47 0 66 -25t12 -79l-72 -412h-32l71 408q13 77 -53 77q-53 0 -65 -73l-93 -531h117l-14 -28h-109l-12 -78h80l-12 -29h-74l-103 -588q-17 -80 50 -80
q29 0 44 18.5t21 55.5l86 479h33z" />
    <glyph glyph-name="uni20AE" unicode="&#x20ae;" horiz-adv-x="206" 
d="M121 592l-105 -592h-32l102 575l-59 -26l4 31l59 26l19 107l-62 -27l4 29l64 28l118 676h-63l6 31h158l-6 -31h-62l-116 -661l63 28l-4 -28l-64 -29l-18 -104l59 26l-2 -30z" />
    <glyph glyph-name="uni20B1" unicode="&#x20b1;" horiz-adv-x="301" 
d="M74 461l-80 -461h-33l154 874h-49l6 31h47l20 115h-47l6 31h47l70 399h72q53 0 76 -31t12 -82l-49 -286h41l-5 -31h-43l-20 -115h41l-4 -31h-41l-53 -301q-11 -59 -42.5 -85.5t-95.5 -26.5h-30zM242 1419l-64 -368h115l49 286q15 82 -66 82h-34zM287 1020h-115l-20 -115
h116zM262 874h-115l-67 -380h29q47 0 70.5 20.5t31.5 65.5z" />
    <glyph glyph-name="uni2105" unicode="&#x2105;" horiz-adv-x="446" 
d="M178 829q-80 0 -63 91l82 454q15 84 86 84q76 0 61 -88l-25 -135h-28l24 137q12 60 -36 60q-45 0 -54 -58l-82 -452q-14 -66 39 -66q24 0 35.5 15.5t18.5 48.5l30 163h27l-29 -168q-16 -86 -86 -86zM500 1450h30l-532 -1452h-31zM211 -8q-38 0 -55 24t-9 66l84 455
q12 84 82 84q38 0 55 -23.5t11 -65.5l-80 -456q-15 -84 -88 -84zM215 18q44 0 55 62l80 450q12 62 -41 62q-42 0 -51 -57l-80 -451q-10 -66 37 -66z" />
    <glyph glyph-name="uni2116" unicode="&#x2116;" horiz-adv-x="497" 
d="M406 606q-65 0 -56 70l127 713q9 69 80 69q35 0 48 -16t7 -51l-125 -713q-12 -72 -81 -72zM-18 0h-31l254 1450h31l-62 -1102l-24 -295l47 342l186 1055h31l-254 -1450h-33l55 1004l31 374l-74 -481zM412 637q36 0 45 39l125 710q9 44 -29 44t-47 -44l-125 -708
q-9 -41 31 -41zM324 508h131l-6 -31h-132z" />
    <glyph glyph-name="uni2117" unicode="&#x2117;" horiz-adv-x="454" 
d="M131 -8q-86 0 -130.5 46.5t-27.5 133.5l193 1106q17 88 71.5 134t135.5 46t127.5 -48t29.5 -130l-194 -1110q-34 -178 -205 -178zM135 20q143 0 170 152l193 1106q12 71 -24 111.5t-103 40.5q-147 0 -174 -156l-193 -1102q-12 -71 24 -111.5t107 -40.5zM164 483l-68 -379
h-30l217 1227h59q54 0 72 -22.5t8 -77.5l-113 -645q-15 -103 -110 -103h-35zM309 1303l-141 -789h33q66 0 78 74l110 637q8 43 -2.5 60.5t-50.5 17.5h-27z" />
    <glyph glyph-name="uni2120" unicode="&#x2120;" horiz-adv-x="354" 
d="M135 821q-48 0 -39 45l33 203h25l-35 -201q-3 -26 18 -26q26 0 29 26l41 238q4 16 -0.5 22.5t-24.5 18.5q-12 9 -17 14t-8.5 14.5t-0.5 22.5l37 217q8 43 53 43q24 0 32.5 -10t4.5 -33l-33 -186h-23l31 182q3 25 -16 25q-24 0 -27 -23l-35 -215q-1 -12 3.5 -18.5
t19.5 -18.5q36 -15 28 -55l-43 -240q-3 -45 -53 -45zM236 825h-23l111 625h24l-31 -414l-4 -35l9 35l108 414h25l-109 -625h-22l49 277l53 280l-37 -153l-96 -350h-6l24 350l17 153l-45 -280z" />
    <glyph glyph-name="trademark" unicode="&#x2122;" horiz-adv-x="329" 
d="M236 1427l-107 -600h-23l105 600h-39l4 23h100l-2 -23h-38zM213 827h-23l109 623h25l-33 -412l-6 -53l12 53l109 412h24l-108 -623h-23l49 275l55 278l-38 -149l-97 -350h-6l27 348l14 149l-43 -276z" />
    <glyph glyph-name="uni2126" unicode="&#x2126;" horiz-adv-x="440" 
d="M66 0h-138l6 33h119q-4 62 -4 141q11 228 33 463q18 180 45 383q35 188 70 276q36 90 80 126t102 36q87 0 117 -78q28 -92 -19 -360q-2 -12 -35 -156q-62 -253 -127 -471q-85 -294 -120 -360h122l-6 -33h-139l-14 31q26 37 96 258q69 229 117 416q60 238 73 315
q45 241 21 338q-20 69 -92 69q-37 0 -76 -28q-83 -69 -137 -381q-18 -109 -39 -313q-24 -232 -35 -414q-10 -211 2 -260z" />
    <glyph glyph-name="uni2153" unicode="&#x2153;" horiz-adv-x="354" 
d="M231 815l213 655l33 -12l-235 -647zM94 756l4 24h39l109 625q-10 -29 -39 -29l4 29q22 1 30.5 10t14.5 35h25l-119 -670h35l-7 -24h-96zM154 -10q-59 0 -50 59l37 209h27l-37 -209q-3 -35 25 -35q27 0 30 33l47 260q4 23 -1.5 30t-26.5 7h-12l4 25h10q20 0 28.5 8.5
t14.5 34.5l41 233q8 31 -21 31q-24 0 -32 -31l-33 -188h-27l33 188q8 55 63 55q24 0 35.5 -14.5t7.5 -40.5l-41 -233q-9 -45 -36 -54q29 -10 20 -51l-47 -262q-9 -55 -59 -55zM-63 0l241 672l12 -6l-219 -678z" />
    <glyph glyph-name="uni2154" unicode="&#x2154;" horiz-adv-x="354" 
d="M231 815l213 655l33 -12l-235 -647zM106 838q2 13 6.5 29.5t14 40t15.5 37.5t20.5 46.5t19.5 42.5q58 123 68 168l35 197q3 35 -25 35q-26 0 -29 -31l-38 -217h-27l39 219q9 53 57 53q56 0 47 -57l-35 -201q-5 -37 -67 -176q-67 -142 -76 -190l-10 -54h84l-4 -24h-111z
M154 -10q-59 0 -50 59l37 209h27l-37 -209q-3 -35 25 -35q27 0 30 33l47 260q4 23 -1.5 30t-26.5 7h-12l4 25h10q20 0 28.5 8.5t14.5 34.5l41 233q8 31 -21 31q-24 0 -32 -31l-33 -188h-27l33 188q8 55 63 55q24 0 35.5 -14.5t7.5 -40.5l-41 -233q-9 -45 -36 -54
q29 -10 20 -51l-47 -262q-9 -55 -59 -55zM-63 0l241 672l12 -6l-219 -678z" />
    <glyph glyph-name="uni2155" unicode="&#x2155;" horiz-adv-x="354" 
d="M231 815l213 655l33 -12l-235 -647zM102 756l4 24h39l109 625q-10 -29 -39 -29l4 29q22 1 30.5 10t14.5 35h25l-119 -670h35l-6 -24h-97zM154 -8q-54 0 -45 57l28 176h27l-31 -174q-4 -17 2.5 -26t20.5 -9q13 0 22.5 8.5t11.5 22.5l58 322q3 32 -23 32q-25 0 -35 -30
l-8 -19l-22 2l73 338h91v-2q-3 -22 -27 -22h-43q-1 -8 -3.5 -20t-7 -30.5t-7.5 -33.5q-20 -98 -46 -199q21 41 50 41q43 0 34 -53l-57 -326q-9 -55 -63 -55zM-63 0l241 672l12 -6l-219 -678z" />
    <glyph glyph-name="uni2156" unicode="&#x2156;" horiz-adv-x="354" 
d="M231 815l213 655l33 -12l-235 -647zM106 838q2 13 6.5 29.5t14 40t15.5 37.5t20.5 46.5t19.5 42.5q58 123 68 168l35 197q3 35 -25 35q-26 0 -29 -31l-38 -217h-27l39 219q9 53 57 53q56 0 47 -57l-35 -201q-5 -37 -67 -176q-67 -142 -76 -190l-10 -54h84l-4 -24h-111z
M154 -8q-54 0 -45 57l28 176h27l-31 -174q-4 -17 2.5 -26t20.5 -9q13 0 22.5 8.5t11.5 22.5l58 322q3 32 -23 32q-25 0 -35 -30l-8 -19l-22 2l73 338h91v-2q-3 -22 -27 -22h-43q-1 -8 -3.5 -20t-7 -30.5t-7.5 -33.5q-20 -98 -46 -199q21 41 50 41q43 0 34 -53l-57 -326
q-9 -55 -63 -55zM-63 0l241 672l12 -6l-219 -678z" />
    <glyph glyph-name="uni2157" unicode="&#x2157;" horiz-adv-x="354" 
d="M231 815l213 655l33 -12l-235 -647zM137 748q-58 0 -49 59l37 209h27l-37 -209q-3 -35 24 -35q28 0 31 33l47 260q4 23 -2 30t-27 7h-12l4 24h10q20 0 28.5 8.5t14.5 34.5l41 234q8 31 -20 31q-25 0 -33 -31l-33 -189h-26l33 189q8 55 63 55q24 0 35.5 -14.5t7.5 -40.5
l-41 -234q-8 -43 -37 -53q30 -10 21 -51l-47 -262q-9 -55 -60 -55zM154 -8q-54 0 -45 57l28 176h27l-31 -174q-4 -17 2.5 -26t20.5 -9q13 0 22.5 8.5t11.5 22.5l58 322q3 32 -23 32q-25 0 -35 -30l-8 -19l-22 2l73 338h91v-2q-3 -22 -27 -22h-43q-1 -8 -3.5 -20t-7 -30.5
t-7.5 -33.5q-20 -98 -46 -199q21 41 50 41q43 0 34 -53l-57 -326q-9 -55 -63 -55zM-63 0l241 672l12 -6l-219 -678z" />
    <glyph glyph-name="uni2158" unicode="&#x2158;" horiz-adv-x="354" 
d="M231 815l213 655l33 -12l-235 -647zM193 907l-27 -151h-25l29 151h-80l6 23l166 520h27l-92 -518h26l-6 -25h-24zM121 932h53l86 457l2 14l-10 -45zM154 -8q-54 0 -45 57l28 176h27l-31 -174q-4 -17 2.5 -26t20.5 -9q13 0 22.5 8.5t11.5 22.5l58 322q3 32 -23 32
q-25 0 -35 -30l-8 -19l-22 2l73 338h91v-2q-3 -22 -27 -22h-43q-1 -8 -3.5 -20t-7 -30.5t-7.5 -33.5q-20 -98 -46 -199q21 41 50 41q43 0 34 -53l-57 -326q-9 -55 -63 -55zM-63 0l241 672l12 -6l-219 -678z" />
    <glyph glyph-name="uni2159" unicode="&#x2159;" horiz-adv-x="354" 
d="M231 815l213 655l33 -12l-235 -647zM94 756l4 24h39l109 625q-10 -29 -39 -29l4 29q22 1 30.5 10t14.5 35h25l-119 -670h35l-7 -24h-96zM215 45q-9 -53 -63 -53q-57 0 -48 59l105 598q9 53 63 53q55 0 45 -57l-34 -201h-27l35 199q8 35 -23 35q-24 0 -32 -35l-50 -274
q12 26 41 26q48 0 39 -53zM-63 0l241 672l12 -6l-219 -678zM154 16q31 0 34 33q1 11 7 29q2 15 12 69.5t14 85.5l19 103q8 35 -25 35q-24 0 -35 -43v2l-49 -277q-9 -37 23 -37z" />
    <glyph glyph-name="uni215A" unicode="&#x215a;" horiz-adv-x="354" 
d="M231 815l213 655l33 -12l-235 -647zM137 750q-54 0 -45 57l29 176h26l-30 -174q-9 -35 22 -35q14 0 24 9t11 22l57 321q3 33 -22 33q-24 0 -35 -31l-8 -18l-23 2l74 338h90v-2q-3 -23 -26 -23h-43q-1 -10 -8 -38t-11 -46q-23 -113 -45 -198q21 41 49 41q44 0 35 -54
l-57 -325q-9 -55 -64 -55zM215 45q-9 -53 -63 -53q-57 0 -48 59l105 598q9 53 63 53q55 0 45 -57l-34 -201h-27l35 199q8 35 -23 35q-24 0 -32 -35l-50 -274q12 26 41 26q48 0 39 -53zM-63 0l241 672l12 -6l-219 -678zM154 16q31 0 34 33q1 11 7 29q2 15 12 69.5t14 85.5
l19 103q8 35 -25 35q-24 0 -35 -43v2l-49 -277q-9 -37 23 -37z" />
    <glyph glyph-name="uni215B" unicode="&#x215b;" horiz-adv-x="354" 
d="M231 815l213 655l33 -12l-235 -647zM94 756l4 24h39l109 625q-10 -29 -39 -29l4 29q22 1 30.5 10t14.5 35h25l-119 -670h35l-7 -24h-96zM156 -10q-62 0 -50 57l46 262q10 43 34 51q-17 7 -14 43l41 242q11 55 61 55q58 0 50 -55l-43 -242q-9 -35 -33 -47q25 -9 16 -47
l-45 -262q-9 -57 -63 -57zM197 403q-3 -32 24 -32q25 0 33 32l43 242q3 31 -25 31q-29 0 -32 -31zM-63 0l241 672l12 -6l-219 -678zM158 16q14 0 24 9t11 22l45 264q3 33 -27 33t-33 -33l-45 -262q-3 -33 25 -33z" />
    <glyph glyph-name="uni215C" unicode="&#x215c;" horiz-adv-x="354" 
d="M231 815l213 655l33 -12l-235 -647zM137 748q-58 0 -49 59l37 209h27l-37 -209q-3 -35 24 -35q28 0 31 33l47 260q4 23 -2 30t-27 7h-12l4 24h10q20 0 28.5 8.5t14.5 34.5l41 234q8 31 -20 31q-25 0 -33 -31l-33 -189h-26l33 189q8 55 63 55q24 0 35.5 -14.5t7.5 -40.5
l-41 -234q-8 -43 -37 -53q30 -10 21 -51l-47 -262q-9 -55 -60 -55zM156 -10q-62 0 -50 57l46 262q10 43 34 51q-17 7 -14 43l41 242q11 55 61 55q58 0 50 -55l-43 -242q-9 -35 -33 -47q25 -9 16 -47l-45 -262q-9 -57 -63 -57zM197 403q-3 -32 24 -32q25 0 33 32l43 242
q3 31 -25 31q-29 0 -32 -31zM-63 0l241 672l12 -6l-219 -678zM158 16q14 0 24 9t11 22l45 264q3 33 -27 33t-33 -33l-45 -262q-3 -33 25 -33z" />
    <glyph glyph-name="uni215D" unicode="&#x215d;" horiz-adv-x="354" 
d="M231 815l213 655l33 -12l-235 -647zM137 750q-54 0 -45 57l29 176h26l-30 -174q-9 -35 22 -35q14 0 24 9t11 22l57 321q3 33 -22 33q-24 0 -35 -31l-8 -18l-23 2l74 338h90v-2q-3 -23 -26 -23h-43q-1 -10 -8 -38t-11 -46q-23 -113 -45 -198q21 41 49 41q44 0 35 -54
l-57 -325q-9 -55 -64 -55zM156 -10q-62 0 -50 57l46 262q10 43 34 51q-17 7 -14 43l41 242q11 55 61 55q58 0 50 -55l-43 -242q-9 -35 -33 -47q25 -9 16 -47l-45 -262q-9 -57 -63 -57zM197 403q-3 -32 24 -32q25 0 33 32l43 242q3 31 -25 31q-29 0 -32 -31zM-63 0l241 672
l12 -6l-219 -678zM158 16q14 0 24 9t11 22l45 264q3 33 -27 33t-33 -33l-45 -262q-3 -33 25 -33z" />
    <glyph glyph-name="uni215E" unicode="&#x215e;" horiz-adv-x="354" 
d="M231 815l213 655l33 -12l-235 -647zM115 756q34 171 84 346q62 242 94 323h-72l6 25h97l-2 -18q-21 -49 -99 -328q-57 -226 -80 -348h-28zM156 -10q-62 0 -50 57l46 262q10 43 34 51q-17 7 -14 43l41 242q11 55 61 55q58 0 50 -55l-43 -242q-9 -35 -33 -47q25 -9 16 -47
l-45 -262q-9 -57 -63 -57zM197 403q-3 -32 24 -32q25 0 33 32l43 242q3 31 -25 31q-29 0 -32 -31zM-63 0l241 672l12 -6l-219 -678zM158 16q14 0 24 9t11 22l45 264q3 33 -27 33t-33 -33l-45 -262q-3 -33 25 -33z" />
    <glyph glyph-name="uni215F" unicode="&#x215f;" horiz-adv-x="354" 
d="M231 815l213 655l33 -12l-235 -647zM94 756l4 24h39l109 625q-10 -29 -39 -29l4 29q22 1 30.5 10t14.5 35h25l-119 -670h35l-7 -24h-96zM-63 0l241 672l12 -6l-219 -678z" />
    <glyph glyph-name="arrowleft" unicode="&#x2190;" horiz-adv-x="854" 
d="M186 694q45 -29 87 -76t67 -104h-59q-24 57 -79 114.5t-102 78.5v26q49 26 103.5 81.5t77.5 111.5h55q-23 -57 -65.5 -106t-86.5 -77h621v-49h-619z" />
    <glyph glyph-name="arrowup" unicode="&#x2191;" horiz-adv-x="854" 
d="M641 659q-58 25 -105.5 67t-76.5 87v-618h-49v620q-28 -43 -77.5 -85.5t-107.5 -67.5v55q58 25 116 80.5t79 101.5h26q26 -49 82 -104t113 -78v-58z" />
    <glyph glyph-name="arrowright" unicode="&#x2192;" horiz-adv-x="854" 
d="M573 512q58 119 154 180h-618v49h622q-108 77 -153 185h55q23 -57 77.5 -113.5t102.5 -81.5v-26q-47 -21 -101.5 -78t-78.5 -115h-60z" />
    <glyph glyph-name="arrowdown" unicode="&#x2193;" horiz-adv-x="854" 
d="M420 193q-21 46 -78 101.5t-115 80.5v57q57 -25 106 -67t77 -86v618h49v-618q72 102 182 151v-55q-57 -25 -113.5 -79.5t-81.5 -102.5h-26z" />
    <glyph glyph-name="uni2196" unicode="&#x2196;" horiz-adv-x="854" 
d="M672 573l-439 437q25 -119 -22 -234l-39 39q24 58 26 138.5t-16 125.5l17 21q47 -18 127.5 -17t138.5 25l41 -41q-113 -48 -240 -20l439 -439z" />
    <glyph glyph-name="uni2197" unicode="&#x2197;" horiz-adv-x="854" 
d="M674 795q-23 56 -27 125t8 112l-438 -438l-35 33l439 440q-134 -20 -238 20l41 39q56 -23 138.5 -23t125.5 15l19 -18q-18 -45 -17 -126.5t25 -139.5z" />
    <glyph glyph-name="uni2198" unicode="&#x2198;" horiz-adv-x="854" 
d="M688 344q-42 18 -124 17t-140 -25l-41 41q111 45 238 18l-439 439l35 34l440 -440q-25 120 21 240l39 -39q-24 -58 -25 -140t17 -127z" />
    <glyph glyph-name="uni2199" unicode="&#x2199;" horiz-adv-x="854" 
d="M465 326q-59 24 -139 25t-127 -17l-19 20q18 45 17 125.5t-25 138.5l41 41q47 -116 20 -237l439 438l35 -35l-441 -440q47 12 114 7t124 -27z" />
    <glyph glyph-name="partialdiff" unicode="&#x2202;" horiz-adv-x="272" 
d="M39 -8q-49 0 -69 29t-9 79l172 977q15 103 90 103q59 0 68 -64q7 61 4 156q-11 202 -96 260h45q36 -24 59 -109q41 -158 10 -352l-174 -979q-15 -100 -100 -100zM43 25q52 0 66 73l172 977q9 74 -54 74q-52 0 -61 -70l-172 -981q-12 -73 49 -73z" />
    <glyph glyph-name="uni2206" unicode="&#x2206;" horiz-adv-x="315" 
d="M313 1479l-120 -1479h-279zM264 1194l-305 -1161h203z" />
    <glyph glyph-name="product" unicode="&#x220f;" horiz-adv-x="389" 
d="M410 1419h-131l-250 -1419h-33l250 1419h-74l6 31h342l-6 -31h-72l-252 -1419h-32z" />
    <glyph glyph-name="summation" unicode="&#x2211;" horiz-adv-x="219" 
d="M90 0h-168l4 31l221 721l25 663l8 35h162l-6 -31h-131l-23 -671l-221 -715h135z" />
    <glyph glyph-name="minus" unicode="&#x2212;" horiz-adv-x="321" 
d="M86 696l4 33h193l-4 -33h-193z" />
    <glyph glyph-name="radical" unicode="&#x221a;" horiz-adv-x="425" 
d="M70 0l59 844h-53l4 35h82l-56 -758l416 1329h31l-455 -1450h-28z" />
    <glyph glyph-name="infinity" unicode="&#x221e;" horiz-adv-x="571" 
d="M145 610q-45 0 -68 29t-16 76q11 43 43 68.5t76 25.5q14 0 28 -4t23.5 -8.5t22.5 -15t18 -15t18.5 -18.5t16.5 -17q96 78 158 78q46 0 69 -30t15 -74q-7 -44 -39.5 -69.5t-77.5 -25.5q-11 0 -21.5 2.5t-18.5 4.5t-18.5 9t-15 9.5t-16 12.5t-13.5 11.5t-14 14.5l-12 12
q-30 -23 -48.5 -35.5t-50.5 -26.5t-59 -14zM150 641q23 0 50 13t41.5 23.5t43.5 33.5q-58 67 -109 67q-31 0 -54.5 -19t-27.5 -48q-6 -29 10.5 -49.5t45.5 -20.5zM436 641q31 0 54.5 19.5t27.5 50.5q5 30 -11 48.5t-48 18.5q-47 0 -131 -67q20 -23 30.5 -33.5t32.5 -23.5
t45 -13z" />
    <glyph glyph-name="integral" unicode="&#x222b;" horiz-adv-x="172" 
d="M-129 -215h10q29 0 41 15t23 63l266 1523q12 69 33.5 93t66.5 24h13l-7 -33h-8q-31 0 -42.5 -16t-22.5 -70l-267 -1523q-10 -63 -32 -86t-66 -23h-12z" />
    <glyph glyph-name="approxequal" unicode="&#x2248;" horiz-adv-x="319" 
d="M145 825q17 0 50 -12t51 -12q26 0 47 24l-8 -37q-11 -20 -41 -20q-20 0 -54 13.5t-51 13.5q-26 0 -47 -27l6 35q19 22 47 22zM127 723q17 0 50 -12.5t50 -12.5q23 0 45 25l-8 -35q-13 -22 -41 -22q-20 0 -52.5 14t-49.5 14q-27 0 -47 -26l6 34q15 21 47 21z" />
    <glyph glyph-name="notequal" unicode="&#x2260;" horiz-adv-x="319" 
d="M162 647l-31 -69h-27l31 69h-59l6 31h65l39 86h-90l6 31h97l28 63h27l-29 -63h66l-4 -31h-74l-39 -86h96l-6 -31h-102z" />
    <glyph glyph-name="equivalence" unicode="&#x2261;" horiz-adv-x="319" 
d="M104 827l7 31h190l-6 -31h-191zM86 713l4 30h191l-7 -30h-188zM66 596l6 33h188l-6 -33h-188z" />
    <glyph glyph-name="lessequal" unicode="&#x2264;" horiz-adv-x="319" 
d="M90 672l4 26l207 80l-8 -35l-160 -59l141 -61l-6 -33zM63 514l5 33h192l-6 -33h-191z" />
    <glyph glyph-name="greaterequal" unicode="&#x2265;" horiz-adv-x="319" 
d="M88 627l158 57l-140 64l7 30l178 -82l-6 -24l-205 -82zM70 547h192l-6 -33h-190z" />
    <glyph glyph-name="uni22A0" unicode="&#x22a0;" horiz-adv-x="1841" 
d="M201 1450h1441v-1450h-1441v1450zM1511 123v1206h-1181v-1206h1181zM926 651l-340 -350l-78 80l340 350l-334 342l80 78l332 -340l327 338l78 -78l-330 -340l336 -344l-80 -78z" />
    <glyph glyph-name="house" unicode="&#x2302;" horiz-adv-x="1736" 
d="M205 825l663 637l664 -637v-825h-1327v825z" />
    <glyph glyph-name="filledbox" unicode="&#x25a0;" horiz-adv-x="1841" 
d="M201 1450h1441v-1450h-1441v1450z" />
    <glyph glyph-name="uni25A1" unicode="&#x25a1;" horiz-adv-x="1841" 
d="M201 0v1450h1441v-1450h-1441zM330 123h1181v1206h-1181v-1206z" />
    <glyph glyph-name="uni25AA" unicode="&#x25aa;" horiz-adv-x="1562" 
d="M205 1153h1153v-1153h-1153v1153z" />
    <glyph glyph-name="uni25AB" unicode="&#x25ab;" horiz-adv-x="1562" 
d="M205 1153h1153v-1153h-1153v1153zM1231 123v907h-897v-907h897z" />
    <glyph glyph-name="triagup" unicode="&#x25b2;" horiz-adv-x="1785" 
d="M41 0l854 1477l852 -1477h-1706z" />
    <glyph glyph-name="triagrt" unicode="&#x25ba;" horiz-adv-x="1785" 
d="M201 1591l1476 -852l-1476 -852v1704z" />
    <glyph glyph-name="triagdn" unicode="&#x25bc;" horiz-adv-x="1785" 
d="M41 1452h1706l-852 -1477z" />
    <glyph glyph-name="triaglf" unicode="&#x25c4;" horiz-adv-x="1785" 
d="M1587 -113l-1476 852l1476 852v-1704z" />
    <glyph glyph-name="lozenge" unicode="&#x25ca;" horiz-adv-x="389" 
d="M57 717l187 157l133 -161l-187 -158zM334 715l-98 116l-136 -116l97 -117z" />
    <glyph glyph-name="circle" unicode="&#x25cb;" horiz-adv-x="1847" 
d="M924 -20q-219 0 -383 96q-169 96 -263 263.5t-94 381.5q0 319 209 534q215 209 531 209q327 0 532 -211q209 -209 209 -532q0 -318 -209 -533q-214 -208 -532 -208zM924 104q173 0 313 82q139 80 219 221t80 314q0 176 -80 313q-81 143 -219.5 224t-312.5 81
q-171 0 -310 -79q-142 -85 -221.5 -223.5t-79.5 -315.5q0 -178 80 -315q79 -142 217.5 -222t313.5 -80z" />
    <glyph glyph-name="uni25CE" unicode="&#x25ce;" horiz-adv-x="1835" 
d="M915 -20q-212 0 -378 94q-169 96 -262 262t-93 381q0 317 207 530q205 211 526 211q322 0 531 -209q100 -100 154.5 -236t54.5 -296q0 -316 -207 -529q-208 -208 -533 -208zM915 242q139 0 244 63q109 62 170.5 170t61.5 242q0 132 -62 244q-63 112 -170.5 175.5
t-243.5 63.5q-126 0 -237 -63q-109 -66 -170.5 -175t-61.5 -245q0 -133 62 -242q65 -110 171 -171.5t236 -61.5zM918 375q-103 0 -177 45q-78 43 -122 120t-44 175q0 100 46 176q45 79 123 123.5t174 44.5q102 0 176 -45q80 -45 125 -123t45 -176q0 -100 -45 -174
q-45 -78 -123 -122t-178 -44zM918 600q49 0 79.5 33.5t30.5 81.5q0 54 -30 86.5t-80 32.5q-45 0 -76 -33t-31 -86q0 -47 31.5 -81t75.5 -34z" />
    <glyph glyph-name="uni25CF" unicode="&#x25cf;" horiz-adv-x="1847" 
d="M924 -20q-219 0 -383 96q-169 96 -263 263.5t-94 381.5q0 319 209 534q215 209 531 209q327 0 532 -211q209 -209 209 -532q0 -318 -209 -533q-214 -208 -532 -208z" />
    <glyph glyph-name="uni25E2" unicode="&#x25e2;" horiz-adv-x="1785" 
d="M532 -145l-440 1646l1647 -440z" />
    <glyph glyph-name="uni25E3" unicode="&#x25e3;" horiz-adv-x="1785" 
d="M53 1061l1649 440l-442 -1646z" />
    <glyph glyph-name="uni25E4" unicode="&#x25e4;" horiz-adv-x="1785" 
d="M59 334l1207 1204l442 -1644z" />
    <glyph glyph-name="uni25E5" unicode="&#x25e5;" horiz-adv-x="1785" 
d="M90 -115l442 1647l1205 -1208z" />
    <glyph glyph-name="uni2605" unicode="&#x2605;" horiz-adv-x="1832" 
d="M680 618l-379 275l465 -2l147 444l146 -444l467 -2l-381 -273l147 -444l-381 277l-379 -277z" />
    <glyph glyph-name="sun" unicode="&#x263c;" horiz-adv-x="1890" 
d="M885 1444h110l-34 -289h-41zM532 1323l97 55l110 -268l-28 -20zM1251 1378l95 -55l-177 -233l-30 20zM287 1038l57 95l234 -177l-21 -30zM1532 1133l61 -93l-270 -114l-20 32zM586 723q0 95 47 178q50 84 130.5 131t176.5 47q100 0 176 -49q84 -47 131 -128t47 -179
q0 -100 -49 -176q-48 -81 -129 -128.5t-176 -47.5t-178 47q-81 51 -128.5 130.5t-47.5 174.5zM221 672v108l289 -35v-38zM1659 780v-108l-291 35v38zM348 319l-61 95l270 112l21 -30zM1593 416l-57 -97l-233 179l20 28zM629 74l-97 55l179 236l28 -21zM1346 129l-95 -55
l-112 270l30 21zM995 8h-110l35 289h41z" />
    <glyph glyph-name="uni263E" unicode="&#x263e;" horiz-adv-x="1603" 
d="M1090 1231q-136 0 -246 -70q-112 -68 -177 -185.5t-65 -256.5q0 -133 66 -256q67 -118 178 -186t244 -68q62 0 143 24q-163 -116 -363 -116q-248 0 -426 178q-84 84 -130 193t-46 231q0 249 176 428q179 176 426 176q199 0 363 -117q-84 25 -143 25z" />
    <glyph glyph-name="spade" unicode="&#x2660;" horiz-adv-x="1837" 
d="M985 578q0 -150 80 -340q28 -62 73 -150l46 -88h-516q5 10 29 58.5t42 82.5q117 240 117 437q-24 -72 -70 -132q-97 -139 -268 -139q-89 0 -170 43q-79 43 -125.5 115.5t-46.5 157.5q0 113 49 211q48 93 147.5 193.5t274.5 238.5l279 221h2l278 -221q172 -136 264 -234
q102 -103 146.5 -198.5t44.5 -210.5q0 -90 -43 -158q-44 -73 -114.5 -114.5t-157.5 -41.5q-100 0 -168 39q-131 69 -193 230z" />
    <glyph glyph-name="club" unicode="&#x2663;" horiz-adv-x="1837" 
d="M1319 260q-112 0 -197.5 65.5t-128.5 172.5q12 -103 51 -201q17 -46 40 -96.5t36 -76t39.5 -74.5t26.5 -50h-516q54 104 63 123q101 202 121 377q-43 -107 -132 -173.5t-202 -66.5q-96 0 -178 49q-81 48 -128.5 129t-47.5 178q0 96 47 179q50 81 131 127.5t176 46.5
q26 0 84 -13q-41 90 -41 172q0 100 47 177q48 80 128.5 126t176.5 46q104 0 177 -47q80 -45 127 -125t47 -177q0 -88 -37 -176q46 17 92 17q99 0 176 -47q81 -48 127.5 -128.5t46.5 -177.5q0 -95 -47 -178q-48 -84 -127.5 -131t-177.5 -47z" />
    <glyph glyph-name="heart" unicode="&#x2665;" horiz-adv-x="1837" 
d="M633 279q-137 152 -266 325q-100 143 -144.5 261.5t-44.5 236.5q0 103 49 188q51 87 134 137t184 50q96 0 180 -41q79 -43 128.5 -115.5t59.5 -163.5q18 141 117.5 230.5t249.5 89.5q103 0 188 -52q88 -52 139.5 -137t51.5 -186q0 -122 -47 -236q-47 -118 -147 -258
t-271 -329l-281 -314z" />
    <glyph glyph-name="diamond" unicode="&#x2666;" horiz-adv-x="1837" 
d="M266 739l654 754l651 -754l-651 -759z" />
    <glyph glyph-name="uni267B" unicode="&#x267b;" horiz-adv-x="1689" 
d="M715 1384h334q27 -1 37 -1.5t31.5 -4.5t32.5 -12t26.5 -23t27.5 -38l49 -84l76 43l-108 -289l-295 55l69 41l-125 215q-22 43 -63 66q-22 12 -45 19.5t-35 8.5l-12 2v2zM479 1278q19 33 58 53q54 28 110 25q59 -4 106.5 -28.5t65.5 -57.5l-198 -346l-259 149zM1526 748
q16 -28 16 -74q0 -62 -33 -109q-31 -48 -77 -77t-84 -29l-199 344l256 147zM336 254l-166 289q-19 33 -26.5 54t-4.5 53t23 69l49 84l-74 43l303 53l101 -287l-70 43l-61 -104q-61 -101 -64 -111q-24 -46 -24 -86q0 -25 4.5 -50t9.5 -38l4 -12h-4zM1507 500l-168 -291
q-18 -27 -26 -38t-26 -28t-41.5 -23.5t-55.5 -6.5h-98v-84l-195 233l195 236v-86h247q49 0 88 22q22 14 41.5 31t27.5 27l9 10zM555 113q-39 0 -76 22q-57 37 -78 84q-26 53 -28.5 108t16.5 85h397v-299h-231z" />
    <glyph glyph-name="uni267C" unicode="&#x267c;" horiz-adv-x="1689" 
d="M1534 719q0 -140 -52.5 -265t-148.5 -218q-96 -96 -221 -148.5t-264 -52.5q-286 0 -490 201q-96 93 -149 218t-53 265q0 286 202 491q204 201 490 201q139 0 264 -52.5t221 -148.5q201 -204 201 -491zM731 1243l23 -4q72 -18 100 -72l98 -166l-55 -32l229 -43l82 223
l-57 -31l-37 64q-24 40 -51 51.5t-72 11.5h-260v-2zM469 1004l201 -117l151 268q-11 23 -51 45q-93 47 -168 2q-32 -18 -43 -43zM1278 907l-201 -116l156 -269q25 0 63 23q86 60 86 149q0 30 -16 58zM451 369q-5 6 -7 22q-9 17 -7.5 54.5t18.5 66.5l96 168l55 -35l-80 221
l-231 -39l57 -34l-39 -66q-17 -28 -18.5 -53t3.5 -38.5t21 -45.5l130 -221h2zM1352 557l-15 -16q-38 -49 -112 -49h-191v61l-153 -178l153 -182v67h76q34 0 57 11.5t32 23t26 39.5l129 221zM791 260v232h-310q-15 -24 -12 -68q2 -43 23.5 -83.5t58.5 -64.5q37 -16 59 -16
h181z" />
    <glyph glyph-name="uni267D" unicode="&#x267d;" horiz-adv-x="1689" 
d="M1534 719q0 -140 -52.5 -265t-148.5 -218q-96 -96 -221 -148.5t-264 -52.5q-286 0 -490 201q-96 93 -149 218t-53 265q0 286 202 491q204 201 490 201q139 0 264 -52.5t221 -148.5q201 -204 201 -491zM1499 719q0 277 -190 467t-461 190q-134 0 -254 -49.5t-211 -140.5
q-193 -193 -193 -467q0 -268 193 -461q91 -91 211 -140.5t254 -49.5q271 0 461 190t190 461zM731 1245h260q45 0 72 -11.5t51 -51.5l37 -64l57 31l-82 -223l-229 43l55 32l-98 166q-21 34 -49 50q-17 10 -35.5 16.5t-28.5 8.5l-10 1v2zM559 1159q11 25 43 43q40 24 86 21
q45 -5 83 -23.5t50 -44.5l-151 -268l-201 117zM1366 752q16 -28 16 -58q0 -48 -24 -86q-26 -38 -61 -62t-64 -24l-156 269l201 116zM449 369l-130 221q-16 32 -21 45.5t-3.5 38.5t18.5 53l39 66l-57 34l231 39l80 -221l-55 35l-96 -168q-19 -31 -19 -68q0 -19 4 -38t8 -28
l3 -9h-2zM1354 555l-129 -221q-17 -28 -26 -39.5t-32 -23t-57 -11.5h-76v-67l-153 182l153 178v-61h191q40 0 69 16q17 10 31.5 22.5t20.5 19.5l6 7zM610 260q-22 0 -59 16q-36 21 -59 66q-20 40 -22.5 83t11.5 67h310v-232h-181z" />
    <glyph glyph-name="uni26AC" unicode="&#x26ac;" horiz-adv-x="1560" 
d="M780 -20q-171 0 -307 77q-137 80 -214 216.5t-77 304.5q0 176 80 307q80 137 215.5 214t302.5 77t305 -78q138 -80 216.5 -214.5t78.5 -305.5q0 -177 -80 -308q-79 -136 -215 -213t-305 -77zM780 98q135 0 242 64q108 62 168.5 170.5t60.5 245.5t-61 247
q-62 110 -169 171t-241 61q-136 0 -243 -64q-106 -66 -166 -174t-60 -241q0 -130 60 -244q63 -111 168.5 -173.5t240.5 -62.5z" />
    <glyph glyph-name="uni2E18" unicode="&#x2e18;" horiz-adv-x="303" 
d="M254 1180q23 0 20 -41q-9 -37 -34 -37q-26 0 -17 39q4 23 10.5 31t20.5 8zM6 -287q-50 0 -74 28t-14 77l148 835q16 74 63 146q21 31 32 50t25.5 56.5t22.5 81.5l8 55l14 -2l15 2q0 -2 -4.5 -27.5t-5.5 -29.5q-19 -124 -58 -330q-43 -266 -90 -522q-43 -264 -57 -330
l-11 -61q51 8 64 76l98 559h33l-100 -563q-17 -101 -109 -101zM-49 -178q-12 -69 39 -78l10 61l49 267q73 401 82 452q16 91 41.5 227.5t28.5 151.5q-21 -78 -51 -123q-36 -55 -52 -129z" />
    <glyph glyph-name="uni3008" unicode="&#x3008;" horiz-adv-x="190" 
d="M-23 -356l60 927l264 924h33l-264 -924l-60 -927h-33z" />
    <glyph glyph-name="uni3009" unicode="&#x3009;" horiz-adv-x="190" 
d="M-143 -356l258 919l65 932h33l-66 -932l-258 -919h-32z" />
    <glyph glyph-name="i.dot" horiz-adv-x="129" 
d="M180 1241q-19 0 -16 35q8 35 31 35q19 0 16 -35q-9 -35 -31 -35zM-53 0l207 1171h32l-206 -1171h-33z" />
    <glyph glyph-name="zero.inf" horiz-adv-x="169" 
d="M-72 -301q-26 0 -39.5 15.5t-9.5 41.5l105 600q4 24 21.5 39t41.5 15q56 0 47 -58l-104 -600q-9 -53 -62 -53zM-70 -276q13 0 22 8t11 22l105 596q8 35 -23 35q-32 0 -35 -33l-104 -594q-9 -34 24 -34z" />
    <glyph glyph-name="one.inf" horiz-adv-x="135" 
d="M-137 -293l4 25h39l108 624q-9 -28 -39 -28l5 28q22 1 30.5 10t14.5 35h24l-119 -669h35l-6 -25h-96z" />
    <glyph glyph-name="two.inf" horiz-adv-x="165" 
d="M-111 -211q2 13 6.5 29t14.5 41t15 37t21 47.5t19 42.5q58 123 68 168l35 196q3 35 -25 35q-26 0 -29 -31l-39 -217h-26l39 219q9 54 57 54q56 0 47 -58l-35 -200q-6 -38 -67 -177q-67 -142 -76 -190l-10 -53h84l-4 -25h-111z" />
    <glyph glyph-name="three.inf" horiz-adv-x="167" 
d="M-72 -301q-58 0 -49 59l37 209h27l-37 -209q-3 -34 24 -34q28 0 31 32l47 260q4 23 -1.5 30t-26.5 7h-13l4 25h11q20 0 28.5 8.5t14.5 34.5l41 233q8 31 -21 31q-25 0 -33 -31l-32 -188h-27l33 188q9 56 63 56q24 0 35.5 -15t7.5 -41l-41 -233q-8 -43 -37 -53
q30 -10 21 -52l-47 -262q-9 -55 -60 -55z" />
    <glyph glyph-name="four.inf" horiz-adv-x="161" 
d="M-10 -137l-27 -152h-24l28 152h-80l7 22l165 521h27l-92 -519h26l-6 -24h-24zM-82 -113h53l86 457l2 14l-10 -45z" />
    <glyph glyph-name="five.inf" horiz-adv-x="165" 
d="M-74 -295q-54 0 -45 57l29 177h27l-31 -175q-9 -34 22 -34q14 0 24 8.5t11 21.5l57 322q3 33 -22 33q-24 0 -35 -31l-8 -18l-23 2l74 338h90v-3q-3 -22 -26 -22h-43q-1 -10 -8 -38t-11 -46q-24 -117 -45 -199q21 41 49 41q44 0 35 -53l-57 -326q-9 -55 -64 -55z" />
    <glyph glyph-name="six.inf" horiz-adv-x="167" 
d="M-8 -248q-9 -53 -64 -53q-56 0 -47 59l105 598q9 54 63 54q28 0 39 -16t6 -42l-35 -200h-26l35 198q8 35 -23 35q-25 0 -33 -35l-49 -274q12 26 41 26q48 0 39 -53zM-70 -276q32 0 35 32q0 11 6 29q2 16 12.5 70.5t14.5 85.5l18 102q4 19 -1.5 27t-22.5 8q-24 0 -35 -43
v2l-49 -277q-9 -36 22 -36z" />
    <glyph glyph-name="seven.inf" horiz-adv-x="133" 
d="M-127 -291q34 171 84 346q62 245 94 324h-71l6 24h96l-2 -18q-18 -42 -98 -328q-57 -226 -80 -348h-29z" />
    <glyph glyph-name="eight.inf" horiz-adv-x="167" 
d="M-66 -299q-61 0 -49 57l45 262q10 44 35 52q-17 7 -14 43l41 241q11 56 61 56q58 0 49 -56l-43 -241q-9 -36 -32 -47q25 -9 16 -48l-45 -262q-9 -57 -64 -57zM-25 115q-3 -33 25 -33q24 0 33 33l43 241q3 31 -25 31q-30 0 -33 -31zM-63 -272q14 0 23.5 8.5t10.5 21.5
l45 265q3 32 -26 32q-30 0 -33 -32l-45 -263q-3 -32 25 -32z" />
    <glyph glyph-name="nine.inf" horiz-adv-x="167" 
d="M-70 -299q-55 0 -45 57l35 199h25l-33 -197q-9 -34 22 -34q24 0 33 34l49 281q-13 -29 -41 -29q-23 0 -33 15t-5 39l51 292q9 54 63 54q56 0 47 -60l-104 -598q-9 -53 -64 -53zM-12 37q31 0 35 43v-4l49 274q9 37 -25 37q-30 0 -33 -33l-51 -282q-3 -35 25 -35z" />
    <glyph glyph-name="underscore" horiz-adv-x="225" 
d="M-74 39h178l-4 -33h-178z" />
    <glyph glyph-name="backslash.cap" horiz-adv-x="229" 
d="M193 1450h32l-139 -1450h-33z" />
    <glyph glyph-name="periodcentered.cap" horiz-adv-x="184" 
d="M106 670q-23 0 -20 39q9 39 35 39q21 0 18 -39q-9 -39 -33 -39z" />
    <glyph glyph-name="bullet.cap" horiz-adv-x="194" 
d="M111 666q-44 0 -35 41q8 43 49 43q43 0 35 -43q-9 -41 -49 -41z" />
    <glyph glyph-name="uni2016.cap" horiz-adv-x="233" 
d="M244 1694h32l-333 -1907h-33zM342 1694h33l-334 -1907h-31z" />
    <glyph glyph-name="exclamdown.cap" horiz-adv-x="182" 
d="M231 1378q-13 0 -16.5 7.5t-1.5 31.5q3 39 33 39q27 0 18 -39q-3 -39 -33 -39zM-29 -2l52 281l57 327q10 51 84 461q45 238 45 244h22q0 -8 -38 -244q-32 -181 -78 -461l-58 -327l-49 -281h-37z" />
    <glyph glyph-name="uni2E18.cap" horiz-adv-x="305" 
d="M303 1458q24 0 21 -41q-9 -37 -35 -37t-17 39q4 23 10.5 31t20.5 8zM55 -8q-50 0 -74 27.5t-14 76.5l148 836q15 73 63 145q20 31 31.5 50.5t26 57t22.5 81.5l8 55l15 -2l14 2q0 -2 -4.5 -27.5t-5.5 -29.5q-19 -124 -58 -330q-43 -265 -90 -522q-43 -264 -57 -330
l-10 -62q50 8 63 76l98 559h33l-100 -563q-17 -100 -109 -100zM0 100q-12 -68 39 -77l10 61l49 266q70 382 82 453q16 91 41.5 227.5t28.5 151.5q-21 -78 -51 -123q-36 -55 -52 -129z" />
    <glyph glyph-name="questiondown.cap" horiz-adv-x="296" 
d="M303 1458q28 0 19 -39q-3 -39 -33 -39q-28 0 -19 39q3 39 33 39zM262 1317q0 -2 14 -2q17 0 19 2l-6 -31l-64 -366q-20 -119 -78 -199q-1 -2 -8 -12.5t-9 -14t-8 -13t-8.5 -14.5l-7 -14t-7 -16t-5.5 -16t-5 -18t-3 -19l-84 -484q-10 -39 4 -58t45 -19q56 0 70 71l80 455
h32l-79 -457q-17 -100 -105 -100q-103 0 -82 106l88 492q2 17 6.5 33t8.5 26.5t12 25t11.5 20.5t13.5 21.5t12 18.5q59 81 74 185z" />
    <glyph glyph-name="slash.cap" horiz-adv-x="229" 
d="M311 1450h33l-373 -1450h-32z" />
    <glyph glyph-name="uni3008.cap" horiz-adv-x="190" 
d="M0 -215l61 928l263 923h34l-264 -923l-61 -928h-33z" />
    <glyph glyph-name="uni3009.cap" horiz-adv-x="190" 
d="M-121 -215l264 924l60 927h33l-60 -927l-264 -924h-33z" />
    <glyph glyph-name="braceleft.cap" horiz-adv-x="190" 
d="M10 -219q-120 0 -96 127q3 21 23 88q10 36 44.5 156t53.5 190q61 213 69 248q7 42 -11 65t-54 23h-2l6 35h2q81 0 94 82q6 42 8 90q18 208 27 358q17 228 25 270q11 67 42 97t95 30h10l-4 -30h-4q-48 0 -73 -24.5t-36 -74.5q-9 -72 -10 -96q-14 -175 -26 -364
q-14 -228 -21 -256q-7 -46 -35.5 -71.5t-58.5 -27.5l-2 -4q29 -2 48.5 -30t12.5 -70q-5 -36 -22 -88q-14 -54 -51 -179.5t-48 -164.5q-56 -196 -67 -254q-15 -94 71 -94h7l-7 -31h-10z" />
    <glyph glyph-name="braceright.cap" horiz-adv-x="190" 
d="M-113 -188h4q48 0 73 24.5t36 73.5q9 72 10 96q18 222 27 365q2 28 20 256q7 49 35.5 72.5t59.5 25.5l2 4q-29 2 -49 30t-13 70q5 33 23 89q11 42 27 97.5t37.5 129.5t33.5 117q59 207 68 254q15 94 -72 94h-6l6 30h10q120 0 96 -127q-4 -27 -22 -88q-10 -36 -44.5 -156
t-53.5 -190q-67 -235 -70 -248q-7 -41 12 -64.5t53 -23.5h3l-7 -34h-2q-81 0 -94 -82q-6 -42 -8 -90q-17 -205 -27 -359q-18 -238 -24 -270q-8 -66 -40 -96.5t-97 -30.5h-11z" />
    <glyph glyph-name="bracketleft.cap" horiz-adv-x="188" 
d="M31 -215h-115l324 1851h116l-6 -30h-84l-313 -1790h84z" />
    <glyph glyph-name="bracketright.cap" horiz-adv-x="188" 
d="M-123 -215l6 31h84l314 1790h-84l6 30h114l-323 -1851h-117z" />
    <glyph glyph-name="parenleft.cap" horiz-adv-x="188" 
d="M31 -219q-71 0 -89.5 34.5t-0.5 125.5l270 1546q17 92 46 122.5t99 30.5l-4 -32q-53 0 -75.5 -26t-34.5 -99l-269 -1544q-14 -72 -2.5 -98.5t62.5 -26.5z" />
    <glyph glyph-name="parenright.cap" horiz-adv-x="188" 
d="M-121 -186q51 0 75 26.5t36 98.5l268 1546q13 72 1.5 98.5t-60.5 26.5l2 30q71 0 89.5 -34t0.5 -125l-271 -1544q-17 -95 -45.5 -125.5t-99.5 -30.5z" />
    <glyph glyph-name="parenleft.inf" horiz-adv-x="104" 
d="M-84 -438q-32 0 -43 19t-4 63l145 823q8 48 24 66t52 18l-4 -27q-20 0 -30.5 -12.5t-14.5 -44.5l-145 -825q-5 -31 0.5 -42.5t25.5 -11.5z" />
    <glyph glyph-name="parenright.inf" horiz-adv-x="104" 
d="M-164 -414q20 0 29.5 13.5t15.5 46.5l144 823q6 32 0.5 43.5t-25.5 11.5l4 27q35 0 46 -19t1 -63l-143 -823q-11 -49 -25.5 -66.5t-50.5 -17.5z" />
    <glyph glyph-name="emdash.cap" horiz-adv-x="317" 
d="M61 729h246l-4 -33h-246z" />
    <glyph glyph-name="endash.cap" horiz-adv-x="241" 
d="M61 729h170l-4 -31h-170z" />
    <glyph glyph-name="figuredash.cap" horiz-adv-x="352" 
d="M61 729h281l-4 -31h-281z" />
    <glyph glyph-name="uni2015.cap" horiz-adv-x="325" 
d="M61 729h254l-6 -33h-252z" />
    <glyph glyph-name="hyphen.cap" horiz-adv-x="251" 
d="M61 729h181l-4 -31h-181z" />
    <glyph glyph-name="guillemotleft.cap" horiz-adv-x="301" 
d="M74 365l-33 342l2 4l152 358h34l-157 -360l37 -344h-35zM176 365l-33 342l2 4l152 358h35l-158 -360l37 -344h-35z" />
    <glyph glyph-name="guillemotright.cap" horiz-adv-x="301" 
d="M-14 365l157 360l-37 344h33l35 -340l-2 -6l-152 -358h-34zM86 365l158 364l-37 340h35l32 -340l-2 -6l-151 -358h-35z" />
    <glyph glyph-name="guilsinglleft.cap" horiz-adv-x="194" 
d="M90 365l-35 342l2 4l152 358h35l-158 -360l37 -344h-33z" />
    <glyph glyph-name="guilsinglright.cap" horiz-adv-x="196" 
d="M-2 365l158 360l-37 344h33l34 -340l-2 -6l-151 -358h-35z" />
    <glyph glyph-name="periodcentered.smcp" horiz-adv-x="428" 
d="M59 729h357l-4 -31h-357z" />
    <glyph glyph-name="space_dotbelowcomb" 
d="M8 -117q-26 0 -18 35q3 37 30 37q22 0 19 -37q-8 -35 -31 -35z" />
    <glyph glyph-name="uni00200326" 
d="M-33 -174q30 21 39 63q-2 -6 -10 -6q-19 0 -12 31q3 33 30 33q14 0 17.5 -10.5t-0.5 -36.5q-12 -66 -58 -90z" />
    <glyph glyph-name="uni00200326.alt" horiz-adv-x="270" 
d="M254 1231q-27 0 -18 47q13 69 57 92l4 -18q-34 -24 -37 -60l10 4q16 0 13 -30q-3 -35 -29 -35z" />
    <glyph glyph-name="plus.inf" horiz-adv-x="174" 
d="M6 53l-6 -39h-27l7 39h-39l4 25h39l6 39h26l-6 -39h37l-2 -25h-39z" />
    <glyph glyph-name="minus.inf" horiz-adv-x="174" 
d="M-51 78h102l-4 -25h-100z" />
    <glyph glyph-name="equal.inf" horiz-adv-x="174" 
d="M-49 104h102l-4 -26h-102zM-59 41h102l-6 -25h-100z" />
    <glyph glyph-name="at.cap" horiz-adv-x="462" 
d="M121 -104q-93 0 -137 54t-27 150l221 1252q17 95 72.5 143.5t140.5 48.5q86 0 132.5 -52t29.5 -144l-219 -1244q-15 -90 -82 -90q-48 0 -57 52q-21 -58 -70 -58q-78 0 -57 109l211 1200q11 68 33 92.5t57 24.5q50 0 53 -56l12 52h23l-234 -1326q-10 -65 31 -65
q39 0 51 70l217 1241q13 80 -24 121.5t-111 41.5q-71 0 -118 -42t-60 -119l-221 -1254q-13 -84 22 -128t115 -44q81 0 123 54l26 -19q-33 -36 -67 -50.5t-86 -14.5zM135 35q49 0 64 98l204 1161q12 56 6.5 83.5t-36.5 27.5q-26 0 -40 -19t-24 -73l-211 -1194q-7 -46 2 -65
t35 -19z" />
    <glyph glyph-name="registered.cap" horiz-adv-x="454" 
d="M131 -8q-86 0 -130.5 47t-27.5 135l193 1104q17 88 71 134t134 46q84 0 130 -47t29 -133l-196 -1108q-27 -178 -203 -178zM137 23q142 0 166 151l195 1102q12 71 -24.5 112.5t-104.5 41.5q-145 0 -172 -158l-193 -1098q-13 -74 23 -112.5t110 -38.5zM201 694l-105 -590
h-30l219 1244h57q55 0 74 -23.5t8 -77.5l-80 -450q-12 -69 -61 -84q42 -12 30 -86l-86 -484q-3 -27 6 -39h-34q-4 18 -2 39l84 482q6 43 -1.5 56t-41.5 13h-37zM311 1317l-104 -592h35q34 0 49.5 18.5t21.5 59.5l80 442q8 42 -4 57t-53 15h-25z" />
    <glyph glyph-name="bar.cap" horiz-adv-x="133" 
d="M244 1694h32l-333 -1907h-33z" />
    <glyph glyph-name="brokenbar.cap" horiz-adv-x="133" 
d="M244 1694h32l-149 -850h-33zM63 664h33l-151 -877h-33z" />
    <glyph glyph-name="Aumlaut" horiz-adv-x="243" 
d="M184 1401q-19 0 -16 29q3 28 29 28q15 0 12 -28q-3 -29 -25 -29zM342 1401q-19 0 -16 29q3 28 26 28q18 0 15 -28q-10 -29 -25 -29zM125 311h-100l-72 -311h-33l334 1450h37l-170 -1450h-33zM31 344h98l94 780l39 267l-53 -267z" />
    <glyph glyph-name="Oumlaut" horiz-adv-x="288" 
d="M199 1442q-14 0 -11 20q3 21 17 21q17 0 14 -21q-3 -20 -20 -20zM387 1442q-15 0 -12 20q3 21 20 21q14 0 11 -21q-3 -20 -19 -20zM45 -8q-101 0 -80 112l219 1248q15 106 109 106q46 0 70 -29t14 -81l-223 -1262q-14 -94 -109 -94zM49 25q59 0 74 65l221 1262
q13 75 -53 75q-58 0 -74 -75l-219 -1246q-13 -81 51 -81z" />
    <glyph glyph-name="Uumlaut" horiz-adv-x="292" 
d="M262 1374q-7 0 -7.5 8t1.5 31q8 39 20 39q10 0 7 -39q-9 -39 -21 -39zM311 1374q-14 0 -6 39q3 39 21 39q9 0 6 -39q-9 -39 -21 -39zM47 -8q-101 0 -80 110l236 1348h35l-238 -1346q-12 -79 51 -79q61 0 74 71l237 1354h33l-237 -1356q-15 -102 -111 -102z" />
    <glyph glyph-name="cordinal" horiz-adv-x="219" 
d="M115 614q-65 0 -56 70q15 76 33 182l60 340l32 185q11 67 80 67q67 0 58 -67l-43 -244h-31l41 242q9 41 -31 41q-19 0 -28.5 -10.5t-14.5 -33.5l-125 -700q-3 -41 31 -41q36 0 45 41l51 289h31q-20 -100 -27 -152l-24 -137q-12 -72 -82 -72z" />
    <glyph glyph-name="caronSlovak" 
d="M272 1358h31l-53 -115h-23z" />
    <glyph glyph-name="altcedilla" 
d="M2 -166q-66 0 -63 62h28q-3 -37 39 -37q46 0 49 35q2 14 -7.5 22t-31.5 8h-12l4 25h17q35 0 50.5 -14t10.5 -41q-12 -60 -84 -60z" />
    <glyph glyph-name="doublegrave" 
d="M180 1337h37l33 -104h-27zM254 1337h35l26 -104h-26z" />
    <glyph glyph-name="invertedbreve" 
d="M170 1231q15 94 94 94q74 0 62 -94h-29q5 38 -2 52.5t-35 14.5t-40.5 -15t-20.5 -52h-29z" />
    <glyph glyph-name="onethirdemdash" horiz-adv-x="241" 
d="M41 610h170l-4 -30h-170z" />
    <glyph glyph-name="threequarteremdash" horiz-adv-x="317" 
d="M41 610h246l-4 -30h-246z" />
    <glyph glyph-name="onethirdemdash.cap" horiz-adv-x="251" 
d="M61 729h181l-4 -31h-181z" />
    <glyph glyph-name="threequarteremdash.cap" horiz-adv-x="284" 
d="M61 729h213l-6 -31h-211z" />
    <glyph glyph-name="onesixteenth" horiz-adv-x="475" 
d="M231 815l213 655l33 -12l-235 -647zM94 756l4 24h39l109 625q-10 -29 -39 -29l4 29q22 1 30.5 10t14.5 35h25l-119 -670h35l-7 -24h-96zM330 45q-9 -53 -64 -53q-56 0 -47 59l105 598q9 53 63 53q55 0 45 -57l-35 -201h-26l35 199q8 35 -23 35q-25 0 -33 -35l-49 -274
q12 26 41 26q48 0 39 -53zM92 0l4 25h39l109 624q-9 -28 -39 -28l4 28q22 1 30.5 10t14.5 35h25l-119 -669h35l-7 -25h-96zM-63 0l241 672l12 -6l-219 -678zM268 16q32 0 35 33q0 11 6 29q2 16 12.5 70t14.5 85l18 103q4 19 -1.5 27t-22.5 8q-24 0 -35 -43v2l-49 -277
q-3 -37 22 -37z" />
    <glyph glyph-name="threesixteenths" horiz-adv-x="475" 
d="M231 815l213 655l33 -12l-235 -647zM135 748q-58 0 -49 59l37 209h27l-37 -209q-3 -35 24 -35q28 0 31 33l47 260q4 23 -2 30t-27 7h-12l4 24h10q20 0 28.5 8.5t14.5 34.5l41 234q8 31 -20 31q-25 0 -33 -31l-33 -189h-26l33 189q8 55 63 55q24 0 35.5 -14.5t7.5 -40.5
l-41 -234q-8 -43 -37 -53q30 -10 21 -51l-47 -262q-9 -55 -60 -55zM330 45q-9 -53 -64 -53q-56 0 -47 59l105 598q9 53 63 53q55 0 45 -57l-35 -201h-26l35 199q8 35 -23 35q-25 0 -33 -35l-49 -274q12 26 41 26q48 0 39 -53zM94 0l4 25h39l109 624q-9 -28 -39 -28l4 28
q22 1 30.5 10t14.5 35h25l-119 -669h35l-7 -25h-96zM-63 0l241 672l12 -6l-219 -678zM268 16q32 0 35 33q0 11 6 29q2 16 12.5 70t14.5 85l18 103q4 19 -1.5 27t-22.5 8q-24 0 -35 -43v2l-49 -277q-9 -37 22 -37z" />
    <glyph glyph-name="fivesixteenths" horiz-adv-x="475" 
d="M231 815l213 655l33 -12l-235 -647zM137 750q-54 0 -45 57l29 176h26l-30 -174q-9 -35 22 -35q14 0 24 9t11 22l57 321q3 33 -22 33q-24 0 -35 -31l-8 -18l-23 2l74 338h90v-2q-3 -23 -26 -23h-43q-1 -10 -8 -38t-11 -46q-23 -113 -45 -198q21 41 49 41q44 0 35 -54
l-57 -325q-9 -55 -64 -55zM330 45q-9 -53 -64 -53q-56 0 -47 59l105 598q9 53 63 53q55 0 45 -57l-35 -201h-26l35 199q8 35 -23 35q-25 0 -33 -35l-49 -274q12 26 41 26q48 0 39 -53zM94 0l4 25h39l109 624q-9 -28 -39 -28l4 28q22 1 30.5 10t14.5 35h25l-119 -669h35
l-7 -25h-96zM-63 0l241 672l12 -6l-219 -678zM268 16q32 0 35 33q0 11 6 29q2 16 12.5 70t14.5 85l18 103q4 19 -1.5 27t-22.5 8q-24 0 -35 -43v2l-49 -277q-9 -37 22 -37z" />
    <glyph glyph-name="sevensixteenths" horiz-adv-x="475" 
d="M231 815l213 655l33 -12l-235 -647zM115 756q34 171 84 346q62 242 94 323h-72l6 25h97l-2 -18q-21 -49 -99 -328q-57 -226 -80 -348h-28zM330 45q-9 -53 -64 -53q-56 0 -47 59l105 598q9 53 63 53q55 0 45 -57l-35 -201h-26l35 199q8 35 -23 35q-25 0 -33 -35l-49 -274
q12 26 41 26q48 0 39 -53zM94 0l4 25h39l109 624q-9 -28 -39 -28l4 28q22 1 30.5 10t14.5 35h25l-119 -669h35l-7 -25h-96zM-63 0l241 672l12 -6l-219 -678zM268 16q32 0 35 33q0 11 6 29q2 16 12.5 70t14.5 85l18 103q4 19 -1.5 27t-22.5 8q-24 0 -35 -43v2l-49 -277
q-9 -37 22 -37z" />
    <glyph glyph-name="ninesixteenths" horiz-adv-x="475" 
d="M231 815l213 655l33 -12l-235 -647zM135 748q-55 0 -45 57l35 199h25l-33 -197q-9 -35 22 -35q24 0 33 35l49 280q-12 -28 -41 -28q-23 0 -33.5 14.5t-5.5 38.5l52 293q9 53 63 53q56 0 47 -59l-104 -598q-9 -53 -64 -53zM193 1083q30 0 34 43v-4l49 275q9 37 -24 37
q-30 0 -33 -33l-51 -283q-3 -35 25 -35zM330 45q-9 -53 -64 -53q-56 0 -47 59l105 598q9 53 63 53q55 0 45 -57l-35 -201h-26l35 199q8 35 -23 35q-25 0 -33 -35l-49 -274q12 26 41 26q48 0 39 -53zM94 0l4 25h39l109 624q-9 -28 -39 -28l4 28q22 1 30.5 10t14.5 35h25
l-119 -669h35l-7 -25h-96zM-63 0l241 672l12 -6l-219 -678zM268 16q32 0 35 33q0 11 6 29q2 16 12.5 70t14.5 85l18 103q4 19 -1.5 27t-22.5 8q-24 0 -35 -43v2l-49 -277q-9 -37 22 -37z" />
    <glyph glyph-name="elevensixteenths" horiz-adv-x="544" 
d="M319 815l213 655l33 -12l-235 -647zM66 756l6 24h37l102 621q-13 -25 -39 -25l6 29q22 1 29.5 9.5t15.5 35.5h23l-113 -670h35l-4 -24h-98zM190 756l5 24h38l109 625q-10 -29 -39 -29l4 29q22 1 30.5 10t14.5 35h25l-119 -670h35l-6 -24h-97zM418 45q-9 -53 -64 -53
q-56 0 -47 59l105 598q9 53 63 53q55 0 45 -57l-35 -201h-26l35 199q8 35 -23 35q-25 0 -33 -35l-49 -274q12 26 41 26q48 0 39 -53zM178 0l4 25h39l109 624q-9 -28 -39 -28l4 28q22 1 30.5 10t14.5 35h25l-119 -669h35l-7 -25h-96zM25 0l241 672l13 -6l-220 -678zM356 16
q32 0 35 33q0 11 6 29q2 16 12.5 70t14.5 85l18 103q4 19 -1.5 27t-22.5 8q-24 0 -35 -43v2l-49 -277q-3 -37 22 -37z" />
    <glyph glyph-name="thirteensixteenths" horiz-adv-x="544" 
d="M319 815l213 655l33 -12l-235 -647zM229 748q-58 0 -49 59l37 209h27l-37 -209q-3 -35 24 -35q28 0 31 33l47 260q4 23 -1.5 30t-26.5 7h-13l4 24h11q20 0 28.5 8.5t14.5 34.5l41 234q8 31 -21 31q-25 0 -33 -31l-32 -189h-27l33 189q8 55 63 55q24 0 35.5 -14.5
t7.5 -40.5l-41 -234q-8 -43 -37 -53q30 -10 21 -51l-47 -262q-9 -55 -60 -55zM55 754l4 26h39l107 623q-13 -27 -39 -27l6 29q22 0 29.5 8.5t15.5 36.5h23l-117 -670h33l-4 -26h-97zM418 45q-9 -53 -64 -53q-56 0 -47 59l105 598q9 53 63 53q55 0 45 -57l-35 -201h-26
l35 199q8 35 -23 35q-25 0 -33 -35l-49 -274q12 26 41 26q48 0 39 -53zM180 0l4 25h39l109 624q-9 -28 -39 -28l4 28q22 1 30.5 10t14.5 35h25l-119 -669h35l-7 -25h-96zM25 0l241 672l13 -6l-220 -678zM356 16q32 0 35 33q0 11 6 29q2 16 12.5 70t14.5 85l18 103
q4 19 -1.5 27t-22.5 8q-24 0 -35 -43v2l-49 -277q-3 -37 22 -37z" />
    <glyph glyph-name="fifteensixteenths" horiz-adv-x="552" 
d="M328 815l213 655l32 -12l-235 -647zM68 756l4 24h39l104 621q-9 -25 -37 -25l6 29q22 1 29.5 9.5t15.5 35.5h23l-117 -670h33l-4 -24h-96zM236 750q-55 0 -46 57l29 176h27l-31 -174q-4 -17 2.5 -26t20.5 -9q13 0 22.5 8.5t11.5 22.5l58 321q3 33 -23 33q-24 0 -35 -31
l-8 -18l-22 2l73 338h91v-2q-3 -23 -27 -23h-43q-1 -10 -8 -38t-11 -46q-23 -113 -45 -198q21 41 50 41q43 0 34 -54l-57 -325q-9 -55 -63 -55zM426 45q-9 -53 -64 -53q-56 0 -47 59l105 598q9 53 63 53q55 0 45 -57l-34 -201h-27l35 199q8 35 -23 35q-25 0 -33 -35
l-49 -274q12 26 41 26q48 0 39 -53zM188 0l5 25h38l109 624q-9 -28 -39 -28l4 28q22 1 30.5 10t14.5 35h25l-119 -669h35l-6 -25h-97zM33 0l241 672l13 -6l-219 -678zM365 16q31 0 34 33q1 11 7 29q2 15 12 69.5t14 85.5l19 103q8 35 -25 35q-24 0 -35 -43v2l-49 -277
q-3 -37 23 -37z" />
    <glyph glyph-name="mediumblackcircle" horiz-adv-x="1560" 
d="M780 -20q-171 0 -307 77q-137 80 -214 216.5t-77 304.5q0 176 80 307q80 137 215.5 214t302.5 77t305 -78q138 -80 216.5 -214.5t78.5 -305.5q0 -177 -80 -308q-79 -136 -215 -213t-305 -77z" />
    <glyph glyph-name="ballotboxwithx" horiz-adv-x="1562" 
d="M205 1153h1153v-1153h-1153v1153zM1231 123v907h-897v-907h897zM788 500l-215 -219l-69 73l213 217l-213 213l71 72l211 -213l211 215l70 -76l-207 -211l211 -213l-70 -71z" />
    <glyph glyph-name="ttfautohint" horiz-adv-x="260" 
 />
    </font>
</defs>
</svg>
