<?xml version="1.0" standalone="no"?>
<!DOCTYPE svg PUBLIC "-//W3C//DTD SVG 1.1//EN" "http://www.w3.org/Graphics/SVG/1.1/DTD/svg11.dtd" >
<svg xmlns="http://www.w3.org/2000/svg" xmlns:xlink="http://www.w3.org/1999/xlink" version="1.1">
<metadata>
Created by FontForge 20201107 at Thu Aug 14 22:37:21 2025
 By 
C 2016 Sharp Type Corporation
</metadata>
<defs>
<font id="SharpGrotesk-BookItalic15" horiz-adv-x="950" >
  <font-face 
    font-family="Sharp Grotesk Book Italic 15"
    font-weight="400"
    font-style="italic"
    font-stretch="semi-condensed"
    units-per-em="2048"
    panose-1="0 0 5 6 0 0 0 0 0 0"
    ascent="1638"
    descent="-410"
    x-height="1171"
    cap-height="1456"
    bbox="-223 -526 2257.01 2161"
    underline-thickness="102"
    underline-position="-153"
    unicode-range="U+0020-3009"
  />
<missing-glyph horiz-adv-x="122" 
 />
    <glyph glyph-name=".notdef" horiz-adv-x="122" 
 />
    <glyph glyph-name=".null" horiz-adv-x="0" 
 />
    <glyph glyph-name="nonmarkingreturn" horiz-adv-x="682" 
 />
    <glyph glyph-name="space" unicode=" " horiz-adv-x="450" 
 />
    <glyph glyph-name="exclam" unicode="!" horiz-adv-x="524" 
d="M164 328q0 19 8 71q15 142 47 338q22 167 66 412l53 307h154l-54 -307q-9 -58 -37 -201q-37 -195 -84 -403q-41 -196 -49 -217q-30 6 -51 6q-23 0 -53 -6zM160 -16q-57 0 -79.5 29.5t-10.5 95.5q12 65 40.5 90.5t84.5 25.5q111 0 88 -125q-12 -66 -39.5 -91t-83.5 -25z
" />
    <glyph glyph-name="quotedbl" unicode="&#x22;" horiz-adv-x="593" 
d="M199 977q0 59 6 102q10 114 41 299l12 78h133l-12 -78q-5 -28 -16.5 -81t-14.5 -70q-45 -192 -65 -250h-84zM453 977q0 14 2.5 49t3.5 53q10 114 41 299l14 78h131l-12 -78q-5 -28 -16.5 -81t-14.5 -70q-45 -192 -65 -250h-84z" />
    <glyph glyph-name="numbersign" unicode="#" horiz-adv-x="1341" 
d="M745 455h-280l-143 -455h-140l144 455h-265l23 125h281l108 342h-272l22 125h289l129 409h139l-129 -409h281l129 409h137l-129 -409h270l-22 -125h-287l-106 -342h276l-22 -125h-293l-144 -455h-139zM893 922h-281l-108 -342h280z" />
    <glyph glyph-name="dollar" unicode="$" horiz-adv-x="937" 
d="M262 -242l41 230q-154 29 -221 134.5t-35 272.5l25 129h149l-24 -141q-24 -133 33.5 -201.5t185.5 -68.5q225 0 256 223l6 35q13 91 -19 145q-28 54 -79 96t-131 88q-99 65 -138 97q-149 119 -114 329l8 41q24 142 123 222.5t243 85.5l41 225h140l-43 -240
q131 -31 188.5 -126t36.5 -226l-21 -123h-147l22 121q19 113 -32 178.5t-174 65.5q-96 0 -156.5 -50.5t-79.5 -148.5l-4 -35q-16 -91 16 -145q15 -28 35.5 -52t56 -50t54 -38t67.5 -43q90 -57 138 -96q147 -116 112 -327l-4 -35q-27 -165 -116.5 -254t-260.5 -96l-39 -222
h-139z" />
    <glyph glyph-name="percent" unicode="%" horiz-adv-x="1220" 
d="M377 848q-123 0 -172.5 67t-28.5 179l33 182q17 95 78 144.5t159 49.5q116 0 170.5 -64t34.5 -173l-33 -189q-35 -196 -241 -196zM1104 1456h149l-1083 -1456h-154zM387 950q106 0 127 117l29 170q12 68 -14.5 101.5t-84.5 33.5q-109 0 -129 -112l-30 -173
q-21 -137 102 -137zM817 -20q-123 0 -172.5 66.5t-28.5 178.5l35 185q17 95 77.5 144.5t158.5 49.5q116 0 170.5 -64t34.5 -173l-33 -191q-35 -196 -242 -196zM827 82q106 0 127 117l29 172q13 68 -13.5 101.5t-84.5 33.5q-109 0 -129 -113l-31 -172q-21 -139 102 -139z" />
    <glyph glyph-name="ampersand" unicode="&#x26;" horiz-adv-x="1212" 
d="M930 -16q-112 0 -215 92q-155 -96 -326 -96q-198 0 -294.5 107t-65.5 294l2 6q12 67 43 124.5t83.5 107t106 87.5t133.5 85q-36 185 -8 360l4 16q26 147 107.5 226.5t208.5 79.5q130 0 198 -79t45 -204l-2 -12q-15 -98 -73 -174q-52 -71 -133 -134t-205 -137
q20 -93 61 -203q59 -166 145 -284q216 201 291 643l11 63h133l-13 -63q-75 -476 -342 -727q66 -51 131 -51q77 0 127 47l-24 -135q-48 -39 -129 -39zM518 1153q-25 -145 -2 -305q142 87 216 164.5t93 183.5l2 6q11 72 -23 114t-106 42q-140 0 -176 -191zM403 106
q123 0 234 60q-84 118 -156 315q-30 86 -59 193q-78 -50 -121 -84.5t-79.5 -88.5t-51.5 -124v-8q-21 -119 41 -191t192 -72z" />
    <glyph glyph-name="quotesingle" unicode="'" horiz-adv-x="339" 
d="M197 977q0 14 2.5 47.5t3.5 52.5q12 135 39 297l14 82h133l-14 -82q-5 -28 -16.5 -81t-14.5 -70q-45 -187 -65 -246h-82z" />
    <glyph glyph-name="parenleft" unicode="(" horiz-adv-x="649" 
d="M412 -354q-212 14 -298.5 172t-29.5 469l111 628q37 213 112 342q140 247 434 259l-24 -138q-146 -12 -239 -127.5t-136 -359.5l-111 -621q-42 -242 11.5 -357t195.5 -126z" />
    <glyph glyph-name="parenright" unicode=")" horiz-adv-x="649" 
d="M-70 -217q145 12 238.5 128.5t136.5 358.5l111 621q42 244 -10.5 358.5t-196.5 126.5l27 142q212 -14 298 -172.5t29 -471.5l-110 -628q-37 -209 -111 -340q-145 -245 -436 -260z" />
    <glyph glyph-name="asterisk" unicode="*" horiz-adv-x="720" 
d="M485 1208l2 -252h-122l92 252l-224 -166l-43 105l259 86l-228 82l80 106l166 -166l-4 252h123l-92 -252l221 168l43 -106l-258 -84l229 -86l-80 -107z" />
    <glyph glyph-name="plus" unicode="+" horiz-adv-x="909" 
d="M530 655l-45 -254h-127l45 254h-256l21 129h258l45 254h127l-45 -254h260l-22 -129h-261z" />
    <glyph glyph-name="comma" unicode="," horiz-adv-x="499" 
d="M16 -160q109 39 142 154q-10 -6 -31 -6q-85 0 -66 110q10 65 39 92t84 27q60 0 80 -36t2 -124q-42 -241 -254 -299z" />
    <glyph glyph-name="hyphen" unicode="-" horiz-adv-x="837" 
d="M123 688h629l-25 -143h-629z" />
    <glyph glyph-name="period" unicode="." horiz-adv-x="499" 
d="M152 -16q-57 0 -79 29.5t-10 95.5q10 65 38 90.5t87 25.5q56 0 77 -30.5t9 -94.5q-12 -66 -39.5 -91t-82.5 -25z" />
    <glyph glyph-name="slash" unicode="/" horiz-adv-x="602" 
d="M549 1456h149l-589 -1456h-152z" />
    <glyph glyph-name="zero" unicode="0" horiz-adv-x="1034" 
d="M449 -20q-222 0 -309.5 131.5t-47.5 363.5l96 541q41 241 154 347.5t295 106.5q124 0 215 -51q199 -110 143 -426q-10 -59 -26 -145q-7 -46 -23.5 -139.5t-23.5 -133.5l-27 -145q-40 -232 -142.5 -341t-303.5 -109zM461 117q122 0 189 73.5t98 245.5l100 572
q30 172 -27.5 251.5t-195.5 79.5q-117 0 -186 -76t-101 -249l-98 -553q-58 -344 221 -344z" />
    <glyph glyph-name="one" unicode="1" horiz-adv-x="694" 
d="M-39 0l25 141h215l176 994h-170l20 112q95 6 146 52.5t88 156.5h114l-233 -1315h221l-24 -141h-578z" />
    <glyph glyph-name="two" unicode="2" 
d="M-8 0l20 123q23 130 90 233q42 63 104 125t112 101t126 94q106 75 156 115q82 65 130 128.5t61 141.5l8 43q19 116 -31.5 175.5t-161.5 59.5q-217 0 -260 -235l-33 -189h-149l39 209q30 163 133.5 254.5t273.5 91.5q127 0 209 -49q83 -51 115 -135t12 -192l-8 -39
q-21 -113 -78 -193q-36 -52 -91.5 -104.5t-97.5 -84.5t-116 -85q-107 -77 -164 -125q-181 -147 -213 -322h608l-24 -141h-770z" />
    <glyph glyph-name="three" unicode="3" horiz-adv-x="962" 
d="M406 -18q-223 0 -304.5 116t-42.5 346q2 7 2 17q11 42 11 55h149l-16 -88q-27 -159 21.5 -234t187.5 -75q121 0 181.5 59t86.5 205l8 45q20 122 -26 190t-164 68h-117l23 125h114q111 0 176.5 63.5t85.5 172.5l9 43q43 249 -195 249q-119 0 -181 -61t-87 -201l-17 -96
h-147q0 15 6 33l14 88q36 186 135.5 277t278.5 91q193 0 285.5 -100.5t54.5 -286.5l-4 -26q-20 -121 -78 -198.5t-170 -108.5q104 -34 140 -123t12 -217l-7 -43q-37 -204 -136.5 -294.5t-288.5 -90.5z" />
    <glyph glyph-name="four" unicode="4" horiz-adv-x="956" 
d="M864 346h-182l-61 -346h-138l62 346h-537l21 111l716 999h132l-172 -981h182zM655 1143l-469 -668h381l115 649l53 176z" />
    <glyph glyph-name="five" unicode="5" horiz-adv-x="970" 
d="M406 -20q-212 0 -291 105.5t-43 311.5l16 95h154l-21 -111q-25 -136 21.5 -201t171.5 -65q116 0 182 63t92 201l47 266q19 111 -27.5 172.5t-154.5 61.5q-87 0 -148 -42.5t-116 -119.5l-29 -41l-123 43l203 737h651v-6q-10 -65 -28 -88q-16 -28 -54.5 -36.5t-126.5 -8.5
h-342q-4 -18 -10.5 -40.5t-15.5 -54t-15 -51.5q-19 -67 -50.5 -181.5t-37.5 -135.5q58 76 127.5 116t165.5 40q161 0 235.5 -98t45.5 -271l-49 -279q-70 -382 -430 -382z" />
    <glyph glyph-name="six" unicode="6" horiz-adv-x="1005" 
d="M885 408q-40 -220 -141.5 -324t-299.5 -104q-221 0 -306.5 131t-45.5 364l96 541q41 242 152.5 348t292.5 106q119 0 205 -45q200 -104 145 -397v-8h-152l3 8q58 311 -207 311q-120 0 -191.5 -76t-103.5 -249l-53 -297q93 176 301 176q110 0 186 -49q82 -49 117 -141.5
t12 -221.5zM457 117q122 0 186.5 68.5t93.5 230.5l11 71q21 122 -37 198.5t-187 76.5q-111 0 -180.5 -58.5t-95.5 -162.5l-15 -78q-59 -346 224 -346z" />
    <glyph glyph-name="seven" unicode="7" horiz-adv-x="845" 
d="M100 0q133 387 298.5 705.5t369.5 607.5h-586l25 143h739l-22 -123q-217 -314 -381.5 -637.5t-280.5 -695.5h-162z" />
    <glyph glyph-name="eight" unicode="8" horiz-adv-x="974" 
d="M406 -20q-223 0 -305.5 105t-43.5 312l13 68q19 117 83.5 196t165.5 105q-148 71 -120 291l10 61q24 138 82 213q106 139 334 139q190 0 281 -92t55 -278l-13 -72q-20 -109 -79.5 -178t-151.5 -94q86 -37 125.5 -120t21.5 -198l-12 -82q-38 -208 -140 -292t-306 -84z
M555 823q207 0 250 215l8 54q28 131 -22.5 189t-176.5 58q-111 0 -175.5 -51t-86.5 -178l-8 -57q-14 -105 25.5 -167.5t144.5 -62.5h41zM422 117q124 0 189.5 53t90.5 197l17 79q37 250 -201 250h-35q-112 0 -179 -61.5t-85 -167.5l-14 -80q-26 -144 26 -207t191 -63z" />
    <glyph glyph-name="nine" unicode="9" horiz-adv-x="1001" 
d="M426 -20q-205 0 -299 112t-53 340l6 37h151l-6 -37q-59 -317 207 -317q128 0 193 73t96 250l55 307q-99 -170 -301 -170q-167 0 -254.5 106.5t-58.5 299.5l10 68q36 215 139 318t297 103q153 0 238 -61q170 -127 115 -434l-25 -139q-7 -41 -22.5 -130.5t-22.5 -130.5
l-25 -139q-42 -246 -145.5 -351t-294.5 -105zM528 702q105 0 176 53.5t101 147.5l14 86q61 348 -219 348q-120 0 -184.5 -68.5t-93.5 -226.5l-11 -63q-19 -124 36.5 -200.5t180.5 -76.5z" />
    <glyph glyph-name="colon" unicode=":" horiz-adv-x="509" 
d="M297 780q-57 0 -79.5 29.5t-10.5 95.5q10 66 38 92.5t87 26.5q112 0 88 -127q-12 -65 -40 -91t-83 -26zM172 74q-57 0 -79.5 29.5t-10.5 95.5q12 65 40.5 91.5t84.5 26.5q112 0 88 -127q-12 -65 -40 -90.5t-83 -25.5z" />
    <glyph glyph-name="semicolon" unicode=";" horiz-adv-x="509" 
d="M295 780q-57 0 -79.5 29.5t-10.5 95.5q10 66 38 92.5t87 26.5q112 0 88 -127q-12 -65 -40 -91t-83 -26zM23 -160q103 36 141 154q-10 -6 -31 -6q-86 0 -65 110q10 66 38 92.5t84 26.5q60 0 80 -36t2 -124q-20 -117 -85 -193.5t-171 -105.5z" />
    <glyph glyph-name="less" unicode="&#x3c;" horiz-adv-x="925" 
d="M160 686l22 125l670 270l-27 -153l-495 -185l430 -188l-27 -143z" />
    <glyph glyph-name="equal" unicode="=" horiz-adv-x="925" 
d="M193 858l20 129h637l-23 -129h-634zM123 473l22 131h637l-22 -131h-637z" />
    <glyph glyph-name="greater" unicode="&#x3e;" horiz-adv-x="925" 
d="M158 563l497 187l-432 188l25 143l575 -274l-22 -123l-670 -272z" />
    <glyph glyph-name="question" unicode="?" horiz-adv-x="964" 
d="M487 322q-12 12 -67 12q-61 0 -76 -12q0 1 4 34t8 47l13 64q21 96 55 151q22 36 54 69.5t55.5 51.5t62.5 45q41 27 63 44t50 45.5t44.5 63.5t24.5 81l19 104q9 55 -4 107q-30 110 -185 110q-111 0 -169 -54t-77 -165l-34 -198h-154l41 223q60 325 403 325
q184 0 268 -99.5t58 -262.5l-18 -102q-16 -94 -49 -150q-22 -37 -53 -69t-55.5 -51t-63.5 -46q-34 -23 -52 -35.5t-46 -37.5t-43.5 -47.5t-31 -57t-22.5 -74.5zM362 -16q-57 0 -78.5 28t-9.5 94q10 65 38.5 92t84.5 27q112 0 88 -123q-12 -66 -40 -92t-83 -26z" />
    <glyph glyph-name="at" unicode="@" horiz-adv-x="1335" 
d="M549 -248q-172 0 -291 64q-124 63 -174.5 195t-15.5 329l86 485q49 284 215.5 439t418.5 155q176 0 297 -71q121 -74 170.5 -201t20.5 -291l-78 -446q-31 -172 -95.5 -252t-178.5 -80q-146 0 -170 125q-55 -135 -199 -135q-237 0 -184 297l78 436q29 156 94.5 228.5
t173.5 72.5q150 0 166 -139l43 129h78q-12 -80 -35 -195q-8 -54 -31.5 -180.5t-32.5 -188.5q-10 -51 -19 -102.5t-13 -76.5t-5 -27q-12 -72 4 -104t66 -32q54 0 86.5 53.5t52.5 174.5l78 438q36 206 -59 326t-314 120q-204 0 -336.5 -124t-173.5 -355l-12 -67
q-8 -40 -23.5 -130t-21.5 -124l-27 -150q-42 -238 54.5 -357.5t312.5 -119.5q105 0 177.5 31t139.5 100l127 -47q-167 -203 -450 -203zM592 176q70 0 108.5 47.5t57.5 151.5l73 409q19 110 -5.5 161.5t-96.5 51.5q-66 0 -104 -48.5t-58 -157.5l-73 -420q-19 -103 4.5 -149
t93.5 -46z" />
    <glyph glyph-name="A" unicode="A" horiz-adv-x="956" 
d="M645 315h-422l-127 -315h-151l608 1456h145l111 -1456h-145zM279 451h356l-43 714l6 138l-33 -138z" />
    <glyph glyph-name="B" unicode="B" horiz-adv-x="985" 
d="M39 0l254 1456h360q143 0 213 -47q72 -43 97 -122.5t6 -180.5l-19 -102q-19 -110 -71.5 -172t-147.5 -87q98 -34 129 -111t10 -198l-20 -127q-23 -121 -64 -178q-44 -68 -128 -99.5t-222 -31.5h-397zM416 1329l-90 -518h219q127 0 186 49.5t78 169.5l16 84
q18 105 -28 160t-168 55h-213zM303 684l-98 -553h235q130 0 187 49t78 168l20 109q20 114 -24 170.5t-171 56.5h-227z" />
    <glyph glyph-name="C" unicode="C" horiz-adv-x="1003" 
d="M444 -20q-152 0 -237 61q-168 120 -113 426l25 143q8 43 24.5 134.5t24.5 134.5l25 145q42 237 152.5 343t295.5 106q200 0 293.5 -121t58.5 -328l-24 -137h-154l27 141q26 154 -26.5 233.5t-184.5 79.5q-119 0 -188 -73t-99 -248l-100 -559q-61 -344 215 -344
q120 0 182.5 73t91.5 248l19 92h153l-18 -100q-39 -233 -141 -341.5t-302 -108.5z" />
    <glyph glyph-name="D" unicode="D" horiz-adv-x="1021" 
d="M293 1456h323q202 0 301.5 -128.5t59.5 -360.5l-90 -523q-76 -444 -496 -444h-352zM418 1329l-213 -1198h176q150 0 238.5 82t119.5 250l92 524q30 168 -32 255t-205 87h-176z" />
    <glyph glyph-name="E" unicode="E" horiz-adv-x="876" 
d="M705 0h-666l254 1456h649l-24 -133h-502l-90 -508h436l-25 -135h-436l-96 -543h524z" />
    <glyph glyph-name="F" unicode="F" horiz-adv-x="823" 
d="M291 637l-111 -637h-141l254 1456h616l-22 -135h-475l-97 -549h445l-23 -135h-446z" />
    <glyph glyph-name="G" unicode="G" horiz-adv-x="1034" 
d="M729 227q-50 -127 -131 -187t-207 -60q-194 0 -268 127.5t-35 367.5l96 545q42 233 156 343t299 110q199 0 294.5 -112t59.5 -327l-14 -71h-152l15 71q29 159 -24.5 233t-188.5 74q-120 0 -192 -74t-103 -245l-98 -561q-63 -344 204 -344q127 0 197.5 81t101.5 257
l27 157h-258l22 131h404l-129 -743h-94z" />
    <glyph glyph-name="H" unicode="H" horiz-adv-x="1038" 
d="M766 657h-469l-115 -657h-145l256 1456h145l-116 -659h469l114 659h146l-254 -1456h-146z" />
    <glyph glyph-name="I" unicode="I" horiz-adv-x="675" 
d="M-33 0l23 137h196l211 1186h-198l24 133h535l-23 -133h-196l-211 -1186h198l-22 -137h-537z" />
    <glyph glyph-name="J" unicode="J" horiz-adv-x="874" 
d="M334 -20q-179 0 -253 94.5t-44 261.5l31 180h149l-33 -186q-18 -99 21 -155t137 -56q100 0 148.5 59.5t72.5 196.5l191 1081h149l-194 -1110q-35 -196 -124.5 -281t-250.5 -85z" />
    <glyph glyph-name="K" unicode="K" horiz-adv-x="995" 
d="M528 856l-249 -295l-99 -561h-141l254 1456h143l-121 -692l-6 -29l598 721h166l-432 -518l2 -6l205 -932h-160l-158 762z" />
    <glyph glyph-name="L" unicode="L" horiz-adv-x="813" 
d="M39 0l254 1456h145l-231 -1317h469l-25 -139h-612z" />
    <glyph glyph-name="M" unicode="M" horiz-adv-x="1200" 
d="M176 0h-137l254 1456h145l174 -694l6 -60l27 62l420 692h147l-256 -1456h-137l164 932l90 364l-100 -219l-365 -592h-49l-158 594l-26 217l-35 -364z" />
    <glyph glyph-name="N" unicode="N" horiz-adv-x="1079" 
d="M172 0h-133l254 1456h131l291 -1028l43 -219l20 242l178 1005h136l-256 -1456h-127l-295 1047l-39 245l-25 -278z" />
    <glyph glyph-name="O" unicode="O" horiz-adv-x="1034" 
d="M455 -20q-155 0 -240 61q-176 125 -121 426l96 549q41 242 153.5 348t295.5 106q126 0 215 -53q193 -118 145 -411l-102 -584q-39 -225 -142.5 -333.5t-299.5 -108.5zM463 117q122 0 188 72.5t97 240.5l106 588q26 157 -31 239t-190 82q-123 0 -192 -74.5t-101 -250.5
l-98 -559q-62 -338 221 -338z" />
    <glyph glyph-name="P" unicode="P" horiz-adv-x="956" 
d="M262 471l-82 -471h-141l254 1456h340q191 0 273 -106t52 -291l-40 -225q-31 -184 -139.5 -274t-307.5 -89h-209zM477 602q132 -1 205.5 65t97.5 201l35 203q24 120 -27 187t-180 67h-194l-127 -723h190z" />
    <glyph glyph-name="Q" unicode="Q" horiz-adv-x="1034" 
d="M588 -197l-70 181q-46 -4 -69 -4q-222 0 -309.5 131.5t-47.5 363.5l96 541q41 241 154.5 347.5t296.5 106.5q129 0 215 -51q197 -111 141 -422l-26 -147q-7 -44 -23.5 -137.5t-23.5 -137.5l-27 -145q-27 -157 -81 -255.5t-148 -149.5l104 -222h-182zM461 117
q122 0 189 73.5t98 245.5l100 574q30 172 -26.5 250.5t-194.5 78.5q-117 0 -187 -76t-102 -249l-98 -553q-58 -344 221 -344z" />
    <glyph glyph-name="R" unicode="R" horiz-adv-x="987" 
d="M291 612l-109 -612h-143l254 1456h352q192 0 274.5 -102.5t49.5 -286.5l-23 -111q-20 -118 -82 -186t-176 -92q194 -55 146 -279l-54 -295q-13 -78 23 -104h-162q-24 31 -10 106l49 281q21 114 -20.5 169.5t-165.5 55.5h-203zM416 1327l-103 -586h193q143 0 211 58
t92 192l16 92q23 123 -26.5 183.5t-177.5 60.5h-205z" />
    <glyph glyph-name="S" unicode="S" horiz-adv-x="931" 
d="M408 -20q-207 0 -303 109t-58 306l25 129h149l-24 -141q-24 -133 33.5 -201.5t185.5 -68.5q225 0 256 223l6 35q13 91 -19 145q-28 54 -79 96t-131 88q-99 65 -138 97q-149 119 -114 329l8 41q24 144 127.5 226t253.5 82q134 0 217 -50q83 -49 116 -130.5t15 -186.5
l-21 -123h-147l22 121q19 113 -32 178.5t-174 65.5q-96 0 -156.5 -50.5t-79.5 -148.5l-4 -35q-16 -91 16 -145q15 -28 35.5 -52t56 -50t54 -38t67.5 -43q90 -57 138 -96q147 -116 112 -327l-4 -35q-31 -175 -126.5 -262.5t-282.5 -87.5z" />
    <glyph glyph-name="T" unicode="T" horiz-adv-x="806" 
d="M604 1321l-233 -1321h-146l234 1321h-281l25 135h706l-22 -135h-283z" />
    <glyph glyph-name="U" unicode="U" horiz-adv-x="1007" 
d="M426 -20q-148 0 -225 59q-144 111 -92 424l176 993h149l-178 -1010q-30 -171 15 -248t165 -77q115 0 176 69.5t90 237.5l181 1028h149l-182 -1042q-40 -225 -136 -329.5t-288 -104.5z" />
    <glyph glyph-name="V" unicode="V" horiz-adv-x="952" 
d="M301 0l-102 1456h149l64 -1159l-9 -125l33 125l473 1159h152l-615 -1456h-145z" />
    <glyph glyph-name="W" unicode="W" horiz-adv-x="1396" 
d="M319 0h-131l29 1456h139l-28 -1065l-33 -225l59 207l439 1083h102l45 -1083l-16 -219l55 237l371 1065h139l-516 -1456h-133l-41 1110l16 178l-45 -180z" />
    <glyph glyph-name="X" unicode="X" horiz-adv-x="919" 
d="M94 0h-168l486 774l-183 682h156l123 -524l4 -53l20 51l314 526h160l-431 -686l213 -770h-159l-148 598l-6 55l-22 -53z" />
    <glyph glyph-name="Y" unicode="Y" horiz-adv-x="884" 
d="M258 0l92 528l-166 928h154l104 -676l4 -137l54 139l350 674h158l-510 -934l-90 -522h-150z" />
    <glyph glyph-name="Z" unicode="Z" horiz-adv-x="870" 
d="M-31 0l21 127l770 1192h-516l24 137h672l-22 -131l-756 -1184h555l-25 -141h-723z" />
    <glyph glyph-name="bracketleft" unicode="[" horiz-adv-x="626" 
d="M389 -352h-399l327 1865h400l-23 -127h-252l-284 -1611h252z" />
    <glyph glyph-name="backslash" unicode="\" horiz-adv-x="602" 
d="M362 1456l76 -1456h-147l-76 1456h147z" />
    <glyph glyph-name="bracketright" unicode="]" horiz-adv-x="626" 
d="M-90 -352l20 127h254l285 1609h-254l23 129h397l-328 -1865h-397z" />
    <glyph glyph-name="asciicircum" unicode="^" horiz-adv-x="872" 
d="M569 1319l-225 -373h-139l327 510h109l152 -510h-129z" />
    <glyph glyph-name="uni005F" unicode="_" horiz-adv-x="919" 
d="M-49 -106h772l-25 -142h-772z" />
    <glyph glyph-name="grave" unicode="`" horiz-adv-x="837" 
d="M389 1606h158l131 -299h-115z" />
    <glyph glyph-name="a" unicode="a" horiz-adv-x="952" 
d="M788 0q-106 0 -141.5 42.5t-23.5 145.5q-106 -204 -334 -204q-149 0 -216.5 87t-37.5 236l2 15q17 92 59.5 149.5t116.5 97.5q86 48 260 99q141 46 197 82t69 108v8q18 95 -27 148t-161 53q-115 0 -175.5 -53t-80.5 -174l-12 -72h-144l17 88q30 160 130.5 245t268.5 85
q180 0 264.5 -90.5t50.5 -268.5l-98 -534q-20 -101 -5.5 -132.5t81.5 -31.5h18l-24 -129h-54zM350 104q117 0 201.5 89t110.5 237l51 258q-22 -34 -66 -55.5t-139 -50.5q-148 -50 -211 -90q-94 -65 -113 -181v-2q-19 -96 24.5 -150.5t141.5 -54.5z" />
    <glyph glyph-name="b" unicode="b" horiz-adv-x="991" 
d="M477 -16q-256 0 -278 235l-54 -219h-116l266 1522h139l-90 -514q93 182 281 182q167 0 248.5 -117.5t41.5 -329.5l-61 -348q-73 -411 -377 -411zM449 115q110 0 171 71.5t87 214.5l61 342q29 158 -24.5 239t-176.5 81q-105 0 -171.5 -72.5t-90.5 -202.5l-63 -364
q-27 -145 23 -227t184 -82z" />
    <glyph glyph-name="c" unicode="c" horiz-adv-x="937" 
d="M410 -18q-150 0 -230 57q-153 115 -104 393l69 395q31 176 135.5 269.5t268.5 93.5q195 0 283 -111t53 -311l-11 -57h-153l14 75q49 275 -194 275q-206 0 -252 -252l-72 -403q-24 -138 24 -215.5t177 -77.5q107 0 163.5 60.5t77.5 184.5l19 101h153l-26 -131
q-30 -172 -125.5 -259t-269.5 -87z" />
    <glyph glyph-name="d" unicode="d" horiz-adv-x="987" 
d="M651 178q-88 -196 -284 -196q-172 0 -252.5 116t-42.5 330l59 342q71 418 383 418q222 0 274 -195l93 529h139l-266 -1522h-115zM416 113q107 0 174.5 71.5t91.5 200.5l63 365q27 150 -23 230.5t-181 80.5q-110 0 -173 -75.5t-89 -219.5l-62 -338q-28 -158 25 -236.5
t174 -78.5z" />
    <glyph glyph-name="e" unicode="e" horiz-adv-x="944" 
d="M811 332q-32 -173 -128.5 -261.5t-272.5 -88.5q-148 0 -228 57q-155 117 -106 395l69 387q31 178 133.5 273.5t268.5 95.5q193 0 284 -115t56 -319l-39 -215h-615l-20 -119q-53 -309 205 -309q116 0 173.5 59.5t78.5 185.5l4 33h147zM254 662h473l18 102q29 145 -23 221
t-179 76q-215 0 -264 -262z" />
    <glyph glyph-name="f" unicode="f" horiz-adv-x="567" 
d="M401 1038l-182 -1038h-139l182 1038h-156l25 133h156l14 84q21 122 59 187q37 66 102 94.5t165 28.5h82l-25 -129h-61q-61 0 -99 -15q-34 -13 -53 -52.5t-33 -121.5l-14 -76h215l-25 -133h-213z" />
    <glyph glyph-name="g" unicode="g" horiz-adv-x="983" 
d="M334 -420q-171 0 -257.5 74t-92.5 211h151q8 -77 55.5 -117.5t149.5 -40.5q114 0 177.5 61t88.5 195l35 205q-89 -186 -274 -186q-172 0 -251.5 115.5t-41.5 330.5l59 342q36 214 130 316t247 102q125 0 194.5 -57t83.5 -166l56 206h112l-217 -1232q-64 -359 -405 -359z
M416 113q107 0 174.5 71.5t91.5 200.5l63 365q27 150 -23 230.5t-181 80.5q-110 0 -173 -75.5t-89 -219.5l-62 -338q-28 -158 25 -236.5t174 -78.5z" />
    <glyph glyph-name="h" unicode="h" horiz-adv-x="972" 
d="M168 0h-139l266 1522h139l-98 -551q94 217 299 217q149 0 218.5 -98.5t37.5 -282.5l-141 -807h-146l139 799q44 262 -172 262q-219 0 -268 -295z" />
    <glyph glyph-name="i" unicode="i" horiz-adv-x="405" 
d="M336 1294q-55 0 -73.5 25.5t-8.5 89.5q12 63 37.5 86t77.5 23q53 0 71.5 -26t8.5 -87q-12 -63 -37 -87t-76 -24zM29 0l204 1171h146l-207 -1171h-143z" />
    <glyph glyph-name="j" unicode="j" horiz-adv-x="407" 
d="M336 1294q-55 0 -73.5 25.5t-8.5 89.5q12 63 37.5 86t77.5 23q54 0 73 -26t7 -87q-10 -64 -35 -87.5t-78 -23.5zM-223 -358l22 137h51q56 0 91 12q32 14 51 50t31 108l215 1222h141l-217 -1237q-22 -123 -53 -178q-32 -63 -94 -88.5t-173 -25.5h-65z" />
    <glyph glyph-name="k" unicode="k" horiz-adv-x="907" 
d="M463 659l-225 -258l-70 -401h-139l266 1522h139l-158 -904l-10 -47l6 11l516 589h168l-372 -428l190 -743h-151l-160 657v2z" />
    <glyph glyph-name="l" unicode="l" horiz-adv-x="405" 
d="M295 1522h143l-266 -1522h-143z" />
    <glyph glyph-name="m" unicode="m" horiz-adv-x="1454" 
d="M172 0h-145l206 1171h115l-16 -188q92 213 282 213q108 0 169 -57t69 -156q92 205 289 205q141 0 203 -96t30 -277l-141 -815h-146l140 803q21 127 -12.5 192.5t-139.5 65.5q-101 0 -156 -68.5t-77 -193.5l-140 -799h-145l141 807q22 124 -10.5 192t-136.5 68
q-103 0 -161 -78t-83 -221z" />
    <glyph glyph-name="n" unicode="n" horiz-adv-x="972" 
d="M172 0h-145l206 1171h115l-18 -202q99 219 305 219q149 0 218.5 -98.5t37.5 -282.5l-141 -807h-146l139 799q44 262 -172 262q-214 0 -266 -295z" />
    <glyph glyph-name="o" unicode="o" horiz-adv-x="958" 
d="M410 -18q-149 0 -224 57q-159 115 -110 393l69 402q31 171 134.5 263.5t267.5 92.5q194 0 284.5 -117t55.5 -317l-72 -414q-63 -360 -405 -360zM420 113q111 0 172 64t82 188l71 411q24 138 -29.5 211.5t-172.5 73.5q-214 0 -254 -244l-72 -411q-24 -137 25.5 -215
t177.5 -78z" />
    <glyph glyph-name="p" unicode="p" horiz-adv-x="989" 
d="M475 -16q-250 0 -272 223l-109 -602h-137l276 1566h113l-16 -184q91 203 293 203q168 0 249 -117t41 -330l-61 -348q-33 -201 -127.5 -306t-249.5 -105zM449 115q108 0 170.5 72t87.5 214l59 342q29 158 -24 239t-175 81q-106 0 -172 -72t-90 -203l-65 -364
q-26 -145 25 -227t184 -82z" />
    <glyph glyph-name="q" unicode="q" horiz-adv-x="983" 
d="M543 -395l98 563q-89 -186 -274 -186q-172 0 -253.5 116t-43.5 330l61 342q68 418 379 418q125 0 194.5 -57t83.5 -166l56 206h112l-276 -1566h-137zM416 113q107 0 174.5 71.5t91.5 200.5l63 365q27 150 -23 230.5t-181 80.5q-110 0 -173 -75.5t-89 -219.5l-62 -338
q-28 -158 25 -236.5t174 -78.5z" />
    <glyph glyph-name="r" unicode="r" horiz-adv-x="628" 
d="M27 0l206 1171h111l-18 -229q42 130 116.5 183t208.5 53h41l-28 -156h-60q-147 0 -214 -72.5t-97 -247.5l-123 -702h-143z" />
    <glyph glyph-name="s" unicode="s" horiz-adv-x="872" 
d="M369 -18q-188 0 -278.5 98t-55.5 268l12 70h150l-15 -86q-19 -107 34.5 -164t168.5 -57q193 0 223 174l2 8q12 71 -16 119q-28 42 -75.5 74t-125.5 71q-81 43 -131 76q-67 47 -96.5 113t-11.5 167l4 17q23 127 116.5 195.5t239.5 68.5q175 0 258.5 -92t56.5 -246l-10 -55
h-141l10 59q17 102 -30 156.5t-150 54.5q-90 0 -144.5 -40t-66.5 -113l-2 -9q-12 -68 16 -116q18 -29 55 -58t60 -41.5t84 -44.5q61 -30 131 -76t100 -113.5t11 -170.5v-10q-51 -297 -383 -297z" />
    <glyph glyph-name="t" unicode="t" horiz-adv-x="614" 
d="M457 0h-76q-105 0 -168 29q-58 29 -71 104.5t12 214.5l122 690h-163l22 125q84 0 109 11q35 6 51.5 21.5t30.5 53.5q13 29 43 158h108l-41 -236h226l-23 -133h-227l-121 -678q-14 -85 -10 -143q7 -45 42 -61.5t111 -16.5h45z" />
    <glyph glyph-name="u" unicode="u" 
d="M623 205q-88 -221 -287 -221q-157 0 -219 100.5t-27 298.5l137 788h146l-140 -794q-44 -266 158 -266t254 295l135 765h146l-207 -1171h-115z" />
    <glyph glyph-name="v" unicode="v" horiz-adv-x="892" 
d="M268 0l-121 1171h144l78 -892l-4 -132l43 132l397 892h147l-538 -1171h-146z" />
    <glyph glyph-name="w" unicode="w" horiz-adv-x="1294" 
d="M303 0h-141l-17 1171h140l2 -845l-15 -172l60 176l364 841h92l56 -843l-8 -183l55 181l321 845h142l-463 -1171h-137l-52 829l11 170l-49 -174z" />
    <glyph glyph-name="x" unicode="x" horiz-adv-x="870" 
d="M94 0h-162l430 621l-190 550h156l123 -403l6 -59l24 59l269 403h159l-385 -553l209 -618h-158l-143 465l-4 63l-25 -63z" />
    <glyph glyph-name="y" unicode="y" horiz-adv-x="894" 
d="M-72 -334l25 135h70q58 0 104 11q41 10 69.5 42t61.5 101l27 61l-138 1155h146l88 -866l-6 -158l49 162l385 862h149l-571 -1234q-46 -108 -98 -170q-43 -58 -106 -79.5t-175 -21.5h-80z" />
    <glyph glyph-name="z" unicode="z" horiz-adv-x="794" 
d="M-20 113l667 927h-473l23 131h639l-21 -120l-655 -918h493l-22 -133l-672 -2z" />
    <glyph glyph-name="braceleft" unicode="{" horiz-adv-x="647" 
d="M276 -352q-101 0 -151 41q-91 74 -64 245q13 78 54 156q14 31 48.5 100t52.5 111.5t24 77.5q32 153 -111 153h-72l25 140h68q135 0 159 141q11 56 2 133q-1 9 -5 49t-5.5 54.5t-4 49.5t-2.5 55.5t1.5 48.5t5.5 52q22 122 93.5 191.5t213.5 69.5h133l-22 -121h-72
q-98 0 -143.5 -38t-59.5 -120q-11 -59 -2 -139q2 -19 8 -75.5t8.5 -84t2.5 -69t-6 -72.5q-34 -190 -213 -193v-4q84 0 123 -56.5t22 -148.5q-9 -61 -88 -235q-81 -173 -90 -232q-14 -82 18.5 -120.5t130.5 -38.5h74l-20 -121h-136z" />
    <glyph glyph-name="bar" unicode="|" horiz-adv-x="430" 
d="M6 -184l318 1804h145l-317 -1804h-146z" />
    <glyph glyph-name="braceright" unicode="}" horiz-adv-x="647" 
d="M-66 -209h72q98 0 143.5 38t59.5 120q13 65 4 139q-2 18 -8 75.5t-8.5 84t-2.5 68.5t5 73q34 190 213 193v4q-83 0 -121.5 57t-24.5 148q10 68 90 235q5 12 19 42.5t19.5 43.5t16 38t15.5 40t10.5 33.5t7.5 33.5q14 82 -18 121t-131 39h-74l21 121h135q101 0 151 -41
q94 -74 64 -246q-13 -79 -53 -155q-14 -32 -48.5 -99.5t-52.5 -110.5t-24 -79q-13 -82 14 -118t96 -36h72l-25 -139h-67q-136 0 -160 -141q-11 -56 -2 -133q1 -13 6 -58t7 -66.5t4 -58.5t0 -67.5t-7 -59.5q-22 -122 -93.5 -191t-213.5 -69h-133z" />
    <glyph glyph-name="asciitilde" unicode="~" horiz-adv-x="866" 
d="M223 1114q22 117 66.5 175.5t130.5 58.5q42 0 74 -16.5t69 -47.5q32 -32 56.5 -48.5t50.5 -16.5q38 0 58 25.5t32 94.5h102q-18 -115 -63.5 -173t-136.5 -58q-76 0 -142 66q-22 22 -33.5 32.5t-31.5 20.5t-39 10q-67 0 -88 -123h-105z" />
    <glyph glyph-name="uni00A0" unicode="&#xa0;" horiz-adv-x="450" 
 />
    <glyph glyph-name="exclamdown" unicode="&#xa1;" horiz-adv-x="524" 
d="M332 965q-57 0 -79 29.5t-9 95.5q10 65 38 90.5t85 25.5q111 0 88 -125q-10 -65 -38 -90.5t-85 -25.5zM88 39q9 58 37 201q47 248 82 403q41 196 49 217q30 -6 51 -6q23 0 53 6q0 -17 -8 -69q-14 -141 -47 -340q-29 -225 -63 -412l-56 -311h-153z" />
    <glyph glyph-name="cent" unicode="&#xa2;" horiz-adv-x="937" 
d="M805 328q-30 -163 -114.5 -250t-237.5 -94l-47 -258h-140l47 264q-302 54 -237 442l69 395q29 169 128.5 263t252.5 100l41 233h140l-43 -245q137 -31 193.5 -136.5t27.5 -273.5l-8 -47h-154l12 65q49 275 -192 275q-208 0 -254 -252l-72 -403q-24 -138 24 -215.5
t177 -77.5q107 0 163.5 60.5t77.5 184.5l17 91h151z" />
    <glyph glyph-name="sterling" unicode="&#xa3;" horiz-adv-x="1054" 
d="M631 -27q-75 0 -137 31.5t-132 87.5q-92 -121 -233 -121q-100 0 -142 52t-28 133q12 70 66 111.5t131 41.5q86 0 182 -61q13 49 14 63q23 128 -8 291h-221l20 117h181q-2 11 -14.5 79.5t-15.5 94.5t-8.5 81.5t-2.5 102t12 94.5q26 150 121 231t243 81q164 0 241 -89
t48 -251l-10 -58l-154 -2l15 72q17 96 -20.5 146.5t-127.5 50.5q-173 0 -207 -195q-8 -44 -10.5 -87.5t1 -95t6 -80t11.5 -92.5t11 -83h270l-20 -117h-240q10 -154 -10 -283q-11 -68 -39 -129q41 -28 65.5 -43t62 -29t71.5 -14q71 0 105 46.5t54 171.5l13 65h151l-16 -86
q-31 -182 -96 -255t-203 -73zM145 72q84 0 144 78q-72 59 -133 59q-72 0 -86 -66q-5 -33 14.5 -52t60.5 -19z" />
    <glyph glyph-name="currency" unicode="&#xa4;" horiz-adv-x="1044" 
d="M502 371q-112 0 -191 53l-184 -170l-86 90l192 176q-37 84 -16 201l14 76q21 109 80 186l-116 156l106 92l119 -158q80 45 184 45q113 0 184 -51l179 166l86 -88l-185 -170q45 -85 23 -205l-12 -78q-15 -104 -78 -182l114 -154l-106 -90l-115 152q-86 -47 -192 -47z
M510 494q96 0 163 60t81 153l12 73q18 94 -26 153.5t-144 59.5q-95 0 -159.5 -59t-82.5 -154l-12 -73q-14 -94 28.5 -153.5t139.5 -59.5z" />
    <glyph glyph-name="yen" unicode="&#xa5;" horiz-adv-x="884" 
d="M449 250l-43 -250h-146l43 250h-246l21 117h248l26 155h-246l23 117h240l-185 817h152l123 -625l4 -92l35 92l352 625h156l-488 -817h260l-22 -117h-258l-27 -155h258l-20 -117h-260z" />
    <glyph glyph-name="brokenbar" unicode="&#xa6;" horiz-adv-x="430" 
d="M324 1620h145l-139 -795h-146zM297 645l-145 -829h-146l146 829h145z" />
    <glyph glyph-name="section" unicode="&#xa7;" horiz-adv-x="944" 
d="M389 -18q-187 0 -276.5 97.5t-63.5 268.5l8 66h152l-12 -82q-14 -108 38 -164.5t166 -56.5q104 0 157 41.5t65 123.5l2 9q12 71 -21 110q-20 27 -61 55t-72 44t-102 51q-105 57 -152 88q-66 44 -92.5 102t-13.5 142l2 16q10 53 63.5 94.5t120.5 52.5q-57 76 -43 183l4 14
q23 127 114.5 193.5t237.5 66.5q175 0 260.5 -92t59.5 -246l-10 -55h-142l10 59q17 102 -31.5 156.5t-152.5 54.5q-90 0 -143 -38t-64 -109l-2 -8q-11 -61 27 -109q12 -14 30 -28.5t32.5 -24.5t40.5 -24.5t38.5 -21t44.5 -22.5t41 -20q147 -71 207.5 -150.5t42.5 -200.5
l-2 -8q-17 -104 -168 -149q58 -81 39 -180l-2 -11q-24 -151 -117.5 -219.5t-259.5 -68.5zM483 639q154 -73 211 -135q57 57 60 110l2 11q11 60 -21 108q-20 28 -56.5 55t-66 43.5t-82.5 42.5q-143 76 -196 125q-28 -19 -51 -50t-29 -64l-2 -8q-7 -38 5 -69t47 -60.5
t73.5 -52t105.5 -56.5z" />
    <glyph glyph-name="dieresis" unicode="&#xa8;" horiz-adv-x="843" 
d="M410 1307q-47 0 -66.5 24t-9.5 80q10 55 33 76.5t71 21.5q47 0 66.5 -24t9.5 -80q-10 -54 -34.5 -76t-69.5 -22zM686 1307q-47 0 -66.5 24t-9.5 80q10 54 34.5 76t70.5 22q47 0 66.5 -24t9.5 -80q-10 -55 -33.5 -76.5t-71.5 -21.5z" />
    <glyph glyph-name="copyright" unicode="&#xa9;" horiz-adv-x="1302" 
d="M588 -20q-248 0 -385 143q-150 153 -99 463l56 317q37 203 119 332q158 235 487 235q241 0 383 -145q154 -160 98 -461l-55 -317q-39 -215 -117 -332q-81 -123 -201 -179t-286 -56zM598 88q200 0 320 106.5t161 346.5l60 344q27 167 -17 270q-46 104 -141 155.5
t-223 51.5q-408 0 -486 -457l-59 -338q-27 -171 16 -272q46 -104 142 -155.5t227 -51.5zM621 248q-148 0 -204.5 86t-29.5 237l64 357q26 147 100 214.5t197 67.5q129 0 194 -76.5t41 -209.5l-14 -76h-113l12 80q37 178 -131 178q-73 0 -115 -40t-59 -134l-65 -367
q-38 -211 131 -211q73 0 114.5 43t59.5 144l12 75h115l-15 -79q-26 -146 -95 -217.5t-199 -71.5z" />
    <glyph glyph-name="ordfeminine" unicode="&#xaa;" horiz-adv-x="720" 
d="M698 639q-150 0 -161 121q-68 -131 -240 -131q-106 0 -153 61.5t-27 167.5l2 6q19 102 92 156q61 51 215 92q100 29 142.5 55.5t49.5 77.5q11 56 -19 87.5t-105 31.5q-72 0 -111 -30.5t-51 -100.5l-10 -59h-136l13 69q23 114 100.5 174t200.5 60q133 0 197.5 -65
t41.5 -189l-63 -344q-15 -77 -0.5 -98t72.5 -21h8l-25 -121h-33zM369 733q65 0 113 42.5t71 119.5q6 13 10 43l31 164q-13 -24 -42 -39t-91 -33q-93 -25 -135 -59q-53 -44 -64 -111q-11 -60 16.5 -93.5t90.5 -33.5z" />
    <glyph glyph-name="guillemotleft" unicode="&#xab;" horiz-adv-x="964" 
d="M317 223l-194 387l2 17l317 385h142l-332 -400l203 -389h-138zM670 223l-201 375l4 18l326 396h143l-344 -410l207 -379h-135z" />
    <glyph glyph-name="logicalnot" unicode="&#xac;" horiz-adv-x="1021" 
d="M725 424l66 377h-662l23 133h802l-92 -510h-137z" />
    <glyph glyph-name="uni00AD" unicode="&#xad;" horiz-adv-x="837" 
d="M123 688h629l-25 -143h-629z" />
    <glyph glyph-name="registered" unicode="&#xae;" horiz-adv-x="860" 
d="M481 776q-104 0 -172 43q-74 44 -106.5 124.5t-12.5 186.5l5 27q29 157 128 240.5t248 83.5q99 0 170 -45q74 -49 107.5 -130.5t15.5 -185.5l-4 -28q-28 -158 -128 -237t-251 -79zM489 846q125 0 202 65t97 197l5 16q23 127 -40.5 205t-187.5 78q-125 0 -202.5 -66
t-100.5 -198v-17q-23 -125 40 -202.5t187 -77.5zM453 1081l-25 -137h-70l66 373h143q72 0 101.5 -33.5t21.5 -87.5q-15 -70 -82 -86q29 -7 38 -27.5t1 -62.5l-10 -57q-4 -16 6 -19h-74q-4 12 -2 19q1 3 3.5 17t4.5 26.5t3 13.5q5 33 -7.5 47t-52.5 14h-65zM481 1253
l-20 -116h71q77 0 86 59q6 29 -10 43t-53 14h-74z" />
    <glyph glyph-name="macron" unicode="&#xaf;" horiz-adv-x="837" 
d="M344 1444h451l-19 -115h-450z" />
    <glyph glyph-name="degree" unicode="&#xb0;" horiz-adv-x="643" 
d="M414 995q-119 0 -178.5 75.5t-38.5 186.5q19 101 89.5 158.5t172.5 57.5q117 0 176.5 -76.5t40.5 -182.5q-18 -106 -88 -162.5t-174 -56.5zM420 1108q114 0 135 119q11 57 -17.5 96t-86.5 39q-113 0 -134 -119q-11 -57 17.5 -96t85.5 -39z" />
    <glyph glyph-name="plusminus" unicode="&#xb1;" horiz-adv-x="909" 
d="M561 836l-41 -232h-127l41 232h-237l22 129h238l41 233h127l-41 -233h241l-22 -129h-242zM113 352l22 131h606l-24 -131h-604z" />
    <glyph glyph-name="uni00B2" unicode="&#xb2;" horiz-adv-x="528" 
d="M92 735l12 66q8 60 41 113.5t65 83t87 71.5q5 4 33.5 25.5t36 28t29.5 24.5t30 28.5t21.5 27t20 31.5t9.5 32l2 10q7 47 -13.5 72.5t-64.5 25.5q-87 0 -102 -94l-18 -104h-107l19 112q14 80 70 129t143 49q109 0 152.5 -54.5t25.5 -139.5l-2 -12q-5 -32 -19.5 -62
t-27.5 -49t-43 -46.5t-43 -37.5t-50 -39q-41 -32 -55.5 -43.5t-44 -38.5t-45 -52t-25.5 -54h285l-18 -103h-404z" />
    <glyph glyph-name="uni00B3" unicode="&#xb3;" horiz-adv-x="538" 
d="M526 911q-34 -188 -221 -188q-224 0 -186 209l10 61h109l-13 -69q-15 -103 86 -103q53 0 77 24t32 79l6 24q21 109 -86 109h-57l16 94h59q57 0 82 25t33 79l4 21q23 98 -80 98q-47 0 -69.5 -21t-30.5 -65l-12 -71h-109l17 81q14 79 66 123.5t142 44.5q98 0 148 -50.5
t33 -139.5l-4 -16q-8 -65 -31.5 -104.5t-73.5 -55.5q81 -37 57 -162z" />
    <glyph glyph-name="acute" unicode="&#xb4;" horiz-adv-x="837" 
d="M707 1628h157l-303 -321h-115z" />
    <glyph glyph-name="paragraph" unicode="&#xb6;" horiz-adv-x="1138" 
d="M457 0l108 614h-61q-129 0 -211 56q-85 56 -118.5 152.5t-10.5 221.5v11q36 196 159.5 298.5t333.5 102.5h496l-254 -1456h-139l233 1331h-164l-233 -1331h-139zM588 741l104 590h-57q-279 0 -328 -291l-2 -8q-25 -140 35.5 -216.5t189.5 -74.5h58z" />
    <glyph glyph-name="periodcentered" unicode="&#xb7;" horiz-adv-x="501" 
d="M242 494q-57 0 -78.5 27.5t-9.5 96.5q10 66 38 92.5t87 26.5q56 0 77 -30.5t9 -94.5q-10 -66 -38 -92t-85 -26z" />
    <glyph glyph-name="cedilla" unicode="&#xb8;" horiz-adv-x="837" 
d="M246 -444q-124 0 -179 48t-57 146h129q-3 -98 113 -98q121 0 133 80q10 43 -18.5 64.5t-94.5 21.5h-61l35 194h108l-18 -108q96 -1 138 -47.5t28 -132.5q-14 -79 -80.5 -123.5t-175.5 -44.5z" />
    <glyph glyph-name="uni00B9" unicode="&#xb9;" horiz-adv-x="421" 
d="M78 735l14 101h117l74 419h-97l15 86q54 1 83.5 28t47.5 87h84l-109 -620h111l-15 -101h-325z" />
    <glyph glyph-name="ordmasculine" unicode="&#xba;" horiz-adv-x="718" 
d="M389 629q-148 0 -208 86.5t-34 230.5l50 281q23 122 97 186t193 64q139 0 206 -81.5t42 -221.5l-51 -293q-42 -252 -295 -252zM401 750q137 0 162 161l47 267q17 89 -16.5 135.5t-108.5 46.5q-136 0 -163 -154l-48 -268q-14 -89 16.5 -138.5t110.5 -49.5z" />
    <glyph glyph-name="guillemotright" unicode="&#xbb;" horiz-adv-x="964" 
d="M33 223l348 406l-201 383h135l195 -381l-2 -19l-330 -389h-145zM393 223l334 395l-199 394h136l192 -394l-2 -16l-317 -379h-144z" />
    <glyph glyph-name="onequarter" unicode="&#xbc;" horiz-adv-x="1181" 
d="M680 848l448 649l123 -90l-528 -590zM135 735l15 101h116l74 419h-96l14 86q54 1 83.5 28t47.5 87h84l-108 -620h110l-14 -101h-326zM909 156l-26 -156h-92l26 156h-280l14 77l364 488h93l-84 -479h88l-17 -86h-86zM-2 63l541 611l41 -31l-455 -678zM657 242h177l45 264
l24 84l-39 -68z" />
    <glyph glyph-name="onehalf" unicode="&#xbd;" horiz-adv-x="1181" 
d="M680 848l448 649l123 -90l-528 -590zM133 735l14 101h117l74 419h-96l14 86q54 1 83.5 28t47.5 87h84l-109 -620h111l-14 -101h-326zM590 0l12 66q8 60 41 113.5t65 83t87 71.5q8 6 34 26t35.5 27.5t30 24.5t29.5 28t22 26.5t19.5 31t9.5 32.5l2 11q7 47 -13.5 72.5
t-64.5 25.5q-87 0 -102 -94l-19 -105h-106l18 113q14 80 70 129t143 49q109 0 152.5 -54.5t25.5 -139.5l-2 -13q-4 -27 -12.5 -50.5t-25.5 -46.5t-27.5 -36.5t-38 -36.5t-36.5 -30.5t-42 -32.5q-39 -30 -55 -43t-44.5 -39.5t-44.5 -52t-26 -54.5h285l-19 -102h-403zM-2 63
l541 611l41 -31l-455 -678z" />
    <glyph glyph-name="threequarters" unicode="&#xbe;" horiz-adv-x="1181" 
d="M680 848l448 649l123 -90l-528 -590zM530 911q-34 -188 -221 -188q-224 0 -186 209l10 61h109l-13 -69q-15 -103 86 -103q53 0 77 24t32 79l6 24q21 109 -86 109h-57l16 94h59q57 0 82 25t33 79l4 21q23 98 -80 98q-47 0 -69.5 -21t-30.5 -65l-12 -71h-109l17 81
q14 79 66.5 123.5t142.5 44.5q98 0 147.5 -50.5t32.5 -139.5l-4 -16q-8 -65 -31.5 -104.5t-73.5 -55.5q82 -37 58 -162zM907 156l-26 -156h-93l27 156h-280l14 77l364 488h93l-84 -479h88l-17 -86h-86zM-2 63l541 611l41 -31l-455 -678zM655 242h176l46 264l24 84l-39 -68z
" />
    <glyph glyph-name="questiondown" unicode="&#xbf;" horiz-adv-x="964" 
d="M602 1157q57 0 78.5 -28.5t9.5 -94.5q-12 -65 -39.5 -92t-85.5 -27q-110 0 -86 123q12 67 39.5 93t83.5 26zM477 819q12 -12 68 -12q61 0 76 12q0 -1 -4.5 -34.5t-8.5 -47.5l-12 -63q-15 -86 -55 -152q-23 -36 -56 -70t-53 -49.5t-63 -46.5q-42 -28 -63 -44t-50 -45
t-45.5 -63.5t-24.5 -80.5l-18 -105q-15 -94 29 -155.5t159 -61.5q111 0 169 54t77 165l35 199h151l-38 -223q-60 -326 -406 -326q-183 0 -267.5 100t-58.5 263l19 102q16 96 51 150q22 37 53 69t55.5 51t63.5 46q42 27 65.5 45t53.5 48.5t48 69t28 88.5z" />
    <glyph glyph-name="Agrave" unicode="&#xc0;" horiz-adv-x="956" 
d="M418 1886h157l132 -299h-115zM645 315h-422l-127 -315h-151l608 1456h145l111 -1456h-145zM279 451h356l-43 714l6 138l-33 -138z" />
    <glyph glyph-name="Aacute" unicode="&#xc1;" horiz-adv-x="956" 
d="M848 1907h158l-304 -322h-114zM645 315h-422l-127 -315h-151l608 1456h145l111 -1456h-145zM279 451h356l-43 714l6 138l-33 -138z" />
    <glyph glyph-name="Acircumflex" unicode="&#xc2;" horiz-adv-x="956" 
d="M680 1774l-160 -195h-133l256 299h105l153 -299h-127zM645 315h-422l-127 -315h-151l608 1456h145l111 -1456h-145zM279 451h356l-43 714l6 138l-33 -138z" />
    <glyph glyph-name="Atilde" unicode="&#xc3;" horiz-adv-x="956" 
d="M346 1585q22 115 63 168t126 53q56 0 104 -28q15 -11 39.5 -30.5t38 -29.5t33 -19t36.5 -9q36 0 55 24t31 88h103q-20 -111 -64.5 -167t-130.5 -56q-58 0 -102 29q-11 9 -35.5 29.5t-38 30t-34.5 19t-40 9.5q-62 0 -81 -111h-103zM645 315h-422l-127 -315h-151l608 1456
h145l111 -1456h-145zM279 451h356l-43 714l6 138l-33 -138z" />
    <glyph glyph-name="Adieresis" unicode="&#xc4;" horiz-adv-x="956" 
d="M508 1577q-47 0 -66.5 24t-9.5 80q10 55 33.5 77t71.5 22q46 0 65.5 -24.5t9.5 -80.5q-10 -54 -34.5 -76t-69.5 -22zM784 1577q-46 0 -65.5 24t-9.5 80q10 54 34.5 76.5t69.5 22.5q95 0 76 -105q-10 -55 -33.5 -76.5t-71.5 -21.5zM645 315h-422l-127 -315h-151l608 1456
h145l111 -1456h-145zM279 451h356l-43 714l6 138l-33 -138z" />
    <glyph glyph-name="Aring" unicode="&#xc5;" horiz-adv-x="956" 
d="M662 1583q-100 0 -151.5 61.5t-33.5 153.5q17 84 77 131t144 47q96 0 149 -62t36 -149q-13 -87 -73.5 -134.5t-147.5 -47.5zM668 1686q85 0 106 90q8 43 -16 71.5t-68 28.5q-40 0 -69 -23.5t-35 -66.5q-8 -42 16 -71t66 -29zM645 315h-422l-127 -315h-151l608 1456h145
l111 -1456h-145zM279 451h356l-43 714l6 138l-33 -138z" />
    <glyph glyph-name="AE" unicode="&#xc6;" horiz-adv-x="1374" 
d="M639 319h-399l-162 -319h-156l758 1456h758l-23 -133h-586l-28 -520h454l-24 -135h-436l-31 -531h461l-23 -137h-581zM305 446h340l39 676l31 189l-68 -189z" />
    <glyph glyph-name="Ccedilla" unicode="&#xc7;" horiz-adv-x="999" 
d="M356 -467q-124 0 -178.5 48.5t-56.5 146.5h129q-3 -99 112 -99q122 0 134 80q10 43 -18.5 64.5t-94.5 21.5h-61l34 191q-117 17 -186 81.5t-85.5 165t5.5 234.5l25 143q8 43 24.5 134.5t24.5 134.5l24 145q42 237 153 343t296 106q200 0 293.5 -121t58.5 -328l-24 -137
h-154l27 141q26 154 -26.5 233.5t-184.5 79.5q-119 0 -188 -73t-99 -248l-100 -559q-61 -344 215 -344q120 0 182.5 73t91.5 248l19 92h153l-18 -100q-38 -227 -135 -335.5t-285 -114.5l-17 -99q96 -1 138 -47.5t28 -132.5q-14 -79 -80.5 -123.5t-175.5 -44.5z" />
    <glyph glyph-name="Egrave" unicode="&#xc8;" horiz-adv-x="876" 
d="M426 1886h158l131 -299h-115zM705 0h-666l254 1456h649l-24 -133h-502l-90 -508h436l-25 -135h-436l-96 -543h524z" />
    <glyph glyph-name="Eacute" unicode="&#xc9;" horiz-adv-x="876" 
d="M842 1907h157l-303 -322h-114zM705 0h-666l254 1456h649l-24 -133h-502l-90 -508h436l-25 -135h-436l-96 -543h524z" />
    <glyph glyph-name="Ecircumflex" unicode="&#xca;" horiz-adv-x="876" 
d="M682 1780l-160 -195h-133l256 299h105l153 -299h-127zM705 0h-666l254 1456h649l-24 -133h-502l-90 -508h436l-25 -135h-436l-96 -543h524z" />
    <glyph glyph-name="Edieresis" unicode="&#xcb;" horiz-adv-x="876" 
d="M514 1585q-95 0 -76 105q10 55 33.5 76.5t71.5 21.5q46 0 65.5 -24.5t9.5 -80.5q-10 -54 -34.5 -76t-69.5 -22zM791 1585q-95 0 -76 105q10 54 34.5 76t69.5 22q95 0 76 -105q-10 -55 -33 -76.5t-71 -21.5zM705 0h-666l254 1456h649l-24 -133h-502l-90 -508h436l-25 -135
h-436l-96 -543h524z" />
    <glyph glyph-name="Igrave" unicode="&#xcc;" horiz-adv-x="675" 
d="M285 1886h157l131 -299h-114zM-33 0l23 137h196l211 1186h-198l24 133h535l-23 -133h-196l-211 -1186h198l-22 -137h-537z" />
    <glyph glyph-name="Iacute" unicode="&#xcd;" horiz-adv-x="675" 
d="M711 1907h157l-303 -322h-114zM-33 0l23 137h196l211 1186h-198l24 133h535l-23 -133h-196l-211 -1186h198l-22 -137h-537z" />
    <glyph glyph-name="Icircumflex" unicode="&#xce;" horiz-adv-x="675" 
d="M553 1780l-160 -195h-133l256 299h105l153 -299h-127zM-33 0l23 137h196l211 1186h-198l24 133h535l-23 -133h-196l-211 -1186h198l-22 -137h-537z" />
    <glyph glyph-name="Idieresis" unicode="&#xcf;" horiz-adv-x="675" 
d="M381 1585q-95 0 -76 105q10 55 33.5 76.5t71.5 21.5q46 0 65.5 -24.5t9.5 -80.5q-10 -54 -34.5 -76t-69.5 -22zM657 1585q-46 0 -65.5 24.5t-9.5 80.5q10 54 34.5 76t69.5 22q95 0 76 -105q-10 -55 -33.5 -76.5t-71.5 -21.5zM-33 0l23 137h196l211 1186h-198l24 133h535
l-23 -133h-196l-211 -1186h198l-22 -137h-537z" />
    <glyph glyph-name="Eth" unicode="&#xd0;" horiz-adv-x="1038" 
d="M55 0l115 657h-139l24 134h138l116 665h324q131 0 217 -57q199 -126 143 -432l-90 -523q-76 -444 -495 -444h-353zM315 657l-94 -526h176q298 0 359 332l92 524q30 168 -33 255t-205 87h-176l-96 -538h201l-25 -134h-199z" />
    <glyph glyph-name="Ntilde" unicode="&#xd1;" horiz-adv-x="1079" 
d="M426 1573q22 115 62.5 168t125.5 53q55 0 105 -29q15 -11 39.5 -30.5t38 -29.5t33 -19t36.5 -9q36 0 55 24t31 89h103q-20 -111 -64.5 -167t-130.5 -56q-60 0 -102 28q-11 9 -35.5 29.5t-38 30t-34.5 19t-40 9.5q-63 0 -82 -110h-102zM172 0h-133l254 1456h131l291 -1028
l43 -219l20 242l178 1005h136l-256 -1456h-127l-295 1047l-39 245l-25 -278z" />
    <glyph glyph-name="Ograve" unicode="&#xd2;" horiz-adv-x="1034" 
d="M473 1905h158l131 -299h-115zM455 -20q-155 0 -240 61q-176 125 -121 426l96 549q41 242 153.5 348t295.5 106q126 0 215 -53q193 -118 145 -411l-102 -584q-39 -225 -142.5 -333.5t-299.5 -108.5zM463 117q122 0 188 72.5t97 240.5l106 588q26 157 -31 239t-190 82
q-123 0 -192 -74.5t-101 -250.5l-98 -559q-62 -338 221 -338z" />
    <glyph glyph-name="Oacute" unicode="&#xd3;" horiz-adv-x="1034" 
d="M879 1931h157l-303 -321h-115zM455 -20q-155 0 -240 61q-176 125 -121 426l96 549q41 242 153.5 348t295.5 106q126 0 215 -53q193 -118 145 -411l-102 -584q-39 -225 -142.5 -333.5t-299.5 -108.5zM463 117q122 0 188 72.5t97 240.5l106 588q26 157 -31 239t-190 82
q-123 0 -192 -74.5t-101 -250.5l-98 -559q-62 -338 221 -338z" />
    <glyph glyph-name="Ocircumflex" unicode="&#xd4;" horiz-adv-x="1034" 
d="M737 1800l-159 -194h-134l256 299h105l153 -299h-127zM455 -20q-155 0 -240 61q-176 125 -121 426l96 549q41 242 153.5 348t295.5 106q126 0 215 -53q193 -118 145 -411l-102 -584q-39 -225 -142.5 -333.5t-299.5 -108.5zM463 117q122 0 188 72.5t97 240.5l106 588
q26 157 -31 239t-190 82q-123 0 -192 -74.5t-101 -250.5l-98 -559q-62 -338 221 -338z" />
    <glyph glyph-name="Otilde" unicode="&#xd5;" horiz-adv-x="1034" 
d="M403 1610q22 115 63 168t126 53q54 0 104 -29q15 -10 39.5 -30t38.5 -30t33.5 -19t36.5 -9q36 0 55 24t31 89h102q-20 -112 -64 -167.5t-130 -55.5q-61 0 -103 28q-12 9 -36 29.5t-37 30.5t-34 19t-40 9q-63 0 -82 -110h-103zM455 -20q-155 0 -240 61q-176 125 -121 426
l96 549q41 242 153.5 348t295.5 106q126 0 215 -53q193 -118 145 -411l-102 -584q-39 -225 -142.5 -333.5t-299.5 -108.5zM463 117q122 0 188 72.5t97 240.5l106 588q26 157 -31 239t-190 82q-123 0 -192 -74.5t-101 -250.5l-98 -559q-62 -338 221 -338z" />
    <glyph glyph-name="Odieresis" unicode="&#xd6;" horiz-adv-x="1034" 
d="M563 1606q-47 0 -66.5 24t-9.5 80q10 55 33.5 76.5t71.5 21.5q47 0 66.5 -24t9.5 -80q-10 -54 -34.5 -76t-70.5 -22zM840 1606q-47 0 -66.5 24t-9.5 80q10 54 34.5 76t69.5 22q47 0 66.5 -24t9.5 -80q-10 -55 -33 -76.5t-71 -21.5zM455 -20q-155 0 -240 61
q-176 125 -121 426l96 549q41 242 153.5 348t295.5 106q126 0 215 -53q193 -118 145 -411l-102 -584q-39 -225 -142.5 -333.5t-299.5 -108.5zM463 117q122 0 188 72.5t97 240.5l106 588q26 157 -31 239t-190 82q-123 0 -192 -74.5t-101 -250.5l-98 -559q-62 -338 221 -338z
" />
    <glyph glyph-name="multiply" unicode="&#xd7;" horiz-adv-x="903" 
d="M459 653l-277 -237l-71 90l276 237l-172 215l102 89l172 -218l259 224l71 -90l-258 -224l187 -235l-101 -86z" />
    <glyph glyph-name="Oslash" unicode="&#xd8;" horiz-adv-x="1046" 
d="M453 -20q-93 0 -164 24l-86 -188h-117l111 237q-156 123 -105 422l96 541q41 241 157 347.5t300 106.5q108 0 168 -28l84 184h111l-107 -233q157 -121 107 -396l-27 -147q-7 -44 -23.5 -137.5t-23.5 -137.5l-27 -145q-39 -230 -145.5 -340t-308.5 -110zM238 461
q-28 -177 28 -256l490 1112q-48 22 -125 22q-118 0 -191.5 -76.5t-103.5 -248.5zM467 117q124 0 194.5 74t100.5 245l102 574q26 161 -26 241l-490 -1114q44 -20 119 -20z" />
    <glyph glyph-name="Ugrave" unicode="&#xd9;" horiz-adv-x="1007" 
d="M449 1874h157l131 -299h-114zM426 -20q-148 0 -225 59q-144 111 -92 424l176 993h149l-178 -1010q-30 -171 15 -248t165 -77q115 0 176 69.5t90 237.5l181 1028h149l-182 -1042q-40 -225 -136 -329.5t-288 -104.5z" />
    <glyph glyph-name="Uacute" unicode="&#xda;" horiz-adv-x="1007" 
d="M877 1894h157l-303 -321h-115zM426 -20q-148 0 -225 59q-144 111 -92 424l176 993h149l-178 -1010q-30 -171 15 -248t165 -77q115 0 176 69.5t90 237.5l181 1028h149l-182 -1042q-40 -225 -136 -329.5t-288 -104.5z" />
    <glyph glyph-name="Ucircumflex" unicode="&#xdb;" horiz-adv-x="1007" 
d="M713 1767l-160 -194h-133l256 299h104l154 -299h-127zM426 -20q-148 0 -225 59q-144 111 -92 424l176 993h149l-178 -1010q-30 -171 15 -248t165 -77q115 0 176 69.5t90 237.5l181 1028h149l-182 -1042q-40 -225 -136 -329.5t-288 -104.5z" />
    <glyph glyph-name="Udieresis" unicode="&#xdc;" horiz-adv-x="1007" 
d="M541 1573q-47 0 -66.5 24t-9.5 80q10 55 33.5 77t70.5 22q95 0 76 -105q-10 -54 -34.5 -76t-69.5 -22zM817 1573q-47 0 -66.5 24t-9.5 80q10 54 35 76.5t70 22.5q95 0 76 -105q-10 -55 -33.5 -76.5t-71.5 -21.5zM426 -20q-148 0 -225 59q-144 111 -92 424l176 993h149
l-178 -1010q-30 -171 15 -248t165 -77q115 0 176 69.5t90 237.5l181 1028h149l-182 -1042q-40 -225 -136 -329.5t-288 -104.5z" />
    <glyph glyph-name="Yacute" unicode="&#xdd;" horiz-adv-x="884" 
d="M823 1896h158l-303 -321h-115zM258 0l92 528l-166 928h154l104 -676l4 -137l54 139l350 674h158l-510 -934l-90 -522h-150z" />
    <glyph glyph-name="Thorn" unicode="&#xde;" horiz-adv-x="944" 
d="M229 283l-49 -283h-141l254 1456h143l-43 -244h187q191 0 273 -106t52 -291l-31 -170q-33 -185 -140 -274t-308 -88h-197zM371 1081l-119 -669h182q132 0 206 65.5t97 200.5l25 149q24 120 -27 187t-180 67h-184z" />
    <glyph glyph-name="germandbls" unicode="&#xdf;" horiz-adv-x="1013" 
d="M430 -2l-78 4l23 137q24 -6 90 -6q122 0 182.5 50t83.5 177l19 101q53 284 -209 284h-49l22 129h45q120 0 187.5 53t87.5 171l14 82q20 114 -32.5 172.5t-174.5 58.5q-115 0 -178.5 -56.5t-83.5 -172.5l-207 -1182h-143l209 1190q62 354 415 354q184 0 274.5 -96.5
t61.5 -263.5l-14 -84q-21 -125 -76 -197.5t-160 -97.5q210 -62 162 -342l-20 -115q-19 -108 -64 -192q-45 -80 -128 -119t-218 -39h-41z" />
    <glyph glyph-name="agrave" unicode="&#xe0;" 
d="M381 1618h158l131 -299h-115zM786 0q-106 0 -141.5 42.5t-23.5 145.5q-106 -204 -334 -204q-149 0 -216.5 87t-37.5 236l2 15q17 92 59.5 149.5t116.5 97.5q86 48 260 99q141 46 197 82t69 108v8q18 95 -27 148t-161 53q-115 0 -175.5 -53t-80.5 -174l-12 -72h-144l17 88
q30 160 130.5 245t268.5 85q180 0 264.5 -90.5t50.5 -268.5l-98 -534q-20 -101 -5.5 -132.5t81.5 -31.5h18l-24 -129h-54zM348 104q116 0 200.5 89t110.5 237l52 258q-22 -34 -66 -55.5t-139 -50.5q-148 -50 -211 -90q-94 -65 -113 -181v-2q-19 -96 24.5 -150.5t141.5 -54.5
z" />
    <glyph glyph-name="aacute" unicode="&#xe1;" 
d="M799 1640h157l-303 -321h-114zM786 0q-106 0 -141.5 42.5t-23.5 145.5q-106 -204 -334 -204q-149 0 -216.5 87t-37.5 236l2 15q17 92 59.5 149.5t116.5 97.5q86 48 260 99q141 46 197 82t69 108v8q18 95 -27 148t-161 53q-115 0 -175.5 -53t-80.5 -174l-12 -72h-144
l17 88q30 160 130.5 245t268.5 85q180 0 264.5 -90.5t50.5 -268.5l-98 -534q-20 -101 -5.5 -132.5t81.5 -31.5h18l-24 -129h-54zM348 104q116 0 200.5 89t110.5 237l52 258q-22 -34 -66 -55.5t-139 -50.5q-148 -50 -211 -90q-94 -65 -113 -181v-2q-19 -96 24.5 -150.5
t141.5 -54.5z" />
    <glyph glyph-name="acircumflex" unicode="&#xe2;" 
d="M645 1513l-160 -194h-133l256 299h105l153 -299h-127zM786 0q-106 0 -141.5 42.5t-23.5 145.5q-106 -204 -334 -204q-149 0 -216.5 87t-37.5 236l2 15q17 92 59.5 149.5t116.5 97.5q86 48 260 99q141 46 197 82t69 108v8q18 95 -27 148t-161 53q-115 0 -175.5 -53
t-80.5 -174l-12 -72h-144l17 88q30 160 130.5 245t268.5 85q180 0 264.5 -90.5t50.5 -268.5l-98 -534q-20 -101 -5.5 -132.5t81.5 -31.5h18l-24 -129h-54zM348 104q116 0 200.5 89t110.5 237l52 258q-22 -34 -66 -55.5t-139 -50.5q-148 -50 -211 -90q-94 -65 -113 -181v-2
q-19 -96 24.5 -150.5t141.5 -54.5z" />
    <glyph glyph-name="atilde" unicode="&#xe3;" 
d="M311 1323q22 115 63 168t126 53q56 0 104 -28q15 -11 39.5 -30.5t38.5 -30t33.5 -19.5t36.5 -9q36 0 55 24t31 89h102q-20 -111 -64.5 -167t-130.5 -56q-59 0 -102 29q-12 9 -36 29.5t-37 30.5t-34 19t-40 9q-63 0 -82 -111h-103zM786 0q-106 0 -141.5 42.5t-23.5 145.5
q-106 -204 -334 -204q-149 0 -216.5 87t-37.5 236l2 15q17 92 59.5 149.5t116.5 97.5q86 48 260 99q141 46 197 82t69 108v8q18 95 -27 148t-161 53q-115 0 -175.5 -53t-80.5 -174l-12 -72h-144l17 88q30 160 130.5 245t268.5 85q180 0 264.5 -90.5t50.5 -268.5l-98 -534
q-20 -101 -5.5 -132.5t81.5 -31.5h18l-24 -129h-54zM348 104q116 0 200.5 89t110.5 237l52 258q-22 -34 -66 -55.5t-139 -50.5q-148 -50 -211 -90q-94 -65 -113 -181v-2q-19 -96 24.5 -150.5t141.5 -54.5z" />
    <glyph glyph-name="adieresis" unicode="&#xe4;" 
d="M473 1319q-47 0 -66.5 24t-9.5 80q10 55 33.5 77t71.5 22q95 0 76 -105q-10 -54 -34.5 -76t-70.5 -22zM750 1319q-47 0 -66.5 24t-9.5 80q10 54 34.5 76.5t69.5 22.5q95 0 76 -105q-10 -55 -33 -76.5t-71 -21.5zM786 0q-106 0 -141.5 42.5t-23.5 145.5
q-106 -204 -334 -204q-149 0 -216.5 87t-37.5 236l2 15q17 92 59.5 149.5t116.5 97.5q86 48 260 99q141 46 197 82t69 108v8q18 95 -27 148t-161 53q-115 0 -175.5 -53t-80.5 -174l-12 -72h-144l17 88q30 160 130.5 245t268.5 85q180 0 264.5 -90.5t50.5 -268.5l-98 -534
q-20 -101 -5.5 -132.5t81.5 -31.5h18l-24 -129h-54zM348 104q116 0 200.5 89t110.5 237l52 258q-22 -34 -66 -55.5t-139 -50.5q-148 -50 -211 -90q-94 -65 -113 -181v-2q-19 -96 24.5 -150.5t141.5 -54.5z" />
    <glyph glyph-name="aring" unicode="&#xe5;" 
d="M623 1323q-100 0 -151.5 61.5t-33.5 153.5q17 84 77 131t144 47q96 0 149 -62t36 -149q-13 -87 -73.5 -134.5t-147.5 -47.5zM629 1425q84 0 106 91q8 43 -16 71.5t-68 28.5q-40 0 -69 -23.5t-35 -66.5q-8 -42 16 -71.5t66 -29.5zM786 0q-106 0 -141.5 42.5t-23.5 145.5
q-106 -204 -334 -204q-149 0 -216.5 87t-37.5 236l2 15q17 92 59.5 149.5t116.5 97.5q86 48 260 99q141 46 197 82t69 108v8q18 95 -27 148t-161 53q-115 0 -175.5 -53t-80.5 -174l-12 -72h-144l17 88q30 160 130.5 245t268.5 85q180 0 264.5 -90.5t50.5 -268.5l-98 -534
q-20 -101 -5.5 -132.5t81.5 -31.5h18l-24 -129h-54zM348 104q116 0 200.5 89t110.5 237l52 258q-22 -34 -66 -55.5t-139 -50.5q-148 -50 -211 -90q-94 -65 -113 -181v-2q-19 -96 24.5 -150.5t141.5 -54.5z" />
    <glyph glyph-name="ae" unicode="&#xe6;" horiz-adv-x="1531" 
d="M1399 332q-33 -174 -130 -262t-274 -88q-310 0 -338 239q-110 -237 -366 -237q-150 0 -217.5 87t-38.5 236l2 15q31 151 143 227q51 36 116.5 61.5t178.5 57.5q135 39 193 78t71 112v8q18 94 -28.5 147.5t-159.5 53.5q-112 0 -175 -53.5t-83 -173.5l-14 -84h-142l19 100
q30 160 131 245t268 85q216 0 281 -148q114 152 301 152q193 0 283 -114.5t55 -319.5l-39 -215h-615l-20 -119q-53 -309 205 -309q116 0 173 59.5t78 185.5l5 33h147zM842 662h473l18 102q29 146 -22.5 221.5t-177.5 75.5q-221 0 -267 -262zM352 104q116 0 200 88.5
t110 237.5l49 260q-23 -36 -69.5 -58.5t-141.5 -51.5q-85 -28 -130 -47t-81 -46q-87 -67 -105 -176v-2q-19 -96 25.5 -150.5t142.5 -54.5z" />
    <glyph glyph-name="ccedilla" unicode="&#xe7;" horiz-adv-x="937" 
d="M313 -467q-124 0 -178.5 48.5t-56.5 146.5h129q-3 -99 112 -99q122 0 134 80q10 43 -18.5 64.5t-94.5 21.5h-61l34 195q-302 54 -237 442l69 395q31 176 135.5 269.5t268.5 93.5q195 0 283 -111t53 -311l-11 -57h-153l14 75q49 275 -194 275q-206 0 -252 -252l-72 -403
q-24 -138 24 -215.5t177 -77.5q107 0 163.5 60.5t77.5 184.5l19 101h153l-26 -131q-30 -172 -124 -259t-261 -87l-17 -101q96 -1 138 -47.5t28 -132.5q-14 -79 -80.5 -123.5t-175.5 -44.5z" />
    <glyph glyph-name="egrave" unicode="&#xe8;" horiz-adv-x="944" 
d="M399 1618h158l131 -299h-115zM811 332q-32 -173 -128.5 -261.5t-272.5 -88.5q-148 0 -228 57q-155 117 -106 395l69 387q31 178 133.5 273.5t268.5 95.5q193 0 284 -115t56 -319l-39 -215h-615l-20 -119q-53 -309 205 -309q116 0 173.5 59.5t78.5 185.5l4 33h147z
M254 662h473l18 102q29 145 -23 221t-179 76q-215 0 -264 -262z" />
    <glyph glyph-name="eacute" unicode="&#xe9;" horiz-adv-x="944" 
d="M813 1640h158l-303 -321h-115zM811 332q-32 -173 -128.5 -261.5t-272.5 -88.5q-148 0 -228 57q-155 117 -106 395l69 387q31 178 133.5 273.5t268.5 95.5q193 0 284 -115t56 -319l-39 -215h-615l-20 -119q-53 -309 205 -309q116 0 173.5 59.5t78.5 185.5l4 33h147z
M254 662h473l18 102q29 145 -23 221t-179 76q-215 0 -264 -262z" />
    <glyph glyph-name="ecircumflex" unicode="&#xea;" horiz-adv-x="944" 
d="M653 1513l-159 -194h-134l256 299h105l153 -299h-126zM811 332q-32 -173 -128.5 -261.5t-272.5 -88.5q-148 0 -228 57q-155 117 -106 395l69 387q31 178 133.5 273.5t268.5 95.5q193 0 284 -115t56 -319l-39 -215h-615l-20 -119q-53 -309 205 -309q116 0 173.5 59.5
t78.5 185.5l4 33h147zM254 662h473l18 102q29 145 -23 221t-179 76q-215 0 -264 -262z" />
    <glyph glyph-name="edieresis" unicode="&#xeb;" horiz-adv-x="944" 
d="M479 1319q-47 0 -66.5 24t-9.5 80q10 55 33.5 77t71.5 22q95 0 76 -105q-10 -54 -34.5 -76t-70.5 -22zM756 1319q-47 0 -66.5 24t-9.5 80q10 54 34.5 76.5t69.5 22.5q95 0 76 -105q-10 -55 -33 -76.5t-71 -21.5zM811 332q-32 -173 -128.5 -261.5t-272.5 -88.5
q-148 0 -228 57q-155 117 -106 395l69 387q31 178 133.5 273.5t268.5 95.5q193 0 284 -115t56 -319l-39 -215h-615l-20 -119q-53 -309 205 -309q116 0 173.5 59.5t78.5 185.5l4 33h147zM254 662h473l18 102q29 145 -23 221t-179 76q-215 0 -264 -262z" />
    <glyph glyph-name="igrave" unicode="&#xec;" horiz-adv-x="405" 
d="M100 1602h158l131 -299h-115zM233 1171h146l-207 -1171h-143z" />
    <glyph glyph-name="iacute" unicode="&#xed;" horiz-adv-x="405" 
d="M532 1628h158l-303 -321h-115zM233 1171h146l-207 -1171h-143z" />
    <glyph glyph-name="icircumflex" unicode="&#xee;" horiz-adv-x="405" 
d="M365 1497l-160 -194h-133l256 299h104l154 -299h-127zM233 1171h146l-207 -1171h-143z" />
    <glyph glyph-name="idieresis" unicode="&#xef;" horiz-adv-x="405" 
d="M190 1303q-46 0 -65.5 24t-9.5 80q10 55 33 76.5t71 21.5q47 0 66.5 -24t9.5 -80q-10 -54 -34.5 -76t-70.5 -22zM467 1303q-47 0 -66.5 24t-9.5 80q10 54 34.5 76t70.5 22t65.5 -24t9.5 -80q-10 -55 -33 -76.5t-71 -21.5zM233 1171h146l-207 -1171h-143z" />
    <glyph glyph-name="eth" unicode="&#xf0;" horiz-adv-x="956" 
d="M406 -18q-149 0 -224 57q-156 118 -108 393l65 381q31 170 131 262t254 92q204 0 252 -161q-12 184 -149 335l-125 -86h-156l219 150q-99 95 -192 156h215q66 -50 92 -80l117 80h153l-211 -144q217 -266 150 -637l-78 -438q-60 -360 -405 -360zM418 113q111 0 171 64
t81 188l69 391q25 138 -29 211t-175 73q-206 0 -252 -243l-70 -391q-24 -137 26.5 -215t178.5 -78z" />
    <glyph glyph-name="ntilde" unicode="&#xf1;" horiz-adv-x="972" 
d="M342 1319q22 115 62.5 168t125.5 53q55 0 105 -29q15 -11 39.5 -30.5t38 -29.5t33 -19t36.5 -9q36 0 55 24t31 89h103q-20 -111 -64.5 -167t-130.5 -56q-60 0 -102 28q-12 9 -36 29.5t-37.5 30.5t-34.5 19.5t-40 9.5q-63 0 -82 -111h-102zM172 0h-145l206 1171h115
l-18 -202q99 219 305 219q149 0 218.5 -98.5t37.5 -282.5l-141 -807h-146l139 799q44 262 -172 262q-214 0 -266 -295z" />
    <glyph glyph-name="ograve" unicode="&#xf2;" horiz-adv-x="958" 
d="M385 1618h158l131 -299h-115zM410 -18q-149 0 -224 57q-159 115 -110 393l69 402q31 171 134.5 263.5t267.5 92.5q194 0 284.5 -117t55.5 -317l-72 -414q-63 -360 -405 -360zM420 113q111 0 172 64t82 188l71 411q24 138 -29.5 211.5t-172.5 73.5q-214 0 -254 -244
l-72 -411q-24 -137 25.5 -215t177.5 -78z" />
    <glyph glyph-name="oacute" unicode="&#xf3;" horiz-adv-x="958" 
d="M811 1638h158l-303 -321h-115zM410 -18q-149 0 -224 57q-159 115 -110 393l69 402q31 171 134.5 263.5t267.5 92.5q194 0 284.5 -117t55.5 -317l-72 -414q-63 -360 -405 -360zM420 113q111 0 172 64t82 188l71 411q24 138 -29.5 211.5t-172.5 73.5q-214 0 -254 -244
l-72 -411q-24 -137 25.5 -215t177.5 -78z" />
    <glyph glyph-name="ocircumflex" unicode="&#xf4;" horiz-adv-x="958" 
d="M649 1511l-160 -194h-133l256 299h105l153 -299h-127zM410 -18q-149 0 -224 57q-159 115 -110 393l69 402q31 171 134.5 263.5t267.5 92.5q194 0 284.5 -117t55.5 -317l-72 -414q-63 -360 -405 -360zM420 113q111 0 172 64t82 188l71 411q24 138 -29.5 211.5t-172.5 73.5
q-214 0 -254 -244l-72 -411q-24 -137 25.5 -215t177.5 -78z" />
    <glyph glyph-name="otilde" unicode="&#xf5;" horiz-adv-x="958" 
d="M313 1323q22 115 63 168t126 53q56 0 104 -28q15 -11 39.5 -30.5t38.5 -30t33.5 -19.5t36.5 -9q36 0 55 24t31 89h102q-20 -112 -64 -167.5t-130 -55.5q-60 0 -103 29q-12 9 -36 29.5t-37 30.5t-34 19t-40 9q-63 0 -82 -111h-103zM410 -18q-149 0 -224 57
q-159 115 -110 393l69 402q31 171 134.5 263.5t267.5 92.5q194 0 284.5 -117t55.5 -317l-72 -414q-63 -360 -405 -360zM420 113q111 0 172 64t82 188l71 411q24 138 -29.5 211.5t-172.5 73.5q-214 0 -254 -244l-72 -411q-24 -137 25.5 -215t177.5 -78z" />
    <glyph glyph-name="odieresis" unicode="&#xf6;" horiz-adv-x="958" 
d="M477 1317q-47 0 -66.5 24t-9.5 80q10 55 33.5 77t71.5 22q95 0 76 -105q-10 -54 -34.5 -76t-70.5 -22zM754 1317q-47 0 -66.5 24t-9.5 80q10 54 34.5 76.5t69.5 22.5q95 0 76 -105q-10 -55 -33 -76.5t-71 -21.5zM410 -18q-149 0 -224 57q-159 115 -110 393l69 402
q31 171 134.5 263.5t267.5 92.5q194 0 284.5 -117t55.5 -317l-72 -414q-63 -360 -405 -360zM420 113q111 0 172 64t82 188l71 411q24 138 -29.5 211.5t-172.5 73.5q-214 0 -254 -244l-72 -411q-24 -137 25.5 -215t177.5 -78z" />
    <glyph glyph-name="divide" unicode="&#xf7;" horiz-adv-x="909" 
d="M510 911q-45 0 -61 19.5t-9 68.5q7 48 32.5 69.5t70.5 21.5q43 0 58.5 -21t8.5 -70q-13 -88 -100 -88zM158 784h663l-24 -131h-662zM410 352q-46 0 -61.5 18t-8.5 68q10 51 33 69.5t69 18.5q45 0 61.5 -19t6.5 -69q-7 -48 -31 -67t-69 -19z" />
    <glyph glyph-name="oslash" unicode="&#xf8;" horiz-adv-x="958" 
d="M410 -18q-89 0 -142 18l-84 -184h-104l104 225q-157 111 -108 391l69 402q31 171 134.5 263.5t267.5 92.5q86 0 153 -25l82 174h101l-103 -217q153 -111 107 -366l-72 -414q-63 -360 -405 -360zM217 406q-24 -149 33 -224l393 860q-37 19 -100 19q-214 0 -254 -244z
M420 113q111 0 172 64t82 188l71 411q23 136 -28 209l-391 -858q47 -14 94 -14z" />
    <glyph glyph-name="ugrave" unicode="&#xf9;" 
d="M365 1581h157l131 -299h-114zM623 205q-88 -221 -287 -221q-157 0 -219 100.5t-27 298.5l137 788h146l-140 -794q-44 -266 158 -266t254 295l135 765h146l-207 -1171h-115z" />
    <glyph glyph-name="uacute" unicode="&#xfa;" 
d="M788 1604h158l-303 -322h-115zM623 205q-88 -221 -287 -221q-157 0 -219 100.5t-27 298.5l137 788h146l-140 -794q-44 -266 158 -266t254 295l135 765h146l-207 -1171h-115z" />
    <glyph glyph-name="ucircumflex" unicode="&#xfb;" 
d="M631 1485l-160 -195h-133l256 299h104l154 -299h-127zM623 205q-88 -221 -287 -221q-157 0 -219 100.5t-27 298.5l137 788h146l-140 -794q-44 -266 158 -266t254 295l135 765h146l-207 -1171h-115z" />
    <glyph glyph-name="udieresis" unicode="&#xfc;" 
d="M457 1290q-95 0 -76 105q10 55 33 76.5t71 21.5q47 0 66.5 -24t9.5 -80q-10 -54 -34.5 -76.5t-69.5 -22.5zM733 1290q-95 0 -76 105q10 54 34.5 76t70.5 22q47 0 66.5 -24t9.5 -80q-10 -55 -33.5 -77t-71.5 -22zM623 205q-88 -221 -287 -221q-157 0 -219 100.5t-27 298.5
l137 788h146l-140 -794q-44 -266 158 -266t254 295l135 765h146l-207 -1171h-115z" />
    <glyph glyph-name="yacute" unicode="&#xfd;" horiz-adv-x="894" 
d="M758 1604h157l-303 -322h-114zM-72 -334l25 135h70q58 0 104 11q41 10 69.5 42t61.5 101l27 61l-138 1155h146l88 -866l-6 -158l49 162l385 862h149l-571 -1234q-46 -108 -98 -170q-43 -58 -106 -79.5t-175 -21.5h-80z" />
    <glyph glyph-name="thorn" unicode="&#xfe;" horiz-adv-x="989" 
d="M475 -16q-247 0 -272 217l-107 -596h-139l338 1917h139l-88 -506q89 174 277 174q168 0 249 -117t41 -330l-61 -348q-33 -201 -127.5 -306t-249.5 -105zM449 115q108 0 170.5 72t87.5 214l59 342q29 158 -24 239t-175 81q-106 0 -172 -72t-90 -203l-65 -364
q-26 -145 25 -227t184 -82z" />
    <glyph glyph-name="ydieresis" unicode="&#xff;" horiz-adv-x="894" 
d="M426 1290q-95 0 -76 105q10 55 33.5 76.5t71.5 21.5q47 0 66 -24t9 -80q-10 -54 -34.5 -76.5t-69.5 -22.5zM702 1290q-46 0 -65.5 24.5t-9.5 80.5q10 54 34.5 76t69.5 22q47 0 66.5 -24t9.5 -80q-10 -55 -33.5 -77t-71.5 -22zM-72 -334l25 135h70q58 0 104 11
q41 10 69.5 42t61.5 101l27 61l-138 1155h146l88 -866l-6 -158l49 162l385 862h149l-571 -1234q-46 -108 -98 -170q-43 -58 -106 -79.5t-175 -21.5h-80z" />
    <glyph glyph-name="Amacron" unicode="&#x100;" horiz-adv-x="956" 
d="M442 1722h451l-19 -114h-450zM645 315h-422l-127 -315h-151l608 1456h145l111 -1456h-145zM279 451h356l-43 714l6 138l-33 -138z" />
    <glyph glyph-name="amacron" unicode="&#x101;" 
d="M406 1456h450l-18 -115h-451zM786 0q-106 0 -141.5 42.5t-23.5 145.5q-106 -204 -334 -204q-149 0 -216.5 87t-37.5 236l2 15q17 92 59.5 149.5t116.5 97.5q86 48 260 99q141 46 197 82t69 108v8q18 95 -27 148t-161 53q-115 0 -175.5 -53t-80.5 -174l-12 -72h-144l17 88
q30 160 130.5 245t268.5 85q180 0 264.5 -90.5t50.5 -268.5l-98 -534q-20 -101 -5.5 -132.5t81.5 -31.5h18l-24 -129h-54zM348 104q116 0 200.5 89t110.5 237l52 258q-22 -34 -66 -55.5t-139 -50.5q-148 -50 -211 -90q-94 -65 -113 -181v-2q-19 -96 24.5 -150.5t141.5 -54.5
z" />
    <glyph glyph-name="Abreve" unicode="&#x102;" horiz-adv-x="956" 
d="M664 1581q-143 0 -199.5 78t-32.5 221h111q-14 -99 15 -146t116 -48q84 1 129.5 48.5t64.5 145.5h113q-28 -147 -102.5 -223t-214.5 -76zM645 315h-422l-127 -315h-151l608 1456h145l111 -1456h-145zM279 451h356l-43 714l6 138l-33 -138z" />
    <glyph glyph-name="abreve" unicode="&#x103;" 
d="M618 1315q-143 0 -199 77.5t-32 221.5h111q-14 -99 15 -146.5t116 -48.5q84 1 129.5 49t64.5 146h113q-28 -147 -103 -223t-215 -76zM786 0q-106 0 -141.5 42.5t-23.5 145.5q-106 -204 -334 -204q-149 0 -216.5 87t-37.5 236l2 15q17 92 59.5 149.5t116.5 97.5
q86 48 260 99q141 46 197 82t69 108v8q18 95 -27 148t-161 53q-115 0 -175.5 -53t-80.5 -174l-12 -72h-144l17 88q30 160 130.5 245t268.5 85q180 0 264.5 -90.5t50.5 -268.5l-98 -534q-20 -101 -5.5 -132.5t81.5 -31.5h18l-24 -129h-54zM348 104q116 0 200.5 89t110.5 237
l52 258q-22 -34 -66 -55.5t-139 -50.5q-148 -50 -211 -90q-94 -65 -113 -181v-2q-19 -96 24.5 -150.5t141.5 -54.5z" />
    <glyph glyph-name="Aogonek" unicode="&#x104;" horiz-adv-x="956" 
d="M938 -201q-85 -184 -281 -184q-104 0 -153 54.5t-35 142.5q12 59 56.5 105.5t136.5 100.5l-17 297h-422l-127 -315h-151l608 1456h145l111 -1456h-4q-121 -75 -167.5 -115.5t-53.5 -83.5q-7 -41 16.5 -64.5t73.5 -23.5q93 0 131 86h133zM279 451h356l-43 714l6 138
l-33 -138z" />
    <glyph glyph-name="aogonek" unicode="&#x105;" 
d="M694 -385q-104 0 -153 54.5t-35 142.5q23 106 184 202q-46 17 -61.5 58.5t-7.5 115.5q-106 -204 -334 -204q-149 0 -216.5 87t-37.5 236l2 15q17 92 59.5 149.5t116.5 97.5q86 48 260 99q141 46 197 82t69 108v8q18 95 -27 148t-161 53q-115 0 -175.5 -53t-80.5 -174
l-12 -72h-144l17 88q30 160 130.5 245t268.5 85q180 0 264.5 -90.5t50.5 -268.5l-98 -534q-20 -101 -5.5 -132.5t81.5 -31.5h18l-24 -127l2 -2q-121 -75 -167.5 -115.5t-53.5 -83.5q-7 -41 16.5 -64.5t73.5 -23.5q93 0 131 86h133q-85 -184 -281 -184zM348 104
q116 0 200.5 89t110.5 237l52 258q-22 -34 -66 -55.5t-139 -50.5q-148 -50 -211 -90q-94 -65 -113 -181v-2q-19 -96 24.5 -150.5t141.5 -54.5z" />
    <glyph glyph-name="Cacute" unicode="&#x106;" horiz-adv-x="999" 
d="M901 1927h158l-303 -321h-115zM440 -20q-152 0 -237 61q-168 120 -113 426l25 143q8 43 24.5 134.5t24.5 134.5l24 145q42 237 153 343t296 106q200 0 293.5 -121t58.5 -328l-24 -137h-154l27 141q26 154 -26.5 233.5t-184.5 79.5q-119 0 -188 -73t-99 -248l-100 -559
q-61 -344 215 -344q120 0 182.5 73t91.5 248l19 92h153l-18 -100q-39 -233 -141 -341.5t-302 -108.5z" />
    <glyph glyph-name="cacute" unicode="&#x107;" horiz-adv-x="937" 
d="M811 1640h158l-303 -321h-115zM410 -18q-150 0 -230 57q-153 115 -104 393l69 395q31 176 135.5 269.5t268.5 93.5q195 0 283 -111t53 -311l-11 -57h-153l14 75q49 275 -194 275q-206 0 -252 -252l-72 -403q-24 -138 24 -215.5t177 -77.5q107 0 163.5 60.5t77.5 184.5
l19 101h153l-26 -131q-30 -172 -125.5 -259t-269.5 -87z" />
    <glyph glyph-name="Ccircumflex" unicode="&#x108;" horiz-adv-x="999" 
d="M735 1800l-160 -194h-133l256 299h105l153 -299h-127zM440 -20q-152 0 -237 61q-168 120 -113 426l25 143q8 43 24.5 134.5t24.5 134.5l24 145q42 237 153 343t296 106q200 0 293.5 -121t58.5 -328l-24 -137h-154l27 141q26 154 -26.5 233.5t-184.5 79.5q-119 0 -188 -73
t-99 -248l-100 -559q-61 -344 215 -344q120 0 182.5 73t91.5 248l19 92h153l-18 -100q-39 -233 -141 -341.5t-302 -108.5z" />
    <glyph glyph-name="ccircumflex" unicode="&#x109;" horiz-adv-x="937" 
d="M649 1513l-160 -194h-133l256 299h105l153 -299h-127zM410 -18q-150 0 -230 57q-153 115 -104 393l69 395q31 176 135.5 269.5t268.5 93.5q195 0 283 -111t53 -311l-11 -57h-153l14 75q49 275 -194 275q-206 0 -252 -252l-72 -403q-24 -138 24 -215.5t177 -77.5
q107 0 163.5 60.5t77.5 184.5l19 101h153l-26 -131q-30 -172 -125.5 -259t-269.5 -87z" />
    <glyph glyph-name="Cdotaccent" unicode="&#x10a;" horiz-adv-x="999" 
d="M702 1602q-53 0 -75.5 27t-12.5 91q12 64 39 88.5t82 24.5q106 0 84 -119q-10 -63 -36.5 -87.5t-80.5 -24.5zM440 -20q-152 0 -237 61q-168 120 -113 426l25 143q8 43 24.5 134.5t24.5 134.5l24 145q42 237 153 343t296 106q200 0 293.5 -121t58.5 -328l-24 -137h-154
l27 141q26 154 -26.5 233.5t-184.5 79.5q-119 0 -188 -73t-99 -248l-100 -559q-61 -344 215 -344q120 0 182.5 73t91.5 248l19 92h153l-18 -100q-39 -233 -141 -341.5t-302 -108.5z" />
    <glyph glyph-name="cdotaccent" unicode="&#x10b;" horiz-adv-x="937" 
d="M612 1315q-53 0 -75.5 27.5t-12.5 91.5q12 63 39 87.5t82 24.5q106 0 84 -119q-10 -63 -36.5 -87.5t-80.5 -24.5zM410 -18q-150 0 -230 57q-153 115 -104 393l69 395q31 176 135.5 269.5t268.5 93.5q195 0 283 -111t53 -311l-11 -57h-153l14 75q49 275 -194 275
q-206 0 -252 -252l-72 -403q-24 -138 24 -215.5t177 -77.5q107 0 163.5 60.5t77.5 184.5l19 101h153l-26 -131q-30 -172 -125.5 -259t-269.5 -87z" />
    <glyph glyph-name="Ccaron" unicode="&#x10c;" horiz-adv-x="999" 
d="M647 1606l-151 295h129l90 -187l159 187h132l-256 -295h-103zM440 -20q-152 0 -237 61q-168 120 -113 426l25 143q8 43 24.5 134.5t24.5 134.5l24 145q42 237 153 343t296 106q200 0 293.5 -121t58.5 -328l-24 -137h-154l27 141q26 154 -26.5 233.5t-184.5 79.5
q-119 0 -188 -73t-99 -248l-100 -559q-61 -344 215 -344q120 0 182.5 73t91.5 248l19 92h153l-18 -100q-39 -233 -141 -341.5t-302 -108.5z" />
    <glyph glyph-name="ccaron" unicode="&#x10d;" horiz-adv-x="937" 
d="M557 1319l-151 295h129l90 -187l159 187h131l-256 -295h-102zM410 -18q-150 0 -230 57q-153 115 -104 393l69 395q31 176 135.5 269.5t268.5 93.5q195 0 283 -111t53 -311l-11 -57h-153l14 75q49 275 -194 275q-206 0 -252 -252l-72 -403q-24 -138 24 -215.5t177 -77.5
q107 0 163.5 60.5t77.5 184.5l19 101h153l-26 -131q-30 -172 -125.5 -259t-269.5 -87z" />
    <glyph glyph-name="Dcaron" unicode="&#x10e;" horiz-adv-x="1021" 
d="M629 1585l-152 295h129l90 -186l160 186h131l-256 -295h-102zM293 1456h323q202 0 301.5 -128.5t59.5 -360.5l-90 -523q-76 -444 -496 -444h-352zM418 1329l-213 -1198h176q150 0 238.5 82t119.5 250l92 524q30 168 -32 255t-205 87h-176z" />
    <glyph glyph-name="dcaron" unicode="&#x10f;" horiz-adv-x="987" 
d="M1217 1642h129l-152 -303h-98zM651 178q-88 -196 -284 -196q-172 0 -252.5 116t-42.5 330l59 342q71 418 383 418q222 0 274 -195l93 529h139l-266 -1522h-115zM416 113q107 0 174.5 71.5t91.5 200.5l63 365q27 150 -23 230.5t-181 80.5q-110 0 -173 -75.5t-89 -219.5
l-62 -338q-28 -158 25 -236.5t174 -78.5z" />
    <glyph glyph-name="Dcroat" unicode="&#x110;" horiz-adv-x="1038" 
d="M55 0l115 657h-139l24 134h138l116 665h324q131 0 217 -57q199 -126 143 -432l-90 -523q-76 -444 -495 -444h-353zM315 657l-94 -526h176q298 0 359 332l92 524q30 168 -33 255t-205 87h-176l-96 -538h201l-25 -134h-199z" />
    <glyph glyph-name="dcroat" unicode="&#x111;" horiz-adv-x="987" 
d="M651 178q-88 -196 -284 -196q-172 0 -252.5 116t-42.5 330l59 342q71 418 383 418q222 0 274 -195l52 301h-164l18 95h164l23 133h139l-23 -133h115l-18 -95h-113l-227 -1294h-115zM416 113q107 0 174.5 71.5t91.5 200.5l63 365q27 150 -23 230.5t-181 80.5
q-110 0 -173 -75.5t-89 -219.5l-62 -338q-28 -158 25 -236.5t174 -78.5z" />
    <glyph glyph-name="Emacron" unicode="&#x112;" horiz-adv-x="876" 
d="M451 1739h450l-18 -115h-451zM705 0h-666l254 1456h649l-24 -133h-502l-90 -508h436l-25 -135h-436l-96 -543h524z" />
    <glyph glyph-name="emacron" unicode="&#x113;" horiz-adv-x="944" 
d="M422 1456h450l-18 -115h-451zM811 332q-32 -173 -128.5 -261.5t-272.5 -88.5q-148 0 -228 57q-155 117 -106 395l69 387q31 178 133.5 273.5t268.5 95.5q193 0 284 -115t56 -319l-39 -215h-615l-20 -119q-53 -309 205 -309q116 0 173.5 59.5t78.5 185.5l4 33h147z
M254 662h473l18 102q29 145 -23 221t-179 76q-215 0 -264 -262z" />
    <glyph glyph-name="Ebreve" unicode="&#x114;" horiz-adv-x="876" 
d="M662 1581q-143 0 -199.5 78t-32.5 221h111q-14 -99 15 -146t116 -48q84 1 129.5 48.5t64.5 145.5h113q-28 -147 -102.5 -223t-214.5 -76zM705 0h-666l254 1456h649l-24 -133h-502l-90 -508h436l-25 -135h-436l-96 -543h524z" />
    <glyph glyph-name="ebreve" unicode="&#x115;" horiz-adv-x="944" 
d="M641 1315q-143 0 -199 77.5t-32 221.5h110q-14 -99 15 -146.5t116 -48.5q84 1 130 49t65 146h112q-28 -147 -102.5 -223t-214.5 -76zM811 332q-32 -173 -128.5 -261.5t-272.5 -88.5q-148 0 -228 57q-155 117 -106 395l69 387q31 178 133.5 273.5t268.5 95.5
q193 0 284 -115t56 -319l-39 -215h-615l-20 -119q-53 -309 205 -309q116 0 173.5 59.5t78.5 185.5l4 33h147zM254 662h473l18 102q29 145 -23 221t-179 76q-215 0 -264 -262z" />
    <glyph glyph-name="Edotaccent" unicode="&#x116;" horiz-adv-x="876" 
d="M647 1581q-53 0 -75.5 27.5t-12.5 91.5q12 63 39 87.5t82 24.5q106 0 84 -118q-10 -63 -36.5 -88t-80.5 -25zM705 0h-666l254 1456h649l-24 -133h-502l-90 -508h436l-25 -135h-436l-96 -543h524z" />
    <glyph glyph-name="edotaccent" unicode="&#x117;" horiz-adv-x="944" 
d="M625 1315q-53 0 -75.5 27.5t-12.5 91.5q12 64 38.5 88t81.5 24q106 0 84 -119q-10 -63 -36 -87.5t-80 -24.5zM811 332q-32 -173 -128.5 -261.5t-272.5 -88.5q-148 0 -228 57q-155 117 -106 395l69 387q31 178 133.5 273.5t268.5 95.5q193 0 284 -115t56 -319l-39 -215
h-615l-20 -119q-53 -309 205 -309q116 0 173.5 59.5t78.5 185.5l4 33h147zM254 662h473l18 102q29 145 -23 221t-179 76q-215 0 -264 -262z" />
    <glyph glyph-name="Eogonek" unicode="&#x118;" horiz-adv-x="876" 
d="M838 -201q-85 -184 -281 -184q-104 0 -153 54.5t-35 142.5q21 103 161 188h-491l254 1456h649l-24 -133h-502l-90 -508h436l-25 -135h-436l-96 -543h524l-24 -137q-122 -75 -168.5 -115.5t-53.5 -83.5q-7 -41 16.5 -64.5t73.5 -23.5q94 0 132 86h133z" />
    <glyph glyph-name="eogonek" unicode="&#x119;" horiz-adv-x="944" 
d="M465 -356q-104 0 -153.5 54.5t-35.5 141.5q16 81 97 144q-136 9 -205 67q-135 113 -92 383l69 387q31 178 133.5 273.5t268.5 95.5q193 0 284 -115t56 -319l-39 -215h-615l-20 -119q-53 -309 205 -309q116 0 173.5 59.5t78.5 185.5l4 33h147l-10 -59q-42 -251 -229 -322
q-103 -62 -143.5 -100t-47.5 -80q-7 -41 16.5 -64.5t73.5 -23.5q93 0 131 86h133q-85 -184 -280 -184zM254 662h473l18 102q29 145 -23 221t-179 76q-215 0 -264 -262z" />
    <glyph glyph-name="Ecaron" unicode="&#x11a;" horiz-adv-x="876" 
d="M590 1585l-152 295h129l90 -186l160 186h131l-256 -295h-102zM705 0h-666l254 1456h649l-24 -133h-502l-90 -508h436l-25 -135h-436l-96 -543h524z" />
    <glyph glyph-name="ecaron" unicode="&#x11b;" horiz-adv-x="944" 
d="M571 1319l-151 295h129l90 -187l160 187h131l-256 -295h-103zM811 332q-32 -173 -128.5 -261.5t-272.5 -88.5q-148 0 -228 57q-155 117 -106 395l69 387q31 178 133.5 273.5t268.5 95.5q193 0 284 -115t56 -319l-39 -215h-615l-20 -119q-53 -309 205 -309
q116 0 173.5 59.5t78.5 185.5l4 33h147zM254 662h473l18 102q29 145 -23 221t-179 76q-215 0 -264 -262z" />
    <glyph glyph-name="Gcircumflex" unicode="&#x11c;" horiz-adv-x="1034" 
d="M741 1800l-159 -194h-133l256 299h104l154 -299h-127zM729 227q-50 -127 -131 -187t-207 -60q-194 0 -268 127.5t-35 367.5l96 545q42 233 156 343t299 110q199 0 294.5 -112t59.5 -327l-14 -71h-152l15 71q29 159 -24.5 233t-188.5 74q-120 0 -192 -74t-103 -245
l-98 -561q-63 -344 204 -344q127 0 197.5 81t101.5 257l27 157h-258l22 131h404l-129 -743h-94z" />
    <glyph glyph-name="gcircumflex" unicode="&#x11d;" horiz-adv-x="983" 
d="M668 1511l-160 -194h-133l256 299h104l154 -299h-127zM334 -420q-171 0 -257.5 74t-92.5 211h151q8 -77 55.5 -117.5t149.5 -40.5q114 0 177.5 61t88.5 195l35 205q-89 -186 -274 -186q-172 0 -251.5 115.5t-41.5 330.5l59 342q36 214 130 316t247 102q125 0 194.5 -57
t83.5 -166l56 206h112l-217 -1232q-64 -359 -405 -359zM416 113q107 0 174.5 71.5t91.5 200.5l63 365q27 150 -23 230.5t-181 80.5q-110 0 -173 -75.5t-89 -219.5l-62 -338q-28 -158 25 -236.5t174 -78.5z" />
    <glyph glyph-name="Gbreve" unicode="&#x11e;" horiz-adv-x="1034" 
d="M717 1602q-143 0 -199.5 78t-32.5 221h111q-14 -99 15 -146.5t116 -48.5q84 1 130 49t65 146h112q-28 -147 -102.5 -223t-214.5 -76zM729 227q-50 -127 -131 -187t-207 -60q-194 0 -268 127.5t-35 367.5l96 545q42 233 156 343t299 110q199 0 294.5 -112t59.5 -327
l-14 -71h-152l15 71q29 159 -24.5 233t-188.5 74q-120 0 -192 -74t-103 -245l-98 -561q-63 -344 204 -344q127 0 197.5 81t101.5 257l27 157h-258l22 131h404l-129 -743h-94z" />
    <glyph glyph-name="gbreve" unicode="&#x11f;" horiz-adv-x="983" 
d="M643 1313q-143 0 -199 77.5t-32 221.5h110q-14 -99 15 -146.5t116 -48.5q84 1 130 49t65 146h113q-28 -147 -103 -223t-215 -76zM334 -420q-171 0 -257.5 74t-92.5 211h151q8 -77 55.5 -117.5t149.5 -40.5q114 0 177.5 61t88.5 195l35 205q-89 -186 -274 -186
q-172 0 -251.5 115.5t-41.5 330.5l59 342q36 214 130 316t247 102q125 0 194.5 -57t83.5 -166l56 206h112l-217 -1232q-64 -359 -405 -359zM416 113q107 0 174.5 71.5t91.5 200.5l63 365q27 150 -23 230.5t-181 80.5q-110 0 -173 -75.5t-89 -219.5l-62 -338
q-28 -158 25 -236.5t174 -78.5z" />
    <glyph glyph-name="Gdotaccent" unicode="&#x120;" horiz-adv-x="1034" 
d="M709 1602q-53 0 -75.5 27t-12.5 91q12 64 38.5 88.5t81.5 24.5q106 0 84 -119q-10 -63 -36 -87.5t-80 -24.5zM729 227q-50 -127 -131 -187t-207 -60q-194 0 -268 127.5t-35 367.5l96 545q42 233 156 343t299 110q199 0 294.5 -112t59.5 -327l-14 -71h-152l15 71
q29 159 -24.5 233t-188.5 74q-120 0 -192 -74t-103 -245l-98 -561q-63 -344 204 -344q127 0 197.5 81t101.5 257l27 157h-258l22 131h404l-129 -743h-94z" />
    <glyph glyph-name="gdotaccent" unicode="&#x121;" horiz-adv-x="983" 
d="M629 1313q-53 0 -75.5 27.5t-12.5 91.5q12 63 39 87.5t82 24.5q105 0 83 -119q-10 -63 -36 -87.5t-80 -24.5zM334 -420q-171 0 -257.5 74t-92.5 211h151q8 -77 55.5 -117.5t149.5 -40.5q114 0 177.5 61t88.5 195l35 205q-89 -186 -274 -186q-172 0 -251.5 115.5
t-41.5 330.5l59 342q36 214 130 316t247 102q125 0 194.5 -57t83.5 -166l56 206h112l-217 -1232q-64 -359 -405 -359zM416 113q107 0 174.5 71.5t91.5 200.5l63 365q27 150 -23 230.5t-181 80.5q-110 0 -173 -75.5t-89 -219.5l-62 -338q-28 -158 25 -236.5t174 -78.5z" />
    <glyph glyph-name="uni0122" unicode="&#x122;" horiz-adv-x="1034" 
d="M729 227q-50 -127 -131 -187t-207 -60q-194 0 -268 127.5t-35 367.5l96 545q42 233 156 343t299 110q199 0 294.5 -112t59.5 -327l-14 -71h-152l15 71q29 159 -24.5 233t-188.5 74q-120 0 -192 -74t-103 -245l-98 -561q-63 -344 204 -344q127 0 197.5 81t101.5 257
l27 157h-258l22 131h404l-129 -743h-94zM256 -442q83 26 117 131q-16 -4 -25 -4q-41 0 -54.5 18t-6.5 74q10 53 37 76.5t75 23.5q54 0 70 -31t4 -108q-19 -101 -76 -169.5t-147 -88.5z" />
    <glyph glyph-name="uni0123" unicode="&#x123;" horiz-adv-x="983" 
d="M598 1327q-54 0 -71 33.5t-3 107.5q18 101 74.5 169.5t146.5 88.5l-6 -77q-85 -27 -112 -131q16 4 20 4q42 0 58 -18.5t6 -73.5q-21 -103 -113 -103zM334 -420q-171 0 -257.5 74t-92.5 211h151q8 -77 55.5 -117.5t149.5 -40.5q114 0 177.5 61t88.5 195l35 205
q-89 -186 -274 -186q-172 0 -251.5 115.5t-41.5 330.5l59 342q36 214 130 316t247 102q125 0 194.5 -57t83.5 -166l56 206h112l-217 -1232q-64 -359 -405 -359zM416 113q107 0 174.5 71.5t91.5 200.5l63 365q27 150 -23 230.5t-181 80.5q-110 0 -173 -75.5t-89 -219.5
l-62 -338q-28 -158 25 -236.5t174 -78.5z" />
    <glyph glyph-name="Hcircumflex" unicode="&#x124;" horiz-adv-x="1038" 
d="M727 1763l-160 -194h-133l256 299h105l153 -299h-127zM766 657h-469l-115 -657h-145l256 1456h145l-116 -659h469l114 659h146l-254 -1456h-146z" />
    <glyph glyph-name="hcircumflex" unicode="&#x125;" horiz-adv-x="972" 
d="M426 1845l-160 -194h-133l256 299h105l153 -299h-127zM168 0h-139l266 1522h139l-98 -551q94 217 299 217q149 0 218.5 -98.5t37.5 -282.5l-141 -807h-146l139 799q44 262 -172 262q-219 0 -268 -295z" />
    <glyph glyph-name="Hbar" unicode="&#x126;" horiz-adv-x="1069" 
d="M778 629h-469l-110 -629h-146l183 1034h-138l23 127h137l51 295h146l-52 -295h467l52 295h145l-51 -295h135l-21 -127h-137l-182 -1034h-143zM848 1034h-467l-49 -274h469z" />
    <glyph glyph-name="hbar" unicode="&#x127;" horiz-adv-x="970" 
d="M168 0h-139l227 1296h-113l17 95h112l23 131h139l-22 -131h161l-16 -95h-164l-57 -325q94 217 299 217q149 0 218.5 -98.5t37.5 -282.5l-141 -807h-146l139 799q44 262 -172 262q-219 0 -268 -295z" />
    <glyph glyph-name="Itilde" unicode="&#x128;" horiz-adv-x="675" 
d="M219 1591q22 115 63 168t126 53q56 0 104 -28q15 -11 39.5 -30.5t38 -29.5t33 -19t36.5 -9q36 0 55 24t31 88h103q-20 -111 -64.5 -167t-130.5 -56q-59 0 -102 29q-11 9 -35.5 29.5t-38 30t-34.5 19t-40 9.5q-62 0 -81 -111h-103zM-33 0l23 137h196l211 1186h-198l24 133
h535l-23 -133h-196l-211 -1186h198l-22 -137h-537z" />
    <glyph glyph-name="itilde" unicode="&#x129;" horiz-adv-x="405" 
d="M41 1307q22 115 62.5 168t125.5 53q55 0 105 -29q15 -11 39.5 -30.5t38 -29.5t33 -19t36.5 -9q36 0 55 24t31 89h103q-20 -112 -64.5 -168t-130.5 -56q-59 0 -102 29q-11 9 -35.5 29.5t-38 30t-34.5 19t-40 9.5q-63 0 -82 -110h-102zM233 1171h146l-207 -1171h-143z" />
    <glyph glyph-name="Imacron" unicode="&#x12a;" horiz-adv-x="675" 
d="M319 1737h451l-18 -115h-451zM-33 0l23 137h196l211 1186h-198l24 133h535l-23 -133h-196l-211 -1186h198l-22 -137h-537z" />
    <glyph glyph-name="imacron" unicode="&#x12b;" horiz-adv-x="405" 
d="M127 1440h451l-19 -115h-450zM233 1171h146l-207 -1171h-143z" />
    <glyph glyph-name="Ibreve" unicode="&#x12c;" horiz-adv-x="675" 
d="M526 1581q-143 0 -199 77.5t-32 221.5h111q-14 -99 15 -146t116 -48q84 1 129.5 48.5t64.5 145.5h113q-28 -147 -103 -223t-215 -76zM-33 0l23 137h196l211 1186h-198l24 133h535l-23 -133h-196l-211 -1186h198l-22 -137h-537z" />
    <glyph glyph-name="ibreve" unicode="&#x12d;" horiz-adv-x="405" 
d="M342 1298q-143 0 -199 77.5t-32 221.5h110q-14 -99 15 -146t116 -48q84 1 130 48.5t65 145.5h112q-28 -147 -102.5 -223t-214.5 -76zM233 1171h146l-207 -1171h-143z" />
    <glyph glyph-name="Iogonek" unicode="&#x12e;" horiz-adv-x="675" 
d="M637 -201q-85 -184 -281 -184q-104 0 -153 54.5t-35 142.5q21 103 162 188h-363l23 137h196l211 1186h-198l24 133h535l-23 -133h-196l-211 -1186h198l-22 -137q-121 -75 -167.5 -115.5t-53.5 -83.5q-7 -41 16.5 -64.5t73.5 -23.5q93 0 131 86h133z" />
    <glyph glyph-name="iogonek" unicode="&#x12f;" horiz-adv-x="405" 
d="M334 1294q-55 0 -73.5 25.5t-8.5 89.5q12 63 37.5 86t77.5 23q53 0 71 -26t8 -87q-12 -63 -37 -87t-75 -24zM303 -201q-85 -184 -280 -184q-106 0 -156.5 55t-32.5 142q23 108 197 208l200 1151h146l-207 -1171q-121 -75 -167.5 -115.5t-53.5 -83.5q-7 -41 16.5 -64.5
t73.5 -23.5q93 0 131 86h133z" />
    <glyph glyph-name="Idotaccent" unicode="&#x130;" horiz-adv-x="675" 
d="M520 1581q-53 0 -75.5 27.5t-12.5 91.5q12 63 39 87.5t82 24.5q106 0 84 -118q-10 -63 -36.5 -88t-80.5 -25zM-33 0l23 137h196l211 1186h-198l24 133h535l-23 -133h-196l-211 -1186h198l-22 -137h-537z" />
    <glyph glyph-name="dotlessi" unicode="&#x131;" horiz-adv-x="405" 
d="M233 1171h146l-207 -1171h-143z" />
    <glyph glyph-name="IJ" unicode="&#x132;" horiz-adv-x="1212" 
d="M-33 0l23 137h196l209 1186h-196l24 133h531l-23 -133h-194l-209 -1186h194l-22 -137h-533zM641 137h51q73 0 107 19q37 18 58.5 62t35.5 126l194 1112h150l-197 -1120q-24 -133 -57 -203q-32 -73 -97.5 -103t-189.5 -30h-78z" />
    <glyph glyph-name="ij" unicode="&#x133;" horiz-adv-x="804" 
d="M336 1294q-55 0 -73.5 25.5t-8.5 89.5q12 63 37.5 86t77.5 23q53 0 71.5 -26t8.5 -87q-12 -63 -37 -87t-76 -24zM739 1294q-55 0 -73.5 25.5t-8.5 89.5q12 63 37.5 86t77.5 23q54 0 73 -26t7 -87q-10 -64 -35 -87.5t-78 -23.5zM-33 -346l25 137h258q58 0 92 12
q32 13 50 49t30 107l213 1215h141l-215 -1229q-22 -122 -55 -176q-32 -63 -94.5 -89t-173.5 -26h-271zM29 0l204 1171h146l-207 -1171h-143z" />
    <glyph glyph-name="Jcircumflex" unicode="&#x134;" horiz-adv-x="874" 
d="M887 1780l-160 -195h-133l256 299h104l154 -299h-127zM334 -20q-179 0 -253 94.5t-44 261.5l31 180h149l-33 -186q-18 -99 21 -155t137 -56q100 0 148.5 59.5t72.5 196.5l191 1081h149l-194 -1110q-35 -196 -124.5 -281t-250.5 -85z" />
    <glyph glyph-name="jcircumflex" unicode="&#x135;" horiz-adv-x="407" 
d="M367 1497l-160 -194h-133l256 299h104l154 -299h-127zM-223 -358l22 137h51q56 0 91 12q32 14 51 50t31 108l215 1222h141l-217 -1237q-22 -123 -53 -178q-32 -63 -94 -88.5t-173 -25.5h-65z" />
    <glyph glyph-name="uni0136" unicode="&#x136;" horiz-adv-x="995" 
d="M528 856l-249 -295l-99 -561h-141l254 1456h143l-121 -692l-6 -29l598 721h166l-432 -518l2 -6l205 -932h-160l-158 762zM260 -408q82 26 117 132q-20 -5 -25 -5q-40 0 -54 18.5t-7 74.5q10 53 37 76.5t75 23.5q54 0 70 -31t4 -108q-19 -101 -76 -169.5t-147 -88.5z" />
    <glyph glyph-name="uni0137" unicode="&#x137;" horiz-adv-x="907" 
d="M463 659l-225 -258l-70 -401h-139l266 1522h139l-158 -904l-10 -47l6 11l516 589h168l-372 -428l190 -743h-151l-160 657v2zM221 -410q83 26 117 131q-16 -4 -25 -4q-40 0 -54 18.5t-7 74.5q10 53 37.5 76.5t75.5 23.5q54 0 69.5 -31t3.5 -108q-19 -101 -76 -169.5
t-147 -88.5z" />
    <glyph glyph-name="kgreenlandic" unicode="&#x138;" horiz-adv-x="907" 
d="M463 659l-225 -258l-70 -401h-139l204 1171h140l-97 -553l-10 -47l6 11l516 589h168l-372 -428l190 -743h-151l-160 657v2z" />
    <glyph glyph-name="Lacute" unicode="&#x139;" horiz-adv-x="813" 
d="M588 1907h157l-303 -322h-114zM39 0l254 1456h145l-231 -1317h469l-25 -139h-612z" />
    <glyph glyph-name="lacute" unicode="&#x13a;" horiz-adv-x="405" 
d="M594 1972h158l-303 -321h-115zM295 1522h143l-266 -1522h-143z" />
    <glyph glyph-name="uni013B" unicode="&#x13b;" horiz-adv-x="813" 
d="M39 0l254 1456h145l-231 -1317h469l-25 -139h-612zM190 -422q83 26 117 131q-16 -4 -24 -4q-41 0 -55 18t-7 74q10 53 37.5 77t75.5 24q54 0 70 -31.5t4 -108.5q-19 -101 -76.5 -169.5t-147.5 -88.5z" />
    <glyph glyph-name="uni013C" unicode="&#x13c;" horiz-adv-x="405" 
d="M295 1522h143l-266 -1522h-143zM-55 -436q81 26 116 131q-16 -4 -24 -4q-41 0 -55 18t-7 74q10 53 37.5 76.5t75.5 23.5q54 0 70 -31t4 -108q-19 -101 -76 -169.5t-147 -88.5z" />
    <glyph glyph-name="Lcaron" unicode="&#x13d;" horiz-adv-x="813" 
d="M760 1604h129l-152 -304h-98zM39 0l254 1456h145l-231 -1317h469l-25 -139h-612z" />
    <glyph glyph-name="lcaron" unicode="&#x13e;" horiz-adv-x="405" 
d="M645 1638h129l-151 -303h-99zM295 1522h143l-266 -1522h-143z" />
    <glyph glyph-name="Ldot" unicode="&#x13f;" horiz-adv-x="813" 
d="M39 0l254 1456h145l-231 -1317h469l-25 -139h-612zM653 516q-107 0 -88 119q12 65 39 89t82 24q52 0 74 -27.5t10 -91.5q-10 -63 -36.5 -88t-80.5 -25z" />
    <glyph glyph-name="ldot" unicode="&#x140;" horiz-adv-x="579" 
d="M295 1522h143l-266 -1522h-143zM467 444q-53 0 -75.5 27.5t-12.5 91.5q12 64 39 88.5t82 24.5q106 0 84 -119q-10 -63 -36.5 -88t-80.5 -25z" />
    <glyph glyph-name="Lslash" unicode="&#x141;" horiz-adv-x="833" 
d="M59 0l119 672l-131 -39l-14 119l168 49l114 655h144l-107 -610l219 63l11 -121l-252 -73l-103 -576h469l-22 -139h-615z" />
    <glyph glyph-name="lslash" unicode="&#x142;" horiz-adv-x="436" 
d="M47 0l103 582l-127 -39l-13 88l156 49l147 842h144l-140 -795l127 39l13 -88l-156 -49l-111 -629h-143z" />
    <glyph glyph-name="Nacute" unicode="&#x143;" horiz-adv-x="1079" 
d="M911 1882h158l-303 -321h-115zM172 0h-133l254 1456h131l291 -1028l43 -219l20 242l178 1005h136l-256 -1456h-127l-295 1047l-39 245l-25 -278z" />
    <glyph glyph-name="nacute" unicode="&#x144;" horiz-adv-x="972" 
d="M825 1636h158l-303 -321h-115zM172 0h-145l206 1171h115l-18 -202q99 219 305 219q149 0 218.5 -98.5t37.5 -282.5l-141 -807h-146l139 799q44 262 -172 262q-214 0 -266 -295z" />
    <glyph glyph-name="uni0145" unicode="&#x145;" horiz-adv-x="1079" 
d="M172 0h-133l254 1456h131l291 -1028l43 -219l20 242l178 1005h136l-256 -1456h-127l-295 1047l-39 245l-25 -278zM262 -406q82 26 117 132q-20 -5 -25 -5q-40 0 -54 18.5t-7 74.5q10 53 37.5 76.5t75.5 23.5q54 0 69.5 -31t3.5 -108q-19 -101 -76 -169.5t-147 -88.5z" />
    <glyph glyph-name="uni0146" unicode="&#x146;" horiz-adv-x="972" 
d="M172 0h-145l206 1171h115l-18 -202q99 219 305 219q149 0 218.5 -98.5t37.5 -282.5l-141 -807h-146l139 799q44 262 -172 262q-214 0 -266 -295zM227 -412q83 26 117 131q-16 -4 -25 -4q-41 0 -54.5 18t-6.5 74q10 53 37.5 77t75.5 24q54 0 69.5 -31t3.5 -108
q-19 -101 -76 -169.5t-147 -88.5z" />
    <glyph glyph-name="Ncaron" unicode="&#x147;" horiz-adv-x="1079" 
d="M657 1563l-151 295h129l90 -187l160 187h131l-256 -295h-103zM172 0h-133l254 1456h131l291 -1028l43 -219l20 242l178 1005h136l-256 -1456h-127l-295 1047l-39 245l-25 -278z" />
    <glyph glyph-name="ncaron" unicode="&#x148;" horiz-adv-x="972" 
d="M571 1315l-151 295h129l90 -187l160 187h131l-256 -295h-103zM172 0h-145l206 1171h115l-18 -202q99 219 305 219q149 0 218.5 -98.5t37.5 -282.5l-141 -807h-146l139 799q44 262 -172 262q-214 0 -266 -295z" />
    <glyph glyph-name="Eng" unicode="&#x14a;" horiz-adv-x="1077" 
d="M436 -356l23 135h51q60 0 94 12q35 12 54.5 48.5t31.5 109.5l12 78l-294 1034l-33 227l-25 -270l-178 -1018h-133l254 1456h129l299 -1042l37 -203l20 238l178 1007h136l-269 -1524q-21 -116 -53 -176q-35 -61 -96.5 -86.5t-171.5 -25.5h-66z" />
    <glyph glyph-name="eng" unicode="&#x14b;" horiz-adv-x="972" 
d="M348 -358l23 137h51q57 0 92 12q31 12 49.5 47.5t30.5 104.5l149 856q44 262 -172 262q-214 0 -266 -295l-133 -766h-145l206 1171h115l-18 -202q99 219 305 219q149 0 218.5 -98.5t37.5 -282.5q-1 -6 -6.5 -37.5t-16 -92.5t-20.5 -118q-12 -63 -36.5 -205t-37.5 -209
l-37 -217q-22 -120 -53 -176q-34 -63 -96 -86.5t-176 -23.5h-64z" />
    <glyph glyph-name="Omacron" unicode="&#x14c;" horiz-adv-x="1034" 
d="M496 1743h450l-18 -115h-451zM455 -20q-155 0 -240 61q-176 125 -121 426l96 549q41 242 153.5 348t295.5 106q126 0 215 -53q193 -118 145 -411l-102 -584q-39 -225 -142.5 -333.5t-299.5 -108.5zM463 117q122 0 188 72.5t97 240.5l106 588q26 157 -31 239t-190 82
q-123 0 -192 -74.5t-101 -250.5l-98 -559q-62 -338 221 -338z" />
    <glyph glyph-name="omacron" unicode="&#x14d;" horiz-adv-x="958" 
d="M408 1454h450l-18 -115h-451zM410 -18q-149 0 -224 57q-159 115 -110 393l69 402q31 171 134.5 263.5t267.5 92.5q194 0 284.5 -117t55.5 -317l-72 -414q-63 -360 -405 -360zM420 113q111 0 172 64t82 188l71 411q24 138 -29.5 211.5t-172.5 73.5q-214 0 -254 -244
l-72 -411q-24 -137 25.5 -215t177.5 -78z" />
    <glyph glyph-name="Obreve" unicode="&#x14e;" horiz-adv-x="1034" 
d="M711 1602q-143 0 -199.5 78t-32.5 221h111q-14 -99 15 -146.5t116 -48.5q84 1 129.5 49t64.5 146h113q-28 -147 -102.5 -223t-214.5 -76zM455 -20q-155 0 -240 61q-176 125 -121 426l96 549q41 242 153.5 348t295.5 106q126 0 215 -53q193 -118 145 -411l-102 -584
q-39 -225 -142.5 -333.5t-299.5 -108.5zM463 117q122 0 188 72.5t97 240.5l106 588q26 157 -31 239t-190 82q-123 0 -192 -74.5t-101 -250.5l-98 -559q-62 -338 221 -338z" />
    <glyph glyph-name="obreve" unicode="&#x14f;" horiz-adv-x="958" 
d="M623 1313q-143 0 -199.5 78t-32.5 221h111q-14 -99 15 -146.5t116 -48.5q84 1 129.5 49t64.5 146h113q-28 -147 -102.5 -223t-214.5 -76zM410 -18q-149 0 -224 57q-159 115 -110 393l69 402q31 171 134.5 263.5t267.5 92.5q194 0 284.5 -117t55.5 -317l-72 -414
q-63 -360 -405 -360zM420 113q111 0 172 64t82 188l71 411q24 138 -29.5 211.5t-172.5 73.5q-214 0 -254 -244l-72 -411q-24 -137 25.5 -215t177.5 -78z" />
    <glyph glyph-name="Ohungarumlaut" unicode="&#x150;" horiz-adv-x="1034" 
d="M629 1606h-109l232 301h151zM872 1606h-108l242 301h153zM455 -20q-155 0 -240 61q-176 125 -121 426l96 549q41 242 153.5 348t295.5 106q126 0 215 -53q193 -118 145 -411l-102 -584q-39 -225 -142.5 -333.5t-299.5 -108.5zM463 117q122 0 188 72.5t97 240.5l106 588
q26 157 -31 239t-190 82q-123 0 -192 -74.5t-101 -250.5l-98 -559q-62 -338 221 -338z" />
    <glyph glyph-name="ohungarumlaut" unicode="&#x151;" horiz-adv-x="958" 
d="M541 1317h-109l232 301h151zM784 1317h-108l242 301h153zM410 -18q-149 0 -224 57q-159 115 -110 393l69 402q31 171 134.5 263.5t267.5 92.5q194 0 284.5 -117t55.5 -317l-72 -414q-63 -360 -405 -360zM420 113q111 0 172 64t82 188l71 411q24 138 -29.5 211.5
t-172.5 73.5q-214 0 -254 -244l-72 -411q-24 -137 25.5 -215t177.5 -78z" />
    <glyph glyph-name="OE" unicode="&#x152;" horiz-adv-x="1503" 
d="M688 121q-76 -141 -260 -141q-210 0 -292 131.5t-42 363.5l96 541q41 241 150 347.5t281 106.5q227 0 276 -159l25 145h649l-25 -133h-504l-90 -508h439l-25 -135h-436l-96 -543h524l-25 -137h-665zM463 117q122 0 189 73.5t98 245.5l100 572q30 172 -27.5 251.5
t-195.5 79.5q-117 0 -186 -76t-101 -249l-98 -553q-58 -344 221 -344z" />
    <glyph glyph-name="oe" unicode="&#x153;" horiz-adv-x="1554" 
d="M1421 332q-32 -173 -128.5 -261.5t-272.5 -88.5q-247 0 -303 182q-95 -182 -311 -182q-144 0 -224 57q-155 117 -106 393l69 402q31 172 131.5 264t262.5 92q239 0 301 -191q104 191 338 191q179 0 266.5 -115.5t52.5 -318.5l-39 -215h-614l-21 -119q-53 -309 205 -309
q116 0 173.5 59.5t78.5 185.5l4 33h148zM420 113q111 0 172 64t82 188l71 411q24 138 -29.5 211.5t-172.5 73.5q-214 0 -254 -244l-72 -411q-24 -137 25.5 -215t177.5 -78zM864 662h473l19 102q29 145 -23.5 221t-179.5 76q-218 0 -264 -262z" />
    <glyph glyph-name="Racute" unicode="&#x154;" horiz-adv-x="987" 
d="M866 1907h158l-303 -322h-115zM291 612l-109 -612h-143l254 1456h352q192 0 274.5 -102.5t49.5 -286.5l-23 -111q-20 -118 -82 -186t-176 -92q194 -55 146 -279l-54 -295q-13 -78 23 -104h-162q-24 31 -10 106l49 281q21 114 -20.5 169.5t-165.5 55.5h-203zM416 1327
l-103 -586h193q143 0 211 58t92 192l16 92q23 123 -26.5 183.5t-177.5 60.5h-205z" />
    <glyph glyph-name="racute" unicode="&#x155;" horiz-adv-x="628" 
d="M662 1610h157l-303 -322h-115zM27 0l206 1171h111l-18 -229q42 130 116.5 183t208.5 53h41l-28 -156h-60q-147 0 -214 -72.5t-97 -247.5l-123 -702h-143z" />
    <glyph glyph-name="uni0156" unicode="&#x156;" horiz-adv-x="987" 
d="M291 612l-109 -612h-143l254 1456h352q192 0 274.5 -102.5t49.5 -286.5l-23 -111q-20 -118 -82 -186t-176 -92q194 -55 146 -279l-54 -295q-13 -78 23 -104h-162q-24 31 -10 106l49 281q21 114 -20.5 169.5t-165.5 55.5h-203zM416 1327l-103 -586h193q143 0 211 58
t92 192l16 92q23 123 -26.5 183.5t-177.5 60.5h-205zM242 -410q81 26 116 131q-16 -4 -24 -4q-41 0 -55 18.5t-7 74.5q10 53 37.5 76.5t75.5 23.5q54 0 70 -31t4 -108q-19 -101 -76 -169.5t-147 -88.5z" />
    <glyph glyph-name="uni0157" unicode="&#x157;" horiz-adv-x="628" 
d="M27 0l206 1171h111l-18 -229q42 130 116.5 183t208.5 53h41l-28 -156h-60q-147 0 -214 -72.5t-97 -247.5l-123 -702h-143zM-68 -436q83 26 117 131q-16 -4 -24 -4q-41 0 -55 18t-7 74q10 53 37.5 76.5t75.5 23.5q54 0 70 -31t4 -108q-19 -101 -76.5 -169.5t-147.5 -88.5z
" />
    <glyph glyph-name="Rcaron" unicode="&#x158;" horiz-adv-x="987" 
d="M612 1585l-151 295h129l90 -186l160 186h131l-256 -295h-103zM291 612l-109 -612h-143l254 1456h352q192 0 274.5 -102.5t49.5 -286.5l-23 -111q-20 -118 -82 -186t-176 -92q194 -55 146 -279l-54 -295q-13 -78 23 -104h-162q-24 31 -10 106l49 281q21 114 -20.5 169.5
t-165.5 55.5h-203zM416 1327l-103 -586h193q143 0 211 58t92 192l16 92q23 123 -26.5 183.5t-177.5 60.5h-205z" />
    <glyph glyph-name="rcaron" unicode="&#x159;" horiz-adv-x="628" 
d="M408 1288l-152 295h129l90 -186l160 186h131l-256 -295h-102zM27 0l206 1171h111l-18 -229q42 130 116.5 183t208.5 53h41l-28 -156h-60q-147 0 -214 -72.5t-97 -247.5l-123 -702h-143z" />
    <glyph glyph-name="Sacute" unicode="&#x15a;" horiz-adv-x="931" 
d="M838 1927h157l-303 -321h-114zM408 -20q-207 0 -303 109t-58 306l25 129h149l-24 -141q-24 -133 33.5 -201.5t185.5 -68.5q225 0 256 223l6 35q13 91 -19 145q-28 54 -79 96t-131 88q-99 65 -138 97q-149 119 -114 329l8 41q24 144 127.5 226t253.5 82q134 0 217 -50
q83 -49 116 -130.5t15 -186.5l-21 -123h-147l22 121q19 113 -32 178.5t-174 65.5q-96 0 -156.5 -50.5t-79.5 -148.5l-4 -35q-16 -91 16 -145q15 -28 35.5 -52t56 -50t54 -38t67.5 -43q90 -57 138 -96q147 -116 112 -327l-4 -35q-31 -175 -126.5 -262.5t-282.5 -87.5z" />
    <glyph glyph-name="sacute" unicode="&#x15b;" horiz-adv-x="872" 
d="M764 1640h158l-304 -321h-114zM369 -18q-188 0 -278.5 98t-55.5 268l12 70h150l-15 -86q-19 -107 34.5 -164t168.5 -57q193 0 223 174l2 8q12 71 -16 119q-28 42 -75.5 74t-125.5 71q-81 43 -131 76q-67 47 -96.5 113t-11.5 167l4 17q23 127 116.5 195.5t239.5 68.5
q175 0 258.5 -92t56.5 -246l-10 -55h-141l10 59q17 102 -30 156.5t-150 54.5q-90 0 -144.5 -40t-66.5 -113l-2 -9q-12 -68 16 -116q18 -29 55 -58t60 -41.5t84 -44.5q61 -30 131 -76t100 -113.5t11 -170.5v-10q-51 -297 -383 -297z" />
    <glyph glyph-name="Scircumflex" unicode="&#x15c;" horiz-adv-x="931" 
d="M688 1798l-160 -194h-133l256 299h105l153 -299h-127zM408 -20q-207 0 -303 109t-58 306l25 129h149l-24 -141q-24 -133 33.5 -201.5t185.5 -68.5q225 0 256 223l6 35q13 91 -19 145q-28 54 -79 96t-131 88q-99 65 -138 97q-149 119 -114 329l8 41q24 144 127.5 226
t253.5 82q134 0 217 -50q83 -49 116 -130.5t15 -186.5l-21 -123h-147l22 121q19 113 -32 178.5t-174 65.5q-96 0 -156.5 -50.5t-79.5 -148.5l-4 -35q-16 -91 16 -145q15 -28 35.5 -52t56 -50t54 -38t67.5 -43q90 -57 138 -96q147 -116 112 -327l-4 -35
q-31 -175 -126.5 -262.5t-282.5 -87.5z" />
    <glyph glyph-name="scircumflex" unicode="&#x15d;" horiz-adv-x="872" 
d="M602 1513l-160 -194h-133l256 299h105l153 -299h-127zM369 -18q-188 0 -278.5 98t-55.5 268l12 70h150l-15 -86q-19 -107 34.5 -164t168.5 -57q193 0 223 174l2 8q12 71 -16 119q-28 42 -75.5 74t-125.5 71q-81 43 -131 76q-67 47 -96.5 113t-11.5 167l4 17
q23 127 116.5 195.5t239.5 68.5q175 0 258.5 -92t56.5 -246l-10 -55h-141l10 59q17 102 -30 156.5t-150 54.5q-90 0 -144.5 -40t-66.5 -113l-2 -9q-12 -68 16 -116q18 -29 55 -58t60 -41.5t84 -44.5q61 -30 131 -76t100 -113.5t11 -170.5v-10q-51 -297 -383 -297z" />
    <glyph glyph-name="uni015E" unicode="&#x15e;" horiz-adv-x="931" 
d="M311 -467q-124 0 -178.5 48.5t-56.5 146.5h129q-3 -99 112 -99q122 0 134 80q10 43 -18.5 64.5t-94.5 21.5h-62l35 193q-158 25 -227 130t-37 277l25 129h149l-24 -141q-24 -133 33.5 -201.5t185.5 -68.5q225 0 256 223l6 35q13 91 -19 145q-28 54 -79 96t-131 88
q-99 65 -138 97q-149 119 -114 329l8 41q24 144 127.5 226t253.5 82q134 0 217 -50q83 -49 116 -130.5t15 -186.5l-21 -123h-147l22 121q19 113 -32 178.5t-174 65.5q-96 0 -156.5 -50.5t-79.5 -148.5l-4 -35q-16 -91 16 -145q15 -28 35.5 -52t56 -50t54 -38t67.5 -43
q90 -57 138 -96q147 -116 112 -327l-4 -35q-30 -174 -124.5 -262t-274.5 -88l-17 -99q96 -1 138 -47.5t28 -132.5q-14 -79 -80.5 -123.5t-175.5 -44.5z" />
    <glyph glyph-name="uni015F" unicode="&#x15f;" horiz-adv-x="872" 
d="M289 -467q-124 0 -179 48.5t-57 146.5h129q-3 -99 113 -99q121 0 133 80q10 43 -18.5 64.5t-94.5 21.5h-61l35 191q-152 23 -219.5 117t-36.5 245l12 70h150l-15 -86q-19 -107 34.5 -164t168.5 -57q193 0 223 174l2 8q12 71 -16 119q-28 42 -75.5 74t-125.5 71
q-81 43 -131 76q-67 47 -96.5 113t-11.5 167l4 17q23 127 116.5 195.5t239.5 68.5q175 0 258.5 -92t56.5 -246l-10 -55h-141l10 59q17 102 -30 156.5t-150 54.5q-90 0 -144.5 -40t-66.5 -113l-2 -9q-12 -68 16 -116q18 -29 55 -58t60 -41.5t84 -44.5q61 -30 131 -76
t100 -113.5t11 -170.5v-10q-51 -285 -355 -297l-16 -101q96 -1 138 -47.5t28 -132.5q-14 -79 -80.5 -123.5t-175.5 -44.5z" />
    <glyph glyph-name="Scaron" unicode="&#x160;" horiz-adv-x="931" 
d="M596 1606l-152 295h129l91 -187l159 187h131l-256 -295h-102zM408 -20q-207 0 -303 109t-58 306l25 129h149l-24 -141q-24 -133 33.5 -201.5t185.5 -68.5q225 0 256 223l6 35q13 91 -19 145q-28 54 -79 96t-131 88q-99 65 -138 97q-149 119 -114 329l8 41
q24 144 127.5 226t253.5 82q134 0 217 -50q83 -49 116 -130.5t15 -186.5l-21 -123h-147l22 121q19 113 -32 178.5t-174 65.5q-96 0 -156.5 -50.5t-79.5 -148.5l-4 -35q-16 -91 16 -145q15 -28 35.5 -52t56 -50t54 -38t67.5 -43q90 -57 138 -96q147 -116 112 -327l-4 -35
q-31 -175 -126.5 -262.5t-282.5 -87.5z" />
    <glyph glyph-name="scaron" unicode="&#x161;" horiz-adv-x="872" 
d="M510 1319l-152 295h129l91 -187l159 187h131l-256 -295h-102zM369 -18q-188 0 -278.5 98t-55.5 268l12 70h150l-15 -86q-19 -107 34.5 -164t168.5 -57q193 0 223 174l2 8q12 71 -16 119q-28 42 -75.5 74t-125.5 71q-81 43 -131 76q-67 47 -96.5 113t-11.5 167l4 17
q23 127 116.5 195.5t239.5 68.5q175 0 258.5 -92t56.5 -246l-10 -55h-141l10 59q17 102 -30 156.5t-150 54.5q-90 0 -144.5 -40t-66.5 -113l-2 -9q-12 -68 16 -116q18 -29 55 -58t60 -41.5t84 -44.5q61 -30 131 -76t100 -113.5t11 -170.5v-10q-51 -297 -383 -297z" />
    <glyph glyph-name="uni0162" unicode="&#x162;" horiz-adv-x="806" 
d="M604 1321l-233 -1321h-146l234 1321h-281l25 135h706l-22 -135h-283zM145 -422q83 26 117 131q-16 -4 -24 -4q-41 0 -55 18t-7 74q10 53 37.5 77t75.5 24q53 0 69 -31.5t4 -108.5q-19 -101 -76 -169.5t-147 -88.5z" />
    <glyph glyph-name="uni0163" unicode="&#x163;" horiz-adv-x="614" 
d="M457 0h-76q-105 0 -168 29q-58 29 -71 104.5t12 214.5l122 690h-163l22 125q84 0 109 11q35 6 51.5 21.5t30.5 53.5q13 29 43 158h108l-41 -236h226l-23 -133h-227l-121 -678q-14 -85 -10 -143q7 -45 42 -61.5t111 -16.5h45zM115 -432q81 26 116 131q-16 -4 -24 -4
q-41 0 -55 18t-7 74q10 53 37.5 76.5t75.5 23.5q54 0 70 -31t4 -108q-19 -101 -76 -169.5t-147 -88.5z" />
    <glyph glyph-name="Tcaron" unicode="&#x164;" horiz-adv-x="806" 
d="M528 1585l-151 295h129l90 -186l160 186h131l-256 -295h-103zM604 1321l-233 -1321h-146l234 1321h-281l25 135h706l-22 -135h-283z" />
    <glyph glyph-name="tcaron" unicode="&#x165;" horiz-adv-x="614" 
d="M711 1632h129l-152 -303h-98zM457 0h-76q-105 0 -168 29q-58 29 -71 104.5t12 214.5l122 690h-163l22 125q84 0 109 11q35 6 51.5 21.5t30.5 53.5q13 29 43 158h108l-41 -236h226l-23 -133h-227l-121 -678q-14 -85 -10 -143q7 -45 42 -61.5t111 -16.5h45z" />
    <glyph glyph-name="Tbar" unicode="&#x166;" horiz-adv-x="806" 
d="M487 664l-116 -664h-146l117 664h-170l25 127h168l94 530h-281l25 135h706l-22 -135h-283l-94 -530h166l-25 -127h-164z" />
    <glyph glyph-name="tbar" unicode="&#x167;" horiz-adv-x="614" 
d="M457 0h-76q-105 0 -168 29q-58 29 -71 104.5t12 214.5l34 199h-116l20 117h117l67 374h-163l22 125q84 0 109 11q35 6 51.5 21.5t30.5 53.5q13 29 43 158h108l-41 -236h226l-23 -133h-227l-68 -374h162l-21 -117h-161l-33 -187q-14 -85 -10 -143q7 -45 42 -61.5
t111 -16.5h45z" />
    <glyph glyph-name="Utilde" unicode="&#x168;" horiz-adv-x="1007" 
d="M379 1579q22 115 62.5 168t125.5 53q57 0 105 -28q15 -11 39 -30.5t38 -30t33.5 -19.5t36.5 -9q36 0 55 24t31 89h103q-20 -111 -64.5 -167t-130.5 -56q-59 0 -102 29q-11 9 -35.5 29.5t-38 30t-34.5 19t-40 9.5q-63 0 -82 -111h-102zM426 -20q-148 0 -225 59
q-144 111 -92 424l176 993h149l-178 -1010q-30 -171 15 -248t165 -77q115 0 176 69.5t90 237.5l181 1028h149l-182 -1042q-40 -225 -136 -329.5t-288 -104.5z" />
    <glyph glyph-name="utilde" unicode="&#x169;" 
d="M311 1300q22 115 63 168.5t126 53.5q54 0 104 -29q15 -10 39.5 -30t38.5 -30t33.5 -19t36.5 -9q36 0 55 24t31 89h102q-20 -112 -64.5 -168t-130.5 -56q-59 0 -102 29q-12 9 -36 29.5t-37 30.5t-34 19t-40 9q-63 0 -82 -111h-103zM623 205q-88 -221 -287 -221
q-157 0 -219 100.5t-27 298.5l137 788h146l-140 -794q-44 -266 158 -266t254 295l135 765h146l-207 -1171h-115z" />
    <glyph glyph-name="Umacron" unicode="&#x16a;" horiz-adv-x="1007" 
d="M473 1710h451l-19 -115h-450zM426 -20q-148 0 -225 59q-144 111 -92 424l176 993h149l-178 -1010q-30 -171 15 -248t165 -77q115 0 176 69.5t90 237.5l181 1028h149l-182 -1042q-40 -225 -136 -329.5t-288 -104.5z" />
    <glyph glyph-name="umacron" unicode="&#x16b;" 
d="M389 1427h451l-19 -114h-450zM623 205q-88 -221 -287 -221q-157 0 -219 100.5t-27 298.5l137 788h146l-140 -794q-44 -266 158 -266t254 295l135 765h146l-207 -1171h-115z" />
    <glyph glyph-name="Ubreve" unicode="&#x16c;" horiz-adv-x="1007" 
d="M686 1569q-143 0 -199 77.5t-32 221.5h110q-14 -99 15 -146.5t116 -48.5q84 1 130 49t65 146h113q-28 -147 -103 -223t-215 -76zM426 -20q-148 0 -225 59q-144 111 -92 424l176 993h149l-178 -1010q-30 -171 15 -248t165 -77q115 0 176 69.5t90 237.5l181 1028h149
l-182 -1042q-40 -225 -136 -329.5t-288 -104.5z" />
    <glyph glyph-name="ubreve" unicode="&#x16d;" 
d="M608 1286q-143 0 -199 77.5t-32 221.5h110q-14 -99 15 -146t116 -48q84 1 130 48.5t65 145.5h113q-28 -147 -103 -223t-215 -76zM623 205q-88 -221 -287 -221q-157 0 -219 100.5t-27 298.5l137 788h146l-140 -794q-44 -266 158 -266t254 295l135 765h146l-207 -1171h-115
z" />
    <glyph glyph-name="Uring" unicode="&#x16e;" horiz-adv-x="1007" 
d="M688 1540q-100 0 -151 61.5t-33 153.5q17 84 77 131t144 47q96 0 148.5 -62t35.5 -149q-13 -87 -73.5 -134.5t-147.5 -47.5zM694 1642q85 0 107 91q8 43 -16 71.5t-68 28.5q-40 0 -69.5 -23.5t-35.5 -66.5q-8 -42 16 -71.5t66 -29.5zM426 -20q-148 0 -225 59
q-144 111 -92 424l176 993h149l-178 -1010q-30 -171 15 -248t165 -77q115 0 176 69.5t90 237.5l181 1028h149l-182 -1042q-40 -225 -136 -329.5t-288 -104.5z" />
    <glyph glyph-name="uring" unicode="&#x16f;" 
d="M614 1288q-100 0 -151 61.5t-33 153.5q17 84 77 131t144 47q96 0 149 -62t36 -149q-13 -87 -74 -134.5t-148 -47.5zM621 1391q85 0 106 90q8 43 -16 71.5t-68 28.5q-40 0 -69 -23.5t-35 -66.5q-8 -42 16 -71t66 -29zM623 205q-88 -221 -287 -221q-157 0 -219 100.5
t-27 298.5l137 788h146l-140 -794q-44 -266 158 -266t254 295l135 765h146l-207 -1171h-115z" />
    <glyph glyph-name="Uhungarumlaut" unicode="&#x170;" horiz-adv-x="1007" 
d="M606 1573h-108l231 301h152zM850 1573h-109l242 301h154zM426 -20q-148 0 -225 59q-144 111 -92 424l176 993h149l-178 -1010q-30 -171 15 -248t165 -77q115 0 176 69.5t90 237.5l181 1028h149l-182 -1042q-40 -225 -136 -329.5t-288 -104.5z" />
    <glyph glyph-name="uhungarumlaut" unicode="&#x171;" 
d="M516 1290h-108l231 301h152zM760 1290h-109l242 301h154zM623 205q-88 -221 -287 -221q-157 0 -219 100.5t-27 298.5l137 788h146l-140 -794q-44 -266 158 -266t254 295l135 765h146l-207 -1171h-115z" />
    <glyph glyph-name="Uogonek" unicode="&#x172;" horiz-adv-x="1007" 
d="M432 -373q-104 0 -153 54.5t-35 142.5q15 85 116 160q-118 12 -184 74.5t-79 164.5t9 240l177 993h149l-178 -1010q-30 -171 15 -248t165 -77q115 0 176 69.5t90 237.5l181 1028h149l-182 -1042q-34 -187 -102.5 -288.5t-196.5 -131.5q-103 -62 -143.5 -100t-47.5 -80
q-7 -41 17 -64.5t74 -23.5q93 0 131 86h133q-86 -185 -281 -185z" />
    <glyph glyph-name="uogonek" unicode="&#x173;" 
d="M852 -201q-85 -184 -281 -184q-104 0 -153 54.5t-35 142.5q12 62 64.5 113t160.5 112l15 168q-88 -221 -287 -221q-157 0 -219 100.5t-27 298.5l137 788h146l-140 -794q-44 -266 158 -266t254 295l135 765h146l-207 -1171q-121 -75 -167.5 -115.5t-53.5 -83.5
q-7 -41 16.5 -64.5t73.5 -23.5q93 0 131 86h133z" />
    <glyph glyph-name="Wcircumflex" unicode="&#x174;" horiz-adv-x="1396" 
d="M907 1780l-159 -195h-134l256 299h105l153 -299h-127zM319 0h-131l29 1456h139l-28 -1065l-33 -225l59 207l439 1083h102l45 -1083l-16 -219l55 237l371 1065h139l-516 -1456h-133l-41 1110l16 178l-45 -180z" />
    <glyph glyph-name="wcircumflex" unicode="&#x175;" horiz-adv-x="1294" 
d="M799 1497l-160 -194h-133l256 299h104l154 -299h-127zM303 0h-141l-17 1171h140l2 -845l-15 -172l60 176l364 841h92l56 -843l-8 -183l55 181l321 845h142l-463 -1171h-137l-52 829l11 170l-49 -174z" />
    <glyph glyph-name="Ycircumflex" unicode="&#x176;" horiz-adv-x="884" 
d="M659 1769l-159 -194h-133l256 299h104l154 -299h-127zM258 0l92 528l-166 928h154l104 -676l4 -137l54 139l350 674h158l-510 -934l-90 -522h-150z" />
    <glyph glyph-name="ycircumflex" unicode="&#x177;" horiz-adv-x="894" 
d="M598 1485l-160 -195h-133l256 299h105l153 -299h-127zM-72 -334l25 135h70q58 0 104 11q41 10 69.5 42t61.5 101l27 61l-138 1155h146l88 -866l-6 -158l49 162l385 862h149l-571 -1234q-46 -108 -98 -170q-43 -58 -106 -79.5t-175 -21.5h-80z" />
    <glyph glyph-name="Ydieresis" unicode="&#x178;" horiz-adv-x="884" 
d="M487 1575q-47 0 -66 24t-9 80q10 55 33.5 77t70.5 22q95 0 76 -105q-10 -54 -34.5 -76t-70.5 -22zM764 1575q-47 0 -66.5 24t-9.5 80q10 54 35 76.5t70 22.5q46 0 65.5 -24.5t9.5 -80.5q-10 -55 -33 -76.5t-71 -21.5zM258 0l92 528l-166 928h154l104 -676l4 -137l54 139
l350 674h158l-510 -934l-90 -522h-150z" />
    <glyph glyph-name="Zacute" unicode="&#x179;" horiz-adv-x="870" 
d="M819 1907h158l-303 -322h-115zM-31 0l21 127l770 1192h-516l24 137h672l-22 -131l-756 -1184h555l-25 -141h-723z" />
    <glyph glyph-name="zacute" unicode="&#x17a;" horiz-adv-x="794" 
d="M741 1624h158l-303 -321h-115zM-20 113l667 927h-473l23 131h639l-21 -120l-655 -918h493l-22 -133l-672 -2z" />
    <glyph glyph-name="Zdotaccent" unicode="&#x17b;" horiz-adv-x="870" 
d="M618 1581q-53 0 -75.5 27.5t-12.5 91.5q12 63 39 87.5t82 24.5q106 0 84 -118q-10 -63 -36.5 -88t-80.5 -25zM-31 0l21 127l770 1192h-516l24 137h672l-22 -131l-756 -1184h555l-25 -141h-723z" />
    <glyph glyph-name="zdotaccent" unicode="&#x17c;" horiz-adv-x="794" 
d="M541 1298q-53 0 -75.5 27.5t-12.5 91.5q12 64 38.5 88.5t81.5 24.5q106 0 84 -119q-10 -64 -36.5 -88.5t-79.5 -24.5zM-20 113l667 927h-473l23 131h639l-21 -120l-655 -918h493l-22 -133l-672 -2z" />
    <glyph glyph-name="Zcaron" unicode="&#x17d;" horiz-adv-x="870" 
d="M563 1585l-151 295h129l90 -186l160 186h131l-256 -295h-103zM-31 0l21 127l770 1192h-516l24 137h672l-22 -131l-756 -1184h555l-25 -141h-723z" />
    <glyph glyph-name="zcaron" unicode="&#x17e;" horiz-adv-x="794" 
d="M485 1303l-151 294h129l90 -186l160 186h131l-256 -294h-103zM-20 113l667 927h-473l23 131h639l-21 -120l-655 -918h493l-22 -133l-672 -2z" />
    <glyph glyph-name="uni0192" unicode="&#x192;" horiz-adv-x="618" 
d="M279 59q-22 -128 -56 -186q-32 -65 -95 -92t-175 -27h-80l23 135h65q59 0 94 15q34 12 53 51t33 121l107 610h-191l23 129h192l80 459q20 117 62 190q37 69 101.5 98t168.5 29h72l-23 -127h-53q-54 0 -98 -14q-34 -17 -53 -58.5t-37 -131.5l-80 -445h206l-22 -129h-207z
" />
    <glyph glyph-name="Aringacute" unicode="&#x1fa;" horiz-adv-x="956" 
d="M897 2161h158l-303 -322h-115zM96 0h-151l575 1376q-51 26 -73.5 77.5t-10.5 115.5q17 84 77 131t144 47q96 0 149 -62t36 -149q-21 -128 -137 -168l104 -1368h-145l-19 315h-422zM627 1456q85 0 106 90q8 43 -16 72t-68 29q-40 0 -69 -24t-35 -67q-8 -42 16 -71t66 -29z
M279 451h356l-43 714l6 138l-33 -138z" />
    <glyph glyph-name="aringacute" unicode="&#x1fb;" 
d="M887 2087h157l-303 -322h-114zM616 1286q-100 0 -151 61.5t-33 153.5q17 84 77 131t144 47q96 0 149 -62t36 -149q-13 -87 -74 -134.5t-148 -47.5zM623 1389q85 0 106 90q8 43 -16 71.5t-68 28.5q-40 0 -69 -23.5t-35 -66.5q-8 -42 16 -71t66 -29zM786 0
q-106 0 -141.5 42.5t-23.5 145.5q-106 -204 -334 -204q-149 0 -216.5 87t-37.5 236l2 15q17 92 59.5 149.5t116.5 97.5q86 48 260 99q141 46 197 82t69 108v8q18 95 -27 148t-161 53q-115 0 -175.5 -53t-80.5 -174l-12 -72h-144l17 88q30 160 130.5 245t268.5 85
q180 0 264.5 -90.5t50.5 -268.5l-98 -534q-20 -101 -5.5 -132.5t81.5 -31.5h18l-24 -129h-54zM348 104q116 0 200.5 89t110.5 237l52 258q-22 -34 -66 -55.5t-139 -50.5q-148 -50 -211 -90q-94 -65 -113 -181v-2q-19 -96 24.5 -150.5t141.5 -54.5z" />
    <glyph glyph-name="AEacute" unicode="&#x1fc;" horiz-adv-x="1374" 
d="M997 1907h158l-303 -322h-115zM639 319h-399l-162 -319h-156l758 1456h758l-23 -133h-586l-28 -520h454l-24 -135h-436l-31 -531h461l-23 -137h-581zM305 446h340l39 676l31 189l-68 -189z" />
    <glyph glyph-name="aeacute" unicode="&#x1fd;" horiz-adv-x="1531" 
d="M1057 1585h157l-303 -321h-114zM1399 332q-33 -174 -130 -262t-274 -88q-310 0 -338 239q-110 -237 -366 -237q-150 0 -217.5 87t-38.5 236l2 15q31 151 143 227q51 36 116.5 61.5t178.5 57.5q135 39 193 78t71 112v8q18 94 -28.5 147.5t-159.5 53.5q-112 0 -175 -53.5
t-83 -173.5l-14 -84h-142l19 100q30 160 131 245t268 85q216 0 281 -148q114 152 301 152q193 0 283 -114.5t55 -319.5l-39 -215h-615l-20 -119q-53 -309 205 -309q116 0 173 59.5t78 185.5l5 33h147zM842 662h473l18 102q29 146 -22.5 221.5t-177.5 75.5q-221 0 -267 -262z
M352 104q116 0 200 88.5t110 237.5l49 260q-23 -36 -69.5 -58.5t-141.5 -51.5q-85 -28 -130 -47t-81 -46q-87 -67 -105 -176v-2q-19 -96 25.5 -150.5t142.5 -54.5z" />
    <glyph glyph-name="Oslashacute" unicode="&#x1fe;" horiz-adv-x="1046" 
d="M907 1962h158l-303 -322h-115zM453 -20q-93 0 -164 24l-86 -188h-117l111 237q-156 123 -105 422l96 541q41 241 157 347.5t300 106.5q108 0 168 -28l84 184h111l-107 -233q157 -121 107 -396l-27 -147q-7 -44 -23.5 -137.5t-23.5 -137.5l-27 -145q-39 -230 -145.5 -340
t-308.5 -110zM238 461q-28 -177 28 -256l490 1112q-48 22 -125 22q-118 0 -191.5 -76.5t-103.5 -248.5zM467 117q124 0 194.5 74t100.5 245l102 574q26 161 -26 241l-490 -1114q44 -20 119 -20z" />
    <glyph glyph-name="oslashacute" unicode="&#x1ff;" horiz-adv-x="958" 
d="M821 1696h158l-303 -322h-115zM410 -18q-89 0 -142 18l-84 -184h-104l104 225q-157 111 -108 391l69 402q31 171 134.5 263.5t267.5 92.5q86 0 153 -25l82 174h101l-103 -217q153 -111 107 -366l-72 -414q-63 -360 -405 -360zM217 406q-24 -149 33 -224l393 860
q-37 19 -100 19q-214 0 -254 -244zM420 113q111 0 172 64t82 188l71 411q23 136 -28 209l-391 -858q47 -14 94 -14z" />
    <glyph glyph-name="uni0218" unicode="&#x218;" horiz-adv-x="931" 
d="M408 -20q-207 0 -303 109t-58 306l25 129h149l-24 -141q-24 -133 33.5 -201.5t185.5 -68.5q225 0 256 223l6 35q13 91 -19 145q-28 54 -79 96t-131 88q-99 65 -138 97q-149 119 -114 329l8 41q24 144 127.5 226t253.5 82q134 0 217 -50q83 -49 116 -130.5t15 -186.5
l-21 -123h-147l22 121q19 113 -32 178.5t-174 65.5q-96 0 -156.5 -50.5t-79.5 -148.5l-4 -35q-16 -91 16 -145q15 -28 35.5 -52t56 -50t54 -38t67.5 -43q90 -57 138 -96q147 -116 112 -327l-4 -35q-31 -175 -126.5 -262.5t-282.5 -87.5zM205 -444q83 26 117 131
q-16 -4 -25 -4q-41 0 -54.5 18t-6.5 74q10 53 37 76.5t75 23.5q54 0 70 -31t4 -108q-19 -101 -76 -169.5t-147 -88.5z" />
    <glyph glyph-name="uni0219" unicode="&#x219;" horiz-adv-x="872" 
d="M369 -18q-188 0 -278.5 98t-55.5 268l12 70h150l-15 -86q-19 -107 34.5 -164t168.5 -57q193 0 223 174l2 8q12 71 -16 119q-28 42 -75.5 74t-125.5 71q-81 43 -131 76q-67 47 -96.5 113t-11.5 167l4 17q23 127 116.5 195.5t239.5 68.5q175 0 258.5 -92t56.5 -246l-10 -55
h-141l10 59q17 102 -30 156.5t-150 54.5q-90 0 -144.5 -40t-66.5 -113l-2 -9q-12 -68 16 -116q18 -29 55 -58t60 -41.5t84 -44.5q61 -30 131 -76t100 -113.5t11 -170.5v-10q-51 -297 -383 -297zM170 -449q82 26 117 132q-20 -5 -25 -5q-40 0 -54 18.5t-7 74.5q10 53 37 76.5
t75 23.5q54 0 70 -31t4 -108q-19 -101 -76 -169.5t-147 -88.5z" />
    <glyph glyph-name="uni0237" unicode="&#x237;" horiz-adv-x="407" 
d="M-223 -358l22 137h51q56 0 91 12q32 14 51 50t31 108l215 1222h141l-217 -1237q-22 -123 -53 -178q-32 -63 -94 -88.5t-173 -25.5h-65z" />
    <glyph glyph-name="uni0245" unicode="&#x245;" horiz-adv-x="956" 
d="M96 0h-151l608 1456h145l111 -1456h-145l-72 1165l10 144l-37 -144z" />
    <glyph glyph-name="circumflex" unicode="&#x2c6;" horiz-adv-x="837" 
d="M582 1501l-160 -194h-133l256 299h104l154 -299h-127z" />
    <glyph glyph-name="caron" unicode="&#x2c7;" horiz-adv-x="837" 
d="M494 1307l-152 295h129l90 -187l160 187h131l-256 -295h-102z" />
    <glyph glyph-name="breve" unicode="&#x2d8;" horiz-adv-x="837" 
d="M555 1303q-143 0 -199 77.5t-32 221.5h110q-14 -99 15 -146.5t116 -48.5q84 1 130 49t65 146h112q-28 -147 -102.5 -223t-214.5 -76z" />
    <glyph glyph-name="dotaccent" unicode="&#x2d9;" horiz-adv-x="841" 
d="M537 1303q-53 0 -75.5 27t-12.5 91q12 64 38.5 88.5t81.5 24.5q106 0 84 -119q-10 -63 -36 -87.5t-80 -24.5z" />
    <glyph glyph-name="ring" unicode="&#x2da;" horiz-adv-x="837" 
d="M561 1311q-100 0 -151 61.5t-33 153.5q17 84 77 131t144 47q96 0 148.5 -62t35.5 -149q-13 -87 -73.5 -134.5t-147.5 -47.5zM567 1413q86 0 107 90q8 43 -16 72t-68 29q-40 0 -69.5 -24t-35.5 -67q-8 -42 16 -71t66 -29z" />
    <glyph glyph-name="ogonek" unicode="&#x2db;" horiz-adv-x="837" 
d="M252 -385q-104 0 -153.5 55t-35.5 142q13 69 72.5 123t183.5 118l80 -53q-121 -75 -167.5 -115.5t-53.5 -83.5q-7 -41 16.5 -64.5t73.5 -23.5q93 0 131 86h133q-85 -184 -280 -184z" />
    <glyph glyph-name="tilde" unicode="&#x2dc;" horiz-adv-x="837" 
d="M254 1311q22 115 62.5 168t125.5 53q55 0 105 -29q15 -11 39.5 -30.5t38 -29.5t33 -19t36.5 -9q36 0 55 24t31 89h103q-20 -111 -64.5 -167t-130.5 -56q-60 0 -102 28q-11 9 -35.5 29.5t-38 30t-34.5 19t-40 9.5q-63 0 -82 -110h-102z" />
    <glyph glyph-name="hungarumlaut" unicode="&#x2dd;" horiz-adv-x="837" 
d="M391 1307h-108l231 301h152zM635 1307h-109l242 301h154z" />
    <glyph glyph-name="uni03BC" unicode="&#x3bc;" horiz-adv-x="954" 
d="M367 -18q-90 0 -129.5 41.5t-44.5 128.5l-99 -547h-137l276 1566h146l-141 -802q-43 -256 151 -256q208 0 260 303l133 755h146l-205 -1171h-117l17 184q-37 -100 -98 -151t-158 -51z" />
    <glyph glyph-name="pi" unicode="&#x3c0;" horiz-adv-x="1138" 
d="M850 1323h-315l-232 -1323h-143l231 1323h-207l25 133h1028l-25 -133h-215l-180 -1020q-19 -104 4 -137t113 -33h51l-20 -133h-66q-107 0 -166 27q-57 24 -71.5 88t6.5 174z" />
    <glyph glyph-name="uni0E3F" unicode="&#xe3f;" horiz-adv-x="1034" 
d="M483 0l-34 -197h-113l35 197h-332l254 1456h336l33 191h110l-33 -191q122 -3 191 -53q127 -93 90 -297l-19 -102q-19 -110 -71.5 -172t-147.5 -87q184 -64 140 -309q-5 -30 -11 -63l-12 -64q-15 -112 -63 -178q-44 -68 -128 -99.5t-221 -31.5h-4zM514 811l92 518h-190
l-90 -518h188zM877 1114q29 199 -160 213l-92 -516q109 6 162.5 57t72.5 162zM393 131l99 553h-189l-98 -553h188zM774 457q20 109 -18.5 165t-153.5 62l-96 -553q124 4 176.5 52t73.5 165z" />
    <glyph glyph-name="Wgrave" unicode="&#x1e80;" horiz-adv-x="1396" 
d="M643 1886h158l131 -299h-115zM319 0h-131l29 1456h139l-28 -1065l-33 -225l59 207l439 1083h102l45 -1083l-16 -219l55 237l371 1065h139l-516 -1456h-133l-41 1110l16 178l-45 -180z" />
    <glyph glyph-name="wgrave" unicode="&#x1e81;" horiz-adv-x="1294" 
d="M532 1602h158l131 -299h-114zM303 0h-141l-17 1171h140l2 -845l-15 -172l60 176l364 841h92l56 -843l-8 -183l55 181l321 845h142l-463 -1171h-137l-52 829l11 170l-49 -174z" />
    <glyph glyph-name="Wacute" unicode="&#x1e82;" horiz-adv-x="1396" 
d="M1069 1907h158l-303 -322h-115zM319 0h-131l29 1456h139l-28 -1065l-33 -225l59 207l439 1083h102l45 -1083l-16 -219l55 237l371 1065h139l-516 -1456h-133l-41 1110l16 178l-45 -180z" />
    <glyph glyph-name="wacute" unicode="&#x1e83;" horiz-adv-x="1294" 
d="M961 1624h157l-303 -321h-115zM303 0h-141l-17 1171h140l2 -845l-15 -172l60 176l364 841h92l56 -843l-8 -183l55 181l321 845h142l-463 -1171h-137l-52 829l11 170l-49 -174z" />
    <glyph glyph-name="Wdieresis" unicode="&#x1e84;" horiz-adv-x="1396" 
d="M735 1585q-95 0 -76 105q10 55 33.5 76.5t71.5 21.5q95 0 76 -105q-10 -54 -34.5 -76t-70.5 -22zM1012 1585q-95 0 -76 105q10 54 34.5 76t69.5 22q95 0 76 -105q-10 -55 -33 -76.5t-71 -21.5zM319 0h-131l29 1456h139l-28 -1065l-33 -225l59 207l439 1083h102l45 -1083
l-16 -219l55 237l371 1065h139l-516 -1456h-133l-41 1110l16 178l-45 -180z" />
    <glyph glyph-name="wdieresis" unicode="&#x1e85;" horiz-adv-x="1294" 
d="M625 1303q-47 0 -66.5 24t-9.5 80q10 55 33 76.5t71 21.5q47 0 66.5 -24t9.5 -80q-10 -54 -34.5 -76t-69.5 -22zM901 1303q-47 0 -66.5 24t-9.5 80q10 54 34.5 76t70.5 22q47 0 66.5 -24t9.5 -80q-10 -55 -33.5 -76.5t-71.5 -21.5zM303 0h-141l-17 1171h140l2 -845
l-15 -172l60 176l364 841h92l56 -843l-8 -183l55 181l321 845h142l-463 -1171h-137l-52 829l11 170l-49 -174z" />
    <glyph glyph-name="Ygrave" unicode="&#x1ef2;" horiz-adv-x="884" 
d="M397 1876h158l131 -299h-115zM258 0l92 528l-166 928h154l104 -676l4 -137l54 139l350 674h158l-510 -934l-90 -522h-150z" />
    <glyph glyph-name="ygrave" unicode="&#x1ef3;" horiz-adv-x="894" 
d="M334 1579h158l131 -299h-115zM-72 -334l25 135h70q58 0 104 11q41 10 69.5 42t61.5 101l27 61l-138 1155h146l88 -866l-6 -158l49 162l385 862h149l-571 -1234q-46 -108 -98 -170q-43 -58 -106 -79.5t-175 -21.5h-80z" />
    <glyph glyph-name="figuredash" unicode="&#x2012;" horiz-adv-x="1056" 
d="M123 688h844l-25 -143h-844z" />
    <glyph glyph-name="endash" unicode="&#x2013;" horiz-adv-x="811" 
d="M123 688h598l-25 -143h-598z" />
    <glyph glyph-name="emdash" unicode="&#x2014;" horiz-adv-x="1079" 
d="M123 688h868l-24 -143h-869z" />
    <glyph glyph-name="uni2015" unicode="&#x2015;" horiz-adv-x="1415" 
d="M123 688h1202l-25 -143h-1202z" />
    <glyph glyph-name="uni2016" unicode="&#x2016;" horiz-adv-x="800" 
d="M324 1620h145l-317 -1804h-146zM694 1620h146l-318 -1804h-145z" />
    <glyph glyph-name="underscoredbl" unicode="&#x2017;" horiz-adv-x="890" 
d="M717 0h-746l19 113h745zM674 -233h-746l21 112h745z" />
    <glyph glyph-name="quoteleft" unicode="&#x2018;" horiz-adv-x="468" 
d="M317 1044q-53 0 -73.5 35t-3.5 115q40 224 235 283l-2 -76q-98 -42 -131 -148q12 7 31 7q38 0 54.5 -23t6.5 -80q-11 -60 -38 -86.5t-79 -26.5z" />
    <glyph glyph-name="quoteright" unicode="&#x2019;" horiz-adv-x="468" 
d="M233 1118q107 46 132 148q-30 -6 -31 -6q-80 0 -62 102q10 60 38 86.5t79 26.5q56 0 75.5 -34t2.5 -116q-40 -224 -236 -283z" />
    <glyph glyph-name="quotesinglbase" unicode="&#x201a;" horiz-adv-x="483" 
d="M16 -145q107 42 131 147q-10 -6 -30 -6q-38 0 -55 22.5t-7 77.5q10 61 37.5 87t79.5 26q56 0 74.5 -33.5t1.5 -116.5q-38 -221 -234 -282z" />
    <glyph glyph-name="uni201B" unicode="&#x201b;" horiz-adv-x="468" 
d="M397 1042q-82 20 -117 94.5t-16 182.5q17 90 45 123t84 33q53 0 70.5 -27.5t7.5 -91.5q-10 -60 -31 -78t-67 -18q-22 0 -33 8q-12 -126 80 -154z" />
    <glyph glyph-name="quotedblleft" unicode="&#x201c;" horiz-adv-x="772" 
d="M317 1044q-53 0 -73.5 35t-3.5 115q40 224 235 283l-2 -76q-98 -42 -131 -148q12 7 31 7q38 0 54.5 -23t6.5 -80q-11 -60 -38 -86.5t-79 -26.5zM621 1044q-54 0 -74.5 35t-3.5 115q40 224 235 283l-2 -76q-98 -42 -131 -148q12 7 31 7q38 0 54.5 -23t6.5 -80
q-11 -60 -37.5 -86.5t-78.5 -26.5z" />
    <glyph glyph-name="quotedblright" unicode="&#x201d;" horiz-adv-x="772" 
d="M233 1118q107 46 132 148q-30 -6 -31 -6q-80 0 -62 102q10 60 38 86.5t79 26.5q56 0 75.5 -34t2.5 -116q-40 -224 -236 -283zM537 1118q106 45 131 148q-30 -6 -31 -6q-80 0 -62 102q10 60 38 86.5t79 26.5q56 0 75.5 -34t2.5 -116q-40 -224 -235 -283z" />
    <glyph glyph-name="quotedblbase" unicode="&#x201e;" horiz-adv-x="774" 
d="M10 -145q107 42 131 147q-10 -6 -30 -6q-38 0 -55 22.5t-7 77.5q10 61 37.5 87t79.5 26q56 0 75.5 -34t2.5 -116q-41 -221 -236 -282zM315 -145q107 42 131 147q-10 -6 -30 -6q-38 0 -55 22.5t-7 77.5q10 61 37.5 87t79.5 26q56 0 75.5 -34t2.5 -116q-41 -221 -236 -282z
" />
    <glyph glyph-name="uni201F" unicode="&#x201f;" horiz-adv-x="772" 
d="M397 1042q-82 20 -117 94.5t-16 182.5q17 90 45 123t84 33q53 0 70.5 -27.5t7.5 -91.5q-10 -60 -31 -78t-67 -18q-22 0 -33 8q-12 -126 80 -154zM700 1042q-82 20 -117 94.5t-16 182.5q17 90 45 123t84 33q53 0 70.5 -27.5t7.5 -91.5q-10 -60 -31 -78t-67 -18
q-22 0 -33 8q-12 -126 80 -154z" />
    <glyph glyph-name="dagger" unicode="&#x2020;" horiz-adv-x="808" 
d="M543 973l-185 -1057h-143l184 1057h-237l26 143h238l74 424h143l-74 -424h238l-25 -143h-239z" />
    <glyph glyph-name="daggerdbl" unicode="&#x2021;" horiz-adv-x="808" 
d="M440 381l-82 -465h-143l82 465h-240l27 143h238l79 451h-237l24 143h238l74 422h143l-74 -422h238l-25 -143h-237l-80 -451h237l-24 -143h-238z" />
    <glyph glyph-name="bullet" unicode="&#x2022;" horiz-adv-x="536" 
d="M252 457q-144 0 -119 139q13 70 51 100.5t105 30.5t98.5 -35t18.5 -106q-13 -70 -50 -99.5t-104 -29.5z" />
    <glyph glyph-name="ellipsis" unicode="&#x2026;" horiz-adv-x="1206" 
d="M147 -16q-55 0 -75.5 29t-8.5 96q11 66 37 91t84 25q56 0 75.5 -30.5t6.5 -94.5q-10 -67 -36.5 -91.5t-82.5 -24.5zM506 -16q-56 0 -77 29t-9 96q12 66 38.5 91t82.5 25q107 0 84 -125q-12 -66 -38 -91t-81 -25zM858 -16q-55 0 -75.5 29t-8.5 96q11 66 37 91t84 25
q56 0 75.5 -30.5t6.5 -94.5q-10 -67 -36.5 -91.5t-82.5 -24.5z" />
    <glyph glyph-name="perthousand" unicode="&#x2030;" horiz-adv-x="1796" 
d="M377 848q-123 0 -172.5 67t-28.5 179l33 182q17 95 78 144.5t159 49.5q116 0 170.5 -64t34.5 -173l-33 -189q-35 -196 -241 -196zM1104 1456h149l-1083 -1456h-154zM387 950q106 0 127 117l29 170q12 68 -14.5 101.5t-84.5 33.5q-109 0 -129 -112l-30 -173
q-21 -137 102 -137zM817 -20q-123 0 -172.5 66.5t-28.5 178.5l35 185q17 95 77.5 144.5t158.5 49.5q116 0 170.5 -64t34.5 -173l-33 -191q-35 -196 -242 -196zM1393 -20q-123 0 -172.5 66.5t-28.5 178.5l35 185q17 95 77 144.5t158 49.5q116 0 170.5 -64t34.5 -173l-33 -191
q-35 -196 -241 -196zM827 82q106 0 127 117l29 172q13 68 -13.5 101.5t-84.5 33.5q-109 0 -129 -113l-31 -172q-21 -139 102 -139zM1403 82q106 0 127 117l29 172q13 68 -14 101.5t-85 33.5q-109 0 -129 -113l-31 -172q-21 -139 103 -139z" />
    <glyph glyph-name="uni2032" unicode="&#x2032;" horiz-adv-x="339" 
d="M141 1049l154 407h143l-196 -407h-101z" />
    <glyph glyph-name="uni2033" unicode="&#x2033;" horiz-adv-x="571" 
d="M139 1049l154 407h141l-194 -407h-101zM365 1049l165 407h144l-209 -407h-100z" />
    <glyph glyph-name="uni2034" unicode="&#x2034;" horiz-adv-x="849" 
d="M199 977q0 59 6 102q10 114 41 299l12 78h133l-12 -78q-5 -28 -16.5 -81t-14.5 -70q-45 -192 -65 -250h-84zM453 977q0 14 2.5 49t3.5 53q10 114 41 299l14 78h131l-12 -78q-5 -28 -16.5 -81t-14.5 -70q-50 -211 -63 -250h-86zM707 977q0 59 6 102q8 88 43 299l12 78h133
l-14 -78q-15 -94 -31 -151q-35 -163 -65 -250h-84z" />
    <glyph glyph-name="guilsinglleft" unicode="&#x2039;" horiz-adv-x="624" 
d="M317 223l-194 377l4 18l319 392h148l-340 -408l201 -379h-138z" />
    <glyph glyph-name="guilsinglright" unicode="&#x203a;" horiz-adv-x="624" 
d="M37 223l342 406l-193 381h136l190 -383l-4 -17l-324 -387h-147z" />
    <glyph glyph-name="exclamdbl" unicode="&#x203c;" horiz-adv-x="913" 
d="M164 328q0 19 8 71q15 142 47 338q22 167 66 412l53 307h154l-54 -307q-9 -58 -37 -201q-37 -195 -84 -403q-41 -196 -49 -217q-30 6 -51 6q-23 0 -53 -6zM557 328q0 19 8 71q15 142 47 338q22 167 66 412l53 307h154l-54 -307q-14 -86 -36 -201q-37 -195 -84 -403
q-41 -196 -49 -217q-30 6 -52 6q-23 0 -53 -6zM160 -16q-57 0 -79.5 29.5t-10.5 95.5q12 65 40.5 90.5t84.5 25.5q111 0 88 -125q-12 -66 -39.5 -91t-83.5 -25zM553 -16q-57 0 -78.5 29.5t-9.5 95.5q10 65 38 90.5t87 25.5q56 0 77 -30.5t9 -94.5q-12 -66 -39.5 -91
t-83.5 -25z" />
    <glyph glyph-name="uni203D" unicode="&#x203d;" horiz-adv-x="1001" 
d="M451 332q-43 0 -56 -8q10 94 15 125q13 90 32 198q15 88 44.5 260t41.5 242l35 203q-93 -12 -142 -68t-67 -162l-37 -207h-141l41 226q59 334 414 334q185 0 275 -96t65 -261l-17 -90q-16 -93 -51 -151q-33 -56 -75.5 -97.5t-102.5 -85.5q-46 -35 -68.5 -53.5
t-55.5 -53.5t-51.5 -74.5t-27.5 -88.5l-18 -98q-10 6 -53 6zM657 1149q-68 -363 -100 -492q28 53 80 101q49 53 74 71q40 35 65.5 78.5t36.5 114.5l21 115q26 181 -142 213zM395 -16q-57 0 -78.5 28t-9.5 94q10 65 38.5 92t84.5 27q112 0 88 -123q-12 -66 -40 -92t-83 -26z
" />
    <glyph glyph-name="fraction" unicode="&#x2044;" horiz-adv-x="1181" 
d="M680 848l448 649l123 -90l-528 -590zM-2 63l541 611l41 -31l-455 -678z" />
    <glyph glyph-name="uni2070" unicode="&#x2070;" horiz-adv-x="563" 
d="M326 723q-112 0 -159 66.5t-26 183.5l47 268q43 225 232 225q98 0 152 -61.5t32 -177.5l-49 -279q-21 -116 -74.5 -170.5t-154.5 -54.5zM334 825q49 0 75 31.5t40 108.5l45 260q24 143 -84 143q-46 0 -75 -33t-42 -108l-43 -248q-24 -154 84 -154z" />
    <glyph glyph-name="uni2074" unicode="&#x2074;" horiz-adv-x="530" 
d="M467 891l-27 -156h-92l27 156h-281l15 78l364 487h92l-84 -479h88l-16 -86h-86zM215 977h176l45 264l25 84l-39 -68z" />
    <glyph glyph-name="uni2075" unicode="&#x2075;" horiz-adv-x="542" 
d="M307 723q-107 0 -152 56.5t-26 160.5l6 37h111l-8 -47q-8 -54 10 -81.5t71 -27.5q52 0 79 26.5t38 80.5l4 26l15 84q21 107 -76 107q-40 0 -64.5 -16.5t-52.5 -51.5q-14 -16 -14 -18l-84 26l102 371h338l-2 -6q-8 -51 -33.5 -72.5t-85.5 -21.5h-149q-24 -75 -58 -193
q55 68 142 68q79 0 117.5 -50.5t25.5 -138.5q-4 -12 -6 -30l-16 -90q-35 -199 -232 -199z" />
    <glyph glyph-name="uni2076" unicode="&#x2076;" horiz-adv-x="557" 
d="M551 930q-19 -104 -73 -155.5t-154 -51.5q-116 0 -161 64t-24 178l47 270q23 121 80.5 176t155.5 55q95 0 145.5 -56.5t30.5 -152.5l-2 -20h-109l7 29q10 59 -9.5 83.5t-70.5 24.5q-57 0 -85 -32.5t-40 -106.5l-27 -145q52 86 150 86q82 0 123 -51.5t24 -145.5zM328 819
q58 0 85 27.5t38 89.5l8 49q15 111 -88 111q-93 0 -123 -97l-8 -45q-12 -73 8.5 -104t79.5 -31z" />
    <glyph glyph-name="uni2077" unicode="&#x2077;" horiz-adv-x="464" 
d="M131 735q48 144 94 230q95 201 228 389h-277l19 102h383l-15 -86q-96 -135 -179 -301t-136 -334h-117z" />
    <glyph glyph-name="uni2078" unicode="&#x2078;" horiz-adv-x="552" 
d="M305 723q-220 0 -182 207l6 35q22 120 127 147q-75 34 -61 150l4 26q32 178 217 178q97 0 148.5 -47.5t33.5 -140.5l-6 -31q-25 -121 -113 -143q91 -45 72 -158l-8 -39q-19 -100 -74 -142t-164 -42zM383 1147q49 0 74.5 24t36.5 76l4 23q12 60 -9 85t-77 25
q-97 0 -109 -102l-4 -25q-17 -106 72 -106h12zM322 817q54 0 82 22.5t40 80.5l7 36q10 53 -13 81t-73 28h-15q-100 0 -114 -100l-7 -35q-10 -59 13 -86t80 -27z" />
    <glyph glyph-name="uni2079" unicode="&#x2079;" horiz-adv-x="548" 
d="M303 721q-98 0 -145 54t-27 151l6 32h109l-8 -34q-10 -57 9 -82t70 -25q58 0 84.5 30.5t40.5 104.5l25 150q-50 -86 -152 -86q-80 0 -119 51.5t-22 146.5l6 48q36 204 223 204q114 0 162 -65t25 -182l-45 -267q-20 -121 -79 -176t-163 -55zM362 1096q42 0 73.5 23.5
t45.5 62.5l8 47q27 145 -90 145q-52 0 -79.5 -30.5t-38.5 -92.5l-7 -43q-15 -112 88 -112z" />
    <glyph glyph-name="uni207A" unicode="&#x207a;" horiz-adv-x="548" 
d="M397 1047l-26 -146h-90l26 146h-141l16 88h140l24 137h90l-24 -137h143l-14 -88h-144z" />
    <glyph glyph-name="uni207B" unicode="&#x207b;" horiz-adv-x="548" 
d="M182 1139h373l-16 -97h-373z" />
    <glyph glyph-name="uni207C" unicode="&#x207c;" horiz-adv-x="548" 
d="M203 1233h364l-16 -92h-365zM166 1032h364l-16 -92h-364z" />
    <glyph glyph-name="uni207D" unicode="&#x207d;" horiz-adv-x="389" 
d="M350 551q-265 28 -203 379l64 356q30 175 111.5 253.5t216.5 86.5l-19 -102q-86 -6 -137 -67.5t-74 -196.5l-61 -347q-22 -128 8.5 -185.5t112.5 -68.5z" />
    <glyph glyph-name="uni207E" unicode="&#x207e;" horiz-adv-x="389" 
d="M43 657q86 6 136.5 66t74.5 195l61 346q23 129 -7 188t-113 70l18 102q263 -25 201 -379l-62 -354q-31 -176 -110.5 -254t-216.5 -86z" />
    <glyph glyph-name="uni2080" unicode="&#x2080;" horiz-adv-x="563" 
d="M197 -12q-112 0 -159 66.5t-26 183.5l47 268q43 225 232 225q98 0 152 -61.5t32 -177.5l-49 -279q-21 -116 -74.5 -170.5t-154.5 -54.5zM205 90q49 0 74.5 31t39.5 108l46 260q24 144 -84 144q-46 0 -75 -33t-42 -108l-43 -248q-24 -154 84 -154z" />
    <glyph glyph-name="uni2081" unicode="&#x2081;" horiz-adv-x="421" 
d="M-51 0l14 100h117l74 420h-97l15 86q54 1 83.5 28t47.5 87h84l-109 -621h111l-15 -100h-325z" />
    <glyph glyph-name="uni2082" unicode="&#x2082;" horiz-adv-x="528" 
d="M-37 0l12 66q8 60 41 113.5t65 83t87 71.5q8 6 34 26t35.5 27.5t30 24.5t29.5 28t22 26.5t19.5 31t9.5 32.5l2 11q7 47 -13.5 72.5t-64.5 25.5q-87 0 -102 -94l-18 -105h-107l18 113q14 80 70 129t143 49q109 0 153 -54.5t26 -139.5l-2 -13q-8 -50 -37 -93.5t-57.5 -68.5
t-77.5 -63q-7 -5 -11 -8q-39 -30 -55 -43t-44.5 -39.5t-44.5 -52t-26 -54.5h285l-18 -102h-404z" />
    <glyph glyph-name="uni2083" unicode="&#x2083;" horiz-adv-x="538" 
d="M397 176q-34 -188 -221 -188q-224 0 -186 209l10 61h109l-13 -70q-15 -102 86 -102q53 0 77 23.5t32 78.5l6 25q21 109 -86 109h-57l16 94h59q57 0 82 25t33 79l4 21q23 98 -80 98q-47 0 -69.5 -21t-30.5 -65l-12 -72h-109l16 82q14 79 66.5 123.5t142.5 44.5
q98 0 148 -50.5t33 -139.5l-4 -17q-8 -65 -31 -104t-74 -55q81 -37 57 -162z" />
    <glyph glyph-name="uni2084" unicode="&#x2084;" horiz-adv-x="530" 
d="M338 156l-27 -156h-92l27 156h-281l15 77l364 488h92l-84 -479h88l-16 -86h-86zM86 242h176l45 264l25 84l-39 -68z" />
    <glyph glyph-name="uni2085" unicode="&#x2085;" horiz-adv-x="542" 
d="M178 -12q-107 0 -152 56.5t-26 160.5l6 37h111l-8 -47q-8 -54 10 -81.5t71 -27.5q52 0 79 26.5t38 80.5l4 26l15 84q21 107 -76 107q-40 0 -64.5 -16.5t-52.5 -51.5q-14 -16 -14 -18l-84 26l102 371h338l-2 -6q-8 -51 -33.5 -72.5t-85.5 -21.5h-149q-24 -75 -58 -193
q55 68 142 68q79 0 117.5 -50.5t25.5 -138.5q-4 -13 -6 -31l-16 -90q-35 -198 -232 -198z" />
    <glyph glyph-name="uni2086" unicode="&#x2086;" horiz-adv-x="557" 
d="M422 195q-19 -104 -73 -155.5t-154 -51.5q-116 0 -161 63.5t-24 177.5l47 271q23 121 80.5 176t155.5 55q95 0 145.5 -56.5t30.5 -152.5l-2 -20h-109l7 28q10 59 -9.5 84t-70.5 25q-57 0 -85 -32.5t-40 -106.5l-27 -146q52 86 150 86q82 0 123 -51t24 -145zM199 84
q58 0 85 27.5t38 89.5l8 49q15 110 -88 110q-94 0 -123 -96l-8 -45q-12 -73 8.5 -104t79.5 -31z" />
    <glyph glyph-name="uni2087" unicode="&#x2087;" horiz-adv-x="464" 
d="M2 0q48 141 94 229q95 201 228 389h-277l19 103h383l-15 -86q-96 -135 -179 -301t-136 -334h-117z" />
    <glyph glyph-name="uni2088" unicode="&#x2088;" horiz-adv-x="552" 
d="M176 -12q-220 0 -182 207l6 34q22 121 127 148q-75 34 -61 149l4 27q32 178 217 178q97 0 148.5 -47.5t33.5 -140.5l-6 -31q-25 -121 -113 -143q91 -45 72 -158l-8 -39q-19 -100 -74 -142t-164 -42zM254 412q49 0 74.5 24t36.5 76l4 23q12 60 -9 85t-77 25
q-97 0 -109 -102l-4 -25q-17 -106 72 -106h12zM193 82q54 0 82 22t40 80l7 37q10 53 -13 81t-73 28h-15q-101 0 -115 -101l-6 -34q-10 -59 13 -86t80 -27z" />
    <glyph glyph-name="uni2089" unicode="&#x2089;" horiz-adv-x="548" 
d="M174 -14q-98 0 -145 53.5t-27 150.5l6 33h109l-8 -35q-10 -57 9 -81.5t70 -24.5q58 0 84.5 30.5t40.5 104.5l25 150q-50 -86 -152 -86q-80 0 -119 51.5t-22 146.5l6 47q37 205 223 205q114 0 162.5 -65.5t24.5 -182.5l-45 -266q-20 -121 -79 -176t-163 -55zM233 360
q42 0 73.5 23.5t45.5 62.5l8 48q27 145 -90 145q-52 0 -79.5 -30.5t-38.5 -92.5l-7 -43q-15 -113 88 -113z" />
    <glyph glyph-name="uni208A" unicode="&#x208a;" horiz-adv-x="548" 
d="M268 311l-26 -145h-90l26 145h-141l16 88h140l24 138h90l-24 -138h143l-14 -88h-144z" />
    <glyph glyph-name="uni208B" unicode="&#x208b;" horiz-adv-x="548" 
d="M53 403h373l-16 -96h-373z" />
    <glyph glyph-name="uni208C" unicode="&#x208c;" horiz-adv-x="548" 
d="M76 502h364l-16 -92h-365zM39 301h364l-16 -92h-364z" />
    <glyph glyph-name="uni208D" unicode="&#x208d;" horiz-adv-x="389" 
d="M221 -195q-265 28 -203 379l64 357q30 175 111.5 253.5t216.5 86.5l-19 -103q-86 -6 -137 -67.5t-74 -196.5l-61 -346q-22 -128 8.5 -185.5t112.5 -68.5z" />
    <glyph glyph-name="uni208E" unicode="&#x208e;" horiz-adv-x="389" 
d="M-86 -88q86 6 136.5 66t74.5 194l61 346q23 129 -7 188t-113 70l18 103q263 -25 201 -379l-62 -355q-31 -176 -110.5 -254t-216.5 -86z" />
    <glyph glyph-name="colonmonetary" unicode="&#x20a1;" horiz-adv-x="1056" 
d="M362 -10q-50 9 -92 28l-92 -254h-90l109 299q-77 62 -105.5 166.5t-3.5 237.5l25 143q8 43 24.5 134.5t24.5 134.5l24 145q41 233 166.5 341t315.5 108h2l69 206h88l-71 -213q68 -12 94 -26l84 239h90l-100 -278q80 -57 114 -152t11 -219l-23 -133h-141l24 137
q27 146 -32 226l-383 -1151q258 3 313 329l18 107h142l-21 -115q-39 -228 -154 -339t-319 -111h-24l-74 -216h-92zM225 461q-26 -149 27 -240l375 1127q-115 -8 -194.5 -87.5t-108.5 -240.5zM807 1317q-44 26 -92 29l-396 -1194q41 -26 89 -35z" />
    <glyph glyph-name="uni20A2" unicode="&#x20a2;" horiz-adv-x="1050" 
d="M926 430q-39 -230 -148 -340t-311 -110q-158 0 -252 61q-178 121 -123 426l25 143q8 43 24.5 134.5t24.5 134.5l24 145q79 449 472 449q207 0 306.5 -116t63.5 -327l-10 -53h-154l11 57q61 307 -230 307q-126 0 -201.5 -74t-105.5 -247l-100 -559q-48 -284 145 -334
l125 711h104l-12 -172q70 176 264 176h60l-27 -144h-78q-91 0 -135 -20q-45 -19 -69 -71.5t-44 -160.5l-59 -327q106 11 167.5 85t90.5 234l14 92h156z" />
    <glyph glyph-name="franc" unicode="&#x20a3;" horiz-adv-x="831" 
d="M252 412l-72 -412h-141l254 1456h625l-25 -135h-479l-78 -442h432l-23 -136h-434l-35 -198h435l-25 -133h-434z" />
    <glyph glyph-name="lira" unicode="&#x20a4;" horiz-adv-x="1060" 
d="M631 -27q-71 0 -131.5 29.5t-128.5 81.5q-101 -113 -242 -113q-100 0 -142 52t-28 133q12 70 66 111.5t131 41.5q90 0 194 -69q13 38 15 59q17 87 4 201h-275l17 100h245q-4 22 -13 65t-13 64h-195l17 102h157q-39 196 -16 345q29 151 122 229t244 78q159 0 237.5 -91.5
t49.5 -248.5l-12 -64h-154l15 76q19 93 -20.5 145t-129.5 52q-169 0 -203 -193q-21 -124 7 -328h307l-19 -102h-274q12 -86 14 -129h238l-19 -100h-213q4 -122 -12 -201q-11 -61 -37 -117q40 -26 63.5 -39.5t58.5 -26t67 -12.5q71 0 105 46.5t54 171.5l13 65h151l-16 -86
q-31 -182 -96 -255t-203 -73zM145 72q90 0 152 71q-80 66 -141 66q-72 0 -86 -66q-5 -33 14.5 -52t60.5 -19z" />
    <glyph glyph-name="uni20A6" unicode="&#x20a6;" horiz-adv-x="1183" 
d="M594 571h-283l-100 -571h-133l100 571h-160l17 101h160l24 135h-160l19 102h158l96 547h153l150 -547h291l96 547h133l-96 -547h162l-21 -102h-160l-22 -135h160l-19 -101h-160l-100 -571h-147zM371 909h131l-60 217l-22 150l-31 -258zM530 807h-178l-24 -135h239z
M907 807h-245l36 -135h187zM813 190l33 265l20 116h-139l59 -219z" />
    <glyph glyph-name="peseta" unicode="&#x20a7;" horiz-adv-x="2281" 
d="M262 471l-82 -471h-141l254 1456h330q161 0 245.5 -78t89.5 -217q27 0 52 2q88 0 106 11q36 6 51.5 20t28.5 55q19 47 45 181h107l-45 -259h219l-23 -133h-221l-104 -598q-27 -173 20 -241t201 -68h374q238 0 263 160l2 10q11 70 -17 119q-28 43 -77 74t-128 67
q-89 47 -129 74q-141 95 -108 278l2 17q23 126 115.5 195t234.5 69q177 0 263.5 -88.5t60.5 -241.5l-13 -61h-141l12 65q18 100 -32 151.5t-154 51.5q-88 0 -141.5 -40t-65.5 -113l-2 -9q-13 -74 19 -116q14 -22 34 -41.5t52.5 -39t51 -29.5t62.5 -32q78 -38 131 -73
q146 -93 113 -283l-2 -8q-25 -152 -126 -219.5t-277 -67.5h-394q-225 0 -303 102t-39 326l107 610h-197l-37 -204q-33 -185 -141 -274.5t-309 -88.5h-197zM469 602q132 -1 205.5 65t97.5 201l35 203q21 121 -29 187.5t-178 66.5h-186l-127 -723h182z" />
    <glyph glyph-name="uni20A8" unicode="&#x20a8;" horiz-adv-x="1835" 
d="M1251 -20q-176 0 -268 68t-149 226l-46 121q-37 111 -113.5 164t-207.5 53h-176l-109 -612h-143l254 1456h352q192 0 274.5 -102.5t49.5 -286.5l-23 -111q-20 -115 -78 -182t-166 -96q82 -20 131.5 -69.5t79.5 -135.5l45 -123q47 -131 117 -185t191 -54h32
q115 0 185.5 47t83.5 135l2 8q11 70 -17 119q-15 23 -35.5 42t-51 37.5t-52 29.5t-61.5 30q-61 30 -131 76q-142 95 -109 278l2 17q23 126 115.5 195t234.5 69q177 0 263.5 -88.5t60.5 -241.5l-12 -61h-142l13 65q18 100 -32.5 151.5t-154.5 51.5q-88 0 -141.5 -40
t-65.5 -113l-2 -9q-13 -74 19 -116q14 -22 33 -41t53 -39t49.5 -28t62.5 -32q78 -38 131 -73q146 -96 113 -285l-2 -8q-26 -153 -136.5 -230t-285.5 -77h-37zM416 1327l-103 -586h193q143 0 211 58t92 192l16 92q23 123 -26.5 183.5t-177.5 60.5h-205z" />
    <glyph glyph-name="uni20A9" unicode="&#x20a9;" horiz-adv-x="1466" 
d="M860 580h-270l-234 -580h-131l13 580h-220l19 102h203l2 135h-181l19 103h164l10 536h137l-16 -536h241l215 536h101l18 -536h254l185 536h137l-191 -536h170l-18 -103h-189l-47 -135h211l-16 -102h-232l-204 -580h-133zM725 920h125l-6 190l12 199l-55 -201zM578 817
h-205l-4 -135h153zM852 817h-168l-53 -135h225zM1169 817h-215l4 -135h164zM328 143l71 230l82 207h-114l-7 -189zM956 125l66 266l65 189h-124l6 -207z" />
    <glyph glyph-name="uni20AA" unicode="&#x20aa;" horiz-adv-x="1359" 
d="M354 0l203 1153q88 0 107.5 -33.5t-0.5 -140.5q0 -23 -35 -195q-16 -100 -66 -378l-49 -279h217q280 0 338 332l176 999h137l-176 -1005q-40 -226 -152.5 -339.5t-324.5 -113.5h-375zM408 1329l-234 -1329h-135l254 1456h338q212 0 304.5 -111.5t51.5 -326.5l-92 -535
q-19 -102 -53.5 -138t-116.5 -36l125 703q29 171 -24.5 244t-209.5 73h-208z" />
    <glyph glyph-name="Euro" unicode="&#x20ac;" horiz-adv-x="1046" 
d="M961 432q-40 -233 -141.5 -342.5t-301.5 -109.5q-152 0 -237 61q-167 119 -115 426q4 24 12 63h-135l18 111h136q9 36 34 186h-137l21 109h135l16 88q42 237 152 343t295 106q200 0 295 -117t57 -328v-8h-156l4 14q58 307 -213 307q-119 0 -188 -73t-100 -248l-15 -84
h455l-61 -109h-414l-33 -186h352l-61 -111h-309l-13 -69q-61 -344 219 -344q120 0 182 73t93 248l2 21h156z" />
    <glyph glyph-name="uni20AE" unicode="&#x20ae;" horiz-adv-x="806" 
d="M471 569l-100 -569h-146l88 506l-202 -84l18 100l203 84l26 150l-204 -84l18 100l203 84l82 465h-279l25 135h706l-22 -135h-285l-70 -401l220 90l-19 -101l-219 -90l-27 -149l220 90l-17 -101z" />
    <glyph glyph-name="uni20B1" unicode="&#x20b1;" horiz-adv-x="1019" 
d="M281 414l-74 -414h-144l136 764h-140l17 96h139l27 156h-138l19 98h137l59 342h312q176 0 259.5 -90.5t72.5 -251.5h124l-18 -98h-121l-26 -156h120l-16 -96h-121q-33 -177 -141.5 -264t-306.5 -86h-176zM440 1325l-37 -211h418q6 102 -45.5 156.5t-169.5 54.5h-166z
M805 1016h-420l-27 -156h420zM467 545q121 -1 192 53t101 166h-418l-39 -219h164z" />
    <glyph glyph-name="uni2105" unicode="&#x2105;" horiz-adv-x="1220" 
d="M377 848q-123 0 -172.5 67t-28.5 179l33 182q17 95 78 144.5t159 49.5q116 0 170.5 -64t34.5 -173l-2 -14h-117l5 18q13 68 -13 101.5t-82 33.5q-107 0 -127 -112l-30 -173q-21 -137 100 -137q102 0 123 117l4 27h115l-9 -50q-35 -196 -241 -196zM1104 1456h149
l-1083 -1456h-154zM817 -20q-123 0 -172.5 66.5t-28.5 178.5l35 185q17 95 77.5 144.5t158.5 49.5q116 0 170.5 -64t34.5 -173l-33 -191q-35 -196 -242 -196zM827 82q106 0 127 117l29 172q13 68 -13.5 101.5t-84.5 33.5q-109 0 -129 -113l-31 -172q-21 -139 102 -139z" />
    <glyph glyph-name="uni2116" unicode="&#x2116;" horiz-adv-x="1744" 
d="M1415 629q-148 0 -207.5 86t-33.5 231l49 281q23 122 97 186t193 64q139 0 206 -81.5t42 -221.5l-51 -293q-42 -252 -295 -252zM172 0h-133l254 1456h131l307 -1077l29 -164l18 236l178 1005h136l-256 -1456h-127l-314 1100l-20 180l-25 -266zM1427 750q137 0 162 161
l47 267q17 89 -16.5 135.5t-108.5 46.5q-136 0 -163 -154l-48 -268q-14 -89 16.5 -138.5t110.5 -49.5zM1108 477h514l-23 -127h-514z" />
    <glyph glyph-name="uni2117" unicode="&#x2117;" horiz-adv-x="1302" 
d="M586 -20q-159 0 -279 63q-128 64 -183.5 200.5t-19.5 342.5l56 317q37 203 119 332q158 235 487 235q241 0 383 -145q154 -160 98 -461l-55 -317q-38 -211 -119 -332q-155 -235 -487 -235zM596 88q201 0 321.5 106.5t161.5 346.5l60 344q27 167 -17 270
q-46 104 -141 155.5t-223 51.5q-408 0 -486 -457l-59 -338q-27 -171 16 -272q43 -104 139.5 -155.5t227.5 -51.5zM547 551l-51 -293h-109l166 936h219q246 0 207 -227l-33 -187q-43 -229 -282 -229h-117zM641 1096l-78 -445h111q140 0 164 137l30 173q11 70 -15.5 102.5
t-102.5 32.5h-109z" />
    <glyph glyph-name="uni2120" unicode="&#x2120;" horiz-adv-x="1044" 
d="M291 825q-95 0 -137.5 46.5t-24.5 125.5l10 62h94l-10 -58q-8 -42 10 -69t66 -27q84 0 96 90q7 35 -7.5 61.5t-33 39.5t-53.5 30q-60 35 -89 77.5t-17 111.5q14 72 60.5 111.5t123.5 39.5q86 0 125 -42t28 -111l-10 -56h-90l8 48q13 86 -63 86q-80 0 -92 -80
q-4 -24 1.5 -43t22.5 -34.5t29.5 -23.5t40.5 -24q60 -31 89.5 -74t14.5 -123q-29 -164 -192 -164zM637 834h-86l111 622h79l82 -319l193 319h80l-109 -622h-86l57 329l46 172l-46 -98l-151 -244h-19l-67 244l-10 100l-17 -174z" />
    <glyph glyph-name="trademark" unicode="&#x2122;" horiz-adv-x="1013" 
d="M401 1370l-96 -536h-90l96 536h-121l15 86h332l-15 -86h-121zM592 834h-86l110 622h80l82 -319l193 319h80l-109 -622h-86l57 329l45 172l-45 -98l-151 -244h-19l-67 244l-10 100l-17 -174z" />
    <glyph glyph-name="uni2126" unicode="&#x2126;" horiz-adv-x="1265" 
d="M375 0h-428l24 137h320q-46 85 -80 191q-77 228 -29 516q58 318 205 474.5t375 156.5q136 0 246 -72q108 -76 149.5 -224.5t1.5 -365.5q-64 -367 -340 -676h314l-23 -137h-436l-41 115q137 167 168 211q164 230 211 501q34 178 6 293q-48 219 -270 219q-332 0 -418 -508
q-24 -155 -13 -272q16 -111 50 -212t92 -232z" />
    <glyph glyph-name="uni2153" unicode="&#x2153;" horiz-adv-x="1181" 
d="M680 848l448 649l123 -90l-528 -590zM133 735l14 101h117l74 419h-96l14 86q54 1 83.5 28t47.5 87h84l-109 -620h111l-14 -101h-326zM1014 176q-34 -188 -221 -188q-225 0 -187 209l10 61h109l-12 -70q-15 -102 86 -102q53 0 76.5 23.5t31.5 78.5l6 25q21 109 -86 109
h-57l16 94h60q57 0 82 25t33 79l4 21q23 98 -80 98q-47 0 -70 -21t-31 -65l-12 -72h-108l16 82q14 79 66.5 123.5t142.5 44.5q98 0 147.5 -50.5t32.5 -139.5l-4 -17q-8 -65 -31 -104t-73 -55q81 -37 57 -162zM-2 63l541 611l41 -31l-455 -678z" />
    <glyph glyph-name="uni2154" unicode="&#x2154;" horiz-adv-x="1181" 
d="M680 848l448 649l123 -90l-528 -590zM100 735l13 66q6 46 24 85.5t48 73.5t55 56t65 53q5 4 33.5 25.5t36 28t29.5 24.5t30 28.5t21.5 27t20 31.5t9.5 32l2 10q7 47 -13 72.5t-64 25.5q-88 0 -103 -94l-18 -104h-107l19 112q14 80 70 129t143 49q109 0 152.5 -54.5
t25.5 -139.5l-2 -12q-5 -32 -19 -62t-27.5 -49.5t-42.5 -46t-43 -37.5t-50 -39q-41 -32 -55.5 -43.5t-44 -38.5t-45 -52t-25.5 -54h284l-18 -103h-404zM1014 176q-34 -188 -221 -188q-225 0 -187 209l10 61h109l-12 -70q-15 -102 86 -102q53 0 76.5 23.5t31.5 78.5l6 25
q21 109 -86 109h-57l16 94h60q57 0 82 25t33 79l4 21q23 98 -80 98q-47 0 -70 -21t-31 -65l-12 -72h-108l16 82q14 79 66.5 123.5t142.5 44.5q98 0 147.5 -50.5t32.5 -139.5l-4 -17q-8 -65 -31 -104t-73 -55q81 -37 57 -162zM-2 63l541 611l41 -31l-455 -678z" />
    <glyph glyph-name="uni2155" unicode="&#x2155;" horiz-adv-x="1181" 
d="M680 848l448 649l123 -90l-528 -590zM135 735l15 101h116l74 419h-96l14 86q54 1 83.5 28t47.5 87h84l-108 -620h110l-14 -101h-326zM793 -12q-107 0 -152.5 56.5t-26.5 160.5l7 37h110l-8 -47q-8 -54 10.5 -81.5t71.5 -27.5q52 0 79 26.5t38 80.5l4 26l14 84
q21 107 -76 107q-40 0 -64 -16.5t-52 -51.5q-15 -16 -15 -18l-84 26l103 371h338l-3 -6q-8 -51 -33 -72.5t-85 -21.5h-150q-11 -34 -57 -193q55 68 141 68q79 0 118 -50.5t26 -138.5q-5 -13 -7 -31l-16 -90q-35 -198 -231 -198zM-2 63l541 611l41 -31l-455 -678z" />
    <glyph glyph-name="uni2156" unicode="&#x2156;" horiz-adv-x="1181" 
d="M680 848l448 649l123 -90l-528 -590zM102 735l13 66q6 46 24 85.5t48 73.5t55 56t65 53q5 4 33.5 25.5t36 28t29.5 24.5t30 28.5t21.5 27t20 31.5t9.5 32l2 10q7 47 -13 72.5t-64 25.5q-88 0 -103 -94l-18 -104h-107l19 112q14 80 70 129t143 49q109 0 152.5 -54.5
t25.5 -139.5l-2 -12q-5 -32 -19 -62t-27.5 -49.5t-42.5 -46t-43 -37.5t-50 -39q-41 -32 -55.5 -43.5t-44 -38.5t-45 -52t-25.5 -54h284l-18 -103h-404zM793 -12q-107 0 -152.5 56.5t-26.5 160.5l7 37h110l-8 -47q-8 -54 10.5 -81.5t71.5 -27.5q52 0 79 26.5t38 80.5l4 26
l14 84q21 107 -76 107q-40 0 -64 -16.5t-52 -51.5q-15 -16 -15 -18l-84 26l103 371h338l-3 -6q-8 -51 -33 -72.5t-85 -21.5h-150q-11 -34 -57 -193q55 68 141 68q79 0 118 -50.5t26 -138.5q-5 -13 -7 -31l-16 -90q-35 -198 -231 -198zM-2 63l541 611l41 -31l-455 -678z" />
    <glyph glyph-name="uni2157" unicode="&#x2157;" horiz-adv-x="1181" 
d="M680 848l448 649l123 -90l-528 -590zM535 911q-34 -188 -222 -188q-224 0 -186 209l10 61h109l-13 -69q-15 -103 86 -103q53 0 77 24t32 79l6 24q21 109 -86 109h-57l16 94h60q57 0 81.5 25t32.5 79l4 21q23 98 -79 98q-47 0 -70 -21t-31 -65l-12 -71h-109l17 81
q14 79 66.5 123.5t142.5 44.5q98 0 147.5 -50.5t32.5 -139.5l-4 -16q-8 -65 -31.5 -104.5t-73.5 -55.5q82 -37 58 -162zM793 -12q-107 0 -152.5 56.5t-26.5 160.5l7 37h110l-8 -47q-8 -54 10.5 -81.5t71.5 -27.5q52 0 79 26.5t38 80.5l4 26l14 84q21 107 -76 107
q-40 0 -64 -16.5t-52 -51.5q-15 -16 -15 -18l-84 26l103 371h338l-3 -6q-8 -51 -33 -72.5t-85 -21.5h-150q-11 -34 -57 -193q55 68 141 68q79 0 118 -50.5t26 -138.5q-5 -13 -7 -31l-16 -90q-35 -198 -231 -198zM-2 63l541 611l41 -31l-455 -678z" />
    <glyph glyph-name="uni2158" unicode="&#x2158;" horiz-adv-x="1181" 
d="M680 848l448 649l123 -90l-528 -590zM477 891l-26 -156h-93l27 156h-281l15 78l364 487h92l-83 -479h88l-17 -86h-86zM225 977h176l45 264l25 84l-39 -68zM793 -12q-107 0 -152.5 56.5t-26.5 160.5l7 37h110l-8 -47q-8 -54 10.5 -81.5t71.5 -27.5q52 0 79 26.5t38 80.5
l4 26l14 84q21 107 -76 107q-40 0 -64 -16.5t-52 -51.5q-15 -16 -15 -18l-84 26l103 371h338l-3 -6q-8 -51 -33 -72.5t-85 -21.5h-150q-11 -34 -57 -193q55 68 141 68q79 0 118 -50.5t26 -138.5q-5 -13 -7 -31l-16 -90q-35 -198 -231 -198zM-2 63l541 611l41 -31l-455 -678z
" />
    <glyph glyph-name="uni2159" unicode="&#x2159;" horiz-adv-x="1181" 
d="M680 848l448 649l123 -90l-528 -590zM135 735l15 101h116l74 419h-96l14 86q54 1 83.5 28t47.5 87h84l-108 -620h110l-14 -101h-326zM1026 195q-19 -104 -73 -155.5t-154 -51.5q-116 0 -161 63.5t-24 177.5l48 271q23 121 80 176t155 55q95 0 145.5 -56.5t30.5 -152.5
l-2 -20h-108l6 28q10 59 -9.5 84t-70.5 25q-57 0 -85 -32.5t-40 -106.5l-27 -146q52 86 150 86q82 0 123 -51t24 -145zM-2 63l541 611l41 -31l-455 -678zM803 84q58 0 85 27.5t38 89.5l8 49q15 110 -88 110q-94 0 -123 -96l-8 -45q-12 -73 8.5 -104t79.5 -31z" />
    <glyph glyph-name="uni215A" unicode="&#x215a;" horiz-adv-x="1181" 
d="M680 848l448 649l123 -90l-528 -590zM311 723q-107 0 -152 56.5t-26 160.5l6 37h111l-8 -47q-8 -54 10.5 -81.5t71.5 -27.5q52 0 78.5 26.5t37.5 80.5l4 26l15 84q21 107 -76 107q-40 0 -64.5 -16.5t-52.5 -51.5q-14 -16 -14 -18l-84 26l102 371h338l-2 -6
q-8 -51 -33.5 -72.5t-85.5 -21.5h-149q-11 -34 -57 -193q55 68 141 68q79 0 117.5 -50.5t25.5 -138.5q-4 -12 -6 -30l-16 -90q-35 -199 -232 -199zM1026 195q-19 -104 -73 -155.5t-154 -51.5q-116 0 -161 63.5t-24 177.5l48 271q23 121 80 176t155 55q95 0 145.5 -56.5
t30.5 -152.5l-2 -20h-108l6 28q10 59 -9.5 84t-70.5 25q-57 0 -85 -32.5t-40 -106.5l-27 -146q52 86 150 86q82 0 123 -51t24 -145zM-2 63l541 611l41 -31l-455 -678zM803 84q58 0 85 27.5t38 89.5l8 49q15 110 -88 110q-94 0 -123 -96l-8 -45q-12 -73 8.5 -104t79.5 -31z
" />
    <glyph glyph-name="uni215B" unicode="&#x215b;" horiz-adv-x="1181" 
d="M680 848l448 649l123 -90l-528 -590zM135 735l15 101h116l74 419h-96l14 86q54 1 83.5 28t47.5 87h84l-108 -620h110l-14 -101h-326zM784 -12q-220 0 -182 207l6 34q22 121 127 148q-75 34 -61 149l4 27q32 178 217 178q97 0 148.5 -47.5t33.5 -140.5l-6 -31
q-25 -121 -113 -143q91 -45 72 -158l-8 -39q-19 -100 -74 -142t-164 -42zM-2 63l541 611l41 -31l-455 -678zM862 412q49 0 74.5 24t36.5 76l4 23q12 60 -9 85t-77 25q-97 0 -109 -102l-4 -25q-17 -106 72 -106h12zM801 82q55 0 83 22t40 80l6 37q10 53 -13 81t-73 28h-15
q-100 0 -114 -101l-6 -34q-10 -59 13 -86t79 -27z" />
    <glyph glyph-name="uni215C" unicode="&#x215c;" horiz-adv-x="1181" 
d="M680 848l448 649l123 -90l-528 -590zM532 911q-34 -188 -221 -188q-224 0 -186 209l10 61h109l-13 -69q-15 -103 86 -103q53 0 77 24t32 79l6 24q21 109 -86 109h-57l16 94h60q57 0 81.5 25t32.5 79l4 21q23 98 -80 98q-47 0 -69.5 -21t-30.5 -65l-12 -71h-109l17 81
q14 79 66.5 123.5t142.5 44.5q98 0 147.5 -50.5t32.5 -139.5l-4 -16q-8 -65 -31.5 -104.5t-73.5 -55.5q82 -37 58 -162zM784 -12q-220 0 -182 207l6 34q22 121 127 148q-75 34 -61 149l4 27q32 178 217 178q97 0 148.5 -47.5t33.5 -140.5l-6 -31q-25 -121 -113 -143
q91 -45 72 -158l-8 -39q-19 -100 -74 -142t-164 -42zM-2 63l541 611l41 -31l-455 -678zM862 412q49 0 74.5 24t36.5 76l4 23q12 60 -9 85t-77 25q-97 0 -109 -102l-4 -25q-17 -106 72 -106h12zM801 82q55 0 83 22t40 80l6 37q10 53 -13 81t-73 28h-15q-100 0 -114 -101
l-6 -34q-10 -59 13 -86t79 -27z" />
    <glyph glyph-name="uni215D" unicode="&#x215d;" horiz-adv-x="1181" 
d="M680 848l448 649l123 -90l-528 -590zM311 723q-107 0 -152 56.5t-26 160.5l6 37h111l-8 -47q-8 -54 10.5 -81.5t71.5 -27.5q52 0 78.5 26.5t37.5 80.5l4 26l15 84q21 107 -76 107q-40 0 -64.5 -16.5t-52.5 -51.5q-14 -16 -14 -18l-84 26l102 371h338l-2 -6
q-8 -51 -33.5 -72.5t-85.5 -21.5h-149q-11 -34 -57 -193q55 68 141 68q79 0 117.5 -50.5t25.5 -138.5q-4 -12 -6 -30l-16 -90q-35 -199 -232 -199zM784 -12q-220 0 -182 207l6 34q22 121 127 148q-75 34 -61 149l4 27q32 178 217 178q97 0 148.5 -47.5t33.5 -140.5l-6 -31
q-25 -121 -113 -143q91 -45 72 -158l-8 -39q-19 -100 -74 -142t-164 -42zM-2 63l541 611l41 -31l-455 -678zM862 412q49 0 74.5 24t36.5 76l4 23q12 60 -9 85t-77 25q-97 0 -109 -102l-4 -25q-17 -106 72 -106h12zM801 82q55 0 83 22t40 80l6 37q10 53 -13 81t-73 28h-15
q-100 0 -114 -101l-6 -34q-10 -59 13 -86t79 -27z" />
    <glyph glyph-name="uni215E" unicode="&#x215e;" horiz-adv-x="1181" 
d="M680 848l448 649l123 -90l-528 -590zM250 735q48 144 94 230q97 205 227 389h-276l18 102h383l-14 -86q-96 -135 -179 -301t-136 -334h-117zM784 -12q-220 0 -182 207l6 34q22 121 127 148q-75 34 -61 149l4 27q32 178 217 178q97 0 148.5 -47.5t33.5 -140.5l-6 -31
q-25 -121 -113 -143q91 -45 72 -158l-8 -39q-19 -100 -74 -142t-164 -42zM-2 63l541 611l41 -31l-455 -678zM862 412q49 0 74.5 24t36.5 76l4 23q12 60 -9 85t-77 25q-97 0 -109 -102l-4 -25q-17 -106 72 -106h12zM801 82q55 0 83 22t40 80l6 37q10 53 -13 81t-73 28h-15
q-100 0 -114 -101l-6 -34q-10 -59 13 -86t79 -27z" />
    <glyph glyph-name="uni215F" unicode="&#x215f;" horiz-adv-x="1181" 
d="M680 848l448 649l123 -90l-528 -590zM133 735l14 101h117l74 419h-96l14 86q54 1 83.5 28t47.5 87h84l-109 -620h111l-14 -101h-326zM-2 63l541 611l41 -31l-455 -678z" />
    <glyph glyph-name="arrowleft" unicode="&#x2190;" horiz-adv-x="1648" 
d="M350 668q94 -68 180 -168.5t127 -208.5h-161q-27 73 -88 153q-133 172 -283 258v70q69 38 145 111q75 69 133 149t84 152h162q-42 -109 -123.5 -209.5t-171.5 -165.5h1143v-141h-1147z" />
    <glyph glyph-name="arrowup" unicode="&#x2191;" horiz-adv-x="1648" 
d="M1266 870q-110 42 -210 125t-165 174v-1097h-141v1097q-65 -89 -166.5 -171.5t-212.5 -127.5v162q67 24 155 86q172 130 258 277h70q36 -63 109 -146q155 -158 303 -217v-162z" />
    <glyph glyph-name="arrowright" unicode="&#x2192;" horiz-adv-x="1648" 
d="M985 291q37 82 82 149q108 148 227 230h-1147v139h1143q-89 64 -172 165.5t-125 209.5h162q30 -82 88 -154q124 -168 275 -258v-70q-66 -38 -146 -108q-165 -152 -223 -303h-164z" />
    <glyph glyph-name="arrowdown" unicode="&#x2193;" horiz-adv-x="1648" 
d="M784 66q-39 71 -110 145q-157 168 -301 217v164q109 -42 209.5 -126.5t165.5 -176.5v1100h139v-1100q63 90 167.5 174.5t213.5 126.5v-162q-84 -31 -156 -86q-176 -133 -258 -276h-70z" />
    <glyph glyph-name="uni2196" unicode="&#x2196;" horiz-adv-x="1648" 
d="M1253 209l-813 811q19 -99 5 -236t-60 -243l-115 114q34 73 49 170q30 216 -12 379l47 49q83 -21 181 -24q219 -10 368 57l115 -115q-108 -47 -245 -60t-234 7l811 -809z" />
    <glyph glyph-name="uni2197" unicode="&#x2197;" horiz-adv-x="1648" 
d="M1241 541q-48 109 -60.5 247.5t7.5 233.5l-811 -813l-98 96l811 813q-99 -19 -235.5 -4.5t-246.5 60.5l115 114q73 -34 170 -49q216 -30 379 12l49 -47q-22 -87 -25 -180q-9 -211 60 -369z" />
    <glyph glyph-name="uni2198" unicode="&#x2198;" horiz-adv-x="1648" 
d="M1272 236q-77 21 -180 24q-215 10 -367 -57l-115 114q110 47 247 60.5t233 -6.5l-811 809l98 98l811 -811q-19 99 -5 235t60 246l113 -114q-36 -76 -47 -170q-29 -210 14 -379z" />
    <glyph glyph-name="uni2199" unicode="&#x2199;" horiz-adv-x="1648" 
d="M903 201q-76 36 -170 47q-216 30 -379 -12l-49 49q22 88 25 180q5 99 -10.5 197t-47.5 169l115 115q47 -108 60 -243t-7 -232l809 809l101 -98l-813 -813q98 19 234.5 5t246.5 -59z" />
    <glyph glyph-name="partialdiff" unicode="&#x2202;" horiz-adv-x="956" 
d="M406 -18q-149 0 -224 57q-156 118 -108 393l65 381q31 170 131 262t254 92q204 0 252 -161q-10 153 -104 280.5t-299 274.5h215q191 -148 267.5 -340t33.5 -441l-78 -438q-60 -360 -405 -360zM418 113q111 0 171 64t81 188l69 391q25 138 -29 211t-175 73
q-206 0 -252 -243l-70 -391q-24 -137 26.5 -215t178.5 -78z" />
    <glyph glyph-name="uni2206" unicode="&#x2206;" horiz-adv-x="1189" 
d="M754 1483l311 -1483h-1145zM694 1120l-540 -987h733z" />
    <glyph glyph-name="product" unicode="&#x220f;" horiz-adv-x="1138" 
d="M858 1323h-321l-234 -1323h-143l231 1323h-207l25 133h1028l-23 -133h-210l-232 -1323h-145z" />
    <glyph glyph-name="summation" unicode="&#x2211;" horiz-adv-x="798" 
d="M627 0h-666l25 147l452 607l-233 561l24 141h631l-22 -131h-484l240 -586l-451 -606h506z" />
    <glyph glyph-name="minus" unicode="&#x2212;" horiz-adv-x="909" 
d="M125 655l25 131h679l-24 -131h-680z" />
    <glyph glyph-name="radical" unicode="&#x221a;" horiz-adv-x="1157" 
d="M340 0l-94 844h-135l24 137h240l80 -756l649 1231h153l-778 -1456h-139z" />
    <glyph glyph-name="infinity" unicode="&#x221e;" horiz-adv-x="1456" 
d="M375 465q-127 0 -193 80.5t-43 208.5q20 114 105.5 183t195.5 69q75 0 138 -29q83 -40 188 -158q47 42 82 69t83.5 58t97.5 46.5t99 15.5q86 0 142 -39q61 -39 87 -103.5t13 -146.5q-20 -120 -100.5 -187t-202.5 -67q-68 0 -131 29q-36 18 -74.5 47.5t-59 49t-59.5 58.5
q-54 -45 -84.5 -68t-81.5 -55t-100.5 -46.5t-101.5 -14.5zM391 590q46 0 98 23.5t89.5 50.5t95.5 75q-124 142 -234 142q-63 0 -110.5 -37.5t-57.5 -100.5q-11 -62 22.5 -107.5t96.5 -45.5zM1069 590q65 0 110 39t56 100q11 63 -22.5 106.5t-98.5 43.5t-131 -39t-143 -109
q35 -36 52.5 -52.5t49.5 -41.5t63 -36t64 -11z" />
    <glyph glyph-name="integral" unicode="&#x222b;" horiz-adv-x="585" 
d="M-137 -172h69q60 0 95 14q32 12 52.5 52t33.5 120l221 1260q20 119 61 190q37 69 103 98t170 29h73l-22 -127h-57q-55 0 -99 -14q-34 -17 -53 -58.5t-37 -131.5l-223 -1262q-23 -131 -55 -186q-35 -65 -98 -92t-173 -27h-86z" />
    <glyph glyph-name="approxequal" unicode="&#x2248;" horiz-adv-x="925" 
d="M369 1008q55 0 114 -21q9 -3 42.5 -16t47 -17.5t39.5 -12t45.5 -10.5t38.5 -3q88 0 152 80l-25 -144q-21 -27 -64.5 -46t-86.5 -19q-65 0 -121 20q-23 7 -69.5 25t-78 26.5t-59.5 8.5q-40 0 -85.5 -22.5t-70.5 -57.5l23 141q25 28 69 48t89 20zM303 651q61 0 117 -20
q20 -7 56 -20.5t56.5 -21t48.5 -14t50 -6.5q86 0 153 80l-24 -143q-22 -27 -63 -46.5t-87 -19.5q-62 0 -121 21q-18 6 -55 20t-56.5 20.5t-47 12.5t-49.5 6q-41 0 -84 -22t-74 -56l27 142q21 27 65.5 47t87.5 20z" />
    <glyph glyph-name="notequal" unicode="&#x2260;" horiz-adv-x="925" 
d="M412 477l-84 -186h-90l84 186h-197l20 127h234l115 256h-301l20 127h338l76 166h90l-76 -166h209l-23 -127h-243l-115 -256h313l-22 -127h-348z" />
    <glyph glyph-name="equivalence" unicode="&#x2261;" horiz-adv-x="925" 
d="M211 969l22 127h637l-22 -127h-637zM158 668l22 129h637l-24 -129h-635zM104 371l25 127h635l-23 -127h-637z" />
    <glyph glyph-name="lessequal" unicode="&#x2264;" horiz-adv-x="925" 
d="M184 811l23 125l665 244l-26 -152l-481 -160l423 -168l-26 -143zM96 305l25 129h622l-24 -129h-623z" />
    <glyph glyph-name="greaterequal" unicode="&#x2265;" horiz-adv-x="925" 
d="M180 709l482 161l-424 168l26 142l578 -252l-23 -125l-665 -246zM131 434h621l-23 -129h-623z" />
    <glyph glyph-name="uni22A0" unicode="&#x22a0;" horiz-adv-x="1849" 
d="M203 1456h1444v-1456h-1444v1456zM1450 184v1086h-1051v-1086h1051zM924 616l-281 -290l-117 114l285 293l-283 291l119 113l279 -285l278 287l115 -115l-281 -289l285 -291l-119 -116z" />
    <glyph glyph-name="house" unicode="&#x2302;" horiz-adv-x="1726" 
d="M205 821l659 633l658 -633v-821h-1317v821z" />
    <glyph glyph-name="filledbox" unicode="&#x25a0;" horiz-adv-x="1849" 
d="M203 1456h1444v-1456h-1444v1456z" />
    <glyph glyph-name="uni25A1" unicode="&#x25a1;" horiz-adv-x="1849" 
d="M203 0v1456h1444v-1456h-1444zM399 184h1051v1086h-1051v-1086z" />
    <glyph glyph-name="uni25AA" unicode="&#x25aa;" horiz-adv-x="1560" 
d="M205 1151h1151v-1151h-1151v1151z" />
    <glyph glyph-name="uni25AB" unicode="&#x25ab;" horiz-adv-x="1560" 
d="M205 1151h1151v-1151h-1151v1151zM1163 184v785h-762v-785h762z" />
    <glyph glyph-name="triagup" unicode="&#x25b2;" horiz-adv-x="1798" 
d="M43 0l858 1485l854 -1485h-1712z" />
    <glyph glyph-name="triagrt" unicode="&#x25ba;" horiz-adv-x="1798" 
d="M203 1599l1483 -856l-1483 -856v1712z" />
    <glyph glyph-name="triagdn" unicode="&#x25bc;" horiz-adv-x="1798" 
d="M43 1460h1712l-854 -1485z" />
    <glyph glyph-name="triaglf" unicode="&#x25c4;" horiz-adv-x="1798" 
d="M1595 -113l-1484 856l1484 856v-1712z" />
    <glyph glyph-name="lozenge" unicode="&#x25ca;" horiz-adv-x="1200" 
d="M78 727l637 541l452 -545l-639 -541zM977 729l-289 350l-420 -358l287 -350z" />
    <glyph glyph-name="circle" unicode="&#x25cb;" horiz-adv-x="1845" 
d="M920 -20q-212 0 -381 94q-169 98 -262 264.5t-93 380.5q0 159 53.5 294.5t153.5 235.5q205 211 529 211q317 0 532 -209q209 -215 209 -532q0 -322 -209 -531q-100 -100 -236 -154t-296 -54zM920 174q152 0 278 72q124 73 195 197t71 276q0 159 -71 278
q-72 128 -194.5 200.5t-278.5 72.5q-149 0 -275 -72q-123 -73 -193.5 -198t-70.5 -281q0 -159 72 -279q71 -125 193 -195.5t274 -70.5z" />
    <glyph glyph-name="uni25CE" unicode="&#x25ce;" horiz-adv-x="1839" 
d="M915 -20q-212 0 -378 94q-169 96 -262 262t-93 381q0 317 207 530q205 211 526 211q322 0 531 -209q100 -100 154.5 -236t54.5 -296q0 -316 -207 -529q-208 -208 -533 -208zM915 242q139 0 244 63q109 62 170.5 170t61.5 242q0 132 -62 244q-63 112 -170.5 175.5
t-243.5 63.5q-126 0 -237 -63q-109 -66 -170.5 -175t-61.5 -245q0 -133 62 -242q65 -110 171 -171.5t236 -61.5zM918 375q-103 0 -177 45q-78 43 -122 120t-44 175q0 100 46 176q45 79 123 123.5t174 44.5q102 0 176 -45q80 -45 125 -123t45 -176q0 -100 -45 -174
q-45 -78 -123 -122t-178 -44zM918 600q49 0 79.5 33.5t30.5 81.5q0 54 -30 86.5t-80 32.5q-45 0 -76 -33t-31 -86q0 -47 31.5 -81t75.5 -34z" />
    <glyph glyph-name="uni25CF" unicode="&#x25cf;" horiz-adv-x="1845" 
d="M920 -20q-212 0 -381 94q-169 98 -262 264.5t-93 380.5q0 159 53.5 294.5t153.5 235.5q205 211 529 211q317 0 532 -209q209 -215 209 -532q0 -322 -209 -531q-100 -100 -236 -154t-296 -54z" />
    <glyph glyph-name="uni25E2" unicode="&#x25e2;" horiz-adv-x="1798" 
d="M535 -145l-441 1654l1653 -444z" />
    <glyph glyph-name="uni25E3" unicode="&#x25e3;" horiz-adv-x="1798" 
d="M55 1065l1655 444l-444 -1654z" />
    <glyph glyph-name="uni25E4" unicode="&#x25e4;" horiz-adv-x="1798" 
d="M61 334l1211 1212l444 -1652z" />
    <glyph glyph-name="uni25E5" unicode="&#x25e5;" horiz-adv-x="1798" 
d="M92 -115l443 1653l1210 -1212z" />
    <glyph glyph-name="uni2605" unicode="&#x2605;" horiz-adv-x="1824" 
d="M676 614l-375 275l461 -2l147 438l144 -438l465 -2l-381 -273l147 -440l-377 272l-379 -272z" />
    <glyph glyph-name="sun" unicode="&#x263c;" horiz-adv-x="1882" 
d="M881 1436h108l-35 -289h-41zM528 1313l97 57l110 -268l-28 -21zM1243 1370l94 -57l-176 -232l-31 21zM287 1030l55 94l231 -176l-20 -30zM1522 1124l61 -92l-268 -114l-21 32zM582 719q0 99 47 176q51 81 130.5 128.5t174.5 47.5q93 0 176 -47q81 -51 128.5 -130.5
t47.5 -174.5q0 -100 -49 -176q-48 -81 -128 -128.5t-175 -47.5q-99 0 -176 47q-81 51 -128.5 130.5t-47.5 174.5zM221 668v108l287 -35v-39zM1649 776v-108l-289 34v39zM346 315l-59 95l266 112l20 -30zM1583 412l-57 -97l-232 179l21 28zM625 74l-97 55l179 231l28 -20z
M1337 129l-94 -55l-113 266l31 20zM989 8h-108l32 289h41z" />
    <glyph glyph-name="uni263E" unicode="&#x263e;" horiz-adv-x="1595" 
d="M1083 1223q-133 0 -243 -70q-112 -68 -177 -184t-65 -254q0 -134 66 -254q67 -117 177 -184.5t242 -67.5q61 0 142 24q-160 -116 -359 -116q-251 0 -424 176q-174 174 -174 422t174 422q173 176 424 176q203 0 359 -115q-84 25 -142 25z" />
    <glyph glyph-name="spade" unicode="&#x2660;" horiz-adv-x="1820" 
d="M975 573q0 -147 80 -337q21 -46 43.5 -91.5t46.5 -90t29 -54.5h-512q9 17 32 63.5t39 75.5q117 240 117 434q-23 -66 -70 -129q-97 -139 -268 -139q-100 0 -168 43q-79 43 -124.5 114t-45.5 156q0 113 47 209q48 93 146.5 192.5t273.5 237.5l277 222l278 -222
q168 -133 262 -233q101 -101 145 -195.5t44 -210.5q0 -83 -41 -157q-44 -73 -114 -114.5t-157 -41.5q-100 0 -168 39q-130 69 -192 229z" />
    <glyph glyph-name="club" unicode="&#x2663;" horiz-adv-x="1828" 
d="M1311 260q-113 0 -199 65t-125 171q11 -97 51 -203q36 -96 140 -293h-512q1 2 24.5 46.5t38.5 74.5q101 202 121 377q-42 -107 -131 -172.5t-203 -65.5q-93 0 -176 47q-81 48 -127.5 128t-46.5 177q0 99 47 176q48 81 127.5 127t175.5 46q30 0 84 -13q-41 90 -41 174
q0 97 47 174q48 79 129 125.5t176 46.5q101 0 174 -47q81 -48 126.5 -126t45.5 -173q0 -98 -38 -178q53 17 94 17q102 0 176 -48q80 -45 126 -124.5t46 -176.5q0 -100 -47 -178q-48 -81 -127 -127.5t-176 -46.5z" />
    <glyph glyph-name="heart" unicode="&#x2665;" horiz-adv-x="1828" 
d="M629 279q-168 186 -262 323q-100 139 -144.5 257t-44.5 235q0 103 49 188q48 86 131 136t183 50q94 0 182 -43q81 -43 130 -116.5t56 -167.5q9 95 58 168q48 75 126 117t179 42q105 0 188 -51q88 -52 138.5 -137t50.5 -186q0 -120 -47 -234q-81 -215 -416 -581l-277 -314
z" />
    <glyph glyph-name="diamond" unicode="&#x2666;" horiz-adv-x="1828" 
d="M266 735l647 750l648 -750l-648 -755z" />
    <glyph glyph-name="uni267B" unicode="&#x267b;" horiz-adv-x="1681" 
d="M711 1376h331q26 -1 37 -1.5t31.5 -5t32 -12.5t26 -23t27.5 -38l49 -84l76 43l-109 -288l-292 55l69 41l-123 215q-22 42 -63 65q-22 12 -45 20t-35 9l-12 2v2zM477 1270q8 13 23 28.5t32 22.5q46 30 111 27q59 -4 106.5 -28.5t65.5 -57.5l-199 -344l-256 147zM1518 743
q14 -33 14 -73q0 -62 -33 -109q-31 -48 -76.5 -77t-83.5 -29l-198 344l256 143zM334 254l-164 285q-19 33 -26.5 54t-4.5 53t23 67l49 86l-74 43l301 53l99 -287l-68 43l-61 -104q-61 -101 -64 -111q-25 -48 -25 -86q0 -24 4.5 -48t9.5 -36l5 -12h-4zM1499 496l-168 -287
q-18 -27 -26 -38t-26 -28t-41.5 -23.5t-55.5 -6.5h-97v-84l-192 233l192 232v-86h246q49 0 88 22q22 14 41.5 31t27.5 27l9 10zM551 113q-37 0 -74 22q-57 37 -78 84q-26 51 -28.5 105t16.5 84h395v-295h-231z" />
    <glyph glyph-name="uni267C" unicode="&#x267c;" horiz-adv-x="1681" 
d="M1524 715q0 -139 -52.5 -263.5t-146.5 -218.5q-198 -198 -481 -198q-140 0 -265 51t-221 147q-97 93 -149.5 217.5t-52.5 264.5q0 288 202 487q96 96 221 148.5t265 52.5q280 0 481 -201q199 -205 199 -487zM727 1235l23 -4q72 -18 100 -72l96 -166l-53 -32l227 -43
l80 223l-57 -31l-35 64q-24 40 -51 51.5t-72 11.5h-258v-2zM467 995l199 -112l151 264q-11 23 -51 45q-93 47 -168 2q-32 -18 -43 -43zM1270 903l-199 -117l154 -268q25 0 63 23q86 60 86 149q0 30 -16 58zM449 365q-5 6 -7 22q-22 60 11 123l94 166l55 -35l-80 221
l-227 -39l55 -35l-39 -65q-8 -14 -12.5 -27.5t-6 -23t1.5 -23t5.5 -20t9 -22t8.5 -21.5l129 -221h3zM1343 553l-14 -16q-39 -50 -112 -50h-189v62l-151 -178l151 -178v67h76q25 0 43.5 6t29.5 16t21.5 22.5t18.5 25.5l129 221zM786 260v227h-307q-14 -22 -14 -67
q2 -43 23.5 -82t58.5 -62q37 -16 59 -16h180z" />
    <glyph glyph-name="uni267D" unicode="&#x267d;" horiz-adv-x="1681" 
d="M1524 715q0 -139 -52.5 -263.5t-146.5 -218.5q-198 -198 -481 -198q-140 0 -265 51t-221 147q-97 93 -149.5 217.5t-52.5 264.5q0 288 202 487q96 96 221 148.5t265 52.5q280 0 481 -201q199 -205 199 -487zM1491 715q0 134 -49.5 252.5t-141.5 210.5q-187 190 -456 190
q-134 0 -252.5 -49.5t-208.5 -140.5q-92 -92 -142.5 -211t-50.5 -252t50.5 -250.5t142.5 -208.5q90 -90 208.5 -139t252.5 -49q268 0 456 188q191 188 191 459zM727 1237h258q45 0 72 -11.5t51 -51.5l35 -64l57 31l-80 -223l-227 43l53 32l-96 166q-20 33 -49 49
q-17 10 -35.5 17t-28.5 9l-10 1v2zM555 1151q11 25 43 43q39 23 86 20q46 -5 83.5 -23t49.5 -44l-151 -264l-199 112zM1358 748q16 -28 16 -58q0 -48 -24 -86q-26 -38 -61 -62t-64 -24l-154 268l199 117zM446 365l-129 221q-2 6 -8.5 21.5t-9 22t-5.5 20t-1.5 23t6 23
t12.5 27.5l39 65l-55 35l227 39l80 -221l-55 35l-94 -166q-19 -31 -19 -68q0 -21 4 -40t8 -28l3 -9h-3zM1346 551l-129 -221q-8 -13 -18.5 -25.5t-21.5 -22.5t-29.5 -16t-43.5 -6h-76v-67l-151 178l151 178v-62h189q38 0 69 17q17 10 31.5 22.5t20.5 19.5l5 7zM606 260
q-22 0 -59 16q-39 22 -60 62q-19 40 -20.5 83t12.5 66h307v-227h-180z" />
    <glyph glyph-name="uni26AC" unicode="&#x26ac;" horiz-adv-x="1562" 
d="M780 -20q-173 0 -309 77q-136 79 -213.5 215.5t-77.5 305.5q0 162 80 309q81 137 217 215t303 78q163 0 307 -78q140 -81 218.5 -216.5t78.5 -307.5q0 -177 -79 -306q-79 -137 -216.5 -214.5t-308.5 -77.5zM780 160q126 0 209 55q93 55 146 149.5t53 213.5q0 124 -53 219
q-55 97 -146 149.5t-209 52.5q-126 0 -209 -55q-93 -54 -143.5 -149t-50.5 -217q0 -116 51 -213q54 -97 144 -151t208 -54z" />
    <glyph glyph-name="uni2E18" unicode="&#x2e18;" horiz-adv-x="1001" 
d="M600 1153q57 0 78.5 -29.5t9.5 -95.5q-10 -64 -38.5 -91.5t-84.5 -27.5q-112 0 -88 125q12 65 40 92t83 27zM365 -338q-185 0 -275 94.5t-65 259.5l16 90q16 95 51 152q23 38 55.5 74.5t57.5 57.5t65 52q90 70 121 104q65 71 82 165l19 100q19 -8 53 -8q36 0 55 8
q-13 -121 -14 -125q-16 -101 -33 -199q-13 -80 -42.5 -249.5t-43.5 -249.5l-35 -205q91 12 141 68.5t68 160.5l37 209h141l-41 -227q-30 -166 -131 -249t-282 -83zM162 -2q-26 -181 141 -213l35 201q61 322 102 491q-40 -63 -82 -100q-54 -58 -73 -72q-41 -35 -66 -77.5
t-37 -114.5z" />
    <glyph glyph-name="uni3008" unicode="&#x3008;" horiz-adv-x="612" 
d="M242 -358l-146 933l467 932h156l-471 -942l145 -923h-151z" />
    <glyph glyph-name="uni3009" unicode="&#x3009;" horiz-adv-x="612" 
d="M-106 -358l468 936l-147 929h154l145 -940l-463 -925h-157z" />
    <glyph glyph-name="i.dot" horiz-adv-x="405" 
d="M336 1294q-55 0 -73.5 25.5t-8.5 89.5q12 63 37.5 86t77.5 23q53 0 71.5 -26t8.5 -87q-12 -63 -37 -87t-76 -24zM29 0l204 1171h146l-207 -1171h-143z" />
    <glyph glyph-name="zero.inf" horiz-adv-x="563" 
d="M141 -326q-112 0 -158.5 66.5t-25.5 183.5l47 269q43 225 232 225q98 0 152 -62t32 -178l-49 -278q-21 -116 -75 -171t-155 -55zM150 -223q49 0 74.5 31t39.5 108l45 260q24 143 -84 143q-46 0 -74.5 -32.5t-41.5 -108.5l-43 -248q-24 -153 84 -153z" />
    <glyph glyph-name="one.inf" horiz-adv-x="421" 
d="M-106 -313l14 100h117l73 420h-96l14 86q54 1 83.5 28t47.5 87h84l-108 -621h110l-14 -100h-325z" />
    <glyph glyph-name="two.inf" horiz-adv-x="528" 
d="M-92 -313l12 65q8 60 41 113.5t65 83t87 71.5q5 4 33.5 25.5t36 28t29.5 24.5t30 28.5t21.5 27t20 31.5t9.5 32l2 10q7 47 -13.5 73t-64.5 26q-87 0 -102 -95l-19 -104h-106l18 113q14 80 70 129t143 49q108 0 152 -55t26 -140l-2 -12q-5 -32 -19 -62t-27.5 -49.5
t-42.5 -46t-43 -37.5t-50 -39q-41 -32 -55.5 -43.5t-44 -38.5t-45 -52t-25.5 -54h285l-19 -102h-403z" />
    <glyph glyph-name="three.inf" horiz-adv-x="538" 
d="M342 -137q-34 -189 -221 -189q-225 0 -187 209l11 62h108l-12 -70q-15 -102 86 -102q53 0 77 23.5t32 78.5l6 25q10 55 -11 81.5t-75 26.5h-58l17 94h59q57 0 82 25.5t33 79.5l4 20q11 46 -8.5 72.5t-71.5 26.5q-47 0 -69.5 -21t-30.5 -65l-13 -72h-108l16 82
q14 79 66.5 123.5t142.5 44.5q98 0 147.5 -51t32.5 -140l-4 -16q-8 -65 -31 -104.5t-73 -55.5q81 -37 57 -162z" />
    <glyph glyph-name="four.inf" horiz-adv-x="530" 
d="M283 -158l-27 -155h-92l26 155h-280l14 78l365 488h92l-84 -480h88l-16 -86h-86zM31 -72h176l45 265l24 83l-38 -67z" />
    <glyph glyph-name="five.inf" horiz-adv-x="542" 
d="M123 -326q-107 0 -152 56.5t-26 160.5l6 37h110l-8 -47q-8 -55 10.5 -81.5t71.5 -26.5q52 0 79 26t38 80l4 27l14 84q21 106 -75 106q-40 0 -64.5 -16t-52.5 -51q-15 -17 -15 -19l-83 27l102 371h338l-2 -7q-8 -51 -33.5 -72.5t-85.5 -21.5h-149q-27 -86 -58 -192
q55 67 141 67q79 0 118 -50t26 -138q-4 -13 -6 -31l-17 -90q-35 -199 -231 -199z" />
    <glyph glyph-name="six.inf" horiz-adv-x="557" 
d="M367 -119q-19 -104 -73.5 -155.5t-154.5 -51.5q-116 0 -160.5 63.5t-23.5 178.5l47 270q23 121 80.5 176.5t155.5 55.5q95 0 145.5 -56.5t30.5 -152.5l-2 -21h-109l6 29q10 59 -9.5 84t-70.5 25q-57 0 -85 -33t-40 -107l-26 -145q52 86 149 86q82 0 123.5 -51.5
t24.5 -145.5zM143 -229q58 0 85 27t38 89l8 50q15 110 -88 110q-94 0 -123 -96l-8 -45q-12 -73 8.5 -104t79.5 -31z" />
    <glyph glyph-name="seven.inf" horiz-adv-x="464" 
d="M-53 -313q48 141 94 229q97 205 227 389h-276l18 103h383l-14 -86q-206 -289 -316 -635h-116z" />
    <glyph glyph-name="eight.inf" horiz-adv-x="552" 
d="M123 -326q-220 0 -182 207l6 35q22 120 127 147q-76 34 -62 150l4 27q32 178 217 178q97 0 149 -48t34 -141l-6 -30q-25 -122 -113 -144q91 -45 72 -157l-9 -39q-19 -100 -74 -142.5t-163 -42.5zM201 98q48 0 73.5 24.5t36.5 76.5l4 22q12 60 -9.5 85.5t-76.5 25.5
q-96 0 -108 -103l-4 -24q-17 -107 71 -107h13zM139 -231q55 0 83 22t40 80l6 37q10 53 -13 80.5t-73 27.5h-14q-100 0 -115 -100l-6 -35q-10 -59 12.5 -85.5t79.5 -26.5z" />
    <glyph glyph-name="nine.inf" horiz-adv-x="548" 
d="M119 -330q-98 0 -145 54t-27 151l6 33h108l-8 -35q-10 -57 9.5 -81.5t70.5 -24.5q58 0 84.5 30.5t40.5 104.5l25 149q-50 -86 -152 -86q-80 0 -119 52t-22 147l6 47q37 205 223 205q114 0 162.5 -65.5t24.5 -182.5l-46 -266q-20 -122 -78.5 -177t-162.5 -55zM178 45
q42 0 73.5 23.5t45.5 62.5l8 47q27 146 -90 146q-52 0 -80 -30.5t-39 -92.5l-6 -43q-15 -113 88 -113z" />
    <glyph glyph-name="underscore" horiz-adv-x="919" 
d="M-4 141h772l-25 -141h-772z" />
    <glyph glyph-name="backslash.cap" horiz-adv-x="602" 
d="M215 1456h147l76 -1456h-147z" />
    <glyph glyph-name="periodcentered.cap" horiz-adv-x="501" 
d="M260 602q-58 0 -79.5 28.5t-8.5 96.5q10 66 38 92.5t87 26.5q56 0 77 -30.5t9 -94.5q-12 -66 -40 -92.5t-83 -26.5z" />
    <glyph glyph-name="bullet.cap" horiz-adv-x="536" 
d="M272 582q-141 0 -116 139q13 70 51 100.5t104 30.5q67 0 98.5 -34t18.5 -105q-13 -70 -51 -100.5t-105 -30.5z" />
    <glyph glyph-name="uni2016.cap" horiz-adv-x="800" 
d="M324 1620h145l-317 -1804h-146zM694 1620h146l-318 -1804h-145z" />
    <glyph glyph-name="exclamdown.cap" horiz-adv-x="524" 
d="M375 1227q-57 0 -78.5 29t-9.5 98q12 65 40.5 90.5t84.5 25.5q110 0 86 -127q-10 -65 -38 -90.5t-85 -25.5zM133 303q9 58 37 201q24 125 82 403q41 196 49 217q28 -4 51 -4q34 0 54 4q0 -3 -1.5 -12t-3 -24.5t-2.5 -32.5q-5 -37 -21 -151.5t-26 -188.5
q-8 -49 -30 -194.5t-35 -215.5l-56 -309h-153z" />
    <glyph glyph-name="uni2E18.cap" horiz-adv-x="1001" 
d="M662 1475q56 0 77.5 -29.5t8.5 -95.5q-11 -65 -38 -92t-85 -27q-110 0 -86 125q10 65 38.5 92t84.5 27zM426 -16q-186 0 -275.5 95t-66.5 259l16 90q16 92 52 152q54 91 180 184q88 70 116 101q67 72 84 167l19 101q21 -9 53 -9q34 0 55 9q0 -53 -14 -125
q-16 -101 -33 -199q-13 -80 -42.5 -250t-43.5 -250l-34 -205q92 12 141.5 68.5t68.5 161.5l35 209h142l-39 -228q-31 -165 -132.5 -248t-281.5 -83zM221 319q-26 -181 144 -213l34 201q33 186 99 490q-29 -50 -78 -99q-44 -48 -74 -71q-41 -34 -66 -77t-38 -116z" />
    <glyph glyph-name="questiondown.cap" horiz-adv-x="964" 
d="M657 1473q57 0 78.5 -28t9.5 -97q-12 -65 -39 -91t-85 -26q-110 0 -86 123q12 66 39 92.5t83 26.5zM532 1135q19 -15 68 -15q50 0 76 15q0 -2 -4 -35.5t-8 -48.5l-13 -64q-15 -86 -55 -149q-7 -12 -15.5 -23.5t-15 -20.5t-17.5 -19.5t-16.5 -17t-18 -17t-17 -14.5
t-19 -14.5t-17.5 -13t-18.5 -14t-17.5 -12.5q-54 -36 -83 -59.5t-58.5 -70t-40.5 -106.5l-19 -104q-10 -59 4 -105q27 -110 185 -110q110 0 167.5 54.5t77.5 162.5l35 201h152l-39 -224q-60 -327 -406 -327q-183 0 -266.5 99t-58.5 265l18 103q16 92 51 147q32 53 74 91
t98 75q42 28 65.5 46.5t53.5 49t48 69t28 87.5z" />
    <glyph glyph-name="slash.cap" horiz-adv-x="602" 
d="M549 1456h149l-589 -1456h-152z" />
    <glyph glyph-name="uni3008.cap" horiz-adv-x="612" 
d="M264 -219l-145 936l469 930h155l-471 -938l146 -928h-154z" />
    <glyph glyph-name="uni3009.cap" horiz-adv-x="612" 
d="M-84 -219l469 936l-145 930h153l146 -938l-465 -928h-158z" />
    <glyph glyph-name="braceleft.cap" horiz-adv-x="647" 
d="M299 -213q-99 0 -152 41q-88 74 -61 248q12 70 53 155q12 25 38 76.5t39.5 80t28 66t19.5 64.5q32 156 -112 156h-72l26 137h68q136 0 160 141q11 56 2 133q-1 13 -5 50.5t-5.5 55t-4 51t-2.5 55t1.5 49t5.5 51.5q22 121 93.5 189.5t213.5 68.5h133l-23 -121h-71
q-98 0 -143.5 -38t-59.5 -120q-11 -58 -2 -137q1 -13 7.5 -75t8.5 -86.5t2 -67.5t-6 -74q-38 -191 -213 -191l-2 -6q84 0 123.5 -56.5t22.5 -147.5q-2 -14 -5.5 -28.5t-10 -33t-10.5 -30.5t-14.5 -36t-14.5 -33t-17 -38.5t-16 -36.5q-78 -165 -89 -231q-14 -82 18 -120
t130 -38h76l-21 -123h-137z" />
    <glyph glyph-name="braceright.cap" horiz-adv-x="647" 
d="M-43 -68h74q97 0 142.5 38t59.5 118q12 62 3 139q-1 11 -7.5 74t-8.5 86.5t-2 66.5t5 74q34 190 213 193v4q-84 0 -123.5 58t-21.5 149q2 14 5.5 28.5t9.5 32.5t11 31t14.5 35t14.5 33.5t16.5 38t16.5 36.5q77 161 88 232q14 81 -18 119t-130 38h-73l20 121h135
q99 0 152 -41q92 -71 61 -245q-11 -68 -51 -156q-13 -28 -38.5 -77t-40 -78.5t-29 -67t-19.5 -64.5q-13 -81 15.5 -118t97.5 -37h72l-25 -140h-68q-138 0 -161 -141q-10 -65 -2 -131q1 -10 8 -73t8.5 -87t1.5 -69.5t-6 -81.5q-22 -122 -93 -190t-216 -68h-131z" />
    <glyph glyph-name="bracketleft.cap" horiz-adv-x="626" 
d="M412 -211h-398l328 1864h397l-20 -127h-254l-283 -1610h252z" />
    <glyph glyph-name="bracketright.cap" horiz-adv-x="626" 
d="M-68 -211l23 127h254l283 1610h-252l20 127h399l-327 -1864h-400z" />
    <glyph glyph-name="parenleft.cap" horiz-adv-x="649" 
d="M436 -215q-212 14 -298 172t-29 471l108 629q36 204 113 340q145 245 436 260l-25 -139q-146 -12 -239.5 -128.5t-136.5 -359.5l-109 -620q-31 -165 -14 -270t71 -156t148 -58z" />
    <glyph glyph-name="parenright.cap" horiz-adv-x="649" 
d="M-47 -76q149 12 241.5 127.5t135.5 360.5l110 620q42 243 -11.5 358t-195.5 126l25 141q213 -14 300 -172t30 -471l-111 -629q-37 -214 -112 -340q-139 -245 -437 -260z" />
    <glyph glyph-name="parenleft.inf" horiz-adv-x="389" 
d="M168 -500q-265 28 -203 379l64 357q30 175 111 253t216 86l-18 -102q-86 -6 -137 -67.5t-74 -196.5l-61 -346q-22 -128 8 -185.5t112 -68.5z" />
    <glyph glyph-name="parenright.inf" horiz-adv-x="389" 
d="M-139 -393q86 6 136.5 66t74.5 194l61 346q22 129 -8 188t-113 70l19 102q262 -25 200 -378l-61 -355q-31 -176 -111 -254t-217 -86z" />
    <glyph glyph-name="emdash.cap" horiz-adv-x="946" 
d="M143 795h734l-25 -144h-735z" />
    <glyph glyph-name="endash.cap" horiz-adv-x="698" 
d="M143 795h486l-25 -144h-487z" />
    <glyph glyph-name="figuredash.cap" horiz-adv-x="1079" 
d="M143 795h869l-27 -144h-868z" />
    <glyph glyph-name="uni2015.cap" horiz-adv-x="1056" 
d="M143 795h844l-24 -144h-846z" />
    <glyph glyph-name="hyphen.cap" horiz-adv-x="837" 
d="M143 795h629l-27 -144h-628z" />
    <glyph glyph-name="guillemotleft.cap" horiz-adv-x="976" 
d="M348 330l-196 387l2 16l319 385h141l-331 -399l200 -389h-135zM698 330l-200 377l4 16l325 395h144l-342 -407l207 -381h-138z" />
    <glyph glyph-name="guillemotright.cap" horiz-adv-x="976" 
d="M59 330l347 405l-201 383h137l195 -381l-5 -18l-329 -389h-144zM420 330l334 395l-199 393h135l193 -393l-2 -16l-320 -379h-141z" />
    <glyph glyph-name="guilsinglleft.cap" horiz-adv-x="636" 
d="M344 330l-197 377l5 18l319 391h147l-337 -407l198 -379h-135z" />
    <glyph glyph-name="guilsinglright.cap" horiz-adv-x="636" 
d="M57 330l342 405l-194 381h135l192 -381l-4 -18l-323 -387h-148z" />
    <glyph glyph-name="periodcentered.smcp" horiz-adv-x="1415" 
d="M143 795h1203l-25 -144h-1204z" />
    <glyph glyph-name="space_dotbelowcomb" horiz-adv-x="841" 
d="M240 -375q-53 0 -75.5 27.5t-12.5 91.5q12 64 38.5 88.5t81.5 24.5q106 0 84 -119q-10 -64 -36.5 -88.5t-79.5 -24.5z" />
    <glyph glyph-name="uni00200326" horiz-adv-x="841" 
d="M139 -422q83 26 117 131q-16 -4 -25 -4q-41 0 -54.5 18t-6.5 74q10 53 37.5 77t75.5 24q53 0 69 -31.5t4 -108.5q-19 -101 -76 -169.5t-147 -88.5z" />
    <glyph glyph-name="uni00200326.alt" horiz-adv-x="841" 
d="M551 1309q-54 0 -71 33.5t-3 107.5q18 101 74.5 169.5t146.5 88.5l-6 -78q-85 -27 -112 -131q16 4 20 4q42 0 58 -18.5t6 -73.5q-21 -102 -113 -102z" />
    <glyph glyph-name="plus.inf" horiz-adv-x="548" 
d="M213 -4l-27 -146h-90l27 146h-141l16 88h139l25 137h90l-25 -137h144l-15 -88h-143z" />
    <glyph glyph-name="minus.inf" horiz-adv-x="548" 
d="M-2 88h373l-17 -96h-372z" />
    <glyph glyph-name="equal.inf" horiz-adv-x="548" 
d="M20 182h365l-16 -92h-365zM-16 -18h364l-16 -93h-365z" />
    <glyph glyph-name="at.cap" horiz-adv-x="1335" 
d="M606 -117q-172 0 -291 64q-124 63 -174.5 195t-15.5 329l86 485q49 284 216 439t419 155q176 0 297 -71q120 -74 169.5 -201t20.5 -291l-78 -446q-31 -172 -95.5 -252t-178.5 -80q-146 0 -170 125q-55 -135 -199 -135q-237 0 -184 297l78 436q29 156 94.5 228.5
t173.5 72.5q150 0 166 -139l43 129h78q-12 -80 -35 -195q-8 -53 -31 -179.5t-32 -189.5q-10 -51 -19 -102.5t-13 -76.5t-5 -27q-12 -72 3.5 -104t65.5 -32q54 0 87 54t53 174l77 438q36 206 -58.5 326.5t-313.5 120.5q-204 0 -336.5 -124.5t-173.5 -355.5l-13 -67
q-8 -40 -23.5 -130t-21.5 -124l-26 -150q-42 -238 54.5 -357.5t311.5 -119.5q105 0 178 31.5t140 99.5l127 -47q-167 -203 -451 -203zM649 307q70 0 108.5 47.5t57.5 151.5l74 409q19 110 -6 161.5t-97 51.5q-66 0 -103.5 -48.5t-57.5 -157.5l-74 -420q-19 -103 4.5 -149
t93.5 -46z" />
    <glyph glyph-name="registered.cap" horiz-adv-x="1302" 
d="M588 -20q-248 0 -385 143q-150 153 -99 463l56 317q37 203 119 332q158 235 487 235q241 0 383 -145q154 -160 98 -461l-55 -317q-39 -215 -117 -332q-81 -123 -201 -179t-286 -56zM598 88q200 0 320 106.5t161 346.5l60 344q27 167 -17 270q-46 104 -141 155.5
t-223 51.5q-408 0 -486 -457l-59 -338q-27 -171 16 -272q46 -104 142 -155.5t227 -51.5zM551 647l-68 -381h-110l164 922h225q125 0 175 -52t32 -157l-21 -111q-22 -130 -135 -168q47 -17 61.5 -56t2.5 -116l-37 -206q-10 -36 10 -56h-115q-11 16 -8 56q2 7 21 102l16 96
q12 73 -8 100t-92 27h-113zM629 1092l-62 -344h115q72 0 109 29t49 95l16 97q12 66 -13 94.5t-102 28.5h-112z" />
    <glyph glyph-name="bar.cap" horiz-adv-x="430" 
d="M324 1620h145l-317 -1804h-146z" />
    <glyph glyph-name="brokenbar.cap" horiz-adv-x="430" 
d="M324 1620h145l-139 -795h-146zM152 645h145l-145 -829h-146z" />
    <glyph glyph-name="Aumlaut" horiz-adv-x="956" 
d="M297 1255q-48 0 -65.5 25.5t-10.5 83.5q20 96 109 96q88 0 73 -108q-7 -53 -32.5 -75t-73.5 -22zM885 1255q-50 0 -68 25.5t-8 83.5q15 96 106 96q89 0 74 -108q-7 -52 -32.5 -74.5t-71.5 -22.5zM645 315h-422l-127 -315h-151l608 1456h145l111 -1456h-145zM279 451h356
l-43 714l6 138l-33 -138z" />
    <glyph glyph-name="Oumlaut" horiz-adv-x="1034" 
d="M270 1366q-27 0 -37 12t-6 43q11 56 64 56q52 0 43 -58q-9 -53 -64 -53zM1008 1366q-27 0 -37 12t-6 43q11 56 63 56q50 0 41 -58q-9 -53 -61 -53zM455 -20q-155 0 -240 61q-176 125 -121 426l96 549q41 242 153.5 348t295.5 106q126 0 215 -53q193 -118 145 -411
l-102 -584q-39 -225 -142.5 -333.5t-299.5 -108.5zM463 117q122 0 188 72.5t97 240.5l106 588q26 157 -31 239t-190 82q-123 0 -192 -74.5t-101 -250.5l-98 -559q-62 -338 221 -338z" />
    <glyph glyph-name="Uumlaut" horiz-adv-x="1007" 
d="M526 1251q-32 0 -41.5 22.5t-1.5 84.5q10 56 30 79t52 23t42.5 -23t0.5 -81q-10 -57 -30 -81t-52 -24zM717 1251q-33 0 -42.5 23t-2.5 84q10 56 30 79t52 23t41.5 -22t-0.5 -82q-13 -105 -78 -105zM416 -20q-204 0 -275.5 120t-31.5 353l176 1003h149l-180 -1016
q-31 -175 13.5 -249t160.5 -74q114 0 179 70.5t95 240.5l181 1028h149l-182 -1036q-39 -227 -140.5 -333.5t-293.5 -106.5z" />
    <glyph glyph-name="cordinal" horiz-adv-x="710" 
d="M389 629q-148 0 -208 86.5t-34 230.5l50 281q23 121 99 185.5t196 64.5q140 0 205 -80.5t40 -220.5l-10 -43h-135l10 53q34 174 -119 174q-134 0 -161 -154l-48 -268q-14 -89 16.5 -138.5t110.5 -49.5q66 0 102 36.5t50 114.5l10 62h137l-14 -80q-42 -254 -297 -254z" />
    <glyph glyph-name="caronSlovak" horiz-adv-x="837" 
d="M592 1618h129l-152 -303h-98z" />
    <glyph glyph-name="altcedilla" horiz-adv-x="837" 
d="M248 -436q-125 0 -179.5 48t-56.5 146h129q-3 -98 115 -98q119 0 131 80q8 45 -17.5 68.5t-90.5 23.5h-64l16 92h76q109 0 161.5 -51.5t35.5 -140.5q-14 -80 -79 -124t-177 -44z" />
    <glyph glyph-name="doublegrave" horiz-adv-x="837" 
d="M293 1606h153l129 -299h-108zM547 1606h153l117 -299h-106z" />
    <glyph glyph-name="invertedbreve" horiz-adv-x="837" 
d="M270 1307q30 152 103 225.5t213 73.5q281 0 233 -299h-110q17 102 -14 147t-117 47q-86 -1 -130.5 -46t-64.5 -148h-113z" />
    <glyph glyph-name="onethirdemdash" horiz-adv-x="698" 
d="M123 688h485l-24 -143h-486z" />
    <glyph glyph-name="threequarteremdash" horiz-adv-x="946" 
d="M123 688h733l-25 -143h-733z" />
    <glyph glyph-name="onethirdemdash.cap" horiz-adv-x="837" 
d="M143 795h629l-27 -144h-628z" />
    <glyph glyph-name="threequarteremdash.cap" horiz-adv-x="811" 
d="M143 795h598l-24 -144h-600z" />
    <glyph glyph-name="onesixteenth" horiz-adv-x="1599" 
d="M680 848l448 649l123 -90l-528 -590zM133 735l17 101h116l72 419h-96l14 86q54 1 83.5 28t47.5 87h86l-108 -620h110l-16 -101h-326zM1448 195q-19 -104 -73 -155.5t-154 -51.5q-116 0 -161 63.5t-24 177.5l47 271q23 121 80.5 176t155.5 55q95 0 145.5 -56.5
t30.5 -152.5l-2 -20h-109l7 28q10 59 -9.5 84t-70.5 25q-57 0 -85 -32.5t-40 -106.5l-27 -146q52 86 150 86q82 0 123 -51t24 -145zM592 0l14 100h117l74 420h-97l15 86q54 1 83.5 28t47.5 87h84l-109 -621h111l-14 -100h-326zM-2 63l541 611l41 -31l-455 -678zM1225 84
q58 0 85 27.5t38 89.5l8 49q15 110 -88 110q-94 0 -123 -96l-8 -45q-12 -73 8.5 -104t79.5 -31z" />
    <glyph glyph-name="threesixteenths" horiz-adv-x="1599" 
d="M680 848l448 649l123 -90l-528 -590zM535 911q-34 -188 -222 -188q-224 0 -186 209l10 61h109l-13 -69q-15 -103 86 -103q53 0 77 24t32 79l6 24q21 109 -86 109h-57l16 94h60q57 0 81.5 25t32.5 79l4 21q23 98 -79 98q-47 0 -70 -21t-31 -65l-12 -71h-109l17 81
q14 79 66.5 123.5t142.5 44.5q98 0 147.5 -50.5t32.5 -139.5l-4 -16q-8 -65 -31.5 -104.5t-73.5 -55.5q82 -37 58 -162zM1450 195q-19 -104 -73 -155.5t-154 -51.5q-116 0 -161 63.5t-24 177.5l47 271q23 121 80.5 176t155.5 55q95 0 145.5 -56.5t30.5 -152.5l-2 -20h-109
l7 28q10 59 -9.5 84t-70.5 25q-57 0 -85 -32.5t-40 -106.5l-27 -146q52 86 150 86q82 0 123 -51t24 -145zM594 2l14 100h117l74 420h-97l15 86q54 1 83.5 28t47.5 87h84l-109 -621h111l-14 -100h-326zM-2 63l541 611l41 -31l-455 -678zM1227 84q58 0 85 27.5t38 89.5l8 49
q15 110 -88 110q-94 0 -123 -96l-8 -45q-12 -73 8.5 -104t79.5 -31z" />
    <glyph glyph-name="fivesixteenths" horiz-adv-x="1599" 
d="M680 848l448 649l123 -90l-528 -590zM313 723q-107 0 -152 56.5t-26 160.5l6 37h111l-8 -47q-8 -54 10.5 -81.5t71.5 -27.5q52 0 78.5 26.5t37.5 80.5l4 26l15 84q21 107 -76 107q-40 0 -64.5 -16.5t-52.5 -51.5q-14 -16 -14 -18l-84 26l102 371h338l-2 -6
q-8 -51 -33.5 -72.5t-85.5 -21.5h-149q-11 -34 -57 -193q55 68 141 68q79 0 117.5 -50.5t25.5 -138.5q-4 -12 -6 -30l-16 -90q-35 -199 -232 -199zM1450 195q-19 -104 -73 -155.5t-154 -51.5q-116 0 -161 63.5t-24 177.5l47 271q23 121 80.5 176t155.5 55q95 0 145.5 -56.5
t30.5 -152.5l-2 -20h-109l7 28q10 59 -9.5 84t-70.5 25q-57 0 -85 -32.5t-40 -106.5l-27 -146q52 86 150 86q82 0 123 -51t24 -145zM594 2l14 100h117l74 420h-97l15 86q54 1 83.5 28t47.5 87h84l-109 -621h111l-14 -100h-326zM-2 63l541 611l41 -31l-455 -678zM1227 84
q58 0 85 27.5t38 89.5l8 49q15 110 -88 110q-94 0 -123 -96l-8 -45q-12 -73 8.5 -104t79.5 -31z" />
    <glyph glyph-name="sevensixteenths" horiz-adv-x="1599" 
d="M680 848l448 649l123 -90l-528 -590zM238 735q48 144 94 230q97 205 227 389h-276l18 102h383l-14 -86q-206 -289 -316 -635h-116zM1450 195q-19 -104 -73 -155.5t-154 -51.5q-116 0 -161 63.5t-24 177.5l47 271q23 121 80.5 176t155.5 55q95 0 145.5 -56.5t30.5 -152.5
l-2 -20h-109l7 28q10 59 -9.5 84t-70.5 25q-57 0 -85 -32.5t-40 -106.5l-27 -146q52 86 150 86q82 0 123 -51t24 -145zM594 2l14 100h117l74 420h-97l15 86q54 1 83.5 28t47.5 87h84l-109 -621h111l-14 -100h-326zM-2 63l541 611l41 -31l-455 -678zM1227 84q58 0 85 27.5
t38 89.5l8 49q15 110 -88 110q-94 0 -123 -96l-8 -45q-12 -73 8.5 -104t79.5 -31z" />
    <glyph glyph-name="ninesixteenths" horiz-adv-x="1599" 
d="M680 850l448 649l123 -90l-528 -590zM328 721q-98 0 -145 54t-27 151l6 32h108l-8 -34q-10 -57 9.5 -82t70.5 -25q58 0 84.5 30.5t40.5 104.5l25 150q-50 -86 -152 -86q-80 0 -119 51.5t-22 146.5l6 48q36 204 223 204q114 0 162 -65t24 -182l-45 -267
q-20 -121 -78.5 -176t-162.5 -55zM387 1096q42 0 73.5 23.5t45.5 62.5l8 47q27 145 -90 145q-52 0 -80 -30.5t-39 -92.5l-6 -43q-15 -112 88 -112zM1450 195q-19 -104 -73 -155.5t-154 -51.5q-116 0 -161 63.5t-24 177.5l47 271q23 121 80.5 176t155.5 55q95 0 145.5 -56.5
t30.5 -152.5l-2 -20h-109l7 28q10 59 -9.5 84t-70.5 25q-57 0 -85 -32.5t-40 -106.5l-27 -146q52 86 150 86q82 0 123 -51t24 -145zM594 2l14 100h117l74 420h-97l15 86q54 1 83.5 28t47.5 87h84l-109 -621h111l-14 -100h-326zM-2 66l541 610l41 -31l-455 -678zM1227 84
q58 0 85 27.5t38 89.5l8 49q15 110 -88 110q-94 0 -123 -96l-8 -45q-12 -73 8.5 -104t79.5 -31z" />
    <glyph glyph-name="elevensixteenths" horiz-adv-x="2000" 
d="M1083 848l449 649l123 -90l-529 -590zM127 735l16 101h117l76 438q-63 -19 -100 -19l14 86q54 1 83.5 28t47.5 87h86l-109 -620h111l-16 -101h-326zM535 735l16 101h117l75 438q-63 -19 -100 -19l14 86q54 1 83.5 28t47.5 87h86l-108 -620h111l-17 -101h-325zM1849 195
q-19 -104 -73 -155.5t-154 -51.5q-116 0 -160.5 63.5t-23.5 177.5l47 271q23 121 80 176t155 55q95 0 145.5 -56.5t30.5 -152.5l-2 -20h-108l6 28q10 59 -9.5 84t-70.5 25q-57 0 -85 -32.5t-40 -106.5l-26 -146q52 86 149 86q82 0 123.5 -51t24.5 -145zM993 0l15 100h116
l74 420h-96l14 86q54 1 83.5 28t47.5 87h84l-108 -621h110l-14 -100h-326zM401 63l541 611l41 -31l-455 -678zM1626 84q58 0 85 27.5t38 89.5l8 49q15 110 -88 110q-94 0 -123 -96l-8 -45q-12 -73 8.5 -104t79.5 -31z" />
    <glyph glyph-name="thirteensixteenths" horiz-adv-x="2037" 
d="M1124 848l449 649l123 -90l-529 -590zM983 911q-34 -188 -221 -188q-225 0 -187 209l11 61h108l-12 -69q-15 -103 86 -103q53 0 77 24t32 79l6 24q21 109 -86 109h-58l17 94h59q57 0 82 25t33 79l4 21q23 98 -80 98q-47 0 -69.5 -21t-30.5 -65l-13 -71h-108l16 81
q14 79 66.5 123.5t142.5 44.5q98 0 147.5 -50.5t32.5 -139.5l-4 -16q-8 -65 -31 -104.5t-73 -55.5q81 -37 57 -162zM133 735l17 101h116l78 440q-69 -21 -102 -21l16 86q53 1 83 28.5t48 86.5h84l-108 -620h110l-16 -101h-326zM1888 195q-19 -104 -73 -155.5t-154 -51.5
q-116 0 -160.5 63.5t-23.5 177.5l47 271q23 121 80 176t155 55q95 0 145.5 -56.5t30.5 -152.5l-2 -20h-108l6 28q10 59 -9.5 84t-70.5 25q-57 0 -85 -32.5t-40 -106.5l-27 -146q52 86 150 86q82 0 123 -51t24 -145zM1034 2l15 100h116l74 420h-96l14 86q54 1 83.5 28
t47.5 87h84l-108 -621h110l-14 -100h-326zM442 63l541 611l41 -31l-455 -678zM1665 84q58 0 85 27.5t38 89.5l8 49q15 110 -88 110q-94 0 -123 -96l-8 -45q-12 -73 8.5 -104t79.5 -31z" />
    <glyph glyph-name="fifteensixteenths" horiz-adv-x="2037" 
d="M1122 848l449 649l123 -90l-529 -590zM133 735l17 101h116l78 440q-69 -21 -102 -21l16 86q53 1 83 28.5t48 86.5h84l-108 -620h110l-16 -101h-326zM756 723q-107 0 -152 56.5t-26 160.5l6 37h110l-8 -47q-8 -54 10.5 -81.5t71.5 -27.5q52 0 79 26.5t38 80.5l4 26l14 84
q21 107 -76 107q-40 0 -64 -16.5t-52 -51.5q-15 -16 -15 -18l-84 26l103 371h338l-2 -6q-8 -51 -33.5 -72.5t-85.5 -21.5h-150q-11 -34 -57 -193q55 68 141 68q79 0 118 -50.5t26 -138.5q-4 -12 -6 -30l-17 -90q-35 -199 -231 -199zM1888 195q-19 -104 -73 -155.5
t-154 -51.5q-116 0 -160.5 63.5t-23.5 177.5l47 271q23 121 80 176t155 55q95 0 145.5 -56.5t30.5 -152.5l-2 -20h-108l6 28q10 59 -9.5 84t-70.5 25q-57 0 -85 -32.5t-40 -106.5l-27 -146q52 86 150 86q82 0 123 -51t24 -145zM1034 2l15 100h116l74 420h-96l14 86
q54 1 83.5 28t47.5 87h84l-108 -621h110l-14 -100h-326zM440 63l541 611l41 -31l-455 -678zM1665 84q58 0 85 27.5t38 89.5l8 49q15 110 -88 110q-94 0 -123 -96l-8 -45q-12 -73 8.5 -104t79.5 -31z" />
    <glyph glyph-name="mediumblackcircle" horiz-adv-x="1562" 
d="M780 -20q-173 0 -309 77q-136 79 -213.5 215.5t-77.5 305.5q0 162 80 309q81 137 217 215t303 78q163 0 307 -78q140 -81 218.5 -216.5t78.5 -307.5q0 -177 -79 -306q-79 -137 -216.5 -214.5t-308.5 -77.5z" />
    <glyph glyph-name="ballotboxwithx" horiz-adv-x="1560" 
d="M205 1151h1151v-1151h-1151v1151zM1163 184v785h-762v-785h762zM784 469l-176 -178l-102 104l174 176l-174 174l102 103l174 -174l172 176l103 -105l-172 -174l172 -172l-101 -102z" />
    <glyph glyph-name="ttfautohint" horiz-adv-x="643" 
 />
    </font>
</defs>
</svg>
