<?xml version="1.0" standalone="no"?>
<!DOCTYPE svg PUBLIC "-//W3C//DTD SVG 1.1//EN" "http://www.w3.org/Graphics/SVG/1.1/DTD/svg11.dtd" >
<svg xmlns="http://www.w3.org/2000/svg" xmlns:xlink="http://www.w3.org/1999/xlink" version="1.1">
<metadata>
Created by FontForge 20201107 at Thu Aug 14 22:37:23 2025
 By 
C 2016 Sharp Type Corporation
</metadata>
<defs>
<font id="SharpGrotesk-BlackItalic05" horiz-adv-x="243" >
  <font-face 
    font-family="Sharp Grotesk Black Italic 05"
    font-weight="900"
    font-style="italic"
    font-stretch="ultra-condensed"
    units-per-em="2048"
    panose-1="0 0 10 8 0 0 0 0 0 0"
    ascent="1638"
    descent="-410"
    x-height="1198"
    cap-height="1475"
    bbox="-176 -412 1823 1817"
    underline-thickness="102"
    underline-position="-153"
    unicode-range="U+0020-3009"
  />
<missing-glyph horiz-adv-x="116" 
 />
    <glyph glyph-name=".notdef" horiz-adv-x="116" 
 />
    <glyph glyph-name=".null" horiz-adv-x="0" 
 />
    <glyph glyph-name="nonmarkingreturn" horiz-adv-x="682" 
 />
    <glyph glyph-name="space" unicode=" " horiz-adv-x="116" 
 />
    <glyph glyph-name="exclam" unicode="!" horiz-adv-x="133" 
d="M-51 176q0 96 20 209l191 1090h121l-191 -1090q-26 -145 -53 -209q-14 6 -51 6q-29 0 -37 -6zM-35 -6q-38 0 -49.5 17.5t-1.5 78.5q8 47 23.5 64.5t50.5 17.5q37 0 48 -19.5t1 -72.5q-7 -49 -23.5 -67.5t-48.5 -18.5z" />
    <glyph glyph-name="quotedbl" unicode="&#x22;" horiz-adv-x="229" 
d="M80 969q0 18 20 166q6 42 17 106t12 72l29 162h106l-28 -162l-35 -178q-16 -85 -37 -166h-84zM195 969q0 18 20 166q6 42 17 106t12 72l28 162h107l-29 -162l-35 -178q-19 -99 -36 -166h-84z" />
    <glyph glyph-name="numbersign" unicode="#" horiz-adv-x="307" 
d="M111 391h-13l-82 -391h-116l82 391h-15l27 150h20l86 405h-34l26 150h39l80 379h115l-80 -379h12l80 379h117l-80 -379h16l-26 -150h-21l-86 -405h35l-27 -150h-39l-82 -391h-116zM227 946h-12l-86 -405h12z" />
    <glyph glyph-name="dollar" unicode="$" horiz-adv-x="245" 
d="M-59 -113l20 121q-54 32 -41 111l103 573h110l-100 -571q-3 -21 2 -21q8 0 10 21l96 551q4 18 -5 31.5t-40 39.5q-33 30 -42 49.5t-3 55.5l92 530q15 89 86 101l21 116h106l-24 -129q53 -35 41 -108l-90 -510h-111l92 516q3 18 -4 18q-5 0 -8 -18l-88 -494
q-2 -19 6 -32.5t37 -38.5q34 -29 43.5 -53.5t3.5 -63.5l-100 -576q-15 -95 -86 -110l-19 -109h-108z" />
    <glyph glyph-name="percent" unicode="%" horiz-adv-x="333" 
d="M147 905q-39 0 -58.5 23t-12.5 65l74 420q12 70 79 70q36 0 59 -23t13 -67l-74 -406q-15 -82 -80 -82zM401 1475h84l-508 -1475h-83zM150 975q3 0 6 10l71 408q2 8 3 12.5t0.5 6.5t-1.5 2.5t-3 0.5h-1q-3 0 -6 -10l-72 -408q-3 -22 3 -22zM156 -8q-39 0 -58 25t-12 67
l76 434q13 72 80 72q35 0 55.5 -23t13.5 -67l-75 -437q-5 -31 -26.5 -51t-53.5 -20zM242 500q2 8 3 12.5t0.5 6.5t-1.5 2.5t-3 0.5h-1q-4 0 -7 -10l-75 -428q-3 -23 2 -23q2 0 6 11z" />
    <glyph glyph-name="ampersand" unicode="&#x26;" horiz-adv-x="337" 
d="M180 -8q-37 0 -59 14q-22 -14 -60 -14q-71 0 -110.5 40.5t-22.5 133.5l47 270q38 206 66 269q24 58 88 135q4 30 18.5 123.5t20.5 138.5l51 274q11 59 34.5 82t74.5 23q54 0 83.5 -29.5t18.5 -91.5l-33 -178q-8 -45 -30 -123q-35 -94 -131 -236q-17 -115 -31 -224.5
t-27.5 -227.5t-17.5 -150q-2 -16 -2 -41q8 25 12 58l111 647h98l-105 -594q-13 -103 -57 -185h4q11 0 23 9l-19 -111q-15 -12 -45 -12zM272 1122q-18 -99 -36 -168q37 114 65 271l25 129q3 12 3.5 18t-1 7t-4.5 1q-5 0 -11 -26zM29 166q-13 -74 37 -74q-11 59 -3 131
q3 36 11.5 107.5t13.5 128.5q3 36 37 243q-8 -25 -29 -145z" />
    <glyph glyph-name="quotesingle" unicode="'" horiz-adv-x="112" 
d="M80 969q0 18 20 166q6 42 17 106t12 72l29 162h104l-29 -162l-34 -178q-16 -85 -37 -166h-82z" />
    <glyph glyph-name="parenleft" unicode="(" horiz-adv-x="172" 
d="M8 -305q-91 0 -121.5 32t-13.5 121l264 1493q17 85 55 112.5t132 27.5l-21 -115q-30 0 -39.5 -6.5t-13.5 -30.5l-262 -1481q-4 -22 4.5 -29t36.5 -7z" />
    <glyph glyph-name="parenright" unicode=")" horiz-adv-x="172" 
d="M-135 -188q28 0 38.5 6t14.5 30l262 1481q4 22 -5.5 29.5t-35.5 7.5l21 115q88 0 120 -32t15 -120l-264 -1495q-13 -84 -51 -111.5t-136 -27.5z" />
    <glyph glyph-name="asterisk" unicode="*" horiz-adv-x="239" 
d="M272 1319l13 -70h-99l37 70l-59 -55l-35 82l78 16l-72 12l64 86l39 -59l-13 74h99l-33 -66l53 51l35 -84l-76 -14l70 -14l-62 -84z" />
    <glyph glyph-name="plus" unicode="+" horiz-adv-x="270" 
d="M197 649l-15 -80h-108l14 80h-70l19 105h69l15 80h108l-14 -80h72l-19 -105h-71z" />
    <glyph glyph-name="comma" unicode="," horiz-adv-x="137" 
d="M39 63q-14 -84 -51 -123.5t-101 -33.5l11 53q49 -3 59 35h-10q-26 0 -35.5 18t0.5 68q7 48 23.5 65t52.5 17q38 0 50 -18.5t1 -80.5z" />
    <glyph glyph-name="hyphen" unicode="-" horiz-adv-x="180" 
d="M12 653h174l-20 -110h-174z" />
    <glyph glyph-name="period" unicode="." horiz-adv-x="133" 
d="M-35 -10q-38 0 -49.5 17.5t-1.5 78.5q8 47 23.5 64.5t50.5 17.5q37 0 48 -19.5t1 -72.5q-7 -49 -23.5 -67.5t-48.5 -18.5z" />
    <glyph glyph-name="slash" unicode="/" horiz-adv-x="200" 
d="M246 1475h114l-356 -1475h-115z" />
    <glyph glyph-name="zero" unicode="0" horiz-adv-x="249" 
d="M31 -6q-59 0 -90.5 32.5t-20.5 96.5l219 1239q21 119 125 119q61 0 91 -33t20 -94l-221 -1254q-21 -106 -123 -106zM37 102q8 0 10 29l217 1231q3 18 -4 18q-5 0 -8 -18l-217 -1231q-3 -29 2 -29z" />
    <glyph glyph-name="one" unicode="1" horiz-adv-x="174" 
d="M-104 0l22 123h29l198 1118h-28l22 119q29 8 44.5 32.5t27.5 82.5h88l-238 -1352h27l-22 -123h-170z" />
    <glyph glyph-name="two" unicode="2" horiz-adv-x="249" 
d="M-100 0l26 143q23 119 54.5 208.5t80.5 191.5q92 185 119 329l86 498q3 12 -4 12q-5 0 -8 -14l-100 -569h-113l104 581q16 103 117 103q138 0 113 -142l-82 -469q-13 -71 -38 -146t-45 -120t-56 -121q-88 -191 -115 -346l-2 -12h123l-23 -127h-237z" />
    <glyph glyph-name="three" unicode="3" horiz-adv-x="249" 
d="M31 -6q-59 0 -90.5 32.5t-20.5 96.5l96 547h113l-96 -551q-3 -17 4 -17q5 0 8 17l102 581q3 13 -10 13h-61l20 118h62q11 0 14 13l90 508q3 28 -2 28t-8 -18l-86 -481h-113l84 481q19 119 123 119q134 0 113 -131l-90 -521q-10 -43 -45 -57q32 -14 22 -67l-106 -605
q-21 -106 -123 -106z" />
    <glyph glyph-name="four" unicode="4" horiz-adv-x="264" 
d="M176 115h-14l-21 -115h-108l20 115h-137l21 116l360 1244h104l-219 -1237h17zM98 418l-45 -180h23l33 182l143 629z" />
    <glyph glyph-name="five" unicode="5" horiz-adv-x="247" 
d="M29 -6q-60 0 -89.5 33.5t-19.5 91.5l82 465h113l-84 -467q-4 -15 4 -15q4 0 8 15l123 698q6 23 0 23q-3 0 -29 -88l-10 -33l-104 6l151 752h223l-14 -78q-12 -63 -32 -85t-64 -22h-41l-99 -465q18 66 37 117q31 64 74 64q55 0 41 -82l-145 -826q-15 -104 -125 -104z" />
    <glyph glyph-name="six" unicode="6" horiz-adv-x="249" 
d="M154 100q-21 -106 -123 -106q-59 0 -90.5 32.5t-20.5 96.5l219 1239q21 119 125 119q61 0 91 -33t20 -94l-72 -406h-113l74 414q3 18 -4 18q-5 0 -8 -18l-98 -553q17 47 34 65.5t43 18.5q62 0 45 -98zM37 102q8 0 10 29l107 608q3 19 -2 19q-6 0 -9 -15l-108 -612
q-3 -29 2 -29z" />
    <glyph glyph-name="seven" unicode="7" horiz-adv-x="200" 
d="M-102 0q88 430 157 727q86 368 148 576h-76l29 172h196l-28 -164q-72 -239 -146 -582q-55 -250 -147 -729h-133z" />
    <glyph glyph-name="eight" unicode="8" horiz-adv-x="247" 
d="M31 -6q-59 0 -91.5 32.5t-21.5 96.5l109 600q9 55 47 70q-32 22 -23 75l86 492q22 121 127 121q61 0 91 -33t20 -94l-88 -494q-9 -57 -49 -72q33 -26 24 -75l-110 -617q-15 -102 -121 -102zM168 844q5 0 7 4.5t3 23.5l86 492q3 16 -4 16q-5 0 -8 -16l-86 -492
q-3 -28 2 -28zM35 96q4 0 8 19l109 608q3 16 -5 16q-5 0 -8 -16l-108 -608q-4 -19 4 -19z" />
    <glyph glyph-name="nine" unicode="9" horiz-adv-x="249" 
d="M27 -6q-60 0 -88 34t-17 93l94 534h113l-96 -546q-4 -15 4 -15q4 0 8 15l123 694q-14 -50 -31.5 -70t-48.5 -20q-28 0 -41 20t-6 60l98 563q11 64 40.5 94.5t86.5 30.5q131 0 109 -138l-215 -1222q-12 -68 -42 -97.5t-91 -29.5zM166 834q4 0 5 2.5t5 20.5q1 4 2 7l84 482
q7 26 -2 26q-5 0 -8 -14l-88 -506q-4 -18 2 -18z" />
    <glyph glyph-name="colon" unicode=":" horiz-adv-x="133" 
d="M145 1020q-37 0 -49 18t-2 74q11 50 25.5 68t48.5 18q37 0 48 -21t1 -75q-7 -49 -23 -65.5t-49 -16.5zM-33 0q-38 0 -49.5 17.5t-1.5 78.5q8 48 24 66t52 18q38 0 48 -20t-1 -74q-7 -49 -23.5 -67.5t-48.5 -18.5z" />
    <glyph glyph-name="semicolon" unicode=";" horiz-adv-x="133" 
d="M147 1020q-38 0 -49.5 17.5t-1.5 78.5q8 47 23.5 64.5t50.5 17.5q37 0 48 -19.5t1 -72.5q-7 -49 -23.5 -67.5t-48.5 -18.5zM35 66q-14 -80 -51.5 -120.5t-94.5 -33.5l9 53q50 -3 59 37l-10 -2q-53 0 -35 84q8 48 24 66t52 18q40 0 49 -21t-2 -81z" />
    <glyph glyph-name="less" unicode="&#x3c;" horiz-adv-x="284" 
d="M33 713l18 108l277 103l-21 -117l-131 -41l117 -43l-21 -111z" />
    <glyph glyph-name="equal" unicode="=" horiz-adv-x="280" 
d="M57 850h256l-20 -117h-256zM33 719h256l-21 -117h-256z" />
    <glyph glyph-name="greater" unicode="&#x3e;" horiz-adv-x="284" 
d="M37 727l131 43l-117 41l21 113l237 -103l-18 -108l-275 -101z" />
    <glyph glyph-name="question" unicode="?" horiz-adv-x="251" 
d="M53 530q6 42 58 103q34 40 36 57l119 676q3 14 -4 14q-5 0 -8 -14l-121 -688h-113l123 708q17 95 119 95q63 0 96 -30.5t23 -84.5l-117 -664q-9 -47 -55 -104q-27 -33 -35 -49.5t-14 -52.5l-58 -326q-12 12 -55 12q-39 0 -57 -14zM20 -6q-38 0 -49.5 17.5t-1.5 78.5
q8 47 23.5 64.5t50.5 17.5q37 0 48 -19.5t1 -72.5q-7 -49 -23.5 -67.5t-48.5 -18.5z" />
    <glyph glyph-name="at" unicode="@" horiz-adv-x="399" 
d="M113 -6q-103 0 -149.5 53t-29.5 150l199 1122q26 162 205 162q96 0 147.5 -47.5t34.5 -135.5l-203 -1112q-12 -77 -90 -77q-72 0 -86 47q-15 -47 -61 -47q-61 0 -49 67l205 1135q10 59 59 59q46 0 49 -39l23 37h57q-24 31 -92 31q-49 0 -73.5 -22.5t-35.5 -71.5
l-205 -1121q-10 -58 15.5 -83t83.5 -25q51 0 67 28h109q-44 -110 -180 -110zM225 182q9 0 11 21l198 1091q9 35 -2 60l-209 -1151q-3 -21 2 -21zM125 184q5 0 8 13l199 1089q3 12 -4 12q-6 0 -9 -14l-196 -1085q-4 -15 2 -15z" />
    <glyph glyph-name="A" unicode="A" horiz-adv-x="239" 
d="M51 152h-20l-29 -152h-108l303 1475h153l-213 -1475h-110zM55 274h17l43 261l135 786l-144 -786z" />
    <glyph glyph-name="B" unicode="B" horiz-adv-x="251" 
d="M-100 0l260 1475h137q105 0 84 -103l-88 -506q-8 -47 -20 -67.5t-40 -26.5q39 -12 29 -78l-106 -608q-15 -86 -121 -86h-135zM254 1382l-98 -559h4q8 0 12 11l96 540q0 8 -8 8h-6zM137 719l-110 -623h6q9 0 12 10l105 603q1 6 -1.5 8t-9.5 2h-2z" />
    <glyph glyph-name="C" unicode="C" horiz-adv-x="249" 
d="M31 -6q-64 0 -92 34t-17 99l219 1241q19 113 127 113q55 0 87.5 -29.5t21.5 -97.5l-96 -545h-113l98 555q3 16 -4 16q-5 0 -8 -16l-217 -1231q-3 -31 2 -31q4 0 8 19l103 586h112l-104 -596q-21 -117 -127 -117z" />
    <glyph glyph-name="D" unicode="D" horiz-adv-x="251" 
d="M160 1475h129q56 0 79 -26.5t11 -90.5l-221 -1258q-15 -100 -129 -100h-129zM256 1380l-225 -1280h6q10 0 10 9l223 1265q0 6 -6 6h-8z" />
    <glyph glyph-name="E" unicode="E" horiz-adv-x="169" 
d="M59 0h-159l260 1475h159l-20 -121h-47l-96 -545h47l-21 -121h-47l-100 -565h47z" />
    <glyph glyph-name="F" unicode="F" horiz-adv-x="163" 
d="M133 680l-121 -680h-112l260 1475h153l-22 -127h-41l-94 -541h41l-23 -127h-41z" />
    <glyph glyph-name="G" unicode="G" horiz-adv-x="251" 
d="M61 68q-26 -74 -86 -74q-76 0 -57 108l223 1266q20 113 125 113q59 0 91.5 -30.5t21.5 -98.5l-82 -459h-115l84 473q3 14 -4 14q-5 0 -8 -14l-219 -1241q-3 -23 8 -23t14 23l97 547h-15l25 139h119l-144 -811h-80z" />
    <glyph glyph-name="H" unicode="H" horiz-adv-x="245" 
d="M145 700h-12l-123 -700h-110l260 1475h110l-118 -668h12l119 668h110l-260 -1475h-110z" />
    <glyph glyph-name="I" unicode="I" horiz-adv-x="124" 
d="M160 1475h112l-260 -1475h-112z" />
    <glyph glyph-name="J" unicode="J" 
d="M18 -8q-125 0 -102 137l92 514h115l-92 -524q-4 -19 2 -19q4 0 8 19l238 1356h110l-239 -1358q-11 -63 -42 -94t-90 -31z" />
    <glyph glyph-name="K" unicode="K" horiz-adv-x="253" 
d="M139 700l-8 -18l-119 -682h-112l260 1475h110l-55 -314l-72 -370l76 337l78 347h115l-152 -619l-108 -856h-113l55 408z" />
    <glyph glyph-name="L" unicode="L" horiz-adv-x="167" 
d="M-100 0l260 1475h114l-237 -1352h43l-23 -123h-157z" />
    <glyph glyph-name="M" unicode="M" horiz-adv-x="346" 
d="M6 0h-106l260 1475h149l-57 -383l-146 -887l158 887l76 383h154l-261 -1475h-98l17 90l241 1268l-274 -1358h-96l196 1380l-196 -1290z" />
    <glyph glyph-name="N" unicode="N" horiz-adv-x="270" 
d="M8 0h-108l260 1475h121l-131 -1139l114 870l47 269h107l-260 -1475h-113l152 1298l-121 -921z" />
    <glyph glyph-name="O" unicode="O" horiz-adv-x="249" 
d="M29 -6q-63 0 -90.5 36t-16.5 97l219 1241q20 113 123 113q62 0 91.5 -34.5t19.5 -98.5l-217 -1233q-11 -61 -41 -91t-88 -30zM39 102q4 0 8 19l219 1243q3 16 -4 16q-5 0 -8 -16l-217 -1231q-3 -31 2 -31z" />
    <glyph glyph-name="P" unicode="P" horiz-adv-x="247" 
d="M90 449l-80 -449h-110l260 1475h127q59 0 80 -25.5t10 -79.5l-148 -838q-13 -83 -106 -83h-33zM256 1380l-147 -827h2q9 0 12 10l141 807q2 10 -6 10h-2z" />
    <glyph glyph-name="Q" unicode="Q" horiz-adv-x="249" 
d="M8 -53l-10 49q-47 10 -67 45t-9 86l219 1241q20 113 123 113q62 0 91.5 -34.5t19.5 -98.5l-217 -1233q-12 -73 -54 -101l23 -67h-119zM39 102q4 0 8 19l219 1243q3 16 -4 16q-5 0 -8 -16l-217 -1231q-3 -31 2 -31z" />
    <glyph glyph-name="R" unicode="R" horiz-adv-x="247" 
d="M10 0h-110l260 1475h129q56 0 77 -23.5t11 -81.5l-101 -567q-9 -39 -45 -51q34 -12 25 -72l-111 -629q-3 -37 7 -51h-117q-12 12 -4 45l112 633q3 14 -10 14zM254 1380l-100 -575h2q9 0 12 12l96 551q3 12 -6 12h-4z" />
    <glyph glyph-name="S" unicode="S" horiz-adv-x="245" 
d="M31 -8q-68 0 -95 35t-16 92l103 573h110l-100 -571q-3 -21 2 -21q8 0 10 21l96 551q4 18 -5 31.5t-40 39.5q-31 27 -41 50t-4 61l92 524q15 105 119 105q61 0 91 -33t20 -92l-90 -510h-111l92 516q3 18 -4 18q-5 0 -8 -18l-88 -492q-2 -21 5 -33t38 -40q35 -32 44 -55
t3 -62l-102 -578q-10 -61 -38 -86.5t-83 -25.5z" />
    <glyph glyph-name="T" unicode="T" horiz-adv-x="190" 
d="M287 1354l-238 -1354h-117l238 1354h-33l21 121h182l-21 -121h-32z" />
    <glyph glyph-name="U" unicode="U" horiz-adv-x="249" 
d="M29 -6q-63 0 -90.5 36t-16.5 97l238 1348h112l-235 -1342q-3 -31 2 -31q4 0 8 19l238 1354h112l-239 -1360q-11 -61 -41 -91t-88 -30z" />
    <glyph glyph-name="V" unicode="V" horiz-adv-x="227" 
d="M-63 0l213 1475h106l-98 -601l-150 -864l158 864l113 601h106l-305 -1475h-143z" />
    <glyph glyph-name="W" unicode="W" horiz-adv-x="366" 
d="M61 0h-137l228 1475h106l-106 -625l-95 -545l107 545l119 625h106l-98 -625l-80 -545l92 545l111 625h108l-286 -1475h-138l88 590l142 821l-150 -821z" />
    <glyph glyph-name="X" unicode="X" horiz-adv-x="247" 
d="M2 0h-111l179 772l90 703h100l-35 -269l-73 -456l84 456l57 269h102l-155 -699l-93 -776h-108l49 354l55 359l-63 -359z" />
    <glyph glyph-name="Y" unicode="Y" horiz-adv-x="239" 
d="M-49 0l78 446l121 1029h108l-25 -181l-104 -645l121 645l37 181h110l-237 -1016l-80 -459h-129z" />
    <glyph glyph-name="Z" unicode="Z" horiz-adv-x="174" 
d="M-102 0l20 111l275 1239h-56l21 125h166l-19 -107l-274 -1245h55l-23 -123h-165z" />
    <glyph glyph-name="bracketleft" unicode="[" horiz-adv-x="167" 
d="M4 -305h-158l314 1780h157l-18 -111h-45l-274 -1559h45z" />
    <glyph glyph-name="backslash" unicode="\" horiz-adv-x="196" 
d="M147 1477h115l-166 -1477h-114z" />
    <glyph glyph-name="bracketright" unicode="]" horiz-adv-x="169" 
d="M-154 -305l21 110h45l274 1559h-45l19 111h157l-313 -1780h-158z" />
    <glyph glyph-name="asciicircum" unicode="^" horiz-adv-x="288" 
d="M229 1075l-47 -102h-121l138 244h104l55 -244h-112z" />
    <glyph glyph-name="uni005F" unicode="_" horiz-adv-x="272" 
d="M-102 -10h264l-19 -103h-264z" />
    <glyph glyph-name="grave" unicode="`" horiz-adv-x="147" 
d="M133 1356h113l18 -129h-78z" />
    <glyph glyph-name="a" unicode="a" horiz-adv-x="256" 
d="M100 0q-32 0 -47 12t-14 37q-24 -55 -72 -55q-65 0 -53 78l84 485q6 33 12 46t21 24q13 12 67 28q30 11 36 15t7 14l72 401q7 21 -2 21q-5 0 -8 -12l-74 -418h-106l73 422q21 106 125 106q122 0 101 -121l-172 -966q-3 -17 10 -17h6l-19 -100h-47zM33 92q5 0 8 14l84 482
q-4 -4 -10 -6q-2 0 -6 -15l-80 -458q-3 -17 4 -17z" />
    <glyph glyph-name="b" unicode="b" 
d="M70 -6q-61 0 -64 67l-22 -61h-84l274 1548h109l-72 -405q21 61 70 61q64 0 49 -86l-180 -1018q-10 -58 -29 -82t-51 -24zM33 96q4 0 5.5 4t5.5 28q1 3 1 5l166 950q3 11 3.5 16t-0.5 6t-5 1q-3 0 -10 -25l-168 -962q-3 -23 2 -23z" />
    <glyph glyph-name="c" unicode="c" 
d="M25 -6q-59 0 -87.5 33.5t-17.5 85.5l172 977q23 114 123 114q63 0 90.5 -33.5t16.5 -93.5l-72 -407h-111l76 424q3 12 -4 12q-5 0 -8 -10l-174 -987q-3 -13 2 -13q7 0 10 13l84 475h108l-83 -484q-21 -106 -125 -106z" />
    <glyph glyph-name="d" unicode="d" 
d="M45 63q-21 -69 -76 -69q-74 0 -53 104l176 998q10 59 29.5 83.5t52.5 24.5q46 0 49 -55l72 399h108l-274 -1548h-84v63zM33 96q4 0 8 15l172 976q3 19 -4 19q-5 0 -8 -19l-172 -976q-4 -15 4 -15z" />
    <glyph glyph-name="e" unicode="e" horiz-adv-x="245" 
d="M150 96q-21 -102 -119 -102q-64 0 -92 35t-17 92l172 977q21 106 123 106q60 0 88 -34.5t17 -94.5l-89 -502h-122l-82 -456q-3 -21 2 -21q8 0 10 21l80 444h110zM125 657h12l76 428q7 21 -2 21q-7 0 -10 -21z" />
    <glyph glyph-name="f" unicode="f" horiz-adv-x="163" 
d="M221 1067l-188 -1067h-117l188 1067h-20l25 131h18l33 182q10 53 33 74t67 21h55l-20 -125h-10q-14 0 -17 -17l-22 -135h22l-24 -131h-23z" />
    <glyph glyph-name="g" unicode="g" 
d="M-12 -104q-71 0 -93.5 18t-17.5 49q5 21 21.5 30.5t54.5 10.5q-56 9 -47 59q13 55 88 58q-69 12 -60 78l160 903q14 80 88 94l11 2q24 4 34 13t15 30l10 64h110l-6 -35q-8 -46 -24 -60.5t-68 -15.5h4q34 -6 49 -31t9 -63l-158 -893q-15 -98 -121 -98h-27q-16 0 -16 -5
q0 -4 14 -4h35q53 0 74 -24t14 -76q-8 -55 -40.5 -79.5t-104.5 -24.5h-8zM51 205q4 0 5.5 3t2.5 15v2l152 860q7 21 -2 21q-2 0 -2.5 -0.5l-1 -1t-1.5 -2.5t-1.5 -3.5t-1.5 -5.5l-2 -8l-152 -860q-2 -20 4 -20zM20 -8h13q10 -1 12 4q1 1 -3 3q-7 3 -22 3h-26q-19 0 -19 -4
q-1 -4 2.5 -5t22.5 -1h20z" />
    <glyph glyph-name="h" unicode="h" 
d="M8 0h-108l274 1548h109l-72 -403q24 59 72 59q59 0 47 -76l-199 -1128h-111l193 1083q3 23 -2 23q-4 0 -10 -23z" />
    <glyph glyph-name="i" unicode="i" horiz-adv-x="124" 
d="M166 1186q-36 0 -44.5 21t1.5 65q7 41 21.5 55t45.5 14q37 0 46 -13.5t2 -65.5q-7 -48 -21.5 -62t-50.5 -14zM111 1196q13 -22 55 -22q44 0 57 22l-211 -1196h-112z" />
    <glyph glyph-name="j" unicode="j" horiz-adv-x="129" 
d="M168 1186q-36 0 -44.5 21t1.5 65q7 40 22 54.5t46 14.5q38 0 47.5 -13.5t-0.5 -65.5q-7 -48 -21.5 -62t-50.5 -14zM-147 -12h34q12 0 15 12l211 1196q13 -22 55 -22q44 0 57 22l-219 -1239q-8 -44 -26 -61t-60 -17h-86z" />
    <glyph glyph-name="k" unicode="k" horiz-adv-x="239" 
d="M119 600l-13 -41l-96 -559h-108l272 1548h109l-82 -467l-92 -440l79 326l58 231h102l-115 -448l-94 -750h-108l47 322z" />
    <glyph glyph-name="l" unicode="l" horiz-adv-x="122" 
d="M172 1548h111l-273 -1548h-110z" />
    <glyph glyph-name="m" unicode="m" horiz-adv-x="364" 
d="M8 0h-108l213 1198h82l4 -51q16 34 33 45.5t40 11.5q51 0 54 -53q23 53 71 53q35 0 47.5 -22t4.5 -70l-197 -1112h-111l193 1085q7 21 -2 21q-7 0 -10 -21l-193 -1085h-109l193 1083q3 11 3.5 16t-0.5 6t-5 1h-2.5t-2.5 -5t-5 -16z" />
    <glyph glyph-name="n" unicode="n" horiz-adv-x="245" 
d="M10 0h-110l213 1198h82l6 -47q24 53 73 53q73 0 54 -96l-195 -1108h-110l192 1085q3 21 -2 21h-2.5t-2.5 -5t-5 -16z" />
    <glyph glyph-name="o" unicode="o" 
d="M29 -6q-64 0 -91 35.5t-16 93.5l170 964q23 117 123 117q61 0 88.5 -35t15.5 -102l-169 -965q-16 -108 -121 -108zM33 96q8 0 10 27l170 964q3 19 -4 19q-5 0 -8 -19l-170 -964q-3 -27 2 -27z" />
    <glyph glyph-name="p" unicode="p" horiz-adv-x="247" 
d="M78 -6q-55 0 -58 63l-63 -368h-111l267 1509h86l4 -47q22 53 69 53q75 0 56 -110l-178 -1004q-13 -96 -72 -96zM35 96q5 0 6 4t6 29l166 952q3 25 -2 25q-7 0 -10 -25l-168 -962q-3 -23 2 -23z" />
    <glyph glyph-name="q" unicode="q" 
d="M-35 -311l64 362q-16 -57 -70 -57q-31 0 -43 21.5t-2 74.5l176 1000q12 68 29.5 91t54.5 23q54 0 57 -61l25 55h84l-266 -1509h-109zM31 96q7 0 10 25l170 964q7 21 -4 21q-5 0 -8 -21l-170 -962q-3 -27 2 -27z" />
    <glyph glyph-name="r" unicode="r" horiz-adv-x="169" 
d="M-100 0l213 1198h86l-4 -94l4 20q10 53 22 67.5t45 14.5h8l-32 -186h-25q-26 0 -29 -31l-176 -989h-112z" />
    <glyph glyph-name="s" unicode="s" horiz-adv-x="239" 
d="M23 -6q-60 0 -86.5 31.5t-16.5 89.5l76 426h108l-77 -432q-3 -13 4 -13q5 0 8 13l76 415q4 17 -4.5 28.5t-42.5 39.5q-33 27 -41.5 49t-1.5 70l69 389q17 104 123 104q121 0 102 -119l-69 -397h-107l72 406q3 12 -4 12q-5 0 -8 -12l-70 -392q-1 -16 6 -25t39 -34
t40.5 -48t0.5 -65l-74 -430q-8 -53 -36.5 -79.5t-85.5 -26.5z" />
    <glyph glyph-name="t" unicode="t" horiz-adv-x="167" 
d="M59 0h-67q-72 0 -60 74l174 993h-22l25 131q17 0 26 12q2 3 15 33q7 22 24 94h96l-24 -139h26l-24 -131h-25l-164 -922q-4 -18 13 -18h10z" />
    <glyph glyph-name="u" unicode="u" 
d="M41 59q-21 -65 -74 -65q-67 0 -53 88l197 1116h108l-190 -1081q-3 -25 2 -25q7 0 10 25l190 1081h111l-211 -1198h-86z" />
    <glyph glyph-name="v" unicode="v" horiz-adv-x="235" 
d="M-68 0l170 1198h107l-59 -377l-123 -737l135 737l74 377h110l-252 -1198h-162z" />
    <glyph glyph-name="w" unicode="w" horiz-adv-x="370" 
d="M66 0h-140l178 1198h109l-96 -541l-82 -493l92 493l109 541h108l-84 -541l-74 -493l84 493l99 541h110l-248 -1198h-131l68 471l92 559l-104 -559z" />
    <glyph glyph-name="x" unicode="x" 
d="M0 0h-109l156 662l57 536h109l-39 -264l-41 -266l51 266l60 264h108l-137 -555l-72 -643h-110l37 268l55 342l-66 -342z" />
    <glyph glyph-name="y" unicode="y" horiz-adv-x="237" 
d="M-129 -137l18 114h15q19 0 25.5 4.5t11.5 18.5v2l161 1196h107l-45 -307l-135 -813l147 813l60 307h112l-262 -1227q-8 -42 -27 -69q-17 -24 -49.5 -31.5t-103.5 -7.5h-35z" />
    <glyph glyph-name="z" unicode="z" horiz-adv-x="157" 
d="M-100 0l20 113l207 966h-39l23 119h149l-20 -106l-205 -973h37l-23 -119h-149z" />
    <glyph glyph-name="braceleft" unicode="{" horiz-adv-x="184" 
d="M-39 -305q-49 0 -71.5 26.5t-12.5 77.5q1 7 4 20t8 34.5t9 40.5q14 53 44.5 174t41.5 165q56 207 59 240q8 45 -39 45h-12l20 121h19q24 0 34.5 10t16.5 39q1 4 2 15.5t3 31t5 37.5q3 29 15 149t18 193q28 247 31 264q15 97 106 97h72l-17 -99h-26q-26 0 -29 -22
q-1 -4 -2 -14.5t-3.5 -30.5t-4.5 -39q-27 -238 -35 -336q-27 -234 -31 -258q-13 -89 -84 -92l-2 -11q33 -2 46 -20.5t6 -65.5q-1 -7 -4 -20t-8 -35.5l-9 -40.5q-52 -218 -84 -342q-55 -211 -57 -235q-3 -23 20 -23h27l-17 -96h-59z" />
    <glyph glyph-name="bar" unicode="|" horiz-adv-x="124" 
d="M172 1542h113l-289 -1636h-113z" />
    <glyph glyph-name="braceright" unicode="}" horiz-adv-x="184" 
d="M-139 -209h28q24 0 27 23q1 4 2 15t3 30t5 37q1 9 15 136t22 199q13 158 31 258q10 51 30 70t52 21l2 10q-30 2 -44 21t-7 69q1 5 20 96q13 48 42 165.5t44 174.5q11 49 25 107t21.5 89.5t8.5 41.5q3 22 -20 22h-27l17 99h69q44 0 64 -28t10 -81q-1 -7 -3.5 -19t-7.5 -35
t-9 -40l-86 -338q-20 -73 -60 -240q-4 -28 4.5 -38.5t30.5 -10.5h16l-20 -121h-16q-44 0 -52 -45q-8 -40 -10 -86q-26 -233 -35 -338q-15 -187 -28 -256q-14 -104 -109 -104h-72z" />
    <glyph glyph-name="asciitilde" unicode="~" horiz-adv-x="217" 
d="M256 1141q-20 0 -41 14t-27 14q-16 0 -16 -26h-76q17 85 34 113t48 28q21 0 43.5 -13.5t24.5 -13.5q11 0 14 23h78q-16 -84 -35 -111.5t-47 -27.5z" />
    <glyph glyph-name="uni00A0" unicode="&#xa0;" horiz-adv-x="116" 
 />
    <glyph glyph-name="exclamdown" unicode="&#xa1;" horiz-adv-x="133" 
d="M176 1255q38 0 49.5 -17.5t1.5 -78.5q-8 -46 -23.5 -64t-49.5 -18q-37 0 -47 19t-3 73q10 52 25 69t47 17zM193 1073q0 -90 -21 -209l-190 -1089h-121l190 1089q8 45 21 94t22 80t10 35q42 -6 52 -6q13 0 37 6z" />
    <glyph glyph-name="cent" unicode="&#xa2;" 
d="M150 100q-12 -77 -76 -98l-25 -135h-108l24 137q-57 26 -45 105l172 985q16 86 84 106l25 137h108l-26 -147q52 -27 39 -113l-72 -407h-111l76 424q3 12 -4 12q-5 0 -8 -12l-176 -985q-3 -13 4 -13q5 0 8 13l86 475h111z" />
    <glyph glyph-name="sterling" unicode="&#xa3;" horiz-adv-x="335" 
d="M123 -4q-35 0 -62 31q-33 -33 -73 -33q-41 0 -65 30t-13 95q15 102 92 102q37 0 53 -22v4q24 149 27 407h-78l23 127h53q12 235 37 375l45 248q12 57 41 89t90 32q67 0 99 -36.5t20 -107.5l-84 -485h-121l88 508q3 16 -4 16t-10 -20l-41 -234q-38 -208 -50 -385h119
l-22 -127h-105q-16 -228 -45 -391q-9 -50 -24 -98h2q17 0 20 20l62 348h112l-67 -378q-12 -70 -43 -92.5t-76 -22.5zM6 102q5 0 12 7q-3 12 -10 12q-5 0 -8 -8q-4 -11 6 -11z" />
    <glyph glyph-name="currency" unicode="&#xa4;" horiz-adv-x="237" 
d="M113 408h-13q-17 0 -37 4l-55 -64l-49 41l55 66q-8 23 -4 63l94 533q9 36 19 53l-31 55l64 41l28 -57q6 2 21 2q29 0 39 -6l53 61l47 -41l-55 -63q7 -19 4 -64l-96 -538q-14 -42 -19 -48l29 -57l-66 -41zM100 485q6 0 9 23l96 545q3 14 -4 14q-3 0 -6 -14l-97 -545
q-3 -23 2 -23z" />
    <glyph glyph-name="yen" unicode="&#xa5;" horiz-adv-x="239" 
d="M121 236l-41 -236h-129l41 236h-51l20 120h51l2 15h-51l23 118h47l117 986h108l-25 -181l-104 -645l121 645l37 181h110l-231 -986h51l-22 -118h-52l-2 -15h52l-21 -120h-51z" />
    <glyph glyph-name="brokenbar" unicode="&#xa6;" horiz-adv-x="124" 
d="M172 1542h113l-140 -788h-112zM29 733h112l-145 -827h-113z" />
    <glyph glyph-name="section" unicode="&#xa7;" horiz-adv-x="247" 
d="M25 -10q-64 0 -89 38t-16 87l80 450h111l-80 -450q-3 -23 4 -23q8 0 10 25l61 346q11 62 13 76q2 25 -5 41.5t-30 40.5q-43 53 -53 76t-4 53q11 53 67 53q33 0 60 -35q-18 24 -33 39q-8 11 -23.5 30t-19.5 27q-11 22 -12 42.5t4 49.5l71 408q11 63 38.5 90t84.5 27
q60 0 89.5 -32t19.5 -95l-74 -418h-111l74 414q3 26 -2 26q-4 0 -5.5 -2.5t-5.5 -20.5q-1 -2 -1 -3l-68 -381q-4 -26 -2 -33q0 -3 1 -6t3 -7t4 -7.5t7 -10t9 -12t11.5 -15.5l13.5 -18q32 -40 40.5 -58t4.5 -46q-4 -26 -22 -42t-41 -16q-27 0 -53 23q14 -14 26 -31
q32 -41 39 -53q12 -25 11 -56t-13 -104l-65 -371q-11 -63 -39.5 -89.5t-89.5 -26.5zM139 752l2 -11q21 -9 21 9q0 6 -2 8q-12 9 -21 -6z" />
    <glyph glyph-name="dieresis" unicode="&#xa8;" horiz-adv-x="210" 
d="M172 1225q-27 0 -37 13.5t-4 45.5q6 35 17 46t38 11q26 0 35.5 -13.5t3.5 -47.5q-6 -33 -16.5 -44t-36.5 -11zM272 1225q-26 0 -35.5 13.5t-5.5 45.5q6 34 17.5 45.5t38.5 11.5q26 0 35.5 -13.5t3.5 -47.5q-6 -32 -17 -43.5t-37 -11.5z" />
    <glyph glyph-name="copyright" unicode="&#xa9;" horiz-adv-x="444" 
d="M133 -6q-112 0 -162 58t-32 161l188 1069q18 97 73 148t158 51q97 0 156.5 -55t42.5 -148l-188 -1079q-33 -205 -236 -205zM150 88q99 0 120 111l187 1065q19 122 -109 122q-59 0 -86.5 -26.5t-38.5 -87.5l-184 -1047q-24 -137 111 -137zM143 100q-48 0 -76 30t-18 87
l187 1053q14 104 112 104q112 0 94 -110l-77 -439h-99l80 453q3 12 -2 12t-8 -14l-186 -1055q-3 -24 2 -24t8 12l82 455h98l-84 -474q-16 -90 -113 -90z" />
    <glyph glyph-name="ordfeminine" unicode="&#xaa;" horiz-adv-x="198" 
d="M166 676q-20 0 -29.5 9t-7.5 26q-14 -39 -53 -39q-53 0 -41 73l59 336q6 34 25 49q10 10 57 21q20 4 24.5 7t6.5 11l41 232q3 12 -4 12q-5 0 -8 -12l-41 -236h-86l41 230q8 46 32 67.5t72 20.5q90 -3 74 -103l-109 -620q-4 -15 8 -15h2l-12 -69h-51zM125 737q4 0 8 11
l64 362l-9 -4q-5 -5 -8 -19l-59 -339q-4 -11 4 -11z" />
    <glyph glyph-name="guillemotleft" unicode="&#xab;" horiz-adv-x="317" 
d="M70 451l-62 182v2l125 168h96l-127 -182l58 -170h-90zM186 451l-55 163l2 13l127 176h94l-131 -189l58 -163h-95z" />
    <glyph glyph-name="logicalnot" unicode="&#xac;" horiz-adv-x="247" 
d="M147 586l15 80h-146l15 90h239l-28 -170h-95z" />
    <glyph glyph-name="uni00AD" unicode="&#xad;" horiz-adv-x="180" 
d="M12 653h174l-20 -110h-174z" />
    <glyph glyph-name="registered" unicode="&#xae;" horiz-adv-x="284" 
d="M266 1186q-67 0 -103 40t-26 115q11 70 47 105t105 35q64 0 99.5 -38t25.5 -112q-20 -145 -148 -145zM328 1282q-4 -18 -2 -20q27 24 30 73q9 88 -73 88q-38 0 -52 -14h74q25 0 35 -10t8 -33l-2 -12q-3 -34 -33 -37q18 -3 15 -35zM197 1343q-3 -42 8 -67l24 131
q-22 -14 -32 -64zM279 1366l-5 -27q12 0 15 13q3 14 -8 14h-2zM270 1247q36 0 52 13h-52q-3 3 0 18q3 11 2.5 15.5t-1 4.5h-5.5l-6 -38h-39q23 -13 49 -13z" />
    <glyph glyph-name="macron" unicode="&#xaf;" horiz-adv-x="145" 
d="M135 1327h133l-18 -100h-133z" />
    <glyph glyph-name="degree" unicode="&#xb0;" horiz-adv-x="206" 
d="M238 1294q-50 0 -74.5 30.5t-16.5 76.5q20 80 105 80q52 0 76.5 -29.5t13.5 -79.5q-17 -78 -104 -78zM242 1376q9 0 12 10q3 13 -8 13q-10 0 -13 -10q-3 -13 9 -13z" />
    <glyph glyph-name="plusminus" unicode="&#xb1;" horiz-adv-x="270" 
d="M223 793l-14 -78h-109l15 78h-70l18 106h70l14 80h109l-14 -80h71l-18 -106h-72zM27 694h249l-18 -108h-250z" />
    <glyph glyph-name="uni00B2" unicode="&#xb2;" horiz-adv-x="157" 
d="M102 1155q15 84 78 180q2 4 12 19.5t13 20.5t10 18.5t10 22t7 20.5t6 24l41 242q3 11 3 16t-1 5.5t-5 0.5q-2 0 -8 -22l-47 -268h-69l51 282q14 70 78 70q81 0 69 -80l-43 -244q-12 -74 -67 -151q-55 -88 -66 -156l-6 -37h78l-15 -78h-149z" />
    <glyph glyph-name="uni00B3" unicode="&#xb3;" horiz-adv-x="159" 
d="M168 1034q-87 0 -72 82l37 211h70l-37 -209q-7 -20 2 -20q4 0 8 18l47 262q3 11 -10 11h-29l15 73h26q13 0 13 8l41 232q3 11 3 16t-1 5.5t-5 0.5q-2 0 -8 -22l-32 -195h-70l35 205q11 74 78 74q83 0 71 -78l-43 -242q-3 -27 -28 -36q17 -7 14 -39l-49 -295
q-11 -62 -76 -62z" />
    <glyph glyph-name="acute" unicode="&#xb4;" horiz-adv-x="149" 
d="M174 1356h113l-94 -129h-87z" />
    <glyph glyph-name="paragraph" unicode="&#xb6;" horiz-adv-x="354" 
d="M20 0l109 610h-16q-103 0 -86 113l110 633q11 63 40 91t93 28h232l-260 -1475h-103l244 1370h-12l-244 -1370h-107zM264 1370q-13 -3 -16 -18l-107 -607q-4 -18 9 -18z" />
    <glyph glyph-name="periodcentered" unicode="&#xb7;" horiz-adv-x="131" 
d="M55 516q-38 0 -49.5 17.5t-1.5 78.5q8 47 23.5 64.5t50.5 17.5q37 0 48 -19.5t1 -72.5q-7 -49 -23.5 -67.5t-48.5 -18.5z" />
    <glyph glyph-name="cedilla" unicode="&#xb8;" horiz-adv-x="198" 
d="M-23 -158q-57 0 -80.5 23.5t-21.5 64.5h94q0 -12 15 -12q13 0 16 12q4 15 -12 15h-41l12 73h74l-2 -16q64 -9 53 -82q-12 -78 -107 -78z" />
    <glyph glyph-name="uni00B9" unicode="&#xb9;" horiz-adv-x="137" 
d="M80 1040l12 70h31l98 551h-26l10 59q32 2 47 62h61l-118 -672h34l-12 -70h-137z" />
    <glyph glyph-name="ordmasculine" unicode="&#xba;" horiz-adv-x="192" 
d="M121 670q-49 0 -69.5 28.5t-12.5 75.5l108 621q15 91 99 88q95 -3 80 -103l-109 -618q-16 -92 -96 -92zM246 1399q2 12 1 14t-5 2q-6 0 -9 -16l-112 -639q-3 -17 4 -17q5 0 8 17z" />
    <glyph glyph-name="guillemotright" unicode="&#xbb;" horiz-adv-x="317" 
d="M100 639v6l-55 158h92l58 -160l-2 -12l-119 -180h-103zM221 631l2 6l-59 166h96l62 -178v-2l-119 -172h-103z" />
    <glyph glyph-name="onequarter" unicode="&#xbc;" horiz-adv-x="294" 
d="M25 733l12 70h31l98 551h-27l11 59q32 2 47 62h61l-119 -672h35l-12 -70h-137zM178 760l178 713l101 -11l-271 -704zM190 129l-22 -129h-64l23 129h-78l10 59l164 553h74l-94 -544h20l-10 -68h-23zM-115 20l281 709l8 -2l-190 -727zM123 197h16l11 57l81 369l-90 -367z
" />
    <glyph glyph-name="onehalf" unicode="&#xbd;" horiz-adv-x="307" 
d="M25 733l12 70h31l98 551h-27l11 59q32 2 47 62h61l-119 -672h35l-12 -70h-137zM178 760l178 713l101 -11l-271 -704zM68 115q15 86 77 180q2 4 12 19.5t13 20.5t10 18.5t10 22t7 20.5t6 24l41 242q2 8 3 12.5t0.5 6.5t-1.5 2.5t-3 0.5h-1q-1 0 -2 -0.5t-2.5 -5.5
t-4.5 -16l-47 -269h-69l51 283q13 69 78 69q41 0 58 -19t11 -60l-43 -244q-12 -76 -67 -152q-55 -88 -66 -155l-6 -37h78l-14 -78h-150zM-115 20l281 709l8 -2l-190 -727z" />
    <glyph glyph-name="threequarters" unicode="&#xbe;" horiz-adv-x="305" 
d="M113 727q-87 0 -72 82l37 211h69l-36 -209q-7 -20 2 -20q4 0 8 18l47 262q2 10 -10 10h-29l14 74h27q12 0 12 8l41 232q2 8 3 12.5t0.5 6.5t-1.5 2.5t-3 0.5h-1q-2 0 -8 -22l-33 -195h-69l34 205q11 74 78 74q84 0 72 -78l-43 -242q-3 -27 -29 -37q18 -8 15 -39l-50 -295
q-10 -61 -75 -61zM190 760l179 713l100 -11l-270 -704zM201 129l-23 -129h-63l22 129h-78l11 59l163 553h74l-94 -544h20l-10 -68h-22zM-102 20l280 709l8 -2l-190 -727zM133 197h17l10 57l82 369l-90 -367z" />
    <glyph glyph-name="questiondown" unicode="&#xbf;" horiz-adv-x="253" 
d="M229 1202q38 0 50 -17.5t2 -78.5q-8 -45 -23.5 -63.5t-50.5 -18.5q-37 0 -47 19t-2 73q10 53 24.5 69.5t46.5 16.5zM197 666q-6 -42 -58 -103q-30 -35 -37 -57l-118 -676q-3 -14 4 -14q5 0 8 14l121 688h112l-123 -708q-17 -95 -118 -95q-63 0 -96 30.5t-23 84.5l117 664
q9 47 55 104q27 33 35 49.5t14 52.5l57 326q12 -12 56 -12q39 0 57 14z" />
    <glyph glyph-name="Agrave" unicode="&#xc0;" horiz-adv-x="239" 
d="M186 1612h113l18 -129h-77zM51 152h-20l-29 -152h-108l303 1475h153l-213 -1475h-110zM55 274h17l43 261l135 786l-144 -786z" />
    <glyph glyph-name="Aacute" unicode="&#xc1;" horiz-adv-x="239" 
d="M295 1612h113l-95 -129h-86zM51 152h-20l-29 -152h-108l303 1475h153l-213 -1475h-110zM55 274h17l43 261l135 786l-144 -786z" />
    <glyph glyph-name="Acircumflex" unicode="&#xc2;" horiz-adv-x="239" 
d="M287 1540l-27 -57h-80l86 153h74l31 -153h-78zM51 152h-20l-29 -152h-108l303 1475h153l-213 -1475h-110zM55 274h17l43 261l135 786l-144 -786z" />
    <glyph glyph-name="Atilde" unicode="&#xc3;" horiz-adv-x="239" 
d="M322 1481q-15 0 -39 13t-29 13q-11 0 -14 -26h-60q10 72 27 98.5t45 26.5q18 0 39.5 -12.5t23.5 -12.5q10 0 13 21h61q-11 -72 -26.5 -96.5t-40.5 -24.5zM51 152h-20l-29 -152h-108l303 1475h153l-213 -1475h-110zM55 274h17l43 261l135 786l-144 -786z" />
    <glyph glyph-name="Adieresis" unicode="&#xc4;" horiz-adv-x="239" 
d="M231 1481q-27 0 -37 13.5t-4 45.5q6 34 17.5 45.5t38.5 11.5q26 0 35.5 -13.5t3.5 -47.5q-6 -32 -17 -43.5t-37 -11.5zM332 1481q-26 0 -35.5 13.5t-5.5 45.5q6 35 17 46t38 11q26 0 35.5 -13.5t3.5 -47.5q-6 -33 -16.5 -44t-36.5 -11zM51 152h-20l-29 -152h-108
l303 1475h153l-213 -1475h-110zM55 274h17l43 261l135 786l-144 -786z" />
    <glyph glyph-name="Aring" unicode="&#xc5;" horiz-adv-x="239" 
d="M283 1483q-40 0 -61 28.5t-13 67.5q12 70 84 70q41 0 61.5 -26t12.5 -67q-12 -73 -84 -73zM287 1552q14 0 14 15q0 10 -10 10q-15 0 -15 -14q0 -11 11 -11zM51 152h-20l-29 -152h-108l303 1475h153l-213 -1475h-110zM55 274h17l43 261l135 786l-144 -786z" />
    <glyph glyph-name="AE" unicode="&#xc6;" horiz-adv-x="301" 
d="M59 150h-26l-31 -150h-108l339 1475h218l-21 -121h-47l-94 -545h45l-21 -121h-47l-100 -565h47l-23 -123h-157zM55 252h23l37 215l166 903l-181 -903z" />
    <glyph glyph-name="Ccedilla" unicode="&#xc7;" horiz-adv-x="249" 
d="M2 -172q-57 0 -80.5 23.5t-21.5 64.5h94q0 -12 14 -12t17 12q3 14 -13 14h-41l13 70q-83 24 -62 127l219 1241q19 113 127 113q55 0 87.5 -29.5t21.5 -97.5l-96 -545h-113l98 555q3 16 -4 16q-5 0 -8 -16l-217 -1231q-3 -31 2 -31q4 0 8 19l103 586h112l-104 -596
q-21 -103 -103 -115v-8q65 -10 54 -82q-12 -78 -107 -78z" />
    <glyph glyph-name="Egrave" unicode="&#xc8;" horiz-adv-x="169" 
d="M162 1612h112l19 -129h-78zM59 0h-159l260 1475h159l-20 -121h-47l-96 -545h47l-21 -121h-47l-100 -565h47z" />
    <glyph glyph-name="Eacute" unicode="&#xc9;" horiz-adv-x="169" 
d="M270 1612h113l-94 -129h-86zM59 0h-159l260 1475h159l-20 -121h-47l-96 -545h47l-21 -121h-47l-100 -565h47z" />
    <glyph glyph-name="Ecircumflex" unicode="&#xca;" horiz-adv-x="169" 
d="M262 1540l-26 -57h-80l86 153h73l31 -153h-78zM59 0h-159l260 1475h159l-20 -121h-47l-96 -545h47l-21 -121h-47l-100 -565h47z" />
    <glyph glyph-name="Edieresis" unicode="&#xcb;" horiz-adv-x="169" 
d="M207 1481q-27 0 -37 13.5t-4 45.5q6 35 17 46t38 11q26 0 35.5 -13.5t3.5 -47.5q-6 -33 -16.5 -44t-36.5 -11zM307 1481q-26 0 -35.5 13.5t-5.5 45.5q6 34 17.5 45.5t38.5 11.5q26 0 35 -13.5t3 -47.5q-6 -33 -16.5 -44t-36.5 -11zM59 0h-159l260 1475h159l-20 -121h-47
l-96 -545h47l-21 -121h-47l-100 -565h47z" />
    <glyph glyph-name="Igrave" unicode="&#xcc;" horiz-adv-x="124" 
d="M129 1612h113l18 -129h-78zM160 1475h112l-260 -1475h-112z" />
    <glyph glyph-name="Iacute" unicode="&#xcd;" horiz-adv-x="124" 
d="M242 1612h112l-94 -129h-86zM160 1475h112l-260 -1475h-112z" />
    <glyph glyph-name="Icircumflex" unicode="&#xce;" horiz-adv-x="124" 
d="M233 1540l-26 -57h-80l86 153h74l30 -153h-77zM160 1475h112l-260 -1475h-112z" />
    <glyph glyph-name="Idieresis" unicode="&#xcf;" horiz-adv-x="124" 
d="M178 1481q-27 0 -37 13.5t-4 45.5q6 34 17.5 45.5t38.5 11.5q26 0 35 -13.5t3 -47.5q-6 -33 -16.5 -44t-36.5 -11zM279 1481q-26 0 -35.5 13.5t-5.5 45.5q6 35 17 46t38 11q26 0 35.5 -13.5t3.5 -47.5q-6 -33 -16.5 -44t-36.5 -11zM160 1475h112l-260 -1475h-112z" />
    <glyph glyph-name="Eth" unicode="&#xd0;" horiz-adv-x="253" 
d="M-98 0l123 696h-9l21 113h8l117 666h129q56 0 79 -26.5t11 -90.5l-221 -1258q-15 -100 -129 -100h-129zM135 696l-104 -596h8q10 0 10 9l223 1265q0 6 -6 6h-10l-100 -571h10l-21 -113h-10z" />
    <glyph glyph-name="Ntilde" unicode="&#xd1;" horiz-adv-x="270" 
d="M311 1612h113l-94 -129h-86zM8 0h-108l260 1475h121l-131 -1139l114 870l47 269h107l-260 -1475h-113l152 1298l-121 -921z" />
    <glyph glyph-name="Ograve" unicode="&#xd2;" horiz-adv-x="249" 
d="M195 1618h112l19 -129h-78zM29 -6q-63 0 -90.5 36t-16.5 97l219 1241q20 113 123 113q62 0 91.5 -34.5t19.5 -98.5l-217 -1233q-11 -61 -41 -91t-88 -30zM39 102q4 0 8 19l219 1243q3 16 -4 16q-5 0 -8 -16l-217 -1231q-3 -31 2 -31z" />
    <glyph glyph-name="Oacute" unicode="&#xd3;" horiz-adv-x="249" 
d="M328 1487q-15 0 -39 13t-29 13q-11 0 -14 -26h-60q10 72 27 98.5t45 26.5q18 0 40 -12.5t24 -12.5q9 0 12 21h61q-11 -72 -26.5 -96.5t-40.5 -24.5zM29 -6q-63 0 -90.5 36t-16.5 97l219 1241q20 113 123 113q62 0 91.5 -34.5t19.5 -98.5l-217 -1233q-11 -61 -41 -91
t-88 -30zM39 102q4 0 8 19l219 1243q3 16 -4 16q-5 0 -8 -16l-217 -1231q-3 -31 2 -31z" />
    <glyph glyph-name="Ocircumflex" unicode="&#xd4;" horiz-adv-x="249" 
d="M295 1546l-27 -57h-80l86 153h74l31 -153h-78zM29 -6q-63 0 -90.5 36t-16.5 97l219 1241q20 113 123 113q62 0 91.5 -34.5t19.5 -98.5l-217 -1233q-11 -61 -41 -91t-88 -30zM39 102q4 0 8 19l219 1243q3 16 -4 16q-5 0 -8 -16l-217 -1231q-3 -31 2 -31z" />
    <glyph glyph-name="Otilde" unicode="&#xd5;" horiz-adv-x="249" 
d="M328 1483q-15 0 -39 13t-29 13q-11 0 -14 -26h-60q10 72 27 98.5t45 26.5q18 0 40 -12.5t24 -12.5q9 0 12 21h61q-11 -72 -26.5 -96.5t-40.5 -24.5zM29 -6q-63 0 -90.5 36t-16.5 97l219 1241q20 113 123 113q62 0 91.5 -34.5t19.5 -98.5l-217 -1233q-11 -61 -41 -91
t-88 -30zM39 102q4 0 8 19l219 1243q3 16 -4 16q-5 0 -8 -16l-217 -1231q-3 -31 2 -31z" />
    <glyph glyph-name="Odieresis" unicode="&#xd6;" horiz-adv-x="249" 
d="M238 1487q-27 0 -37 13.5t-4 45.5q6 35 17 46.5t38 11.5q26 0 35.5 -14t3.5 -48q-6 -33 -16.5 -44t-36.5 -11zM338 1487q-26 0 -35.5 13.5t-5.5 45.5q6 35 17 46.5t38 11.5q26 0 35.5 -14t3.5 -48q-6 -33 -16.5 -44t-36.5 -11zM29 -6q-63 0 -90.5 36t-16.5 97l219 1241
q20 113 123 113q62 0 91.5 -34.5t19.5 -98.5l-217 -1233q-11 -61 -41 -91t-88 -30zM39 102q4 0 8 19l219 1243q3 16 -4 16q-5 0 -8 -16l-217 -1231q-3 -31 2 -31z" />
    <glyph glyph-name="multiply" unicode="&#xd7;" horiz-adv-x="268" 
d="M139 625l-65 -56l-60 72l68 55l-49 60l80 65l49 -59l67 57l58 -71l-68 -56l49 -59l-80 -68z" />
    <glyph glyph-name="Oslash" unicode="&#xd8;" horiz-adv-x="249" 
d="M23 -6l-27 -84h-102l38 113l2 8q-24 27 -14 84l223 1261q20 105 129 105h7l24 65h100l-36 -106q20 -36 8 -97l-221 -1247q-15 -102 -125 -102h-6zM39 102q4 0 8 19l219 1243q3 16 -4 16q-5 0 -8 -16l-219 -1243q-4 -19 4 -19z" />
    <glyph glyph-name="Ugrave" unicode="&#xd9;" horiz-adv-x="249" 
d="M193 1612h112l19 -129h-78zM29 -6q-63 0 -90.5 36t-16.5 97l238 1348h112l-235 -1342q-3 -31 2 -31q4 0 8 19l238 1354h112l-239 -1360q-11 -61 -41 -91t-88 -30z" />
    <glyph glyph-name="Uacute" unicode="&#xda;" horiz-adv-x="249" 
d="M301 1612h113l-95 -129h-86zM29 -6q-63 0 -90.5 36t-16.5 97l238 1348h112l-235 -1342q-3 -31 2 -31q4 0 8 19l238 1354h112l-239 -1360q-11 -61 -41 -91t-88 -30z" />
    <glyph glyph-name="Ucircumflex" unicode="&#xdb;" horiz-adv-x="249" 
d="M293 1540l-27 -57h-80l86 153h74l31 -153h-78zM29 -6q-63 0 -90.5 36t-16.5 97l238 1348h112l-235 -1342q-3 -31 2 -31q4 0 8 19l238 1354h112l-239 -1360q-11 -61 -41 -91t-88 -30z" />
    <glyph glyph-name="Udieresis" unicode="&#xdc;" horiz-adv-x="249" 
d="M238 1481q-27 0 -37 13.5t-4 45.5q6 35 17 46t38 11q26 0 35.5 -13.5t3.5 -47.5q-6 -33 -16.5 -44t-36.5 -11zM338 1481q-26 0 -35.5 13.5t-5.5 45.5q6 35 17 46t38 11q26 0 35.5 -13.5t3.5 -47.5q-6 -33 -16.5 -44t-36.5 -11zM29 -6q-63 0 -90.5 36t-16.5 97l238 1348
h112l-235 -1342q-3 -31 2 -31q4 0 8 19l238 1354h112l-239 -1360q-11 -61 -41 -91t-88 -30z" />
    <glyph glyph-name="Yacute" unicode="&#xdd;" horiz-adv-x="239" 
d="M297 1612h113l-95 -129h-86zM-49 0l78 446l121 1029h108l-25 -181l-104 -645l121 645l37 181h110l-237 -1016l-80 -459h-129z" />
    <glyph glyph-name="Thorn" unicode="&#xde;" horiz-adv-x="247" 
d="M51 238l-41 -238h-110l260 1475h110l-37 -211h29q49 0 69 -29t9 -82l-147 -834q-6 -34 -35 -57.5t-74 -23.5h-33zM217 1169l-147 -827h4q9 0 12 10l141 805q3 12 -8 12h-2z" />
    <glyph glyph-name="germandbls" unicode="&#xdf;" horiz-adv-x="251" 
d="M63 -2q-34 0 -43 4l17 100h4q5 0 8 17l103 581q3 13 -5 13h-2l21 118h2q5 0 8 13l92 520q3 16 -6 16q-7 0 -10 -18l-240 -1362h-110l243 1382q15 99 127 99q68 0 94 -31.5t13 -103.5l-92 -517q-3 -41 -43 -57q25 -11 22 -55l-110 -633q-7 -49 -28.5 -67.5t-64.5 -18.5z
" />
    <glyph glyph-name="agrave" unicode="&#xe0;" horiz-adv-x="256" 
d="M143 1341h113l18 -129h-77zM100 0q-32 0 -47 12t-14 37q-24 -55 -72 -55q-65 0 -53 78l84 485q6 33 12 46t21 24q13 12 67 28q30 11 36 15t7 14l72 401q7 21 -2 21q-5 0 -8 -12l-74 -418h-106l73 422q21 106 125 106q122 0 101 -121l-172 -966q-3 -17 10 -17h6l-19 -100
h-47zM33 92q5 0 8 14l84 482q-4 -4 -10 -6q-2 0 -6 -15l-80 -458q-3 -17 4 -17z" />
    <glyph glyph-name="aacute" unicode="&#xe1;" horiz-adv-x="256" 
d="M252 1341h113l-95 -129h-86zM100 0q-32 0 -47 12t-14 37q-24 -55 -72 -55q-65 0 -53 78l84 485q6 33 12 46t21 24q13 12 67 28q30 11 36 15t7 14l72 401q7 21 -2 21q-5 0 -8 -12l-74 -418h-106l73 422q21 106 125 106q122 0 101 -121l-172 -966q-3 -17 10 -17h6l-19 -100
h-47zM33 92q5 0 8 14l84 482q-4 -4 -10 -6q-2 0 -6 -15l-80 -458q-3 -17 4 -17z" />
    <glyph glyph-name="acircumflex" unicode="&#xe2;" horiz-adv-x="256" 
d="M244 1268l-27 -58h-80l86 154h74l31 -154h-78zM100 0q-32 0 -47 12t-14 37q-24 -55 -72 -55q-65 0 -53 78l84 485q6 33 12 46t21 24q13 12 67 28q30 11 36 15t7 14l72 401q7 21 -2 21q-5 0 -8 -12l-74 -418h-106l73 422q21 106 125 106q122 0 101 -121l-172 -966
q-3 -17 10 -17h6l-19 -100h-47zM33 92q5 0 8 14l84 482q-4 -4 -10 -6q-2 0 -6 -15l-80 -458q-3 -17 4 -17z" />
    <glyph glyph-name="atilde" unicode="&#xe3;" horiz-adv-x="256" 
d="M281 1208q-15 0 -39 13.5t-29 13.5q-11 0 -14 -27h-60q10 72 27 98.5t45 26.5q18 0 39.5 -12t23.5 -12q10 0 13 20h61q-11 -72 -26.5 -96.5t-40.5 -24.5zM100 0q-32 0 -47 12t-14 37q-24 -55 -72 -55q-65 0 -53 78l84 485q6 33 12 46t21 24q13 12 67 28q30 11 36 15t7 14
l72 401q7 21 -2 21q-5 0 -8 -12l-74 -418h-106l73 422q21 106 125 106q122 0 101 -121l-172 -966q-3 -17 10 -17h6l-19 -100h-47zM33 92q5 0 8 14l84 482q-4 -4 -10 -6q-2 0 -6 -15l-80 -458q-3 -17 4 -17z" />
    <glyph glyph-name="adieresis" unicode="&#xe4;" horiz-adv-x="256" 
d="M186 1206q-52 0 -41 60q6 34 17.5 45.5t38.5 11.5q26 0 35.5 -13.5t3.5 -47.5q-6 -33 -17 -44.5t-37 -11.5zM287 1206q-26 0 -35.5 14t-5.5 46q6 35 17 46t38 11q26 0 35.5 -13.5t3.5 -47.5q-6 -33 -16.5 -44.5t-36.5 -11.5zM100 0q-32 0 -47 12t-14 37q-24 -55 -72 -55
q-65 0 -53 78l84 485q6 33 12 46t21 24q13 12 67 28q30 11 36 15t7 14l72 401q7 21 -2 21q-5 0 -8 -12l-74 -418h-106l73 422q21 106 125 106q122 0 101 -121l-172 -966q-3 -17 10 -17h6l-19 -100h-47zM33 92q5 0 8 14l84 482q-4 -4 -10 -6q-2 0 -6 -15l-80 -458
q-3 -17 4 -17z" />
    <glyph glyph-name="aring" unicode="&#xe5;" horiz-adv-x="256" 
d="M242 1210q-40 0 -61 29t-13 68q12 69 84 69q41 0 61.5 -25.5t12.5 -66.5q-12 -74 -84 -74zM246 1280q14 0 14 14q0 11 -10 11q-14 0 -14 -15q0 -10 10 -10zM100 0q-32 0 -47 12t-14 37q-24 -55 -72 -55q-65 0 -53 78l84 485q6 33 12 46t21 24q13 12 67 28q30 11 36 15
t7 14l72 401q7 21 -2 21q-5 0 -8 -12l-74 -418h-106l73 422q21 106 125 106q122 0 101 -121l-172 -966q-3 -17 10 -17h6l-19 -100h-47zM33 92q5 0 8 14l84 482q-4 -4 -10 -6q-2 0 -6 -15l-80 -458q-3 -17 4 -17z" />
    <glyph glyph-name="ae" unicode="&#xe6;" horiz-adv-x="364" 
d="M272 109q-10 -63 -40.5 -89t-84.5 -26q-90 0 -102 61q-23 -61 -72 -61q-71 0 -57 90l80 453q6 33 12 45.5t21 23.5q32 18 65 29q31 11 37.5 15t7.5 14l74 421q3 21 -2 21q-2 0 -2.5 -0.5l-1 -1t-1.5 -2.5t-1.5 -3.5t-1.5 -5.5l-2 -8l-76 -430h-107l80 455q20 94 113 94
q47 0 72 -28q25 28 73 28q46 0 72 -27.5t16 -84.5l-90 -517h-123l-81 -458q-2 -21 2 -21q8 0 10 21l80 446h110zM246 662h14l74 423q3 21 -2 21q-7 0 -10 -21zM33 96q8 0 10 21l78 450l-8 -8q-5 -5 -7 -12l-75 -428q-3 -23 2 -23z" />
    <glyph glyph-name="ccedilla" unicode="&#xe7;" 
d="M-2 -172q-57 0 -80.5 23.5t-21.5 64.5h94q0 -12 14 -12q13 0 16 12q4 14 -12 14h-41l13 70q-75 25 -60 113l172 977q23 114 123 114q63 0 90.5 -33.5t16.5 -93.5l-72 -407h-111l76 424q3 12 -4 12q-5 0 -8 -10l-174 -987q-3 -13 2 -13q7 0 10 13l84 475h108l-83 -484
q-14 -91 -97 -104l-2 -8q64 -9 53 -82q-12 -78 -106 -78z" />
    <glyph glyph-name="egrave" unicode="&#xe8;" horiz-adv-x="245" 
d="M143 1341h113l18 -129h-77zM150 96q-21 -102 -119 -102q-64 0 -92 35t-17 92l172 977q21 106 123 106q60 0 88 -34.5t17 -94.5l-89 -502h-122l-82 -456q-3 -21 2 -21q8 0 10 21l80 444h110zM125 657h12l76 428q7 21 -2 21q-7 0 -10 -21z" />
    <glyph glyph-name="eacute" unicode="&#xe9;" horiz-adv-x="245" 
d="M252 1341h113l-95 -129h-86zM150 96q-21 -102 -119 -102q-64 0 -92 35t-17 92l172 977q21 106 123 106q60 0 88 -34.5t17 -94.5l-89 -502h-122l-82 -456q-3 -21 2 -21q8 0 10 21l80 444h110zM125 657h12l76 428q7 21 -2 21q-7 0 -10 -21z" />
    <glyph glyph-name="ecircumflex" unicode="&#xea;" horiz-adv-x="245" 
d="M244 1270l-27 -58h-80l86 154h74l31 -154h-78zM150 96q-21 -102 -119 -102q-64 0 -92 35t-17 92l172 977q21 106 123 106q60 0 88 -34.5t17 -94.5l-89 -502h-122l-82 -456q-3 -21 2 -21q8 0 10 21l80 444h110zM125 657h12l76 428q7 21 -2 21q-7 0 -10 -21z" />
    <glyph glyph-name="edieresis" unicode="&#xeb;" horiz-adv-x="245" 
d="M190 1206q-27 0 -36.5 14t-3.5 46q6 35 17 46t38 11q26 0 35.5 -13.5t3.5 -47.5q-6 -33 -17 -44.5t-37 -11.5zM291 1206q-26 0 -35.5 14t-5.5 46q6 35 17 46t38 11q26 0 35.5 -13.5t3.5 -47.5q-6 -33 -16.5 -44.5t-36.5 -11.5zM150 96q-21 -102 -119 -102q-64 0 -92 35
t-17 92l172 977q21 106 123 106q60 0 88 -34.5t17 -94.5l-89 -502h-122l-82 -456q-3 -21 2 -21q8 0 10 21l80 444h110zM125 657h12l76 428q7 21 -2 21q-7 0 -10 -21z" />
    <glyph glyph-name="igrave" unicode="&#xec;" horiz-adv-x="124" 
d="M80 1335h113l18 -129h-78zM111 1198h112l-211 -1198h-112z" />
    <glyph glyph-name="iacute" unicode="&#xed;" horiz-adv-x="124" 
d="M197 1337h112l-94 -129h-86zM111 1198h112l-211 -1198h-112z" />
    <glyph glyph-name="icircumflex" unicode="&#xee;" horiz-adv-x="124" 
d="M182 1264l-26 -58h-80l86 154h74l30 -154h-78zM111 1198h112l-211 -1198h-112z" />
    <glyph glyph-name="idieresis" unicode="&#xef;" horiz-adv-x="124" 
d="M125 1204q-52 0 -41 60q6 35 17 46t38 11q26 0 35.5 -13.5t3.5 -47.5q-6 -33 -16.5 -44.5t-36.5 -11.5zM225 1204q-26 0 -35.5 14t-5.5 46q6 34 17.5 45.5t38.5 11.5q26 0 35.5 -13.5t3.5 -47.5q-6 -33 -17 -44.5t-37 -11.5zM111 1198h112l-211 -1198h-112z" />
    <glyph glyph-name="eth" unicode="&#xf0;" 
d="M27 -6q-64 0 -90 35.5t-15 93.5l174 989q16 92 74 92q29 0 42 -13.5t15 -43.5q17 155 -8 229l-20 -12h-70l78 45q-22 50 -60 72h148l12 -13l23 13h69l-75 -45q15 -40 18 -107q2 -107 -18 -242l-174 -987q-15 -106 -123 -106zM37 96q8 0 10 27l170 964q3 19 -4 19
q-5 0 -8 -19l-170 -964q-3 -27 2 -27z" />
    <glyph glyph-name="ntilde" unicode="&#xf1;" horiz-adv-x="245" 
d="M281 1210q-15 0 -39 13.5t-29 13.5q-11 0 -14 -27h-60q10 72 27 98.5t45 26.5q18 0 39.5 -12t23.5 -12q10 0 13 20h61q-11 -72 -26.5 -96.5t-40.5 -24.5zM10 0h-110l213 1198h82l6 -47q24 53 73 53q73 0 54 -96l-195 -1108h-110l192 1085q3 21 -2 21h-2.5t-2.5 -5t-5 -16
z" />
    <glyph glyph-name="ograve" unicode="&#xf2;" 
d="M141 1341h113l18 -129h-77zM29 -6q-64 0 -91 35.5t-16 93.5l170 964q23 117 123 117q61 0 88.5 -35t15.5 -102l-169 -965q-16 -108 -121 -108zM33 96q8 0 10 27l170 964q3 19 -4 19q-5 0 -8 -19l-170 -964q-3 -27 2 -27z" />
    <glyph glyph-name="oacute" unicode="&#xf3;" 
d="M250 1341h112l-94 -129h-86zM29 -6q-64 0 -91 35.5t-16 93.5l170 964q23 117 123 117q61 0 88.5 -35t15.5 -102l-169 -965q-16 -108 -121 -108zM33 96q8 0 10 27l170 964q3 19 -4 19q-5 0 -8 -19l-170 -964q-3 -27 2 -27z" />
    <glyph glyph-name="ocircumflex" unicode="&#xf4;" 
d="M242 1268l-27 -58h-80l86 154h74l31 -154h-78zM29 -6q-64 0 -91 35.5t-16 93.5l170 964q23 117 123 117q61 0 88.5 -35t15.5 -102l-169 -965q-16 -108 -121 -108zM33 96q8 0 10 27l170 964q3 19 -4 19q-5 0 -8 -19l-170 -964q-3 -27 2 -27z" />
    <glyph glyph-name="otilde" unicode="&#xf5;" 
d="M276 1206q-15 0 -38.5 13.5t-28.5 13.5q-11 0 -14 -27h-60q10 72 27 98.5t45 26.5q18 0 39.5 -12t23.5 -12q10 0 13 20h61q-11 -72 -27 -96.5t-41 -24.5zM29 -6q-64 0 -91 35.5t-16 93.5l170 964q23 117 123 117q61 0 88.5 -35t15.5 -102l-169 -965q-16 -108 -121 -108z
M33 96q8 0 10 27l170 964q3 19 -4 19q-5 0 -8 -19l-170 -964q-3 -27 2 -27z" />
    <glyph glyph-name="odieresis" unicode="&#xf6;" 
d="M184 1206q-52 0 -41 60q6 34 17.5 45.5t38.5 11.5q26 0 35.5 -13.5t3.5 -47.5q-6 -33 -17 -44.5t-37 -11.5zM285 1206q-26 0 -35.5 14t-5.5 46q6 35 17 46t38 11q26 0 35.5 -13.5t3.5 -47.5q-6 -33 -16.5 -44.5t-36.5 -11.5zM29 -6q-64 0 -91 35.5t-16 93.5l170 964
q23 117 123 117q61 0 88.5 -35t15.5 -102l-169 -965q-16 -108 -121 -108zM33 96q8 0 10 27l170 964q3 19 -4 19q-5 0 -8 -19l-170 -964q-3 -27 2 -27z" />
    <glyph glyph-name="divide" unicode="&#xf7;" horiz-adv-x="270" 
d="M162 764q-44 0 -59.5 11t-10.5 36q4 26 20.5 34.5t61.5 8.5q49 0 65 -9t11 -34q-5 -27 -23 -37t-65 -10zM37 754h250l-19 -103h-250zM125 549q-44 0 -59.5 11t-10.5 36q4 26 20.5 34.5t61.5 8.5q49 0 65 -9t11 -34q-5 -27 -23 -37t-65 -10z" />
    <glyph glyph-name="oslash" unicode="&#xf8;" 
d="M-63 -78l20 90q-48 34 -35 111l170 964q16 100 98 115l17 76h106l-18 -98q39 -36 24 -113l-169 -965q-16 -89 -89 -104l-14 -76h-110zM33 96q8 0 10 27l170 964q3 19 -4 19q-5 0 -8 -19l-170 -964q-3 -27 2 -27z" />
    <glyph glyph-name="ugrave" unicode="&#xf9;" 
d="M137 1335h113l18 -129h-78zM41 59q-21 -65 -74 -65q-67 0 -53 88l197 1116h108l-190 -1081q-3 -25 2 -25q7 0 10 25l190 1081h111l-211 -1198h-86z" />
    <glyph glyph-name="uacute" unicode="&#xfa;" 
d="M246 1335h112l-94 -129h-86zM41 59q-21 -65 -74 -65q-67 0 -53 88l197 1116h108l-190 -1081q-3 -25 2 -25q7 0 10 25l190 1081h111l-211 -1198h-86z" />
    <glyph glyph-name="ucircumflex" unicode="&#xfb;" 
d="M240 1264l-27 -58h-80l86 154h74l31 -154h-78zM41 59q-21 -65 -74 -65q-67 0 -53 88l197 1116h108l-190 -1081q-3 -25 2 -25q7 0 10 25l190 1081h111l-211 -1198h-86z" />
    <glyph glyph-name="udieresis" unicode="&#xfc;" 
d="M182 1204q-52 0 -41 60q6 34 17.5 45.5t38.5 11.5q26 0 35.5 -13.5t3.5 -47.5q-6 -33 -17 -44.5t-37 -11.5zM283 1204q-26 0 -35.5 14t-5.5 46q6 35 17 46t38 11q26 0 35.5 -13.5t3.5 -47.5q-6 -33 -16.5 -44.5t-36.5 -11.5zM41 59q-21 -65 -74 -65q-67 0 -53 88
l197 1116h108l-190 -1081q-3 -25 2 -25q7 0 10 25l190 1081h111l-211 -1198h-86z" />
    <glyph glyph-name="yacute" unicode="&#xfd;" horiz-adv-x="237" 
d="M246 1335h112l-94 -129h-86zM-129 -137l18 114h15q19 0 25.5 4.5t11.5 18.5v2l161 1196h107l-45 -307l-135 -813l147 813l60 307h112l-262 -1227q-8 -42 -27 -69q-17 -24 -49.5 -31.5t-103.5 -7.5h-35z" />
    <glyph glyph-name="thorn" unicode="&#xfe;" horiz-adv-x="245" 
d="M76 -6q-55 0 -58 63l-63 -368h-109l330 1872h109l-74 -418q21 61 65 61q67 0 52 -98l-181 -1020q-12 -92 -71 -92zM33 96q5 0 6 4t6 29l166 952q3 25 -2 25q-7 0 -10 -25l-168 -962q-3 -23 2 -23z" />
    <glyph glyph-name="ydieresis" unicode="&#xff;" horiz-adv-x="237" 
d="M182 1204q-52 0 -41 60q6 34 17.5 45.5t38.5 11.5q26 0 35.5 -13.5t3.5 -47.5q-6 -33 -17 -44.5t-37 -11.5zM283 1204q-26 0 -35.5 14t-5.5 46q6 35 17 46t38 11q26 0 35.5 -13.5t3.5 -47.5q-6 -33 -16.5 -44.5t-36.5 -11.5zM-129 -137l18 114h15q19 0 25.5 4.5
t11.5 18.5v2l161 1196h107l-45 -307l-135 -813l147 813l60 307h112l-262 -1227q-8 -42 -27 -69q-17 -24 -49.5 -31.5t-103.5 -7.5h-35z" />
    <glyph glyph-name="Amacron" unicode="&#x100;" horiz-adv-x="239" 
d="M225 1583h133l-18 -100h-133zM51 152h-20l-29 -152h-108l303 1475h153l-213 -1475h-110zM55 274h17l43 261l135 786l-144 -786z" />
    <glyph glyph-name="amacron" unicode="&#x101;" horiz-adv-x="256" 
d="M182 1313h133l-18 -101h-133zM100 0q-32 0 -47 12t-14 37q-24 -55 -72 -55q-65 0 -53 78l84 485q6 33 12 46t21 24q13 12 67 28q30 11 36 15t7 14l72 401q7 21 -2 21q-5 0 -8 -12l-74 -418h-106l73 422q21 106 125 106q122 0 101 -121l-172 -966q-3 -17 10 -17h6
l-19 -100h-47zM33 92q5 0 8 14l84 482q-4 -4 -10 -6q-2 0 -6 -15l-80 -458q-3 -17 4 -17z" />
    <glyph glyph-name="Abreve" unicode="&#x102;" horiz-adv-x="239" 
d="M281 1481q-58 0 -71.5 26t-2.5 95h76q-5 -26 -4.5 -34.5t10.5 -8.5q3 0 5 0.5t3.5 2t2 3.5t1 5.5t1 7.5t1.5 10.5t2 13.5h78q-11 -71 -30.5 -96t-71.5 -25zM51 152h-20l-29 -152h-108l303 1475h153l-213 -1475h-110zM55 274h17l43 261l135 786l-144 -786z" />
    <glyph glyph-name="abreve" unicode="&#x103;" horiz-adv-x="256" 
d="M238 1210q-58 0 -71.5 26t-2.5 95h76q-5 -26 -4.5 -34.5t10.5 -8.5q3 0 5 0.5t3.5 2t2 3.5t1 5.5t1 7.5t1.5 10.5t2 13.5h78q-11 -71 -30.5 -96t-71.5 -25zM100 0q-32 0 -47 12t-14 37q-24 -55 -72 -55q-65 0 -53 78l84 485q6 33 12 46t21 24q13 12 67 28q30 11 36 15
t7 14l72 401q7 21 -2 21q-5 0 -8 -12l-74 -418h-106l73 422q21 106 125 106q122 0 101 -121l-172 -966q-3 -17 10 -17h6l-19 -100h-47zM33 92q5 0 8 14l84 482q-4 -4 -10 -6q-2 0 -6 -15l-80 -458q-3 -17 4 -17z" />
    <glyph glyph-name="Aogonek" unicode="&#x104;" horiz-adv-x="239" 
d="M162 -61q-7 -53 -36.5 -79t-70.5 -26q-42 0 -64.5 24t-17.5 60q3 50 56 88l22 146h-20l-29 -152h-108l303 1475h153l-213 -1475q-36 -29 -54 -46t-20.5 -20.5t-3.5 -9.5q-3 -10 4 -10q8 0 11 25h88zM55 274h17l43 261l135 786l-144 -786z" />
    <glyph glyph-name="aogonek" unicode="&#x105;" horiz-adv-x="256" 
d="M172 -61q-7 -53 -36 -79t-70 -26q-42 0 -64.5 24t-17.5 60q1 28 16 49t49 49q-10 10 -10 33q-24 -55 -72 -55q-65 0 -53 78l84 485q6 33 12 46t21 24q13 12 67 28q30 11 36 15t7 14l72 401q7 21 -2 21q-5 0 -8 -12l-74 -418h-106l73 422q21 106 125 106q122 0 101 -121
l-172 -966q-3 -17 10 -17h6l-19 -100q-36 -29 -54 -46t-19.5 -20.5t-3.5 -9.5q-2 -10 4 -10q7 0 10 25h88zM33 92q5 0 8 14l84 482q-4 -4 -10 -6q-2 0 -6 -15l-80 -458q-3 -17 4 -17z" />
    <glyph glyph-name="Cacute" unicode="&#x106;" horiz-adv-x="249" 
d="M303 1618h113l-94 -129h-86zM31 -6q-64 0 -92 34t-17 99l219 1241q19 113 127 113q55 0 87.5 -29.5t21.5 -97.5l-96 -545h-113l98 555q3 16 -4 16q-5 0 -8 -16l-217 -1231q-3 -31 2 -31q4 0 8 19l103 586h112l-104 -596q-21 -117 -127 -117z" />
    <glyph glyph-name="cacute" unicode="&#x107;" 
d="M252 1341h113l-95 -129h-86zM25 -6q-59 0 -87.5 33.5t-17.5 85.5l172 977q23 114 123 114q63 0 90.5 -33.5t16.5 -93.5l-72 -407h-111l76 424q3 12 -4 12q-5 0 -8 -10l-174 -987q-3 -13 2 -13q7 0 10 13l84 475h108l-83 -484q-21 -106 -125 -106z" />
    <glyph glyph-name="Ccircumflex" unicode="&#x108;" horiz-adv-x="249" 
d="M295 1546l-27 -57h-80l86 153h74l31 -153h-78zM31 -6q-64 0 -92 34t-17 99l219 1241q19 113 127 113q55 0 87.5 -29.5t21.5 -97.5l-96 -545h-113l98 555q3 16 -4 16q-5 0 -8 -16l-217 -1231q-3 -31 2 -31q4 0 8 19l103 586h112l-104 -596q-21 -117 -127 -117z" />
    <glyph glyph-name="ccircumflex" unicode="&#x109;" 
d="M242 1266l-27 -58h-80l86 154h74l31 -154h-78zM25 -6q-59 0 -87.5 33.5t-17.5 85.5l172 977q23 114 123 114q63 0 90.5 -33.5t16.5 -93.5l-72 -407h-111l76 424q3 12 -4 12q-5 0 -8 -10l-174 -987q-3 -13 2 -13q7 0 10 13l84 475h108l-83 -484q-21 -106 -125 -106z" />
    <glyph glyph-name="Cdotaccent" unicode="&#x10a;" horiz-adv-x="249" 
d="M287 1487q-32 0 -43.5 15t-5.5 52t20.5 49.5t46.5 12.5q33 0 44.5 -14.5t4.5 -55.5q-7 -36 -21.5 -47.5t-45.5 -11.5zM31 -6q-64 0 -92 34t-17 99l219 1241q19 113 127 113q55 0 87.5 -29.5t21.5 -97.5l-96 -545h-113l98 555q3 16 -4 16q-5 0 -8 -16l-217 -1231
q-3 -31 2 -31q4 0 8 19l103 586h112l-104 -596q-21 -117 -127 -117z" />
    <glyph glyph-name="cdotaccent" unicode="&#x10b;" 
d="M236 1210q-32 0 -44 15.5t-6 52.5t21 49t47 12q33 0 44.5 -14t4.5 -55q-7 -37 -21.5 -48.5t-45.5 -11.5zM25 -6q-59 0 -87.5 33.5t-17.5 85.5l172 977q23 114 123 114q63 0 90.5 -33.5t16.5 -93.5l-72 -407h-111l76 424q3 12 -4 12q-5 0 -8 -10l-174 -987q-3 -13 2 -13
q7 0 10 13l84 475h108l-83 -484q-21 -106 -125 -106z" />
    <glyph glyph-name="Ccaron" unicode="&#x10c;" horiz-adv-x="249" 
d="M246 1489l-31 153h80l4 -59l29 59h78l-84 -153h-76zM31 -6q-64 0 -92 34t-17 99l219 1241q19 113 127 113q55 0 87.5 -29.5t21.5 -97.5l-96 -545h-113l98 555q3 16 -4 16q-5 0 -8 -16l-217 -1231q-3 -31 2 -31q4 0 8 19l103 586h112l-104 -596q-21 -117 -127 -117z" />
    <glyph glyph-name="ccaron" unicode="&#x10d;" 
d="M195 1212l-31 154h80l4 -59l28 59h78l-84 -154h-75zM25 -6q-59 0 -87.5 33.5t-17.5 85.5l172 977q23 114 123 114q63 0 90.5 -33.5t16.5 -93.5l-72 -407h-111l76 424q3 12 -4 12q-5 0 -8 -10l-174 -987q-3 -13 2 -13q7 0 10 13l84 475h108l-83 -484q-21 -106 -125 -106z
" />
    <glyph glyph-name="Dcaron" unicode="&#x10e;" horiz-adv-x="251" 
d="M246 1483l-31 153h80l4 -59l29 59h78l-84 -153h-76zM160 1475h129q56 0 79 -26.5t11 -90.5l-221 -1258q-15 -100 -129 -100h-129zM256 1380l-225 -1280h6q10 0 10 9l223 1265q0 6 -6 6h-8z" />
    <glyph glyph-name="dcaron" unicode="&#x10f;" 
d="M45 63q-21 -69 -76 -69q-74 0 -53 104l176 998q10 59 29.5 83.5t52.5 24.5q46 0 49 -55l72 399h108l-274 -1548h-84v63zM418 1548h35l-76 -250h-12zM33 96q4 0 8 15l172 976q3 19 -4 19q-5 0 -8 -19l-172 -976q-4 -15 4 -15z" />
    <glyph glyph-name="Dcroat" unicode="&#x110;" horiz-adv-x="253" 
d="M-98 0l123 696h-9l21 113h8l117 666h129q56 0 79 -26.5t11 -90.5l-221 -1258q-15 -100 -129 -100h-129zM135 696l-104 -596h8q10 0 10 9l223 1265q0 6 -6 6h-10l-100 -571h10l-21 -113h-10z" />
    <glyph glyph-name="dcroat" unicode="&#x111;" 
d="M45 63q-21 -69 -76 -69q-68 0 -53 100l174 989q21 121 84 121q46 0 49 -55l25 139h-31l16 94h33l29 166h108l-28 -166h4l-17 -94h-6l-227 -1288h-84v63zM33 96q4 0 8 15l172 976q3 19 -4 19q-5 0 -8 -19l-172 -976q-4 -15 4 -15z" />
    <glyph glyph-name="Emacron" unicode="&#x112;" horiz-adv-x="169" 
d="M201 1583h133l-19 -100h-133zM59 0h-159l260 1475h159l-20 -121h-47l-96 -545h47l-21 -121h-47l-100 -565h47z" />
    <glyph glyph-name="emacron" unicode="&#x113;" horiz-adv-x="245" 
d="M180 1313h133l-18 -101h-133zM150 96q-21 -102 -119 -102q-64 0 -92 35t-17 92l172 977q21 106 123 106q60 0 88 -34.5t17 -94.5l-89 -502h-122l-82 -456q-3 -21 2 -21q8 0 10 21l80 444h110zM125 657h12l76 428q7 21 -2 21q-7 0 -10 -21z" />
    <glyph glyph-name="Ebreve" unicode="&#x114;" horiz-adv-x="169" 
d="M256 1481q-58 0 -71.5 26t-2.5 95h76q-5 -26 -4.5 -34.5t10.5 -8.5q3 0 5 0.5t3.5 2t2 3.5t1.5 5.5t1.5 7.5t1.5 11t2 13h77q-11 -71 -30.5 -96t-71.5 -25zM59 0h-159l260 1475h159l-20 -121h-47l-96 -545h47l-21 -121h-47l-100 -565h47z" />
    <glyph glyph-name="ebreve" unicode="&#x115;" horiz-adv-x="245" 
d="M236 1210q-58 0 -71.5 26t-2.5 95h76q-5 -26 -4.5 -34.5t10.5 -8.5q3 0 5 0.5t3.5 2t2 3.5t1 5.5t1 7.5t1.5 10.5t2 13.5h78q-11 -71 -30.5 -96t-71.5 -25zM150 96q-21 -102 -119 -102q-64 0 -92 35t-17 92l172 977q21 106 123 106q60 0 88 -34.5t17 -94.5l-89 -502h-122
l-82 -456q-3 -21 2 -21q8 0 10 21l80 444h110zM125 657h12l76 428q7 21 -2 21q-7 0 -10 -21z" />
    <glyph glyph-name="Edotaccent" unicode="&#x116;" horiz-adv-x="169" 
d="M254 1481q-32 0 -43.5 15t-5.5 52t20.5 49.5t46.5 12.5q33 0 45 -14.5t5 -55.5q-7 -36 -22 -47.5t-46 -11.5zM59 0h-159l260 1475h159l-20 -121h-47l-96 -545h47l-21 -121h-47l-100 -565h47z" />
    <glyph glyph-name="edotaccent" unicode="&#x117;" horiz-adv-x="245" 
d="M236 1210q-32 0 -44 15.5t-6 52.5t21 49t47 12q33 0 44.5 -14t4.5 -55q-7 -37 -21.5 -48.5t-45.5 -11.5zM150 96q-21 -102 -119 -102q-64 0 -92 35t-17 92l172 977q21 106 123 106q60 0 88 -34.5t17 -94.5l-89 -502h-122l-82 -456q-3 -21 2 -21q8 0 10 21l80 444h110z
M125 657h12l76 428q7 21 -2 21q-7 0 -10 -21z" />
    <glyph glyph-name="Eogonek" unicode="&#x118;" horiz-adv-x="169" 
d="M84 -61q-7 -53 -36.5 -79t-70.5 -26q-42 0 -64 24t-17 60q3 47 47 82h-43l260 1475h159l-20 -121h-47l-96 -545h47l-21 -121h-47l-100 -565h47l-23 -123q-36 -29 -54 -46t-19.5 -20.5t-3.5 -9.5q-2 -10 4 -10q7 0 10 25h88z" />
    <glyph glyph-name="eogonek" unicode="&#x119;" horiz-adv-x="245" 
d="M25 -147q-42 0 -64.5 24t-17.5 60q3 40 30 67q-64 25 -51 117l172 977q21 106 123 106q60 0 88 -34.5t17 -94.5l-89 -502h-122l-82 -456q-3 -21 2 -21q8 0 10 21l80 444h110l-81 -465q-13 -66 -56 -88q-61 -49 -65 -65q-3 -11 4 -11t10 25h88q-7 -53 -36 -78.5t-70 -25.5
zM125 657h12l76 428q7 21 -2 21q-7 0 -10 -21z" />
    <glyph glyph-name="Ecaron" unicode="&#x11a;" horiz-adv-x="169" 
d="M213 1483l-31 153h80l4 -59l29 59h78l-84 -153h-76zM59 0h-159l260 1475h159l-20 -121h-47l-96 -545h47l-21 -121h-47l-100 -565h47z" />
    <glyph glyph-name="ecaron" unicode="&#x11b;" horiz-adv-x="245" 
d="M195 1212l-31 154h80l4 -59l28 59h78l-84 -154h-75zM150 96q-21 -102 -119 -102q-64 0 -92 35t-17 92l172 977q21 106 123 106q60 0 88 -34.5t17 -94.5l-89 -502h-122l-82 -456q-3 -21 2 -21q8 0 10 21l80 444h110zM125 657h12l76 428q7 21 -2 21q-7 0 -10 -21z" />
    <glyph glyph-name="Gcircumflex" unicode="&#x11c;" horiz-adv-x="251" 
d="M295 1546l-27 -57h-80l86 153h74l31 -153h-78zM61 68q-26 -74 -86 -74q-76 0 -57 108l223 1266q20 113 125 113q59 0 91.5 -30.5t21.5 -98.5l-82 -459h-115l84 473q3 14 -4 14q-5 0 -8 -14l-219 -1241q-3 -23 8 -23t14 23l97 547h-15l25 139h119l-144 -811h-80z" />
    <glyph glyph-name="gcircumflex" unicode="&#x11d;" 
d="M260 1319l-27 -57h-79l86 153h73l31 -153h-78zM141 0q-8 -55 -40.5 -79.5t-104.5 -24.5h-8q-71 0 -93.5 18t-17.5 49q5 21 21.5 30.5t54.5 10.5q-56 9 -47 59q13 55 88 58q-69 12 -60 78l160 903q14 80 88 94l11 2q29 6 36.5 13.5t12.5 29.5l2 10h110l-4 -24
q-4 -24 -21.5 -30.5t-66.5 -4.5q38 -7 54 -31.5t10 -60.5l-158 -893q-15 -98 -121 -98h-27q-16 0 -16 -5q0 -4 14 -4h35q53 0 74 -24t14 -76zM51 205q4 0 5.5 3t2.5 15v2l152 860q7 21 -2 21q-2 0 -2.5 -0.5l-1 -1t-1.5 -2.5t-1.5 -3.5t-1.5 -5.5l-2 -8l-152 -860
q-2 -20 4 -20zM20 -8h13q10 -1 12 4q1 1 -3 3q-7 3 -22 3h-26q-19 0 -19 -4q-1 -4 2.5 -5t22.5 -1h20z" />
    <glyph glyph-name="Gbreve" unicode="&#x11e;" horiz-adv-x="251" 
d="M289 1487q-58 0 -71.5 26t-2.5 95h76q-5 -26 -4.5 -34.5t10.5 -8.5q3 0 5 0.5t3.5 2t2 3.5t1 5.5t1 7.5t1.5 10.5t2 13.5h78q-11 -71 -30.5 -96t-71.5 -25zM61 68q-26 -74 -86 -74q-76 0 -57 108l223 1266q20 113 125 113q59 0 91.5 -30.5t21.5 -98.5l-82 -459h-115
l84 473q3 14 -4 14q-5 0 -8 -14l-219 -1241q-3 -23 8 -23t14 23l97 547h-15l25 139h119l-144 -811h-80z" />
    <glyph glyph-name="gbreve" unicode="&#x11f;" 
d="M260 1260q-58 0 -71.5 25.5t-2.5 94.5h76q-5 -26 -4.5 -34.5t10.5 -8.5q3 0 5 0.5t3.5 2t2 3.5t1.5 5.5t1.5 7.5t1.5 11t2 13h77q-11 -71 -30.5 -95.5t-71.5 -24.5zM141 0q-8 -55 -40.5 -79.5t-104.5 -24.5h-8q-71 0 -93.5 18t-17.5 49q5 21 21.5 30.5t54.5 10.5
q-56 9 -47 59q13 55 88 58q-69 12 -60 78l160 903q14 80 88 94l11 2q29 6 36.5 13.5t12.5 29.5l2 10h110l-4 -24q-4 -24 -21.5 -30.5t-66.5 -4.5q38 -7 54 -31.5t10 -60.5l-158 -893q-15 -98 -121 -98h-27q-16 0 -16 -5q0 -4 14 -4h35q53 0 74 -24t14 -76zM51 205q4 0 5.5 3
t2.5 15v2l152 860q7 21 -2 21q-2 0 -2.5 -0.5l-1 -1t-1.5 -2.5t-1.5 -3.5t-1.5 -5.5l-2 -8l-152 -860q-2 -20 4 -20zM20 -8h13q10 -1 12 4q1 1 -3 3q-7 3 -22 3h-26q-19 0 -19 -4q-1 -4 2.5 -5t22.5 -1h20z" />
    <glyph glyph-name="Gdotaccent" unicode="&#x120;" horiz-adv-x="251" 
d="M287 1487q-32 0 -43.5 15t-5.5 52t20.5 49.5t46.5 12.5q33 0 44.5 -14.5t4.5 -55.5q-7 -36 -21.5 -47.5t-45.5 -11.5zM61 68q-26 -74 -86 -74q-76 0 -57 108l223 1266q20 113 125 113q59 0 91.5 -30.5t21.5 -98.5l-82 -459h-115l84 473q3 14 -4 14q-5 0 -8 -14
l-219 -1241q-3 -23 8 -23t14 23l97 547h-15l25 139h119l-144 -811h-80z" />
    <glyph glyph-name="gdotaccent" unicode="&#x121;" 
d="M256 1260q-32 0 -43.5 15t-5.5 52t20.5 49.5t46.5 12.5q33 0 45 -14.5t5 -55.5q-7 -36 -22 -47.5t-46 -11.5zM141 0q-8 -55 -40.5 -79.5t-104.5 -24.5h-8q-71 0 -93.5 18t-17.5 49q5 21 21.5 30.5t54.5 10.5q-56 9 -47 59q13 55 88 58q-69 12 -60 78l160 903q14 80 88 94
l11 2q29 6 36.5 13.5t12.5 29.5l2 10h110l-4 -24q-4 -24 -21.5 -30.5t-66.5 -4.5q38 -7 54 -31.5t10 -60.5l-158 -893q-15 -98 -121 -98h-27q-16 0 -16 -5q0 -4 14 -4h35q53 0 74 -24t14 -76zM51 205q4 0 5.5 3t2.5 15v2l152 860q7 21 -2 21q-2 0 -2.5 -0.5l-1 -1t-1.5 -2.5
t-1.5 -3.5t-1.5 -5.5l-2 -8l-152 -860q-2 -20 4 -20zM20 -8h13q10 -1 12 4q1 1 -3 3q-7 3 -22 3h-26q-19 0 -19 -4q-1 -4 2.5 -5t22.5 -1h20z" />
    <glyph glyph-name="uni0122" unicode="&#x122;" horiz-adv-x="251" 
d="M61 68q-26 -74 -86 -74q-76 0 -57 108l223 1266q20 113 125 113q59 0 91.5 -30.5t21.5 -98.5l-82 -459h-115l84 473q3 14 -4 14q-5 0 -8 -14l-219 -1241q-3 -23 8 -23t14 23l97 547h-15l25 139h119l-144 -811h-80zM-33 -106q59 0 62 16q-3 0 -9 -1t-10 -1q-44 0 -35 47
q4 23 16.5 31t41.5 8q31 0 41 -11.5t4 -45.5q-8 -49 -29.5 -65.5t-89.5 -16.5z" />
    <glyph glyph-name="uni0123" unicode="&#x123;" 
d="M256 1257q-32 0 -42.5 15.5t-4.5 48.5q7 41 29 58.5t88 17.5l-7 -39q-58 0 -61 -17q6 2 16 2q25 0 33.5 -10t3.5 -33q-2 -23 -14 -33t-41 -10zM141 0q-8 -55 -40.5 -79.5t-104.5 -24.5h-8q-71 0 -93.5 18t-17.5 49q5 21 21.5 30.5t54.5 10.5q-56 9 -47 59q13 55 88 58
q-69 12 -60 78l160 903q14 80 88 94l11 2q29 6 36.5 13.5t12.5 29.5l2 10h110l-4 -24q-4 -24 -21.5 -30.5t-66.5 -4.5q38 -7 54 -31.5t10 -60.5l-158 -893q-15 -98 -121 -98h-27q-16 0 -16 -5q0 -4 14 -4h35q53 0 74 -24t14 -76zM51 205q4 0 5.5 3t2.5 15v2l152 860
q7 21 -2 21q-2 0 -2.5 -0.5l-1 -1t-1.5 -2.5t-1.5 -3.5t-1.5 -5.5l-2 -8l-152 -860q-2 -20 4 -20zM20 -8h13q10 -1 12 4q1 1 -3 3q-7 3 -22 3h-26q-19 0 -19 -4q-1 -4 2.5 -5t22.5 -1h20z" />
    <glyph glyph-name="Hcircumflex" unicode="&#x124;" horiz-adv-x="245" 
d="M291 1540l-27 -57h-80l86 153h74l31 -153h-78zM145 700h-12l-123 -700h-110l260 1475h110l-118 -668h12l119 668h110l-260 -1475h-110z" />
    <glyph glyph-name="hcircumflex" unicode="&#x125;" 
d="M240 1614l-27 -58h-80l86 154h74l31 -154h-78zM8 0h-108l274 1548h109l-72 -403q24 59 72 59q59 0 47 -76l-199 -1128h-111l193 1083q3 23 -2 23q-4 0 -10 -23z" />
    <glyph glyph-name="Hbar" unicode="&#x126;" horiz-adv-x="258" 
d="M152 700h-13l-123 -700h-110l192 1096h-10l18 102h11l49 277h110l-49 -277h13l49 277h110l-49 -277h15l-19 -102h-14l-193 -1096h-110zM221 1096h-12l-51 -289h12z" />
    <glyph glyph-name="hbar" unicode="&#x127;" 
d="M8 0h-108l235 1327h-6l16 92h7l22 129h109l-23 -129h55l-16 -92h-55l-33 -182q24 59 72 59q59 0 47 -76l-199 -1128h-111l193 1083q3 23 -2 23q-4 0 -10 -23z" />
    <glyph glyph-name="Itilde" unicode="&#x128;" horiz-adv-x="124" 
d="M268 1481q-15 0 -38.5 13t-28.5 13q-12 0 -15 -26h-59q10 72 27 98.5t45 26.5q18 0 39.5 -12.5t23.5 -12.5q9 0 12 21h62q-11 -72 -27 -96.5t-41 -24.5zM160 1475h112l-260 -1475h-112z" />
    <glyph glyph-name="itilde" unicode="&#x129;" horiz-adv-x="124" 
d="M215 1204q-15 0 -39 13.5t-29 13.5q-11 0 -14 -27h-59q10 73 26.5 99t44.5 26q18 0 40 -12t24 -12q9 0 12 20h62q-11 -72 -27 -96.5t-41 -24.5zM111 1198h112l-211 -1198h-112z" />
    <glyph glyph-name="Imacron" unicode="&#x12a;" horiz-adv-x="124" 
d="M170 1583h133l-18 -100h-133zM160 1475h112l-260 -1475h-112z" />
    <glyph glyph-name="imacron" unicode="&#x12b;" horiz-adv-x="124" 
d="M123 1307h133l-18 -101h-134zM111 1198h112l-211 -1198h-112z" />
    <glyph glyph-name="Ibreve" unicode="&#x12c;" horiz-adv-x="124" 
d="M227 1481q-57 0 -70.5 25.5t-2.5 95.5h75q-5 -26 -4 -34.5t11 -8.5q3 0 5 0.5t3.5 2t2 3.5t1 5.5t1 7.5t1.5 10.5t2 13.5h78q-11 -70 -31 -95.5t-72 -25.5zM160 1475h112l-260 -1475h-112z" />
    <glyph glyph-name="ibreve" unicode="&#x12d;" horiz-adv-x="124" 
d="M180 1204q-58 0 -71.5 26t-2.5 95h76q-5 -26 -4.5 -34.5t10.5 -8.5q3 0 5 0.5t3.5 2t2 3.5t1.5 5.5t1.5 7.5t1.5 11t2 13h78q-11 -70 -31 -95.5t-72 -25.5zM111 1198h112l-211 -1198h-112z" />
    <glyph glyph-name="Iogonek" unicode="&#x12e;" horiz-adv-x="124" 
d="M37 -61q-7 -53 -36.5 -79t-70.5 -26q-42 0 -64.5 24t-17.5 60q3 46 52 86l260 1471h112l-260 -1475q-36 -29 -54 -46t-20.5 -20.5t-3.5 -9.5q-2 -10 5 -10t10 25h88z" />
    <glyph glyph-name="iogonek" unicode="&#x12f;" horiz-adv-x="124" 
d="M166 1186q-36 0 -44.5 21t1.5 65q7 41 21.5 55t45.5 14q37 0 46 -13.5t2 -65.5q-7 -48 -21.5 -62t-50.5 -14zM37 -61q-7 -53 -36.5 -79t-70.5 -26q-42 0 -64.5 24t-17.5 60q3 46 52 86l211 1192q13 -22 55 -22q44 0 57 22l-211 -1196q-36 -29 -54 -46t-20.5 -20.5
t-3.5 -9.5q-2 -10 5 -10t10 25h88z" />
    <glyph glyph-name="Idotaccent" unicode="&#x130;" horiz-adv-x="124" 
d="M225 1481q-32 0 -43.5 15t-5.5 52t21 49.5t47 12.5q33 0 44.5 -14.5t4.5 -55.5q-7 -36 -22 -47.5t-46 -11.5zM160 1475h112l-260 -1475h-112z" />
    <glyph glyph-name="dotlessi" unicode="&#x131;" horiz-adv-x="124" 
d="M111 1198h112l-211 -1198h-112z" />
    <glyph glyph-name="IJ" unicode="&#x132;" horiz-adv-x="260" 
d="M160 1475h112l-260 -1475h-112zM41 109h4q9 0 12 16l238 1350h113l-248 -1405q-8 -42 -23 -56t-55 -14h-62z" />
    <glyph glyph-name="ij" unicode="&#x133;" horiz-adv-x="249" 
d="M166 1186q-36 0 -44.5 21t1.5 65q7 41 21.5 55t45.5 14q37 0 46 -13.5t2 -65.5q-7 -48 -21.5 -62t-50.5 -14zM291 1186q-36 0 -44.5 21t1.5 65q7 41 21.5 55t45.5 14q38 0 47.5 -13.5t-0.5 -65.5q-7 -48 -21 -62t-50 -14zM-102 -12h110q16 0 19 14l209 1194
q13 -22 55 -22q44 0 57 22l-219 -1241q-8 -43 -26 -59.5t-60 -16.5h-164zM111 1196q13 -22 55 -22q44 0 57 22l-211 -1196h-112z" />
    <glyph glyph-name="Jcircumflex" unicode="&#x134;" 
d="M352 1540l-26 -57h-80l86 153h74l30 -153h-78zM18 -8q-125 0 -102 137l92 514h115l-92 -524q-4 -19 2 -19q4 0 8 19l238 1356h110l-239 -1358q-11 -63 -42 -94t-90 -31z" />
    <glyph glyph-name="jcircumflex" unicode="&#x135;" horiz-adv-x="124" 
d="M180 1264l-26 -58h-80l86 154h73l31 -154h-78zM-150 -12h35q12 0 15 12l211 1198h112l-219 -1241q-8 -44 -26 -61t-60 -17h-86z" />
    <glyph glyph-name="uni0136" unicode="&#x136;" horiz-adv-x="253" 
d="M139 700l-8 -18l-119 -682h-112l260 1475h110l-55 -314l-72 -370l76 337l78 347h115l-152 -619l-108 -856h-113l55 408zM-41 -106q58 0 61 16q-3 0 -8.5 -1t-9.5 -1q-44 0 -35 47q4 23 16.5 31t41.5 8q31 0 41 -11.5t4 -45.5q-8 -49 -29.5 -65.5t-89.5 -16.5z" />
    <glyph glyph-name="uni0137" unicode="&#x137;" horiz-adv-x="239" 
d="M119 600l-13 -41l-96 -559h-108l272 1548h109l-82 -467l-92 -440l79 326l58 231h102l-115 -448l-94 -750h-108l47 322zM-45 -109q58 0 61 17q-3 0 -8.5 -1t-9.5 -1q-44 0 -35 47q4 23 16 31t41 8q31 0 41.5 -12t4.5 -46q-8 -49 -29.5 -65t-89.5 -16z" />
    <glyph glyph-name="kgreenlandic" unicode="&#x138;" horiz-adv-x="239" 
d="M119 600l-13 -41l-96 -559h-108l211 1198h108l-20 -117l-92 -440l79 326l58 231h102l-115 -448l-94 -750h-108l47 322z" />
    <glyph glyph-name="Lacute" unicode="&#x139;" horiz-adv-x="167" 
d="M242 1612h112l-94 -129h-86zM-100 0l260 1475h114l-237 -1352h43l-23 -123h-157z" />
    <glyph glyph-name="lacute" unicode="&#x13a;" horiz-adv-x="122" 
d="M252 1686h113l-95 -130h-86zM172 1548h111l-273 -1548h-110z" />
    <glyph glyph-name="uni013B" unicode="&#x13b;" horiz-adv-x="167" 
d="M-100 0l260 1475h114l-237 -1352h43l-23 -123h-157zM-88 -106q58 0 61 16q-3 0 -8.5 -1t-9.5 -1q-44 0 -35 47q4 23 16 31t41 8q31 0 41.5 -11.5t4.5 -45.5q-8 -49 -29.5 -65.5t-89.5 -16.5z" />
    <glyph glyph-name="uni013C" unicode="&#x13c;" horiz-adv-x="122" 
d="M172 1548h111l-273 -1548h-110zM-111 -106q59 0 62 16q-3 0 -9 -1t-10 -1q-43 0 -34 47q4 23 16 31t41 8q31 0 41 -11.5t4 -45.5q-8 -49 -29.5 -65.5t-89.5 -16.5z" />
    <glyph glyph-name="Lcaron" unicode="&#x13d;" horiz-adv-x="167" 
d="M-100 0l260 1475h114l-237 -1352h43l-23 -123h-157zM289 1475h35l-76 -250h-12z" />
    <glyph glyph-name="lcaron" unicode="&#x13e;" horiz-adv-x="122" 
d="M172 1548h111l-273 -1548h-110zM295 1548h35l-76 -250h-12z" />
    <glyph glyph-name="Ldot" unicode="&#x13f;" horiz-adv-x="167" 
d="M-100 0l260 1475h114l-237 -1352h43l-23 -123h-157zM145 580q-10 0 -10 12q-2 15 21 162q13 72 21.5 107t14 46t13.5 11t8 -13q4 -26 -20 -160q-20 -106 -28.5 -135.5t-19.5 -29.5z" />
    <glyph glyph-name="ldot" unicode="&#x140;" horiz-adv-x="165" 
d="M-100 0l274 1548h111l-275 -1548h-110zM104 381q-8 0 -8 18q0 32 35 238q20 110 33 168q16 84 33 84q8 0 8 -19q0 -48 -35 -239q-23 -118 -33 -162q-17 -88 -33 -88z" />
    <glyph glyph-name="Lslash" unicode="&#x141;" horiz-adv-x="172" 
d="M-96 0l116 666l-10 -4l21 110l10 4l123 699h115l-115 -650l26 11l-18 -113l-29 -10l-102 -590h43l-23 -123h-157z" />
    <glyph glyph-name="lslash" unicode="&#x142;" horiz-adv-x="131" 
d="M-96 0l76 426l16 90l-12 -6l22 127l12 6l160 905h111l-148 -835l11 6l-23 -129l-10 -6l-29 -158l-76 -426h-110z" />
    <glyph glyph-name="Nacute" unicode="&#x143;" horiz-adv-x="270" 
d="M311 1612h113l-94 -129h-86zM8 0h-108l260 1475h121l-131 -1139l114 870l47 269h107l-260 -1475h-113l152 1298l-121 -921z" />
    <glyph glyph-name="nacute" unicode="&#x144;" horiz-adv-x="245" 
d="M252 1337h113l-95 -129h-86zM10 0h-110l213 1198h82l6 -47q24 53 73 53q73 0 54 -96l-195 -1108h-110l192 1085q3 21 -2 21h-2.5t-2.5 -5t-5 -16z" />
    <glyph glyph-name="uni0145" unicode="&#x145;" horiz-adv-x="270" 
d="M8 0h-108l260 1475h121l-131 -1139l114 870l47 269h107l-260 -1475h-113l152 1298l-121 -921zM-29 -109q59 0 62 17q-3 0 -9 -1t-10 -1q-43 0 -34 47q4 23 16 31t41 8q30 0 40.5 -12t4.5 -46q-8 -49 -29.5 -65t-89.5 -16z" />
    <glyph glyph-name="uni0146" unicode="&#x146;" horiz-adv-x="245" 
d="M10 0h-110l213 1198h82l6 -47q24 53 73 53q73 0 54 -96l-195 -1108h-110l192 1085q3 21 -2 21h-2.5t-2.5 -5t-5 -16zM-51 -106q58 0 61 16q-3 0 -8.5 -1t-9.5 -1q-44 0 -35 47q4 23 16 31t41 8q31 0 41 -11.5t4 -45.5q-8 -50 -29 -66t-89 -16z" />
    <glyph glyph-name="Ncaron" unicode="&#x147;" horiz-adv-x="270" 
d="M254 1483l-31 153h80l4 -59l29 59h78l-84 -153h-76zM8 0h-108l260 1475h121l-131 -1139l114 870l47 269h107l-260 -1475h-113l152 1298l-121 -921z" />
    <glyph glyph-name="ncaron" unicode="&#x148;" horiz-adv-x="245" 
d="M195 1208l-31 154h80l4 -59l28 59h78l-84 -154h-75zM10 0h-110l213 1198h82l6 -47q24 53 73 53q73 0 54 -96l-195 -1108h-110l192 1085q3 21 -2 21h-2.5t-2.5 -5t-5 -16z" />
    <glyph glyph-name="Eng" unicode="&#x14a;" horiz-adv-x="270" 
d="M-23 -197l21 113h25q13 0 16 16l8 43l141 1264l-112 -862l-68 -377h-108l260 1475h121l-121 -1063l104 794l47 269h107l-275 -1559q-12 -73 -32.5 -93t-79.5 -20h-54z" />
    <glyph glyph-name="eng" unicode="&#x14b;" horiz-adv-x="245" 
d="M-47 -121l18 109h33q16 0 19 14l190 1083q3 21 -2 21h-2.5t-2.5 -5t-5 -16l-191 -1085h-110l211 1198h84l4 -49q23 55 75 55q73 0 54 -96l-199 -1120q-12 -72 -31.5 -90.5t-79.5 -18.5h-65z" />
    <glyph glyph-name="Omacron" unicode="&#x14c;" horiz-adv-x="249" 
d="M233 1589h134l-19 -100h-133zM29 -6q-63 0 -90.5 36t-16.5 97l219 1241q20 113 123 113q62 0 91.5 -34.5t19.5 -98.5l-217 -1233q-11 -61 -41 -91t-88 -30zM39 102q4 0 8 19l219 1243q3 16 -4 16q-5 0 -8 -16l-217 -1231q-3 -31 2 -31z" />
    <glyph glyph-name="omacron" unicode="&#x14d;" 
d="M178 1311h133l-18 -101h-133zM29 -6q-64 0 -91 35.5t-16 93.5l170 964q23 117 123 117q61 0 88.5 -35t15.5 -102l-169 -965q-16 -108 -121 -108zM33 96q8 0 10 27l170 964q3 19 -4 19q-5 0 -8 -19l-170 -964q-3 -27 2 -27z" />
    <glyph glyph-name="Obreve" unicode="&#x14e;" horiz-adv-x="249" 
d="M289 1487q-58 0 -71.5 26t-2.5 95h76q-5 -26 -4.5 -34.5t10.5 -8.5q3 0 5 0.5t3.5 2t2 3.5t1 5.5t1 7.5t1.5 10.5t2 13.5h78q-11 -71 -30.5 -96t-71.5 -25zM29 -6q-63 0 -90.5 36t-16.5 97l219 1241q20 113 123 113q62 0 91.5 -34.5t19.5 -98.5l-217 -1233
q-11 -61 -41 -91t-88 -30zM39 102q4 0 8 19l219 1243q3 16 -4 16q-5 0 -8 -16l-217 -1231q-3 -31 2 -31z" />
    <glyph glyph-name="obreve" unicode="&#x14f;" 
d="M236 1210q-58 0 -71.5 26t-2.5 95h76q-5 -26 -4.5 -34.5t10.5 -8.5q3 0 5 0.5t3.5 2t2 3.5t1 5.5t1 7.5t1.5 10.5t2 13.5h78q-11 -71 -30.5 -96t-71.5 -25zM29 -6q-64 0 -91 35.5t-16 93.5l170 964q23 117 123 117q61 0 88.5 -35t15.5 -102l-169 -965q-16 -108 -121 -108
zM33 96q8 0 10 27l170 964q3 19 -4 19q-5 0 -8 -19l-170 -964q-3 -27 2 -27z" />
    <glyph glyph-name="Ohungarumlaut" unicode="&#x150;" horiz-adv-x="249" 
d="M252 1618h88l-70 -129h-61zM344 1618h90l-84 -129h-63zM29 -6q-63 0 -90.5 36t-16.5 97l219 1241q20 113 123 113q62 0 91.5 -34.5t19.5 -98.5l-217 -1233q-11 -61 -41 -91t-88 -30zM39 102q4 0 8 19l219 1243q3 16 -4 16q-5 0 -8 -16l-217 -1231q-3 -31 2 -31z" />
    <glyph glyph-name="ohungarumlaut" unicode="&#x151;" 
d="M199 1339h88l-70 -129h-61zM291 1339h90l-84 -129h-64zM29 -6q-64 0 -91 35.5t-16 93.5l170 964q23 117 123 117q61 0 88.5 -35t15.5 -102l-169 -965q-16 -108 -121 -108zM33 96q8 0 10 27l170 964q3 19 -4 19q-5 0 -8 -19l-170 -964q-3 -27 2 -27z" />
    <glyph glyph-name="OE" unicode="&#x152;" horiz-adv-x="292" 
d="M29 39q-18 -45 -64 -45q-31 0 -44.5 23.5t-6.5 64.5l233 1317q15 80 72 80q48 0 57 -47l7 43h159l-20 -121h-47l-96 -545h47l-21 -121h-47l-100 -565h47l-23 -123h-159zM39 102q4 0 8 19l219 1243q3 16 -4 16q-5 0 -8 -16l-219 -1243q-4 -19 4 -19z" />
    <glyph glyph-name="oe" unicode="&#x153;" horiz-adv-x="364" 
d="M268 86q-17 -92 -112 -92q-55 0 -78 33q-23 -33 -70 -33q-55 0 -75 36.5t-11 86.5l172 985q15 102 111 102q53 0 76 -33q26 33 77 33q49 0 72.5 -28t13.5 -84l-94 -545h-125l-75 -430q-2 -21 2 -21q8 0 10 21l74 418h110zM31 96q8 0 10 21l172 968q3 21 -2 21
q-2 0 -2.5 -0.5l-1 -1t-1.5 -2.5t-1.5 -3.5t-1.5 -5.5l-2 -8l-172 -968q-2 -21 2 -21zM240 629h14l80 456q3 21 -2 21q-7 0 -10 -21z" />
    <glyph glyph-name="Racute" unicode="&#x154;" horiz-adv-x="247" 
d="M299 1612h113l-95 -129h-86zM10 0h-110l260 1475h129q56 0 77 -23.5t11 -81.5l-101 -567q-9 -39 -45 -51q34 -12 25 -72l-111 -629q-3 -37 7 -51h-117q-12 12 -4 45l112 633q3 14 -10 14zM254 1380l-100 -575h2q9 0 12 12l96 551q3 12 -6 12h-4z" />
    <glyph glyph-name="racute" unicode="&#x155;" horiz-adv-x="169" 
d="M221 1341h113l-94 -129h-86zM-100 0l213 1198h86l-4 -94l4 20q10 53 22 67.5t45 14.5h8l-32 -186h-25q-26 0 -29 -31l-176 -989h-112z" />
    <glyph glyph-name="uni0156" unicode="&#x156;" horiz-adv-x="247" 
d="M10 0h-110l260 1475h129q56 0 77 -23.5t11 -81.5l-101 -567q-9 -39 -45 -51q34 -12 25 -72l-111 -629q-3 -37 7 -51h-117q-12 12 -4 45l112 633q3 14 -10 14zM254 1380l-100 -575h2q9 0 12 12l96 551q3 12 -6 12h-4zM-51 -106q58 0 61 16q-3 0 -8.5 -1t-9.5 -1
q-44 0 -35 47q4 23 16 31t41 8q31 0 41 -11.5t4 -45.5q-8 -50 -29 -66t-89 -16z" />
    <glyph glyph-name="uni0157" unicode="&#x157;" horiz-adv-x="169" 
d="M-100 0l213 1198h86l-4 -94l4 20q10 53 22 67.5t45 14.5h8l-32 -186h-25q-26 0 -29 -31l-176 -989h-112zM-113 -106q59 0 62 16q-3 0 -9 -1t-10 -1q-43 0 -34 47q4 23 16 31t41 8q31 0 41 -11.5t4 -45.5q-8 -49 -29.5 -65.5t-89.5 -16.5z" />
    <glyph glyph-name="Rcaron" unicode="&#x158;" horiz-adv-x="247" 
d="M242 1483l-31 153h80l4 -59l29 59h77l-84 -153h-75zM10 0h-110l260 1475h129q56 0 77 -23.5t11 -81.5l-101 -567q-9 -39 -45 -51q34 -12 25 -72l-111 -629q-3 -37 7 -51h-117q-12 12 -4 45l112 633q3 14 -10 14zM254 1380l-100 -575h2q9 0 12 12l96 551q3 12 -6 12h-4z
" />
    <glyph glyph-name="rcaron" unicode="&#x159;" horiz-adv-x="169" 
d="M162 1208l-31 154h80l4 -59l29 59h78l-84 -154h-76zM-100 0l213 1198h86l-4 -94l4 20q10 53 22 67.5t45 14.5h8l-32 -186h-25q-26 0 -29 -31l-176 -989h-112z" />
    <glyph glyph-name="Sacute" unicode="&#x15a;" horiz-adv-x="245" 
d="M301 1620h113l-95 -129h-86zM31 -8q-68 0 -95 35t-16 92l103 573h110l-100 -571q-3 -21 2 -21q8 0 10 21l96 551q4 18 -5 31.5t-40 39.5q-31 27 -41 50t-4 61l92 524q15 105 119 105q61 0 91 -33t20 -92l-90 -510h-111l92 516q3 18 -4 18q-5 0 -8 -18l-88 -492
q-2 -21 5 -33t38 -40q35 -32 44 -55t3 -62l-102 -578q-10 -61 -38 -86.5t-83 -25.5z" />
    <glyph glyph-name="sacute" unicode="&#x15b;" horiz-adv-x="239" 
d="M248 1341h112l-94 -129h-86zM23 -6q-60 0 -86.5 31.5t-16.5 89.5l76 426h108l-77 -432q-3 -13 4 -13q5 0 8 13l76 415q4 17 -4.5 28.5t-42.5 39.5q-33 27 -41.5 49t-1.5 70l69 389q17 104 123 104q121 0 102 -119l-69 -397h-107l72 406q3 12 -4 12q-5 0 -8 -12l-70 -392
q-1 -16 6 -25t39 -34t40.5 -48t0.5 -65l-74 -430q-8 -53 -36.5 -79.5t-85.5 -26.5z" />
    <glyph glyph-name="Scircumflex" unicode="&#x15c;" horiz-adv-x="245" 
d="M293 1546l-27 -57h-80l86 153h74l31 -153h-78zM31 -8q-68 0 -95 35t-16 92l103 573h110l-100 -571q-3 -21 2 -21q8 0 10 21l96 551q4 18 -5 31.5t-40 39.5q-31 27 -41 50t-4 61l92 524q15 105 119 105q61 0 91 -33t20 -92l-90 -510h-111l92 516q3 18 -4 18q-5 0 -8 -18
l-88 -492q-2 -21 5 -33t38 -40q35 -32 44 -55t3 -62l-102 -578q-10 -61 -38 -86.5t-83 -25.5z" />
    <glyph glyph-name="scircumflex" unicode="&#x15d;" horiz-adv-x="239" 
d="M238 1266l-27 -58h-80l86 154h74l31 -154h-78zM23 -6q-60 0 -86.5 31.5t-16.5 89.5l76 426h108l-77 -432q-3 -13 4 -13q5 0 8 13l76 415q4 17 -4.5 28.5t-42.5 39.5q-33 27 -41.5 49t-1.5 70l69 389q17 104 123 104q121 0 102 -119l-69 -397h-107l72 406q3 12 -4 12
q-5 0 -8 -12l-70 -392q-1 -16 6 -25t39 -34t40.5 -48t0.5 -65l-74 -430q-8 -53 -36.5 -79.5t-85.5 -26.5z" />
    <glyph glyph-name="uni015E" unicode="&#x15e;" horiz-adv-x="245" 
d="M-8 -174q-57 0 -81 23.5t-22 64.5h95q0 -12 14 -12q13 0 16 12q4 14 -12 14h-41l12 74q-34 13 -47.5 45t-5.5 72l103 573h110l-100 -571q-3 -21 2 -21q8 0 10 21l96 551q4 18 -5 31.5t-40 39.5q-31 27 -41 50t-4 61l92 524q15 105 119 105q61 0 91 -33t20 -92l-90 -510
h-111l92 516q3 18 -4 18q-5 0 -8 -18l-88 -492q-2 -21 5 -33t38 -40q35 -32 44 -55t3 -62l-102 -578q-15 -109 -107 -112v-6q64 -9 53 -82q-12 -78 -106 -78z" />
    <glyph glyph-name="uni015F" unicode="&#x15f;" horiz-adv-x="239" 
d="M-2 -160q-57 0 -80.5 23.5t-21.5 64.5h94q0 -12 14 -12q13 0 16 12q4 15 -12 15h-41l10 57q-72 21 -57 115l76 426h108l-77 -432q-3 -13 4 -13q5 0 8 13l76 415q4 17 -4.5 28.5t-42.5 39.5q-33 27 -41.5 49t-1.5 70l69 389q17 104 123 104q121 0 102 -119l-69 -397h-107
l72 406q3 12 -4 12q-5 0 -8 -12l-70 -392q-1 -16 6 -25t39 -34t40.5 -48t0.5 -65l-74 -430q-15 -90 -84 -102q56 -13 43 -80q-12 -78 -106 -78z" />
    <glyph glyph-name="Scaron" unicode="&#x160;" horiz-adv-x="245" 
d="M244 1491l-31 154h80l4 -60l29 60h77l-84 -154h-75zM31 -8q-68 0 -95 35t-16 92l103 573h110l-100 -571q-3 -21 2 -21q8 0 10 21l96 551q4 18 -5 31.5t-40 39.5q-31 27 -41 50t-4 61l92 524q15 105 119 105q61 0 91 -33t20 -92l-90 -510h-111l92 516q3 18 -4 18
q-5 0 -8 -18l-88 -492q-2 -21 5 -33t38 -40q35 -32 44 -55t3 -62l-102 -578q-10 -61 -38 -86.5t-83 -25.5z" />
    <glyph glyph-name="scaron" unicode="&#x161;" horiz-adv-x="239" 
d="M190 1212l-30 154h80l4 -59l28 59h78l-84 -154h-76zM23 -6q-60 0 -86.5 31.5t-16.5 89.5l76 426h108l-77 -432q-3 -13 4 -13q5 0 8 13l76 415q4 17 -4.5 28.5t-42.5 39.5q-33 27 -41.5 49t-1.5 70l69 389q17 104 123 104q121 0 102 -119l-69 -397h-107l72 406q3 12 -4 12
q-5 0 -8 -12l-70 -392q-1 -16 6 -25t39 -34t40.5 -48t0.5 -65l-74 -430q-8 -53 -36.5 -79.5t-85.5 -26.5z" />
    <glyph glyph-name="uni0162" unicode="&#x162;" horiz-adv-x="190" 
d="M287 1354l-238 -1354h-117l238 1354h-33l21 121h182l-21 -121h-32zM-78 -106q59 0 62 16q-3 0 -9 -1t-10 -1q-44 0 -35 47q4 23 16.5 31t41.5 8q31 0 41 -11.5t4 -45.5q-8 -49 -29.5 -65.5t-89.5 -16.5z" />
    <glyph glyph-name="uni0163" unicode="&#x163;" horiz-adv-x="167" 
d="M59 0h-67q-72 0 -60 74l174 993h-22l25 131q17 0 26 12q2 3 15 33q7 22 24 94h96l-24 -139h26l-24 -131h-25l-164 -922q-4 -18 13 -18h10zM-76 -106q59 0 62 16q-3 0 -9 -1t-10 -1q-44 0 -35 47q4 23 16.5 31t41.5 8q31 0 41 -11.5t4 -45.5q-8 -49 -29.5 -65.5
t-89.5 -16.5z" />
    <glyph glyph-name="Tcaron" unicode="&#x164;" horiz-adv-x="190" 
d="M215 1483l-31 153h80l4 -59l29 59h78l-84 -153h-76zM287 1354l-238 -1354h-117l238 1354h-33l21 121h182l-21 -121h-32z" />
    <glyph glyph-name="tcaron" unicode="&#x165;" horiz-adv-x="167" 
d="M307 1475h35l-76 -250h-12zM59 0h-67q-72 0 -60 74l174 993h-22l25 131q17 0 26 12q2 3 15 33q7 22 24 94h96l-24 -139h26l-24 -131h-25l-164 -922q-4 -18 13 -18h10z" />
    <glyph glyph-name="Tbar" unicode="&#x166;" horiz-adv-x="190" 
d="M168 688l-121 -688h-117l121 688h-22l18 111h25l98 555h-33l21 121h182l-21 -121h-32l-99 -555h25l-18 -111h-27z" />
    <glyph glyph-name="tbar" unicode="&#x167;" horiz-adv-x="167" 
d="M59 0h-67q-72 0 -60 74l86 493h-16l16 95h17l71 405h-22l25 131q17 0 26 12q2 3 15 33q7 22 24 94h96l-24 -139h26l-24 -131h-25l-71 -405h16l-16 -95h-19l-74 -422q-4 -18 13 -18h10z" />
    <glyph glyph-name="Utilde" unicode="&#x168;" horiz-adv-x="249" 
d="M330 1481q-15 0 -39 13t-29 13q-11 0 -14 -26h-60q10 72 27 98.5t45 26.5q18 0 40 -12.5t24 -12.5q9 0 12 21h61q-11 -72 -26.5 -96.5t-40.5 -24.5zM29 -6q-63 0 -90.5 36t-16.5 97l238 1348h112l-235 -1342q-3 -31 2 -31q4 0 8 19l238 1354h112l-239 -1360
q-11 -61 -41 -91t-88 -30z" />
    <glyph glyph-name="utilde" unicode="&#x169;" 
d="M272 1204q-15 0 -38.5 13.5t-28.5 13.5q-12 0 -15 -27h-59q10 72 27 98.5t45 26.5q18 0 39.5 -12t23.5 -12q10 0 13 20h61q-11 -72 -27 -96.5t-41 -24.5zM41 59q-21 -65 -74 -65q-67 0 -53 88l197 1116h108l-190 -1081q-3 -25 2 -25q7 0 10 25l190 1081h111l-211 -1198
h-86z" />
    <glyph glyph-name="Umacron" unicode="&#x16a;" horiz-adv-x="249" 
d="M231 1583h134l-19 -100h-133zM29 -6q-63 0 -90.5 36t-16.5 97l238 1348h112l-235 -1342q-3 -31 2 -31q4 0 8 19l238 1354h112l-239 -1360q-11 -61 -41 -91t-88 -30z" />
    <glyph glyph-name="umacron" unicode="&#x16b;" 
d="M176 1307h133l-18 -101h-133zM41 59q-21 -65 -74 -65q-67 0 -53 88l197 1116h108l-190 -1081q-3 -25 2 -25q7 0 10 25l190 1081h111l-211 -1198h-86z" />
    <glyph glyph-name="Ubreve" unicode="&#x16c;" horiz-adv-x="249" 
d="M287 1481q-58 0 -71.5 26t-2.5 95h76q-5 -26 -4.5 -34.5t10.5 -8.5q3 0 5 0.5t3.5 2t2 3.5t1 5.5t1 7.5t1.5 10.5t2 13.5h78q-11 -71 -30.5 -96t-71.5 -25zM29 -6q-63 0 -90.5 36t-16.5 97l238 1348h112l-235 -1342q-3 -31 2 -31q4 0 8 19l238 1354h112l-239 -1360
q-11 -61 -41 -91t-88 -30z" />
    <glyph glyph-name="ubreve" unicode="&#x16d;" 
d="M233 1204q-57 0 -70.5 25.5t-2.5 95.5h76q-5 -26 -4.5 -34.5t10.5 -8.5q3 0 5 0.5t3.5 2t2 3.5t1 5.5t1 7.5t1.5 10.5t2 13.5h78q-11 -70 -31 -95.5t-72 -25.5zM41 59q-21 -65 -74 -65q-67 0 -53 88l197 1116h108l-190 -1081q-3 -25 2 -25q7 0 10 25l190 1081h111
l-211 -1198h-86z" />
    <glyph glyph-name="Uring" unicode="&#x16e;" horiz-adv-x="249" 
d="M289 1481q-40 0 -61 28.5t-13 67.5q12 70 84 70q41 0 61.5 -26t12.5 -67q-12 -73 -84 -73zM293 1550q14 0 14 15q0 10 -10 10q-14 0 -14 -14q0 -11 10 -11zM29 -6q-63 0 -90.5 36t-16.5 97l238 1348h112l-235 -1342q-3 -31 2 -31q4 0 8 19l238 1354h112l-239 -1360
q-11 -61 -41 -91t-88 -30z" />
    <glyph glyph-name="uring" unicode="&#x16f;" 
d="M238 1204q-40 0 -61 28.5t-13 67.5q12 70 84 70q41 0 61.5 -25.5t12.5 -66.5q-12 -74 -84 -74zM242 1274q14 0 14 14q0 10 -10 10q-15 0 -15 -14q0 -10 11 -10zM41 59q-21 -65 -74 -65q-67 0 -53 88l197 1116h108l-190 -1081q-3 -25 2 -25q7 0 10 25l190 1081h111
l-211 -1198h-86z" />
    <glyph glyph-name="Uhungarumlaut" unicode="&#x170;" horiz-adv-x="249" 
d="M250 1612h88l-70 -129h-61zM342 1612h90l-84 -129h-63zM29 -6q-63 0 -90.5 36t-16.5 97l238 1348h112l-235 -1342q-3 -31 2 -31q4 0 8 19l238 1354h112l-239 -1360q-11 -61 -41 -91t-88 -30z" />
    <glyph glyph-name="uhungarumlaut" unicode="&#x171;" 
d="M195 1335h88l-70 -129h-61zM287 1335h90l-84 -129h-64zM41 59q-21 -65 -74 -65q-67 0 -53 88l197 1116h108l-190 -1081q-3 -25 2 -25q7 0 10 25l190 1081h111l-211 -1198h-86z" />
    <glyph glyph-name="Uogonek" unicode="&#x172;" horiz-adv-x="249" 
d="M27 -145q-42 0 -64.5 24t-17.5 60q3 37 28 65q-68 26 -53 123l238 1348h112l-235 -1342q-3 -31 2 -31q4 0 8 19l238 1354h112l-239 -1360q-13 -77 -58 -103q-31 -26 -46 -40.5t-17.5 -18t-3.5 -8.5q-3 -11 4 -11t10 25h88q-7 -53 -36 -78.5t-70 -25.5z" />
    <glyph glyph-name="uogonek" unicode="&#x173;" 
d="M156 -61q-7 -53 -36.5 -79t-70.5 -26q-42 0 -64.5 24t-17.5 60q1 29 18 51.5t58 53.5l-2 36q-21 -65 -74 -65q-67 0 -53 88l197 1116h108l-190 -1081q-3 -25 2 -25q7 0 10 25l190 1081h111l-211 -1198q-36 -29 -54 -46t-20.5 -20.5t-3.5 -9.5q-3 -10 4 -10q8 0 11 25h88z
" />
    <glyph glyph-name="Wcircumflex" unicode="&#x174;" horiz-adv-x="366" 
d="M352 1540l-26 -57h-80l86 153h74l30 -153h-78zM61 0h-137l228 1475h106l-106 -625l-95 -545l107 545l119 625h106l-98 -625l-80 -545l92 545l111 625h108l-286 -1475h-138l88 590l142 821l-150 -821z" />
    <glyph glyph-name="wcircumflex" unicode="&#x175;" horiz-adv-x="370" 
d="M305 1264l-26 -58h-80l86 154h73l31 -154h-78zM66 0h-140l178 1198h109l-96 -541l-82 -493l92 493l109 541h108l-84 -541l-74 -493l84 493l99 541h110l-248 -1198h-131l68 471l92 559l-104 -559z" />
    <glyph glyph-name="Ycircumflex" unicode="&#x176;" horiz-adv-x="239" 
d="M289 1540l-27 -57h-80l86 153h74l31 -153h-78zM-49 0l78 446l121 1029h108l-25 -181l-104 -645l121 645l37 181h110l-237 -1016l-80 -459h-129z" />
    <glyph glyph-name="ycircumflex" unicode="&#x177;" horiz-adv-x="237" 
d="M240 1264l-27 -58h-80l86 154h74l31 -154h-78zM-129 -137l18 114h15q19 0 25.5 4.5t11.5 18.5v2l161 1196h107l-45 -307l-135 -813l147 813l60 307h112l-262 -1227q-8 -42 -27 -69q-17 -24 -49.5 -31.5t-103.5 -7.5h-35z" />
    <glyph glyph-name="Ydieresis" unicode="&#x178;" horiz-adv-x="239" 
d="M233 1481q-27 0 -36.5 13.5t-3.5 45.5q6 35 17 46t38 11q26 0 35.5 -13.5t3.5 -47.5q-6 -32 -17 -43.5t-37 -11.5zM334 1481q-26 0 -35.5 13.5t-5.5 45.5q6 35 17 46t38 11q26 0 35.5 -13.5t3.5 -47.5q-6 -33 -16.5 -44t-36.5 -11zM-49 0l78 446l121 1029h108l-25 -181
l-104 -645l121 645l37 181h110l-237 -1016l-80 -459h-129z" />
    <glyph glyph-name="Zacute" unicode="&#x179;" horiz-adv-x="174" 
d="M266 1612h113l-94 -129h-86zM-102 0l20 111l275 1239h-56l21 125h166l-19 -107l-274 -1245h55l-23 -123h-165z" />
    <glyph glyph-name="zacute" unicode="&#x17a;" horiz-adv-x="157" 
d="M211 1335h113l-95 -129h-86zM-100 0l20 113l207 966h-39l23 119h149l-20 -106l-205 -973h37l-23 -119h-149z" />
    <glyph glyph-name="Zdotaccent" unicode="&#x17b;" horiz-adv-x="174" 
d="M250 1481q-32 0 -43.5 15t-5.5 52t20.5 49.5t46.5 12.5q33 0 44.5 -14.5t4.5 -55.5q-7 -36 -21.5 -47.5t-45.5 -11.5zM-102 0l20 111l275 1239h-56l21 125h166l-19 -107l-274 -1245h55l-23 -123h-165z" />
    <glyph glyph-name="zdotaccent" unicode="&#x17c;" horiz-adv-x="157" 
d="M197 1204q-32 0 -44 15.5t-6 52.5t21 49t47 12q33 0 44.5 -14t4.5 -55q-7 -37 -21.5 -48.5t-45.5 -11.5zM-100 0l20 113l207 966h-39l23 119h149l-20 -106l-205 -973h37l-23 -119h-149z" />
    <glyph glyph-name="Zcaron" unicode="&#x17d;" horiz-adv-x="174" 
d="M209 1483l-31 153h80l4 -59l29 59h78l-84 -153h-76zM-102 0l20 111l275 1239h-56l21 125h166l-19 -107l-274 -1245h55l-23 -123h-165z" />
    <glyph glyph-name="zcaron" unicode="&#x17e;" horiz-adv-x="157" 
d="M156 1206l-31 154h80l4 -60l29 60h77l-84 -154h-75zM-100 0l20 113l207 966h-39l23 119h149l-20 -106l-205 -973h37l-23 -119h-149z" />
    <glyph glyph-name="uni0192" unicode="&#x192;" horiz-adv-x="163" 
d="M23 -55q-8 -46 -30.5 -65t-80.5 -19h-43l22 125h9q13 0 16 14l152 856h-21l23 131h20l70 387q11 60 31 80.5t71 20.5h53l-20 -125h-8q-16 0 -19 -15l-61 -348h22l-22 -131h-23z" />
    <glyph glyph-name="Aringacute" unicode="&#x1fa;" horiz-adv-x="239" 
d="M315 1706h113l-94 -129h-86zM2 0h-108l301 1468q0 23 2 33q12 70 84 70q41 0 61 -25t12 -67l-6 -25l-211 -1454h-110l24 152h-20zM274 1475q15 0 15 14q0 10 -10 10q-15 0 -15 -14q0 -10 10 -10zM55 274h17l43 261l135 786l-144 -786z" />
    <glyph glyph-name="aringacute" unicode="&#x1fb;" horiz-adv-x="256" 
d="M285 1511h112l-94 -129h-86zM242 1210q-40 0 -61 29t-13 68q12 69 84 69q41 0 61.5 -25.5t12.5 -66.5q-12 -74 -84 -74zM246 1280q14 0 14 14q0 11 -10 11q-14 0 -14 -15q0 -10 10 -10zM100 0q-32 0 -47 12t-14 37q-24 -55 -72 -55q-65 0 -53 78l84 485q6 33 12 46t21 24
q13 12 67 28q30 11 36 15t7 14l72 401q7 21 -2 21q-5 0 -8 -12l-74 -418h-106l73 422q21 106 125 106q122 0 101 -121l-172 -966q-3 -17 10 -17h6l-19 -100h-47zM33 92q5 0 8 14l84 482q-4 -4 -10 -6q-2 0 -6 -15l-80 -458q-3 -17 4 -17z" />
    <glyph glyph-name="AEacute" unicode="&#x1fc;" horiz-adv-x="301" 
d="M346 1614h113l-94 -129h-86zM59 150h-26l-31 -150h-108l339 1475h218l-21 -121h-47l-94 -545h45l-21 -121h-47l-100 -565h47l-23 -123h-157zM55 252h23l37 215l166 903l-181 -903z" />
    <glyph glyph-name="aeacute" unicode="&#x1fd;" horiz-adv-x="364" 
d="M307 1339h113l-94 -129h-86zM272 109q-10 -63 -40.5 -89t-84.5 -26q-90 0 -102 61q-23 -61 -72 -61q-71 0 -57 90l80 453q6 33 12 45.5t21 23.5q32 18 65 29q31 11 37.5 15t7.5 14l74 421q3 21 -2 21q-2 0 -2.5 -0.5l-1 -1t-1.5 -2.5t-1.5 -3.5t-1.5 -5.5l-2 -8l-76 -430
h-107l80 455q20 94 113 94q47 0 72 -28q25 28 73 28q46 0 72 -27.5t16 -84.5l-90 -517h-123l-81 -458q-2 -21 2 -21q8 0 10 21l80 446h110zM246 662h14l74 423q3 21 -2 21q-7 0 -10 -21zM33 96q8 0 10 21l78 450l-8 -8q-5 -5 -7 -12l-75 -428q-3 -23 2 -23z" />
    <glyph glyph-name="Oslashacute" unicode="&#x1fe;" horiz-adv-x="249" 
d="M326 1683h112l-94 -129h-86zM23 -6l-27 -84h-102l38 113l2 8q-24 27 -14 84l223 1261q20 105 129 105h7l24 65h100l-36 -106q20 -36 8 -97l-221 -1247q-15 -102 -125 -102h-6zM39 102q4 0 8 19l219 1243q3 16 -4 16q-5 0 -8 -16l-219 -1243q-4 -19 4 -19z" />
    <glyph glyph-name="oslashacute" unicode="&#x1ff;" 
d="M279 1417h112l-94 -129h-86zM-63 -78l20 90q-48 34 -35 111l170 964q16 100 98 115l17 76h106l-18 -98q39 -36 24 -113l-169 -965q-16 -89 -89 -104l-14 -76h-110zM33 96q8 0 10 27l170 964q3 19 -4 19q-5 0 -8 -19l-170 -964q-3 -27 2 -27z" />
    <glyph glyph-name="uni0218" unicode="&#x218;" horiz-adv-x="245" 
d="M31 -8q-68 0 -95 35t-16 92l103 573h110l-100 -571q-3 -21 2 -21q8 0 10 21l96 551q4 18 -5 31.5t-40 39.5q-31 27 -41 50t-4 61l92 524q15 105 119 105q61 0 91 -33t20 -92l-90 -510h-111l92 516q3 18 -4 18q-5 0 -8 -18l-88 -492q-2 -21 5 -33t38 -40q35 -32 44 -55
t3 -62l-102 -578q-10 -61 -38 -86.5t-83 -25.5zM-53 -117q58 0 61 17q-3 0 -8.5 -1t-9.5 -1q-44 0 -35 47q4 23 16 31t41 8q30 0 40.5 -12t4.5 -46q-8 -50 -29 -66t-89 -16z" />
    <glyph glyph-name="uni0219" unicode="&#x219;" horiz-adv-x="239" 
d="M23 -6q-60 0 -86.5 31.5t-16.5 89.5l76 426h108l-77 -432q-3 -13 4 -13q5 0 8 13l76 415q4 17 -4.5 28.5t-42.5 39.5q-33 27 -41.5 49t-1.5 70l69 389q17 104 123 104q121 0 102 -119l-69 -397h-107l72 406q3 12 -4 12q-5 0 -8 -12l-70 -392q-1 -16 6 -25t39 -34
t40.5 -48t0.5 -65l-74 -430q-8 -53 -36.5 -79.5t-85.5 -26.5zM-55 -113q58 0 61 17q-3 0 -8.5 -1t-9.5 -1q-44 0 -35 47q4 23 16 31t41 8q30 0 40.5 -12t4.5 -46q-8 -50 -29 -66t-89 -16z" />
    <glyph glyph-name="uni0237" unicode="&#x237;" horiz-adv-x="124" 
d="M-150 -12h35q12 0 15 12l211 1198h112l-219 -1241q-8 -44 -26 -61t-60 -17h-86z" />
    <glyph glyph-name="uni0245" unicode="&#x245;" horiz-adv-x="239" 
d="M2 0h-108l303 1475h153l-213 -1475h-110l88 535l131 774l-140 -774z" />
    <glyph glyph-name="circumflex" unicode="&#x2c6;" horiz-adv-x="172" 
d="M207 1284l-27 -57h-80l86 153h74l31 -153h-78z" />
    <glyph glyph-name="caron" unicode="&#x2c7;" horiz-adv-x="178" 
d="M162 1227l-31 153h80l4 -59l29 59h78l-84 -153h-76z" />
    <glyph glyph-name="breve" unicode="&#x2d8;" horiz-adv-x="172" 
d="M205 1225q-58 0 -71.5 26t-2.5 95h76q-5 -26 -4.5 -34.5t10.5 -8.5q3 0 5 0.5t3.5 2t2 3.5t1 5.5t1 7.5t1.5 10.5t2 13.5h78q-11 -71 -30.5 -96t-71.5 -25z" />
    <glyph glyph-name="dotaccent" unicode="&#x2d9;" horiz-adv-x="129" 
d="M178 1225q-32 0 -43.5 15t-5.5 52t21 49.5t47 12.5q33 0 44.5 -14.5t4.5 -55.5q-7 -36 -22 -47.5t-46 -11.5z" />
    <glyph glyph-name="ring" unicode="&#x2da;" horiz-adv-x="174" 
d="M209 1225q-40 0 -61 28.5t-13 67.5q12 70 84 70q41 0 61.5 -26t12.5 -67q-12 -73 -84 -73zM213 1294q14 0 14 15q0 10 -10 10q-14 0 -14 -14q0 -11 10 -11z" />
    <glyph glyph-name="ogonek" unicode="&#x2db;" horiz-adv-x="190" 
d="M-33 -166q-42 0 -64.5 24t-17.5 60q1 34 23 59.5t80 63.5l61 -41q-36 -29 -54 -46t-20.5 -20.5t-3.5 -9.5q-3 -10 4 -10q8 0 11 25h88q-7 -53 -36.5 -79t-70.5 -26z" />
    <glyph glyph-name="tilde" unicode="&#x2dc;" horiz-adv-x="221" 
d="M268 1227q-15 0 -38.5 13t-28.5 13q-12 0 -15 -26h-59q10 72 27 98.5t45 26.5q18 0 39.5 -12.5t23.5 -12.5q9 0 12 21h62q-11 -72 -27 -96.5t-41 -24.5z" />
    <glyph glyph-name="hungarumlaut" unicode="&#x2dd;" horiz-adv-x="198" 
d="M150 1356h88l-70 -129h-62zM242 1356h90l-84 -129h-64z" />
    <glyph glyph-name="uni03BC" unicode="&#x3bc;" horiz-adv-x="241" 
d="M27 -8q-19 0 -15 55l-63 -362h-105l269 1513h106l-190 -1077q-3 -17 2 -17q4 0 8 11l192 1083h111l-213 -1198h-68l-4 49q-11 -57 -30 -57z" />
    <glyph glyph-name="pi" unicode="&#x3c0;" horiz-adv-x="315" 
d="M299 1368h-12l-244 -1368h-115l244 1368h-35l19 107h311l-18 -107h-37l-222 -1241q-1 -6 2 -10t9 -4h26l-20 -113h-70q-42 0 -57 20t-8 70z" />
    <glyph glyph-name="uni0E3F" unicode="&#xe3f;" horiz-adv-x="342" 
d="M102 0l-16 -94h-80l17 94h-123l260 1475h123l12 67h80l-13 -67h35q87 0 72 -97l-92 -526q-5 -33 -12 -50.5t-23 -27.5q22 -12 12 -67l-106 -609q-17 -98 -113 -98h-33zM168 819l98 565h-12l-98 -565h12zM346 1384l-98 -565h2q8 0 12 15l94 536q3 14 -6 14h-4zM39 92
l111 631h-13l-110 -631h12zM229 723l-110 -631h6q7 0 10 12l109 607q3 12 -6 12h-9z" />
    <glyph glyph-name="Wgrave" unicode="&#x1e80;" horiz-adv-x="366" 
d="M252 1612h113l18 -129h-78zM61 0h-137l228 1475h106l-106 -625l-95 -545l107 545l119 625h106l-98 -625l-80 -545l92 545l111 625h108l-286 -1475h-138l88 590l142 821l-150 -821z" />
    <glyph glyph-name="wgrave" unicode="&#x1e81;" horiz-adv-x="370" 
d="M203 1335h112l19 -129h-78zM66 0h-140l178 1198h109l-96 -541l-82 -493l92 493l109 541h108l-84 -541l-74 -493l84 493l99 541h110l-248 -1198h-131l68 471l92 559l-104 -559z" />
    <glyph glyph-name="Wacute" unicode="&#x1e82;" horiz-adv-x="366" 
d="M360 1612h113l-94 -129h-86zM61 0h-137l228 1475h106l-106 -625l-95 -545l107 545l119 625h106l-98 -625l-80 -545l92 545l111 625h108l-286 -1475h-138l88 590l142 821l-150 -821z" />
    <glyph glyph-name="wacute" unicode="&#x1e83;" horiz-adv-x="370" 
d="M311 1335h113l-94 -129h-86zM66 0h-140l178 1198h109l-96 -541l-82 -493l92 493l109 541h108l-84 -541l-74 -493l84 493l99 541h110l-248 -1198h-131l68 471l92 559l-104 -559z" />
    <glyph glyph-name="Wdieresis" unicode="&#x1e84;" horiz-adv-x="366" 
d="M297 1481q-27 0 -37 13.5t-4 45.5q6 35 17 46t38 11q26 0 35.5 -13.5t3.5 -47.5q-6 -33 -16.5 -44t-36.5 -11zM397 1481q-26 0 -35.5 13.5t-5.5 45.5q6 34 17.5 45.5t38.5 11.5q26 0 35.5 -13.5t3.5 -47.5q-6 -32 -17 -43.5t-37 -11.5zM61 0h-137l228 1475h106l-106 -625
l-95 -545l107 545l119 625h106l-98 -625l-80 -545l92 545l111 625h108l-286 -1475h-138l88 590l142 821l-150 -821z" />
    <glyph glyph-name="wdieresis" unicode="&#x1e85;" horiz-adv-x="370" 
d="M248 1204q-52 0 -41 60q6 35 17 46t38 11q26 0 35.5 -13.5t3.5 -47.5q-6 -33 -16.5 -44.5t-36.5 -11.5zM348 1204q-26 0 -35.5 14t-5.5 46q6 35 17 46t38 11q26 0 35.5 -13.5t3.5 -47.5q-6 -33 -16.5 -44.5t-36.5 -11.5zM66 0h-140l178 1198h109l-96 -541l-82 -493
l92 493l109 541h108l-84 -541l-74 -493l84 493l99 541h110l-248 -1198h-131l68 471l92 559l-104 -559z" />
    <glyph glyph-name="Ygrave" unicode="&#x1ef2;" horiz-adv-x="239" 
d="M188 1612h113l18 -129h-77zM-49 0l78 446l121 1029h108l-25 -181l-104 -645l121 645l37 181h110l-237 -1016l-80 -459h-129z" />
    <glyph glyph-name="ygrave" unicode="&#x1ef3;" horiz-adv-x="237" 
d="M137 1335h113l18 -129h-78zM-129 -137l18 114h15q19 0 25.5 4.5t11.5 18.5v2l161 1196h107l-45 -307l-135 -813l147 813l60 307h112l-262 -1227q-8 -42 -27 -69q-17 -24 -49.5 -31.5t-103.5 -7.5h-35z" />
    <glyph glyph-name="figuredash" unicode="&#x2012;" horiz-adv-x="315" 
d="M12 653h310l-21 -110h-309z" />
    <glyph glyph-name="endash" unicode="&#x2013;" horiz-adv-x="172" 
d="M12 653h166l-20 -110h-166z" />
    <glyph glyph-name="emdash" unicode="&#x2014;" horiz-adv-x="233" 
d="M12 653h228l-21 -110h-227z" />
    <glyph glyph-name="uni2015" unicode="&#x2015;" horiz-adv-x="212" 
d="M12 653h207l-20 -110h-207z" />
    <glyph glyph-name="uni2016" unicode="&#x2016;" horiz-adv-x="251" 
d="M172 1542h115l-281 -1591h-115zM299 1542h113l-281 -1591h-113z" />
    <glyph glyph-name="underscoredbl" unicode="&#x2017;" horiz-adv-x="290" 
d="M-88 82h283l-15 -88h-282zM-104 -16h282l-14 -86h-283z" />
    <glyph glyph-name="quoteleft" unicode="&#x2018;" horiz-adv-x="135" 
d="M186 1217q-39 0 -51 21.5t-2 80.5q13 82 51.5 122t100.5 38l-11 -56q-48 2 -59 -39h6q53 0 35 -84q-7 -47 -22.5 -65t-47.5 -18z" />
    <glyph glyph-name="quoteright" unicode="&#x2019;" horiz-adv-x="135" 
d="M268 1378q-28 -160 -149 -157l8 53q25 0 41 12t18 27h-6q-25 0 -33.5 18.5t-1.5 65.5q8 48 24 66t52 18q40 0 49 -21.5t-2 -81.5z" />
    <glyph glyph-name="quotesinglbase" unicode="&#x201a;" horiz-adv-x="135" 
d="M35 59q-14 -79 -52.5 -120t-97.5 -37l9 53q49 0 59 39h-6q-53 0 -35 84q8 48 24 66t52 18q40 0 49 -21.5t-2 -81.5z" />
    <glyph glyph-name="uni201B" unicode="&#x201b;" horiz-adv-x="135" 
d="M240 1221q-65 -2 -88.5 38.5t-6.5 126.5q11 59 24 77t52 18q37 0 49 -20t2 -72q-7 -47 -21.5 -61.5t-41.5 -14.5h-8q0 -39 47 -39z" />
    <glyph glyph-name="quotedblleft" unicode="&#x201c;" horiz-adv-x="268" 
d="M186 1217q-39 0 -51 21.5t-2 80.5q13 82 51.5 122t100.5 38l-11 -56q-48 2 -59 -39h6q53 0 35 -84q-7 -47 -22.5 -65t-47.5 -18zM319 1217q-39 0 -51 21.5t-2 80.5q13 82 51.5 122t100.5 38l-10 -56q-49 3 -60 -39h6q53 0 35 -84q-7 -47 -22.5 -65t-47.5 -18z" />
    <glyph glyph-name="quotedblright" unicode="&#x201d;" horiz-adv-x="268" 
d="M268 1378q-28 -160 -149 -157l8 53q25 0 41 12t18 27h-6q-25 0 -33.5 18.5t-1.5 65.5q8 48 24 66t52 18q40 0 49 -21.5t-2 -81.5zM401 1378q-28 -160 -149 -157l8 53q25 0 41 12t18 27h-6q-24 0 -32.5 18t-1.5 66q8 48 23.5 66t51.5 18q40 0 49 -21.5t-2 -81.5z" />
    <glyph glyph-name="quotedblbase" unicode="&#x201e;" horiz-adv-x="268" 
d="M35 59q-14 -79 -52.5 -120t-97.5 -37l9 53q49 0 59 39h-6q-53 0 -35 84q8 48 24 66t52 18q40 0 49 -21.5t-2 -81.5zM168 59q-14 -79 -52.5 -120t-97.5 -37l9 53q26 0 41.5 10.5t17.5 28.5h-6q-25 0 -33.5 18.5t-1.5 65.5q8 48 24 66t52 18q40 0 49 -21.5t-2 -81.5z" />
    <glyph glyph-name="uni201F" unicode="&#x201f;" horiz-adv-x="270" 
d="M240 1221q-65 -2 -88.5 38.5t-6.5 126.5q11 59 24 77t52 18q37 0 49 -20t2 -72q-7 -47 -21.5 -61.5t-41.5 -14.5h-8q0 -39 47 -39zM375 1221q-65 -2 -88 38.5t-6 126.5q11 59 23.5 77t51.5 18q37 0 49.5 -20t2.5 -72q-7 -47 -22 -61.5t-42 -14.5h-8q0 -39 47 -39z" />
    <glyph glyph-name="dagger" unicode="&#x2020;" horiz-adv-x="301" 
d="M270 899l-176 -993h-133l176 993h-80l23 127h80l90 516h133l-90 -516h80l-23 -127h-80z" />
    <glyph glyph-name="daggerdbl" unicode="&#x2021;" horiz-adv-x="301" 
d="M199 500l-105 -594h-133l105 594h-80l24 129h78l49 270h-80l23 127h80l90 516h133l-90 -516h80l-23 -127h-80l-49 -270h82l-24 -129h-80z" />
    <glyph glyph-name="bullet" unicode="&#x2022;" horiz-adv-x="198" 
d="M88 485q-102 0 -78 121q11 53 34.5 76t70.5 23q54 0 72.5 -26.5t7.5 -86.5q-10 -59 -34.5 -83t-72.5 -24z" />
    <glyph glyph-name="ellipsis" unicode="&#x2026;" horiz-adv-x="403" 
d="M-41 -6q-35 0 -45.5 21t0.5 85q10 59 26 78t52 19q37 0 47 -20t0 -83t-26 -81.5t-54 -18.5zM94 -6q-35 0 -45.5 21t0.5 85q10 58 27 77.5t51 19.5q37 0 47 -20t0 -83t-26 -81.5t-54 -18.5zM229 -6q-35 0 -45.5 21t0.5 85q10 58 27 77.5t51 19.5q37 0 47 -20t0 -83
t-26 -81.5t-54 -18.5z" />
    <glyph glyph-name="perthousand" unicode="&#x2030;" horiz-adv-x="497" 
d="M147 905q-39 0 -58.5 23t-12.5 65l74 420q12 70 79 70q36 0 59 -23t13 -67l-74 -406q-15 -82 -80 -82zM401 1475h84l-508 -1475h-83zM150 975q3 0 6 10l71 408q2 8 3 12.5t0.5 6.5t-1.5 2.5t-3 0.5h-1q-3 0 -6 -10l-72 -408q-3 -22 3 -22zM156 -8q-39 0 -58 25t-12 67
l76 434q13 72 80 72q35 0 55.5 -23t13.5 -67l-75 -437q-5 -31 -26.5 -51t-53.5 -20zM319 -8q-39 0 -57.5 25t-11.5 67l76 434q13 72 80 72q35 0 55.5 -23t13.5 -67l-76 -437q-5 -31 -26.5 -51t-53.5 -20zM160 61q2 0 6 11l76 428q2 8 3 12.5t0.5 6.5t-1.5 2.5t-3 0.5h-1
q-4 0 -7 -10l-75 -428q-3 -23 2 -23zM324 61q2 0 6 11l76 428q3 11 3 16t-1 5.5t-5 0.5q-3 0 -6 -10l-75 -428q-3 -23 2 -23z" />
    <glyph glyph-name="uni2032" unicode="&#x2032;" horiz-adv-x="163" 
d="M86 1077l113 398h118l-139 -398h-92z" />
    <glyph glyph-name="uni2033" unicode="&#x2033;" horiz-adv-x="286" 
d="M86 1077l113 398h118l-139 -398h-92zM205 1077l117 398h118l-143 -398h-92z" />
    <glyph glyph-name="uni2034" unicode="&#x2034;" horiz-adv-x="337" 
d="M80 969q0 18 20 166q6 42 17 106t12 72l29 162h104l-29 -162l-34 -178q-16 -85 -37 -166h-82zM193 969q0 18 20 166q6 42 17 106t12 72l28 162h105l-29 -162l-35 -178q-16 -85 -37 -166h-81zM305 969q0 11 21 166q6 43 17 110t11 68l29 162h104l-28 -162l-35 -178
q-16 -85 -37 -166h-82z" />
    <glyph glyph-name="guilsinglleft" unicode="&#x2039;" horiz-adv-x="196" 
d="M59 451l-55 172v2l119 178h110l-124 -185l59 -167h-109z" />
    <glyph glyph-name="guilsinglright" unicode="&#x203a;" horiz-adv-x="200" 
d="M-29 451l129 182l-53 170h105l53 -178v-2l-117 -172h-117z" />
    <glyph glyph-name="exclamdbl" unicode="&#x203c;" horiz-adv-x="264" 
d="M-51 176q0 96 20 209l191 1090h121l-191 -1090q-26 -145 -53 -209q-14 6 -51 6q-29 0 -37 -6zM80 176q0 96 20 209l191 1090h121l-191 -1090q-26 -145 -53 -209q-14 6 -51 6q-29 0 -37 -6zM-35 -6q-38 0 -49.5 17.5t-1.5 78.5q8 47 23.5 64.5t50.5 17.5q37 0 48 -19.5
t1 -72.5q-7 -49 -23.5 -67.5t-48.5 -18.5zM96 -6q-38 0 -49.5 17.5t-1.5 78.5q8 47 23.5 64.5t50.5 17.5q37 0 48 -19.5t1 -72.5q-7 -49 -23.5 -67.5t-48.5 -18.5z" />
    <glyph glyph-name="uni203D" unicode="&#x203d;" horiz-adv-x="342" 
d="M141 178q-10 6 -43 6q-37 0 -45 -6q3 10 6 41q28 165 29 170l172 985q-9 -9 -18 -43l-99 -557h-104l100 565q12 68 49 105t117 37q88 0 131.5 -42.5t26.5 -129.5l-162 -914q-9 -57 -78 -92q-66 -34 -73 -72zM184 387q14 14 17 29l159 903q4 34 -4 47zM72 -6
q-38 0 -50 17.5t-2 78.5q8 47 23.5 64.5t50.5 17.5q37 0 48 -19.5t1 -72.5q-7 -50 -23 -68t-48 -18z" />
    <glyph glyph-name="fraction" unicode="&#x2044;" horiz-adv-x="305" 
d="M184 760l178 713l101 -11l-270 -704zM-109 20l281 709l8 -2l-190 -727z" />
    <glyph glyph-name="uni2070" unicode="&#x2070;" horiz-adv-x="159" 
d="M162 1030q-35 0 -56 21t-14 57l109 604q14 70 78 70q37 0 56 -21t13 -59l-108 -606q-12 -66 -78 -66zM166 1094q4 0 8 18l105 598q3 10 -5 10q-4 0 -6 -10l-104 -596q-7 -20 2 -20z" />
    <glyph glyph-name="uni2074" unicode="&#x2074;" horiz-adv-x="165" 
d="M244 1169l-23 -129h-63l22 129h-78l11 60l163 553h74l-94 -545h20l-10 -68h-22zM176 1237h17l10 57l82 369l-90 -367z" />
    <glyph glyph-name="uni2075" unicode="&#x2075;" horiz-adv-x="159" 
d="M162 1034q-37 0 -55.5 22.5t-12.5 55.5l41 242h70l-41 -238q-4 -18 2 -18q4 0 8 18l55 316q3 18 0 18q-4 -2 -6 -8l-20 -41l-60 8l84 373h135l-6 -39q-6 -36 -19.5 -45.5t-55.5 -9.5h-7l-57 -246q20 56 33 74t33 18q38 0 26 -51l-69 -387q-9 -62 -78 -62z" />
    <glyph glyph-name="uni2076" unicode="&#x2076;" horiz-adv-x="159" 
d="M240 1096q-11 -62 -76 -62q-36 0 -56.5 19.5t-13.5 60.5l105 604q10 68 80 68q39 0 56.5 -20.5t12.5 -51.5l-35 -205h-69l32 193q2 8 3 12.5t0.5 6.5t-1.5 2.5t-3 0.5h-1q-2 0 -8 -22l-47 -270q12 45 45 45q47 0 35 -52zM166 1098q4 0 8 18l53 297q0 8 -4 8q-5 0 -8 -8
l-51 -295q-7 -20 2 -20z" />
    <glyph glyph-name="uni2077" unicode="&#x2077;" horiz-adv-x="137" 
d="M100 1040q21 97 62 279q41 184 102 379h-69l14 84h137l-12 -72q-45 -166 -49 -184q-34 -131 -103 -486h-82z" />
    <glyph glyph-name="uni2078" unicode="&#x2078;" horiz-adv-x="155" 
d="M164 1034q-41 0 -58.5 20.5t-9.5 59.5l49 283q3 31 33 41q-19 14 -16 49l41 237q12 62 71 62q37 0 57.5 -19.5t14.5 -56.5l-41 -229q-3 -32 -33 -45q26 -13 17 -47l-51 -293q-9 -62 -74 -62zM233 1464q6 0 9 21l37 217q3 11 3 16t-1 5.5t-5 0.5q-2 0 -8 -22l-37 -217
q-2 -21 2 -21zM168 1098q4 0 8 18l49 281q3 10 -4 10q-3 0 -6 -10l-49 -279q-3 -20 2 -20z" />
    <glyph glyph-name="uni2079" unicode="&#x2079;" horiz-adv-x="157" 
d="M164 1034q-36 0 -56.5 19.5t-13.5 60.5l35 203h70l-35 -199q-7 -20 2 -20q4 0 8 18l49 279q-12 -45 -43 -45q-23 0 -32.5 13t-4.5 34l58 325q10 64 78 64q39 0 56.5 -20.5t12.5 -51.5l-108 -618q-11 -62 -76 -62zM221 1405q4 0 4 6l51 291q2 8 3 12.5t0.5 6.5t-1.5 2.5
t-3 0.5h-1q-2 0 -8 -22l-47 -277q-3 -20 2 -20z" />
    <glyph glyph-name="uni207A" unicode="&#x207a;" horiz-adv-x="141" 
d="M244 1380l-8 -43h-66l8 43h-39l13 68h36l9 43h65l-8 -43h35l-13 -68h-32z" />
    <glyph glyph-name="uni207B" unicode="&#x207b;" horiz-adv-x="141" 
d="M152 1448h137l-13 -70h-137z" />
    <glyph glyph-name="uni207C" unicode="&#x207c;" horiz-adv-x="133" 
d="M156 1462h129l-11 -61h-129zM143 1393h129l-10 -62h-129z" />
    <glyph glyph-name="uni207D" unicode="&#x207d;" horiz-adv-x="98" 
d="M164 977q-49 0 -68 15.5t-12 56.5l123 698q7 40 29.5 54t74.5 14l-12 -72q-14 0 -19.5 -5t-9.5 -22l-114 -649q-2 -9 1 -12.5t19 -3.5z" />
    <glyph glyph-name="uni207E" unicode="&#x207e;" horiz-adv-x="96" 
d="M80 1053q23 0 26 16l117 662q2 11 -0.5 12.5t-19.5 1.5l12 72q51 0 69.5 -16t8.5 -66l-121 -682q-7 -46 -28 -60t-76 -14z" />
    <glyph glyph-name="uni2080" unicode="&#x2080;" horiz-adv-x="157" 
d="M-23 -6q-35 0 -55.5 21t-13.5 57l108 604q13 69 78 69q38 0 57 -20.5t13 -58.5l-109 -607q-12 -65 -78 -65zM-18 57q4 0 8 19l104 598q2 10 -4 10q-4 0 -6 -10l-104 -596q-7 -21 2 -21z" />
    <glyph glyph-name="uni2081" unicode="&#x2081;" horiz-adv-x="137" 
d="M-104 0l12 70h31l98 551h-27l10 59q33 2 48 61h61l-119 -671h35l-12 -70h-137z" />
    <glyph glyph-name="uni2082" unicode="&#x2082;" horiz-adv-x="157" 
d="M-82 115q15 84 78 180q1 1 10.5 16.5t11 18t8.5 15.5t9.5 18.5t7 16.5t6.5 20.5t4 19.5l41 242q2 8 3 12.5t0.5 6.5t-1.5 2.5t-3 0.5h-1q-2 0 -8 -22l-47 -269h-70l51 283q13 69 78 69q42 0 59 -19t11 -60l-43 -244q-12 -74 -68 -152q-54 -86 -65 -155l-6 -37h77l-14 -78
h-149z" />
    <glyph glyph-name="uni2083" unicode="&#x2083;" horiz-adv-x="157" 
d="M-16 -6q-87 0 -72 82l37 211h69l-36 -209q-7 -21 2 -21q4 0 8 19l47 262q3 10 -10 10h-29l14 74h27q12 0 12 8l41 232q2 8 3 12.5t0.5 6.5t-1.5 2.5t-3 0.5h-1q-2 0 -8 -22l-33 -195h-69l34 205q11 73 78 73q84 0 72 -77l-43 -242q-3 -27 -29 -37q18 -8 15 -39l-50 -295
q-10 -61 -75 -61z" />
    <glyph glyph-name="uni2084" unicode="&#x2084;" horiz-adv-x="165" 
d="M61 129l-22 -129h-64l23 129h-78l10 59l164 553h74l-94 -544h20l-10 -68h-23zM-6 197h16l10 57l82 369l-90 -367z" />
    <glyph glyph-name="uni2085" unicode="&#x2085;" horiz-adv-x="157" 
d="M-23 -6q-37 0 -55 22.5t-12 55.5l41 241h69l-40 -237q-4 -19 2 -19q4 0 8 19l55 315q3 19 0 19q-4 -3 -6 -9l-21 -41l-59 9l84 372h135l-6 -39q-6 -36 -20 -45.5t-56 -9.5h-6l-57 -246q21 57 33 75t32 18q39 0 27 -52l-70 -387q-9 -61 -78 -61z" />
    <glyph glyph-name="uni2086" unicode="&#x2086;" horiz-adv-x="157" 
d="M55 55q-11 -61 -75 -61q-36 0 -56.5 19.5t-13.5 60.5l104 604q10 67 80 67q39 0 57 -20t13 -51l-35 -205h-70l33 193q2 8 3 12.5t0.5 6.5t-1.5 2.5t-3 0.5h-1q-2 0 -8 -22l-47 -271q12 45 45 45q47 0 35 -51zM-18 57q4 0 8 19l53 297q0 8 -4 8q-5 0 -8 -8l-51 -295
q-7 -21 2 -21z" />
    <glyph glyph-name="uni2087" unicode="&#x2087;" horiz-adv-x="137" 
d="M-84 0q48 221 61 279q38 169 103 378h-70l15 84h137l-12 -71q-49 -182 -50 -185q-31 -118 -102 -485h-82z" />
    <glyph glyph-name="uni2088" unicode="&#x2088;" horiz-adv-x="153" 
d="M-20 -6q-41 0 -58.5 20.5t-9.5 59.5l49 282q3 31 33 41q-20 14 -17 49l41 238q12 61 72 61q37 0 57.5 -19t14.5 -56l-41 -230q-3 -32 -33 -45q25 -13 16 -47l-51 -293q-9 -61 -73 -61zM49 424q5 0 8 20l37 218q2 8 3 12.5t0.5 6.5t-1.5 2.5t-3 0.5h-1q-2 0 -8 -22
l-37 -218q-2 -20 2 -20zM-16 57q4 0 8 19l49 280q3 11 -4 11q-3 0 -6 -11l-49 -278q-3 -21 2 -21z" />
    <glyph glyph-name="uni2089" unicode="&#x2089;" horiz-adv-x="157" 
d="M-20 -6q-36 0 -56.5 19.5t-13.5 60.5l35 202h69l-34 -198q-7 -21 2 -21q4 0 8 19l49 278q-12 -45 -43 -45q-23 0 -32.5 13t-4.5 34l57 326q10 63 78 63q39 0 57 -20t13 -51l-109 -619q-11 -61 -75 -61zM37 365q4 0 4 6l51 291q2 8 3 12.5t0.5 6.5t-1.5 2.5t-3 0.5h-1
q-2 0 -8 -22l-47 -277q-3 -20 2 -20z" />
    <glyph glyph-name="uni208A" unicode="&#x208a;" horiz-adv-x="141" 
d="M61 348l-8 -43h-65l8 43h-39l12 68h37l8 43h66l-8 -43h34l-12 -68h-33z" />
    <glyph glyph-name="uni208B" unicode="&#x208b;" horiz-adv-x="141" 
d="M-31 416h137l-12 -70h-137z" />
    <glyph glyph-name="uni208C" unicode="&#x208c;" horiz-adv-x="133" 
d="M-29 430h129l-10 -61h-129zM-41 360h129l-10 -61h-129z" />
    <glyph glyph-name="uni208D" unicode="&#x208d;" horiz-adv-x="96" 
d="M-18 -55q-50 0 -68.5 15t-11.5 56l123 699q7 40 29 53.5t75 13.5l-12 -71q-14 0 -19.5 -5t-9.5 -22l-115 -649q-2 -9 1.5 -13t19.5 -4z" />
    <glyph glyph-name="uni208E" unicode="&#x208e;" horiz-adv-x="96" 
d="M-102 20q23 0 26 17l117 661q2 11 -1 13t-20 2l13 71q51 0 69.5 -16t8.5 -66l-121 -682q-7 -46 -28 -59.5t-77 -13.5z" />
    <glyph glyph-name="colonmonetary" unicode="&#x20a1;" horiz-adv-x="247" 
d="M4 -4q-8 0 -8 2l-49 -238h-62l54 258l2 15q-28 36 -19 84l221 1255q12 83 80 105l41 209h64l-41 -207h10l43 207h61l-49 -236q35 -27 23 -98l-96 -543h-111l98 555q3 16 -4 16q-5 0 -8 -16l-217 -1231q-3 -31 2 -31q4 0 8 19l103 586h110l-104 -601q-15 -93 -90 -108
l-48 -238h-61z" />
    <glyph glyph-name="uni20A2" unicode="&#x20a2;" horiz-adv-x="366" 
d="M283 164q-13 -86 -61.5 -128t-123.5 -42q-93 0 -137 53t-27 150l199 1124q27 160 184 160q87 0 134 -52t30 -145l-65 -369h-111l68 379q6 37 -9.5 59.5t-50.5 22.5q-34 0 -48 -18t-21 -55l-199 -1123q-9 -35 2 -53l137 778h80l10 -57l2 2q5 33 20 44t56 11h15l-25 -141
h-49q-28 0 -31 -21l-108 -622q17 17 20 47l102 582h111z" />
    <glyph glyph-name="franc" unicode="&#x20a3;" horiz-adv-x="163" 
d="M96 473l-84 -473h-112l260 1475h153l-22 -127h-41l-94 -541h41l-23 -127h-41l-14 -80h41l-23 -127h-41z" />
    <glyph glyph-name="lira" unicode="&#x20a4;" horiz-adv-x="335" 
d="M123 -4q-35 0 -62 31q-33 -33 -73 -33q-41 0 -65 30t-13 95q15 102 92 102q37 0 53 -22v4q17 104 21 348h-82l20 113h64v12h-62l19 112h47q10 168 35 324l45 248q12 57 41 89t90 32q67 0 99 -36.5t20 -107.5l-84 -485h-121l88 508q3 16 -4 16t-10 -20l-41 -234
q-30 -198 -43 -334h110l-18 -112h-103l-1 -4q-1 -4 -1 -8h103l-21 -113h-90q-18 -210 -39 -332q-9 -50 -24 -98h2q17 0 20 20l62 348h112l-67 -378q-12 -70 -43 -92.5t-76 -22.5zM6 102q5 0 12 7q-3 12 -10 12q-5 0 -8 -8q-4 -11 6 -11z" />
    <glyph glyph-name="uni20A6" unicode="&#x20a6;" horiz-adv-x="290" 
d="M16 0h-106l121 684h-17l13 64h14l4 18h-16l12 61h14l115 648h111l-117 -1110l94 722l66 388h104l-115 -648h19l-13 -61h-16l-4 -18h18l-12 -64h-16l-121 -684h-105l136 1245l-103 -784z" />
    <glyph glyph-name="peseta" unicode="&#x20a7;" horiz-adv-x="636" 
d="M90 451l-80 -451h-110l260 1475h137q105 0 84 -103l-31 -172q1 0 2 0.5t3.5 1.5t4.5 2q7 5 19 25l3 11q3 12 7 22q3 15 7.5 35.5t8.5 37t5 19.5h92l-27 -152h25l-21 -121h-24l-168 -948q-3 -22 16 -22h115q16 0 20 14l2 10q4 17 -2 26t-37 29q-38 24 -49.5 44.5
t-5.5 56.5l143 809q11 55 39.5 80.5t85.5 25.5q62 0 87 -32.5t14 -90.5l-140 -788h-106l139 790q3 11 3.5 16t-0.5 6t-5 1h-3t-2 -3t-2 -7q-2 -7 -3 -13l-137 -776q-1 -10 5.5 -18t33.5 -27q42 -26 52.5 -47t2.5 -63l-14 -76q-8 -44 -27.5 -61t-69.5 -17h-202
q-46 0 -63 22.5t-9 67.5l176 991h-14l-97 -546q-16 -84 -112 -84h-31zM109 555h2q9 0 12 10l141 801q3 14 -8 14z" />
    <glyph glyph-name="uni20A8" unicode="&#x20a8;" horiz-adv-x="477" 
d="M8 0h-108l260 1475h131q53 0 71 -25t7 -80l-105 -596q-9 -57 -45 -69q36 -14 27 -64l-90 -512q-3 -29 20 -29h64q22 0 29.5 7.5t9.5 25.5l2 10q4 15 -4 24.5t-35 27.5l-9 6q-29 22 -39 41.5t-4 52.5l142 803q11 56 38.5 82t84.5 26q62 0 86.5 -32.5t13.5 -90.5l-133 -747
h-107l134 754q3 18 -3 18q-5 0 -8 -18l-135 -768q-1 -19 6.5 -29t40.5 -37q31 -21 41 -40.5t4 -53.5l-14 -80q-15 -82 -100 -82h-162q-49 0 -69.5 22t-14.5 60l98 549q3 16 -10 16zM252 1380l-111 -624h2q13 0 17 14l104 594q3 16 -8 16h-4z" />
    <glyph glyph-name="uni20A9" unicode="&#x20a9;" horiz-adv-x="378" 
d="M68 0h-136l103 670h-23l13 69h20l2 15h-20l12 69h18l101 652h108l-104 -625l-94 -545l106 545l123 625h90l-94 -625l-80 -545l92 545l113 625h110l-127 -652h17l-12 -69h-19l-2 -15h18l-12 -69h-20l-131 -670h-136l89 590l141 821l-150 -821z" />
    <glyph glyph-name="uni20AA" unicode="&#x20aa;" horiz-adv-x="468" 
d="M246 1374l-242 -1374h-104l260 1475h137q93 0 137.5 -53.5t30.5 -133.5l-191 -1085q-10 -54 -35.5 -71t-70.5 -17h-14l204 1157q10 56 -13 79t-79 23h-20zM16 0l242 1362q55 0 75.5 -21.5t12.5 -66.5l-205 -1170h35q49 0 76 24.5t37 84.5l221 1262h106l-223 -1272
q-37 -203 -225 -203h-152z" />
    <glyph glyph-name="Euro" unicode="&#x20ac;" horiz-adv-x="253" 
d="M160 106q-21 -112 -127 -112q-60 0 -87.5 37t-19.5 86l94 538h-12l17 101h14l2 12h-12l16 102h14l88 502q10 59 38 84t83 25q56 0 89 -30.5t22 -98.5l-74 -414h-108l75 426q3 16 -4 16q-5 0 -8 -16l-88 -494h74l-33 -102h-57l-2 -12h53l-33 -101h-39l-92 -522
q-3 -31 2 -31q4 0 8 19l80 459h109z" />
    <glyph glyph-name="uni20AE" unicode="&#x20ae;" horiz-adv-x="186" 
d="M150 586l-103 -586h-117l95 539l-33 -13l16 95l33 12l4 24l-33 -12l17 94l32 13l107 602h-33l21 121h182l-21 -121h-32l-99 -555l33 12l-16 -94l-33 -12l-4 -25l33 12l-17 -94z" />
    <glyph glyph-name="uni20B1" unicode="&#x20b1;" horiz-adv-x="260" 
d="M96 449l-80 -449h-110l153 874h-10l14 82h11l6 29h-12l14 82h12l72 408h127q59 0 80 -25.5t10 -79.5l-53 -303h12l-14 -82h-13l-6 -29h15l-15 -82h-14l-59 -342q-13 -83 -107 -83h-33zM262 1380l-57 -313h12l53 303q2 10 -6 10h-2zM203 985h-13l-4 -29h13zM184 874h-12
l-57 -321h2q9 0 12 10z" />
    <glyph glyph-name="uni2105" unicode="&#x2105;" horiz-adv-x="333" 
d="M147 905q-38 0 -57.5 23t-13.5 61l74 422q12 72 81 72q37 0 57.5 -20.5t14.5 -57.5l-29 -158h-71l24 146q3 22 -2 22t-8 -22l-70 -396q-1 -11 -0.5 -16t1 -5.5t2.5 -0.5q6 0 8 20l30 172h72l-33 -184q-6 -36 -27 -57t-53 -21zM401 1475h84l-508 -1475h-83zM156 -8
q-39 0 -58 25t-12 67l76 434q13 72 80 72q35 0 55.5 -23t13.5 -67l-75 -437q-5 -31 -26.5 -51t-53.5 -20zM160 61q2 0 6 11l76 428q2 8 3 12.5t0.5 6.5t-1.5 2.5t-3 0.5h-1q-4 0 -7 -10l-75 -428q-3 -23 2 -23z" />
    <glyph glyph-name="uni2116" unicode="&#x2116;" horiz-adv-x="458" 
d="M344 426q-49 0 -69.5 28.5t-12.5 75.5l152 865q15 91 98 88q95 -3 80 -103l-152 -862q-16 -92 -96 -92zM8 0h-108l260 1475h110l-116 -1110l94 722l65 388h105l-260 -1475h-105l135 1245l-102 -784zM348 500q5 0 8 16l156 883q2 12 1 14t-5 2q-5 0 -8 -16l-156 -883
q-3 -16 4 -16zM242 418h180l-14 -84h-181z" />
    <glyph glyph-name="uni2117" unicode="&#x2117;" horiz-adv-x="432" 
d="M123 -6q-111 0 -160 56.5t-31 148.5l193 1087q17 98 73 146.5t156 48.5q103 0 154.5 -54.5t34.5 -150.5l-193 -1096q-33 -186 -227 -186zM137 88q54 0 82 25t35 80l190 1077q11 62 -11.5 90.5t-86.5 28.5q-34 0 -63 -13h86q38 0 55.5 -21t11.5 -57l-133 -751
q-6 -37 -23.5 -50.5t-58.5 -13.5h-33l-67 -381h-62q28 -14 78 -14zM35 207q-9 -47 0 -74l213 1213q-21 -33 -23 -62zM332 1298l-129 -733h4q9 0 12 17l123 704q3 12 -6 12h-4z" />
    <glyph glyph-name="uni2120" unicode="&#x2120;" horiz-adv-x="339" 
d="M117 852q-70 0 -58 76l35 196h60l-35 -200q-1 -4 -0.5 -6t1.5 -2l1 -1q4 1 6 9l35 200q1 2 0.5 4t-3 5t-5 5t-7 6.5l-8.5 8.5q-21 21 -26.5 31.5t-1.5 32.5l34 196q12 68 74 68q67 0 55 -62l-36 -200h-60l37 204l-2 7q-6 0 -6 -7l-37 -204q0 -9 18 -27q4 -4 10.5 -10
t9 -9t6.5 -7.5t5 -8t2.5 -9t1 -12t-1.5 -14.5l-37 -209q-5 -32 -19.5 -46.5t-47.5 -14.5zM258 858h-76l109 617h86l-39 -285l61 285h88l-108 -617h-76l31 148l61 262l-82 -287h-20l20 287l-30 -262z" />
    <glyph glyph-name="trademark" unicode="&#x2122;" horiz-adv-x="335" 
d="M248 1399l-96 -541h-86l96 541h-21l13 76h125l-13 -76h-18zM254 858h-76l109 617h86l-39 -285l61 285h88l-108 -617h-76l31 148l61 262l-82 -287h-20l20 287l-30 -262z" />
    <glyph glyph-name="uni2126" unicode="&#x2126;" horiz-adv-x="368" 
d="M12 0h-118l22 123h68q-2 109 8 266q23 270 92 649q40 211 59 277q26 95 64.5 130.5t107.5 35.5q75 0 113 -35t41 -130.5t-29 -281.5q-43 -242 -67 -352q-58 -286 -156 -559h68l-23 -123h-121l-43 117q120 363 215 913q31 176 33 221q6 68 -1.5 91.5t-29.5 23.5
q-23 0 -34 -20q-28 -48 -74 -316q-90 -519 -111 -913z" />
    <glyph glyph-name="uni2153" unicode="&#x2153;" horiz-adv-x="305" 
d="M25 733l12 70h31l98 551h-27l11 59q32 2 47 62h61l-119 -672h35l-12 -70h-137zM176 760l178 713l101 -11l-271 -704zM131 -6q-87 0 -72 82l37 211h70l-37 -209q-7 -21 2 -21q4 0 8 19l47 262q2 10 -10 10h-29l15 74h26q13 0 13 8l41 232q2 8 3 12.5t0.5 6.5t-1.5 2.5
t-3 0.5h-1q-1 0 -2 -0.5t-2.5 -5.5t-4.5 -16l-32 -195h-70l35 205q11 73 78 73q83 0 71 -77l-43 -242q-3 -28 -28 -37q17 -7 14 -39l-49 -295q-10 -61 -76 -61zM-117 20l281 709l8 -2l-190 -727z" />
    <glyph glyph-name="uni2154" unicode="&#x2154;" horiz-adv-x="317" 
d="M47 848q15 84 78 180q1 1 10.5 16.5t11 18t8.5 15.5t9.5 18.5t7 16.5t6.5 20.5t4 19.5l41 242q2 8 3 12.5t0.5 6.5t-1.5 2.5t-3 0.5h-1q-2 0 -8 -22l-47 -269h-70l51 283q14 70 78 70q82 0 70 -80l-43 -244q-12 -73 -68 -151q-54 -86 -65 -156l-6 -37h77l-14 -78h-149z
M188 760l179 713l100 -11l-270 -704zM143 -6q-86 0 -71 82l37 211h69l-37 -209q-7 -21 2 -21q5 0 9 19l47 262q1 6 -1.5 8t-9.5 2h-28l14 74h27q12 0 12 8l41 232q2 8 3 12.5t0.5 6.5t-1.5 2.5t-3 0.5h-1q-2 0 -8 -22l-33 -195h-70l35 205q11 73 78 73q84 0 72 -77l-43 -242
q-3 -27 -29 -37q17 -7 14 -39l-49 -295q-10 -61 -76 -61zM-104 20l280 709l8 -2l-190 -727z" />
    <glyph glyph-name="uni2155" unicode="&#x2155;" horiz-adv-x="296" 
d="M25 733l12 70h31l98 551h-27l11 59q32 2 47 62h61l-119 -672h35l-12 -70h-137zM176 760l178 713l101 -11l-271 -704zM117 -6q-37 0 -55.5 22.5t-12.5 55.5l41 241h70l-41 -237q-4 -19 2 -19q4 0 8 19l55 315q3 19 0 19q-4 -3 -6 -9l-20 -41l-60 9l84 372h135l-6 -39
q-6 -36 -19.5 -45.5t-55.5 -9.5h-7l-57 -246q21 56 33.5 74.5t32.5 18.5q38 0 26 -52l-69 -387q-9 -61 -78 -61zM-117 20l281 709l8 -2l-190 -727z" />
    <glyph glyph-name="uni2156" unicode="&#x2156;" horiz-adv-x="311" 
d="M47 848q15 84 78 180q1 1 10.5 16.5t11 18t8.5 15.5t9.5 18.5t7 16.5t6.5 20.5t4 19.5l41 242q2 8 3 12.5t0.5 6.5t-1.5 2.5t-3 0.5h-1q-2 0 -8 -22l-47 -269h-70l51 283q14 70 78 70q82 0 70 -80l-43 -244q-12 -73 -68 -151q-54 -86 -65 -156l-6 -37h77l-14 -78h-149z
M188 760l179 713l100 -11l-270 -704zM131 -6q-37 0 -55.5 22.5t-12.5 55.5l41 241h70l-41 -237q-4 -19 2 -19q4 0 8 19l56 315q3 19 0 19q-4 -3 -6 -9l-21 -41l-59 9l84 372h135l-6 -39q-6 -36 -20 -45.5t-56 -9.5h-6l-58 -246q21 56 33.5 74.5t32.5 18.5q39 0 27 -52
l-70 -387q-9 -61 -78 -61zM-104 20l280 709l8 -2l-190 -727z" />
    <glyph glyph-name="uni2157" unicode="&#x2157;" horiz-adv-x="311" 
d="M113 723q-87 0 -72 82l37 211h69l-36 -209q-7 -21 2 -21q4 0 8 19l47 262q2 10 -10 10h-29l14 74h27q12 0 12 8l41 232q2 8 3 12.5t0.5 6.5t-1.5 2.5t-3 0.5h-1q-2 0 -8 -22l-33 -195h-69l34 205q11 74 78 74q84 0 72 -78l-43 -242q-3 -27 -29 -37q18 -8 15 -39l-50 -295
q-10 -61 -75 -61zM188 760l179 713l100 -11l-270 -704zM131 -6q-37 0 -55.5 22.5t-12.5 55.5l41 241h70l-41 -237q-4 -19 2 -19q4 0 8 19l56 315q3 19 0 19q-4 -3 -6 -9l-21 -41l-59 9l84 372h135l-6 -39q-6 -36 -20 -45.5t-56 -9.5h-6l-58 -246q21 56 33.5 74.5t32.5 18.5
q39 0 27 -52l-70 -387q-9 -61 -78 -61zM-104 20l280 709l8 -2l-190 -727z" />
    <glyph glyph-name="uni2158" unicode="&#x2158;" horiz-adv-x="311" 
d="M190 862l-22 -129h-64l23 129h-78l10 60l164 553h74l-94 -545h20l-10 -68h-23zM190 760l179 713l100 -11l-270 -704zM123 930h16l11 57l81 369l-90 -367zM131 -6q-37 0 -55.5 22.5t-12.5 55.5l41 241h70l-41 -237q-4 -19 2 -19q4 0 8 19l56 315q3 19 0 19q-4 -3 -6 -9
l-21 -41l-59 9l84 372h135l-6 -39q-6 -36 -20 -45.5t-56 -9.5h-6l-58 -246q21 56 33.5 74.5t32.5 18.5q39 0 27 -52l-70 -387q-9 -61 -78 -61zM-102 20l280 709l8 -2l-190 -727z" />
    <glyph glyph-name="uni2159" unicode="&#x2159;" horiz-adv-x="307" 
d="M25 733l12 70h31l98 551h-27l11 59q32 2 47 62h61l-119 -672h35l-12 -70h-137zM176 760l178 713l101 -11l-271 -704zM205 55q-11 -61 -76 -61q-36 0 -56.5 19.5t-13.5 60.5l105 604q10 67 80 67q39 0 56.5 -20t12.5 -51l-34 -205h-70l33 193q2 8 3 12.5t0.5 6.5t-1.5 2.5
t-3 0.5h-1q-1 0 -2 -0.5t-2.5 -5.5t-4.5 -16l-47 -271q12 45 45 45q47 0 35 -51zM-117 20l281 709l8 -2l-190 -727zM131 57q4 0 8 19l54 297q0 8 -5 8t-8 -8l-51 -295q-7 -21 2 -21z" />
    <glyph glyph-name="uni215A" unicode="&#x215a;" horiz-adv-x="317" 
d="M106 727q-37 0 -55 22.5t-12 55.5l41 242h70l-41 -238q-4 -18 2 -18q4 0 8 18l55 315q3 19 0 19q-4 -2 -6 -8l-21 -41l-59 8l84 373h135l-6 -39q-6 -36 -20 -46t-56 -10h-6l-57 -245q21 57 33 74.5t32 17.5q39 0 27 -51l-70 -388q-9 -61 -78 -61zM186 760l179 713
l100 -11l-270 -704zM215 55q-11 -61 -76 -61q-36 0 -56 19.5t-13 60.5l104 604q10 67 80 67q39 0 57 -20t13 -51l-35 -205h-70l33 193q2 8 3 12.5t0.5 6.5t-1.5 2.5t-3 0.5h-1q-2 0 -8 -22l-47 -271q12 45 45 45q46 0 34 -51zM-106 20l280 709l8 -2l-190 -727zM141 57
q5 0 9 19l53 297q0 8 -4 8q-6 0 -9 -8l-51 -295q-7 -21 2 -21z" />
    <glyph glyph-name="uni215B" unicode="&#x215b;" horiz-adv-x="303" 
d="M25 733l12 70h31l98 551h-27l11 59q32 2 47 62h61l-119 -672h35l-12 -70h-137zM176 760l178 713l101 -11l-271 -704zM129 -6q-41 0 -58.5 20.5t-9.5 59.5l50 282q3 31 32 41q-19 14 -16 49l41 238q12 61 72 61q37 0 57 -19t14 -56l-41 -230q-3 -32 -32 -45q25 -12 16 -47
l-51 -293q-9 -61 -74 -61zM-117 20l281 709l8 -2l-190 -727zM199 424q5 0 8 20l37 218q2 8 3 12.5t0.5 6.5t-1.5 2.5t-3 0.5h-1q-1 0 -2 -0.5t-2.5 -5.5t-4.5 -16l-36 -218q-2 -20 2 -20zM133 57q4 0 8 19l49 280q3 11 -4 11q-3 0 -6 -11l-49 -278q-3 -21 2 -21z" />
    <glyph glyph-name="uni215C" unicode="&#x215c;" horiz-adv-x="315" 
d="M113 727q-87 0 -72 82l37 211h69l-36 -209q-7 -20 2 -20q4 0 8 18l47 262q2 10 -10 10h-29l14 74h27q12 0 12 8l41 232q2 8 3 12.5t0.5 6.5t-1.5 2.5t-3 0.5h-1q-2 0 -8 -22l-33 -195h-69l34 205q11 74 78 74q84 0 72 -78l-43 -242q-3 -27 -29 -37q18 -8 15 -39l-50 -295
q-10 -61 -75 -61zM188 760l179 713l100 -11l-270 -704zM141 -6q-83 0 -67 80l49 282q3 31 33 41q-20 14 -17 49l41 238q12 61 72 61q37 0 57.5 -19t14.5 -56l-41 -230q-3 -32 -33 -45q25 -12 16 -47l-51 -293q-9 -61 -74 -61zM-104 20l280 709l8 -2l-190 -727zM211 424
q5 0 8 20l37 218q2 8 3 12.5t0.5 6.5t-1.5 2.5t-3 0.5h-1q-2 0 -8 -22l-37 -218q-2 -20 2 -20zM145 57q5 0 9 19l49 280q3 11 -4 11q-3 0 -6 -11l-50 -278q-3 -21 2 -21z" />
    <glyph glyph-name="uni215D" unicode="&#x215d;" horiz-adv-x="315" 
d="M106 727q-37 0 -55 22.5t-12 55.5l41 242h70l-41 -238q-4 -18 2 -18q4 0 8 18l55 315q3 19 0 19q-4 -2 -6 -8l-21 -41l-59 8l84 373h135l-6 -39q-6 -36 -20 -46t-56 -10h-6l-57 -245q21 57 33 74.5t32 17.5q39 0 27 -51l-70 -388q-9 -61 -78 -61zM188 760l179 713
l100 -11l-270 -704zM141 -6q-83 0 -67 80l49 282q3 31 33 41q-20 14 -17 49l41 238q12 61 72 61q37 0 57.5 -19t14.5 -56l-41 -230q-3 -32 -33 -45q25 -12 16 -47l-51 -293q-9 -61 -74 -61zM-104 20l280 709l8 -2l-190 -727zM211 424q5 0 8 20l37 218q2 8 3 12.5t0.5 6.5
t-1.5 2.5t-3 0.5h-1q-2 0 -8 -22l-37 -218q-2 -20 2 -20zM145 57q5 0 9 19l49 280q3 11 -4 11q-3 0 -6 -11l-50 -278q-3 -21 2 -21z" />
    <glyph glyph-name="uni215E" unicode="&#x215e;" horiz-adv-x="301" 
d="M45 733q48 221 61 279q39 172 103 379h-70l15 84h137l-12 -72q-5 -20 -16 -57t-19.5 -68t-14.5 -59q-30 -115 -102 -486h-82zM172 760l178 713l101 -11l-271 -704zM127 -6q-41 0 -58.5 20.5t-9.5 59.5l50 282q3 31 32 41q-19 14 -16 49l41 238q12 61 72 61q37 0 57 -19
t14 -56l-41 -230q-3 -32 -32 -45q25 -12 16 -47l-51 -293q-9 -61 -74 -61zM-121 20l281 709l8 -2l-191 -727zM197 424q5 0 8 20l37 218q2 8 3 12.5t0.5 6.5t-1.5 2.5t-3 0.5h-1q-1 0 -2 -0.5t-2.5 -5.5t-4.5 -16l-36 -218q-2 -20 2 -20zM131 57q4 0 8 19l49 280q3 11 -4 11
q-3 0 -6 -11l-49 -278q-3 -21 2 -21z" />
    <glyph glyph-name="uni215F" unicode="&#x215f;" horiz-adv-x="296" 
d="M25 733l12 70h31l98 551h-27l11 59q32 2 47 62h61l-119 -672h35l-12 -70h-137zM176 760l178 713l101 -11l-271 -704zM-117 20l281 709l8 -2l-190 -727z" />
    <glyph glyph-name="arrowleft" unicode="&#x2190;" horiz-adv-x="1441" 
d="M625 563q74 -61 135.5 -139t95.5 -160h-434q-24 64 -78 137q-102 144 -264 248v178q70 44 143 111q150 141 199 279h418q-63 -163 -213 -299h743v-355h-745z" />
    <glyph glyph-name="arrowup" unicode="&#x2191;" horiz-adv-x="1441" 
d="M1225 627q-174 67 -299 219v-740h-355v740q-125 -152 -299 -219v415q64 24 140 78q158 113 254 262h172q53 -84 110 -141q137 -150 277 -199v-415z" />
    <glyph glyph-name="arrowright" unicode="&#x2192;" horiz-adv-x="1441" 
d="M627 264q69 166 229 299h-743v355h741q-149 138 -211 299h418q26 -70 76 -140q118 -161 266 -250v-178q-67 -42 -143 -112q-147 -135 -201 -273h-432z" />
    <glyph glyph-name="arrowdown" unicode="&#x2193;" horiz-adv-x="1441" 
d="M657 86q-42 67 -112 143q-141 148 -275 197v416q180 -69 299 -221v741h355v-737q124 147 299 217v-416q-59 -20 -142 -76q-156 -115 -252 -264h-172z" />
    <glyph glyph-name="uni2196" unicode="&#x2196;" horiz-adv-x="1441" 
d="M1071 170l-524 522q23 -186 -58 -364l-292 290q32 76 45 154q29 197 -11 365l121 120q76 -19 183 -22q198 -9 331 57l297 -295q-172 -71 -366 -55l526 -524z" />
    <glyph glyph-name="uni2197" unicode="&#x2197;" horiz-adv-x="1441" 
d="M1028 328q-71 172 -55 362l-527 -520l-251 248l526 522q-194 -17 -367 55l293 295q60 -32 156 -45q194 -29 366 6l121 -121q-18 -73 -22 -176q-9 -195 55 -333z" />
    <glyph glyph-name="uni2198" unicode="&#x2198;" horiz-adv-x="1441" 
d="M1163 205q-76 19 -182 22q-211 3 -332 -57l-297 295q171 76 369 53l-528 524l251 250l525 -524q-17 201 57 367l295 -291q-35 -84 -45 -154q-29 -196 8 -364z" />
    <glyph glyph-name="uni2199" unicode="&#x2199;" horiz-adv-x="1441" 
d="M868 170q-60 32 -153 45q-203 30 -365 -8l-121 121q19 106 21 180q10 207 -55 330l297 295q75 -182 53 -365l524 524l252 -250l-526 -522q192 23 370 -57z" />
    <glyph glyph-name="partialdiff" unicode="&#x2202;" 
d="M31 -6q-60 0 -91 30.5t-20 94.5l172 985q11 56 26.5 78t49.5 22t45 -22t6 -66q9 59 12 131q4 180 -86 234h148q44 -36 47 -172q0 -116 -18 -222l-172 -987q-21 -106 -119 -106zM35 96q4 0 8 19l172 970q0 4 1 9q2 12 -3 12q-3 0 -10 -21l-172 -970q-4 -19 4 -19z" />
    <glyph glyph-name="uni2206" unicode="&#x2206;" horiz-adv-x="292" 
d="M301 1487l-108 -1487h-302zM152 612l-132 -518h76z" />
    <glyph glyph-name="product" unicode="&#x220f;" horiz-adv-x="315" 
d="M299 1368h-12l-242 -1368h-115l242 1368h-35l19 107h311l-18 -107h-37l-242 -1368h-113z" />
    <glyph glyph-name="summation" unicode="&#x2211;" horiz-adv-x="188" 
d="M80 0h-184l20 117l197 639l24 606l19 113h184l-18 -111h-89l-18 -614l-195 -637h80z" />
    <glyph glyph-name="minus" unicode="&#x2212;" horiz-adv-x="270" 
d="M37 754h250l-19 -109h-250z" />
    <glyph glyph-name="radical" unicode="&#x221a;" horiz-adv-x="333" 
d="M-10 0l84 860h-25l25 135h121l-31 -303l-78 -459l92 459l211 783h111l-400 -1475h-110z" />
    <glyph glyph-name="infinity" unicode="&#x221e;" horiz-adv-x="217" 
d="M59 602q-30 0 -35.5 30.5t7.5 119.5q17 89 32.5 119t42.5 30q41 0 44 -65q27 65 65 65q26 0 33.5 -30t-4.5 -119q-13 -91 -29 -120.5t-47 -29.5q-35 0 -43 66q-24 -66 -66 -66zM182 739q8 0 11 13q3 20 -5 20q-3 0 -14 -20q3 -13 8 -13zM90 739q4 0 14 13q-3 16 -8 16
q-7 0 -10 -16q-3 -13 4 -13z" />
    <glyph glyph-name="integral" unicode="&#x222b;" horiz-adv-x="147" 
d="M-145 -131h8q13 0 16 14l266 1508q11 52 31 68t82 16h41l-20 -125h-9q-15 0 -18 -15l-260 -1474q-12 -73 -34.5 -95t-86.5 -22h-39z" />
    <glyph glyph-name="approxequal" unicode="&#x2248;" horiz-adv-x="280" 
d="M129 893q23 0 67 -17.5t60 -17.5q48 0 63 37l-20 -117q-28 -28 -59 -28q-26 0 -69.5 17t-66.5 17q-35 0 -65 -34l20 114q21 29 70 29zM104 772q21 0 64.5 -17.5t69.5 -17.5q32 0 59 27l-18 -107q-28 -28 -64 -28q-23 0 -68 18.5t-61 18.5q-47 0 -68 -37l19 106
q10 13 28 25t39 12z" />
    <glyph glyph-name="notequal" unicode="&#x2260;" horiz-adv-x="280" 
d="M150 600l-15 -35h-63l14 35h-74l21 117h102l6 14h-106l20 117h135l13 31h63l-12 -31h57l-20 -117h-86l-6 -14h90l-21 -117h-118z" />
    <glyph glyph-name="equivalence" unicode="&#x2261;" horiz-adv-x="264" 
d="M68 961h256l-21 -117h-256zM45 829h256l-22 -120h-256zM20 694h256l-20 -116h-256z" />
    <glyph glyph-name="lessequal" unicode="&#x2264;" horiz-adv-x="284" 
d="M47 788l21 111l274 109l-20 -117l-142 -49l125 -51l-20 -113zM27 674h256l-17 -103h-256z" />
    <glyph glyph-name="greaterequal" unicode="&#x2265;" horiz-adv-x="284" 
d="M49 795l144 51l-127 49l20 113l238 -109l-21 -111l-274 -110zM27 674h256l-17 -103h-256z" />
    <glyph glyph-name="uni22A0" unicode="&#x22a0;" horiz-adv-x="1744" 
d="M150 1475h1486v-1475h-1486v1475zM1053 578v321h-318v-321h318zM897 684l-80 -80l-49 49l78 80l-80 80l51 51l78 -80l80 82l53 -51l-82 -82l80 -82l-49 -49z" />
    <glyph glyph-name="house" unicode="&#x2302;" horiz-adv-x="1740" 
d="M217 836l674 643l674 -643v-836h-1348v836z" />
    <glyph glyph-name="filledbox" unicode="&#x25a0;" horiz-adv-x="1744" 
d="M150 1475h1486v-1475h-1486v1475z" />
    <glyph glyph-name="uni25A1" unicode="&#x25a1;" horiz-adv-x="1744" 
d="M150 0v1475h1486v-1475h-1486zM735 578h318v321h-318v-321z" />
    <glyph glyph-name="uni25AA" unicode="&#x25aa;" horiz-adv-x="1431" 
d="M106 1212h1219v-1212h-1219v1212z" />
    <glyph glyph-name="uni25AB" unicode="&#x25ab;" horiz-adv-x="1431" 
d="M106 1212h1219v-1212h-1219v1212zM848 471v272h-266v-272h266z" />
    <glyph glyph-name="triagup" unicode="&#x25b2;" horiz-adv-x="1832" 
d="M938 1526l885 -1526h-1772z" />
    <glyph glyph-name="triagrt" unicode="&#x25ba;" horiz-adv-x="1832" 
d="M217 1647l1532 -881l-1532 -885v1766z" />
    <glyph glyph-name="triagdn" unicode="&#x25bc;" horiz-adv-x="1832" 
d="M51 1501h1772l-885 -1526z" />
    <glyph glyph-name="triaglf" unicode="&#x25c4;" horiz-adv-x="1832" 
d="M125 766l1532 881v-1766z" />
    <glyph glyph-name="lozenge" unicode="&#x25ca;" horiz-adv-x="296" 
d="M20 760l181 153l133 -159l-182 -154zM205 760l-21 26l-37 -32l21 -27z" />
    <glyph glyph-name="circle" unicode="&#x25cb;" horiz-adv-x="1611" 
d="M825 -23q-227 0 -399 99q-176 97 -272.5 268.5t-96.5 392.5q0 330 213 543q104 104 245.5 160.5t309.5 56.5q337 0 555 -215q215 -215 215 -545q0 -331 -213 -544q-216 -216 -557 -216zM825 518q94 0 148.5 62.5t54.5 156.5q0 95 -54.5 158t-148.5 63q-97 0 -149.5 -62
t-52.5 -159q0 -96 52.5 -157.5t149.5 -61.5z" />
    <glyph glyph-name="uni25CE" unicode="&#x25ce;" horiz-adv-x="1865" 
d="M954 -20q-221 0 -393 96q-175 99 -269.5 269.5t-94.5 391.5q0 327 211 541q215 215 546 215q330 0 543 -213t213 -543q0 -328 -211 -542q-212 -215 -545 -215zM954 248q136 0 250 63q110 65 173 176.5t63 249.5t-64 248q-65 115 -174.5 179.5t-247.5 64.5
q-131 0 -247 -64q-112 -67 -176 -178t-64 -250q0 -138 63 -252q67 -112 177.5 -174.5t246.5 -62.5zM956 385q-108 0 -182 45q-81 48 -126.5 127t-45.5 178q0 103 47 180q47 80 128 125t179 45q105 0 179 -45q81 -45 126.5 -124.5t45.5 -180.5q0 -98 -45 -178
q-49 -80 -128 -126t-178 -46zM956 616q49 0 80 34t31 85q0 54 -30.5 86.5t-80.5 32.5q-51 0 -81.5 -32.5t-30.5 -86.5q0 -52 31 -85.5t81 -33.5z" />
    <glyph glyph-name="uni25CF" unicode="&#x25cf;" horiz-adv-x="1611" 
d="M825 -23q-227 0 -399 99q-176 97 -272.5 268.5t-96.5 392.5q0 330 213 543q104 104 245.5 160.5t309.5 56.5q337 0 555 -215q215 -215 215 -545q0 -331 -213 -544q-216 -216 -557 -216z" />
    <glyph glyph-name="uni25E2" unicode="&#x25e2;" horiz-adv-x="1832" 
d="M102 1554l1713 -456l-1252 -1250z" />
    <glyph glyph-name="uni25E3" unicode="&#x25e3;" horiz-adv-x="1832" 
d="M63 1098l1713 456l-461 -1706z" />
    <glyph glyph-name="uni25E4" unicode="&#x25e4;" horiz-adv-x="1832" 
d="M70 348l1251 1245l461 -1706z" />
    <glyph glyph-name="uni25E5" unicode="&#x25e5;" horiz-adv-x="1832" 
d="M563 1585l1249 -1247l-1712 -459z" />
    <glyph glyph-name="uni2605" unicode="&#x2605;" horiz-adv-x="1839" 
d="M698 627l-385 276l475 -2l148 449l147 -449l473 -2l-385 -274l148 -449l-385 277l-383 -277z" />
    <glyph glyph-name="sun" unicode="&#x263c;" horiz-adv-x="1896" 
d="M907 1460h113l-35 -293h-43zM551 1337l96 58l115 -275l-33 -18zM1165 1120l113 275l98 -58l-180 -235zM299 1051l59 94l238 -176l-21 -31zM1329 971l236 174l61 -92l-276 -115zM965 375q-99 0 -181 49q-84 50 -132 131.5t-48 177.5t49 178q50 84 132.5 132.5t179.5 48.5
q95 0 178 -50q84 -50 131 -131t47 -178q0 -96 -49 -178q-48 -84 -129 -132t-178 -48zM233 791l293 -35v-41l-293 -35v111zM1399 715v41l293 35v-111zM299 418l276 117l21 -35l-234 -174zM1329 502l21 33l276 -115l-57 -94zM551 133l178 236l33 -19l-115 -276zM1165 350
l31 19l180 -236l-98 -59zM942 301h43l35 -293h-113z" />
    <glyph glyph-name="uni263E" unicode="&#x263e;" horiz-adv-x="1605" 
d="M893 121q-254 0 -432 178q-180 180 -180 430t180 430q178 178 432 178q201 0 367 -118q-81 24 -146 24q-139 0 -248 -69q-116 -72 -180.5 -187t-64.5 -258q0 -146 67 -260q67 -118 180 -187t246 -69q62 0 146 25q-164 -117 -367 -117z" />
    <glyph glyph-name="spade" unicode="&#x2660;" horiz-adv-x="1843" 
d="M686 0q5 9 31.5 57.5t44.5 85.5q117 244 117 443q-25 -74 -70 -133q-97 -142 -272 -142q-87 0 -175 43q-80 44 -127 117t-47 160q0 113 50 213q51 93 152.5 194.5t275.5 239.5l282 225h4l281 -225q178 -139 268 -234q103 -104 148 -200.5t45 -212.5q0 -82 -43 -160
q-43 -73 -115 -114.5t-160 -41.5q-101 0 -172 39q-133 68 -194 232q0 -163 82 -344q19 -47 42 -94t46.5 -91t29.5 -57h-524z" />
    <glyph glyph-name="club" unicode="&#x2663;" horiz-adv-x="1843" 
d="M1346 264q-112 0 -198.5 66t-129.5 174q16 -114 53 -205q12 -31 26 -64t25 -57.5t26.5 -55.5t23.5 -46.5t22.5 -43t17.5 -32.5h-524q37 63 66 123q102 196 123 385q-42 -110 -132.5 -177t-205.5 -67q-99 0 -181 49q-84 50 -132 132.5t-48 179.5q0 98 49 180
q50 81 132.5 128.5t179.5 47.5q30 0 84 -12q-41 90 -41 172q0 102 49 178q48 80 129.5 127t177.5 47q105 0 178 -47q84 -47 130 -127t46 -178q0 -88 -37 -176q43 16 93 16q97 0 180 -47q81 -51 128.5 -132t47.5 -177q0 -99 -49 -181q-48 -84 -128.5 -132t-180.5 -48z" />
    <glyph glyph-name="heart" unicode="&#x2665;" horiz-adv-x="1843" 
d="M651 283q-167 187 -270 329q-101 144 -146 263t-45 237q0 105 50 191q54 89 137.5 139.5t185.5 50.5q111 0 182 -43q80 -43 130.5 -116.5t60.5 -164.5q13 96 59 164q51 75 131 117.5t181 42.5t192 -51q91 -55 142 -141t51 -189q0 -121 -47 -238q-46 -118 -148 -258.5
t-276 -332.5l-285 -318z" />
    <glyph glyph-name="diamond" unicode="&#x2666;" horiz-adv-x="1843" 
d="M279 750l663 759l662 -759l-662 -770z" />
    <glyph glyph-name="uni267B" unicode="&#x267b;" horiz-adv-x="1691" 
d="M948 1042l72 41l-127 215q-21 44 -64 68q-23 14 -47 22t-36 10l-13 1v2h340q31 -1 46.5 -3t38.5 -9.5t40.5 -25t32.5 -46.5l49 -84l78 43l-111 -289zM377 1085l117 205q20 35 61 56q45 29 111 26q61 -4 110 -29.5t66 -60.5l-203 -348zM1176 813l260 150l120 -205
q19 -22 19 -76q0 -64 -33 -111q-35 -49 -80.5 -78.5t-83.5 -29.5zM182 551q-19 33 -26.5 54t-4.5 53t23 69l49 86l-73 43l305 53l104 -288l-74 43l-61 -107q-62 -107 -64 -113q-26 -44 -26 -86q1 -25 6 -50t10 -38l4 -12h-4zM920 266l196 236v-86h254q49 0 88 22
q22 14 41.5 31t28.5 27l8 10l2 -2l-168 -291q-18 -27 -27 -38t-28 -28t-42.5 -23.5t-55.5 -6.5h-101v-88zM573 117q-42 0 -79 22q-57 37 -78 84q-26 53 -29 108t16 85h406v-299h-236z" />
    <glyph glyph-name="uni267C" unicode="&#x267c;" horiz-adv-x="1691" 
d="M870 35q-144 0 -271.5 53t-225.5 150q-205 205 -205 491q0 289 205 494q98 98 225.5 151t271.5 53q288 0 492 -204q205 -205 205 -494q0 -286 -205 -491q-206 -203 -492 -203zM1235 1161l-57 -33l-39 66q-24 40 -51 51.5t-72 11.5h-262v-2l22 -4q73 -19 101 -71l100 -166
l-57 -33l233 -43zM844 1167q-11 23 -51 45q-96 47 -172 2q-32 -18 -43 -43l-95 -155l205 -119zM1260 530q24 0 65 23q88 62 88 149q0 32 -16 60l-92 156l-203 -117zM465 373q-4 6 -6 22q-23 61 10 123l100 170l56 -35l-80 224l-238 -39l60 -35l-39 -66q-14 -21 -19.5 -38.5
t-1 -36.5t9 -29.5t17.5 -34.5l129 -225h2zM1059 264h76q34 0 57 11.5t33 24t26 40.5l133 223l-2 2l-16 -16q-15 -21 -46 -37t-69 -16h-192v65l-156 -182l156 -182v67zM813 264v232h-317q-16 -26 -13 -68q2 -43 24 -83t62 -64q39 -17 60 -17h184z" />
    <glyph glyph-name="uni267D" unicode="&#x267d;" horiz-adv-x="1691" 
d="M870 35q-144 0 -271.5 53t-225.5 150q-205 205 -205 491q0 289 205 494q98 98 225.5 151t271.5 53q288 0 492 -204q205 -205 205 -494q0 -286 -205 -491q-206 -203 -492 -203zM870 68q273 0 467 194q193 193 193 467q0 275 -193 471q-196 193 -467 193q-277 0 -473 -193
q-194 -194 -194 -471q0 -276 194 -467q194 -194 473 -194zM920 981l57 33l-100 166q-20 32 -50 49q-17 10 -35.5 16.5t-27.5 8.5l-10 1v2h262q45 0 72 -11.5t51 -51.5l39 -66l57 33l-82 -223zM483 1016l95 155q11 25 43 43q40 24 86 21q48 -5 86.5 -23.5t50.5 -44.5
l-156 -270zM1102 801l203 117l92 -156q16 -28 16 -60q0 -48 -27 -86q-26 -38 -61.5 -62t-64.5 -24zM334 598q-13 24 -17.5 34.5t-9 29.5t1 36.5t19.5 38.5l39 66l-60 35l238 39l80 -224l-56 35l-100 -170q-18 -30 -18 -67q0 -21 3.5 -40.5t7.5 -28.5l3 -9h-2zM903 379
l156 182v-65h192q47 0 70 18q18 10 33.5 23t21.5 21l6 7l2 -2l-133 -223q-16 -28 -26 -40.5t-33 -24t-57 -11.5h-76v-67zM629 264q-21 0 -60 17q-42 25 -63 65q-20 40 -22 83.5t12 66.5h317v-232h-184z" />
    <glyph glyph-name="uni26AC" unicode="&#x26ac;" horiz-adv-x="1316" 
d="M657 -20q-195 0 -333 79q-142 80 -219.5 220.5t-77.5 324.5q0 176 75 320q80 144 222 224.5t333 80.5q197 0 334 -80q145 -78 222 -218t77 -327q0 -177 -78 -321q-80 -144 -222 -223.5t-333 -79.5zM657 471q58 0 90.5 39t32.5 94q0 57 -32 96t-91 39t-92 -38.5t-33 -96.5
q0 -55 33.5 -94t91.5 -39z" />
    <glyph glyph-name="uni2E18" unicode="&#x2e18;" horiz-adv-x="342" 
d="M272 1214q38 0 50 -17.5t2 -78.5q-8 -45 -23.5 -63.5t-50.5 -18.5q-37 0 -47 19t-2 73q10 53 24.5 69.5t46.5 16.5zM39 -272q-88 0 -131.5 42.5t-26.5 129.5l162 913q9 57 78 92q67 35 74 72l8 53q30 -6 43 -6q21 0 45 6q-3 -10 -6 -41q-4 -21 -14 -81.5t-15 -88.5
l-172 -985q16 16 18 43l99 557h104l-100 -565q-12 -67 -49 -104t-117 -37zM-16 -111q-4 -34 4 -47l172 979q-14 -14 -17 -28z" />
    <glyph glyph-name="uni3008" unicode="&#x3008;" horiz-adv-x="188" 
d="M-76 -305l74 880l240 900h108l-240 -902l-71 -878h-111z" />
    <glyph glyph-name="uni3009" unicode="&#x3009;" horiz-adv-x="184" 
d="M-162 -305l238 897l76 883h106l-76 -883l-235 -897h-109z" />
    <glyph glyph-name="I.alt" horiz-adv-x="165" 
d="M-104 0l18 104h23l223 1264h-23l19 107h161l-18 -107h-23l-223 -1264h23l-19 -104h-161z" />
    <glyph glyph-name="Iacute.alt" horiz-adv-x="165" 
d="M262 1614h113l-94 -129h-86zM-104 0l18 104h23l223 1264h-23l19 107h161l-18 -107h-23l-223 -1264h23l-19 -104h-161z" />
    <glyph glyph-name="Ibreve.alt" horiz-adv-x="165" 
d="M248 1485q-58 0 -71.5 26t-2.5 95h76q-5 -26 -4.5 -34.5t10.5 -8.5q3 0 5 0.5t3.5 2t2 3.5t1 5.5t1 7.5t1.5 10.5t2 13.5h78q-11 -71 -30.5 -96t-71.5 -25zM-104 0l18 104h23l223 1264h-23l19 107h161l-18 -107h-23l-223 -1264h23l-19 -104h-161z" />
    <glyph glyph-name="Icircumflex.alt" horiz-adv-x="165" 
d="M250 1542l-27 -57h-80l86 153h74l31 -153h-78zM-104 0l18 104h23l223 1264h-23l19 107h161l-18 -107h-23l-223 -1264h23l-19 -104h-161z" />
    <glyph glyph-name="Idieresis.alt" horiz-adv-x="165" 
d="M195 1485q-27 0 -37 13.5t-4 45.5q6 35 17 46.5t38 11.5q26 0 35.5 -14t3.5 -48q-6 -33 -16.5 -44t-36.5 -11zM295 1485q-26 0 -35.5 13.5t-5.5 45.5q6 35 17 46.5t38 11.5q26 0 35.5 -14t3.5 -48q-6 -33 -16.5 -44t-36.5 -11zM-104 0l18 104h23l223 1264h-23l19 107h161
l-18 -107h-23l-223 -1264h23l-19 -104h-161z" />
    <glyph glyph-name="Idotaccent.alt" horiz-adv-x="165" 
d="M248 1485q-32 0 -43.5 15t-5.5 52t20.5 49.5t46.5 12.5q33 0 44.5 -14.5t4.5 -55.5q-7 -36 -21.5 -47.5t-45.5 -11.5zM-104 0l18 104h23l223 1264h-23l19 107h161l-18 -107h-23l-223 -1264h23l-19 -104h-161z" />
    <glyph glyph-name="Igrave.alt" horiz-adv-x="165" 
d="M150 1614h112l19 -129h-78zM-104 0l18 104h23l223 1264h-23l19 107h161l-18 -107h-23l-223 -1264h23l-19 -104h-161z" />
    <glyph glyph-name="Imacron.alt" horiz-adv-x="165" 
d="M190 1585h134l-19 -100h-133zM-104 0l18 104h23l223 1264h-23l19 107h161l-18 -107h-23l-223 -1264h23l-19 -104h-161z" />
    <glyph glyph-name="Iogonek.alt" horiz-adv-x="165" 
d="M82 -61q-7 -53 -36.5 -79t-70.5 -26q-42 0 -64 24t-17 60q3 47 47 82h-45l18 104h23l223 1264h-23l19 107h161l-18 -107h-23l-223 -1264h23l-19 -104q-36 -29 -54 -46t-19.5 -20.5t-3.5 -9.5q-2 -10 4 -10q7 0 10 25h88z" />
    <glyph glyph-name="Itilde.alt" horiz-adv-x="165" 
d="M293 1485q-15 0 -39 13t-29 13q-11 0 -14 -26h-59q10 73 26.5 99t44.5 26q18 0 40 -12.5t24 -12.5q9 0 12 21h61q-11 -72 -26.5 -96.5t-40.5 -24.5zM-104 0l18 104h23l223 1264h-23l19 107h161l-18 -107h-23l-223 -1264h23l-19 -104h-161z" />
    <glyph glyph-name="g.alt" horiz-adv-x="245" 
d="M-33 -311q-64 0 -86.5 33t-11.5 100l29 160h108l-31 -164q-3 -27 2 -27t11 27l43 243q-16 -67 -72 -67q-62 0 -47 84l180 1018q20 108 84 108q54 0 57 -61l25 55h84l-248 -1407q-20 -102 -127 -102zM33 96q7 0 10 25l170 964q7 21 -4 21q-5 0 -8 -21l-170 -962
q-3 -27 2 -27z" />
    <glyph glyph-name="gbreve.alt" horiz-adv-x="245" 
d="M248 1204q-58 0 -71.5 26t-2.5 95h76q-5 -26 -4.5 -34.5t10.5 -8.5q3 0 5 0.5t3.5 2t2 3.5t1 5.5t1 7.5t1.5 10.5t2 13.5h78q-11 -71 -30.5 -96t-71.5 -25zM-33 -311q-64 0 -86.5 33t-11.5 100l29 160h108l-31 -164q-3 -27 2 -27t11 27l43 243q-16 -67 -72 -67
q-62 0 -47 84l180 1018q20 108 84 108q54 0 57 -61l25 55h84l-248 -1407q-20 -102 -127 -102zM33 96q7 0 10 25l170 964q7 21 -4 21q-5 0 -8 -21l-170 -962q-3 -27 2 -27z" />
    <glyph glyph-name="gcircumflex.alt" horiz-adv-x="245" 
d="M248 1268l-27 -58h-80l86 154h74l31 -154h-78zM-33 -311q-64 0 -86.5 33t-11.5 100l29 160h108l-31 -164q-3 -27 2 -27t11 27l43 243q-16 -67 -72 -67q-62 0 -47 84l180 1018q20 108 84 108q54 0 57 -61l25 55h84l-248 -1407q-20 -102 -127 -102zM33 96q7 0 10 25
l170 964q7 21 -4 21q-5 0 -8 -21l-170 -962q-3 -27 2 -27z" />
    <glyph glyph-name="gcommaaccent.alt" horiz-adv-x="245" 
d="M236 1202q-60 0 -48 64q7 41 29 58t88 17l-6 -38q-58 0 -61 -17q6 2 16 2q25 0 33.5 -10t3.5 -33q-2 -23 -14 -33t-41 -10zM-33 -311q-64 0 -86.5 33t-11.5 100l29 160h108l-31 -164q-3 -27 2 -27t11 27l43 243q-16 -67 -72 -67q-62 0 -47 84l180 1018q20 108 84 108
q54 0 57 -61l25 55h84l-248 -1407q-20 -102 -127 -102zM33 96q7 0 10 25l170 964q7 21 -4 21q-5 0 -8 -21l-170 -962q-3 -27 2 -27z" />
    <glyph glyph-name="gdotaccent.alt" horiz-adv-x="245" 
d="M236 1204q-32 0 -44 15.5t-6 52.5t21 49t47 12q33 0 44.5 -14t4.5 -55q-7 -37 -21.5 -48.5t-45.5 -11.5zM-33 -311q-64 0 -86.5 33t-11.5 100l29 160h108l-31 -164q-3 -27 2 -27t11 27l43 243q-16 -67 -72 -67q-62 0 -47 84l180 1018q20 108 84 108q54 0 57 -61l25 55h84
l-248 -1407q-20 -102 -127 -102zM33 96q7 0 10 25l170 964q7 21 -4 21q-5 0 -8 -21l-170 -962q-3 -27 2 -27z" />
    <glyph glyph-name="g.alt2" 
d="M141 0q-8 -55 -40.5 -79.5t-104.5 -24.5h-8q-71 0 -93.5 18t-17.5 49q5 21 21.5 30.5t54.5 10.5q-56 9 -47 59q13 55 88 58q-69 12 -60 78l160 903q14 80 88 94l11 2q29 6 36.5 13.5t12.5 29.5l2 10h110l-4 -24q-4 -24 -21.5 -30.5t-66.5 -4.5q38 -7 54 -31.5t10 -60.5
l-158 -893q-15 -98 -121 -98h-27q-16 0 -16 -5q0 -4 14 -4h35q53 0 74 -24t14 -76zM51 205q4 0 5.5 3t2.5 15v2l152 860q7 21 -2 21q-2 0 -2.5 -0.5l-1 -1t-1.5 -2.5t-1.5 -3.5t-1.5 -5.5l-2 -8l-152 -860q-2 -20 4 -20zM20 -8h13q10 -1 12 4q1 1 -3 3q-7 3 -22 3h-26
q-19 0 -19 -4q-1 -4 2.5 -5t22.5 -1h20z" />
    <glyph glyph-name="i.dot" horiz-adv-x="124" 
d="M166 1186q-36 0 -44.5 21t1.5 65q7 41 21.5 55t45.5 14q37 0 46 -13.5t2 -65.5q-7 -48 -21.5 -62t-50.5 -14zM111 1196q13 -22 55 -22q44 0 57 22l-211 -1196h-112z" />
    <glyph glyph-name="zero.inf" horiz-adv-x="159" 
d="M-84 -358q-35 0 -56 20.5t-14 56.5l109 605q13 69 78 69q37 0 56 -21t13 -59l-108 -606q-12 -65 -78 -65zM-80 -295q4 0 8 19l105 598q3 10 -4 10q-3 0 -6 -10l-105 -596q-7 -21 2 -21z" />
    <glyph glyph-name="one.inf" horiz-adv-x="137" 
d="M-166 -348l12 69h31l98 551h-26l10 60q32 2 47 61h62l-119 -672h35l-13 -69h-137z" />
    <glyph glyph-name="two.inf" horiz-adv-x="157" 
d="M-143 -233q15 86 77 180q2 4 12 19.5t13 20.5t10 18.5t10 22t7 20.5t6 24l41 241q3 11 3.5 16t-0.5 6t-5 1q-2 0 -8 -23l-48 -268h-69l51 283q13 69 78 69q81 0 69 -80l-43 -243q-12 -76 -67 -152q-55 -88 -66 -155l-6 -37h78l-14 -78h-150z" />
    <glyph glyph-name="three.inf" horiz-adv-x="157" 
d="M-78 -354q-87 0 -72 82l37 211h70l-37 -209q-7 -21 2 -21q4 0 8 19l47 262q3 10 -10 10h-28l14 74h27q12 0 12 8l41 231q3 11 3.5 16t-0.5 6t-5 1q-2 0 -8 -23l-33 -194h-70l35 205q11 73 78 73q83 0 71 -78l-43 -241q-3 -28 -28 -37q17 -7 14 -39l-49 -295
q-10 -61 -76 -61z" />
    <glyph glyph-name="four.inf" horiz-adv-x="165" 
d="M0 -219l-23 -129h-63l23 129h-78l10 59l164 553h73l-94 -545h21l-10 -67h-23zM-68 -152h17l10 58l82 368l-90 -366z" />
    <glyph glyph-name="five.inf" horiz-adv-x="157" 
d="M-84 -354q-37 0 -55.5 22.5t-12.5 55.5l41 241h70l-41 -237q-4 -19 2 -19q4 0 8 19l56 315q3 18 0 18q-5 -2 -7 -8l-20 -41l-59 8l84 373h135l-6 -39q-6 -36 -20 -45.5t-56 -9.5h-6l-58 -246q20 56 33 74t33 18q38 0 26 -51l-69 -387q-9 -61 -78 -61z" />
    <glyph glyph-name="six.inf" horiz-adv-x="159" 
d="M-4 -293q-11 -61 -76 -61q-36 0 -56.5 19.5t-13.5 60.5l105 604q10 67 80 67q39 0 56.5 -20t12.5 -51l-34 -205h-70l33 192q3 11 3.5 16t-0.5 6t-5 1q-2 0 -8 -23l-48 -270q12 45 45 45q47 0 35 -51zM-78 -291q4 0 8 19l54 297q0 8 -4 8q-6 0 -9 -8l-51 -295
q-7 -21 2 -21z" />
    <glyph glyph-name="seven.inf" horiz-adv-x="137" 
d="M-145 -348q42 193 61 278q41 184 102 379h-69l14 84h137l-12 -71q-44 -161 -49 -185q-31 -118 -102 -485h-82z" />
    <glyph glyph-name="eight.inf" horiz-adv-x="155" 
d="M-82 -354q-41 0 -58.5 20.5t-9.5 59.5l50 282q3 31 32 41q-19 14 -16 49l41 238q12 61 72 61q37 0 57 -19t14 -56l-41 -230q-3 -32 -32 -45q25 -13 16 -47l-51 -293q-9 -61 -74 -61zM-12 76q5 0 8 20l37 217q3 11 3.5 16t-0.5 6t-5 1q-2 0 -8 -23l-37 -217q-2 -20 2 -20z
M-78 -291q4 0 8 19l50 280q2 10 -5 10q-3 0 -6 -10l-49 -278q-3 -21 2 -21z" />
    <glyph glyph-name="nine.inf" horiz-adv-x="157" 
d="M-82 -354q-36 0 -56.5 19.5t-13.5 60.5l35 202h70l-35 -198q-7 -21 2 -21q4 0 8 19l49 278q-12 -45 -43 -45q-22 0 -31.5 13t-4.5 34l57 326q10 63 78 63q39 0 56.5 -20t12.5 -51l-108 -619q-11 -61 -76 -61zM-25 16q5 0 5 7l51 290q3 11 3.5 16t-0.5 6t-5 1q-3 0 -9 -23
l-47 -276q-3 -21 2 -21z" />
    <glyph glyph-name="underscore" horiz-adv-x="272" 
d="M-84 102h264l-18 -102h-264z" />
    <glyph glyph-name="backslash.cap" horiz-adv-x="198" 
d="M147 1475h115l-164 -1475h-114z" />
    <glyph glyph-name="periodcentered.cap" horiz-adv-x="131" 
d="M76 670q-37 0 -45.5 15t0.5 73q10 59 23.5 74.5t51.5 15.5q40 0 50 -16t0 -74q-10 -54 -26 -71t-54 -17z" />
    <glyph glyph-name="bullet.cap" horiz-adv-x="196" 
d="M113 637q-102 0 -78 121q11 53 34 75.5t70 22.5q54 0 72.5 -26.5t7.5 -86.5q-10 -59 -34 -82.5t-72 -23.5z" />
    <glyph glyph-name="uni2016.cap" horiz-adv-x="251" 
d="M172 1542h115l-281 -1591h-115zM299 1542h113l-281 -1591h-113z" />
    <glyph glyph-name="exclamdown.cap" horiz-adv-x="133" 
d="M215 1481q38 0 49.5 -18t1.5 -79q-8 -45 -23.5 -63t-49.5 -18q-37 0 -47 19t-3 73q10 52 25 69t47 17zM231 1298q0 -95 -20 -208l-191 -1090h-120l190 1090q8 45 20.5 93.5t22 79.5t10.5 35q42 -6 52 -6q12 0 36 6z" />
    <glyph glyph-name="uni2E18.cap" horiz-adv-x="342" 
d="M319 1481q38 0 50 -18t2 -79q-8 -45 -23.5 -63t-50.5 -18q-37 0 -47 19t-2 73q10 53 24.5 69.5t46.5 16.5zM86 -6q-88 0 -131.5 42.5t-26.5 129.5l162 913q9 57 78 92q67 35 74 72l8 53q30 -6 43 -6q21 0 45 6q-3 -10 -6 -41q-4 -21 -14 -81.5t-15 -88.5l-172 -985
q16 16 19 43l98 557h104l-100 -565q-12 -67 -49 -104t-117 -37zM31 156q-4 -34 4 -47l172 978q-14 -14 -17 -28z" />
    <glyph glyph-name="questiondown.cap" horiz-adv-x="253" 
d="M279 1481q38 0 49.5 -18t1.5 -79q-8 -45 -23.5 -63t-50.5 -18q-37 0 -47 19t-2 73q10 52 25 69t47 17zM246 944q-4 -27 -16.5 -47.5t-41.5 -54.5q-27 -32 -36 -58l-119 -675q-4 -15 4 -15q4 0 8 15l121 688h113l-123 -709q-8 -42 -37.5 -68t-81.5 -26q-63 0 -96 30.5
t-23 84.5l117 663q9 48 55 105q27 33 35 49.5t14 52.5l58 326q13 -13 55 -13q38 0 57 15z" />
    <glyph glyph-name="slash.cap" horiz-adv-x="198" 
d="M244 1475h114l-356 -1475h-115z" />
    <glyph glyph-name="uni3008.cap" horiz-adv-x="188" 
d="M-57 -203l73 881l240 899h109l-240 -901l-72 -879h-110z" />
    <glyph glyph-name="uni3009.cap" horiz-adv-x="184" 
d="M-143 -203l237 897l76 883h106l-75 -883l-236 -897h-108z" />
    <glyph glyph-name="braceleft.cap" horiz-adv-x="184" 
d="M-29 -201q-97 0 -77 105l49 213q15 57 80 323q47 180 49 201q4 26 -3.5 35.5t-31.5 9.5h-17l21 121h16q24 0 36 10.5t16 38.5q6 28 8 78q7 71 28 303q16 173 27 236q22 104 102 104h78l-18 -98h-27q-23 0 -26 -23q-1 -4 -2.5 -14.5l-4 -28t-4.5 -33.5q-29 -291 -30 -301
q-15 -171 -27 -235q-7 -51 -28 -70.5t-56 -21.5l-2 -11q34 -2 48.5 -20t4.5 -64q-12 -63 -49 -219q-15 -57 -80 -323q-42 -172 -45 -197q-3 -22 21 -22h26l-16 -97h-66z" />
    <glyph glyph-name="braceright.cap" horiz-adv-x="184" 
d="M-121 -104h29q23 0 26 22q0 4 4 34t9.5 74t9.5 87q17 170 37 321q16 169 26 213q10 51 29 69.5t53 20.5l2 11q-33 2 -45.5 20.5t-5.5 71.5q1 7 4 19t8 33.5t9 37.5q6 23 34 135t46 174q52 203 53 217q3 23 -21 23h-28l18 98h64q47 0 68 -27.5t11 -76.5q-1 -11 -20 -91
q-6 -21 -35 -133.5t-47 -177.5l-55 -219q-4 -28 4.5 -38.5t30.5 -10.5h16l-20 -121h-17q-43 0 -51 -45q0 -2 -4.5 -33.5t-9.5 -76t-9 -89.5q-5 -49 -17 -158t-17 -163q-17 -177 -25 -213q-20 -105 -111 -105h-69z" />
    <glyph glyph-name="bracketleft.cap" horiz-adv-x="167" 
d="M23 -201h-158l313 1778h158l-19 -111h-45l-274 -1556h45z" />
    <glyph glyph-name="bracketright.cap" horiz-adv-x="167" 
d="M-137 -201l20 111h45l275 1556h-45l18 111h158l-314 -1778h-157z" />
    <glyph glyph-name="parenleft.cap" horiz-adv-x="172" 
d="M27 -201q-91 0 -122 32.5t-14 121.5l265 1497q17 85 54.5 112t131.5 27l-20 -114q-30 0 -40 -6.5t-14 -30.5l-262 -1485q-4 -22 5 -29.5t36 -7.5z" />
    <glyph glyph-name="parenright.cap" horiz-adv-x="172" 
d="M-117 -84q28 0 39 6.5t15 30.5l262 1485q4 22 -5.5 29.5t-35.5 7.5l20 114q89 0 120.5 -31.5t14.5 -119.5l-264 -1499q-13 -84 -51 -112t-135 -28z" />
    <glyph glyph-name="parenleft.inf" horiz-adv-x="96" 
d="M-82 -412q-49 0 -68 15.5t-12 56.5l123 698q7 41 29 54.5t76 13.5l-13 -72q-14 0 -19 -4.5t-9 -21.5l-115 -650q-2 -9 1 -12.5t19 -3.5z" />
    <glyph glyph-name="parenright.inf" horiz-adv-x="98" 
d="M-164 -336q24 0 27 17l117 661q2 11 -1 12.5t-20 1.5l12 72q51 0 69.5 -16t8.5 -66l-121 -682q-7 -46 -28 -60t-76 -14z" />
    <glyph glyph-name="emdash.cap" horiz-adv-x="200" 
d="M41 821h195l-19 -110h-194z" />
    <glyph glyph-name="endash.cap" horiz-adv-x="151" 
d="M41 821h145l-18 -110h-145z" />
    <glyph glyph-name="figuredash.cap" horiz-adv-x="233" 
d="M41 821h227l-18 -110h-227z" />
    <glyph glyph-name="uni2015.cap" horiz-adv-x="315" 
d="M41 821h309l-18 -110h-309z" />
    <glyph glyph-name="hyphen.cap" horiz-adv-x="180" 
d="M41 821h174l-18 -110h-174z" />
    <glyph glyph-name="guillemotleft.cap" horiz-adv-x="317" 
d="M80 516l-62 182v2l125 168h97l-127 -182l57 -170h-90zM197 516l-56 164l2 12l127 176h95l-132 -188l58 -164h-94z" />
    <glyph glyph-name="guillemotright.cap" horiz-adv-x="317" 
d="M113 705v6l-56 157h93l57 -159l-2 -13l-119 -180h-102zM233 696l3 6l-60 166h96l62 -178v-2l-119 -172h-102z" />
    <glyph glyph-name="guilsinglleft.cap" horiz-adv-x="196" 
d="M70 516l-56 172v2l119 178h111l-125 -184l59 -168h-108z" />
    <glyph glyph-name="guilsinglright.cap" horiz-adv-x="200" 
d="M-16 516l129 182l-54 170h105l53 -178v-2l-117 -172h-116z" />
    <glyph glyph-name="space_dotbelowcomb" horiz-adv-x="129" 
d="M-63 -137q-35 0 -45.5 15t-4.5 52t21 49.5t47 12.5q33 0 44.5 -14.5t4.5 -55.5q-7 -39 -21 -49t-46 -10z" />
    <glyph glyph-name="uni00200326" horiz-adv-x="118" 
d="M-96 2q58 0 61 16q-3 0 -8.5 -1t-9.5 -1q-44 0 -35 47q4 23 16 31t41 8q31 0 41 -11.5t4 -45.5q-8 -50 -29 -66t-89 -16z" />
    <glyph glyph-name="uni00200326.alt" horiz-adv-x="108" 
d="M172 1227q-32 0 -42.5 15t-4.5 48q7 41 29 58.5t88 17.5l-6 -39q-59 0 -62 -16q6 2 16 2q25 0 33.5 -10t3.5 -33q-2 -23 -14 -33t-41 -10z" />
    <glyph glyph-name="plus.inf" horiz-adv-x="141" 
d="M0 -8l-8 -43h-66l8 43h-38l12 67h37l8 43h65l-8 -43h35l-12 -67h-33z" />
    <glyph glyph-name="minus.inf" horiz-adv-x="141" 
d="M-92 59h137l-12 -69h-137z" />
    <glyph glyph-name="equal.inf" horiz-adv-x="135" 
d="M-90 74h129l-10 -62h-129zM-102 4h129l-11 -61h-129z" />
    <glyph glyph-name="at.cap" horiz-adv-x="399" 
d="M86 -158q-103 0 -149 53t-29 150l198 1122q26 162 205 162q96 0 148 -47t35 -135l-203 -1112q-12 -78 -90 -78q-72 0 -86 47q-15 -47 -62 -47q-61 0 -49 68l205 1134q10 60 59 60q46 0 49 -39l23 37h57q-23 30 -92 30q-49 0 -73 -22.5t-35 -71.5l-205 -1120
q-10 -58 15 -83.5t83 -25.5q52 0 68 29h108q-43 -111 -180 -111zM199 31q8 0 10 20l199 1092q8 35 -2 59l-209 -1151q-3 -20 2 -20zM98 33q5 0 8 12l199 1090q3 12 -4 12q-5 0 -8 -14l-197 -1086q-4 -14 2 -14z" />
    <glyph glyph-name="registered.cap" horiz-adv-x="432" 
d="M123 -6q-111 0 -160 56.5t-31 148.5l193 1087q17 98 73 146.5t156 48.5q103 0 154.5 -54.5t34.5 -150.5l-193 -1096q-33 -186 -227 -186zM231 127q21 33 23 66l190 1077q11 62 -11.5 90.5t-86.5 28.5q-34 0 -63 -13h86q38 0 55.5 -22.5t11.5 -59.5l-96 -530
q-9 -38 -37 -51q30 -10 21 -56l-93 -518v-12zM35 207q-9 -47 0 -72l213 1211q-21 -33 -23 -62zM342 1286q2 10 -10 10l-96 -540h4q8 0 12 18zM137 88q41 0 70 16h-66q-4 13 -2 33l90 506q3 17 2 20t-10 3h-2l-98 -562h-66q26 -16 82 -16z" />
    <glyph glyph-name="bar.cap" horiz-adv-x="124" 
d="M172 1542h113l-289 -1636h-113z" />
    <glyph glyph-name="brokenbar.cap" horiz-adv-x="124" 
d="M172 1542h113l-140 -788h-112zM29 733h112l-145 -827h-113z" />
    <glyph glyph-name="Aumlaut" horiz-adv-x="239" 
d="M143 1276q-1 0 -2 0.5t-1.5 2t-0.5 4.5v8t1 11.5t2 16.5t3 22.5t5 28.5q9 49 14 73t7.5 29t6.5 5q3 0 4 -6t-2 -30t-12 -71q-15 -94 -25 -94zM336 1276q-3 0 -4.5 2.5t-1 12.5t3 27.5t8.5 51.5q7 39 11 60t7.5 31.5t5.5 13t5 2.5t3.5 -2.5t0 -13t-4 -32t-10.5 -59.5
q-11 -65 -14.5 -79.5t-9.5 -14.5zM51 152h-20l-29 -152h-108l303 1475h153l-213 -1475h-110zM55 274h17l43 261l135 786l-144 -786z" />
    <glyph glyph-name="Oumlaut" horiz-adv-x="249" 
d="M29 -6q-63 0 -90.5 36t-16.5 97l219 1241q20 113 123 113q62 0 91.5 -34.5t19.5 -98.5l-217 -1233q-11 -61 -41 -91t-88 -30zM162 1446q-15 0 -12 16q3 19 16 19t10 -19q-3 -16 -14 -16zM369 1446q-16 0 -13 16q3 19 17 19q13 0 10 -19q-3 -16 -14 -16zM39 102q4 0 8 19
l219 1243q3 16 -4 16q-5 0 -8 -16l-217 -1231q-3 -31 2 -31z" />
    <glyph glyph-name="Uumlaut" horiz-adv-x="299" 
d="M61 -6q-78 0 -113 42t-22 120l232 1319h112l-233 -1332q-10 -43 29 -43q21 0 30 33l236 1342h112l-237 -1356q-17 -125 -146 -125zM152 700q-10 0 0 56l55 317q48 278 61 344q12 58 19 58q9 0 0 -58q-2 -17 -58 -344q-17 -99 -35.5 -199t-21.5 -118q-12 -56 -20 -56z
M180 700q-10 0 0 56q7 58 53 317q32 187 64 344q9 58 18 58q7 0 0 -58l-59 -344q-50 -285 -57 -317q-10 -56 -19 -56z" />
    <glyph glyph-name="cordinal" horiz-adv-x="192" 
d="M121 670q-49 0 -69.5 28.5t-12.5 75.5l108 621q15 91 103 88q91 -3 76 -103l-47 -266h-84l51 285q2 12 1 14t-5 2q-6 0 -9 -16l-112 -639q-3 -17 4 -17q5 0 8 17l53 307h84l-53 -305q-16 -92 -96 -92z" />
    <glyph glyph-name="caronSlovak" horiz-adv-x="131" 
d="M145 1352h35l-76 -250h-12z" />
    <glyph glyph-name="altcedilla" horiz-adv-x="196" 
d="M-33 -193q-56 0 -78 24t-20 67h94q0 -15 14 -15q17 0 17 17q0 12 -17 12h-38l10 65h57q87 0 72 -86q-12 -84 -111 -84z" />
    <glyph glyph-name="doublegrave" horiz-adv-x="198" 
d="M133 1356h90l13 -129h-64zM227 1356h88l-2 -129h-61z" />
    <glyph glyph-name="invertedbreve" horiz-adv-x="188" 
d="M117 1227q13 71 33.5 98t72.5 27q53 0 67.5 -28t2.5 -97h-76q3 16 4 25t0.5 14t-2.5 6.5t-6 1.5q-7 0 -10.5 -8t-9.5 -39h-76z" />
    <glyph glyph-name="onethirdemdash" horiz-adv-x="151" 
d="M12 653h146l-21 -110h-145z" />
    <glyph glyph-name="threequarteremdash" horiz-adv-x="200" 
d="M12 653h195l-21 -110h-194z" />
    <glyph glyph-name="onethirdemdash.cap" horiz-adv-x="180" 
d="M41 821h174l-18 -110h-174z" />
    <glyph glyph-name="threequarteremdash.cap" horiz-adv-x="172" 
d="M41 821h166l-19 -110h-165z" />
    <glyph glyph-name="onesixteenth" horiz-adv-x="444" 
d="M25 733l12 70h31l98 551h-27l11 59q32 2 47 62h61l-119 -672h35l-12 -70h-137zM176 760l178 713l101 -11l-271 -704zM342 55q-11 -61 -76 -61q-36 0 -56 19.5t-13 60.5l104 604q10 67 80 67q39 0 57 -20t13 -51l-35 -205h-70l33 193q2 8 3 12.5t0.5 6.5t-1.5 2.5t-3 0.5
h-1q-2 0 -8 -22l-47 -271q12 45 45 45q46 0 34 -51zM43 0l12 70h31l98 551h-26l10 59q32 2 47 61h61l-118 -671h35l-13 -70h-137zM-117 20l281 709l8 -2l-190 -727zM268 57q4 0 8 19l54 297q0 8 -4 8q-6 0 -9 -8l-51 -295q-7 -21 2 -21z" />
    <glyph glyph-name="threesixteenths" horiz-adv-x="458" 
d="M113 727q-87 0 -72 82l37 211h69l-36 -209q-7 -20 2 -20q4 0 8 18l47 262q2 10 -10 10h-29l14 74h27q12 0 12 8l41 232q2 8 3 12.5t0.5 6.5t-1.5 2.5t-3 0.5h-1q-2 0 -8 -22l-33 -195h-69l34 205q11 74 78 74q84 0 72 -78l-43 -242q-3 -27 -29 -37q18 -8 15 -39l-50 -295
q-10 -61 -75 -61zM190 760l179 713l100 -11l-270 -704zM356 55q-11 -61 -75 -61q-36 0 -56.5 19.5t-13.5 60.5l104 604q10 67 80 67q39 0 57 -20t13 -51l-35 -205h-70l33 193q2 8 3 12.5t0.5 6.5t-1.5 2.5t-3 0.5h-1q-2 0 -8 -22l-47 -271q12 45 45 45q47 0 35 -51zM57 0
l13 70h30l99 551h-27l10 59q32 2 47 61h62l-119 -671h35l-12 -70h-138zM-102 20l280 709l8 -2l-190 -727zM283 57q4 0 8 19l53 297q0 8 -4 8q-5 0 -8 -8l-51 -295q-7 -21 2 -21z" />
    <glyph glyph-name="fivesixteenths" horiz-adv-x="456" 
d="M106 727q-37 0 -55 22.5t-12 55.5l41 242h70l-41 -238q-4 -18 2 -18q4 0 8 18l55 315q3 19 0 19q-4 -2 -6 -8l-21 -41l-59 8l84 373h135l-6 -39q-6 -36 -20 -46t-56 -10h-6l-57 -245q21 57 33 74.5t32 17.5q39 0 27 -51l-70 -388q-9 -61 -78 -61zM188 760l179 713
l100 -11l-270 -704zM354 55q-11 -61 -75 -61q-36 0 -56.5 19.5t-13.5 60.5l104 604q10 67 80 67q39 0 57 -20t13 -51l-35 -205h-70l33 193q2 8 3 12.5t0.5 6.5t-1.5 2.5t-3 0.5h-1q-2 0 -8 -22l-47 -271q12 45 45 45q47 0 35 -51zM55 0l13 70h30l99 551h-27l10 59
q32 2 47 61h62l-119 -671h35l-12 -70h-138zM-104 20l280 709l8 -2l-190 -727zM281 57q4 0 8 19l53 297q0 8 -4 8q-5 0 -8 -8l-51 -295q-7 -21 2 -21z" />
    <glyph glyph-name="sevensixteenths" horiz-adv-x="440" 
d="M45 733q48 221 61 279q39 172 103 379h-70l15 84h137l-12 -72q-5 -20 -16 -57t-19.5 -68t-14.5 -59q-30 -115 -102 -486h-82zM172 760l178 713l101 -11l-271 -704zM338 55q-11 -61 -76 -61q-36 0 -56 19.5t-13 60.5l104 604q10 67 80 67q39 0 56.5 -20t12.5 -51l-34 -205
h-70l33 193q2 8 3 12.5t0.5 6.5t-1.5 2.5t-3 0.5h-1q-2 0 -8 -22l-48 -271q12 45 45 45q47 0 35 -51zM39 0l12 70h31l98 551h-26l10 59q32 2 47 61h61l-118 -671h34l-12 -70h-137zM-121 20l281 709l8 -2l-191 -727zM264 57q4 0 8 19l54 297q0 8 -4 8q-6 0 -9 -8l-51 -295
q-7 -21 2 -21z" />
    <glyph glyph-name="ninesixteenths" horiz-adv-x="456" 
d="M109 727q-36 0 -56.5 19.5t-13.5 60.5l35 203h69l-34 -199q-7 -20 2 -20q4 0 8 18l49 278q-12 -45 -43 -45q-23 0 -32.5 13.5t-4.5 34.5l57 325q10 64 78 64q39 0 57 -20.5t13 -51.5l-109 -619q-11 -61 -75 -61zM188 760l179 713l100 -11l-270 -704zM166 1098q4 0 4 6
l51 291q2 8 3 12.5t0.5 6.5t-1.5 2.5t-3 0.5h-1q-2 0 -8 -22l-47 -277q-3 -20 2 -20zM354 55q-11 -61 -75 -61q-36 0 -56.5 19.5t-13.5 60.5l104 604q10 67 80 67q39 0 57 -20t13 -51l-35 -205h-70l33 193q2 8 3 12.5t0.5 6.5t-1.5 2.5t-3 0.5h-1q-2 0 -8 -22l-47 -271
q12 45 45 45q47 0 35 -51zM55 0l13 70h30l99 551h-27l10 59q32 2 47 61h62l-119 -671h35l-12 -70h-138zM-104 20l280 709l8 -2l-190 -727zM281 57q4 0 8 19l53 297q0 8 -4 8q-5 0 -8 -8l-51 -295q-7 -21 2 -21z" />
    <glyph glyph-name="elevensixteenths" horiz-adv-x="587" 
d="M23 733l12 70h33l96 551h-25l11 59q18 1 27.5 16.5t19.5 45.5h61l-119 -672h33l-12 -70h-137zM166 733l12 70h33l96 551h-24l10 59q18 1 27.5 16.5t19.5 45.5h61l-118 -672h32l-12 -70h-137zM319 760l179 713l100 -11l-270 -704zM487 55q-11 -61 -75 -61
q-36 0 -56.5 19.5t-13.5 60.5l104 604q10 67 80 67q39 0 57 -20t13 -51l-35 -205h-69l32 193q2 8 3 12.5t0.5 6.5t-1.5 2.5t-3 0.5h-1q-2 0 -8 -22l-47 -271q12 45 45 45q47 0 35 -51zM184 0l13 70h32l99 551h-27l10 59q32 2 47 61h62l-119 -671h33l-12 -70h-138zM27 20
l280 709l8 -2l-190 -727zM414 57q4 0 8 19l53 297q0 8 -4 8q-5 0 -8 -8l-51 -295q-2 -21 2 -21z" />
    <glyph glyph-name="thirteensixteenths" horiz-adv-x="598" 
d="M252 725q-87 0 -72 82l37 211h70l-37 -209q-7 -21 2 -21q4 0 8 19l47 262q3 10 -10 10h-29l15 74h26q13 0 13 8l40 232q2 8 3 12.5t0.5 6.5t-1.5 2.5t-3 0.5h-1q-2 0 -8 -22l-33 -195h-69l35 205q11 74 77 74q84 0 72 -78l-43 -242q-3 -27 -29 -37q18 -8 15 -39l-49 -295
q-10 -61 -76 -61zM25 733l12 70h31l98 551h-27l11 59q32 2 47 62h61l-119 -672h35l-12 -70h-137zM330 760l178 713l100 -11l-270 -704zM496 55q-11 -61 -76 -61q-36 0 -56.5 19.5t-13.5 60.5l105 604q10 67 80 67q39 0 56.5 -20t12.5 -51l-35 -205h-69l32 193q2 8 3 12.5
t0.5 6.5t-1.5 2.5t-3 0.5h-1q-2 0 -8 -22l-47 -271q12 45 45 45q47 0 35 -51zM197 0l12 70h31l98 551h-27l11 59q32 2 47 61h61l-119 -671h35l-12 -70h-137zM37 20l280 709l9 -2l-191 -727zM422 57q4 0 8 19l53 297q0 8 -4 8q-5 0 -8 -8l-51 -295q-7 -21 2 -21z" />
    <glyph glyph-name="fifteensixteenths" horiz-adv-x="598" 
d="M25 733l12 70h31l98 551h-27l11 59q32 2 47 62h61l-119 -672h35l-12 -70h-137zM246 727q-37 0 -55.5 22.5t-12.5 55.5l41 242h70l-41 -238q-4 -18 2 -18q4 0 8 18l55 315q3 19 0 19q-4 -2 -6 -8l-20 -41l-60 8l84 373h135l-6 -39q-6 -36 -19.5 -46t-55.5 -10h-7l-57 -245
q20 56 33 74t33 18q38 0 26 -51l-69 -388q-9 -61 -78 -61zM328 760l178 713l100 -11l-270 -704zM496 55q-11 -61 -76 -61q-36 0 -56.5 19.5t-13.5 60.5l105 604q10 67 80 67q39 0 56.5 -20t12.5 -51l-35 -205h-69l32 193q2 8 3 12.5t0.5 6.5t-1.5 2.5t-3 0.5h-1q-2 0 -8 -22
l-47 -271q12 45 45 45q47 0 35 -51zM197 0l12 70h31l98 551h-27l11 59q32 2 47 61h61l-119 -671h35l-12 -70h-137zM35 20l280 709l9 -2l-191 -727zM422 57q4 0 8 19l53 297q0 8 -4 8q-5 0 -8 -8l-51 -295q-7 -21 2 -21z" />
    <glyph glyph-name="mediumblackcircle" horiz-adv-x="1316" 
d="M657 -20q-195 0 -333 79q-142 80 -219.5 220.5t-77.5 324.5q0 176 75 320q80 144 222 224.5t333 80.5q197 0 334 -80q145 -78 222 -218t77 -327q0 -177 -78 -321q-80 -144 -222 -223.5t-333 -79.5z" />
    <glyph glyph-name="ballotboxwithx" horiz-adv-x="1431" 
d="M106 1212h1219v-1212h-1219v1212zM848 471v272h-266v-272h266zM717 580l-76 -78l-29 28l78 80l-76 78l29 31l76 -80l76 78l30 -25l-80 -82l78 -82l-28 -28z" />
    <glyph glyph-name="ttfautohint" horiz-adv-x="206" 
 />
    </font>
</defs>
</svg>
