<?xml version="1.0" standalone="no"?>
<!DOCTYPE svg PUBLIC "-//W3C//DTD SVG 1.1//EN" "http://www.w3.org/Graphics/SVG/1.1/DTD/svg11.dtd" >
<svg xmlns="http://www.w3.org/2000/svg" xmlns:xlink="http://www.w3.org/1999/xlink" version="1.1">
<metadata>
Created by FontForge 20201107 at Thu Aug 14 22:37:28 2025
 By 
C 2016 Sharp Type Corporation
</metadata>
<defs>
<font id="SharpGrotesk-BoldItalic15" horiz-adv-x="911" >
  <font-face 
    font-family="Sharp Grotesk Bold Italic 15"
    font-weight="700"
    font-style="italic"
    font-stretch="semi-condensed"
    units-per-em="2048"
    panose-1="0 0 8 6 0 0 0 0 0 0"
    ascent="1638"
    descent="-410"
    x-height="1198"
    cap-height="1475"
    bbox="-266 -604 2395.96 2144"
    underline-thickness="102"
    underline-position="-153"
    unicode-range="U+0020-3009"
  />
<missing-glyph horiz-adv-x="399" 
 />
    <glyph glyph-name=".notdef" horiz-adv-x="399" 
 />
    <glyph glyph-name=".null" horiz-adv-x="0" 
 />
    <glyph glyph-name="nonmarkingreturn" horiz-adv-x="682" 
 />
    <glyph glyph-name="space" unicode=" " horiz-adv-x="399" 
 />
    <glyph glyph-name="exclam" unicode="!" horiz-adv-x="512" 
d="M109 426q-11 25 2 209q13 197 49 407l76 433h356l-76 -433q-33 -194 -94 -405q-50 -180 -72 -211q-38 12 -119 12q-85 0 -122 -12zM154 -16q-107 0 -141 43.5t-11 162.5q14 73 37 117q25 38 66.5 54t113.5 16q106 0 140.5 -45t11.5 -168q-11 -66 -37 -113
q-24 -37 -65 -52t-115 -15z" />
    <glyph glyph-name="quotedbl" unicode="&#x22;" horiz-adv-x="759" 
d="M156 973q0 14 4 112q12 199 41 353l6 37h293l-6 -37q-12 -72 -39 -185q-54 -212 -84 -280h-215zM530 973q0 63 2 112q12 199 41 353l7 37h292l-6 -37q-12 -72 -39 -185q-54 -212 -84 -280h-213z" />
    <glyph glyph-name="numbersign" unicode="#" horiz-adv-x="1325" 
d="M659 315h-163l-86 -315h-318l86 315h-184l49 279h211l84 305h-199l49 279h226l80 297h317l-80 -297h164l80 297h317l-80 -297h181l-50 -279h-206l-84 -305h194l-49 -279h-221l-86 -315h-318zM819 899h-164l-84 -305h164z" />
    <glyph glyph-name="dollar" unicode="$" horiz-adv-x="888" 
d="M150 -201l34 199q-133 37 -176.5 140.5t-13.5 273.5l26 147h349l-31 -178q-10 -63 2.5 -86t52.5 -23t59 22t27 68l13 64q11 59 -11 102q-21 39 -58.5 69.5t-98.5 68.5q-62 40 -111 86q-123 107 -90 311l12 72q28 162 109 247t213 109l35 197h317l-39 -222
q104 -43 146.5 -133t19.5 -221l-25 -139h-327l28 157q10 52 -5 73.5t-54 21.5q-36 0 -54.5 -25.5t-29.5 -79.5l-10 -53q-8 -47 6 -80q16 -28 50.5 -55.5t109.5 -77.5q58 -36 114 -88q129 -119 97 -309l-17 -101q-33 -171 -106 -258.5t-211 -111.5l-33 -187h-319z" />
    <glyph glyph-name="percent" unicode="%" horiz-adv-x="1286" 
d="M340 780q-125 0 -184.5 70.5t-40.5 183.5l43 244q17 96 91.5 153.5t176.5 57.5q123 0 186 -72t43 -188l-45 -246q-17 -95 -91 -149t-179 -54zM-35 0q104 105 334 436q121 174 408 602q242 349 321 437h338q-97 -102 -332 -441q-20 -28 -405 -602q-205 -310 -318 -432
h-346zM362 981q37 0 46 66l30 182q12 63 -30 63q-34 0 -43 -59l-33 -186q-4 -36 2.5 -51t27.5 -15zM903 -18q-125 0 -184.5 70.5t-40.5 183.5l43 243q17 96 91.5 153.5t176.5 57.5q123 0 186.5 -72t43.5 -188l-45 -246q-17 -95 -91.5 -148.5t-179.5 -53.5zM926 182
q36 0 45 66l30 182q12 64 -30 64q-34 0 -43 -60l-33 -186q-4 -36 3 -51t28 -15z" />
    <glyph glyph-name="ampersand" unicode="&#x26;" horiz-adv-x="1177" 
d="M856 -23q-95 0 -182 74q-148 -74 -287 -74q-150 0 -248 58q-97 56 -134.5 157t-6.5 234q30 138 117.5 231t242.5 181q-17 194 0 290l2 17q63 356 381 356q166 0 246 -88t49 -258q-25 -137 -112 -230.5t-262 -187.5l49 -172q23 -70 51 -131q120 163 166 432l2 17l276 -2
l-10 -56q-56 -335 -264 -569q20 -4 29 -4q83 0 145 49l-45 -262q-88 -62 -205 -62zM641 1143q-12 -73 -12 -154q59 38 91.5 81.5t45.5 111.5q15 78 -45 78q-63 0 -78 -109zM469 256q7 0 16 1t20 2.5t17 2.5q-31 64 -73 178q-7 21 -19.5 66t-19.5 67q-67 -67 -88 -161
q-14 -73 22.5 -114.5t124.5 -41.5z" />
    <glyph glyph-name="quotesingle" unicode="'" horiz-adv-x="389" 
d="M156 973q0 14 4 112q12 199 41 353l6 37h293l-6 -37q-12 -72 -39 -185q-54 -212 -84 -280h-215z" />
    <glyph glyph-name="parenleft" unicode="(" horiz-adv-x="610" 
d="M436 -311q-204 0 -309 63q-107 61 -138 196.5t9 348.5l121 686q38 200 108 311q70 112 196.5 159.5t332.5 47.5l-56 -315q-114 0 -164 -52t-75 -194l-119 -674q-26 -142 6.5 -198t145.5 -56z" />
    <glyph glyph-name="parenright" unicode=")" horiz-adv-x="610" 
d="M-84 12q113 0 163 52t75 194l118 674q27 143 -4.5 198.5t-144.5 55.5l55 313q194 0 303 -59q110 -61 142 -194t-7 -355l-120 -686q-34 -193 -105 -311q-66 -112 -191 -159.5t-341 -47.5z" />
    <glyph glyph-name="asterisk" unicode="*" horiz-adv-x="817" 
d="M561 1128l33 -249h-268l120 249l-210 -190l-93 229l267 62l-246 57l172 232l145 -191l-32 250h268l-119 -246l209 189l96 -230l-270 -61l248 -60l-174 -229z" />
    <glyph glyph-name="plus" unicode="+" horiz-adv-x="927" 
d="M606 586l-43 -244h-280l43 244h-242l49 282h242l43 244h280l-43 -244h240l-49 -282h-240z" />
    <glyph glyph-name="comma" unicode="," horiz-adv-x="514" 
d="M-27 -119q132 3 168 105h-8q-36 0 -59.5 4.5t-44 17t-28 34.5t-10.5 57t9 85q24 117 66.5 159t142.5 42q109 0 147.5 -54t10.5 -198q-36 -202 -139 -303.5t-281 -101.5z" />
    <glyph glyph-name="hyphen" unicode="-" horiz-adv-x="733" 
d="M88 774h623l-56 -317h-622z" />
    <glyph glyph-name="period" unicode="." horiz-adv-x="512" 
d="M154 -16q-105 0 -140 48.5t-12 168.5q16 80 37 121q24 42 65 58.5t115 16.5q105 0 140.5 -47t11.5 -176q-11 -68 -37 -119q-24 -40 -65 -55.5t-115 -15.5z" />
    <glyph glyph-name="slash" unicode="/" horiz-adv-x="675" 
d="M471 1475h363l-576 -1475h-364z" />
    <glyph glyph-name="zero" unicode="0" horiz-adv-x="978" 
d="M424 -23q-248 0 -338.5 135t-46.5 398l88 498q25 171 96 290q64 105 160.5 152t230.5 47q222 0 323.5 -129.5t55.5 -394.5l-88 -500q-45 -265 -154.5 -380.5t-326.5 -115.5zM438 287q50 0 75 34t38 123l104 596q17 89 4 124.5t-63 35.5q-48 0 -71.5 -35.5t-41.5 -124.5
l-104 -596q-13 -85 0.5 -121t58.5 -36z" />
    <glyph glyph-name="one" unicode="1" horiz-adv-x="755" 
d="M-63 0l55 319h178l119 680h-152l41 242q85 19 154 80t112 154h265l-203 -1156h164l-56 -319h-677z" />
    <glyph glyph-name="two" unicode="2" horiz-adv-x="933" 
d="M-2 295q20 120 80 207q52 75 119.5 130t164.5 118q130 82 176 123q82 73 97 161l14 84q15 94 -65 94q-40 0 -62.5 -21t-32.5 -73l-36 -205h-344l36 207q34 205 148 293t307 88q216 0 316 -107t69 -292l-16 -92q-20 -123 -80 -211q-93 -137 -277 -250q-121 -74 -154 -103
q-56 -47 -67 -98l-4 -26h453l-56 -322h-837z" />
    <glyph glyph-name="three" unicode="3" horiz-adv-x="958" 
d="M412 -25q-248 0 -342 110t-58 327q0 7 6 30q7 43 19 105h344l-31 -168q-10 -61 8 -84t60 -23q46 0 69 24t31 73l35 196q7 40 -11 54t-69 14h-100l45 258h102q45 0 67.5 15t28.5 52l29 172q18 95 -67 95q-78 0 -93 -105l-26 -147h-338l16 88l13 74q34 193 148.5 278.5
t299.5 85.5q209 0 313 -102.5t72 -284.5l-27 -151q-13 -81 -50.5 -129t-100.5 -72q123 -71 90 -246l-25 -149q-37 -205 -144.5 -297.5t-313.5 -92.5z" />
    <glyph glyph-name="four" unicode="4" horiz-adv-x="987" 
d="M901 256h-135l-45 -256h-315l45 256h-469l43 252l661 967h293l-162 -926h135zM526 807l-174 -258h150l47 270l24 90z" />
    <glyph glyph-name="five" unicode="5" horiz-adv-x="925" 
d="M385 -27q-151 0 -248 54q-181 103 -141 331l33 181h354l-29 -162q-15 -94 64 -94q78 0 94 102l45 258q10 46 -11 73t-63 27q-59 0 -98 -61l-16 -33l-297 76l219 750h729l-2 -19q-18 -98 -40.5 -152t-59.5 -83q-36 -28 -98 -37.5t-173 -9.5h-139l-68 -230q70 70 189 70
q155 0 228.5 -98.5t39.5 -280.5l-55 -301q-64 -361 -457 -361z" />
    <glyph glyph-name="six" unicode="6" horiz-adv-x="962" 
d="M887 391q-37 -212 -143.5 -313t-319.5 -101q-250 0 -343 122t-50 376l96 537q43 260 167 372.5t333 112.5q158 0 241 -55q89 -55 122 -149.5t9 -219.5l-20 -115h-348l28 164q6 37 -9.5 59.5t-55.5 22.5q-48 0 -74.5 -42t-40.5 -134l-47 -268q80 123 246 123
q136 0 200.5 -91t34.5 -253zM432 279q49 0 74.5 28.5t36.5 91.5l22 127q12 59 -6.5 85t-66.5 26q-50 0 -89 -39l-32 -180q-27 -139 61 -139z" />
    <glyph glyph-name="seven" unicode="7" horiz-adv-x="856" 
d="M-18 0q58 175 129.5 340t151 311t147.5 256.5t153 237.5h-436l57 330h805l-49 -279q-137 -216 -213 -362q-197 -363 -346 -834h-399z" />
    <glyph glyph-name="eight" unicode="8" horiz-adv-x="942" 
d="M395 -29q-172 0 -268 47q-173 93 -125 365l25 145q35 187 194 246q-119 73 -84 264l25 138q28 152 136 237.5t304 85.5q219 0 315.5 -92t65.5 -274l-25 -142q-25 -167 -174 -227q134 -67 101 -266l-29 -168q-32 -187 -137 -273t-324 -86zM459 977q-7 -43 8.5 -61.5
t58.5 -18.5q84 0 97 80l26 141q15 90 -67 90t-95 -69zM418 285q85 0 100 73l35 189q15 92 -78 92q-42 0 -66.5 -25.5t-31.5 -64.5l-31 -172q-16 -92 72 -92z" />
    <glyph glyph-name="nine" unicode="9" horiz-adv-x="958" 
d="M397 -27q-165 0 -262 54q-172 105 -123 376l23 127h356l-31 -176q-7 -35 10 -61.5t56 -26.5q50 0 76 38t39 134l47 275q-71 -117 -226 -117q-149 0 -218.5 92t-37.5 264l25 135q25 138 78 228q54 94 144.5 140t234.5 46q244 0 340 -120t53 -371l-96 -545
q-26 -176 -88 -291q-59 -107 -155 -154t-245 -47zM530 840q47 0 88 41l31 180q15 72 0.5 107.5t-65.5 35.5q-48 0 -72 -30.5t-35 -94.5l-18 -106q-13 -73 6 -103t65 -30z" />
    <glyph glyph-name="colon" unicode=":" horiz-adv-x="512" 
d="M297 795q-105 0 -138.5 48t-13.5 169q16 80 37 121q24 42 65 58.5t115 16.5q105 0 140.5 -47t11.5 -176q-11 -68 -37 -119q-24 -40 -65 -55.5t-115 -15.5zM154 -16q-105 0 -140 48.5t-12 168.5q16 80 37 121q24 42 65 58.5t115 16.5q105 0 140.5 -47t11.5 -176
q-11 -68 -37 -119q-24 -40 -65 -55.5t-115 -15.5z" />
    <glyph glyph-name="semicolon" unicode=";" horiz-adv-x="514" 
d="M297 795q-105 0 -138.5 48t-13.5 169q16 80 37 121q24 42 65 58.5t115 16.5q105 0 140.5 -47t11.5 -176q-11 -68 -37 -119q-24 -40 -65 -55.5t-115 -15.5zM-27 -119q132 3 168 105h-8q-36 0 -59.5 4.5t-44 17t-28 34.5t-10.5 57t9 85q24 117 66.5 159t142.5 42
q109 0 147.5 -54t10.5 -198q-36 -202 -139 -303.5t-281 -101.5z" />
    <glyph glyph-name="less" unicode="&#x3c;" horiz-adv-x="901" 
d="M106 608l48 275l743 293l-55 -320l-340 -115l299 -114l-56 -308z" />
    <glyph glyph-name="equal" unicode="=" horiz-adv-x="927" 
d="M152 797l49 282h700l-49 -282h-700zM82 397l49 283h700l-49 -283h-700z" />
    <glyph glyph-name="greater" unicode="&#x3e;" horiz-adv-x="901" 
d="M119 639l340 115l-299 114l55 308l639 -289l-47 -275l-744 -293z" />
    <glyph glyph-name="question" unicode="?" horiz-adv-x="923" 
d="M559 393q-45 25 -149 25q-114 0 -162 -25l12 82q0 24 8 64q9 53 29 95t51 73t57.5 51t65.5 43q4 2 20.5 12.5t21 13t18 11.5t18 13t15 12.5t14.5 14.5t10 14.5t9 16.5t5 17l35 190q15 96 -68 96q-46 0 -66 -22t-28 -68l-43 -250h-342l47 275q30 169 150 259.5t323 90.5
q212 0 307 -103t62 -288l-31 -168q-11 -79 -47 -139q-22 -35 -52 -65.5t-53 -48t-59 -42.5q-38 -24 -51.5 -33t-39.5 -29.5t-40 -39t-22 -41.5zM336 -16q-45 0 -73.5 4.5t-51 17t-29.5 34.5t-10 56.5t8 83.5q15 78 39 115q22 35 63.5 47t118.5 12q36 0 61 -3t46 -11
t32.5 -22t17.5 -36.5t4.5 -53.5t-9.5 -74q-11 -66 -37 -113q-22 -34 -62 -45.5t-118 -11.5z" />
    <glyph glyph-name="at" unicode="@" horiz-adv-x="1171" 
d="M471 -190q-167 0 -285 65q-244 138 -170 563l90 523q34 183 119 299q163 231 477 231q174 0 293 -68q127 -70 180 -203t17 -325l-74 -408q-34 -196 -97.5 -279t-199.5 -83q-153 0 -200 96q-56 -96 -166 -96q-107 0 -152.5 69.5t-17.5 229.5l84 479q25 144 85.5 205
t155.5 61q55 0 93 -24t49 -58l51 70h153l-131 -739q-6 -36 -8 -55.5t-0.5 -33.5t7.5 -19t18 -5q19 0 30 14q32 32 56 185l76 430q35 194 -43.5 285.5t-278.5 91.5q-163 0 -256.5 -90.5t-128.5 -284.5l-90 -510q-38 -223 34.5 -328.5t256.5 -105.5q89 0 136.5 20.5t86.5 65.5
h266q-87 -141 -208.5 -204.5t-307.5 -63.5zM537 311q30 0 45.5 24.5t23.5 80.5l82 463q11 55 4 80.5t-37 25.5q-31 0 -45.5 -23.5t-25.5 -82.5l-82 -463q-9 -56 -2.5 -80.5t37.5 -24.5z" />
    <glyph glyph-name="A" unicode="A" horiz-adv-x="940" 
d="M520 162h-235l-54 -162h-342l568 1475h331l58 -1475h-328zM379 442h143l4 357l19 184l-47 -184z" />
    <glyph glyph-name="B" unicode="B" horiz-adv-x="935" 
d="M-39 0l258 1475h399q205 0 295 -85.5t60 -265.5l-21 -125q-13 -96 -53 -151.5t-113 -85.5q133 -65 97 -273l-27 -145q-22 -126 -65 -194q-45 -77 -126.5 -113.5t-215.5 -36.5h-488zM492 1208l-56 -315h88q84 0 99 82l30 160q12 73 -67 73h-94zM389 618l-59 -331h84
q54 0 78.5 21t31.5 75l27 145q10 53 -8.5 71.5t-75.5 18.5h-78z" />
    <glyph glyph-name="C" unicode="C" horiz-adv-x="964" 
d="M420 -23q-249 0 -339 121.5t-48 366.5l106 600q25 160 94 260q62 92 156.5 132t226.5 40q136 0 234 -49q203 -106 145 -424l-30 -172h-357l33 188q18 89 7.5 124.5t-58.5 35.5q-47 0 -68 -34t-39 -126l-104 -594q-14 -86 -3 -122.5t54 -36.5q49 0 71 33.5t36 123.5
l36 215h359l-41 -233q-42 -240 -148.5 -344.5t-322.5 -104.5z" />
    <glyph glyph-name="D" unicode="D" horiz-adv-x="968" 
d="M219 1475h393q137 0 232 -62q97 -62 133 -178t4 -277l-94 -530q-37 -227 -166 -327.5t-350 -100.5h-410zM506 1188l-158 -893h58q113 0 137 166l100 563q36 164 -94 164h-43z" />
    <glyph glyph-name="E" unicode="E" horiz-adv-x="821" 
d="M682 0h-721l258 1475h715l-53 -304h-381l-49 -274h342l-56 -307h-342l-47 -275h389z" />
    <glyph glyph-name="F" unicode="F" horiz-adv-x="780" 
d="M387 553l-96 -553h-330l258 1475h686l-55 -314h-354l-54 -297h318l-55 -311h-318z" />
    <glyph glyph-name="G" unicode="G" horiz-adv-x="962" 
d="M553 205q-37 -121 -104 -174.5t-181 -53.5q-150 0 -216.5 109t-26.5 328l114 655q26 164 94 264q62 89 155.5 126.5t227.5 37.5q435 0 363 -457l-18 -116h-353l23 118q19 85 8 121.5t-59 36.5q-42 0 -59 -33t-36 -127l-104 -594q-15 -89 -4 -125t59 -36q47 0 77 35.5
t46 123.5l19 99h-101l51 282h416l-145 -825h-246v205z" />
    <glyph glyph-name="H" unicode="H" horiz-adv-x="966" 
d="M567 580h-168l-102 -580h-336l258 1475h336l-100 -574h168l100 574h336l-258 -1475h-336z" />
    <glyph glyph-name="I" unicode="I" horiz-adv-x="722" 
d="M-59 0l55 319h158l147 838h-158l56 318h637l-56 -318h-153l-148 -838h154l-55 -319h-637z" />
    <glyph glyph-name="J" unicode="J" horiz-adv-x="919" 
d="M373 -23q-235 0 -320.5 127t-42.5 377l25 142h350l-39 -215q-12 -66 -2 -93.5t45 -27.5q36 0 54 24.5t30 91.5l189 1072h348l-181 -1029q-43 -251 -147 -360t-309 -109z" />
    <glyph glyph-name="K" unicode="K" horiz-adv-x="989" 
d="M465 715l-72 -115l-104 -600h-328l258 1475h328l-70 -400l-18 -86l22 47l258 439h383l-360 -553l8 -50l107 -872h-363l-49 612v103z" />
    <glyph glyph-name="L" unicode="L" horiz-adv-x="800" 
d="M-39 0l258 1475h348l-198 -1133h346l-60 -342h-694z" />
    <glyph glyph-name="M" unicode="M" horiz-adv-x="1138" 
d="M272 0h-311l258 1475h283l119 -574l321 574h289l-258 -1475h-314l129 735l48 142l-11 -23l-252 -448h-67l-98 442v8l-11 -137z" />
    <glyph glyph-name="N" unicode="N" horiz-adv-x="1007" 
d="M264 0h-303l258 1475h301l129 -721l13 -105l18 156l117 670h303l-258 -1475h-295l-135 721l-13 104l-20 -166z" />
    <glyph glyph-name="O" unicode="O" horiz-adv-x="978" 
d="M424 -23q-170 0 -264 64q-180 122 -127 434l100 569q43 245 161 349t324 104q222 0 322.5 -124.5t54.5 -385.5l-96 -549q-43 -247 -150.5 -354t-324.5 -107zM438 287q50 0 75 34t38 123l104 596q17 89 4 124.5t-63 35.5q-48 0 -70.5 -35t-40.5 -125l-106 -596
q-13 -85 0.5 -121t58.5 -36z" />
    <glyph glyph-name="P" unicode="P" horiz-adv-x="931" 
d="M371 453l-80 -453h-330l258 1475h416q110 0 187 -29.5t116 -83.5t51 -130.5t-8 -170.5l-47 -260q-32 -177 -141.5 -262.5t-337.5 -85.5h-84zM500 1194l-78 -449h67q54 0 82 25.5t35 83.5l41 238q15 102 -78 102h-69z" />
    <glyph glyph-name="Q" unicode="Q" horiz-adv-x="978" 
d="M418 -176l-39 156q-154 9 -236 73q-162 126 -110 422l100 569q43 245 161 349t324 104q222 0 322.5 -124.5t54.5 -385.5l-96 -549q-27 -149 -75 -244.5t-126 -148.5l80 -221h-360zM438 287q50 0 75 34t38 123l104 596q17 89 4 124.5t-63 35.5q-48 0 -70.5 -35t-40.5 -125
l-106 -596q-13 -85 0.5 -121t58.5 -36z" />
    <glyph glyph-name="R" unicode="R" horiz-adv-x="919" 
d="M375 530l-94 -530h-320l258 1475h418q205 0 282.5 -96.5t41.5 -299.5l-33 -188q-13 -90 -54.5 -141t-119.5 -74q65 -31 82.5 -95.5t-2.5 -164.5l-56 -312q-12 -71 21 -104h-342q-26 20 -13 104l58 324q11 60 -5.5 81t-74.5 21h-47zM489 1194l-63 -367h76q51 0 73.5 19
t30.5 65l33 189q11 53 -5.5 73.5t-68.5 20.5h-76z" />
    <glyph glyph-name="S" unicode="S" horiz-adv-x="888" 
d="M369 -25q-169 0 -260 48q-171 93 -123 354l32 182h349l-31 -178q-10 -63 2.5 -86t52.5 -23t59 22t27 68l12 64q12 60 -10 102q-21 39 -58.5 69.5t-98.5 68.5q-62 40 -111 86q-123 107 -90 311l12 72q34 194 143.5 279t292.5 85q209 0 304.5 -99.5t60.5 -287.5l-25 -139
h-329l30 157q10 52 -5 73.5t-54 21.5q-36 0 -54.5 -25.5t-29.5 -79.5l-10 -53q-8 -47 6 -80q16 -28 50.5 -55.5t109.5 -77.5q58 -36 114 -88q129 -119 97 -309l-17 -101q-39 -205 -140.5 -293t-307.5 -88z" />
    <glyph glyph-name="T" unicode="T" horiz-adv-x="851" 
d="M698 1169l-206 -1169h-336l206 1169h-223l54 306h778l-53 -306h-220z" />
    <glyph glyph-name="U" unicode="U" horiz-adv-x="948" 
d="M406 -23q-238 0 -325 127t-42 383l174 988h336l-182 -1037q-13 -77 0.5 -106t58.5 -29q47 0 67.5 27.5t34.5 107.5l183 1037h336l-187 -1061q-25 -149 -82 -256q-54 -95 -143 -138t-229 -43z" />
    <glyph glyph-name="V" unicode="V" horiz-adv-x="944" 
d="M205 0l-43 1475h332l-2 -693l-23 -186l45 186l234 693h346l-551 -1475h-338z" />
    <glyph glyph-name="W" unicode="W" horiz-adv-x="1366" 
d="M446 0h-313l29 1475h315l-35 -687l-32 -235l71 233l242 689h219l-8 -689l-19 -243l60 245l215 687h326l-510 -1475h-312l2 633l23 198l-49 -198z" />
    <glyph glyph-name="X" unicode="X" horiz-adv-x="954" 
d="M250 0h-365l439 778l-156 697h340l55 -345l-8 -73l20 73l175 345h348l-400 -701l164 -774h-346l-63 391l6 60l-17 -62z" />
    <glyph glyph-name="Y" unicode="Y" horiz-adv-x="890" 
d="M166 0l92 528l-113 947h344l25 -418l-14 -154l41 156l174 414l342 2l-451 -945l-92 -530h-348z" />
    <glyph glyph-name="Z" unicode="Z" horiz-adv-x="864" 
d="M-51 0l47 276l541 875h-371l55 324h742l-50 -285l-530 -866h385l-55 -324h-764z" />
    <glyph glyph-name="bracketleft" unicode="[" horiz-adv-x="604" 
d="M424 -311h-518l317 1808h518l-49 -280h-184l-219 -1248h184z" />
    <glyph glyph-name="backslash" unicode="\" horiz-adv-x="675" 
d="M520 1475l45 -1475h-356l-45 1475h356z" />
    <glyph glyph-name="bracketright" unicode="]" horiz-adv-x="604" 
d="M-133 -311l47 280h186l219 1248h-186l49 280h518l-317 -1808h-516z" />
    <glyph glyph-name="asciicircum" unicode="^" horiz-adv-x="878" 
d="M553 1182l-143 -275h-281l340 561h248l149 -561h-264z" />
    <glyph glyph-name="uni005F" unicode="_" horiz-adv-x="929" 
d="M-88 -109h860l-47 -268h-858z" />
    <glyph glyph-name="grave" unicode="`" horiz-adv-x="731" 
d="M276 1614h308l75 -311h-215z" />
    <glyph glyph-name="a" unicode="a" horiz-adv-x="931" 
d="M668 0q-101 0 -147 26.5t-52 92.5q-83 -142 -258 -142q-149 0 -201 80t-22 252l8 45q31 172 131 242q23 16 43 27.5t51.5 23.5t43.5 16.5t62 20.5t66 21q100 32 136.5 55t43.5 71l5 25q7 54 -6.5 77t-51.5 23q-34 0 -55 -22t-31 -78l-16 -98h-332l18 106q30 168 140 259
t301 91q212 0 293 -99.5t45 -307.5l-82 -467q-6 -31 1.5 -39t35.5 -8h22l-49 -293h-143zM389 231q75 0 96 109l43 244q-14 -24 -47 -35q-62 -21 -86 -45q-20 -19 -30.5 -42t-20.5 -75l-10 -55q-15 -101 55 -101z" />
    <glyph glyph-name="b" unicode="b" horiz-adv-x="917" 
d="M502 -16q-99 0 -147 46t-54 138l-61 -168h-283l274 1561h330l-90 -508q74 161 227 161q131 0 186 -108.5t15 -314.5l-72 -414q-40 -216 -118.5 -304.5t-206.5 -88.5zM412 262q33 0 55 29.5t35 97.5l69 397q14 76 2 110t-53 34q-39 0 -61 -28t-35 -103l-70 -398
q-27 -139 58 -139z" />
    <glyph glyph-name="c" unicode="c" horiz-adv-x="907" 
d="M381 -23q-149 0 -240 56q-163 107 -114 389l75 436q29 166 143 261t287 95q221 0 309 -116.5t52 -335.5l-16 -96h-336l22 127q13 83 3.5 111t-50.5 28q-43 0 -63 -27.5t-33 -109.5l-70 -400q-12 -72 0 -99.5t53 -27.5q40 0 59 26.5t30 94.5l28 168h336l-39 -223
q-30 -171 -141 -264t-295 -93z" />
    <glyph glyph-name="d" unicode="d" horiz-adv-x="917" 
d="M471 129q-71 -145 -225 -145q-98 0 -152 43q-123 85 -65 403l67 385q72 394 318 397q93 0 140.5 -37.5t59.5 -111.5l88 498h330l-274 -1561h-283zM406 262q37 0 58.5 27.5t33.5 95.5l71 403q16 76 3.5 109t-54.5 33q-39 0 -62.5 -30.5t-35.5 -102.5l-70 -402
q-23 -133 56 -133z" />
    <glyph glyph-name="e" unicode="e" 
d="M813 328q-38 -191 -137.5 -271t-290.5 -80q-151 0 -242 56q-165 106 -116 387q2 16 8 43q3 22 39 233l26 152q29 171 143.5 270t288.5 99q219 0 311 -116.5t54 -322.5l-47 -264h-485l-23 -123q-13 -76 1 -104.5t60 -28.5q42 0 62 30t33 99l8 43h328zM399 713h168l15 86
q16 78 0.5 109.5t-64.5 31.5q-46 0 -68 -33t-36 -114z" />
    <glyph glyph-name="f" unicode="f" horiz-adv-x="636" 
d="M524 905l-159 -905h-326l160 905h-125l53 293h123l16 92q31 182 124.5 261t279.5 79h131l-51 -287h-78q-41 0 -59.5 -20t-26.5 -68l-11 -57h150l-53 -293h-148z" />
    <glyph glyph-name="g" unicode="g" horiz-adv-x="919" 
d="M313 -391q-151 0 -229 47q-156 87 -113 317l2 13h320l-2 -13q-8 -53 1 -73.5t48 -20.5q41 0 58 26.5t28 94.5l33 193q-32 -74 -81 -111t-124 -37q-98 0 -152 43q-121 83 -65 404l57 323q72 396 320 399q195 0 215 -165l61 149h277l-217 -1229q-15 -90 -45 -155
t-81.5 -112t-128.5 -70t-182 -23zM414 324q37 0 58.5 27t33.5 95l61 342q16 76 3.5 109t-54.5 33q-39 0 -62.5 -30.5t-35.5 -102.5l-60 -340q-23 -133 56 -133z" />
    <glyph glyph-name="h" unicode="h" horiz-adv-x="923" 
d="M291 0h-334l274 1561h334l-90 -514q75 165 232 165q138 0 188.5 -84.5t19.5 -261.5l-151 -866h-336l141 807q12 55 1.5 85t-50.5 30q-37 0 -58 -30.5t-32 -92.5z" />
    <glyph glyph-name="i" unicode="i" horiz-adv-x="462" 
d="M352 1231q-107 0 -143 37.5t-19 128.5q17 97 61 131.5t146 34.5q104 0 141.5 -36.5t20.5 -129.5q-17 -95 -62 -130.5t-145 -35.5zM166 1190q41 -35 170 -35q121 0 174 37l-209 -1192h-344z" />
    <glyph glyph-name="j" unicode="j" horiz-adv-x="477" 
d="M362 1231q-107 0 -142.5 37.5t-18.5 128.5q17 97 61 131.5t146 34.5q104 0 141 -36.5t20 -129.5q-17 -95 -62 -130.5t-145 -35.5zM-211 -111h90q39 0 55.5 15.5t26.5 62.5l215 1223q41 -35 170 -35q121 0 174 37l-227 -1288q-32 -185 -121 -257.5t-274 -72.5h-164z" />
    <glyph glyph-name="k" unicode="k" horiz-adv-x="917" 
d="M430 571l-68 -116l-79 -455h-326l274 1561h326l-123 -695l-12 -55l51 86l199 301h366l-331 -469l124 -729h-337l-66 487z" />
    <glyph glyph-name="l" unicode="l" horiz-adv-x="452" 
d="M231 1561h334l-274 -1561h-334z" />
    <glyph glyph-name="m" unicode="m" horiz-adv-x="1374" 
d="M287 0h-330l211 1198h270l11 -149q83 165 233 165q201 0 225 -167q87 167 238 167q136 0 193.5 -86t27.5 -260l-47 -272q-13 -67 -36 -201.5t-34 -193.5l-35 -201h-331l141 809q13 55 3.5 85t-48.5 30q-37 0 -57 -30t-31 -93l-141 -801h-332l141 809q13 55 3.5 85
t-48.5 30q-37 0 -57 -30t-31 -93z" />
    <glyph glyph-name="n" unicode="n" horiz-adv-x="927" 
d="M295 0h-338l211 1198h276l9 -141q81 155 239 155q140 0 199 -86t29 -260l-152 -866h-336l141 807q12 55 1.5 85t-50.5 30q-37 0 -58 -30.5t-32 -92.5z" />
    <glyph glyph-name="o" unicode="o" 
d="M379 -23q-151 0 -236 58q-167 113 -118 387l73 424q29 171 142.5 269.5t287.5 98.5q217 0 307 -119.5t54 -332.5l-76 -428q-30 -170 -141.5 -263.5t-292.5 -93.5zM403 268q74 0 93 117l73 424q12 68 -2.5 95.5t-54.5 27.5q-71 0 -90 -111l-76 -436q-19 -117 57 -117z" />
    <glyph glyph-name="p" unicode="p" horiz-adv-x="917" 
d="M502 -16q-172 0 -193 163l-90 -518h-325l274 1569h276l11 -154q69 170 237 170q135 0 191 -108.5t16 -314.5l-72 -414q-40 -216 -118.5 -304.5t-206.5 -88.5zM412 262q33 0 55 29.5t35 97.5l69 397q14 76 2 110t-53 34q-39 0 -61 -28t-35 -103l-70 -398q-27 -139 58 -139
z" />
    <glyph glyph-name="q" unicode="q" horiz-adv-x="921" 
d="M362 -371l87 500q-30 -73 -78.5 -109t-124.5 -36q-98 0 -152 43q-123 85 -65 403l67 385q72 396 320 399q195 0 215 -165l61 149h279l-277 -1569h-332zM406 262q37 0 58.5 27.5t33.5 95.5l71 403q16 76 3.5 109t-54.5 33q-39 0 -62.5 -30.5t-35.5 -102.5l-70 -402
q-23 -133 56 -133z" />
    <glyph glyph-name="r" unicode="r" horiz-adv-x="624" 
d="M-43 0l211 1198h233l13 -199q30 120 84 167.5t174 47.5h41l-68 -380h-76q-88 0 -119 -29t-49 -121l-118 -684h-326z" />
    <glyph glyph-name="s" unicode="s" horiz-adv-x="860" 
d="M358 -23q-236 0 -325.5 88t-57.5 267l21 114h328l-19 -110q-13 -80 70 -80q77 0 90 90q10 49 -14 76q-21 28 -55.5 49.5t-96.5 52.5q-73 41 -117 76q-133 97 -92 305l2 8q16 86 62 150q101 151 348 151q216 0 305 -86t59 -278l-8 -51h-311l12 73q15 89 -67 89
q-72 0 -82 -70q-5 -28 4 -51t36.5 -44t48.5 -33.5t66 -34.5q7 -3 10 -5q26 -11 121 -74q136 -100 101 -303l-2 -14q-30 -178 -135 -266.5t-302 -88.5z" />
    <glyph glyph-name="t" unicode="t" horiz-adv-x="626" 
d="M494 0h-121q-134 0 -197 31q-70 30 -88.5 105.5t6.5 213.5l92 522h-116l53 308q77 13 106 28q45 23 88 97q33 60 45 110h234l-39 -217h150l-58 -326h-149l-74 -426q-5 -30 -5.5 -51t3.5 -35t9.5 -22t18 -12.5t25 -5.5t33.5 -1h39z" />
    <glyph glyph-name="u" unicode="u" horiz-adv-x="917" 
d="M473 143q-77 -161 -240 -161q-278 0 -217 356l152 860h336l-142 -801q-5 -37 -6 -64.5t11.5 -43t40.5 -15.5q64 0 88 136l139 788h334l-211 -1198h-273z" />
    <glyph glyph-name="v" unicode="v" horiz-adv-x="870" 
d="M172 0l-70 1198h330l-2 -536l-27 -240l60 240l188 536h334l-489 -1198h-324z" />
    <glyph glyph-name="w" unicode="w" horiz-adv-x="1249" 
d="M395 0h-311l12 1198h318l-31 -588l-35 -159l51 155l224 592h208l9 -590l-15 -159l31 157l197 592h317l-438 -1198h-311l-19 496l14 125l-32 -125z" />
    <glyph glyph-name="x" unicode="x" horiz-adv-x="909" 
d="M244 0h-350l380 631l-145 567h344l35 -272l-2 -49l12 47l135 274h346l-344 -565l158 -633h-340l-55 281l2 79l-25 -79z" />
    <glyph glyph-name="y" unicode="y" horiz-adv-x="894" 
d="M-121 -385l53 311h109q69 0 99 17.5t50 70.5l27 72l-104 1112h329l17 -473l-31 -260l66 260l180 473h325l-528 -1268q-43 -102 -80.5 -162t-83.5 -94q-86 -59 -276 -59h-152z" />
    <glyph glyph-name="z" unicode="z" horiz-adv-x="794" 
d="M-59 0l45 258l456 653h-329l51 287h692l-49 -272l-426 -633h319l-53 -293h-706z" />
    <glyph glyph-name="braceleft" unicode="{" horiz-adv-x="663" 
d="M238 -311q-136 0 -192.5 71.5t-31.5 196.5q14 80 58 149q15 24 54 79t56.5 88t22.5 63q10 55 -11 77.5t-81 22.5h-97l56 314h86q61 0 90 22t39 80q10 53 -11 113q-9 30 -15 51.5t-13 53.5t-9.5 59t-2 60.5t5.5 65.5q42 242 303 242h260l-45 -264h-80q-51 0 -80.5 -16
t-36.5 -58q-7 -36 10 -102q38 -113 43 -169q4 -45 -4 -87q-14 -93 -71 -140.5t-170 -48.5l-6 -37q112 -1 153 -48.5t23 -141.5q-12 -70 -49 -131q-12 -19 -37.5 -56.5t-38.5 -58t-26 -48.5t-17 -50q-15 -88 82 -88h77l-45 -264h-249z" />
    <glyph glyph-name="bar" unicode="|" horiz-adv-x="487" 
d="M-43 -102l293 1667h332l-293 -1667h-332z" />
    <glyph glyph-name="braceright" unicode="}" horiz-adv-x="663" 
d="M-94 -47h80q51 0 80 16t36 58q7 36 -10 102q-37 116 -42 171q-4 44 3 85q18 94 74 140.5t168 47.5l6 37q-111 1 -150.5 48.5t-25.5 142.5q12 70 49 131q12 19 37.5 56.5t38.5 58t26 48.5t17 50q15 88 -82 88h-78l45 264h250q136 0 192 -71.5t31 -196.5q-12 -81 -55 -150
q-15 -24 -51.5 -78t-53.5 -86.5t-22 -64.5q-10 -55 10.5 -77.5t79.5 -22.5h90l-55 -314h-86q-64 0 -96.5 -22.5t-42.5 -79.5q-9 -51 12 -113q2 -6 10.5 -30.5t11.5 -34t9.5 -33t9 -37t6 -36t3.5 -39.5t-1.5 -38.5t-5.5 -42.5q-42 -241 -303 -241h-260z" />
    <glyph glyph-name="asciitilde" unicode="~" horiz-adv-x="821" 
d="M174 1073q32 186 85.5 257t160.5 71q54 0 92 -21q18 -9 45 -25.5t44.5 -25t31.5 -8.5q39 0 51 72h193q-21 -130 -54 -197q-30 -70 -75 -99.5t-115 -29.5q-56 0 -92 23q-15 8 -42 26.5t-46 27.5t-37 9q-37 0 -49 -80h-193z" />
    <glyph glyph-name="uni00A0" unicode="&#xa0;" horiz-adv-x="399" 
 />
    <glyph glyph-name="exclamdown" unicode="&#xa1;" horiz-adv-x="512" 
d="M297 829q-105 0 -140 45t-12 168q15 74 37 113q24 38 65.5 53t114.5 15q106 0 140.5 -44t11.5 -163q-11 -67 -37 -117q-25 -38 -66.5 -54t-113.5 -16zM0 164q33 194 94 405q50 180 72 211q38 -12 119 -12q85 0 123 12q11 -25 -2 -209q-13 -187 -50 -407l-75 -432h-357z
" />
    <glyph glyph-name="cent" unicode="&#xa2;" horiz-adv-x="907" 
d="M817 334q-23 -134 -99 -221.5t-198 -118.5l-35 -203h-319l37 213q-233 84 -176 418l75 436q25 136 106 225.5t208 118.5l33 189h319l-37 -211q213 -93 162 -418l-16 -96h-336l22 127q13 83 3.5 111t-50.5 28q-43 0 -63 -27.5t-33 -109.5l-70 -400q-12 -72 0 -99.5
t53 -27.5q40 0 59 26.5t30 94.5l28 168h336z" />
    <glyph glyph-name="sterling" unicode="&#xa3;" horiz-adv-x="1026" 
d="M608 -23q-120 0 -239 89q-95 -86 -217 -86q-125 0 -176 59.5t-33 169.5q16 91 76.5 134.5t148.5 43.5q91 0 168 -41q1 3 2 11t2 12q16 90 -27 200h-223l37 213h127q-15 45 -21.5 65.5t-17.5 64t-14 75.5t-2.5 78t8.5 92q15 100 63 174q94 166 353 166q202 0 291.5 -101
t58.5 -284l-19 -106h-319l16 92q10 63 -3 86.5t-50 23.5q-36 0 -56 -23t-30 -81q-6 -36 -6 -79.5t3.5 -76t9.5 -84t9 -82.5h228l-37 -213h-176q0 -85 -15 -170q-11 -73 -39 -147q44 -19 70 -19q41 0 60 25t30 90l21 111h301l-25 -137q-25 -147 -67 -213
q-40 -71 -105.5 -101.5t-165.5 -30.5zM164 152q44 0 82 24q-44 41 -76 41q-36 0 -39 -31q-9 -34 33 -34z" />
    <glyph glyph-name="currency" unicode="&#xa4;" horiz-adv-x="1083" 
d="M420 360q-83 0 -150 25l-178 -166l-158 164l179 166q-22 68 -7 153l17 89q15 92 61 165l-112 150l202 168l117 -156q53 19 127 19q76 0 152 -29l178 166l151 -162l-176 -164q25 -74 11 -155l-17 -88q-15 -87 -55 -156l112 -154l-206 -168l-113 154q-90 -21 -135 -21z
M444 596q47 0 80 31.5t41 81.5l13 77q11 50 -11 81.5t-69 31.5q-49 0 -81.5 -30t-43.5 -83l-13 -77q-8 -51 14 -82t70 -31z" />
    <glyph glyph-name="yen" unicode="&#xa5;" horiz-adv-x="890" 
d="M565 293l-51 -293h-348l51 293h-166l39 221h166l12 70h-166l39 223h135l-131 668h338l49 -324l177 324h348l-375 -668h147l-38 -223h-175l-12 -70h174l-39 -221h-174z" />
    <glyph glyph-name="brokenbar" unicode="&#xa6;" horiz-adv-x="487" 
d="M250 1565h332l-133 -760h-332zM430 698l-141 -800h-332l141 800h332z" />
    <glyph glyph-name="section" unicode="&#xa7;" horiz-adv-x="1093" 
d="M473 -127q-131 0 -227 35q-206 75 -162 334l12 55h334l-12 -64q-8 -46 9 -72t60 -26q67 0 82 70q8 36 -22 74q-48 48 -201 110q-100 49 -149 80q-170 109 -138 293q22 106 91.5 161.5t162.5 55.5q23 0 33 -2q-94 112 -61 278l2 9q14 79 65 151q106 152 346 152
q205 0 300 -92t65 -275l-6 -29h-318l11 54q8 44 -9 69t-57 25q-66 0 -78 -66q-9 -39 21 -69q11 -11 25.5 -21.5t37 -23t35 -19.5t46 -23.5t44.5 -21.5q88 -41 146 -82q169 -104 133 -297q-19 -106 -87.5 -161.5t-162.5 -55.5h-17q97 -116 64 -280l-2 -13q-69 -313 -416 -313
zM604 637q60 -27 105 -57q42 13 51 71q9 40 -19 68q-23 28 -65 52.5t-111 55.5q-9 4 -100 54q-32 -1 -46.5 -15.5t-21.5 -52.5q-3 -39 23 -65q10 -11 24 -22t34.5 -23t36 -20t45 -23t44.5 -23z" />
    <glyph glyph-name="dieresis" unicode="&#xa8;" horiz-adv-x="731" 
d="M334 1298q-78 0 -99.5 28t-7.5 112q17 86 51 117.5t107 31.5q78 0 102 -32t7 -117q-14 -80 -48 -110t-112 -30zM647 1298q-79 0 -99.5 28t-6.5 112q17 87 49 118t108 31q75 0 100.5 -32.5t8.5 -116.5q-13 -79 -48 -109.5t-112 -30.5z" />
    <glyph glyph-name="copyright" unicode="&#xa9;" horiz-adv-x="1251" 
d="M555 -25q-179 0 -309 74q-128 73 -181 212.5t-18 334.5l53 303q37 213 131 344q93 125 225.5 186.5t291.5 61.5q160 0 288 -70q135 -75 193.5 -216.5t23.5 -346.5l-53 -299q-56 -298 -210.5 -441t-434.5 -143zM578 199q179 0 272.5 90t126.5 282l55 306q24 139 -10 223
q-72 168 -301 168q-148 0 -255.5 -95.5t-141.5 -285.5l-52 -297q-32 -183 48.5 -287t257.5 -104zM586 254q-149 0 -211 89.5t-37 244.5q0 12 6 30q3 24 14 86.5t15 88.5l18 110q29 154 113.5 235t214.5 81q151 0 216 -79t42 -249l-14 -76h-242l20 115q14 74 -32 74
q-30 0 -44 -19.5t-26 -77.5l-59 -340q-7 -50 1 -70t35 -20q23 0 37 17t21 55l20 117h242l-16 -97q-23 -158 -105 -236.5t-229 -78.5z" />
    <glyph glyph-name="ordfeminine" unicode="&#xaa;" horiz-adv-x="690" 
d="M596 670q-67 0 -102 17t-45 58q-64 -90 -211 -90q-91 0 -136 58t-26 153l10 68q19 98 104 143q55 29 189 56q64 13 89 27t32 48l8 43q9 54 -35 54q-42 0 -53 -58l-14 -78h-261l19 105q49 221 332 221q154 0 212 -69.5t33 -211.5l-49 -276q-5 -20 1 -27.5t26 -7.5h20
l-39 -233h-104zM381 827q24 0 40 17t21 43l25 143q-8 -5 -51 -16q-29 -11 -39 -19q-17 -17 -19 -45l-12 -67q-10 -56 35 -56z" />
    <glyph glyph-name="guillemotleft" unicode="&#xab;" horiz-adv-x="1034" 
d="M233 223l-182 398l4 18l310 375h286l-338 -400l181 -391h-261zM629 223l-166 363l6 30l332 398h284l-364 -434l164 -357h-256z" />
    <glyph glyph-name="logicalnot" unicode="&#xac;" horiz-adv-x="915" 
d="M498 360l51 302h-494l54 292h806l-104 -594h-313z" />
    <glyph glyph-name="uni00AD" unicode="&#xad;" horiz-adv-x="733" 
d="M88 774h623l-56 -317h-622z" />
    <glyph glyph-name="registered" unicode="&#xae;" horiz-adv-x="815" 
d="M465 772q-165 0 -247 97t-52 268q21 127 78 202q111 148 303 148q96 0 170 -41q80 -43 114.5 -126t12.5 -204q-31 -164 -129.5 -254t-249.5 -90zM477 903q100 0 156.5 55.5t77.5 165.5q38 232 -179 232q-197 0 -235 -221q-19 -110 25 -171t155 -61zM481 1067l-18 -104
h-117l57 342h148q63 0 96 -30t23 -93q-9 -48 -56 -72q30 -23 21 -70l-10 -59q-4 -15 6 -18h-119q-10 2 -6 20l8 51q6 19 -0.5 26t-24.5 7h-8zM504 1212l-8 -49h22q30 0 33 25q5 12 -1.5 18t-23.5 6h-22z" />
    <glyph glyph-name="macron" unicode="&#xaf;" horiz-adv-x="731" 
d="M319 1548h433l-41 -229h-432z" />
    <glyph glyph-name="degree" unicode="&#xb0;" horiz-adv-x="616" 
d="M373 958q-135 0 -195 63.5t-37 188.5l2 13q23 129 111.5 197.5t214.5 68.5q127 0 189.5 -68t39.5 -198l-2 -13q-23 -124 -108 -188t-215 -64zM414 1176q41 0 49 45v2q4 28 -4 38.5t-29 10.5q-41 0 -49 -49v-2q-4 -22 5.5 -33.5t27.5 -11.5z" />
    <glyph glyph-name="plusminus" unicode="&#xb1;" horiz-adv-x="927" 
d="M645 817l-35 -196h-276l35 196h-193l49 277h193l35 196h276l-35 -196h191l-49 -277h-191zM76 252l51 283h659l-51 -283h-659z" />
    <glyph glyph-name="uni00B2" unicode="&#xb2;" horiz-adv-x="538" 
d="M66 737l26 156q6 43 22.5 78t42 60t49 41.5t56.5 33.5q13 7 42.5 22.5t42 23t31 20.5t27 27t11.5 30l10 55q10 39 -27 39q-32 0 -41 -47l-16 -92h-199l21 112q14 89 75 140t171 51q117 0 172.5 -54t38.5 -151l-11 -55q-12 -75 -54 -119.5t-110 -83.5q-10 -5 -44.5 -23.5
t-47.5 -26.5t-31.5 -23.5t-27.5 -30.5h258l-33 -183h-454z" />
    <glyph glyph-name="uni00B3" unicode="&#xb3;" horiz-adv-x="530" 
d="M303 721q-131 0 -182.5 53t-30.5 158q3 38 12 65h193l-8 -51q-5 -27 1.5 -38t26.5 -11q30 0 39 39l13 72q2 14 -6.5 21t-28.5 7h-58l27 148h59q40 0 43 30l11 62q9 39 -29 39q-33 0 -41 -35l-8 -55h-189l5 22l10 56q18 89 75 135.5t166 46.5q118 0 169.5 -51.5
t33.5 -143.5l-12 -63q-15 -86 -90 -111q75 -29 55 -133l-14 -84q-15 -84 -71 -131t-171 -47z" />
    <glyph glyph-name="acute" unicode="&#xb4;" horiz-adv-x="731" 
d="M475 1614h309l-290 -311h-234z" />
    <glyph glyph-name="paragraph" unicode="&#xb6;" horiz-adv-x="1267" 
d="M426 0l98 559q-150 0 -254 64q-101 64 -140.5 174.5t-14.5 255.5q38 217 169 319.5t363 102.5h709l-258 -1475h-293l209 1194h-86l-209 -1194h-293zM575 852l60 342h-29q-131 0 -162 -174q-13 -86 20 -127t97 -41h14z" />
    <glyph glyph-name="periodcentered" unicode="&#xb7;" horiz-adv-x="512" 
d="M227 403q-104 0 -137.5 48.5t-13.5 169.5q15 78 37 120q24 42 65.5 59t114.5 17q105 0 140 -47t11 -176q-11 -71 -36 -119q-24 -40 -65.5 -56t-115.5 -16z" />
    <glyph glyph-name="cedilla" unicode="&#xb8;" horiz-adv-x="731" 
d="M203 -471q-140 0 -212 52.5t-79 176.5h246q4 -29 18 -39t47 -10q67 0 76 47q4 20 -11.5 31.5t-47.5 11.5h-111l41 232h203l-17 -97q192 -22 160 -200q-19 -106 -96 -155.5t-217 -49.5z" />
    <glyph glyph-name="uni00B9" unicode="&#xb9;" horiz-adv-x="471" 
d="M61 737l31 181h109l53 301h-86l25 143q104 9 143 113h153l-98 -557h101l-31 -181h-400z" />
    <glyph glyph-name="ordmasculine" unicode="&#xba;" horiz-adv-x="669" 
d="M367 659q-148 0 -218 82t-49 217l52 287q20 114 107 182t208 68q146 0 220.5 -84.5t49.5 -222.5l-51 -289q-20 -112 -107.5 -176t-211.5 -64zM387 877q52 0 64 79l41 248q18 82 -41 82q-49 0 -60 -74l-43 -256q-13 -79 39 -79z" />
    <glyph glyph-name="guillemotright" unicode="&#xbb;" horiz-adv-x="1034" 
d="M-63 223l372 443l-162 348h256l166 -363l-6 -30l-332 -398h-294zM371 223l346 408l-178 383h260l182 -398l-4 -18l-309 -375h-297z" />
    <glyph glyph-name="onequarter" unicode="&#xbc;" horiz-adv-x="1277" 
d="M713 860l370 672l246 -154l-557 -561zM160 737l30 181h109l53 301h-86l25 143q104 9 143 113h154l-99 -557h101l-31 -181h-399zM1001 113l-20 -113h-174l20 113h-249l24 139l334 485h174l-82 -465h72l-29 -159h-70zM10 115l565 577l54 -43l-371 -702zM874 391l-88 -119
h68z" />
    <glyph glyph-name="onehalf" unicode="&#xbd;" horiz-adv-x="1277" 
d="M713 860l370 672l246 -154l-557 -561zM160 737l30 181h109l53 301h-86l25 143q104 9 143 113h154l-99 -557h101l-31 -181h-399zM618 0l27 156q6 43 22.5 78t42 60t49 41.5t56.5 33.5q13 7 42.5 22.5t42 23t31 20.5t27 27t11.5 30l10 55q10 39 -27 39q-32 0 -41 -47
l-16 -93h-199l21 113q14 89 75 140t171 51q117 0 172.5 -54t38.5 -151l-11 -56q-12 -75 -54 -119t-110 -83q-11 -6 -36.5 -19.5t-38 -20.5t-30 -18.5t-28.5 -23t-18 -23.5h258l-33 -182h-455zM10 115l565 577l54 -43l-371 -702z" />
    <glyph glyph-name="threequarters" unicode="&#xbe;" horiz-adv-x="1277" 
d="M713 860l370 672l246 -154l-557 -561zM356 721q-131 0 -182.5 53t-30.5 158q3 34 13 65h192l-8 -51q-5 -26 2 -37.5t27 -11.5q30 0 39 39l12 72q2 14 -6.5 21t-28.5 7h-57l26 148h60q40 0 43 30l10 62q9 39 -29 39q-33 0 -41 -35l-8 -55h-188l4 22l10 56q18 89 75 135.5
t167 46.5q118 0 169 -51t33 -144l-12 -63q-15 -86 -90 -111q75 -29 55 -133l-14 -84q-15 -84 -71 -131t-171 -47zM1001 113l-20 -113h-174l20 113h-249l24 139l334 485h174l-82 -465h72l-29 -159h-70zM10 115l565 577l54 -43l-371 -702zM874 391l-88 -119h68z" />
    <glyph glyph-name="questiondown" unicode="&#xbf;" horiz-adv-x="923" 
d="M592 1221q111 0 145 -39t11 -158q-11 -72 -39 -115q-22 -35 -63.5 -47t-119.5 -12q-43 0 -71 5t-50 17.5t-29.5 35t-10 58t9.5 85.5q14 71 37 112q22 34 62.5 46t117.5 12zM369 811q63 -25 149 -25q94 0 162 25l-12 -82l-9 -63q-9 -53 -29 -95t-50.5 -73.5t-57 -51.5
t-65.5 -43q-5 -3 -23 -14t-23.5 -14.5t-19.5 -13t-19.5 -14.5t-15.5 -14.5t-14.5 -16.5t-9 -17t-6.5 -20l-35 -191q-15 -96 67 -96q46 0 66.5 22t28.5 68l43 250h342l-47 -275q-30 -169 -149.5 -259.5t-324.5 -90.5q-210 0 -305.5 103t-62.5 288l31 168q11 79 47 140
q57 90 163 155q8 5 30 19t30 19.5t24.5 17.5t24.5 20t18.5 19.5t16.5 23.5t10 25z" />
    <glyph glyph-name="Agrave" unicode="&#xc0;" horiz-adv-x="940" 
d="M371 1870h307l76 -311h-215zM520 162h-235l-54 -162h-342l568 1475h331l58 -1475h-328zM379 442h143l4 357l19 184l-47 -184z" />
    <glyph glyph-name="Aacute" unicode="&#xc1;" horiz-adv-x="940" 
d="M729 1870h309l-290 -311h-234zM520 162h-235l-54 -162h-342l568 1475h331l58 -1475h-328zM379 442h143l4 357l19 184l-47 -184z" />
    <glyph glyph-name="Acircumflex" unicode="&#xc2;" horiz-adv-x="940" 
d="M674 1708l-90 -149h-226l244 352h205l121 -352h-219zM520 162h-235l-54 -162h-342l568 1475h331l58 -1475h-328zM379 442h143l4 357l19 184l-47 -184z" />
    <glyph glyph-name="Atilde" unicode="&#xc3;" horiz-adv-x="940" 
d="M317 1556q35 186 88.5 257t157.5 71q56 0 92 -20q21 -10 47 -26t43 -25t31 -9q39 0 51 72h193q-17 -102 -53 -197q-30 -70 -75.5 -99.5t-115.5 -29.5q-54 0 -90 23q-16 9 -44 27t-47.5 27t-37.5 9q-34 0 -49 -80h-191zM520 162h-235l-54 -162h-342l568 1475h331l58 -1475
h-328zM379 442h143l4 357l19 184l-47 -184z" />
    <glyph glyph-name="Adieresis" unicode="&#xc4;" horiz-adv-x="940" 
d="M479 1554q-78 0 -99 28t-7 112q17 86 51 117.5t106 31.5q78 0 102 -32t7 -117q-14 -80 -48 -110t-112 -30zM793 1554q-79 0 -100 28t-7 112q17 87 49.5 118t108.5 31q75 0 100 -32.5t8 -116.5q-13 -79 -47.5 -109.5t-111.5 -30.5zM520 162h-235l-54 -162h-342l568 1475
h331l58 -1475h-328zM379 442h143l4 357l19 184l-47 -184z" />
    <glyph glyph-name="Aring" unicode="&#xc5;" horiz-adv-x="940" 
d="M637 1552q-108 0 -168 64.5t-41 165.5q20 105 93 159t179 54q116 0 175 -63.5t40 -170.5q-19 -103 -90 -156t-188 -53zM664 1729q48 0 57 45q10 47 -41 47q-47 0 -57 -47q-3 -45 41 -45zM520 162h-235l-54 -162h-342l568 1475h331l58 -1475h-328zM379 442h143l4 357
l19 184l-47 -184z" />
    <glyph glyph-name="AE" unicode="&#xc6;" horiz-adv-x="1304" 
d="M551 162h-266l-72 -162h-332l674 1475h848l-51 -297h-463l-12 -283h413l-53 -297h-373l-12 -289h350l-53 -309h-608zM590 864l-187 -426h162z" />
    <glyph glyph-name="Ccedilla" unicode="&#xc7;" horiz-adv-x="964" 
d="M305 -494q-139 0 -210 53t-81 177h246q4 -29 18.5 -39t47.5 -10q66 0 75 47q4 20 -11.5 31.5t-47.5 11.5h-111l39 215q-161 35 -217 152t-20 321l106 600q25 160 94 260q62 92 156.5 132t226.5 40q136 0 234 -49q203 -106 145 -424l-30 -172h-357l33 188q18 89 7.5 124.5
t-58.5 35.5q-47 0 -68 -34t-39 -126l-104 -594q-14 -86 -3 -122.5t54 -36.5q49 0 71 33.5t36 123.5l36 215h359l-41 -233q-39 -227 -134.5 -331.5t-285.5 -114.5l-12 -68q191 -22 159 -201q-19 -106 -96 -155.5t-217 -49.5z" />
    <glyph glyph-name="Egrave" unicode="&#xc8;" horiz-adv-x="821" 
d="M336 1870h307l76 -311h-215zM682 0h-721l258 1475h715l-53 -304h-381l-49 -274h342l-56 -307h-342l-47 -275h389z" />
    <glyph glyph-name="Eacute" unicode="&#xc9;" horiz-adv-x="821" 
d="M674 1870h309l-291 -311h-233zM682 0h-721l258 1475h715l-53 -304h-381l-49 -274h342l-56 -307h-342l-47 -275h389z" />
    <glyph glyph-name="Ecircumflex" unicode="&#xca;" horiz-adv-x="821" 
d="M639 1708l-90 -149h-225l243 352h205l121 -352h-219zM682 0h-721l258 1475h715l-53 -304h-381l-49 -274h342l-56 -307h-342l-47 -275h389z" />
    <glyph glyph-name="Edieresis" unicode="&#xcb;" horiz-adv-x="821" 
d="M444 1554q-78 0 -99 28t-7 112q17 86 51 117.5t107 31.5q77 0 101 -32t7 -117q-14 -80 -48 -110t-112 -30zM758 1554q-79 0 -100 28t-7 112q17 87 49.5 118t108.5 31q75 0 100.5 -32.5t8.5 -116.5q-13 -79 -48 -109.5t-112 -30.5zM682 0h-721l258 1475h715l-53 -304h-381
l-49 -274h342l-56 -307h-342l-47 -275h389z" />
    <glyph glyph-name="Igrave" unicode="&#xcc;" horiz-adv-x="722" 
d="M266 1870h307l76 -311h-215zM-59 0l55 319h158l147 838h-158l56 318h637l-56 -318h-153l-148 -838h154l-55 -319h-637z" />
    <glyph glyph-name="Iacute" unicode="&#xcd;" horiz-adv-x="722" 
d="M623 1870h309l-291 -311h-233zM-59 0l55 319h158l147 838h-158l56 318h637l-56 -318h-153l-148 -838h154l-55 -319h-637z" />
    <glyph glyph-name="Icircumflex" unicode="&#xce;" horiz-adv-x="722" 
d="M567 1708l-90 -149h-225l244 352h204l121 -352h-219zM-59 0l55 319h158l147 838h-158l56 318h637l-56 -318h-153l-148 -838h154l-55 -319h-637z" />
    <glyph glyph-name="Idieresis" unicode="&#xcf;" horiz-adv-x="722" 
d="M373 1554q-78 0 -99.5 28t-7.5 112q17 86 51 117.5t107 31.5q77 0 101 -32t7 -117q-14 -80 -47.5 -110t-111.5 -30zM686 1554q-79 0 -99.5 28t-6.5 112q17 87 49 118t108 31q75 0 100.5 -32.5t8.5 -116.5q-13 -79 -48 -109.5t-112 -30.5zM-59 0l55 319h158l147 838h-158
l56 318h637l-56 -318h-153l-148 -838h154l-55 -319h-637z" />
    <glyph glyph-name="Eth" unicode="&#xd0;" horiz-adv-x="993" 
d="M-18 0l104 600h-76l53 297h76l101 578h393q136 0 231 -62q97 -62 133 -178t4 -277l-94 -530q-37 -227 -166 -327.5t-350 -100.5h-409zM422 600l-53 -305h57q113 0 137 166l101 563q17 79 -6.5 121.5t-88.5 42.5h-43l-51 -291h90l-53 -297h-90z" />
    <glyph glyph-name="Ntilde" unicode="&#xd1;" horiz-adv-x="1007" 
d="M362 1565q35 186 88.5 256.5t157.5 70.5q56 0 92 -20q21 -10 47 -26t43 -25t31 -9q39 0 51 72h193q-16 -100 -53 -196q-30 -70 -75.5 -99.5t-115.5 -29.5q-56 0 -90 22q-17 9 -44.5 27.5t-47 27.5t-37.5 9q-34 0 -49 -80h-191zM264 0h-303l258 1475h301l129 -721l13 -105
l18 156l117 670h303l-258 -1475h-295l-135 721l-13 104l-20 -166z" />
    <glyph glyph-name="Ograve" unicode="&#xd2;" horiz-adv-x="978" 
d="M401 1892h308l75 -311h-215zM424 -23q-170 0 -264 64q-180 122 -127 434l100 569q43 245 161 349t324 104q222 0 322.5 -124.5t54.5 -385.5l-96 -549q-43 -247 -150.5 -354t-324.5 -107zM438 287q50 0 75 34t38 123l104 596q17 89 4 124.5t-63 35.5q-48 0 -70.5 -35
t-40.5 -125l-106 -596q-13 -85 0.5 -121t58.5 -36z" />
    <glyph glyph-name="Oacute" unicode="&#xd3;" horiz-adv-x="978" 
d="M737 1894h310l-291 -311h-234zM424 -23q-170 0 -264 64q-180 122 -127 434l100 569q43 245 161 349t324 104q222 0 322.5 -124.5t54.5 -385.5l-96 -549q-43 -247 -150.5 -354t-324.5 -107zM438 287q50 0 75 34t38 123l104 596q17 89 4 124.5t-63 35.5q-48 0 -70.5 -35
t-40.5 -125l-106 -596q-13 -85 0.5 -121t58.5 -36z" />
    <glyph glyph-name="Ocircumflex" unicode="&#xd4;" horiz-adv-x="978" 
d="M705 1731l-91 -150h-225l244 352h205l120 -352h-219zM424 -23q-170 0 -264 64q-180 122 -127 434l100 569q43 245 161 349t324 104q222 0 322.5 -124.5t54.5 -385.5l-96 -549q-43 -247 -150.5 -354t-324.5 -107zM438 287q50 0 75 34t38 123l104 596q17 89 4 124.5
t-63 35.5q-48 0 -70.5 -35t-40.5 -125l-106 -596q-13 -85 0.5 -121t58.5 -36z" />
    <glyph glyph-name="Otilde" unicode="&#xd5;" horiz-adv-x="978" 
d="M346 1579q35 186 88.5 257t157.5 71q54 0 92 -21q21 -10 47 -25.5t43 -24.5t31 -9q39 0 51 71h193q-16 -96 -54 -196q-30 -70 -75 -99.5t-115 -29.5q-56 0 -90 22q-17 9 -44.5 27.5t-47 27.5t-37.5 9q-34 0 -49 -80h-191zM424 -23q-170 0 -264 64q-180 122 -127 434
l100 569q43 245 161 349t324 104q222 0 322.5 -124.5t54.5 -385.5l-96 -549q-43 -247 -150.5 -354t-324.5 -107zM438 287q50 0 75 34t38 123l104 596q17 89 4 124.5t-63 35.5q-48 0 -70.5 -35t-40.5 -125l-106 -596q-13 -85 0.5 -121t58.5 -36z" />
    <glyph glyph-name="Odieresis" unicode="&#xd6;" horiz-adv-x="978" 
d="M508 1556q-78 0 -99.5 28t-7.5 112q17 86 51 117.5t107 31.5q78 0 102 -32t7 -117q-14 -80 -48 -110t-112 -30zM821 1556q-79 0 -99.5 28t-6.5 112q17 87 49 118t108 31q75 0 100.5 -32.5t8.5 -116.5q-13 -79 -48 -109.5t-112 -30.5zM424 -23q-170 0 -264 64
q-180 122 -127 434l100 569q43 245 161 349t324 104q222 0 322.5 -124.5t54.5 -385.5l-96 -549q-43 -247 -150.5 -354t-324.5 -107zM438 287q50 0 75 34t38 123l104 596q17 89 4 124.5t-63 35.5q-48 0 -70.5 -35t-40.5 -125l-106 -596q-13 -85 0.5 -121t58.5 -36z" />
    <glyph glyph-name="multiply" unicode="&#xd7;" horiz-adv-x="927" 
d="M471 555l-225 -193l-156 185l225 192l-151 179l194 169l154 -180l211 180l156 -186l-211 -180l163 -195l-192 -170z" />
    <glyph glyph-name="Oslash" unicode="&#xd8;" horiz-adv-x="978" 
d="M393 -23l-82 -192h-293l123 270q-161 122 -108 420l100 569q43 245 161 349t324 104q40 0 58 -2l69 160h285l-115 -254q131 -122 80 -414l-96 -549q-43 -247 -150.5 -354t-324.5 -107h-31zM438 287q50 0 75 34t38 123l104 596q17 89 4 124.5t-63 35.5q-48 0 -70.5 -35
t-40.5 -125l-106 -596q-13 -85 0.5 -121t58.5 -36z" />
    <glyph glyph-name="Ugrave" unicode="&#xd9;" horiz-adv-x="948" 
d="M377 1870h307l76 -311h-215zM406 -23q-238 0 -325 127t-42 383l174 988h336l-182 -1037q-13 -77 0.5 -106t58.5 -29q47 0 67.5 27.5t34.5 107.5l183 1037h336l-187 -1061q-25 -149 -82 -256q-54 -95 -143 -138t-229 -43z" />
    <glyph glyph-name="Uacute" unicode="&#xda;" horiz-adv-x="948" 
d="M735 1870h309l-290 -311h-234zM406 -23q-238 0 -325 127t-42 383l174 988h336l-182 -1037q-13 -77 0.5 -106t58.5 -29q47 0 67.5 27.5t34.5 107.5l183 1037h336l-187 -1061q-25 -149 -82 -256q-54 -95 -143 -138t-229 -43z" />
    <glyph glyph-name="Ucircumflex" unicode="&#xdb;" horiz-adv-x="948" 
d="M680 1708l-90 -149h-225l243 352h205l121 -352h-219zM406 -23q-238 0 -325 127t-42 383l174 988h336l-182 -1037q-13 -77 0.5 -106t58.5 -29q47 0 67.5 27.5t34.5 107.5l183 1037h336l-187 -1061q-25 -149 -82 -256q-54 -95 -143 -138t-229 -43z" />
    <glyph glyph-name="Udieresis" unicode="&#xdc;" horiz-adv-x="948" 
d="M485 1554q-78 0 -99 28t-7 112q17 86 51 117.5t107 31.5q77 0 101 -32t7 -117q-14 -80 -48 -110t-112 -30zM799 1554q-79 0 -100 28t-7 112q17 87 49.5 118t108.5 31q75 0 100 -32.5t8 -116.5q-13 -79 -47.5 -109.5t-111.5 -30.5zM406 -23q-238 0 -325 127t-42 383
l174 988h336l-182 -1037q-13 -77 0.5 -106t58.5 -29q47 0 67.5 27.5t34.5 107.5l183 1037h336l-187 -1061q-25 -149 -82 -256q-54 -95 -143 -138t-229 -43z" />
    <glyph glyph-name="Yacute" unicode="&#xdd;" horiz-adv-x="890" 
d="M700 1866h310l-291 -312h-234zM166 0l92 528l-113 947h344l25 -418l-14 -154l41 156l174 414l342 2l-451 -945l-92 -530h-348z" />
    <glyph glyph-name="Thorn" unicode="&#xde;" horiz-adv-x="942" 
d="M336 233l-41 -233h-330l258 1475h330l-41 -232h94q212 0 291.5 -99t46.5 -294l-51 -293q-31 -175 -138 -249.5t-327 -74.5h-92zM463 961l-76 -437h74q48 0 74.5 16.5t33.5 61.5l52 283q7 44 -14 60t-70 16h-74z" />
    <glyph glyph-name="germandbls" unicode="&#xdf;" horiz-adv-x="923" 
d="M291 0h-334l217 1225q30 174 135.5 261t302.5 87q213 0 302.5 -96t54.5 -283l-35 -182q-27 -147 -131 -193q57 -18 79 -63.5t5 -132.5l-58 -314q-20 -107 -41 -166t-55 -88q-34 -31 -91.5 -43t-156.5 -12h-123l52 291h8q37 0 55 16t25 62l41 227q6 40 -5.5 54t-43.5 14
h-15l47 276h9q63 0 77 80l35 188q15 80 -59 80q-39 0 -58.5 -21t-27.5 -65z" />
    <glyph glyph-name="agrave" unicode="&#xe0;" horiz-adv-x="931" 
d="M317 1608h308l75 -312h-215zM668 0q-101 0 -147 26.5t-52 92.5q-83 -142 -258 -142q-149 0 -201 80t-22 252l8 45q31 172 131 242q23 16 43 27.5t51.5 23.5t43.5 16.5t62 20.5t66 21q100 32 136.5 55t43.5 71l5 25q7 54 -6.5 77t-51.5 23q-34 0 -55 -22t-31 -78l-16 -98
h-332l18 106q30 168 140 259t301 91q212 0 293 -99.5t45 -307.5l-82 -467q-6 -31 1.5 -39t35.5 -8h22l-49 -293h-143zM389 231q75 0 96 109l43 244q-14 -24 -47 -35q-62 -21 -86 -45q-20 -19 -30.5 -42t-20.5 -75l-10 -55q-15 -101 55 -101z" />
    <glyph glyph-name="aacute" unicode="&#xe1;" horiz-adv-x="931" 
d="M662 1608h309l-291 -312h-234zM668 0q-101 0 -147 26.5t-52 92.5q-83 -142 -258 -142q-149 0 -201 80t-22 252l8 45q31 172 131 242q23 16 43 27.5t51.5 23.5t43.5 16.5t62 20.5t66 21q100 32 136.5 55t43.5 71l5 25q7 54 -6.5 77t-51.5 23q-34 0 -55 -22t-31 -78
l-16 -98h-332l18 106q30 168 140 259t301 91q212 0 293 -99.5t45 -307.5l-82 -467q-6 -31 1.5 -39t35.5 -8h22l-49 -293h-143zM389 231q75 0 96 109l43 244q-14 -24 -47 -35q-62 -21 -86 -45q-20 -19 -30.5 -42t-20.5 -75l-10 -55q-15 -101 55 -101z" />
    <glyph glyph-name="acircumflex" unicode="&#xe2;" horiz-adv-x="931" 
d="M621 1446l-91 -150h-225l244 353h205l120 -353h-219zM668 0q-101 0 -147 26.5t-52 92.5q-83 -142 -258 -142q-149 0 -201 80t-22 252l8 45q31 172 131 242q23 16 43 27.5t51.5 23.5t43.5 16.5t62 20.5t66 21q100 32 136.5 55t43.5 71l5 25q7 54 -6.5 77t-51.5 23
q-34 0 -55 -22t-31 -78l-16 -98h-332l18 106q30 168 140 259t301 91q212 0 293 -99.5t45 -307.5l-82 -467q-6 -31 1.5 -39t35.5 -8h22l-49 -293h-143zM389 231q75 0 96 109l43 244q-14 -24 -47 -35q-62 -21 -86 -45q-20 -19 -30.5 -42t-20.5 -75l-10 -55q-15 -101 55 -101z
" />
    <glyph glyph-name="atilde" unicode="&#xe3;" horiz-adv-x="931" 
d="M264 1294q35 186 88.5 257t157.5 71q56 0 92 -20q21 -10 47 -26t43 -25t31 -9q39 0 51 72h193q-16 -97 -54 -197q-30 -70 -75 -99.5t-115 -29.5q-54 0 -90 23q-16 9 -44 27t-47.5 27t-37.5 9q-34 0 -49 -80h-191zM668 0q-101 0 -147 26.5t-52 92.5q-83 -142 -258 -142
q-149 0 -201 80t-22 252l8 45q31 172 131 242q23 16 43 27.5t51.5 23.5t43.5 16.5t62 20.5t66 21q100 32 136.5 55t43.5 71l5 25q7 54 -6.5 77t-51.5 23q-34 0 -55 -22t-31 -78l-16 -98h-332l18 106q30 168 140 259t301 91q212 0 293 -99.5t45 -307.5l-82 -467
q-6 -31 1.5 -39t35.5 -8h22l-49 -293h-143zM389 231q75 0 96 109l43 244q-14 -24 -47 -35q-62 -21 -86 -45q-20 -19 -30.5 -42t-20.5 -75l-10 -55q-15 -101 55 -101z" />
    <glyph glyph-name="adieresis" unicode="&#xe4;" horiz-adv-x="931" 
d="M426 1292q-78 0 -99.5 28t-7.5 112q17 86 51 117.5t107 31.5q78 0 102 -32t7 -117q-14 -80 -48 -110t-112 -30zM739 1292q-79 0 -99.5 28t-6.5 112q17 87 49.5 118t108.5 31q75 0 100 -32.5t8 -116.5q-13 -79 -48 -109.5t-112 -30.5zM668 0q-101 0 -147 26.5t-52 92.5
q-83 -142 -258 -142q-149 0 -201 80t-22 252l8 45q31 172 131 242q23 16 43 27.5t51.5 23.5t43.5 16.5t62 20.5t66 21q100 32 136.5 55t43.5 71l5 25q7 54 -6.5 77t-51.5 23q-34 0 -55 -22t-31 -78l-16 -98h-332l18 106q30 168 140 259t301 91q212 0 293 -99.5t45 -307.5
l-82 -467q-6 -31 1.5 -39t35.5 -8h22l-49 -293h-143zM389 231q75 0 96 109l43 244q-14 -24 -47 -35q-62 -21 -86 -45q-20 -19 -30.5 -42t-20.5 -75l-10 -55q-15 -101 55 -101z" />
    <glyph glyph-name="aring" unicode="&#xe5;" horiz-adv-x="931" 
d="M592 1290q-108 0 -168 64.5t-41 165.5q20 105 93 159t179 54q116 0 175 -63.5t40 -170.5q-19 -103 -90 -156t-188 -53zM618 1466q49 0 58 45q5 21 -5.5 34.5t-35.5 13.5q-46 0 -57 -48q-2 -22 6.5 -33.5t33.5 -11.5zM668 0q-101 0 -147 26.5t-52 92.5q-83 -142 -258 -142
q-149 0 -201 80t-22 252l8 45q31 172 131 242q23 16 43 27.5t51.5 23.5t43.5 16.5t62 20.5t66 21q100 32 136.5 55t43.5 71l5 25q7 54 -6.5 77t-51.5 23q-34 0 -55 -22t-31 -78l-16 -98h-332l18 106q30 168 140 259t301 91q212 0 293 -99.5t45 -307.5l-82 -467
q-6 -31 1.5 -39t35.5 -8h22l-49 -293h-143zM389 231q75 0 96 109l43 244q-14 -24 -47 -35q-62 -21 -86 -45q-20 -19 -30.5 -42t-20.5 -75l-10 -55q-15 -101 55 -101z" />
    <glyph glyph-name="ae" unicode="&#xe6;" horiz-adv-x="1372" 
d="M1280 328q-38 -191 -137.5 -271t-290.5 -80q-144 0 -221 44t-103 131q-85 -175 -317 -175q-149 0 -201 80t-22 252l8 45q31 172 131 242q23 16 43 27.5t51.5 23.5t43.5 16.5t62 20.5t66 21q100 32 136.5 55t43.5 71l5 25q7 54 -6.5 77t-51.5 23q-34 0 -55 -22t-31 -78
l-16 -98h-332l18 106q30 168 140 259t301 91q170 0 241 -71q99 74 236 74q204 0 291.5 -117t50.5 -322l-47 -264h-486l-22 -123q-13 -76 1 -104.5t60 -28.5q42 0 62 30t33 99l8 43h327zM866 713h168l15 86q16 78 0.5 109.5t-64.5 31.5q-46 0 -68 -33t-36 -114zM389 231
q75 0 96 109l43 244q-14 -24 -47 -35q-62 -21 -86 -45q-20 -19 -30.5 -42t-20.5 -75l-10 -55q-15 -101 55 -101z" />
    <glyph glyph-name="ccedilla" unicode="&#xe7;" horiz-adv-x="907" 
d="M281 -494q-140 0 -212 53t-79 177h246q4 -29 18 -39t47 -10q67 0 76 47q4 20 -12 31.5t-48 11.5h-110l39 215q-284 66 -221 430l75 436q29 166 143 261t287 95q221 0 309 -116.5t52 -335.5l-17 -96h-335l22 127q13 83 3.5 111t-50.5 28q-43 0 -63 -27.5t-33 -109.5
l-70 -400q-12 -72 0 -99.5t53 -27.5q40 0 58.5 26.5t29.5 94.5l29 168h336l-39 -223q-27 -155 -121 -247t-248 -105l-12 -70q192 -22 160 -201q-19 -106 -96 -155.5t-217 -49.5z" />
    <glyph glyph-name="egrave" unicode="&#xe8;" 
d="M313 1608h308l75 -312h-215zM813 328q-38 -191 -137.5 -271t-290.5 -80q-151 0 -242 56q-165 106 -116 387q2 16 8 43q3 22 39 233l26 152q29 171 143.5 270t288.5 99q219 0 311 -116.5t54 -322.5l-47 -264h-485l-23 -123q-13 -76 1 -104.5t60 -28.5q42 0 62 30t33 99
l8 43h328zM399 713h168l15 86q16 78 0.5 109.5t-64.5 31.5q-46 0 -68 -33t-36 -114z" />
    <glyph glyph-name="eacute" unicode="&#xe9;" 
d="M672 1608h309l-291 -312h-233zM813 328q-38 -191 -137.5 -271t-290.5 -80q-151 0 -242 56q-165 106 -116 387q2 16 8 43q3 22 39 233l26 152q29 171 143.5 270t288.5 99q219 0 311 -116.5t54 -322.5l-47 -264h-485l-23 -123q-13 -76 1 -104.5t60 -28.5q42 0 62 30t33 99
l8 43h328zM399 713h168l15 86q16 78 0.5 109.5t-64.5 31.5q-46 0 -68 -33t-36 -114z" />
    <glyph glyph-name="ecircumflex" unicode="&#xea;" 
d="M616 1446l-90 -150h-225l244 353h205l120 -353h-219zM813 328q-38 -191 -137.5 -271t-290.5 -80q-151 0 -242 56q-165 106 -116 387q2 16 8 43q3 22 39 233l26 152q29 171 143.5 270t288.5 99q219 0 311 -116.5t54 -322.5l-47 -264h-485l-23 -123q-13 -76 1 -104.5
t60 -28.5q42 0 62 30t33 99l8 43h328zM399 713h168l15 86q16 78 0.5 109.5t-64.5 31.5q-46 0 -68 -33t-36 -114z" />
    <glyph glyph-name="edieresis" unicode="&#xeb;" 
d="M422 1292q-78 0 -99.5 28t-7.5 112q17 86 51 117.5t107 31.5q78 0 102 -32t7 -117q-14 -80 -48 -110t-112 -30zM735 1292q-79 0 -99.5 28t-6.5 112q17 87 49 118t108 31q75 0 100.5 -32.5t8.5 -116.5q-13 -79 -48 -109.5t-112 -30.5zM813 328q-38 -191 -137.5 -271
t-290.5 -80q-151 0 -242 56q-165 106 -116 387q2 16 8 43q3 22 39 233l26 152q29 171 143.5 270t288.5 99q219 0 311 -116.5t54 -322.5l-47 -264h-485l-23 -123q-13 -76 1 -104.5t60 -28.5q42 0 62 30t33 99l8 43h328zM399 713h168l15 86q16 78 0.5 109.5t-64.5 31.5
q-46 0 -68 -33t-36 -114z" />
    <glyph glyph-name="igrave" unicode="&#xec;" horiz-adv-x="462" 
d="M84 1593h307l76 -311h-215zM168 1198h344l-211 -1198h-344z" />
    <glyph glyph-name="iacute" unicode="&#xed;" horiz-adv-x="462" 
d="M446 1593h310l-291 -311h-234zM168 1198h344l-211 -1198h-344z" />
    <glyph glyph-name="icircumflex" unicode="&#xee;" horiz-adv-x="462" 
d="M387 1432l-90 -150h-225l243 352h205l121 -352h-219zM168 1198h344l-211 -1198h-344z" />
    <glyph glyph-name="idieresis" unicode="&#xef;" horiz-adv-x="462" 
d="M193 1278q-78 0 -99.5 28t-7.5 111q17 86 51.5 118t106.5 32q77 0 101 -32.5t7 -117.5q-14 -80 -47.5 -109.5t-111.5 -29.5zM506 1278q-79 0 -100 27.5t-7 111.5q17 87 49.5 118.5t108.5 31.5q75 0 100.5 -33t8.5 -117q-13 -79 -48 -109t-112 -30zM168 1198h344
l-211 -1198h-344z" />
    <glyph glyph-name="eth" unicode="&#xf0;" horiz-adv-x="919" 
d="M385 -23q-150 0 -235 58q-90 58 -123 157t-9 230l64 356q37 201 119.5 296t240.5 95q183 0 211 -159q-3 144 -98 268l-90 -53h-264l266 153q-86 86 -240 193h432q16 -10 58 -47l82 47h262l-254 -148q197 -258 108 -608l-86 -481q-31 -170 -146.5 -263.5t-297.5 -93.5z
M410 268q83 0 102 117l68 387q19 117 -70 117q-83 0 -102 -117l-68 -387q-19 -117 70 -117z" />
    <glyph glyph-name="ntilde" unicode="&#xf1;" horiz-adv-x="927" 
d="M281 1278q35 186 88 257t157 71q54 0 92 -21q21 -10 47 -25.5t43 -24.5t31 -9q40 0 52 71h192q-16 -100 -53 -196q-30 -70 -75.5 -99.5t-115.5 -29.5q-56 0 -90 22q-17 9 -44.5 27.5t-47 27.5t-37.5 9q-34 0 -49 -80h-190zM295 0h-338l211 1198h276l9 -141
q81 155 239 155q140 0 199 -86t29 -260l-152 -866h-336l141 807q12 55 1.5 85t-50.5 30q-37 0 -58 -30.5t-32 -92.5z" />
    <glyph glyph-name="ograve" unicode="&#xf2;" 
d="M311 1608h307l76 -312h-215zM379 -23q-151 0 -236 58q-167 113 -118 387l73 424q29 171 142.5 269.5t287.5 98.5q217 0 307 -119.5t54 -332.5l-76 -428q-30 -170 -141.5 -263.5t-292.5 -93.5zM403 268q74 0 93 117l73 424q12 68 -2.5 95.5t-54.5 27.5q-71 0 -90 -111
l-76 -436q-19 -117 57 -117z" />
    <glyph glyph-name="oacute" unicode="&#xf3;" 
d="M670 1608h309l-291 -312h-233zM379 -23q-151 0 -236 58q-167 113 -118 387l73 424q29 171 142.5 269.5t287.5 98.5q217 0 307 -119.5t54 -332.5l-76 -428q-30 -170 -141.5 -263.5t-292.5 -93.5zM403 268q74 0 93 117l73 424q12 68 -2.5 95.5t-54.5 27.5q-71 0 -90 -111
l-76 -436q-19 -117 57 -117z" />
    <glyph glyph-name="ocircumflex" unicode="&#xf4;" 
d="M614 1446l-90 -150h-225l244 353h205l120 -353h-219zM379 -23q-151 0 -236 58q-167 113 -118 387l73 424q29 171 142.5 269.5t287.5 98.5q217 0 307 -119.5t54 -332.5l-76 -428q-30 -170 -141.5 -263.5t-292.5 -93.5zM403 268q74 0 93 117l73 424q12 68 -2.5 95.5
t-54.5 27.5q-71 0 -90 -111l-76 -436q-19 -117 57 -117z" />
    <glyph glyph-name="otilde" unicode="&#xf5;" 
d="M258 1294q35 186 88.5 257t157.5 71q56 0 92 -20q21 -10 47 -26t43 -25t31 -9q39 0 51 72h193q-16 -97 -54 -197q-30 -70 -75 -99.5t-115 -29.5q-54 0 -90 23q-16 9 -44 27t-47.5 27t-37.5 9q-34 0 -49 -80h-191zM379 -23q-151 0 -236 58q-167 113 -118 387l73 424
q29 171 142.5 269.5t287.5 98.5q217 0 307 -119.5t54 -332.5l-76 -428q-30 -170 -141.5 -263.5t-292.5 -93.5zM403 268q74 0 93 117l73 424q12 68 -2.5 95.5t-54.5 27.5q-71 0 -90 -111l-76 -436q-19 -117 57 -117z" />
    <glyph glyph-name="odieresis" unicode="&#xf6;" 
d="M420 1292q-78 0 -99.5 28t-7.5 112q17 86 51 117.5t107 31.5q78 0 102 -32t7 -117q-14 -80 -48 -110t-112 -30zM733 1292q-79 0 -99.5 28t-6.5 112q17 87 49 118t108 31q75 0 100.5 -32.5t8.5 -116.5q-13 -79 -48 -109.5t-112 -30.5zM379 -23q-151 0 -236 58
q-167 113 -118 387l73 424q29 171 142.5 269.5t287.5 98.5q217 0 307 -119.5t54 -332.5l-76 -428q-30 -170 -141.5 -263.5t-292.5 -93.5zM403 268q74 0 93 117l73 424q12 68 -2.5 95.5t-54.5 27.5q-71 0 -90 -111l-76 -436q-19 -117 57 -117z" />
    <glyph glyph-name="divide" unicode="&#xf7;" horiz-adv-x="927" 
d="M520 918q-99 0 -126.5 24t-14.5 100t52 100.5t134 24.5q98 0 127.5 -24.5t16.5 -100.5q-12 -75 -51.5 -99.5t-137.5 -24.5zM133 866h762l-51 -288h-762zM408 272q-98 0 -126.5 25.5t-15.5 101.5t52.5 100.5t134.5 24.5q97 0 126.5 -24.5t16.5 -100.5t-52 -101.5
t-136 -25.5z" />
    <glyph glyph-name="oslash" unicode="&#xf8;" 
d="M354 -23l-75 -163h-332l131 284q-89 120 -53 324l73 424q29 171 142.5 269.5t287.5 98.5h15l65 144h330l-115 -254q105 -119 66 -342l-76 -428q-30 -170 -141.5 -263.5t-292.5 -93.5h-25zM403 268q74 0 93 117l73 424q12 68 -2.5 95.5t-54.5 27.5q-71 0 -90 -111
l-76 -436q-19 -117 57 -117z" />
    <glyph glyph-name="ugrave" unicode="&#xf9;" horiz-adv-x="921" 
d="M309 1593h307l76 -311h-215zM475 143q-77 -161 -239 -161q-279 0 -218 356l152 860h336l-141 -801q-5 -37 -6 -64.5t11 -43t40 -15.5q64 0 88 136l139 788h334l-211 -1198h-273z" />
    <glyph glyph-name="uacute" unicode="&#xfa;" horiz-adv-x="921" 
d="M668 1593h309l-291 -311h-233zM475 143q-77 -161 -239 -161q-279 0 -218 356l152 860h336l-141 -801q-5 -37 -6 -64.5t11 -43t40 -15.5q64 0 88 136l139 788h334l-211 -1198h-273z" />
    <glyph glyph-name="ucircumflex" unicode="&#xfb;" horiz-adv-x="921" 
d="M618 1432l-90 -150h-225l244 352h205l120 -352h-219zM475 143q-77 -161 -239 -161q-279 0 -218 356l152 860h336l-141 -801q-5 -37 -6 -64.5t11 -43t40 -15.5q64 0 88 136l139 788h334l-211 -1198h-273z" />
    <glyph glyph-name="udieresis" unicode="&#xfc;" horiz-adv-x="921" 
d="M418 1278q-78 0 -99.5 28t-7.5 111q17 86 51.5 118t106.5 32q77 0 101.5 -32.5t7.5 -117.5q-13 -79 -47.5 -109t-112.5 -30zM731 1278q-79 0 -99.5 27.5t-6.5 111.5q17 87 49 118.5t108 31.5q75 0 100.5 -33t8.5 -117q-13 -79 -48 -109t-112 -30zM475 143
q-77 -161 -239 -161q-279 0 -218 356l152 860h336l-141 -801q-5 -37 -6 -64.5t11 -43t40 -15.5q64 0 88 136l139 788h334l-211 -1198h-273z" />
    <glyph glyph-name="yacute" unicode="&#xfd;" horiz-adv-x="894" 
d="M649 1591h309l-290 -311h-234zM-121 -385l53 311h109q69 0 99 17.5t50 70.5l27 72l-104 1112h329l17 -473l-31 -260l66 260l180 473h325l-528 -1268q-43 -102 -80.5 -162t-83.5 -94q-86 -59 -276 -59h-152z" />
    <glyph glyph-name="thorn" unicode="&#xfe;" horiz-adv-x="907" 
d="M492 -16q-152 0 -187 133l-86 -488h-328l338 1932h330l-82 -461q74 114 205 114q135 0 191 -108.5t16 -314.5l-72 -414q-40 -216 -118.5 -304.5t-206.5 -88.5zM561 786q14 76 2 110t-53 34q-39 0 -61 -28t-35 -103l-70 -398q-27 -139 57 -139q34 0 56 29.5t35 97.5z" />
    <glyph glyph-name="ydieresis" unicode="&#xff;" horiz-adv-x="894" 
d="M412 1276q-78 0 -99.5 28t-7.5 111q17 86 51.5 118t106.5 32q77 0 101 -32.5t7 -117.5q-14 -80 -47.5 -109.5t-111.5 -29.5zM725 1276q-79 0 -100 27.5t-7 111.5q17 87 49.5 118.5t108.5 31.5q75 0 100.5 -33t8.5 -117q-13 -79 -48 -109t-112 -30zM-121 -385l53 311h109
q69 0 99 17.5t50 70.5l27 72l-104 1112h329l17 -473l-31 -260l66 260l180 473h325l-528 -1268q-43 -102 -80.5 -162t-83.5 -94q-86 -59 -276 -59h-152z" />
    <glyph glyph-name="Amacron" unicode="&#x100;" horiz-adv-x="940" 
d="M467 1804h432l-41 -229h-432zM520 162h-235l-54 -162h-342l568 1475h331l58 -1475h-328zM379 442h143l4 357l19 184l-47 -184z" />
    <glyph glyph-name="amacron" unicode="&#x101;" horiz-adv-x="931" 
d="M414 1542h432l-41 -229h-432zM668 0q-101 0 -147 26.5t-52 92.5q-83 -142 -258 -142q-149 0 -201 80t-22 252l8 45q31 172 131 242q23 16 43 27.5t51.5 23.5t43.5 16.5t62 20.5t66 21q100 32 136.5 55t43.5 71l5 25q7 54 -6.5 77t-51.5 23q-34 0 -55 -22t-31 -78l-16 -98
h-332l18 106q30 168 140 259t301 91q212 0 293 -99.5t45 -307.5l-82 -467q-6 -31 1.5 -39t35.5 -8h22l-49 -293h-143zM389 231q75 0 96 109l43 244q-14 -24 -47 -35q-62 -21 -86 -45q-20 -19 -30.5 -42t-20.5 -75l-10 -55q-15 -101 55 -101z" />
    <glyph glyph-name="Abreve" unicode="&#x102;" horiz-adv-x="940" 
d="M649 1554q-154 0 -209 72.5t-26 235.5h209q-12 -64 -1.5 -85.5t52.5 -21.5t60 21.5t28 85.5h209q-30 -164 -103.5 -236t-218.5 -72zM520 162h-235l-54 -162h-342l568 1475h331l58 -1475h-328zM379 442h143l4 357l19 184l-47 -184z" />
    <glyph glyph-name="abreve" unicode="&#x103;" horiz-adv-x="931" 
d="M596 1292q-154 0 -209.5 72t-26.5 235h209q-11 -65 -0.5 -85.5t52.5 -20.5t60 21t28 85h209q-30 -164 -103.5 -235.5t-218.5 -71.5zM668 0q-101 0 -147 26.5t-52 92.5q-83 -142 -258 -142q-149 0 -201 80t-22 252l8 45q31 172 131 242q23 16 43 27.5t51.5 23.5t43.5 16.5
t62 20.5t66 21q100 32 136.5 55t43.5 71l5 25q7 54 -6.5 77t-51.5 23q-34 0 -55 -22t-31 -78l-16 -98h-332l18 106q30 168 140 259t301 91q212 0 293 -99.5t45 -307.5l-82 -467q-6 -31 1.5 -39t35.5 -8h22l-49 -293h-143zM389 231q75 0 96 109l43 244q-14 -24 -47 -35
q-62 -21 -86 -45q-20 -19 -30.5 -42t-20.5 -75l-10 -55q-15 -101 55 -101z" />
    <glyph glyph-name="Aogonek" unicode="&#x104;" horiz-adv-x="940" 
d="M614 -426q-134 0 -196 58.5t-43 166.5q12 57 43 104t102 97h-2l2 162h-235l-54 -162h-342l568 1475h331l58 -1473l2 -2q-135 -88 -156 -104q-76 -57 -80 -89q-3 -36 33 -36q48 0 62 69h251q-44 -138 -127 -202t-217 -64zM379 442h143l4 357l19 184l-47 -184z" />
    <glyph glyph-name="aogonek" unicode="&#x105;" horiz-adv-x="931" 
d="M922 -160q-44 -138 -127 -202t-217 -64q-135 0 -197 58.5t-43 166.5q11 62 50.5 113.5t131.5 114.5q-48 28 -51 92q-83 -142 -258 -142q-149 0 -201 80t-22 252l8 45q31 172 131 242q23 16 43 27.5t51.5 23.5t43.5 16.5t62 20.5t66 21q100 32 136.5 55t43.5 71l5 25
q7 54 -6.5 77t-51.5 23q-34 0 -55 -22t-31 -78l-16 -98h-332l18 106q30 168 140 259t301 91q212 0 293 -99.5t45 -307.5l-82 -467q-6 -31 1.5 -39t35.5 -8h22l-49 -293q-135 -88 -156 -104q-76 -57 -80 -89q-3 -36 33 -36q48 0 62 69h252zM389 231q75 0 96 109l43 244
q-14 -24 -47 -35q-62 -21 -86 -45q-20 -19 -30.5 -42t-20.5 -75l-10 -55q-15 -101 55 -101z" />
    <glyph glyph-name="Cacute" unicode="&#x106;" horiz-adv-x="964" 
d="M743 1892h310l-291 -311h-234zM420 -23q-249 0 -339 121.5t-48 366.5l106 600q25 160 94 260q62 92 156.5 132t226.5 40q136 0 234 -49q203 -106 145 -424l-30 -172h-357l33 188q18 89 7.5 124.5t-58.5 35.5q-47 0 -68 -34t-39 -126l-104 -594q-14 -86 -3 -122.5
t54 -36.5q49 0 71 33.5t36 123.5l36 215h359l-41 -233q-42 -240 -148.5 -344.5t-322.5 -104.5z" />
    <glyph glyph-name="cacute" unicode="&#x107;" horiz-adv-x="907" 
d="M676 1610h309l-291 -312h-233zM381 -23q-149 0 -240 56q-163 107 -114 389l75 436q29 166 143 261t287 95q221 0 309 -116.5t52 -335.5l-16 -96h-336l22 127q13 83 3.5 111t-50.5 28q-43 0 -63 -27.5t-33 -109.5l-70 -400q-12 -72 0 -99.5t53 -27.5q40 0 59 26.5t30 94.5
l28 168h336l-39 -223q-30 -171 -141 -264t-295 -93z" />
    <glyph glyph-name="Ccircumflex" unicode="&#x108;" horiz-adv-x="964" 
d="M688 1731l-90 -150h-225l243 352h205l121 -352h-219zM420 -23q-249 0 -339 121.5t-48 366.5l106 600q25 160 94 260q62 92 156.5 132t226.5 40q136 0 234 -49q203 -106 145 -424l-30 -172h-357l33 188q18 89 7.5 124.5t-58.5 35.5q-47 0 -68 -34t-39 -126l-104 -594
q-14 -86 -3 -122.5t54 -36.5q49 0 71 33.5t36 123.5l36 215h359l-41 -233q-42 -240 -148.5 -344.5t-322.5 -104.5z" />
    <glyph glyph-name="ccircumflex" unicode="&#x109;" horiz-adv-x="907" 
d="M621 1448l-91 -150h-225l244 353h205l120 -353h-219zM381 -23q-149 0 -240 56q-163 107 -114 389l75 436q29 166 143 261t287 95q221 0 309 -116.5t52 -335.5l-16 -96h-336l22 127q13 83 3.5 111t-50.5 28q-43 0 -63 -27.5t-33 -109.5l-70 -400q-12 -72 0 -99.5t53 -27.5
q40 0 59 26.5t30 94.5l28 168h336l-39 -223q-30 -171 -141 -264t-295 -93z" />
    <glyph glyph-name="Cdotaccent" unicode="&#x10a;" horiz-adv-x="964" 
d="M653 1577q-91 0 -122 37t-13 131q11 65 33 104q18 36 55.5 51t106.5 15q89 0 122 -36t15 -134q-18 -102 -58.5 -135t-138.5 -33zM420 -23q-249 0 -339 121.5t-48 366.5l106 600q25 160 94 260q62 92 156.5 132t226.5 40q136 0 234 -49q203 -106 145 -424l-30 -172h-357
l33 188q18 89 7.5 124.5t-58.5 35.5q-47 0 -68 -34t-39 -126l-104 -594q-14 -86 -3 -122.5t54 -36.5q49 0 71 33.5t36 123.5l36 215h359l-41 -233q-42 -240 -148.5 -344.5t-322.5 -104.5z" />
    <glyph glyph-name="cdotaccent" unicode="&#x10b;" horiz-adv-x="907" 
d="M586 1294q-91 0 -122 37t-13 131q12 69 32 105q18 36 55.5 50.5t106.5 14.5q89 0 122 -36t15 -134q-18 -102 -58.5 -135t-137.5 -33zM381 -23q-149 0 -240 56q-163 107 -114 389l75 436q29 166 143 261t287 95q221 0 309 -116.5t52 -335.5l-16 -96h-336l22 127
q13 83 3.5 111t-50.5 28q-43 0 -63 -27.5t-33 -109.5l-70 -400q-12 -72 0 -99.5t53 -27.5q40 0 59 26.5t30 94.5l28 168h336l-39 -223q-30 -171 -141 -264t-295 -93z" />
    <glyph glyph-name="Ccaron" unicode="&#x10c;" horiz-adv-x="964" 
d="M551 1581l-121 352h221l33 -149l92 149h225l-245 -352h-205zM420 -23q-249 0 -339 121.5t-48 366.5l106 600q25 160 94 260q62 92 156.5 132t226.5 40q136 0 234 -49q203 -106 145 -424l-30 -172h-357l33 188q18 89 7.5 124.5t-58.5 35.5q-47 0 -68 -34t-39 -126
l-104 -594q-14 -86 -3 -122.5t54 -36.5q49 0 71 33.5t36 123.5l36 215h359l-41 -233q-42 -240 -148.5 -344.5t-322.5 -104.5z" />
    <glyph glyph-name="ccaron" unicode="&#x10d;" horiz-adv-x="907" 
d="M483 1298l-121 353h222l32 -150l93 150h225l-246 -353h-205zM381 -23q-149 0 -240 56q-163 107 -114 389l75 436q29 166 143 261t287 95q221 0 309 -116.5t52 -335.5l-16 -96h-336l22 127q13 83 3.5 111t-50.5 28q-43 0 -63 -27.5t-33 -109.5l-70 -400q-12 -72 0 -99.5
t53 -27.5q40 0 59 26.5t30 94.5l28 168h336l-39 -223q-30 -171 -141 -264t-295 -93z" />
    <glyph glyph-name="Dcaron" unicode="&#x10e;" horiz-adv-x="968" 
d="M537 1559l-121 352h221l33 -150l92 150h225l-246 -352h-204zM219 1475h393q137 0 232 -62q97 -62 133 -178t4 -277l-94 -530q-37 -227 -166 -327.5t-350 -100.5h-410zM506 1188l-158 -893h58q113 0 137 166l100 563q36 164 -94 164h-43z" />
    <glyph glyph-name="dcaron" unicode="&#x10f;" horiz-adv-x="917" 
d="M1214 1671h271l-232 -311h-194zM471 129q-71 -145 -225 -145q-98 0 -152 43q-123 85 -65 403l67 385q72 394 318 397q93 0 140.5 -37.5t59.5 -111.5l88 498h330l-274 -1561h-283zM406 262q37 0 58.5 27.5t33.5 95.5l71 403q16 76 3.5 109t-54.5 33q-39 0 -62.5 -30.5
t-35.5 -102.5l-70 -402q-23 -133 56 -133z" />
    <glyph glyph-name="Dcroat" unicode="&#x110;" horiz-adv-x="993" 
d="M-18 0l104 600h-76l53 297h76l101 578h393q136 0 231 -62q97 -62 133 -178t4 -277l-94 -530q-37 -227 -166 -327.5t-350 -100.5h-409zM422 600l-53 -305h57q113 0 137 166l101 563q17 79 -6.5 121.5t-88.5 42.5h-43l-51 -291h90l-53 -297h-90z" />
    <glyph glyph-name="dcroat" unicode="&#x111;" horiz-adv-x="917" 
d="M471 129q-71 -145 -225 -145q-98 0 -152 43q-123 85 -65 403l67 385q72 394 318 397q93 0 140.5 -37.5t59.5 -111.5l35 197h-106l32 190h107l20 111h330l-18 -111h37l-33 -190h-39l-221 -1260h-283zM406 262q37 0 58.5 27.5t33.5 95.5l71 403q16 76 3.5 109t-54.5 33
q-39 0 -62.5 -30.5t-35.5 -102.5l-70 -402q-23 -133 56 -133z" />
    <glyph glyph-name="Emacron" unicode="&#x112;" horiz-adv-x="821" 
d="M432 1804h432l-41 -229h-432zM682 0h-721l258 1475h715l-53 -304h-381l-49 -274h342l-56 -307h-342l-47 -275h389z" />
    <glyph glyph-name="emacron" unicode="&#x113;" 
d="M410 1542h432l-41 -229h-432zM813 328q-38 -191 -137.5 -271t-290.5 -80q-151 0 -242 56q-165 106 -116 387q2 16 8 43q3 22 39 233l26 152q29 171 143.5 270t288.5 99q219 0 311 -116.5t54 -322.5l-47 -264h-485l-23 -123q-13 -76 1 -104.5t60 -28.5q42 0 62 30t33 99
l8 43h328zM399 713h168l15 86q16 78 0.5 109.5t-64.5 31.5q-46 0 -68 -33t-36 -114z" />
    <glyph glyph-name="Ebreve" unicode="&#x114;" horiz-adv-x="821" 
d="M614 1554q-154 0 -209 72.5t-26 235.5h209q-12 -64 -1.5 -85.5t52.5 -21.5t60 21.5t28 85.5h209q-30 -164 -103.5 -236t-218.5 -72zM682 0h-721l258 1475h715l-53 -304h-381l-49 -274h342l-56 -307h-342l-47 -275h389z" />
    <glyph glyph-name="ebreve" unicode="&#x115;" 
d="M592 1292q-154 0 -209.5 72t-26.5 235h209q-11 -65 -1 -85.5t52 -20.5t60.5 21t28.5 85h208q-30 -164 -103 -235.5t-218 -71.5zM813 328q-38 -191 -137.5 -271t-290.5 -80q-151 0 -242 56q-165 106 -116 387q2 16 8 43q3 22 39 233l26 152q29 171 143.5 270t288.5 99
q219 0 311 -116.5t54 -322.5l-47 -264h-485l-23 -123q-13 -76 1 -104.5t60 -28.5q42 0 62 30t33 99l8 43h328zM399 713h168l15 86q16 78 0.5 109.5t-64.5 31.5q-46 0 -68 -33t-36 -114z" />
    <glyph glyph-name="Edotaccent" unicode="&#x116;" horiz-adv-x="821" 
d="M604 1556q-91 0 -122 37t-13 131q11 66 33 105q18 36 55.5 50.5t106.5 14.5q89 0 122 -36t15 -134q-18 -102 -58.5 -135t-138.5 -33zM682 0h-721l258 1475h715l-53 -304h-381l-49 -274h342l-56 -307h-342l-47 -275h389z" />
    <glyph glyph-name="edotaccent" unicode="&#x117;" 
d="M582 1292q-91 0 -122.5 37t-13.5 131q11 66 33 105q18 36 55.5 50.5t106.5 14.5q89 0 122 -36t15 -134q-18 -102 -58.5 -135t-137.5 -33zM813 328q-38 -191 -137.5 -271t-290.5 -80q-151 0 -242 56q-165 106 -116 387q2 16 8 43q3 22 39 233l26 152q29 171 143.5 270
t288.5 99q219 0 311 -116.5t54 -322.5l-47 -264h-485l-23 -123q-13 -76 1 -104.5t60 -28.5q42 0 62 30t33 99l8 43h328zM399 713h168l15 86q16 78 0.5 109.5t-64.5 31.5q-46 0 -68 -33t-36 -114z" />
    <glyph glyph-name="Eogonek" unicode="&#x118;" horiz-adv-x="821" 
d="M791 -160q-44 -138 -127.5 -202t-217.5 -64t-196 58.5t-43 166.5q12 57 43 104t102 97h-391l258 1475h715l-53 -304h-381l-49 -274h342l-56 -307h-342l-47 -275h389l-55 -315h-2q-135 -88 -156 -104q-76 -57 -80 -89q-3 -36 33 -36q48 0 62 69h252z" />
    <glyph glyph-name="eogonek" unicode="&#x119;" 
d="M367 -399q-135 0 -197 58.5t-43 166.5q23 98 106 170q-269 71 -206 424q2 16 8 43q3 22 39 233l26 152q29 171 143.5 270t288.5 99q219 0 311 -116.5t54 -322.5l-47 -264h-485l-23 -123q-13 -76 1 -104.5t60 -28.5q42 0 62 30t33 99l8 43h328l-21 -102q-29 -145 -90 -223
t-168 -107l-125 -86q-61 -49 -65 -78q-3 -37 32 -37q48 0 62 70h252q-44 -138 -127 -202t-217 -64zM399 713h168l15 86q16 78 0.5 109.5t-64.5 31.5q-46 0 -68 -33t-36 -114z" />
    <glyph glyph-name="Ecaron" unicode="&#x11a;" horiz-adv-x="821" 
d="M504 1559l-121 352h221l33 -150l92 150h225l-245 -352h-205zM682 0h-721l258 1475h715l-53 -304h-381l-49 -274h342l-56 -307h-342l-47 -275h389z" />
    <glyph glyph-name="ecaron" unicode="&#x11b;" 
d="M479 1296l-121 353h222l32 -150l93 150h225l-246 -353h-205zM813 328q-38 -191 -137.5 -271t-290.5 -80q-151 0 -242 56q-165 106 -116 387q2 16 8 43q3 22 39 233l26 152q29 171 143.5 270t288.5 99q219 0 311 -116.5t54 -322.5l-47 -264h-485l-23 -123
q-13 -76 1 -104.5t60 -28.5q42 0 62 30t33 99l8 43h328zM399 713h168l15 86q16 78 0.5 109.5t-64.5 31.5q-46 0 -68 -33t-36 -114z" />
    <glyph glyph-name="Gcircumflex" unicode="&#x11c;" horiz-adv-x="962" 
d="M702 1731l-90 -150h-225l244 352h205l120 -352h-219zM553 205q-37 -121 -104 -174.5t-181 -53.5q-150 0 -216.5 109t-26.5 328l114 655q26 164 94 264q62 89 155.5 126.5t227.5 37.5q435 0 363 -457l-18 -116h-353l23 118q19 85 8 121.5t-59 36.5q-42 0 -59 -33t-36 -127
l-104 -594q-15 -89 -4 -125t59 -36q47 0 77 35.5t46 123.5l19 99h-101l51 282h416l-145 -825h-246v205z" />
    <glyph glyph-name="gcircumflex" unicode="&#x11d;" horiz-adv-x="919" 
d="M629 1448l-90 -150h-226l244 353h205l121 -353h-219zM313 -391q-151 0 -229 47q-156 87 -113 317l2 13h320l-2 -13q-8 -53 1 -73.5t48 -20.5q41 0 58 26.5t28 94.5l33 193q-32 -74 -81 -111t-124 -37q-98 0 -152 43q-121 83 -65 404l57 323q72 396 320 399
q195 0 215 -165l61 149h277l-217 -1229q-15 -90 -45 -155t-81.5 -112t-128.5 -70t-182 -23zM414 324q37 0 58.5 27t33.5 95l61 342q16 76 3.5 109t-54.5 33q-39 0 -62.5 -30.5t-35.5 -102.5l-60 -340q-23 -133 56 -133z" />
    <glyph glyph-name="Gbreve" unicode="&#x11e;" horiz-adv-x="962" 
d="M682 1577q-154 0 -209.5 72t-26.5 235h209q-11 -64 -0.5 -85t52.5 -21t60 21t28 85h209q-30 -164 -103.5 -235.5t-218.5 -71.5zM553 205q-37 -121 -104 -174.5t-181 -53.5q-150 0 -216.5 109t-26.5 328l114 655q26 164 94 264q62 89 155.5 126.5t227.5 37.5
q435 0 363 -457l-18 -116h-353l23 118q19 85 8 121.5t-59 36.5q-42 0 -59 -33t-36 -127l-104 -594q-15 -89 -4 -125t59 -36q47 0 77 35.5t46 123.5l19 99h-101l51 282h416l-145 -825h-246v205z" />
    <glyph glyph-name="gbreve" unicode="&#x11f;" horiz-adv-x="919" 
d="M606 1272q-154 0 -209 72t-26 235h209q-12 -65 -1.5 -85.5t52.5 -20.5t60 21t28 85h209q-30 -164 -103.5 -235.5t-218.5 -71.5zM313 -391q-151 0 -229 47q-156 87 -113 317l2 13h320l-2 -13q-8 -53 1 -73.5t48 -20.5q41 0 58 26.5t28 94.5l33 193q-32 -74 -81 -111
t-124 -37q-98 0 -152 43q-121 83 -65 404l57 323q72 396 320 399q195 0 215 -165l61 149h277l-217 -1229q-15 -90 -45 -155t-81.5 -112t-128.5 -70t-182 -23zM414 324q37 0 58.5 27t33.5 95l61 342q16 76 3.5 109t-54.5 33q-39 0 -62.5 -30.5t-35.5 -102.5l-60 -340
q-23 -133 56 -133z" />
    <glyph glyph-name="Gdotaccent" unicode="&#x120;" horiz-adv-x="962" 
d="M672 1577q-91 0 -122 37t-13 131q11 67 32 104q18 36 55.5 51t106.5 15q89 0 122 -36t15 -134q-18 -102 -58.5 -135t-137.5 -33zM553 205q-37 -121 -104 -174.5t-181 -53.5q-150 0 -216.5 109t-26.5 328l114 655q26 164 94 264q62 89 155.5 126.5t227.5 37.5
q435 0 363 -457l-18 -116h-353l23 118q19 85 8 121.5t-59 36.5q-42 0 -59 -33t-36 -127l-104 -594q-15 -89 -4 -125t59 -36q47 0 77 35.5t46 123.5l19 99h-101l51 282h416l-145 -825h-246v205z" />
    <glyph glyph-name="gdotaccent" unicode="&#x121;" horiz-adv-x="919" 
d="M612 1272q-91 0 -122 37t-13 131q11 65 33 104q18 36 55.5 51t106.5 15q89 0 122 -36t15 -134q-18 -102 -58.5 -135t-138.5 -33zM313 -391q-151 0 -229 47q-156 87 -113 317l2 13h320l-2 -13q-8 -53 1 -73.5t48 -20.5q41 0 58 26.5t28 94.5l33 193q-32 -74 -81 -111
t-124 -37q-98 0 -152 43q-121 83 -65 404l57 323q72 396 320 399q195 0 215 -165l61 149h277l-217 -1229q-15 -90 -45 -155t-81.5 -112t-128.5 -70t-182 -23zM414 324q37 0 58.5 27t33.5 95l61 342q16 76 3.5 109t-54.5 33q-39 0 -62.5 -30.5t-35.5 -102.5l-60 -340
q-23 -133 56 -133z" />
    <glyph glyph-name="uni0122" unicode="&#x122;" horiz-adv-x="962" 
d="M553 205q-37 -121 -104 -174.5t-181 -53.5q-150 0 -216.5 109t-26.5 328l114 655q26 164 94 264q62 89 155.5 126.5t227.5 37.5q435 0 363 -457l-18 -116h-353l23 118q19 85 8 121.5t-59 36.5q-42 0 -59 -33t-36 -127l-104 -594q-15 -89 -4 -125t59 -36q47 0 77 35.5
t46 123.5l19 99h-101l51 282h416l-145 -825h-246v205zM188 -457q54 0 80.5 17.5t40.5 60.5h-12q-68 0 -88.5 26.5t-7.5 112.5q14 81 50 113.5t118 32.5q85 0 108.5 -39t3.5 -152q-55 -305 -317 -305z" />
    <glyph glyph-name="uni0123" unicode="&#x123;" horiz-adv-x="919" 
d="M616 1274q-86 0 -109 38.5t-3 151.5q55 305 317 305l-24 -133q-52 0 -80 -17.5t-41 -59.5h12q70 0 91.5 -27t4.5 -113q-14 -81 -50 -113t-118 -32zM313 -391q-151 0 -229 47q-156 87 -113 317l2 13h320l-2 -13q-8 -53 1 -73.5t48 -20.5q41 0 58 26.5t28 94.5l33 193
q-32 -74 -81 -111t-124 -37q-98 0 -152 43q-121 83 -65 404l57 323q72 396 320 399q195 0 215 -165l61 149h277l-217 -1229q-15 -90 -45 -155t-81.5 -112t-128.5 -70t-182 -23zM414 324q37 0 58.5 27t33.5 95l61 342q16 76 3.5 109t-54.5 33q-39 0 -62.5 -30.5t-35.5 -102.5
l-60 -340q-23 -133 56 -133z" />
    <glyph glyph-name="Hcircumflex" unicode="&#x124;" horiz-adv-x="966" 
d="M694 1708l-90 -149h-225l244 352h204l121 -352h-219zM567 580h-168l-102 -580h-336l258 1475h336l-100 -574h168l100 574h336l-258 -1475h-336z" />
    <glyph glyph-name="hcircumflex" unicode="&#x125;" horiz-adv-x="921" 
d="M453 1790l-91 -150h-225l244 353h205l121 -353h-220zM291 0h-334l274 1561h334l-90 -514q75 165 232 165q138 0 188.5 -84.5t19.5 -261.5l-151 -866h-336l141 807q12 55 1.5 85t-50.5 30q-37 0 -58 -30.5t-32 -92.5z" />
    <glyph glyph-name="Hbar" unicode="&#x126;" horiz-adv-x="1026" 
d="M598 539h-178l-94 -539h-338l178 1022h-82l47 260h82l33 193h338l-33 -193h178l33 193h338l-33 -193h74l-47 -260h-74l-178 -1022h-338zM682 1022h-178l-37 -211h178z" />
    <glyph glyph-name="hbar" unicode="&#x127;" horiz-adv-x="921" 
d="M291 0h-334l221 1260h-69l32 190h72l18 111h334l-18 -111h71l-32 -190h-74l-37 -213q75 165 232 165q138 0 188.5 -84.5t19.5 -261.5l-151 -866h-336l141 807q12 55 1.5 85t-50.5 30q-37 0 -58 -30.5t-32 -92.5z" />
    <glyph glyph-name="Itilde" unicode="&#x128;" horiz-adv-x="722" 
d="M211 1556q35 186 88.5 257t157.5 71q56 0 92 -20q21 -10 47 -26t43 -25t31 -9q39 0 51 72h192q-17 -102 -53 -197q-30 -70 -75 -99.5t-115 -29.5q-54 0 -90 23q-16 9 -44 27t-47.5 27t-37.5 9q-35 0 -50 -80h-190zM-59 0l55 319h158l147 838h-158l56 318h637l-56 -318
h-153l-148 -838h154l-55 -319h-637z" />
    <glyph glyph-name="itilde" unicode="&#x129;" horiz-adv-x="462" 
d="M31 1280q35 186 88 257t157 71q56 0 93 -21q21 -10 46.5 -25.5t42.5 -24.5t31 -9q40 0 52 71h192q-16 -100 -53 -196q-30 -70 -75.5 -99.5t-115.5 -29.5q-56 0 -90 22q-17 9 -44.5 27.5t-47 27.5t-37.5 9q-34 0 -49 -80h-190zM168 1198h344l-211 -1198h-344z" />
    <glyph glyph-name="Imacron" unicode="&#x12a;" horiz-adv-x="722" 
d="M360 1804h433l-41 -229h-433zM-59 0l55 319h158l147 838h-158l56 318h637l-56 -318h-153l-148 -838h154l-55 -319h-637z" />
    <glyph glyph-name="imacron" unicode="&#x12b;" horiz-adv-x="462" 
d="M180 1528h432l-41 -230h-432zM168 1198h344l-211 -1198h-344z" />
    <glyph glyph-name="Ibreve" unicode="&#x12c;" horiz-adv-x="722" 
d="M543 1554q-154 0 -209.5 72.5t-26.5 235.5h209q-12 -64 -1.5 -85.5t52.5 -21.5t60 21.5t28 85.5h209q-30 -165 -103 -236.5t-218 -71.5zM-59 0l55 319h158l147 838h-158l56 318h637l-56 -318h-153l-148 -838h154l-55 -319h-637z" />
    <glyph glyph-name="ibreve" unicode="&#x12d;" horiz-adv-x="462" 
d="M362 1278q-154 0 -209 72t-26 235h209q-12 -65 -1.5 -85.5t52.5 -20.5t60 21t28 85h209q-30 -164 -103.5 -235.5t-218.5 -71.5zM168 1198h344l-211 -1198h-344z" />
    <glyph glyph-name="Iogonek" unicode="&#x12e;" horiz-adv-x="722" 
d="M688 -160q-44 -138 -127 -202t-217 -64q-135 0 -197 58.5t-43 166.5q12 57 43.5 104t102.5 97h-309l55 319h158l147 838h-158l56 318h637l-56 -318h-153l-148 -838h154l-55 -319q-135 -88 -156 -104q-76 -57 -80 -89q-3 -36 33 -36q47 0 61 69h252z" />
    <glyph glyph-name="iogonek" unicode="&#x12f;" horiz-adv-x="462" 
d="M352 1231q-107 0 -143 37.5t-19 128.5q17 97 61 131.5t146 34.5q104 0 141.5 -36.5t20.5 -129.5q-17 -95 -62 -130.5t-145 -35.5zM72 -426q-135 0 -197 58.5t-43 166.5q8 55 40.5 102.5t104.5 98.5h-20l209 1190q41 -35 170 -35q121 0 174 37l-209 -1190l4 -2
q-128 -84 -155 -104q-76 -57 -80 -89q-3 -36 32 -36q48 0 62 69h252q-44 -138 -127 -202t-217 -64z" />
    <glyph glyph-name="Idotaccent" unicode="&#x130;" horiz-adv-x="722" 
d="M532 1554q-91 0 -122 37t-13 131q11 66 33 105q18 36 55.5 50.5t106.5 14.5q89 0 122 -36t15 -134q-18 -102 -58.5 -135t-138.5 -33zM-59 0l55 319h158l147 838h-158l56 318h637l-56 -318h-153l-148 -838h154l-55 -319h-637z" />
    <glyph glyph-name="dotlessi" unicode="&#x131;" horiz-adv-x="462" 
d="M168 1198h344l-211 -1198h-344z" />
    <glyph glyph-name="IJ" unicode="&#x132;" horiz-adv-x="1245" 
d="M696 317h33q38 0 51.5 15.5t20.5 70.5l190 1076h348l-190 -1082q-26 -138 -52.5 -214.5t-66.5 -116.5q-41 -37 -107 -51.5t-175 -14.5h-107zM-59 0l55 319h158l147 838h-158l56 318h637l-56 -318h-153l-148 -838h146l-56 -319h-628z" />
    <glyph glyph-name="ij" unicode="&#x133;" horiz-adv-x="933" 
d="M342 1210q-107 0 -140 33.5t-16 132.5q17 96 63.5 131t149.5 35q104 0 138.5 -35t17.5 -131q-17 -95 -64.5 -130.5t-148.5 -35.5zM809 1210q-105 0 -138 33.5t-16 132.5q17 97 62.5 131.5t148.5 34.5q105 0 139 -34.5t17 -131.5q-17 -95 -64.5 -130.5t-148.5 -35.5z
M-74 -90h414q41 0 56.5 15.5t23.5 62.5l213 1202q41 -35 166 -35q124 0 180 37l-223 -1268q-21 -125 -68 -190q-46 -65 -124 -92t-206 -27h-483zM166 1190q38 -35 166 -35q125 0 178 37l-209 -1192h-344z" />
    <glyph glyph-name="Jcircumflex" unicode="&#x134;" horiz-adv-x="919" 
d="M883 1708l-90 -149h-226l244 352h205l121 -352h-219zM373 -23q-235 0 -320.5 127t-42.5 377l25 142h350l-39 -215q-12 -66 -2 -93.5t45 -27.5q36 0 54 24.5t30 91.5l189 1072h348l-181 -1029q-43 -251 -147 -360t-309 -109z" />
    <glyph glyph-name="jcircumflex" unicode="&#x135;" horiz-adv-x="477" 
d="M399 1432l-90 -150h-225l244 352h204l121 -352h-219zM-266 -426l55 315h90q39 0 55.5 15.5t26.5 62.5l217 1231h344l-229 -1294q-32 -185 -121 -257.5t-274 -72.5h-164z" />
    <glyph glyph-name="uni0136" unicode="&#x136;" horiz-adv-x="989" 
d="M465 715l-72 -115l-104 -600h-328l258 1475h328l-70 -400l-18 -86l22 47l258 439h383l-360 -553l8 -50l107 -872h-363l-49 612v103zM205 -436q54 0 80.5 17.5t40.5 60.5h-13q-68 0 -88.5 26.5t-7.5 112.5q14 81 50 113t118 32q86 0 109.5 -38.5t3.5 -151.5
q-55 -305 -318 -305z" />
    <glyph glyph-name="uni0137" unicode="&#x137;" horiz-adv-x="917" 
d="M430 571l-68 -116l-79 -455h-326l274 1561h326l-123 -695l-12 -55l51 86l199 301h366l-331 -469l124 -729h-337l-66 487zM197 -428q54 0 80 17.5t40 60.5h-12q-68 0 -88.5 26.5t-7.5 112.5q14 81 50 113t118 32q85 0 108.5 -38.5t3.5 -151.5q-55 -305 -317 -305z" />
    <glyph glyph-name="kgreenlandic" unicode="&#x138;" horiz-adv-x="917" 
d="M430 571l-68 -116l-79 -455h-326l211 1198h326l-60 -332l-12 -55l51 86l199 301h366l-331 -469l124 -729h-337l-66 487z" />
    <glyph glyph-name="Lacute" unicode="&#x139;" horiz-adv-x="800" 
d="M496 1870h309l-291 -311h-233zM-39 0l258 1475h348l-198 -1133h346l-60 -342h-694z" />
    <glyph glyph-name="lacute" unicode="&#x13a;" horiz-adv-x="452" 
d="M502 1956h309l-291 -311h-233zM231 1561h334l-274 -1561h-334z" />
    <glyph glyph-name="uni013B" unicode="&#x13b;" horiz-adv-x="800" 
d="M-39 0l258 1475h348l-198 -1133h346l-60 -342h-694zM117 -436q54 0 80.5 17.5t40.5 60.5h-13q-68 0 -88.5 26.5t-7.5 112.5q14 81 50 113t118 32q86 0 109.5 -38.5t3.5 -151.5q-55 -305 -318 -305z" />
    <glyph glyph-name="uni013C" unicode="&#x13c;" horiz-adv-x="452" 
d="M231 1561h334l-274 -1561h-334zM-61 -436q54 0 80 17.5t40 60.5h-12q-68 0 -88.5 26.5t-7.5 112.5q14 81 50 113t118 32q85 0 108.5 -38.5t3.5 -151.5q-55 -305 -317 -305z" />
    <glyph glyph-name="Lcaron" unicode="&#x13d;" horiz-adv-x="800" 
d="M791 1628h270l-232 -311h-194zM-39 0l258 1475h348l-198 -1133h346l-60 -342h-694z" />
    <glyph glyph-name="lcaron" unicode="&#x13e;" horiz-adv-x="452" 
d="M737 1667h271l-232 -311h-194zM231 1561h334l-274 -1561h-334z" />
    <glyph glyph-name="Ldot" unicode="&#x13f;" horiz-adv-x="882" 
d="M-39 0l258 1475h348l-198 -1133h428l-60 -342h-776zM676 543q-91 0 -122 37t-13 131q11 67 32 104q18 36 55.5 51t106.5 15q89 0 122 -36t15 -134q-18 -102 -58.5 -135t-137.5 -33z" />
    <glyph glyph-name="ldot" unicode="&#x140;" horiz-adv-x="784" 
d="M231 1561h334l-274 -1561h-334zM588 414q-91 0 -122 37t-13 131q11 67 32 104q18 36 55.5 51t106.5 15q89 0 122 -36t15 -134q-18 -102 -58.5 -135t-137.5 -33z" />
    <glyph glyph-name="Lslash" unicode="&#x141;" horiz-adv-x="821" 
d="M-23 0l111 627l-78 -13l6 252l117 19l103 590h348l-92 -531l131 23l-7 -252l-172 -29l-59 -344h346l-59 -342h-695z" />
    <glyph glyph-name="lslash" unicode="&#x142;" horiz-adv-x="501" 
d="M-20 0l83 473l-61 -12l-8 235l112 23l148 842h334l-135 -770l63 12l6 -234l-112 -24l-97 -545h-333z" />
    <glyph glyph-name="Nacute" unicode="&#x143;" horiz-adv-x="1007" 
d="M758 1862h309l-291 -312h-233zM264 0h-303l258 1475h301l129 -721l13 -105l18 156l117 670h303l-258 -1475h-295l-135 721l-13 104l-20 -166z" />
    <glyph glyph-name="nacute" unicode="&#x144;" horiz-adv-x="927" 
d="M692 1591h309l-290 -311h-234zM295 0h-338l211 1198h276l9 -141q81 155 239 155q140 0 199 -86t29 -260l-152 -866h-336l141 807q12 55 1.5 85t-50.5 30q-37 0 -58 -30.5t-32 -92.5z" />
    <glyph glyph-name="uni0145" unicode="&#x145;" horiz-adv-x="1007" 
d="M264 0h-303l258 1475h301l129 -721l13 -105l18 156l117 670h303l-258 -1475h-295l-135 721l-13 104l-20 -166zM213 -430q54 0 80.5 17.5t40.5 60.5h-12q-68 0 -89 26.5t-8 112.5q14 81 50 113t118 32q86 0 109.5 -38.5t3.5 -151.5q-55 -305 -318 -305z" />
    <glyph glyph-name="uni0146" unicode="&#x146;" horiz-adv-x="927" 
d="M295 0h-338l211 1198h276l9 -141q81 155 239 155q140 0 199 -86t29 -260l-152 -866h-336l141 807q12 55 1.5 85t-50.5 30q-37 0 -58 -30.5t-32 -92.5zM168 -436q54 0 80.5 17.5t40.5 60.5h-13q-68 0 -88.5 26.5t-7.5 112.5q14 81 50 113t118 32q86 0 109.5 -38.5
t3.5 -151.5q-55 -305 -318 -305z" />
    <glyph glyph-name="Ncaron" unicode="&#x147;" horiz-adv-x="1007" 
d="M565 1550l-121 353h222l32 -150l93 150h225l-246 -353h-205zM264 0h-303l258 1475h301l129 -721l13 -105l18 156l117 670h303l-258 -1475h-295l-135 721l-13 104l-20 -166z" />
    <glyph glyph-name="ncaron" unicode="&#x148;" horiz-adv-x="927" 
d="M500 1280l-121 352h221l33 -149l92 149h225l-245 -352h-205zM295 0h-338l211 1198h276l9 -141q81 155 239 155q140 0 199 -86t29 -260l-152 -866h-336l141 807q12 55 1.5 85t-50.5 30q-37 0 -58 -30.5t-32 -92.5z" />
    <glyph glyph-name="Eng" unicode="&#x14a;" horiz-adv-x="1007" 
d="M309 -406l51 297h91q44 0 58.5 13.5t22.5 60.5l11 58l-135 698l-11 88l-18 -150l-115 -659h-303l258 1475h301l133 -721l11 -86l22 186l109 621h305l-273 -1547q-20 -111 -43.5 -174t-62.5 -98q-40 -34 -106 -48t-177 -14h-129z" />
    <glyph glyph-name="eng" unicode="&#x14b;" horiz-adv-x="927" 
d="M199 -426l55 315h90q42 0 58.5 15.5t23.5 62.5l147 840q12 55 1.5 85t-50.5 30q-37 0 -58 -30.5t-32 -92.5l-139 -799h-338l211 1198h276l9 -141q81 155 239 155q140 0 199 -86t29 -260l-170 -966q-22 -128 -66 -195q-43 -71 -119.5 -101t-202.5 -30h-163z" />
    <glyph glyph-name="Omacron" unicode="&#x14c;" horiz-adv-x="978" 
d="M492 1827h432l-41 -230h-432zM424 -23q-170 0 -264 64q-180 122 -127 434l100 569q43 245 161 349t324 104q222 0 322.5 -124.5t54.5 -385.5l-96 -549q-43 -247 -150.5 -354t-324.5 -107zM438 287q50 0 75 34t38 123l104 596q17 89 4 124.5t-63 35.5q-48 0 -70.5 -35
t-40.5 -125l-106 -596q-13 -85 0.5 -121t58.5 -36z" />
    <glyph glyph-name="omacron" unicode="&#x14d;" 
d="M408 1542h432l-41 -229h-432zM379 -23q-151 0 -236 58q-167 113 -118 387l73 424q29 171 142.5 269.5t287.5 98.5q217 0 307 -119.5t54 -332.5l-76 -428q-30 -170 -141.5 -263.5t-292.5 -93.5zM403 268q74 0 93 117l73 424q12 68 -2.5 95.5t-54.5 27.5q-71 0 -90 -111
l-76 -436q-19 -117 57 -117z" />
    <glyph glyph-name="Obreve" unicode="&#x14e;" horiz-adv-x="978" 
d="M688 1577q-154 0 -209 72t-26 235h209q-12 -64 -1.5 -85t52.5 -21t60 21t28 85h209q-30 -164 -103.5 -235.5t-218.5 -71.5zM424 -23q-170 0 -264 64q-180 122 -127 434l100 569q43 245 161 349t324 104q222 0 322.5 -124.5t54.5 -385.5l-96 -549q-43 -247 -150.5 -354
t-324.5 -107zM438 287q50 0 75 34t38 123l104 596q17 89 4 124.5t-63 35.5q-48 0 -70.5 -35t-40.5 -125l-106 -596q-13 -85 0.5 -121t58.5 -36z" />
    <glyph glyph-name="obreve" unicode="&#x14f;" 
d="M590 1292q-154 0 -209.5 72t-26.5 235h209q-11 -65 -1 -85.5t52 -20.5t60 21t28 85h209q-30 -164 -103 -235.5t-218 -71.5zM379 -23q-151 0 -236 58q-167 113 -118 387l73 424q29 171 142.5 269.5t287.5 98.5q217 0 307 -119.5t54 -332.5l-76 -428
q-30 -170 -141.5 -263.5t-292.5 -93.5zM403 268q74 0 93 117l73 424q12 68 -2.5 95.5t-54.5 27.5q-71 0 -90 -111l-76 -436q-19 -117 57 -117z" />
    <glyph glyph-name="Ohungarumlaut" unicode="&#x150;" horiz-adv-x="978" 
d="M614 1581h-170l136 311h241zM883 1581h-174l161 311h250zM424 -23q-170 0 -264 64q-180 122 -127 434l100 569q43 245 161 349t324 104q222 0 322.5 -124.5t54.5 -385.5l-96 -549q-43 -247 -150.5 -354t-324.5 -107zM438 287q50 0 75 34t38 123l104 596q17 89 4 124.5
t-63 35.5q-48 0 -70.5 -35t-40.5 -125l-106 -596q-13 -85 0.5 -121t58.5 -36z" />
    <glyph glyph-name="ohungarumlaut" unicode="&#x151;" 
d="M518 1296h-170l135 312h242zM786 1296h-174l162 312h250zM379 -23q-151 0 -236 58q-167 113 -118 387l73 424q29 171 142.5 269.5t287.5 98.5q217 0 307 -119.5t54 -332.5l-76 -428q-30 -170 -141.5 -263.5t-292.5 -93.5zM403 268q74 0 93 117l73 424q12 68 -2.5 95.5
t-54.5 27.5q-71 0 -90 -111l-76 -436q-19 -117 57 -117z" />
    <glyph glyph-name="OE" unicode="&#x152;" horiz-adv-x="1300" 
d="M481 82q-66 -102 -194 -102q-186 0 -244 105t-16 341q12 66 28 162l54 303l28 162q41 228 141.5 336t266.5 108q132 0 170 -78l10 56h692l-51 -297h-362l-50 -283h351l-54 -297h-350l-51 -289h367l-54 -309h-696zM436 287q49 0 75 37.5t40 126.5l104 585q17 89 4.5 125.5
t-61.5 36.5t-75 -38t-40 -124l-104 -585q-15 -86 -3 -125t60 -39z" />
    <glyph glyph-name="oe" unicode="&#x153;" horiz-adv-x="1382" 
d="M1288 328q-38 -190 -134.5 -270.5t-274.5 -80.5q-179 0 -261 82q-95 -82 -258 -82q-137 0 -219 58q-165 116 -116 387l73 424q29 171 141.5 269.5t280.5 98.5q166 0 248 -88q101 91 262 91q204 0 291.5 -117t50.5 -322l-47 -264h-485l-23 -123q-13 -76 1.5 -104.5
t60.5 -28.5q42 0 61.5 30t32.5 99l8 43h328zM874 713h168l15 86q16 78 0.5 109.5t-64.5 31.5q-46 0 -68 -33t-36 -114zM403 268q74 0 93 117l73 424q12 68 -2.5 95.5t-54.5 27.5q-71 0 -90 -111l-76 -436q-19 -117 57 -117z" />
    <glyph glyph-name="Racute" unicode="&#x154;" horiz-adv-x="919" 
d="M727 1870h309l-291 -311h-233zM375 530l-94 -530h-320l258 1475h418q205 0 282.5 -96.5t41.5 -299.5l-33 -188q-13 -90 -54.5 -141t-119.5 -74q65 -31 82.5 -95.5t-2.5 -164.5l-56 -312q-12 -71 21 -104h-342q-26 20 -13 104l58 324q11 60 -5.5 81t-74.5 21h-47z
M489 1194l-63 -367h76q51 0 73.5 19t30.5 65l33 189q11 53 -5.5 73.5t-68.5 20.5h-76z" />
    <glyph glyph-name="racute" unicode="&#x155;" horiz-adv-x="624" 
d="M571 1593h310l-291 -311h-234zM-43 0l211 1198h233l13 -199q30 120 84 167.5t174 47.5h41l-68 -380h-76q-88 0 -119 -29t-49 -121l-118 -684h-326z" />
    <glyph glyph-name="uni0156" unicode="&#x156;" horiz-adv-x="919" 
d="M375 530l-94 -530h-320l258 1475h418q205 0 282.5 -96.5t41.5 -299.5l-33 -188q-13 -90 -54.5 -141t-119.5 -74q65 -31 82.5 -95.5t-2.5 -164.5l-56 -312q-12 -71 21 -104h-342q-26 20 -13 104l58 324q11 60 -5.5 81t-74.5 21h-47zM489 1194l-63 -367h76q51 0 73.5 19
t30.5 65l33 189q11 53 -5.5 73.5t-68.5 20.5h-76zM182 -436q54 0 80.5 17.5t40.5 60.5h-12q-68 0 -88.5 26.5t-7.5 112.5q14 81 49.5 113t117.5 32q86 0 109.5 -38.5t3.5 -151.5q-55 -305 -317 -305z" />
    <glyph glyph-name="uni0157" unicode="&#x157;" horiz-adv-x="624" 
d="M-43 0l211 1198h233l13 -199q30 120 84 167.5t174 47.5h41l-68 -380h-76q-88 0 -119 -29t-49 -121l-118 -684h-326zM-70 -436q54 0 80.5 17.5t40.5 60.5h-12q-68 0 -88.5 26.5t-7.5 112.5q14 81 50 113t118 32q85 0 108.5 -38.5t3.5 -151.5q-55 -305 -317 -305z" />
    <glyph glyph-name="Rcaron" unicode="&#x158;" horiz-adv-x="919" 
d="M535 1559l-121 352h221l33 -150l92 150h225l-246 -352h-204zM375 530l-94 -530h-320l258 1475h418q205 0 282.5 -96.5t41.5 -299.5l-33 -188q-13 -90 -54.5 -141t-119.5 -74q65 -31 82.5 -95.5t-2.5 -164.5l-56 -312q-12 -71 21 -104h-342q-26 20 -13 104l58 324
q11 60 -5.5 81t-74.5 21h-47zM489 1194l-63 -367h76q51 0 73.5 19t30.5 65l33 189q11 53 -5.5 73.5t-68.5 20.5h-76z" />
    <glyph glyph-name="rcaron" unicode="&#x159;" horiz-adv-x="624" 
d="M381 1282l-121 352h221l33 -149l92 149h225l-245 -352h-205zM-43 0l211 1198h233l13 -199q30 120 84 167.5t174 47.5h41l-68 -380h-76q-88 0 -119 -29t-49 -121l-118 -684h-326z" />
    <glyph glyph-name="Sacute" unicode="&#x15a;" horiz-adv-x="888" 
d="M711 1896h309l-291 -311h-233zM369 -25q-169 0 -260 48q-171 93 -123 354l32 182h349l-31 -178q-10 -63 2.5 -86t52.5 -23t59 22t27 68l12 64q12 60 -10 102q-21 39 -58.5 69.5t-98.5 68.5q-62 40 -111 86q-123 107 -90 311l12 72q34 194 143.5 279t292.5 85
q209 0 304.5 -99.5t60.5 -287.5l-25 -139h-329l30 157q10 52 -5 73.5t-54 21.5q-36 0 -54.5 -25.5t-29.5 -79.5l-10 -53q-8 -47 6 -80q16 -28 50.5 -55.5t109.5 -77.5q58 -36 114 -88q129 -119 97 -309l-17 -101q-39 -205 -140.5 -293t-307.5 -88z" />
    <glyph glyph-name="sacute" unicode="&#x15b;" horiz-adv-x="860" 
d="M676 1612h309l-291 -312h-233zM358 -23q-236 0 -325.5 88t-57.5 267l21 114h328l-19 -110q-13 -80 70 -80q77 0 90 90q10 49 -14 76q-21 28 -55.5 49.5t-96.5 52.5q-73 41 -117 76q-133 97 -92 305l2 8q16 86 62 150q101 151 348 151q216 0 305 -86t59 -278l-8 -51h-311
l12 73q15 89 -67 89q-72 0 -82 -70q-5 -28 4 -51t36.5 -44t48.5 -33.5t66 -34.5q7 -3 10 -5q26 -11 121 -74q136 -100 101 -303l-2 -14q-30 -178 -135 -266.5t-302 -88.5z" />
    <glyph glyph-name="Scircumflex" unicode="&#x15c;" horiz-adv-x="888" 
d="M653 1729l-90 -150h-225l244 352h204l121 -352h-219zM369 -25q-169 0 -260 48q-171 93 -123 354l32 182h349l-31 -178q-10 -63 2.5 -86t52.5 -23t59 22t27 68l12 64q12 60 -10 102q-21 39 -58.5 69.5t-98.5 68.5q-62 40 -111 86q-123 107 -90 311l12 72q34 194 143.5 279
t292.5 85q209 0 304.5 -99.5t60.5 -287.5l-25 -139h-329l30 157q10 52 -5 73.5t-54 21.5q-36 0 -54.5 -25.5t-29.5 -79.5l-10 -53q-8 -47 6 -80q16 -28 50.5 -55.5t109.5 -77.5q58 -36 114 -88q129 -119 97 -309l-17 -101q-39 -205 -140.5 -293t-307.5 -88z" />
    <glyph glyph-name="scircumflex" unicode="&#x15d;" horiz-adv-x="860" 
d="M584 1450l-90 -150h-226l244 353h205l121 -353h-220zM358 -23q-236 0 -325.5 88t-57.5 267l21 114h328l-19 -110q-13 -80 70 -80q77 0 90 90q10 49 -14 76q-21 28 -55.5 49.5t-96.5 52.5q-73 41 -117 76q-133 97 -92 305l2 8q16 86 62 150q101 151 348 151q216 0 305 -86
t59 -278l-8 -51h-311l12 73q15 89 -67 89q-72 0 -82 -70q-5 -28 4 -51t36.5 -44t48.5 -33.5t66 -34.5q7 -3 10 -5q26 -11 121 -74q136 -100 101 -303l-2 -14q-30 -178 -135 -266.5t-302 -88.5z" />
    <glyph glyph-name="uni015E" unicode="&#x15e;" horiz-adv-x="888" 
d="M264 -496q-140 0 -212 53t-79 177h246q4 -29 18.5 -39t47.5 -10q66 0 75 47q4 20 -11.5 31.5t-47.5 11.5h-111l37 211q-159 28 -214 127t-25 264l32 182h349l-31 -178q-10 -63 2.5 -86t52.5 -23t59 22t27 68l13 64q11 59 -11 102q-21 39 -58.5 69.5t-98.5 68.5
q-62 40 -111 86q-123 107 -90 311l12 72q34 194 143.5 279t292.5 85q209 0 304.5 -99.5t60.5 -287.5l-25 -139h-329l30 157q10 52 -5 73.5t-54 21.5q-36 0 -54.5 -25.5t-29.5 -79.5l-10 -53q-8 -47 6 -80q16 -28 50.5 -55.5t109.5 -77.5q58 -36 114 -88q129 -119 97 -309
l-17 -101q-36 -190 -125 -279.5t-264 -99.5l-12 -67q192 -22 160 -201q-19 -106 -96.5 -155.5t-217.5 -49.5z" />
    <glyph glyph-name="uni015F" unicode="&#x15f;" horiz-adv-x="860" 
d="M225 -494q-140 0 -212 53t-79 177h246q4 -29 18.5 -39t47.5 -10q67 0 76 47q4 20 -12 31.5t-48 11.5h-110l38 215q-137 30 -187.5 114t-25.5 226l21 114h328l-19 -110q-13 -80 70 -80q77 0 90 90q10 49 -14 76q-21 28 -55.5 49.5t-96.5 52.5q-73 41 -117 76
q-133 97 -92 305l2 8q16 86 62 150q101 151 348 151q216 0 305 -86t59 -278l-8 -51h-311l12 73q15 89 -67 89q-72 0 -82 -70q-4 -23 3.5 -43.5t18.5 -34.5t37 -31t43 -26t52 -27l12 -6q14 -6 31 -16t28.5 -17.5t31 -21t29.5 -19.5q136 -100 101 -303l-2 -14
q-27 -172 -125 -260t-283 -95l-10 -65q192 -22 160 -201q-19 -106 -96.5 -155.5t-217.5 -49.5z" />
    <glyph glyph-name="Scaron" unicode="&#x160;" horiz-adv-x="888" 
d="M518 1585l-121 352h221l33 -149l92 149h226l-246 -352h-205zM369 -25q-169 0 -260 48q-171 93 -123 354l32 182h349l-31 -178q-10 -63 2.5 -86t52.5 -23t59 22t27 68l12 64q12 60 -10 102q-21 39 -58.5 69.5t-98.5 68.5q-62 40 -111 86q-123 107 -90 311l12 72
q34 194 143.5 279t292.5 85q209 0 304.5 -99.5t60.5 -287.5l-25 -139h-329l30 157q10 52 -5 73.5t-54 21.5q-36 0 -54.5 -25.5t-29.5 -79.5l-10 -53q-8 -47 6 -80q16 -28 50.5 -55.5t109.5 -77.5q58 -36 114 -88q129 -119 97 -309l-17 -101q-39 -205 -140.5 -293t-307.5 -88
z" />
    <glyph glyph-name="scaron" unicode="&#x161;" horiz-adv-x="860" 
d="M461 1300l-121 353h221l33 -150l92 150h225l-245 -353h-205zM358 -23q-236 0 -325.5 88t-57.5 267l21 114h328l-19 -110q-13 -80 70 -80q77 0 90 90q10 49 -14 76q-21 28 -55.5 49.5t-96.5 52.5q-73 41 -117 76q-133 97 -92 305l2 8q16 86 62 150q101 151 348 151
q216 0 305 -86t59 -278l-8 -51h-311l12 73q15 89 -67 89q-72 0 -82 -70q-5 -28 4 -51t36.5 -44t48.5 -33.5t66 -34.5q7 -3 10 -5q26 -11 121 -74q136 -100 101 -303l-2 -14q-30 -178 -135 -266.5t-302 -88.5z" />
    <glyph glyph-name="uni0162" unicode="&#x162;" horiz-adv-x="851" 
d="M698 1169l-206 -1169h-336l206 1169h-223l54 306h778l-53 -306h-220zM125 -457q54 0 80.5 17.5t40.5 60.5h-13q-68 0 -88.5 26.5t-7.5 112.5q14 81 50 113.5t118 32.5q86 0 109.5 -39t3.5 -152q-55 -305 -318 -305z" />
    <glyph glyph-name="uni0163" unicode="&#x163;" horiz-adv-x="626" 
d="M494 0h-121q-134 0 -197 31q-70 30 -88.5 105.5t6.5 213.5l92 522h-116l53 308q77 13 106 28q45 23 88 97q33 60 45 110h234l-39 -217h150l-58 -326h-149l-74 -426q-5 -30 -5.5 -51t3.5 -35t9.5 -22t18 -12.5t25 -5.5t33.5 -1h39zM96 -436q54 0 80.5 17.5t40.5 60.5h-12
q-68 0 -88.5 26.5t-7.5 112.5q14 81 49.5 113t117.5 32q86 0 109.5 -38.5t3.5 -151.5q-55 -305 -317 -305z" />
    <glyph glyph-name="Tcaron" unicode="&#x164;" horiz-adv-x="851" 
d="M492 1559l-121 352h221l33 -150l92 150h225l-246 -352h-204zM698 1169l-206 -1169h-336l206 1169h-223l54 306h778l-53 -306h-220z" />
    <glyph glyph-name="tcaron" unicode="&#x165;" horiz-adv-x="626" 
d="M791 1626h270l-232 -311h-194zM494 0h-121q-134 0 -197 31q-70 30 -88.5 105.5t6.5 213.5l92 522h-116l53 308q77 13 106 28q45 23 88 97q33 60 45 110h234l-39 -217h150l-58 -326h-149l-74 -426q-5 -30 -5.5 -51t3.5 -35t9.5 -22t18 -12.5t25 -5.5t33.5 -1h39z" />
    <glyph glyph-name="Tbar" unicode="&#x166;" horiz-adv-x="851" 
d="M588 543l-96 -543h-336l96 543h-131l49 272h129l63 354h-223l54 306h778l-53 -306h-220l-63 -354h125l-49 -272h-123z" />
    <glyph glyph-name="tbar" unicode="&#x167;" horiz-adv-x="626" 
d="M494 0h-121q-134 0 -197 31q-70 30 -88.5 105.5t6.5 213.5l31 174h-94l30 174h95l30 174h-116l53 308q77 13 106 28q45 23 88 97q33 60 45 110h234l-39 -217h150l-58 -326h-149l-29 -174h123l-31 -174h-123l-14 -78q-5 -30 -5.5 -51t3.5 -35t9.5 -22t18 -12.5t25 -5.5
t33.5 -1h39z" />
    <glyph glyph-name="Utilde" unicode="&#x168;" horiz-adv-x="948" 
d="M324 1556q35 186 88 257t157 71q57 0 93 -20q21 -10 46.5 -26t42.5 -25t31 -9q40 0 52 72h192q-17 -102 -53 -197q-30 -70 -75.5 -99.5t-115.5 -29.5q-54 0 -90 23q-16 9 -44 27t-47.5 27t-37.5 9q-34 0 -49 -80h-190zM406 -23q-238 0 -325 127t-42 383l174 988h336
l-182 -1037q-13 -77 0.5 -106t58.5 -29q47 0 67.5 27.5t34.5 107.5l183 1037h336l-187 -1061q-25 -149 -82 -256q-54 -95 -143 -138t-229 -43z" />
    <glyph glyph-name="utilde" unicode="&#x169;" horiz-adv-x="921" 
d="M264 1280q35 186 88.5 257t157.5 71q54 0 92 -21q21 -10 47 -25.5t43 -24.5t31 -9q39 0 51 71h193q-16 -96 -54 -196q-30 -70 -75 -99.5t-115 -29.5q-56 0 -90 22q-17 9 -44.5 27.5t-47 27.5t-37.5 9q-34 0 -49 -80h-191zM475 143q-77 -161 -239 -161q-279 0 -218 356
l152 860h336l-141 -801q-5 -37 -6 -64.5t11 -43t40 -15.5q64 0 88 136l139 788h334l-211 -1198h-273z" />
    <glyph glyph-name="Umacron" unicode="&#x16a;" horiz-adv-x="948" 
d="M473 1804h432l-41 -229h-432zM406 -23q-238 0 -325 127t-42 383l174 988h336l-182 -1037q-13 -77 0.5 -106t58.5 -29q47 0 67.5 27.5t34.5 107.5l183 1037h336l-187 -1061q-25 -149 -82 -256q-54 -95 -143 -138t-229 -43z" />
    <glyph glyph-name="umacron" unicode="&#x16b;" horiz-adv-x="921" 
d="M406 1528h432l-41 -230h-432zM475 143q-77 -161 -239 -161q-279 0 -218 356l152 860h336l-141 -801q-5 -37 -6 -64.5t11 -43t40 -15.5q64 0 88 136l139 788h334l-211 -1198h-273z" />
    <glyph glyph-name="Ubreve" unicode="&#x16c;" horiz-adv-x="948" 
d="M655 1554q-154 0 -209 72.5t-26 235.5h209q-12 -64 -1.5 -85.5t52.5 -21.5t60 21.5t28 85.5h209q-30 -164 -103.5 -236t-218.5 -72zM406 -23q-238 0 -325 127t-42 383l174 988h336l-182 -1037q-13 -77 0.5 -106t58.5 -29q47 0 67.5 27.5t34.5 107.5l183 1037h336
l-187 -1061q-25 -149 -82 -256q-54 -95 -143 -138t-229 -43z" />
    <glyph glyph-name="ubreve" unicode="&#x16d;" horiz-adv-x="921" 
d="M588 1278q-154 0 -209.5 72t-26.5 235h209q-11 -65 -1 -85.5t52 -20.5t60 21t28 85h209q-30 -164 -103 -235.5t-218 -71.5zM475 143q-77 -161 -239 -161q-279 0 -218 356l152 860h336l-141 -801q-5 -37 -6 -64.5t11 -43t40 -15.5q64 0 88 136l139 788h334l-211 -1198
h-273z" />
    <glyph glyph-name="Uring" unicode="&#x16e;" horiz-adv-x="948" 
d="M651 1552q-108 0 -168 64.5t-41 165.5q20 105 93.5 159t179.5 54q116 0 175 -63.5t40 -170.5q-19 -102 -90.5 -155.5t-188.5 -53.5zM678 1729q48 0 57 45q10 47 -41 47q-47 0 -57 -47q-3 -45 41 -45zM406 -23q-238 0 -325 127t-42 383l174 988h336l-182 -1037
q-13 -77 0.5 -106t58.5 -29q47 0 67.5 27.5t34.5 107.5l183 1037h336l-187 -1061q-25 -149 -82 -256q-54 -95 -143 -138t-229 -43z" />
    <glyph glyph-name="uring" unicode="&#x16f;" horiz-adv-x="921" 
d="M584 1276q-108 0 -168 64.5t-41 164.5q20 105 93 159t179 54q116 0 175 -63t40 -170q-19 -103 -90 -156t-188 -53zM610 1452q49 0 58 45q10 47 -41 47q-48 0 -58 -47q-3 -45 41 -45zM475 143q-77 -161 -239 -161q-279 0 -218 356l152 860h336l-141 -801q-5 -37 -6 -64.5
t11 -43t40 -15.5q64 0 88 136l139 788h334l-211 -1198h-273z" />
    <glyph glyph-name="Uhungarumlaut" unicode="&#x170;" horiz-adv-x="948" 
d="M584 1559h-170l135 311h242zM852 1559h-174l162 311h250zM406 -23q-238 0 -325 127t-42 383l174 988h336l-182 -1037q-13 -77 0.5 -106t58.5 -29q47 0 67.5 27.5t34.5 107.5l183 1037h336l-187 -1061q-25 -149 -82 -256q-54 -95 -143 -138t-229 -43z" />
    <glyph glyph-name="uhungarumlaut" unicode="&#x171;" horiz-adv-x="921" 
d="M516 1282h-170l135 311h242zM784 1282h-174l162 311h250zM475 143q-77 -161 -239 -161q-279 0 -218 356l152 860h336l-141 -801q-5 -37 -6 -64.5t11 -43t40 -15.5q64 0 88 136l139 788h334l-211 -1198h-273z" />
    <glyph glyph-name="Uogonek" unicode="&#x172;" horiz-adv-x="948" 
d="M362 -401q-134 0 -196 58.5t-43 166.5q12 49 36.5 90.5t76.5 85.5q-139 41 -186 162.5t-11 324.5l174 988h336l-182 -1037q-13 -77 0.5 -106t58.5 -29q47 0 67.5 27.5t34.5 107.5l183 1037h336l-187 -1061q-32 -198 -106 -296.5t-213 -127.5q-44 -28 -119 -82
q-59 -49 -62 -76q-3 -37 33 -37q48 0 62 70h252q-44 -138 -127.5 -202t-217.5 -64z" />
    <glyph glyph-name="uogonek" unicode="&#x173;" horiz-adv-x="921" 
d="M870 -160q-44 -138 -127 -202t-217 -64t-196 58.5t-43 166.5q13 65 55.5 119.5t140.5 118.5l-8 106q-77 -161 -239 -161q-279 0 -218 356l152 860h336l-141 -801q-5 -37 -6 -64.5t11 -43t40 -15.5q64 0 88 136l139 788h334l-211 -1198q-135 -88 -156 -104
q-76 -57 -80 -89q-3 -36 33 -36q47 0 61 69h252z" />
    <glyph glyph-name="Wcircumflex" unicode="&#x174;" horiz-adv-x="1366" 
d="M883 1708l-90 -149h-226l244 352h205l121 -352h-219zM446 0h-313l29 1475h315l-35 -687l-32 -235l71 233l242 689h219l-8 -689l-19 -243l60 245l215 687h326l-510 -1475h-312l2 633l23 198l-49 -198z" />
    <glyph glyph-name="wcircumflex" unicode="&#x175;" horiz-adv-x="1249" 
d="M776 1432l-90 -150h-225l244 352h204l121 -352h-219zM395 0h-311l12 1198h318l-31 -588l-35 -159l51 155l224 592h208l9 -590l-15 -159l31 157l197 592h317l-438 -1198h-311l-19 496l14 125l-32 -125z" />
    <glyph glyph-name="Ycircumflex" unicode="&#x176;" horiz-adv-x="890" 
d="M645 1704l-90 -150h-225l243 353h205l121 -353h-219zM166 0l92 528l-113 947h344l25 -418l-14 -154l41 156l174 414l342 2l-451 -945l-92 -530h-348z" />
    <glyph glyph-name="ycircumflex" unicode="&#x177;" horiz-adv-x="894" 
d="M606 1430l-90 -150h-225l244 352h204l121 -352h-219zM-121 -385l53 311h109q69 0 99 17.5t50 70.5l27 72l-104 1112h329l17 -473l-31 -260l66 260l180 473h325l-528 -1268q-43 -102 -80.5 -162t-83.5 -94q-86 -59 -276 -59h-152z" />
    <glyph glyph-name="Ydieresis" unicode="&#x178;" horiz-adv-x="890" 
d="M451 1550q-78 0 -99.5 28t-7.5 112q17 86 51 117.5t107 31.5q77 0 101 -32t7 -117q-14 -80 -47.5 -110t-111.5 -30zM764 1550q-79 0 -100 28t-7 112q17 87 49.5 118t108.5 31q75 0 100.5 -32.5t8.5 -116.5q-13 -79 -48 -109.5t-112 -30.5zM166 0l92 528l-113 947h344
l25 -418l-14 -154l41 156l174 414l342 2l-451 -945l-92 -530h-348z" />
    <glyph glyph-name="Zacute" unicode="&#x179;" horiz-adv-x="864" 
d="M700 1870h310l-291 -311h-234zM-51 0l47 276l541 875h-371l55 324h742l-50 -285l-530 -866h385l-55 -324h-764z" />
    <glyph glyph-name="zacute" unicode="&#x17a;" horiz-adv-x="794" 
d="M608 1593h310l-291 -311h-234zM-59 0l45 258l456 653h-329l51 287h692l-49 -272l-426 -633h319l-53 -293h-706z" />
    <glyph glyph-name="Zdotaccent" unicode="&#x17b;" horiz-adv-x="864" 
d="M610 1554q-91 0 -122 37t-13 131q11 66 33 105q18 36 55.5 50.5t106.5 14.5q89 0 122 -36t15 -134q-18 -102 -58.5 -135t-138.5 -33zM-51 0l47 276l541 875h-371l55 324h742l-50 -285l-530 -866h385l-55 -324h-764z" />
    <glyph glyph-name="zdotaccent" unicode="&#x17c;" horiz-adv-x="794" 
d="M537 1278q-91 0 -122.5 37t-13.5 131q11 65 33 104q18 36 55.5 51t106.5 15q89 0 122 -36t15 -134q-18 -102 -58.5 -135t-137.5 -33zM-59 0l45 258l456 653h-329l51 287h692l-49 -272l-426 -633h319l-53 -293h-706z" />
    <glyph glyph-name="Zcaron" unicode="&#x17d;" horiz-adv-x="864" 
d="M508 1559l-121 352h221l33 -150l92 150h225l-245 -352h-205zM-51 0l47 276l541 875h-371l55 324h742l-50 -285l-530 -866h385l-55 -324h-764z" />
    <glyph glyph-name="zcaron" unicode="&#x17e;" horiz-adv-x="794" 
d="M438 1282l-121 352h222l32 -149l93 149h225l-246 -352h-205zM-59 0l45 258l456 653h-329l51 287h692l-49 -272l-426 -633h319l-53 -293h-706z" />
    <glyph glyph-name="uni0192" unicode="&#x192;" horiz-adv-x="679" 
d="M387 -51q-32 -181 -122 -253.5t-277 -72.5h-129l47 283h78q42 0 59.5 15.5t24.5 62.5l90 505h-148l53 306h148l72 403q31 180 121.5 253t277.5 73h137l-51 -283h-84q-39 0 -57 -16t-25 -62l-65 -368h153l-53 -306h-154z" />
    <glyph glyph-name="Aringacute" unicode="&#x1fa;" horiz-adv-x="940" 
d="M788 2144h310l-291 -311h-234zM231 0h-342l537 1395q-48 64 -33 155q20 105 93.5 159t179.5 54q116 0 175 -63t40 -170q-15 -100 -88 -154l53 -1376h-328l2 162h-235zM629 1497q48 0 57 45q10 47 -41 47q-47 0 -57 -47q-3 -45 41 -45zM379 442h143l4 357l19 184l-47 -184
z" />
    <glyph glyph-name="aringacute" unicode="&#x1fb;" horiz-adv-x="931" 
d="M782 2079h310l-291 -312h-234zM598 1272q-108 0 -168 64.5t-41 164.5q20 105 93.5 159t179.5 54q116 0 175 -63t40 -170q-19 -102 -90.5 -155.5t-188.5 -53.5zM625 1448q48 0 57 45q10 47 -41 47q-47 0 -57 -47q-3 -45 41 -45zM668 0q-101 0 -147 26.5t-52 92.5
q-83 -142 -258 -142q-149 0 -201 80t-22 252l8 45q31 172 131 242q23 16 43 27.5t51.5 23.5t43.5 16.5t62 20.5t66 21q100 32 136.5 55t43.5 71l5 25q7 54 -6.5 77t-51.5 23q-34 0 -55 -22t-31 -78l-16 -98h-332l18 106q30 168 140 259t301 91q212 0 293 -99.5t45 -307.5
l-82 -467q-6 -31 1.5 -39t35.5 -8h22l-49 -293h-143zM389 231q75 0 96 109l43 244q-14 -24 -47 -35q-62 -21 -86 -45q-20 -19 -30.5 -42t-20.5 -75l-10 -55q-15 -101 55 -101z" />
    <glyph glyph-name="AEacute" unicode="&#x1fc;" horiz-adv-x="1304" 
d="M834 1870h309l-291 -311h-234zM551 162h-266l-72 -162h-332l674 1475h848l-51 -297h-463l-12 -283h413l-53 -297h-373l-12 -289h350l-53 -309h-608zM590 864l-187 -426h162z" />
    <glyph glyph-name="aeacute" unicode="&#x1fd;" horiz-adv-x="1372" 
d="M883 1583h309l-291 -311h-233zM1280 328q-38 -191 -137.5 -271t-290.5 -80q-144 0 -221 44t-103 131q-85 -175 -317 -175q-149 0 -201 80t-22 252l8 45q31 172 131 242q23 16 43 27.5t51.5 23.5t43.5 16.5t62 20.5t66 21q100 32 136.5 55t43.5 71l5 25q7 54 -6.5 77
t-51.5 23q-34 0 -55 -22t-31 -78l-16 -98h-332l18 106q30 168 140 259t301 91q170 0 241 -71q99 74 236 74q204 0 291.5 -117t50.5 -322l-47 -264h-486l-22 -123q-13 -76 1 -104.5t60 -28.5q42 0 62 30t33 99l8 43h327zM866 713h168l15 86q16 78 0.5 109.5t-64.5 31.5
q-46 0 -68 -33t-36 -114zM389 231q75 0 96 109l43 244q-14 -24 -47 -35q-62 -21 -86 -45q-20 -19 -30.5 -42t-20.5 -75l-10 -55q-15 -101 55 -101z" />
    <glyph glyph-name="Oslashacute" unicode="&#x1fe;" horiz-adv-x="978" 
d="M743 2005h310l-291 -311h-234zM393 -23l-82 -192h-293l123 270q-161 122 -108 420l100 569q43 245 161 349t324 104q40 0 58 -2l69 160h285l-115 -254q131 -122 80 -414l-96 -549q-43 -247 -150.5 -354t-324.5 -107h-31zM438 287q50 0 75 34t38 123l104 596
q17 89 4 124.5t-63 35.5q-48 0 -70.5 -35t-40.5 -125l-106 -596q-13 -85 0.5 -121t58.5 -36z" />
    <glyph glyph-name="oslashacute" unicode="&#x1ff;" 
d="M719 1726h309l-291 -311h-233zM354 -23l-75 -163h-332l131 284q-89 120 -53 324l73 424q29 171 142.5 269.5t287.5 98.5h15l65 144h330l-115 -254q105 -119 66 -342l-76 -428q-30 -170 -141.5 -263.5t-292.5 -93.5h-25zM403 268q74 0 93 117l73 424q12 68 -2.5 95.5
t-54.5 27.5q-71 0 -90 -111l-76 -436q-19 -117 57 -117z" />
    <glyph glyph-name="uni0218" unicode="&#x218;" horiz-adv-x="888" 
d="M369 -25q-169 0 -260 48q-171 93 -123 354l32 182h349l-31 -178q-10 -63 2.5 -86t52.5 -23t59 22t27 68l12 64q12 60 -10 102q-21 39 -58.5 69.5t-98.5 68.5q-62 40 -111 86q-123 107 -90 311l12 72q34 194 143.5 279t292.5 85q209 0 304.5 -99.5t60.5 -287.5l-25 -139
h-329l30 157q10 52 -5 73.5t-54 21.5q-36 0 -54.5 -25.5t-29.5 -79.5l-10 -53q-8 -47 6 -80q16 -28 50.5 -55.5t109.5 -77.5q58 -36 114 -88q129 -119 97 -309l-17 -101q-39 -205 -140.5 -293t-307.5 -88zM137 -471q54 0 80.5 17.5t40.5 60.5h-12q-68 0 -88.5 26.5
t-7.5 112.5q14 81 49.5 113t117.5 32q86 0 109.5 -38.5t3.5 -151.5q-55 -305 -317 -305z" />
    <glyph glyph-name="uni0219" unicode="&#x219;" horiz-adv-x="860" 
d="M358 -23q-236 0 -325.5 88t-57.5 267l21 114h328l-19 -110q-13 -80 70 -80q77 0 90 90q10 49 -14 76q-21 28 -55.5 49.5t-96.5 52.5q-73 41 -117 76q-133 97 -92 305l2 8q16 86 62 150q101 151 348 151q216 0 305 -86t59 -278l-8 -51h-311l12 73q15 89 -67 89
q-72 0 -82 -70q-5 -28 4 -51t36.5 -44t48.5 -33.5t66 -34.5q7 -3 10 -5q26 -11 121 -74q136 -100 101 -303l-2 -14q-30 -178 -135 -266.5t-302 -88.5zM143 -459q54 0 80.5 17.5t40.5 60.5h-12q-68 0 -88.5 26.5t-7.5 112.5q14 81 50 113.5t118 32.5q85 0 108.5 -39t3.5 -152
q-55 -305 -317 -305z" />
    <glyph glyph-name="uni0237" unicode="&#x237;" horiz-adv-x="477" 
d="M-266 -426l55 315h90q39 0 55.5 15.5t26.5 62.5l217 1231h344l-229 -1294q-32 -185 -121 -257.5t-274 -72.5h-164z" />
    <glyph glyph-name="uni0245" unicode="&#x245;" horiz-adv-x="940" 
d="M223 0h-334l568 1475h331l58 -1475h-336l8 799l19 184l-48 -184z" />
    <glyph glyph-name="circumflex" unicode="&#x2c6;" horiz-adv-x="731" 
d="M522 1452l-90 -149h-225l244 352h204l121 -352h-219z" />
    <glyph glyph-name="caron" unicode="&#x2c7;" horiz-adv-x="731" 
d="M389 1303l-121 352h221l33 -150l92 150h226l-246 -352h-205z" />
    <glyph glyph-name="breve" unicode="&#x2d8;" horiz-adv-x="731" 
d="M500 1298q-154 0 -209.5 72.5t-26.5 235.5h209q-12 -64 -1.5 -85.5t52.5 -21.5t60 21.5t28 85.5h209q-30 -165 -103 -236.5t-218 -71.5z" />
    <glyph glyph-name="dotaccent" unicode="&#x2d9;" horiz-adv-x="731" 
d="M492 1298q-91 0 -122.5 37t-13.5 131q11 66 33 105q18 36 55.5 50.5t106.5 14.5q89 0 122 -36t15 -134q-18 -102 -58.5 -135t-137.5 -33z" />
    <glyph glyph-name="ring" unicode="&#x2da;" horiz-adv-x="731" 
d="M500 1296q-108 0 -168 64.5t-41 165.5q20 105 93 159t179 54q116 0 175 -63.5t40 -170.5q-19 -103 -90 -156t-188 -53zM526 1473q49 0 58 45q10 47 -41 47q-48 0 -58 -47q-3 -45 41 -45z" />
    <glyph glyph-name="ogonek" unicode="&#x2db;" horiz-adv-x="731" 
d="M186 -426q-134 0 -196 58.5t-43 166.5q7 41 37 92q57 93 256 201l180 -92q-135 -88 -156 -104q-76 -57 -80 -89q-3 -36 33 -36q48 0 62 69h251q-44 -138 -127 -202t-217 -64z" />
    <glyph glyph-name="tilde" unicode="&#x2dc;" horiz-adv-x="731" 
d="M176 1300q35 186 88.5 257t157.5 71q56 0 92 -20q21 -10 47 -26t43 -25t31 -9q39 0 51 72h193q-16 -97 -54 -197q-30 -70 -75 -99.5t-115 -29.5q-54 0 -90 23q-16 9 -44 27t-47.5 27t-37.5 9q-34 0 -49 -80h-191z" />
    <glyph glyph-name="hungarumlaut" unicode="&#x2dd;" horiz-adv-x="731" 
d="M387 1303h-170l135 311h242zM655 1303h-174l162 311h250z" />
    <glyph glyph-name="uni03BC" unicode="&#x3bc;" horiz-adv-x="927" 
d="M352 -18q-41 0 -61 20l-66 -373h-329l274 1569h334l-142 -799q-10 -55 -1 -85.5t45 -30.5q39 0 58.5 30.5t27.5 92.5l141 792h338l-211 -1198h-262l-6 92q-20 -58 -53 -84t-87 -26z" />
    <glyph glyph-name="pi" unicode="&#x3c0;" horiz-adv-x="1144" 
d="M741 1167h-135l-205 -1167h-323l205 1167h-140l54 308h1063l-54 -308h-141l-139 -792q-8 -48 3 -64t52 -16h72l-52 -295h-151q-124 0 -186 27q-63 24 -79.5 92t5.5 190z" />
    <glyph glyph-name="uni0E3F" unicode="&#xe3f;" horiz-adv-x="1075" 
d="M512 0l-27 -150h-151l26 150h-399l258 1475h402l22 129h152l-23 -129q197 -2 282.5 -87t55.5 -264l-20 -125q-13 -96 -53 -151.5t-113 -85.5q132 -64 96 -273l-27 -145q-22 -126 -65 -194q-45 -77 -126.5 -113.5t-215.5 -36.5h-74zM518 893l55 315h-81l-56 -315h82z
M791 1135q12 73 -66 73l-55 -315q75 3 90 82zM412 287l57 331h-80l-59 -331h82zM688 528q11 47 -4.5 68t-62.5 22l-58 -331q47 1 69 23t30 73z" />
    <glyph glyph-name="Wgrave" unicode="&#x1e80;" horiz-adv-x="1366" 
d="M580 1870h307l76 -311h-215zM446 0h-313l29 1475h315l-35 -687l-32 -235l71 233l242 689h219l-8 -689l-19 -243l60 245l215 687h326l-510 -1475h-312l2 633l23 198l-49 -198z" />
    <glyph glyph-name="wgrave" unicode="&#x1e81;" horiz-adv-x="1249" 
d="M473 1593h307l76 -311h-215zM395 0h-311l12 1198h318l-31 -588l-35 -159l51 155l224 592h208l9 -590l-15 -159l31 157l197 592h317l-438 -1198h-311l-19 496l14 125l-32 -125z" />
    <glyph glyph-name="Wacute" unicode="&#x1e82;" horiz-adv-x="1366" 
d="M938 1870h309l-291 -311h-233zM446 0h-313l29 1475h315l-35 -687l-32 -235l71 233l242 689h219l-8 -689l-19 -243l60 245l215 687h326l-510 -1475h-312l2 633l23 198l-49 -198z" />
    <glyph glyph-name="wacute" unicode="&#x1e83;" horiz-adv-x="1249" 
d="M831 1593h310l-291 -311h-234zM395 0h-311l12 1198h318l-31 -588l-35 -159l51 155l224 592h208l9 -590l-15 -159l31 157l197 592h317l-438 -1198h-311l-19 496l14 125l-32 -125z" />
    <glyph glyph-name="Wdieresis" unicode="&#x1e84;" horiz-adv-x="1366" 
d="M688 1554q-78 0 -99 28t-7 112q17 86 51 117.5t106 31.5q78 0 102 -32t7 -117q-14 -80 -48 -110t-112 -30zM1001 1554q-79 0 -99.5 28t-6.5 112q17 87 49.5 118t108.5 31q75 0 100 -32.5t8 -116.5q-13 -79 -48 -109.5t-112 -30.5zM446 0h-313l29 1475h315l-35 -687
l-32 -235l71 233l242 689h219l-8 -689l-19 -243l60 245l215 687h326l-510 -1475h-312l2 633l23 198l-49 -198z" />
    <glyph glyph-name="wdieresis" unicode="&#x1e85;" horiz-adv-x="1249" 
d="M582 1278q-78 0 -99.5 28t-7.5 111q17 86 51.5 118t106.5 32q77 0 101 -32.5t7 -117.5q-14 -80 -47.5 -109.5t-111.5 -29.5zM895 1278q-79 0 -100 27.5t-7 111.5q17 87 49.5 118.5t108.5 31.5q75 0 100.5 -33t8.5 -117q-13 -79 -48 -109t-112 -30zM395 0h-311l12 1198
h318l-31 -588l-35 -159l51 155l224 592h208l9 -590l-15 -159l31 157l197 592h317l-438 -1198h-311l-19 496l14 125l-32 -125z" />
    <glyph glyph-name="Ygrave" unicode="&#x1ef2;" horiz-adv-x="890" 
d="M342 1866h307l76 -312h-215zM166 0l92 528l-113 947h344l25 -418l-14 -154l41 156l174 414l342 2l-451 -945l-92 -530h-348z" />
    <glyph glyph-name="ygrave" unicode="&#x1ef3;" horiz-adv-x="894" 
d="M291 1591h307l76 -311h-215zM-121 -385l53 311h109q69 0 99 17.5t50 70.5l27 72l-104 1112h329l17 -473l-31 -260l66 260l180 473h325l-528 -1268q-43 -102 -80.5 -162t-83.5 -94q-86 -59 -276 -59h-152z" />
    <glyph glyph-name="figuredash" unicode="&#x2012;" horiz-adv-x="983" 
d="M88 774h873l-56 -317h-872z" />
    <glyph glyph-name="endash" unicode="&#x2013;" horiz-adv-x="686" 
d="M88 774h576l-56 -317h-575z" />
    <glyph glyph-name="emdash" unicode="&#x2014;" horiz-adv-x="952" 
d="M88 774h842l-56 -317h-841z" />
    <glyph glyph-name="uni2015" unicode="&#x2015;" horiz-adv-x="1239" 
d="M88 774h1129l-56 -317h-1128z" />
    <glyph glyph-name="uni2016" unicode="&#x2016;" horiz-adv-x="874" 
d="M250 1565h311l-289 -1643h-311zM657 1565h312l-289 -1643h-311z" />
    <glyph glyph-name="underscoredbl" unicode="&#x2017;" horiz-adv-x="929" 
d="M793 0h-861l48 270h860zM731 -346h-858l45 268h860z" />
    <glyph glyph-name="quoteleft" unicode="&#x2018;" horiz-adv-x="466" 
d="M297 895q-98 0 -133.5 49.5t-11.5 181.5q36 185 130 277t255 92l-25 -139q-120 -3 -154 -96h9q80 0 109 -37t11 -146q-20 -104 -60 -143t-130 -39z" />
    <glyph glyph-name="quoteright" unicode="&#x2019;" horiz-adv-x="466" 
d="M168 1028q120 3 154 96h-9q-80 0 -109 37t-11 146q20 104 60 143t130 39q97 0 133 -50t12 -182q-65 -368 -385 -368z" />
    <glyph glyph-name="quotesinglbase" unicode="&#x201a;" horiz-adv-x="466" 
d="M-37 -111q120 3 154 97h-8q-80 0 -109.5 36.5t-11.5 145.5q20 104 60 143t130 39q98 0 134 -49.5t12 -181.5q-33 -185 -127.5 -277t-257.5 -92z" />
    <glyph glyph-name="uni201B" unicode="&#x201b;" horiz-adv-x="466" 
d="M430 889q-309 0 -244 368q25 129 70 180.5t139 51.5q92 0 124 -45t9 -152q-18 -93 -55 -127.5t-111 -34.5q-11 0 -20 3q-2 -52 24 -76t89 -25z" />
    <glyph glyph-name="quotedblleft" unicode="&#x201c;" horiz-adv-x="890" 
d="M303 895q-98 0 -133.5 49.5t-11.5 181.5q36 185 130 277t255 92l-25 -139q-119 -3 -153 -96h8q80 0 109.5 -37t11.5 -146q-20 -104 -60.5 -143t-130.5 -39zM727 895q-98 0 -133.5 49.5t-11.5 181.5q36 185 130 277t255 92l-25 -139q-120 -3 -154 -96h9q80 0 109.5 -37
t11.5 -146q-20 -104 -60.5 -143t-130.5 -39z" />
    <glyph glyph-name="quotedblright" unicode="&#x201d;" horiz-adv-x="890" 
d="M162 1028q119 3 153 96h-8q-80 0 -109.5 37t-11.5 146q20 104 60.5 143t130.5 39q97 0 133 -50t12 -182q-65 -368 -385 -368zM586 1028q119 3 153 96h-8q-80 0 -109.5 37t-11.5 146q20 104 60.5 143t130.5 39q97 0 133 -50t12 -182q-65 -368 -385 -368z" />
    <glyph glyph-name="quotedblbase" unicode="&#x201e;" horiz-adv-x="890" 
d="M-37 -111q120 3 154 97h-8q-80 0 -109.5 36.5t-11.5 145.5q20 104 60 143t130 39q98 0 134 -49.5t12 -181.5q-33 -185 -127.5 -277t-257.5 -92zM387 -111q120 3 154 97h-9q-80 0 -109 36.5t-11 145.5q20 104 60 143t130 39q98 0 134 -49.5t12 -181.5q-65 -369 -386 -369z
" />
    <glyph glyph-name="uni201F" unicode="&#x201f;" horiz-adv-x="890" 
d="M430 889q-309 0 -244 368q25 129 70 180.5t139 51.5q92 0 124 -45t9 -152q-18 -93 -55 -127.5t-111 -34.5q-11 0 -20 3q-2 -52 24 -76t89 -25zM856 889q-309 0 -244 368q25 129 70 180.5t139 51.5q92 0 124 -45t9 -152q-18 -93 -55 -127.5t-111 -34.5q-11 0 -20 3
q-2 -52 24 -76t89 -25z" />
    <glyph glyph-name="dagger" unicode="&#x2020;" horiz-adv-x="978" 
d="M705 852l-183 -1032h-332l183 1032h-271l60 336h270l82 467h332l-82 -467h266l-59 -336h-266z" />
    <glyph glyph-name="daggerdbl" unicode="&#x2021;" horiz-adv-x="978" 
d="M604 287l-82 -467h-332l82 467h-270l57 327h271l49 269h-273l60 325h270l78 447h332l-78 -447h266l-59 -325h-264l-49 -269h266l-58 -327h-266z" />
    <glyph glyph-name="bullet" unicode="&#x2022;" horiz-adv-x="706" 
d="M322 373q-122 0 -166.5 56t-20.5 192q14 82 45 139q30 48 79.5 67t135.5 19q49 0 82.5 -7t61 -23.5t39 -45.5t15 -73.5t-10.5 -106.5q-14 -81 -45 -135q-30 -46 -79.5 -64t-135.5 -18z" />
    <glyph glyph-name="ellipsis" unicode="&#x2026;" horiz-adv-x="1357" 
d="M141 -16q-101 0 -131.5 47.5t-7.5 169.5q23 119 64.5 157.5t140.5 38.5q100 0 131.5 -46.5t7.5 -176.5q-11 -68 -37 -119q-23 -40 -61.5 -55.5t-106.5 -15.5zM580 -16q-101 0 -130.5 47.5t-9.5 169.5q23 119 64.5 157.5t140.5 38.5q100 0 131.5 -46.5t7.5 -176.5
q-11 -71 -36 -119q-23 -40 -61.5 -55.5t-106.5 -15.5zM1014 -16q-101 0 -130.5 47.5t-9.5 169.5q23 119 64.5 157.5t140.5 38.5q100 0 132 -46.5t8 -176.5q-11 -68 -37 -119q-23 -40 -61.5 -55.5t-106.5 -15.5z" />
    <glyph glyph-name="perthousand" unicode="&#x2030;" horiz-adv-x="1849" 
d="M340 780q-125 0 -184.5 70.5t-40.5 183.5l43 244q17 96 91.5 153.5t176.5 57.5q123 0 186 -72t43 -188l-45 -246q-17 -95 -91 -149t-179 -54zM-35 0q104 105 334 436q121 174 408 602q242 349 321 437h338q-97 -102 -332 -441q-20 -28 -405 -602q-205 -310 -318 -432
h-346zM362 981q37 0 46 66l30 182q12 63 -30 63q-34 0 -43 -59l-33 -186q-4 -36 2.5 -51t27.5 -15zM903 -18q-125 0 -184.5 70.5t-40.5 183.5l43 243q17 96 91.5 153.5t176.5 57.5q123 0 186.5 -72t43.5 -188l-45 -246q-17 -95 -91.5 -148.5t-179.5 -53.5zM1466 -18
q-125 0 -184.5 70.5t-40.5 183.5l43 243q17 96 91.5 153.5t176.5 57.5q123 0 186.5 -72t43.5 -188l-45 -246q-17 -95 -91.5 -148.5t-179.5 -53.5zM926 182q36 0 45 66l30 182q12 64 -30 64q-34 0 -43 -60l-33 -186q-4 -36 3 -51t28 -15zM1489 182q36 0 45 66l31 182
q12 64 -31 64q-34 0 -43 -60l-33 -186q-4 -36 3 -51t28 -15z" />
    <glyph glyph-name="uni2032" unicode="&#x2032;" horiz-adv-x="466" 
d="M115 1008l166 467h307l-240 -467h-233z" />
    <glyph glyph-name="uni2033" unicode="&#x2033;" horiz-adv-x="821" 
d="M115 1008l166 467h305l-238 -467h-233zM465 1008l174 467h305l-246 -467h-233z" />
    <glyph glyph-name="uni2034" unicode="&#x2034;" horiz-adv-x="1134" 
d="M156 973q0 14 4 112q12 199 41 353l6 37h293l-6 -37q-12 -72 -39 -185q-54 -212 -84 -280h-215zM530 973q0 63 2 112q12 199 41 353l7 37h292l-6 -37q-12 -72 -39 -185q-54 -212 -84 -280h-213zM903 973q0 14 4 112q12 199 41 353l6 37h293l-6 -37q-12 -72 -39 -185
q-54 -212 -84 -280h-215z" />
    <glyph glyph-name="guilsinglleft" unicode="&#x2039;" horiz-adv-x="638" 
d="M229 223l-176 379l4 19l308 393h323l-338 -416l187 -375h-308z" />
    <glyph glyph-name="guilsinglright" unicode="&#x203a;" horiz-adv-x="638" 
d="M-55 223l358 424l-168 367h293l168 -393l-4 -19l-309 -379h-338z" />
    <glyph glyph-name="exclamdbl" unicode="&#x203c;" horiz-adv-x="978" 
d="M109 426q-11 25 2 209q13 197 49 407l76 433h356l-76 -433q-33 -194 -94 -405q-50 -180 -72 -211q-38 12 -119 12q-85 0 -122 -12zM575 426q-8 19 5 209q13 197 49 407l76 433h356l-76 -433q-33 -194 -94 -405q-53 -190 -74 -211q-37 12 -117 12q-84 0 -125 -12zM150 -16
q-115 0 -146 38t-8 158q11 76 39 123q24 41 66.5 57.5t117.5 16.5q111 0 144 -39t10 -158q-11 -68 -39 -123q-24 -41 -66.5 -57t-117.5 -16zM616 -16q-114 0 -143.5 37.5t-9.5 158.5q15 82 39 123t66.5 57.5t117.5 16.5q112 0 145.5 -39t10.5 -158q-20 -117 -67.5 -156.5
t-158.5 -39.5z" />
    <glyph glyph-name="uni203D" unicode="&#x203d;" horiz-adv-x="997" 
d="M586 403q-34 15 -105 15q-73 0 -110 -15l4 82q19 150 80 506l41 236q-59 -39 -80 -137l-37 -209h-291l39 217q22 122 84 207q130 192 444 192q227 0 328 -106t68 -293l-27 -150q-10 -54 -31.5 -97.5t-56 -76.5t-62.5 -53t-73 -47q-4 -3 -25 -15t-26 -15t-23 -14.5
t-23.5 -16t-20 -15.5t-20.5 -17.5t-16.5 -18t-16 -21t-11 -22t-9.5 -25.5zM690 991q-4 -24 -9 -51t-12 -58t-10 -48q11 12 19 14q42 36 57 108l27 144q15 98 -29 131zM410 -16q-45 0 -73.5 4.5t-51 17t-29.5 34.5t-10 56.5t8 83.5q15 78 39 115q22 35 63.5 47t118.5 12
q36 0 61 -3t46 -11t32.5 -22t17.5 -36.5t4.5 -53.5t-9.5 -74q-11 -66 -37 -113q-22 -34 -62 -45.5t-118 -11.5z" />
    <glyph glyph-name="fraction" unicode="&#x2044;" horiz-adv-x="1277" 
d="M715 860l370 672l246 -154l-557 -561zM12 115l566 577l53 -43l-371 -702z" />
    <glyph glyph-name="uni2070" unicode="&#x2070;" horiz-adv-x="557" 
d="M319 723q-255 0 -206 268l45 250q24 129 87.5 187.5t170.5 58.5q111 0 170 -67t35 -195l-46 -252q-23 -133 -82 -191.5t-174 -58.5zM330 897q39 0 51 74l47 270q15 76 -25 76q-22 0 -32.5 -16.5t-18.5 -59.5l-47 -270q-12 -74 25 -74z" />
    <glyph glyph-name="uni2074" unicode="&#x2074;" horiz-adv-x="552" 
d="M496 850l-21 -113h-174l21 113h-250l24 139l334 486h174l-82 -465h72l-29 -160h-69zM369 1128l-88 -118h67z" />
    <glyph glyph-name="uni2075" unicode="&#x2075;" horiz-adv-x="542" 
d="M305 723q-243 0 -201 227l11 58h196l-12 -68q-10 -43 23 -43q29 0 38 39l21 121q9 37 -27 37q-28 0 -41 -25l-8 -16l-172 47l111 375h389l-2 -9q-11 -58 -29 -100q-17 -32 -53.5 -43.5t-110.5 -11.5h-69l-29 -101q37 37 92 37q187 0 146 -194l-25 -140
q-18 -95 -77 -142.5t-171 -47.5z" />
    <glyph glyph-name="uni2076" unicode="&#x2076;" horiz-adv-x="550" 
d="M563 909q-14 -88 -72.5 -137t-162.5 -49q-135 0 -187.5 63t-29.5 195l49 276q40 230 262 230q237 0 199 -219l-9 -51h-192l12 69q9 37 -26 37q-38 0 -50 -70l-22 -131q46 56 125 56q76 0 106.5 -44.5t16.5 -123.5zM332 891q36 0 45 39l14 82q9 41 -31 41q-28 0 -43 -15
l-12 -71q-8 -41 -2 -58.5t29 -17.5z" />
    <glyph glyph-name="uni2077" unicode="&#x2077;" horiz-adv-x="495" 
d="M88 737q58 158 130 287.5t167 267.5h-233l32 183h437l-29 -158q-98 -143 -165 -277t-120 -303h-219z" />
    <glyph glyph-name="uni2078" unicode="&#x2078;" horiz-adv-x="552" 
d="M309 723q-127 0 -178.5 50.5t-32.5 152.5l15 78q15 83 98 118q-31 18 -42 48.5t-1 86.5l10 58q14 81 76 126.5t172 45.5q111 0 163 -51t34 -150l-9 -45q-15 -93 -90 -121q72 -35 49 -151l-12 -66q-14 -88 -73 -134t-179 -46zM348 1223q-3 -33 31 -33q42 0 45 33l10 59
q9 47 -31 47q-34 0 -43 -35zM328 893q46 0 49 37l16 88q4 19 -4.5 27t-32.5 8q-41 0 -49 -43l-12 -72q-6 -25 2.5 -35t30.5 -10z" />
    <glyph glyph-name="uni2079" unicode="&#x2079;" horiz-adv-x="557" 
d="M307 721q-245 0 -207 219l11 59h204l-14 -77q-9 -37 27 -37q37 0 49 69l24 138q-48 -62 -131 -62q-75 0 -106 45t-17 123l19 100q38 187 235 187q262 0 217 -258l-49 -277q-21 -119 -81.5 -174t-180.5 -55zM369 1155q25 0 47 16l12 74q15 78 -29 78q-38 0 -47 -45
l-14 -82q-9 -41 31 -41z" />
    <glyph glyph-name="uni207A" unicode="&#x207a;" horiz-adv-x="497" 
d="M410 1024l-21 -117h-172l21 117h-111l31 174h110l21 117h172l-21 -117h111l-31 -174h-110z" />
    <glyph glyph-name="uni207B" unicode="&#x207b;" horiz-adv-x="497" 
d="M160 1202h393l-33 -182h-393z" />
    <glyph glyph-name="uni207C" unicode="&#x207c;" horiz-adv-x="493" 
d="M188 1286h359l-27 -153h-358zM152 1081h358l-27 -153h-358z" />
    <glyph glyph-name="uni207D" unicode="&#x207d;" horiz-adv-x="397" 
d="M346 575q-151 6 -208 92.5t-23 286.5l57 324q25 134 68 199q45 69 114.5 99.5t173.5 35.5l-34 -199q-58 -6 -84.5 -43t-44.5 -131l-52 -289q-16 -91 -1.5 -121.5t71.5 -35.5z" />
    <glyph glyph-name="uni207E" unicode="&#x207e;" horiz-adv-x="397" 
d="M78 774q60 6 87.5 43.5t41.5 130.5l51 289q17 91 1.5 123.5t-71.5 34.5l37 217q152 -6 209 -92t23 -287l-58 -324q-21 -128 -67 -198t-115 -100.5t-174 -35.5z" />
    <glyph glyph-name="uni2080" unicode="&#x2080;" horiz-adv-x="557" 
d="M193 -14q-256 0 -207 268l45 250q24 129 87.5 187.5t170.5 58.5q110 0 169.5 -67.5t35.5 -195.5l-45 -251q-23 -133 -82 -191.5t-174 -58.5zM203 160q39 0 51 73l47 271q15 76 -25 76q-22 0 -32.5 -16.5t-18.5 -59.5l-47 -271q-12 -73 25 -73z" />
    <glyph glyph-name="uni2081" unicode="&#x2081;" horiz-adv-x="471" 
d="M-66 0l31 180h109l53 301h-86l25 144q104 9 143 112h153l-98 -557h101l-31 -180h-400z" />
    <glyph glyph-name="uni2082" unicode="&#x2082;" horiz-adv-x="540" 
d="M-59 0l26 156q6 43 22.5 78t42 60t49 41.5t56.5 33.5q13 7 42.5 22.5t42 23t31 20.5t27 27t11.5 30l10 55q10 39 -27 39q-32 0 -41 -47l-16 -93h-199l21 113q14 89 75 140t171 51q117 0 172.5 -54t38.5 -151l-11 -56q-12 -75 -53.5 -119t-109.5 -83q-12 -7 -37 -20
t-37.5 -20.5t-30 -18.5t-29 -22.5t-18.5 -23.5h258l-33 -182h-454z" />
    <glyph glyph-name="uni2083" unicode="&#x2083;" horiz-adv-x="530" 
d="M176 -16q-131 0 -182.5 53t-30.5 158q3 38 12 65h193l-8 -51q-5 -27 1.5 -38t26.5 -11q30 0 39 39l13 71q2 14 -6.5 21.5t-28.5 7.5h-58l27 147h59q18 0 29.5 8.5t13.5 22.5l11 62q9 39 -29 39q-33 0 -41 -35l-8 -56h-189l5 23l10 55q18 89 75 136t166 47
q118 0 169.5 -51.5t33.5 -143.5l-12 -64q-14 -85 -90 -110q75 -29 55 -133l-14 -84q-15 -84 -71 -131t-171 -47z" />
    <glyph glyph-name="uni2084" unicode="&#x2084;" horiz-adv-x="552" 
d="M369 113l-21 -113h-174l21 113h-250l24 139l334 485h174l-82 -465h72l-29 -159h-69zM242 391l-88 -119h67z" />
    <glyph glyph-name="uni2085" unicode="&#x2085;" horiz-adv-x="542" 
d="M178 -14q-243 0 -201 227l11 57h196l-12 -67q-10 -43 23 -43q29 0 38 39l21 120q9 37 -27 37q-29 0 -41 -24l-8 -17l-172 47l111 375h389l-2 -8q-11 -58 -29 -100q-17 -32 -54 -44t-110 -12h-69l-29 -100q37 37 92 37q188 0 146 -195l-25 -139q-18 -95 -77 -142.5
t-171 -47.5z" />
    <glyph glyph-name="uni2086" unicode="&#x2086;" horiz-adv-x="550" 
d="M436 172q-14 -88 -72.5 -137t-162.5 -49q-135 0 -187.5 63t-29.5 195l49 276q40 230 262 230q122 0 169.5 -58.5t29.5 -161.5l-9 -51h-192l12 70q9 37 -26 37q-38 0 -50 -70l-22 -131q45 55 125 55q76 0 106.5 -44.5t16.5 -123.5zM205 154q36 0 45 39l14 81q9 41 -31 41
q-29 0 -43 -14l-12 -72q-8 -41 -2 -58t29 -17z" />
    <glyph glyph-name="uni2087" unicode="&#x2087;" horiz-adv-x="495" 
d="M-39 0q58 158 130 287.5t167 267.5h-233l32 182h437l-29 -157q-98 -143 -165 -277t-120 -303h-219z" />
    <glyph glyph-name="uni2088" unicode="&#x2088;" horiz-adv-x="552" 
d="M182 -14q-127 0 -178.5 50t-32.5 152l15 78q15 84 98 119q-31 18 -42 48.5t-1 86.5l10 58q14 81 76 126.5t172 45.5q111 0 163 -51t34 -150l-9 -45q-15 -93 -90 -121q72 -35 49 -152l-12 -65q-14 -88 -73 -134t-179 -46zM221 485q-2 -17 5 -24.5t26 -7.5q42 0 45 32
l10 60q9 47 -31 47q-34 0 -43 -35zM201 156q46 0 49 37l16 88q4 18 -4.5 26t-32.5 8q-41 0 -49 -43l-12 -71q-6 -25 2.5 -35t30.5 -10z" />
    <glyph glyph-name="uni2089" unicode="&#x2089;" horiz-adv-x="557" 
d="M180 -16q-245 0 -207 219l11 59h204l-14 -78q-9 -37 27 -37q37 0 49 70l24 137q-47 -61 -131 -61q-75 0 -106 45t-17 123l19 100q38 187 235 187q264 0 218 -259l-50 -276q-21 -119 -81.5 -174t-180.5 -55zM242 418q25 0 47 16l12 74q15 78 -29 78q-38 0 -47 -45l-14 -82
q-9 -41 31 -41z" />
    <glyph glyph-name="uni208A" unicode="&#x208a;" horiz-adv-x="497" 
d="M283 287l-21 -117h-172l21 117h-111l31 174h110l21 117h172l-21 -117h111l-31 -174h-110z" />
    <glyph glyph-name="uni208B" unicode="&#x208b;" horiz-adv-x="497" 
d="M33 465h393l-33 -182h-393z" />
    <glyph glyph-name="uni208C" unicode="&#x208c;" horiz-adv-x="493" 
d="M61 549h359l-27 -154h-358zM25 344h358l-27 -154h-358z" />
    <glyph glyph-name="uni208D" unicode="&#x208d;" horiz-adv-x="397" 
d="M219 -162q-151 6 -208 92.5t-23 286.5l57 324q25 132 68 198q45 69 114.5 99.5t173.5 35.5l-34 -198q-58 -6 -84.5 -43t-44.5 -131l-52 -289q-16 -91 -1.5 -122t71.5 -36z" />
    <glyph glyph-name="uni208E" unicode="&#x208e;" horiz-adv-x="397" 
d="M-49 37q60 6 87.5 43.5t41.5 130.5l51 289q16 91 1 123t-71 34l37 217q152 -6 209 -91.5t23 -286.5l-58 -324q-21 -129 -67 -199q-46 -69 -114.5 -99.5t-174.5 -35.5z" />
    <glyph glyph-name="colonmonetary" unicode="&#x20a1;" horiz-adv-x="1077" 
d="M348 -18q-31 4 -57 12l-86 -227h-166l108 292q-167 128 -116 412l94 533q80 463 502 485l67 186h166l-72 -194q18 -2 60 -13l76 207h163l-98 -272q167 -125 123 -363l-33 -184h-356l27 154q18 94 -6 136t-105 42q-75 0 -114 -48t-58 -159l-86 -492q-20 -109 4 -154.5
t102 -45.5q72 0 110.5 41t57.5 137l31 182h358l-34 -196q-44 -233 -166 -347.5t-332 -128.5l-80 -210h-168z" />
    <glyph glyph-name="uni20A2" unicode="&#x20a2;" horiz-adv-x="1069" 
d="M1008 383q-40 -217 -170.5 -312.5t-352.5 -95.5q-258 0 -375.5 144t-68.5 411l78 443q42 262 177.5 386t373.5 124q169 0 280 -66q103 -64 143.5 -170t16.5 -237l-6 -43h-309l8 45q40 202 -156 202q-103 0 -155.5 -57.5t-77.5 -198.5l-82 -464q-15 -94 -9.5 -150
t39.5 -84l113 639h193l14 -143q30 76 82.5 110.5t148.5 34.5h66l-49 -283h-148q-50 0 -71 -8q-22 -6 -32 -27t-22 -73l-47 -264q46 17 70.5 61t38.5 129l20 113h297z" />
    <glyph glyph-name="franc" unicode="&#x20a3;" horiz-adv-x="786" 
d="M340 254l-45 -254h-330l258 1475h674l-53 -308h-344l-51 -293h331l-45 -258h-332l-18 -106h330l-45 -256h-330z" />
    <glyph glyph-name="lira" unicode="&#x20a4;" horiz-adv-x="1026" 
d="M608 -23q-120 0 -239 89q-95 -86 -217 -86q-125 0 -176 59.5t-33 169.5q16 91 76.5 134.5t148.5 43.5q91 0 168 -41q1 3 2 11t2 12q15 83 -6 166h-295l29 159h217l-25 66h-180l26 160h107q-24 127 -6 237q14 94 63 174q101 166 353 166q202 0 291.5 -101t58.5 -284
l-19 -106h-319l16 92q10 63 -3 86.5t-50 23.5q-36 0 -56 -23t-30 -81q-15 -89 -6 -184h278l-26 -160h-234l6 -66h215l-28 -159h-176q-4 -82 -13 -136q-11 -73 -39 -147q44 -19 70 -19q41 0 60 25t30 90l21 111h301l-25 -137q-25 -147 -67 -213q-40 -71 -105.5 -101.5
t-165.5 -30.5zM164 152q44 0 82 24q-44 41 -76 41q-36 0 -39 -31q-9 -34 33 -34z" />
    <glyph glyph-name="uni20A6" unicode="&#x20a6;" horiz-adv-x="1280" 
d="M377 0h-311l90 510h-156l35 192h153l13 74h-154l35 193h154l88 506h319l143 -822l2 -143l27 190l135 775h312l-88 -506h161l-35 -193h-161l-13 -74h162l-35 -192h-159l-90 -510h-314l-151 834l-7 122l-14 -153z" />
    <glyph glyph-name="peseta" unicode="&#x20a7;" horiz-adv-x="2390" 
d="M371 453l-80 -453h-330l258 1475h416q353 0 356 -295q9 1 32.5 4t39.5 5.5t35.5 7.5t31.5 11q47 24 89 97q33 60 45 110h233l-39 -217h150l-58 -326h-147l-82 -462q-5 -30 -5.5 -51t3 -35.5t9.5 -23t18.5 -12.5t25 -5.5t33.5 -1.5h475q94 0 105 65q9 49 -15 76
q-15 19 -41 38.5t-47.5 32t-62.5 33.5q-73 41 -117 76q-127 98 -86 301l2 8q15 80 68 152q111 151 348 151q211 0 299 -89t53 -281l-8 -45h-312l15 73q15 89 -64 89q-71 0 -82 -72q-5 -28 2 -49.5t34.5 -42.5t42.5 -29.5t62 -32.5q18 -9 27 -14q79 -45 119 -76
q135 -99 100 -303l-2 -8q-27 -170 -124.5 -252t-303.5 -82h-618q-134 0 -197 31q-70 30 -88.5 105.5t6.5 213.5l92 522h-141l-12 -71q-32 -177 -141.5 -262.5t-337.5 -85.5h-84zM500 1194l-78 -449h67q54 0 82 25.5t35 83.5l41 238q15 102 -78 102h-69z" />
    <glyph glyph-name="uni20A8" unicode="&#x20a8;" horiz-adv-x="1755" 
d="M375 530l-94 -530h-320l258 1475h418q205 0 282.5 -96.5t41.5 -299.5l-33 -188q-18 -99 -59 -148.5t-130 -72.5q51 -19 82 -57.5t66 -114.5l49 -99q20 -40 43.5 -65t56 -36t61 -14t77.5 -3h83q94 0 105 65q5 25 -2 47.5t-18.5 38t-36 32.5t-43.5 27.5t-54 28.5q-5 3 -8 4
q-53 30 -117 74q-134 98 -90 305l2 8q15 80 68 152q111 151 348 151q211 0 299 -89t53 -281l-8 -45h-311l14 73q15 89 -63 89q-71 0 -82 -72q-10 -43 16 -72q9 -11 20.5 -21t30 -21.5t29.5 -17.5t38 -19.5t36 -18.5q33 -15 119 -74q134 -98 98 -303l-2 -8
q-27 -170 -124.5 -252t-303.5 -82h-174q-139 0 -234 29q-88 28 -146 90t-102 168l-47 110q-4 9 -13.5 31.5t-13.5 30t-12.5 23t-15.5 21.5t-18.5 14t-25 10.5t-30.5 2.5h-63zM489 1194l-63 -367h76q51 0 73.5 19t30.5 65l33 189q11 53 -5.5 73.5t-68.5 20.5h-76z" />
    <glyph glyph-name="uni20A9" unicode="&#x20a9;" horiz-adv-x="1366" 
d="M446 0h-272l10 510h-196l35 192h165v74h-153l35 193h123l10 506h274l-35 -687l-32 -235l71 233l242 689h219l-8 -689l-19 -243l60 245l215 687h285l-175 -506h125l-34 -193h-158l-25 -74h170l-35 -192h-202l-176 -510h-271l2 633l23 198l-49 -198z" />
    <glyph glyph-name="uni20AA" unicode="&#x20aa;" horiz-adv-x="1478" 
d="M463 1223l-215 -1223h-283l258 1475h455q140 0 260 -66q118 -67 168 -193.5t16 -306.5l-59 -336q-25 -138 -91.5 -190.5t-189.5 -52.5h-41l101 569q31 181 -25.5 252.5t-202.5 71.5h-151zM324 0l202 1155h49q67 0 107 -11t66 -39t27 -76.5t-11 -123.5l-10 -59
q-6 -30 -24.5 -137t-31.5 -174q-8 -54 -17.5 -110t-18.5 -105t-11 -60h142q145 0 229.5 79t118.5 267l151 869h285l-166 -943q-92 -532 -590 -532h-497z" />
    <glyph glyph-name="Euro" unicode="&#x20ac;" horiz-adv-x="1038" 
d="M969 442q-42 -243 -149.5 -354t-321.5 -111q-248 0 -338.5 135t-46.5 398l8 51h-98l28 164h101l8 53h-99l29 164h98l13 66q25 171 96 290q124 199 393 199q138 0 234 -51q204 -107 145 -428l-2 -12h-358l6 34q18 89 7.5 124.5t-58.5 35.5q-47 0 -68 -34t-39 -126l-16 -98
h374l-71 -164h-334l-8 -53h313l-72 -164h-270l-20 -115q-14 -86 -3 -122.5t54 -36.5q49 0 70.5 33t35.5 124l11 58h358z" />
    <glyph glyph-name="uni20AE" unicode="&#x20ae;" horiz-adv-x="851" 
d="M575 494l-86 -494h-333l67 383l-166 -53l29 168l166 53l14 82l-166 -53l31 168l166 53l65 368h-223l54 306h778l-53 -306h-222l-47 -258l162 52l-29 -168l-161 -52l-15 -81l162 51l-31 -168z" />
    <glyph glyph-name="uni20B1" unicode="&#x20b1;" horiz-adv-x="1040" 
d="M371 299l-54 -299h-307l125 711h-94l25 145h94l12 72h-94l26 145h95l69 402h391q146 0 228 -58q82 -57 117 -146.5t24 -197.5h88l-26 -145h-86l-13 -72h86l-24 -145h-88l-7 -39q-31 -190 -153 -281.5t-350 -91.5h-84zM530 1221l-24 -148h211q5 65 -25.5 106.5t-93.5 41.5
h-68zM690 928h-211l-12 -72h211zM653 711h-211l-26 -150h65q74 0 116 34.5t54 109.5z" />
    <glyph glyph-name="uni2105" unicode="&#x2105;" horiz-adv-x="1286" 
d="M342 780q-125 0 -184.5 70.5t-40.5 183.5l43 244q17 96 91.5 153.5t176.5 57.5q123 0 186 -72t43 -188l-8 -51h-217l8 51q12 59 -30 59q-35 0 -43 -55l-33 -186q-9 -62 31 -62q36 0 45 62l10 59h215l-23 -123q-17 -95 -91 -149t-179 -54zM-33 0q104 105 334 436
q121 174 408 602q242 349 321 437h338q-97 -102 -332 -441q-20 -28 -405 -602q-205 -310 -318 -432h-346zM905 -18q-125 0 -184.5 70.5t-40.5 183.5l43 243q17 96 91.5 153.5t176.5 57.5q123 0 186.5 -72t43.5 -188l-45 -246q-17 -95 -91.5 -148.5t-179.5 -53.5zM928 182
q36 0 45 66l31 182q12 64 -31 64q-34 0 -43 -60l-33 -186q-4 -36 3 -51t28 -15z" />
    <glyph glyph-name="uni2116" unicode="&#x2116;" horiz-adv-x="1681" 
d="M1368 659q-148 0 -217.5 82t-48.5 217l51 287q20 114 107 182t208 68q146 0 221 -84.5t50 -222.5l-51 -289q-20 -112 -108 -176t-212 -64zM262 0h-303l258 1475h301l129 -721l12 -105l19 156l117 670h303l-258 -1475h-295l-135 721l-13 104l-20 -166zM1389 877
q51 0 63 79l41 248q18 82 -41 82q-48 0 -59 -74l-43 -256q-13 -79 39 -79zM1057 594h567l-47 -268h-567z" />
    <glyph glyph-name="uni2117" unicode="&#x2117;" horiz-adv-x="1251" 
d="M555 -25q-179 0 -309 74q-128 73 -181 212.5t-18 334.5l53 303q37 213 131 344q93 125 225.5 186.5t291.5 61.5q160 0 288 -70q135 -75 193.5 -216.5t23.5 -346.5l-53 -299q-56 -298 -210.5 -441t-434.5 -143zM578 199q179 0 272.5 90t126.5 282l55 306q24 139 -10 223
q-72 168 -301 168q-173 0 -268 -87t-129 -294l-52 -297q-32 -193 45.5 -292t260.5 -99zM596 520l-43 -244h-213l158 912h258q134 0 185.5 -68t27.5 -188l-35 -197q-20 -109 -88 -162t-209 -53h-41zM682 1008l-53 -301h22q35 0 49.5 13t20.5 48l31 182q6 32 -5 45t-42 13h-23
z" />
    <glyph glyph-name="uni2120" unicode="&#x2120;" horiz-adv-x="1019" 
d="M285 838q-105 0 -146.5 43.5t-27.5 130.5l12 73h168l-12 -69q-9 -37 24 -37q26 0 29 29l10 59q4 17 -14.5 30t-59.5 29q-124 52 -100 179l6 32q14 79 63.5 116.5t149.5 37.5q97 0 137 -40.5t27 -123.5q-8 -49 -10 -55h-162l10 57q8 35 -20 35q-21 0 -31 -29l-6 -37
q-1 -20 10.5 -29.5t63.5 -33.5q62 -27 88 -68t10 -125l-8 -47q-27 -157 -211 -157zM729 1139l-49 -287h-158l109 623h153l52 -222l127 222h153l-108 -623h-160l47 278l-96 -145h-21z" />
    <glyph glyph-name="trademark" unicode="&#x2122;" horiz-adv-x="983" 
d="M426 1305l-80 -453h-176l80 453h-92l28 170h361l-29 -170h-92zM690 1139l-49 -287h-158l109 623h153l52 -222l127 222h153l-108 -623h-160l47 278l-96 -145h-21z" />
    <glyph glyph-name="uni2126" unicode="&#x2126;" horiz-adv-x="1271" 
d="M367 0h-430l55 317h227q-32 62 -52 119.5t-33.5 127.5t-11.5 152.5t19 176.5q106 604 631 604q168 0 287 -72q246 -154 166 -598q-29 -157 -95.5 -276t-173.5 -234h224l-56 -317h-419l-93 295q118 154 176 282t84 271q24 142 13 211q-24 129 -146 129q-44 0 -100 -27
q-108 -64 -152 -311q-28 -128 -14.5 -264t76.5 -291z" />
    <glyph glyph-name="uni2153" unicode="&#x2153;" horiz-adv-x="1277" 
d="M713 860l370 672l246 -154l-557 -561zM160 737l30 181h109l53 301h-86l25 143q104 9 143 113h154l-99 -557h101l-31 -181h-399zM844 -16q-131 0 -182.5 53t-30.5 158q3 38 12 65h193l-9 -51q-5 -26 2 -37.5t27 -11.5q30 0 39 39l12 71q2 14 -6.5 21.5t-28.5 7.5h-57
l27 147h59q18 0 29.5 8.5t13.5 22.5l10 62q9 39 -28 39q-33 0 -41 -35l-8 -56h-189l4 23l10 55q18 89 75.5 136t166.5 47q118 0 169.5 -51.5t33.5 -143.5l-12 -64q-14 -85 -91 -110q76 -29 56 -133l-15 -84q-15 -84 -70.5 -131t-170.5 -47zM10 115l565 577l54 -43l-371 -702
z" />
    <glyph glyph-name="uni2154" unicode="&#x2154;" horiz-adv-x="1277" 
d="M713 860l370 672l246 -154l-557 -561zM129 737l27 156q6 43 22.5 78t42 60t49 41.5t56.5 33.5q12 7 42 22.5t42.5 23t30.5 20.5t26.5 27t11.5 30l10 55q10 39 -26 39q-32 0 -41 -47l-16 -92h-199l20 112q14 89 75 140t171 51q117 0 172.5 -54t38.5 -151l-10 -55
q-12 -75 -54 -119.5t-110 -83.5q-11 -6 -45 -24t-47.5 -26t-32 -23.5t-27.5 -30.5h258l-32 -183h-455zM844 -16q-131 0 -182.5 53t-30.5 158q3 38 12 65h193l-9 -51q-5 -26 2 -37.5t27 -11.5q30 0 39 39l12 71q2 14 -6.5 21.5t-28.5 7.5h-57l27 147h59q18 0 29.5 8.5
t13.5 22.5l10 62q9 39 -28 39q-33 0 -41 -35l-8 -56h-189l4 23l10 55q18 89 75.5 136t166.5 47q118 0 169.5 -51.5t33.5 -143.5l-12 -64q-14 -85 -91 -110q76 -29 56 -133l-15 -84q-15 -84 -70.5 -131t-170.5 -47zM10 115l565 577l54 -43l-371 -702z" />
    <glyph glyph-name="uni2155" unicode="&#x2155;" horiz-adv-x="1277" 
d="M713 860l370 672l246 -154l-557 -561zM160 737l30 181h109l53 301h-86l25 143q104 9 143 113h154l-99 -557h101l-31 -181h-399zM846 -14q-243 0 -201 227l10 57h197l-12 -67q-10 -43 22 -43q30 0 39 39l21 120q9 37 -27 37q-29 0 -41 -24l-8 -17l-172 47l110 375h390
l-3 -8q-12 -62 -28 -100q-17 -32 -54 -44t-110 -12h-70l-28 -100q37 37 92 37q187 0 145 -195l-24 -139q-18 -95 -77 -142.5t-171 -47.5zM10 115l565 577l54 -43l-371 -702z" />
    <glyph glyph-name="uni2156" unicode="&#x2156;" horiz-adv-x="1277" 
d="M713 860l370 672l246 -154l-557 -561zM129 737l27 156q6 43 22.5 78t42 60t49 41.5t56.5 33.5q12 7 42 22.5t42.5 23t30.5 20.5t26.5 27t11.5 30l10 55q10 39 -26 39q-32 0 -41 -47l-16 -92h-199l20 112q14 89 75 140t171 51q117 0 172.5 -54t38.5 -151l-10 -55
q-12 -75 -54 -119.5t-110 -83.5q-11 -6 -45 -24t-47.5 -26t-32 -23.5t-27.5 -30.5h258l-32 -183h-455zM846 -14q-243 0 -201 227l10 57h197l-12 -67q-10 -43 22 -43q30 0 39 39l21 120q9 37 -27 37q-29 0 -41 -24l-8 -17l-172 47l110 375h390l-3 -8q-12 -62 -28 -100
q-17 -32 -54 -44t-110 -12h-70l-28 -100q37 37 92 37q187 0 145 -195l-24 -139q-18 -95 -77 -142.5t-171 -47.5zM10 115l565 577l54 -43l-371 -702z" />
    <glyph glyph-name="uni2157" unicode="&#x2157;" horiz-adv-x="1277" 
d="M713 860l370 672l246 -154l-557 -561zM356 721q-131 0 -182.5 53t-30.5 158q3 34 13 65h192l-8 -51q-5 -26 2 -37.5t27 -11.5q30 0 39 39l12 72q2 14 -6.5 21t-28.5 7h-57l26 148h60q40 0 43 30l10 62q9 39 -29 39q-33 0 -41 -35l-8 -55h-188l4 22l10 56q18 89 75 135.5
t167 46.5q118 0 169 -51t33 -144l-12 -63q-15 -86 -90 -111q75 -29 55 -133l-14 -84q-15 -84 -71 -131t-171 -47zM846 -14q-243 0 -201 227l10 57h197l-12 -67q-10 -43 22 -43q30 0 39 39l21 120q9 37 -27 37q-29 0 -41 -24l-8 -17l-172 47l110 375h390l-3 -8
q-12 -62 -28 -100q-17 -32 -54 -44t-110 -12h-70l-28 -100q37 37 92 37q187 0 145 -195l-24 -139q-18 -95 -77 -142.5t-171 -47.5zM10 115l565 577l54 -43l-371 -702z" />
    <glyph glyph-name="uni2158" unicode="&#x2158;" horiz-adv-x="1277" 
d="M713 860l370 672l246 -154l-557 -561zM551 850l-21 -113h-174l21 113h-250l25 139l333 486h174l-81 -465h71l-28 -160h-70zM424 1128l-88 -118h67zM846 -14q-243 0 -201 227l10 57h197l-12 -67q-10 -43 22 -43q30 0 39 39l21 120q9 37 -27 37q-29 0 -41 -24l-8 -17
l-172 47l110 375h390l-3 -8q-12 -62 -28 -100q-17 -32 -54 -44t-110 -12h-70l-28 -100q37 37 92 37q187 0 145 -195l-24 -139q-18 -95 -77 -142.5t-171 -47.5zM10 115l565 577l54 -43l-371 -702z" />
    <glyph glyph-name="uni2159" unicode="&#x2159;" horiz-adv-x="1277" 
d="M713 860l370 672l246 -154l-557 -561zM160 737l30 181h109l53 301h-86l25 143q104 9 143 113h154l-99 -557h101l-31 -181h-399zM1094 172q-14 -88 -73 -137t-163 -49q-135 0 -187.5 63t-29.5 195l49 276q40 230 262 230q122 0 169.5 -58.5t29.5 -161.5l-8 -51h-193l13 70
q9 37 -27 37q-37 0 -49 -70l-23 -131q45 55 125 55q76 0 106.5 -44.5t16.5 -123.5zM10 115l565 577l54 -43l-371 -702zM862 154q36 0 45 39l15 81q9 41 -31 41q-29 0 -43 -14l-12 -72q-8 -41 -2.5 -58t28.5 -17z" />
    <glyph glyph-name="uni215A" unicode="&#x215a;" horiz-adv-x="1277" 
d="M713 860l370 672l246 -154l-557 -561zM352 723q-125 0 -173 57t-27 170l10 58h196l-12 -68q-10 -43 23 -43q30 0 39 39l20 121q9 37 -27 37q-29 0 -41 -25l-8 -16l-172 47l111 375h389l-2 -9q-11 -58 -29 -100q-17 -32 -53.5 -43.5t-110.5 -11.5h-69l-29 -101
q37 37 92 37q187 0 146 -194l-25 -140q-18 -95 -77 -142.5t-171 -47.5zM1094 172q-14 -88 -73 -137t-163 -49q-135 0 -187.5 63t-29.5 195l49 276q40 230 262 230q122 0 169.5 -58.5t29.5 -161.5l-8 -51h-193l13 70q9 37 -27 37q-37 0 -49 -70l-23 -131q45 55 125 55
q76 0 106.5 -44.5t16.5 -123.5zM10 115l565 577l54 -43l-371 -702zM862 154q36 0 45 39l15 81q9 41 -31 41q-29 0 -43 -14l-12 -72q-8 -41 -2.5 -58t28.5 -17z" />
    <glyph glyph-name="uni215B" unicode="&#x215b;" horiz-adv-x="1277" 
d="M713 860l370 672l246 -154l-557 -561zM160 737l30 181h109l53 301h-86l25 143q104 9 143 113h154l-99 -557h101l-31 -181h-399zM848 -14q-127 0 -178.5 50t-32.5 152l14 78q15 84 99 119q-31 18 -42 48.5t-1 86.5l10 58q14 81 76 126.5t172 45.5q111 0 162.5 -51
t33.5 -150l-8 -45q-15 -93 -90 -121q72 -35 49 -152l-12 -65q-14 -88 -73 -134t-179 -46zM10 115l565 577l54 -43l-371 -702zM887 485q-2 -17 5 -24.5t26 -7.5q42 0 45 32l10 60q9 47 -31 47q-34 0 -43 -35zM866 156q46 0 49 37l17 88q4 18 -4.5 26t-32.5 8q-41 0 -49 -43
l-12 -71q-6 -25 2.5 -35t29.5 -10z" />
    <glyph glyph-name="uni215C" unicode="&#x215c;" horiz-adv-x="1277" 
d="M713 860l370 672l246 -154l-557 -561zM356 721q-131 0 -182.5 53t-30.5 158q3 34 13 65h192l-8 -51q-5 -26 2 -37.5t27 -11.5q30 0 39 39l12 72q2 14 -6.5 21t-28.5 7h-57l26 148h60q40 0 43 30l10 62q9 39 -29 39q-33 0 -41 -35l-8 -55h-188l4 22l10 56q18 89 75 135.5
t167 46.5q118 0 169 -51t33 -144l-12 -63q-15 -86 -90 -111q75 -29 55 -133l-14 -84q-15 -84 -71 -131t-171 -47zM848 -14q-127 0 -178.5 50t-32.5 152l14 78q15 84 99 119q-31 18 -42 48.5t-1 86.5l10 58q14 81 76 126.5t172 45.5q111 0 162.5 -51t33.5 -150l-8 -45
q-15 -93 -90 -121q72 -35 49 -152l-12 -65q-14 -88 -73 -134t-179 -46zM10 115l565 577l54 -43l-371 -702zM887 485q-2 -17 5 -24.5t26 -7.5q42 0 45 32l10 60q9 47 -31 47q-34 0 -43 -35zM866 156q46 0 49 37l17 88q4 18 -4.5 26t-32.5 8q-41 0 -49 -43l-12 -71
q-6 -25 2.5 -35t29.5 -10z" />
    <glyph glyph-name="uni215D" unicode="&#x215d;" horiz-adv-x="1277" 
d="M713 860l370 672l246 -154l-557 -561zM352 723q-125 0 -173 57t-27 170l10 58h196l-12 -68q-10 -43 23 -43q30 0 39 39l20 121q9 37 -27 37q-29 0 -41 -25l-8 -16l-172 47l111 375h389l-2 -9q-11 -58 -29 -100q-17 -32 -53.5 -43.5t-110.5 -11.5h-69l-29 -101
q37 37 92 37q187 0 146 -194l-25 -140q-18 -95 -77 -142.5t-171 -47.5zM848 -14q-127 0 -178.5 50t-32.5 152l14 78q15 84 99 119q-31 18 -42 48.5t-1 86.5l10 58q14 81 76 126.5t172 45.5q111 0 162.5 -51t33.5 -150l-8 -45q-15 -93 -90 -121q72 -35 49 -152l-12 -65
q-14 -88 -73 -134t-179 -46zM10 115l565 577l54 -43l-371 -702zM887 485q-2 -17 5 -24.5t26 -7.5q42 0 45 32l10 60q9 47 -31 47q-34 0 -43 -35zM866 156q46 0 49 37l17 88q4 18 -4.5 26t-32.5 8q-41 0 -49 -43l-12 -71q-6 -25 2.5 -35t29.5 -10z" />
    <glyph glyph-name="uni215E" unicode="&#x215e;" horiz-adv-x="1277" 
d="M713 860l370 672l246 -154l-557 -561zM221 737q58 158 130 287.5t167 267.5h-233l32 183h437l-29 -158q-98 -143 -165 -277t-120 -303h-219zM848 -14q-127 0 -178.5 50t-32.5 152l14 78q15 84 99 119q-31 18 -42 48.5t-1 86.5l10 58q14 81 76 126.5t172 45.5
q111 0 162.5 -51t33.5 -150l-8 -45q-15 -93 -90 -121q72 -35 49 -152l-12 -65q-14 -88 -73 -134t-179 -46zM10 115l565 577l54 -43l-371 -702zM887 485q-2 -17 5 -24.5t26 -7.5q42 0 45 32l10 60q9 47 -31 47q-34 0 -43 -35zM866 156q46 0 49 37l17 88q4 18 -4.5 26t-32.5 8
q-41 0 -49 -43l-12 -71q-6 -25 2.5 -35t29.5 -10z" />
    <glyph glyph-name="uni215F" unicode="&#x215f;" horiz-adv-x="1277" 
d="M713 860l370 672l246 -154l-557 -561zM160 737l30 181h109l53 301h-86l25 143q104 9 143 113h154l-99 -557h101l-31 -181h-399zM10 115l565 577l54 -43l-371 -702z" />
    <glyph glyph-name="arrowleft" unicode="&#x2190;" horiz-adv-x="1497" 
d="M555 590q78 -62 146.5 -147t103.5 -171h-365q-22 65 -78 140q-117 159 -268 250v151q66 42 144 113q150 140 198 280h352q-31 -86 -92 -169t-135 -146h815v-301h-821z" />
    <glyph glyph-name="arrowup" unicode="&#x2191;" horiz-adv-x="1497" 
d="M1219 688q-180 71 -314 236v-818h-301v818q-138 -166 -315 -236v352q61 21 141 78q160 117 254 264h145q44 -70 111 -143q147 -151 279 -199v-352z" />
    <glyph glyph-name="arrowright" unicode="&#x2192;" horiz-adv-x="1497" 
d="M696 272q35 86 103.5 171t146.5 147h-821v301h815q-72 61 -132 144t-95 171h352q27 -72 76 -141q113 -153 266 -252v-151q-70 -44 -143 -111q-153 -144 -203 -279h-365z" />
    <glyph glyph-name="arrowdown" unicode="&#x2193;" horiz-adv-x="1497" 
d="M678 90q-40 63 -113 143q-139 149 -276 199v352q181 -72 313 -237v819h299v-819q133 164 318 237v-352q-66 -23 -144 -78q-149 -103 -252 -264h-145z" />
    <glyph glyph-name="uni2196" unicode="&#x2196;" horiz-adv-x="1497" 
d="M1096 188l-578 580q23 -202 -57 -391l-248 248q32 60 45 155q31 206 -8 367l102 102q76 -19 180 -22q210 -3 336 57l250 -250q-193 -77 -387 -55l578 -578z" />
    <glyph glyph-name="uni2197" unicode="&#x2197;" horiz-adv-x="1497" 
d="M1059 377q-77 196 -55 389l-578 -578l-213 211l580 580q-196 -22 -392 55l248 250q56 -30 156 -47q197 -29 366 8l103 -102q-20 -81 -23 -180q-3 -205 58 -336z" />
    <glyph glyph-name="uni2198" unicode="&#x2198;" horiz-adv-x="1497" 
d="M1167 223q-81 20 -180 23q-211 3 -336 -58l-250 250q186 79 387 56l-577 577l213 213l577 -579q-18 216 58 391l248 -248q-35 -84 -45 -156q-29 -195 8 -366z" />
    <glyph glyph-name="uni2199" unicode="&#x2199;" horiz-adv-x="1497" 
d="M870 188q-60 32 -155 45q-201 30 -365 -8l-102 103q20 81 20 180q3 214 -55 336l250 250q77 -178 53 -389l578 579l213 -213l-580 -577q205 23 393 -58z" />
    <glyph glyph-name="partialdiff" unicode="&#x2202;" horiz-adv-x="919" 
d="M385 -23q-150 0 -235 58q-90 58 -123 157t-9 230l64 356q72 396 391 396q133 0 172 -99q-25 128 -123 244t-295 252h432q104 -74 179 -193q157 -248 77 -563l-86 -481q-31 -170 -146.5 -263.5t-297.5 -93.5zM410 268q83 0 102 117l68 387q19 117 -70 117q-83 0 -102 -117
l-68 -387q-19 -117 70 -117z" />
    <glyph glyph-name="uni2206" unicode="&#x2206;" horiz-adv-x="1167" 
d="M745 1505l324 -1505h-1178zM612 696l-223 -417h299z" />
    <glyph glyph-name="product" unicode="&#x220f;" horiz-adv-x="1144" 
d="M741 1167h-135l-205 -1167h-323l205 1167h-140l54 308h1065l-54 -308h-143l-205 -1167h-323z" />
    <glyph glyph-name="summation" unicode="&#x2211;" horiz-adv-x="808" 
d="M657 0h-716l53 305l409 473l-241 404l51 293h688l-51 -297h-338l254 -424l-391 -445h336z" />
    <glyph glyph-name="minus" unicode="&#x2212;" horiz-adv-x="927" 
d="M84 582l51 290h762l-51 -290h-762z" />
    <glyph glyph-name="radical" unicode="&#x221a;" horiz-adv-x="1191" 
d="M274 0l-73 686h-125l57 328h367l43 -439l463 900h350l-750 -1475h-332z" />
    <glyph glyph-name="infinity" unicode="&#x221e;" horiz-adv-x="1392" 
d="M350 412q-167 0 -235 94t-41 252q23 141 124.5 226t250.5 85q65 0 124 -18q45 -17 82.5 -49.5t87.5 -90.5q105 85 178.5 121.5t178.5 36.5q100 0 162 -45q69 -48 98.5 -127t11.5 -180q-24 -142 -116 -222.5t-246 -80.5q-55 0 -98 10t-79.5 33.5t-62.5 48t-63 67.5
q-106 -86 -181 -123.5t-176 -37.5zM1022 666q35 0 61.5 22t32.5 55q5 33 -13.5 55.5t-53.5 22.5q-33 0 -65 -19t-79 -59q25 -28 38.5 -40.5t35 -24.5t43.5 -12zM403 668q32 0 66 18.5t82 56.5q-63 76 -121 76q-35 0 -61 -22.5t-31 -53.5q-6 -31 12 -53t53 -22z" />
    <glyph glyph-name="integral" unicode="&#x222b;" horiz-adv-x="679" 
d="M-94 -94h78q42 0 59.5 15.5t24.5 62.5l215 1214q31 180 121.5 253t277.5 73h137l-51 -283h-84q-39 0 -57 -16t-25 -62l-215 -1214q-32 -181 -122 -253.5t-277 -72.5h-129z" />
    <glyph glyph-name="approxequal" unicode="&#x2248;" horiz-adv-x="901" 
d="M365 1124q58 0 122 -22q8 -3 34.5 -14t36.5 -14.5t32.5 -12.5t35.5 -12.5t31 -8t33 -6.5t29 -2q46 0 92.5 22.5t77.5 63.5l-51 -293q-25 -28 -74 -50.5t-94 -22.5q-65 0 -129 22q-18 7 -58 23.5t-61.5 24t-52.5 15t-56 7.5q-45 0 -94 -23t-80 -63l51 293q24 30 74.5 51.5
t100.5 21.5zM295 733q57 0 121 -22q8 -3 39.5 -16t42.5 -17.5t37 -13.5t41.5 -12.5t36 -7t38.5 -3.5q94 0 168 86l-51 -293q-22 -28 -68.5 -50t-97.5 -22q-64 0 -131 23q-19 7 -58 23t-60.5 24t-51.5 15.5t-55 7.5q-44 0 -94.5 -24.5t-81.5 -61.5l51 293q25 30 75 50.5
t99 20.5z" />
    <glyph glyph-name="notequal" unicode="&#x2260;" horiz-adv-x="927" 
d="M420 403l-72 -145h-188l69 145h-147l49 275h234l57 121h-270l49 274h354l61 125h191l-62 -125h156l-49 -274h-240l-59 -121h278l-49 -275h-362z" />
    <glyph glyph-name="equivalence" unicode="&#x2261;" horiz-adv-x="927" 
d="M184 981l45 252h701l-45 -252h-701zM121 623l45 254h700l-45 -254h-700zM57 264l45 252h701l-45 -252h-701z" />
    <glyph glyph-name="lessequal" unicode="&#x2264;" horiz-adv-x="901" 
d="M145 825l41 236l738 272l-47 -274l-371 -113l330 -115l-50 -274zM45 246l45 258h688l-45 -258h-688z" />
    <glyph glyph-name="greaterequal" unicode="&#x2265;" horiz-adv-x="901" 
d="M154 831l370 115l-329 113l47 274l643 -272l-41 -236l-740 -268zM96 504h688l-45 -258h-688z" />
    <glyph glyph-name="uni22A0" unicode="&#x22a0;" horiz-adv-x="1658" 
d="M94 1475h1475v-1475h-1475v1475zM1083 477v522h-503v-522h503zM834 653l-125 -127l-82 82l125 129l-127 129l84 82l125 -127l124 129l84 -82l-129 -131l127 -131l-82 -82z" />
    <glyph glyph-name="house" unicode="&#x2302;" horiz-adv-x="1753" 
d="M211 831l668 642l667 -642v-831h-1335v831z" />
    <glyph glyph-name="filledbox" unicode="&#x25a0;" horiz-adv-x="1658" 
d="M94 1475h1475v-1475h-1475v1475z" />
    <glyph glyph-name="uni25A1" unicode="&#x25a1;" horiz-adv-x="1658" 
d="M94 0v1475h1475v-1475h-1475zM580 477h503v522h-503v-522z" />
    <glyph glyph-name="uni25AA" unicode="&#x25aa;" horiz-adv-x="1378" 
d="M92 1198h1198v-1198h-1198v1198z" />
    <glyph glyph-name="uni25AB" unicode="&#x25ab;" horiz-adv-x="1378" 
d="M92 1198h1198v-1198h-1198v1198zM881 403v394h-379v-394h379z" />
    <glyph glyph-name="triagup" unicode="&#x25b2;" horiz-adv-x="1845" 
d="M47 0l879 1520l876 -1520h-1755z" />
    <glyph glyph-name="triagrt" unicode="&#x25ba;" horiz-adv-x="1845" 
d="M211 1638l1520 -876l-1520 -879v1755z" />
    <glyph glyph-name="triagdn" unicode="&#x25bc;" horiz-adv-x="1845" 
d="M47 1495h1755l-876 -1520z" />
    <glyph glyph-name="triaglf" unicode="&#x25c4;" horiz-adv-x="1845" 
d="M1638 -117l-1519 879l1519 876v-1755z" />
    <glyph glyph-name="lozenge" unicode="&#x25ca;" horiz-adv-x="1118" 
d="M47 739l635 539l444 -541l-632 -538zM725 735l-117 139l-157 -135l112 -139z" />
    <glyph glyph-name="circle" unicode="&#x25cb;" horiz-adv-x="1759" 
d="M881 -23q-220 0 -394 97q-175 99 -269.5 268.5t-94.5 390.5q0 327 211 541q215 215 547 215q333 0 546 -213t213 -543t-210 -540q-216 -216 -549 -216zM881 434q129 0 207.5 85t78.5 214q0 85 -34 154q-81 149 -252 149q-129 0 -208 -86.5t-79 -216.5q0 -129 79 -214
t208 -85z" />
    <glyph glyph-name="uni25CE" unicode="&#x25ce;" horiz-adv-x="1878" 
d="M940 -20q-217 0 -389 96q-172 98 -266.5 267.5t-94.5 389.5q0 329 209 541q213 213 541 213t539 -211q213 -213 213 -543q0 -328 -209 -540q-216 -213 -543 -213zM940 246q137 0 248 63q111 65 173 175.5t62 248.5q0 140 -63 248q-63 113 -173 178.5t-247 65.5
q-132 0 -246 -66q-110 -65 -172.5 -176.5t-62.5 -249.5q0 -136 63 -250q65 -111 174.5 -174t243.5 -63zM942 383q-106 0 -180 45q-80 45 -125 124t-45 179q0 105 47 178q48 80 127 125t176 45q104 0 178 -45q81 -45 126.5 -124t45.5 -179q0 -102 -45 -176
q-48 -81 -127 -126.5t-178 -45.5zM942 612q49 0 80 34t31 85q0 54 -30.5 86.5t-80.5 32.5t-80.5 -32.5t-30.5 -86.5q0 -51 31 -85t80 -34z" />
    <glyph glyph-name="uni25CF" unicode="&#x25cf;" horiz-adv-x="1759" 
d="M881 -23q-220 0 -394 97q-175 99 -269.5 268.5t-94.5 390.5q0 327 211 541q215 215 547 215q333 0 546 -213t213 -543t-210 -540q-216 -216 -549 -216z" />
    <glyph glyph-name="uni25E2" unicode="&#x25e2;" horiz-adv-x="1845" 
d="M553 -150l-455 1696l1696 -454z" />
    <glyph glyph-name="uni25E3" unicode="&#x25e3;" horiz-adv-x="1845" 
d="M59 1092l1696 454l-455 -1696z" />
    <glyph glyph-name="uni25E4" unicode="&#x25e4;" horiz-adv-x="1845" 
d="M66 344l1241 1241l454 -1696z" />
    <glyph glyph-name="uni25E5" unicode="&#x25e5;" horiz-adv-x="1845" 
d="M96 -119l457 1696l1239 -1243z" />
    <glyph glyph-name="uni2605" unicode="&#x2605;" horiz-adv-x="1851" 
d="M688 623l-381 276l469 -2l148 446l145 -446l471 -2l-383 -274l148 -447l-383 277l-381 -277z" />
    <glyph glyph-name="sun" unicode="&#x263c;" horiz-adv-x="1908" 
d="M895 1454h111l-35 -291h-41zM541 1331l96 58l113 -273l-31 -20zM1264 1389l96 -58l-178 -235l-31 20zM293 1044l57 97l236 -178l-21 -31zM1546 1141l62 -94l-273 -115l-20 33zM594 729q0 96 49 178q47 83 128.5 130.5t178.5 47.5q96 0 178 -49q84 -48 131.5 -128.5
t47.5 -178.5q0 -95 -50 -178q-47 -84 -128 -131t-179 -47q-96 0 -178 49q-83 47 -130.5 128.5t-47.5 178.5zM227 676v110l291 -34v-41zM1673 786v-110l-291 35v41zM354 322l-61 94l272 114l21 -32zM1608 418l-58 -96l-235 178l20 30zM637 74l-96 57l178 236l31 -21z
M1360 131l-96 -57l-113 272l31 21zM1006 8h-111l35 291h41z" />
    <glyph glyph-name="uni263E" unicode="&#x263e;" horiz-adv-x="1619" 
d="M1100 1239q-136 0 -246 -70q-113 -72 -178.5 -189t-65.5 -255q0 -135 66 -258q69 -119 180 -187.5t244 -68.5q61 0 145 25q-164 -117 -364 -117q-250 0 -428 178q-179 179 -179 428t179 428q178 178 428 178q200 0 364 -117q-84 25 -145 25z" />
    <glyph glyph-name="spade" unicode="&#x2660;" horiz-adv-x="1855" 
d="M995 582q0 -164 82 -342q19 -46 42.5 -93t46.5 -89.5t30 -57.5h-520l74 141q116 242 116 441q-25 -72 -69 -131q-97 -142 -271 -142q-91 0 -172 43q-79 43 -125.5 116.5t-46.5 158.5q0 117 49 211q48 94 148 195.5t276 240.5l281 223h2l281 -223q164 -127 266 -236
q101 -103 145.5 -199t44.5 -212q0 -93 -43 -158q-44 -74 -114.5 -116t-157.5 -42q-102 0 -170 39q-135 72 -195 232z" />
    <glyph glyph-name="club" unicode="&#x2663;" horiz-adv-x="1855" 
d="M1331 262q-112 0 -198 66t-129 174q11 -97 51 -203q40 -104 143 -299h-520l65 123q102 207 121 381q-43 -108 -132.5 -175t-203.5 -67q-102 0 -178 49q-84 50 -131 131t-47 179q0 102 49 178q48 81 129 128.5t178 47.5q30 0 84 -12q-41 90 -41 174q0 99 47 176
q50 81 131.5 127.5t176.5 46.5q100 0 178 -47q81 -48 127.5 -127t46.5 -176q0 -91 -37 -179q46 17 92 17q101 0 178 -47q81 -51 128 -131t47 -176t-48 -181q-48 -81 -129.5 -129.5t-177.5 -48.5z" />
    <glyph glyph-name="heart" unicode="&#x2665;" horiz-adv-x="1855" 
d="M641 281q-164 178 -266 327q-101 144 -146 263t-45 237q0 105 49 190q50 88 134.5 138.5t185.5 50.5q109 0 180 -43q80 -42 130.5 -114.5t60.5 -164.5q13 96 59 164q51 75 129.5 116.5t179.5 41.5q103 0 191 -51q88 -52 139 -138.5t51 -189.5q0 -121 -47 -238
q-46 -117 -146.5 -257t-273.5 -332l-282 -316z" />
    <glyph glyph-name="diamond" unicode="&#x2666;" horiz-adv-x="1855" 
d="M272 745l658 758l655 -758l-655 -765z" />
    <glyph glyph-name="uni267B" unicode="&#x267b;" horiz-adv-x="1705" 
d="M723 1395h336q26 -1 37 -1.5t32.5 -5t33.5 -12.5t27.5 -24t27.5 -39l49 -84l75 43l-108 -291l-297 55l70 41l-125 217q-23 45 -64 68q-22 12 -45.5 20t-35.5 10l-13 1v2zM485 1286q18 31 60 53q46 30 110 27q60 -5 108.5 -29t65.5 -59l-200 -348l-260 149zM1540 754
q16 -28 16 -76q0 -65 -32 -111q-31 -48 -77.5 -77t-84.5 -29l-201 348l258 147zM342 256l-166 291q-19 33 -26.5 54t-4.5 53t23 69l49 86l-74 43l303 53l103 -289l-72 43l-61 -104q-62 -107 -64 -113q-24 -46 -24 -86q0 -25 4.5 -50t9.5 -38l4 -12h-4zM1522 502l-168 -291
q-19 -28 -27 -38t-27 -27.5t-42.5 -24t-55.5 -6.5h-100v-86l-195 235l195 236v-86h252q49 0 88 22q22 14 41.5 31t28.5 27l8 10zM563 115q-41 0 -78 22q-55 36 -77 84q-26 53 -29 108t16 85h402v-299h-234z" />
    <glyph glyph-name="uni267C" unicode="&#x267c;" horiz-adv-x="1705" 
d="M1548 725q0 -287 -202 -489q-201 -201 -488 -201q-143 0 -268.5 52t-222.5 149q-205 205 -205 489q0 289 205 494q97 97 222.5 149.5t268.5 52.5q286 0 488 -202t202 -494zM741 1251l23 -4q72 -19 100 -71l99 -168l-56 -33l232 -43l82 225l-58 -33l-39 66
q-24 40 -51 51.5t-72 11.5h-260v-2zM475 1010l203 -117l153 270q-11 23 -51 45q-40 21 -82.5 23t-87.5 -21q-32 -18 -43 -43zM1290 913l-203 -116l158 -271q26 0 64 23q39 26 63.5 65t24.5 84q0 30 -17 60zM457 371q-4 6 -6 22q-23 61 10 123l98 168l55 -35l-79 223
l-234 -38l57 -35l-39 -66q-13 -21 -17.5 -38.5t0 -37t8.5 -29t16 -34.5l129 -223h2zM1366 561l-14 -16q-51 -51 -115 -51h-193v63l-153 -180l153 -182v67h76q34 0 57.5 11.5t33.5 23.5t26 39l131 223zM801 262v232h-314q-15 -24 -12 -68q2 -44 23.5 -83.5t60.5 -63.5
q39 -17 59 -17h183z" />
    <glyph glyph-name="uni267D" unicode="&#x267d;" horiz-adv-x="1705" 
d="M1548 725q0 -287 -202 -489q-201 -201 -488 -201q-143 0 -268.5 52t-222.5 149q-205 205 -205 489q0 289 205 494q97 97 222.5 149.5t268.5 52.5q286 0 488 -202t202 -494zM1513 725q0 274 -192 469q-92 92 -211 142t-252 50q-274 0 -469 -192q-192 -195 -192 -469
q0 -273 192 -465q195 -192 469 -192q133 0 252 50t211 142q192 192 192 465zM741 1253h260q45 0 72 -11.5t51 -51.5l39 -66l58 33l-82 -225l-232 43l56 33l-99 168q-20 33 -49 49q-17 10 -35.5 16.5t-28.5 8.5l-10 1v2zM567 1167q11 25 43 43q40 24 86 21q48 -5 85.5 -23.5
t49.5 -44.5l-153 -270l-203 117zM1380 758q17 -30 17 -60q0 -48 -27 -86q-24 -38 -59.5 -62t-65.5 -24l-158 271l203 116zM455 371l-129 223q-12 25 -16 34.5t-8.5 29t0 37t17.5 38.5l39 66l-57 35l234 38l79 -223l-55 35l-98 -168q-19 -31 -19 -67q0 -21 4 -40.5t8 -28.5
l3 -9h-2zM1368 559l-131 -223q-16 -27 -26 -39t-33.5 -23.5t-57.5 -11.5h-76v-67l-153 182l153 180v-63h193q41 0 70 16q17 11 32 24t21 20l6 7zM618 262q-20 0 -59 17q-39 23 -61 65q-20 40 -22.5 83t11.5 67h314v-232h-183z" />
    <glyph glyph-name="uni26AC" unicode="&#x26ac;" horiz-adv-x="1329" 
d="M666 -20q-191 0 -326 79q-142 78 -219.5 218t-77.5 321q0 173 78 320q79 142 220 221.5t325 79.5q188 0 325 -80q142 -79 220.5 -219t78.5 -322q0 -173 -78 -317q-80 -142 -220 -221.5t-326 -79.5zM666 395q88 0 139 57.5t51 145.5q0 89 -51 148t-139 59t-139.5 -58
t-51.5 -149q0 -87 52 -145t139 -58z" />
    <glyph glyph-name="uni2E18" unicode="&#x2e18;" horiz-adv-x="997" 
d="M590 1219q111 0 144.5 -38.5t10.5 -158.5q-12 -74 -38 -115q-22 -35 -63.5 -47t-119.5 -12q-43 0 -71 5t-50 17.5t-29.5 35t-10 58t9.5 85.5q14 71 37 112q22 34 62.5 46t117.5 12zM344 -295q-227 0 -327.5 106t-67.5 293l26 150q8 44 25.5 82.5t36.5 64t50.5 51.5t53 40
t58.5 36q39 23 52.5 31t43.5 28.5t43 35t28.5 38t22.5 48.5l25 90q43 -15 104 -15q64 0 111 15q4 -29 -4 -82q-19 -150 -80 -506l-41 -236q59 39 80 138l37 209h290l-39 -218q-22 -120 -84 -206q-131 -193 -444 -193zM238 102q-15 -99 28 -131l43 240q4 24 9 51t12 58.5
t10 48.5q-4 -1 -18 -15q-44 -37 -58 -108z" />
    <glyph glyph-name="uni3008" unicode="&#x3008;" horiz-adv-x="614" 
d="M129 -311l-102 919l426 889h350l-451 -924l111 -884h-334z" />
    <glyph glyph-name="uni3009" unicode="&#x3009;" horiz-adv-x="614" 
d="M-186 -311l458 956l-118 852h329l113 -889l-426 -919h-356z" />
    <glyph glyph-name="i.dot" horiz-adv-x="462" 
d="M352 1231q-107 0 -143 37.5t-19 128.5q17 97 61 131.5t146 34.5q104 0 141.5 -36.5t20.5 -129.5q-17 -95 -62 -130.5t-145 -35.5zM166 1190q41 -35 170 -35q121 0 174 37l-209 -1192h-344z" />
    <glyph glyph-name="zero.inf" horiz-adv-x="557" 
d="M135 -332q-256 0 -207 269l45 249q24 129 87.5 187.5t170.5 58.5q111 0 170 -67t35 -195l-45 -252q-23 -133 -82 -191.5t-174 -58.5zM145 -158q40 0 52 74l47 270q15 76 -25 76q-22 0 -32.5 -16.5t-18.5 -59.5l-47 -270q-12 -74 24 -74z" />
    <glyph glyph-name="one.inf" horiz-adv-x="471" 
d="M-123 -317l31 180h108l54 301h-86l24 143q105 9 144 113h153l-98 -557h100l-31 -180h-399z" />
    <glyph glyph-name="two.inf" horiz-adv-x="538" 
d="M-119 -317l27 155q6 43 22.5 78t42 60t49 41.5t56.5 33.5q12 7 42 22.5t42.5 23t30.5 20.5t26.5 27t11.5 30l11 55q10 39 -27 39q-32 0 -41 -47l-16 -92h-199l21 113q14 89 74.5 139.5t170.5 50.5q117 0 172.5 -54t38.5 -151l-10 -55q-12 -75 -54 -119.5t-110 -83.5
q-10 -5 -44.5 -23.5t-47.5 -26.5t-31.5 -23.5t-27.5 -30.5h258l-33 -182h-455z" />
    <glyph glyph-name="three.inf" horiz-adv-x="530" 
d="M119 -334q-131 0 -182.5 53t-30.5 158q3 39 12 66h193l-9 -52q-5 -26 2 -37.5t27 -11.5q30 0 39 39l12 72q2 14 -6.5 21.5t-28.5 7.5h-57l27 147h59q18 0 29.5 8.5t13.5 22.5l10 61q9 39 -28 39q-33 0 -41 -35l-8 -55h-189l4 23l10 55q18 89 75 135.5t167 46.5
q118 0 169.5 -51t33.5 -143l-12 -64q-15 -86 -91 -111q76 -29 56 -133l-15 -84q-15 -84 -70.5 -131t-170.5 -47z" />
    <glyph glyph-name="four.inf" horiz-adv-x="552" 
d="M311 -205l-20 -112h-174l20 112h-250l25 139l334 486h174l-82 -465h72l-29 -160h-70zM184 74l-88 -119h68z" />
    <glyph glyph-name="five.inf" horiz-adv-x="542" 
d="M121 -332q-243 0 -201 228l10 57h197l-12 -68q-10 -43 22 -43q30 0 39 39l21 121q9 37 -27 37q-28 0 -41 -25l-8 -16l-172 47l110 375h390l-3 -8q-12 -64 -28 -101q-17 -32 -53.5 -43.5t-110.5 -11.5h-70l-28 -100q37 37 92 37q187 0 145 -195l-24 -139q-18 -95 -77 -143
t-171 -48z" />
    <glyph glyph-name="six.inf" horiz-adv-x="550" 
d="M379 -145q-14 -88 -73 -137.5t-163 -49.5q-135 0 -187.5 63t-29.5 195l49 277q40 229 263 229q236 0 198 -219l-8 -51h-192l12 69q9 37 -27 37q-37 0 -49 -69l-22 -131q45 55 124 55q76 0 106.5 -44.5t16.5 -123.5zM147 -164q37 0 46 39l14 82q9 41 -31 41q-29 0 -43 -14
l-12 -72q-8 -41 -2.5 -58.5t28.5 -17.5z" />
    <glyph glyph-name="seven.inf" horiz-adv-x="495" 
d="M-96 -317q58 158 130 287.5t167 267.5h-234l33 182h436l-28 -158q-98 -143 -165 -276.5t-120 -302.5h-219z" />
    <glyph glyph-name="eight.inf" horiz-adv-x="552" 
d="M125 -332q-127 0 -178.5 50.5t-32.5 152.5l14 78q15 84 99 119q-31 18 -42 48.5t-1 86.5l10 57q14 81 76 126.5t172 45.5q111 0 162.5 -51t33.5 -150l-8 -45q-15 -92 -90 -120q72 -35 49 -152l-12 -66q-14 -88 -73 -134t-179 -46zM164 168q-3 -33 31 -33q42 0 45 33
l10 59q9 47 -31 47q-20 0 -29 -8t-14 -26zM143 -162q47 0 50 37l16 88q4 19 -4.5 27t-32.5 8q-41 0 -49 -43l-12 -72q-6 -25 2.5 -35t29.5 -10z" />
    <glyph glyph-name="nine.inf" horiz-adv-x="557" 
d="M123 -334q-245 0 -207 219l10 60h205l-14 -78q-9 -37 26 -37q38 0 50 70l24 137q-48 -62 -131 -62q-75 0 -106 45t-17 123l19 101q38 186 235 186q262 0 217 -258l-49 -276q-21 -119 -82 -174.5t-180 -55.5zM184 100q23 0 47 17l13 73q15 78 -29 78q-38 0 -47 -45
l-14 -82q-9 -41 30 -41z" />
    <glyph glyph-name="underscore" horiz-adv-x="929" 
d="M-20 270h860l-47 -270h-861z" />
    <glyph glyph-name="backslash.cap" horiz-adv-x="675" 
d="M164 1475h356l45 -1475h-356z" />
    <glyph glyph-name="periodcentered.cap" horiz-adv-x="512" 
d="M252 532q-104 0 -138 48.5t-14 169.5q15 78 37 120q24 42 65.5 59t114.5 17q105 0 140.5 -47t11.5 -176q-11 -68 -37 -119q-24 -40 -65 -56t-115 -16z" />
    <glyph glyph-name="bullet.cap" horiz-adv-x="706" 
d="M334 436q-122 0 -166.5 56t-20.5 192q13 79 46 139q30 48 79.5 67t135.5 19q40 0 70 -4.5t55 -15.5t40.5 -30t24 -47.5t7.5 -68t-11 -90.5q-14 -81 -45 -135q-30 -46 -79.5 -64t-135.5 -18z" />
    <glyph glyph-name="uni2016.cap" horiz-adv-x="874" 
d="M266 1655h312l-322 -1821h-311zM674 1655h311l-321 -1821h-312z" />
    <glyph glyph-name="exclamdown.cap" horiz-adv-x="512" 
d="M346 1098q-104 0 -139 45t-12 168q15 75 36 112q24 38 66 53t115 15q106 0 140 -44t11 -163q-11 -67 -37 -117q-24 -38 -65.5 -53.5t-114.5 -15.5zM49 432q34 196 94 406q50 180 72 211q41 -13 119 -13q82 0 123 13q11 -25 -2 -209q-13 -198 -49 -408l-76 -432h-357z" />
    <glyph glyph-name="uni2E18.cap" horiz-adv-x="997" 
d="M637 1497q111 0 145 -39t11 -158q-11 -70 -39 -114q-22 -35 -63.5 -47.5t-119.5 -12.5q-43 0 -71 5t-50 17.5t-29.5 35t-10 58t9.5 85.5q14 72 37 113q22 34 62.5 45.5t117.5 11.5zM391 -16q-227 0 -327.5 106t-67.5 293l27 149q8 44 25.5 82.5t36.5 64t49.5 51.5t53 41
t58.5 36q41 24 53 31t43 28t43.5 35t28 37.5t22.5 48.5l25 90q40 -14 104 -14q67 0 111 14q4 -29 -4 -82q-19 -150 -80 -506l-41 -235q59 39 80 137l37 209h290l-38 -217q-22 -122 -84 -207q-130 -192 -445 -192zM285 381q-15 -99 28 -131l43 239q4 24 9 51t12 58.5t10 48.5
q-6 -2 -18 -14q-43 -37 -58 -109z" />
    <glyph glyph-name="questiondown.cap" horiz-adv-x="923" 
d="M639 1493q111 0 145 -39t11 -158q-11 -70 -39 -114q-22 -35 -63.5 -47.5t-119.5 -12.5q-43 0 -71 5t-50 17.5t-29.5 35t-10 58t9.5 85.5q14 72 37 113q22 34 62.5 45.5t117.5 11.5zM416 1083q60 -24 149 -24q97 0 162 24l-12 -82q0 -7 -8 -63q-9 -53 -29 -95t-51 -73
t-57.5 -51t-65.5 -43q-4 -2 -20.5 -12.5t-21 -13t-18 -11.5t-18 -13t-15 -12.5t-14.5 -14.5t-10 -14.5t-9 -16.5t-5 -17l-35 -191q-15 -96 68 -96q46 0 66 22t28 68l43 250h342l-47 -274q-30 -169 -149.5 -259.5t-323.5 -90.5q-210 0 -306 104t-63 287l31 168q15 84 47 139
q58 91 164 156q8 5 29.5 19t30 19.5t25 17.5t24 19.5t18 19t16.5 23.5t10 25z" />
    <glyph glyph-name="slash.cap" horiz-adv-x="675" 
d="M471 1475h363l-576 -1475h-364z" />
    <glyph glyph-name="uni3008.cap" horiz-adv-x="614" 
d="M152 -176l-103 919l426 889h350l-450 -923l110 -885h-333z" />
    <glyph glyph-name="uni3009.cap" horiz-adv-x="614" 
d="M-164 -176l459 956l-119 852h330l112 -889l-425 -919h-357z" />
    <glyph glyph-name="braceleft.cap" horiz-adv-x="663" 
d="M260 -176q-136 0 -192 71.5t-31 196.5q15 83 57 150q16 25 54 79t56 87t23 63q10 55 -11 77.5t-81 22.5h-96l55 314h86q61 0 90 22t39 80q10 55 -10 113q-9 31 -15 51.5t-13 53.5t-10 60t-2.5 60.5t5.5 65.5q42 241 303 241h260l-45 -264h-80q-51 0 -80 -16t-36 -58
q-7 -36 10 -102q38 -113 43 -169q4 -45 -4 -87q-14 -93 -71.5 -140t-170.5 -48l-6 -37q112 -1 153 -49t23 -142q-12 -70 -49 -131q-12 -19 -37.5 -56.5t-38.5 -58t-26 -48.5t-17 -50q-15 -88 82 -88h78l-45 -264h-250z" />
    <glyph glyph-name="braceright.cap" horiz-adv-x="663" 
d="M-70 88h80q51 0 80.5 16t36.5 58q7 36 -10 102q-1 2 -9.5 28.5t-10 32t-8.5 29t-8 33t-4.5 31t-3.5 35t1 32t4 35.5q18 94 73.5 141t167.5 48l7 36q-111 1 -150.5 48.5t-25.5 142.5q12 70 49 131q12 18 37.5 56.5t38 58.5t25.5 48t17 50q15 88 -81 88h-78l45 264h250
q136 0 192 -71.5t31 -196.5q-12 -81 -55 -150q-15 -24 -51.5 -78t-53.5 -86.5t-22 -64.5q-10 -55 10.5 -77.5t79.5 -22.5h90l-56 -314h-86q-64 0 -96.5 -22.5t-42.5 -79.5q-9 -49 13 -113l11.5 -34.5t13 -40.5t10.5 -37t9.5 -43.5t4.5 -40.5t1 -48t-7 -46
q-42 -242 -304 -242h-260z" />
    <glyph glyph-name="bracketleft.cap" horiz-adv-x="604" 
d="M446 -176h-518l320 1810h518l-49 -280h-185l-219 -1248h185z" />
    <glyph glyph-name="bracketright.cap" horiz-adv-x="604" 
d="M-111 -176l50 282h186l219 1248h-186l49 280h518l-319 -1810h-517z" />
    <glyph glyph-name="parenleft.cap" horiz-adv-x="610" 
d="M459 -176q-204 0 -309 63q-107 61 -138.5 196.5t8.5 348.5l121 686q38 199 109 312q70 112 196 159t332 47l-55 -315q-114 0 -164.5 -52.5t-75.5 -193.5l-118 -674q-27 -142 5.5 -198t145.5 -56z" />
    <glyph glyph-name="parenright.cap" horiz-adv-x="610" 
d="M-61 150q113 0 162.5 51.5t74.5 193.5l119 674q27 143 -5 198.5t-145 55.5l56 313q194 0 303 -59q110 -61 142 -194t-7 -355l-121 -686q-34 -195 -104 -311q-66 -112 -191.5 -159.5t-341.5 -47.5z" />
    <glyph glyph-name="parenleft.inf" horiz-adv-x="397" 
d="M162 -479q-151 6 -208.5 92.5t-23.5 286.5l58 323q25 136 67 199q45 69 115 99.5t174 35.5l-35 -199q-58 -6 -84.5 -43t-44.5 -131l-51 -288q-16 -91 -1.5 -122t71.5 -36z" />
    <glyph glyph-name="parenright.inf" horiz-adv-x="397" 
d="M-106 -281q60 6 87.5 44t41.5 131l51 288q17 91 1.5 123.5t-71.5 34.5l37 217q151 -6 208 -92t23 -287l-57 -323q-21 -127 -68 -199q-46 -70 -114 -100t-174 -35z" />
    <glyph glyph-name="emdash.cap" horiz-adv-x="819" 
d="M111 903h708l-55 -319h-709z" />
    <glyph glyph-name="endash.cap" horiz-adv-x="583" 
d="M111 903h473l-56 -319h-473z" />
    <glyph glyph-name="figuredash.cap" horiz-adv-x="952" 
d="M111 903h841l-55 -319h-842z" />
    <glyph glyph-name="uni2015.cap" horiz-adv-x="983" 
d="M111 903h872l-55 -319h-873z" />
    <glyph glyph-name="hyphen.cap" horiz-adv-x="733" 
d="M111 903h622l-55 -319h-623z" />
    <glyph glyph-name="guillemotleft.cap" horiz-adv-x="1034" 
d="M262 328l-182 397l4 18l309 375h287l-338 -399l180 -391h-260zM657 328l-165 362l6 31l331 397h285l-364 -434l163 -356h-256z" />
    <glyph glyph-name="guillemotright.cap" horiz-adv-x="1034" 
d="M-31 328l373 442l-162 348h256l166 -362l-6 -31l-332 -397h-295zM403 328l347 407l-179 383h260l183 -397l-4 -19l-310 -374h-297z" />
    <glyph glyph-name="guilsinglleft.cap" horiz-adv-x="638" 
d="M250 338l-176 379l4 18l307 393h324l-338 -415l186 -375h-307z" />
    <glyph glyph-name="guilsinglright.cap" horiz-adv-x="638" 
d="M-35 328l359 424l-168 366h293l167 -393l-4 -18l-309 -379h-338z" />
    <glyph glyph-name="periodcentered.smcp" horiz-adv-x="1239" 
d="M111 903h1128l-55 -319h-1129z" />
    <glyph glyph-name="space_dotbelowcomb" horiz-adv-x="731" 
d="M188 -422q-91 0 -122 37t-13 131q13 67 33 104q18 36 55.5 51t106.5 15q89 0 122 -36.5t15 -133.5q-18 -102 -58.5 -135t-138.5 -33z" />
    <glyph glyph-name="uni00200326" horiz-adv-x="731" 
d="M61 -436q54 0 80.5 17.5t40.5 60.5h-12q-68 0 -88.5 26.5t-7.5 112.5q14 81 50 113t118 32q86 0 109 -38.5t3 -151.5q-55 -305 -317 -305z" />
    <glyph glyph-name="uni00200326.alt" horiz-adv-x="731" 
d="M487 1294q-85 0 -108.5 39t-3.5 152q55 305 317 305l-24 -133q-51 0 -79.5 -18t-41.5 -60h12q70 0 91.5 -27t4.5 -112q-14 -81 -50 -113.5t-118 -32.5z" />
    <glyph glyph-name="plus.inf" horiz-adv-x="497" 
d="M225 -31l-20 -116h-172l20 116h-110l30 174h111l20 117h172l-20 -117h111l-31 -174h-111z" />
    <glyph glyph-name="minus.inf" horiz-adv-x="497" 
d="M-25 147h394l-33 -182h-393z" />
    <glyph glyph-name="equal.inf" horiz-adv-x="493" 
d="M4 231h358l-26 -153h-359zM-33 27h359l-27 -154h-358z" />
    <glyph glyph-name="at.cap" horiz-adv-x="1171" 
d="M485 -115q-164 0 -284 66q-244 138 -170 563l90 522q34 183 119 299q164 232 477 232q174 0 293 -68q127 -70 179.5 -202.5t16.5 -325.5l-73 -408q-34 -196 -97.5 -279t-199.5 -83q-154 0 -201 96q-56 -96 -166 -96q-107 0 -152.5 69.5t-17.5 229.5l84 479q25 144 86 205
t156 61q55 0 92 -24t49 -58l51 70h154l-131 -739q-6 -36 -8 -55t-1 -34t7 -19.5t18 -4.5q20 0 31 14q30 30 55 185l76 430q35 194 -43.5 285t-278.5 91q-163 0 -256.5 -90t-128.5 -284l-90 -510q-38 -223 34.5 -328.5t256.5 -105.5q89 0 136.5 20.5t86.5 65.5h266
q-87 -141 -208.5 -205t-307.5 -64zM551 387q30 0 46 24.5t24 80.5l81 462q11 56 4.5 81.5t-36.5 25.5q-31 0 -46 -24t-26 -83l-82 -462q-9 -56 -2.5 -80.5t37.5 -24.5z" />
    <glyph glyph-name="registered.cap" horiz-adv-x="1251" 
d="M555 -25q-179 0 -309 74q-128 73 -181 212.5t-18 334.5l53 303q37 213 131 344q93 125 225.5 186.5t291.5 61.5q160 0 288 -70q135 -75 193.5 -216.5t23.5 -346.5l-53 -299q-56 -298 -210.5 -441t-434.5 -143zM840 330q-4 -39 0 -49q98 86 137 290l55 306q24 139 -10 223
q-72 168 -301 168q-173 0 -268 -87t-129 -294l-52 -297q-37 -198 52 -301l159 903h271q125 0 175.5 -61t31.5 -158l-27 -156q-13 -94 -90 -135q54 -30 35 -127zM664 1014l-39 -226h34q53 0 62 46l24 133q9 47 -45 47h-36zM578 199q163 0 251 73h-204q-8 5 -4 58l18 108
q18 92 18 97q6 35 -4 47t-41 12h-22l-55 -322h-195q82 -73 238 -73z" />
    <glyph glyph-name="bar.cap" horiz-adv-x="487" 
d="M266 1655h332l-324 -1835h-331z" />
    <glyph glyph-name="brokenbar.cap" horiz-adv-x="487" 
d="M266 1655h332l-149 -850h-332zM98 698h332l-156 -878h-331z" />
    <glyph glyph-name="Aumlaut" horiz-adv-x="940" 
d="M215 1229q-72 0 -91 25t-7 102q13 77 45.5 106t99.5 29q68 0 88.5 -28.5t7.5 -106.5q-12 -72 -42.5 -99.5t-100.5 -27.5zM938 1229q-71 0 -89.5 25t-6.5 102q13 78 44 106.5t99 28.5t89.5 -29t8.5 -106q-12 -72 -43.5 -99.5t-101.5 -27.5zM520 162h-235l-54 -162h-342
l568 1475h331l58 -1475h-328zM379 442h143l4 357l19 184l-47 -184z" />
    <glyph glyph-name="Oumlaut" horiz-adv-x="978" 
d="M223 1403q-41 0 -52 15.5t-3 58.5q7 44 25 60.5t57 16.5q42 0 55 -16.5t6 -60.5q-7 -41 -27 -57.5t-61 -16.5zM999 1403q-42 0 -53.5 15.5t-3.5 58.5q8 44 25.5 60.5t58.5 16.5q42 0 55 -16.5t6 -60.5q-7 -41 -27 -57.5t-61 -16.5zM424 -23q-170 0 -264 64
q-180 122 -127 434l100 569q43 245 161 349t324 104q222 0 322.5 -124.5t54.5 -385.5l-96 -549q-43 -247 -150.5 -354t-324.5 -107zM438 287q50 0 75 34t38 123l104 596q17 89 4 124.5t-63 35.5q-48 0 -70.5 -35t-40.5 -125l-106 -596q-13 -85 0.5 -121t58.5 -36z" />
    <glyph glyph-name="Uumlaut" horiz-adv-x="1030" 
d="M567 1194q-18 0 -25.5 12t-6.5 41t10 86q17 86 32.5 118t40.5 32q20 0 28 -14t6.5 -45.5t-13.5 -90.5q-14 -81 -28.5 -110t-43.5 -29zM680 1194q-29 0 -33 28t10 111q17 87 32.5 118.5t41.5 31.5q27 0 31.5 -32t-12.5 -118q-13 -79 -28.5 -109t-41.5 -30zM434 -23
q-239 0 -341.5 116t-59.5 345l182 1037h336l-178 -1016q-17 -92 5.5 -124t90.5 -32q65 0 97.5 32t49.5 124l179 1016h335l-182 -1037q-25 -157 -88 -270q-61 -101 -162.5 -146t-263.5 -45z" />
    <glyph glyph-name="cordinal" horiz-adv-x="657" 
d="M367 659q-148 0 -218 82t-49 217l52 287q20 114 107 182t208 68q146 0 220.5 -84.5t49.5 -222.5l-10 -58h-248l13 74q18 82 -41 82q-49 0 -60 -74l-43 -256q-13 -79 39 -79t64 79l14 84h246l-25 -141q-20 -112 -107.5 -176t-211.5 -64z" />
    <glyph glyph-name="caronSlovak" horiz-adv-x="731" 
d="M475 1614h270l-231 -311h-195z" />
    <glyph glyph-name="altcedilla" horiz-adv-x="731" 
d="M205 -471q-141 0 -213.5 55t-79.5 174h246q4 -29 18 -39t47 -10q67 0 76 47q4 20 -11.5 31.5t-47.5 11.5h-111l31 166h135q128 0 184.5 -58.5t36.5 -172.5q-37 -205 -311 -205z" />
    <glyph glyph-name="doublegrave" horiz-adv-x="731" 
d="M178 1614h254l66 -311h-174zM485 1614h244l25 -311h-172z" />
    <glyph glyph-name="invertedbreve" horiz-adv-x="731" 
d="M219 1303q29 165 103 236t219 71q155 0 209.5 -72t25.5 -235h-209q11 66 1 86t-52 20q-40 0 -59 -21.5t-29 -84.5h-209z" />
    <glyph glyph-name="onethirdemdash" horiz-adv-x="583" 
d="M88 774h473l-55 -317h-473z" />
    <glyph glyph-name="threequarteremdash" horiz-adv-x="819" 
d="M88 774h709l-56 -317h-708z" />
    <glyph glyph-name="onethirdemdash.cap" horiz-adv-x="733" 
d="M111 903h622l-55 -319h-623z" />
    <glyph glyph-name="threequarteremdash.cap" horiz-adv-x="686" 
d="M111 903h575l-55 -319h-576z" />
    <glyph glyph-name="onesixteenth" horiz-adv-x="1746" 
d="M713 860l370 672l246 -154l-557 -561zM160 737l30 181h109l53 301h-86l25 143q104 9 143 113h154l-99 -557h101l-31 -181h-399zM1563 172q-14 -88 -73 -137t-163 -49q-135 0 -187.5 63t-29.5 195l49 276q40 230 262 230q122 0 169.5 -58.5t29.5 -161.5l-8 -51h-193l13 70
q9 37 -27 37q-37 0 -49 -70l-23 -131q45 55 125 55q76 0 106.5 -44.5t16.5 -123.5zM623 2l30 180h109l53 301h-86l25 144q104 9 143 112h154l-99 -557h101l-31 -180h-399zM10 115l565 577l54 -43l-371 -702zM1331 154q36 0 45 39l15 81q9 41 -31 41q-29 0 -43 -14l-12 -72
q-8 -41 -2.5 -58t28.5 -17z" />
    <glyph glyph-name="threesixteenths" horiz-adv-x="1746" 
d="M713 860l370 672l246 -154l-557 -561zM356 721q-131 0 -182.5 53t-30.5 158q3 34 13 65h192l-8 -51q-5 -26 2 -37.5t27 -11.5q30 0 39 39l12 72q2 14 -6.5 21t-28.5 7h-57l26 148h60q40 0 43 30l10 62q9 39 -29 39q-33 0 -41 -35l-8 -55h-188l4 22l10 56q18 89 75 135.5
t167 46.5q118 0 169 -51t33 -144l-12 -63q-15 -86 -90 -111q75 -29 55 -133l-14 -84q-15 -84 -71 -131t-171 -47zM1563 172q-14 -88 -73 -137t-163 -49q-135 0 -187.5 63t-29.5 195l49 276q40 230 262 230q122 0 169.5 -58.5t29.5 -161.5l-8 -51h-193l13 70q9 37 -27 37
q-37 0 -49 -70l-23 -131q45 55 125 55q76 0 106.5 -44.5t16.5 -123.5zM623 2l30 180h109l53 301h-86l25 144q104 9 143 112h154l-99 -557h101l-31 -180h-399zM10 115l565 577l54 -43l-371 -702zM1331 154q36 0 45 39l15 81q9 41 -31 41q-29 0 -43 -14l-12 -72
q-8 -41 -2.5 -58t28.5 -17z" />
    <glyph glyph-name="fivesixteenths" horiz-adv-x="1746" 
d="M713 860l370 672l246 -154l-557 -561zM352 723q-125 0 -173 57t-27 170l10 58h196l-12 -68q-10 -43 23 -43q30 0 39 39l20 121q9 37 -27 37q-29 0 -41 -25l-8 -16l-172 47l111 375h389l-2 -9q-11 -58 -29 -100q-17 -32 -53.5 -43.5t-110.5 -11.5h-69l-29 -101
q37 37 92 37q187 0 146 -194l-25 -140q-18 -95 -77 -142.5t-171 -47.5zM1563 172q-14 -88 -73 -137t-163 -49q-135 0 -187.5 63t-29.5 195l49 276q40 230 262 230q122 0 169.5 -58.5t29.5 -161.5l-8 -51h-193l13 70q9 37 -27 37q-37 0 -49 -70l-23 -131q45 55 125 55
q76 0 106.5 -44.5t16.5 -123.5zM623 2l30 180h109l53 301h-86l25 144q104 9 143 112h154l-99 -557h101l-31 -180h-399zM10 115l565 577l54 -43l-371 -702zM1331 154q36 0 45 39l15 81q9 41 -31 41q-29 0 -43 -14l-12 -72q-8 -41 -2.5 -58t28.5 -17z" />
    <glyph glyph-name="sevensixteenths" horiz-adv-x="1746" 
d="M713 860l370 672l246 -154l-557 -561zM221 737q58 158 130 287.5t167 267.5h-233l32 183h437l-29 -158q-98 -143 -165 -277t-120 -303h-219zM1563 172q-14 -88 -73 -137t-163 -49q-135 0 -187.5 63t-29.5 195l49 276q40 230 262 230q122 0 169.5 -58.5t29.5 -161.5
l-8 -51h-193l13 70q9 37 -27 37q-37 0 -49 -70l-23 -131q45 55 125 55q76 0 106.5 -44.5t16.5 -123.5zM623 2l30 180h109l53 301h-86l25 144q104 9 143 112h154l-99 -557h101l-31 -180h-399zM10 115l565 577l54 -43l-371 -702zM1331 154q36 0 45 39l15 81q9 41 -31 41
q-29 0 -43 -14l-12 -72q-8 -41 -2.5 -58t28.5 -17z" />
    <glyph glyph-name="ninesixteenths" horiz-adv-x="1746" 
d="M713 860l370 672l246 -154l-557 -561zM381 721q-245 0 -207 219l10 59h205l-14 -77q-9 -37 26 -37q38 0 50 69l24 138q-48 -62 -131 -62q-75 0 -106 45t-17 123l19 100q38 187 235 187q262 0 217 -258l-49 -277q-21 -119 -81.5 -174t-180.5 -55zM442 1155q25 0 47 16
l13 74q15 78 -29 78q-38 0 -47 -45l-14 -82q-9 -41 30 -41zM1563 172q-14 -88 -73 -137t-163 -49q-135 0 -187.5 63t-29.5 195l49 276q40 230 262 230q122 0 169.5 -58.5t29.5 -161.5l-8 -51h-193l13 70q9 37 -27 37q-37 0 -49 -70l-23 -131q45 55 125 55q76 0 106.5 -44.5
t16.5 -123.5zM623 2l30 180h109l53 301h-86l25 144q104 9 143 112h154l-99 -557h101l-31 -180h-399zM10 115l565 577l54 -43l-371 -702zM1331 154q36 0 45 39l15 81q9 41 -31 41q-29 0 -43 -14l-12 -72q-8 -41 -2.5 -58t28.5 -17z" />
    <glyph glyph-name="elevensixteenths" horiz-adv-x="2226" 
d="M1192 860l371 672l245 -154l-557 -561zM160 737l30 181h109l53 301h-86l25 143q104 9 143 113h154l-99 -557h101l-31 -181h-399zM639 737l31 181h108l53 301h-86l25 143q104 9 143 113h154l-98 -557h100l-31 -181h-399zM2042 172q-14 -88 -73 -137t-163 -49
q-135 0 -187.5 63t-29.5 195l49 276q40 230 263 230q122 0 169 -58t29 -162l-8 -51h-193l13 70q9 37 -27 37q-37 0 -49 -70l-23 -131q45 55 125 55q76 0 106.5 -44.5t16.5 -123.5zM1102 2l31 180h108l53 301h-86l25 144q104 9 143 112h154l-98 -557h100l-31 -180h-399z
M489 115l566 577l53 -43l-371 -702zM1810 154q36 0 45 39l15 81q9 41 -31 41q-29 0 -43 -14l-12 -72q-8 -41 -2.5 -58t28.5 -17z" />
    <glyph glyph-name="thirteensixteenths" horiz-adv-x="2250" 
d="M1217 860l370 672l246 -154l-557 -561zM862 721q-131 0 -182.5 53t-30.5 158q3 11 5.5 26t4.5 26t3 13h192l-8 -51q-5 -27 1.5 -38t26.5 -11q30 0 39 39l13 72q2 14 -6.5 21t-28.5 7h-57l26 148h60q40 0 43 30l10 62q9 39 -29 39q-33 0 -41 -35l-8 -55h-188l4 22l10 56
q18 89 75 135.5t167 46.5q118 0 169 -51t33 -144l-12 -63q-15 -86 -90 -111q75 -29 55 -133l-14 -84q-15 -84 -71 -131t-171 -47zM160 737l30 181h109l53 301h-86l25 143q104 9 143 113h154l-99 -557h101l-31 -181h-399zM2066 172q-14 -88 -72.5 -137t-162.5 -49
q-135 0 -187.5 63t-29.5 195l49 276q40 230 262 230q122 0 169.5 -58.5t29.5 -161.5l-8 -51h-193l12 70q9 37 -26 37q-37 0 -49 -70l-23 -131q45 55 125 55q76 0 106.5 -44.5t16.5 -123.5zM1126 2l31 180h109l53 301h-86l24 144q105 9 144 112h153l-98 -557h100l-30 -180
h-400zM514 115l565 577l54 -43l-371 -702zM1835 154q36 0 45 39l14 81q9 41 -30 41q-29 0 -43 -14l-13 -72q-8 -41 -2 -58t29 -17z" />
    <glyph glyph-name="fifteensixteenths" horiz-adv-x="2250" 
d="M1217 860l370 672l246 -154l-557 -561zM160 737l30 181h109l53 301h-86l25 143q104 9 143 113h154l-99 -557h101l-31 -181h-399zM858 723q-243 0 -201 227l11 58h196l-12 -68q-10 -43 22 -43q30 0 39 39l21 121q9 37 -27 37q-29 0 -41 -25l-8 -16l-172 47l111 375h389
l-2 -9q-11 -58 -29 -100q-17 -32 -53.5 -43.5t-110.5 -11.5h-69l-29 -101q37 37 92 37q186 0 145 -194l-24 -140q-18 -95 -77 -142.5t-171 -47.5zM2066 172q-14 -88 -72.5 -137t-162.5 -49q-135 0 -187.5 63t-29.5 195l49 276q40 230 262 230q122 0 169.5 -58.5t29.5 -161.5
l-8 -51h-193l12 70q9 37 -26 37q-37 0 -49 -70l-23 -131q45 55 125 55q76 0 106.5 -44.5t16.5 -123.5zM1126 2l31 180h109l53 301h-86l24 144q105 9 144 112h153l-98 -557h100l-30 -180h-400zM514 115l565 577l54 -43l-371 -702zM1835 154q36 0 45 39l14 81q9 41 -30 41
q-29 0 -43 -14l-13 -72q-8 -41 -2 -58t29 -17z" />
    <glyph glyph-name="mediumblackcircle" horiz-adv-x="1329" 
d="M666 -20q-191 0 -326 79q-142 78 -219.5 218t-77.5 321q0 173 78 320q79 142 220 221.5t325 79.5q188 0 325 -80q142 -79 220.5 -219t78.5 -322q0 -173 -78 -317q-80 -142 -220 -221.5t-326 -79.5z" />
    <glyph glyph-name="ballotboxwithx" horiz-adv-x="1378" 
d="M92 1198h1198v-1198h-1198v1198zM881 403v394h-379v-394h379zM692 537l-94 -97l-61 62l94 98l-94 96l61 62l94 -96l94 96l64 -60l-96 -100l94 -96l-62 -62z" />
    <glyph glyph-name="ttfautohint" horiz-adv-x="616" 
 />
    </font>
</defs>
</svg>
