<?xml version="1.0" encoding="UTF-8"?>
<svg id="Capa_1" data-name="Capa 1" xmlns="http://www.w3.org/2000/svg" viewBox="0 0 586.3 181.82">
  <defs>
    <style>
      .cls-1 {
        fill: #333334;
      }

      .cls-2 {
        fill: #76bc21;
      }
    </style>
  </defs>
  <g>
    <path class="cls-1" d="M0,167.81V45.23h32.34l3.38,19.23c6.55-13.31,18.6-21.77,35.93-21.77,19.02,0,30.64,8.03,36.35,22.4,6.55-13.95,18.39-22.4,36.56-22.4,27.26,0,41,16.7,41,46.5v78.62h-38.46v-67.21c0-15.01-3.8-24.73-17.33-24.73s-17.54,10.14-17.54,25.15v66.78h-38.46v-67.63c0-14.16-3.38-24.3-16.91-24.3s-18.18,10.57-18.18,27.05v64.88H0Z"/>
    <path class="cls-2" d="M202.04,19.23c0-14.37,7.4-19.23,23.04-19.23s23.04,4.86,23.04,19.23-7.19,19.02-23.04,19.02c-16.91,0-23.04-4.65-23.04-19.02"/>
    <path class="cls-1" d="M309.4,170.13c-29.8,0-48.19-21.13-48.19-63.4v-3.59c0-13.95,2.11-24.94,6.34-34.03,8.24-17.75,23.46-26.21,42.06-26.21s29.38,7.4,35.51,19.87V5.07h37.83v162.73h-32.76l-3.59-21.35c-6.13,14.37-18.18,23.67-37.2,23.67M345.54,106.52v-2.75c0-18.6-8.88-29.16-22.82-29.16s-22.82,9.93-22.82,29.16v2.75c0,22.19,9.09,30.86,22.19,30.86,14.16,0,23.46-10.14,23.46-30.86"/>
    <path class="cls-2" d="M558.04,52.83c0-7.68,6.31-13.9,14.13-13.9s14.13,6.22,14.13,13.9-6.31,13.91-14.13,13.91-14.13-6.22-14.13-13.91M583.1,52.83c0-6.07-5-10.98-10.93-10.98s-10.94,4.91-10.94,10.98,5,10.99,10.94,10.99,10.93-4.92,10.93-10.99M568.94,54.18v5.5c0,.75-.43,1.23-1.3,1.23-.83,0-1.29-.47-1.29-1.23v-13.8c0-.58.29-.8.89-.8h5.17c3.91,0,5.91,1.1,5.91,4.56,0,3-1.81,4.14-4.02,4.41l3.48,5.22c.14.24.4.7.4.96,0,.42-.79.66-1.47.66-.76,0-1.17-.25-1.57-.85l-3.71-5.87h-2.49ZM571.91,51.86c1.99,0,3.82-.13,3.82-2.4,0-1.92-1.91-2.08-3.6-2.08h-3.2v4.48h2.97Z"/>
    <path class="cls-1" d="M209.75,47.34c4.86.63,11.2,1.06,15.43,1.06,2.33,0,4.65-.21,7.4-.42,5.71-.21,10.99-1.27,12.47-2.11v121.94h-39.94V46.07c.85.63,2.11,1.06,4.65,1.27"/>
  </g>
  <g>
    <path class="cls-2" d="M476.54,80.59c-10.7,0-17.08,5.27-19,16.44h36.55c-1.28-10.54-6.7-16.44-17.56-16.44Z"/>
    <path class="cls-2" d="M475.74,32.2c-42.02,0-76.09,33.5-76.09,74.81s34.07,74.81,76.09,74.81,76.09-33.49,76.09-74.81-34.07-74.81-76.09-74.81ZM522.83,115.23h-65.29c1.44,11.49,7.66,17.24,19,17.24,8.14,0,12.77-3.51,14.84-8.78h30.81c-5.11,19.47-19.31,31.77-46.45,31.77-32.24,0-47.09-17.72-47.09-46.45v-2.71c0-10.06,1.92-18.52,5.91-25.54,7.98-14.37,22.35-22.19,41.66-22.19,10.86,0,19.79,2.07,26.66,6.38,13.73,8.62,19.95,22.99,19.95,39.91v10.38Z"/>
  </g>
</svg>