<svg width="104" height="38" viewBox="0 0 104 38" fill="none" xmlns="http://www.w3.org/2000/svg">
<g clip-path="url(#clip0_1108_24196)">
<path d="M42.9867 3.24237C42.9867 5.03545 41.5374 6.48475 39.7443 6.48475C37.9512 6.48475 36.502 5.03545 36.502 3.24237C36.502 1.44929 37.9512 0 39.7443 0C41.5374 0 42.9867 1.44929 42.9867 3.24237Z" fill="#76C043"/>
<path d="M87.9486 14.8637C86.6274 14.8637 85.5421 15.3221 84.6927 16.2321C83.8434 17.1488 83.3311 18.497 83.149 20.2901H92.7616C92.6335 18.4768 92.1482 17.1151 91.2988 16.2119C90.4494 15.3086 89.3372 14.8569 87.9486 14.8569V14.8637Z" fill="#76C043"/>
<path d="M87.9553 6.76785C79.5426 6.76785 72.7208 13.5896 72.7208 22.0023C72.7208 30.4149 79.5426 37.2367 87.9553 37.2367C96.3679 37.2367 103.19 30.4149 103.19 22.0023C103.19 13.5896 96.3679 6.76785 87.9553 6.76785ZM83.877 26.5052C84.3489 27.422 84.9825 28.1163 85.7645 28.5882C86.5464 29.0533 87.4093 29.2892 88.3597 29.2892C88.9934 29.2892 89.5731 29.2151 90.0989 29.0668C90.6247 28.9185 91.1302 28.6825 91.6223 28.3657C92.1144 28.0489 92.5728 27.7051 92.984 27.3478C93.3952 26.9838 93.9412 26.4917 94.5951 25.8716C94.8647 25.6356 95.2557 25.521 95.7612 25.521C96.3072 25.521 96.7454 25.6693 97.0824 25.9727C97.4195 26.2693 97.588 26.694 97.588 27.2332C97.588 27.7118 97.3993 28.2781 97.0218 28.9185C96.6443 29.5588 96.0781 30.1723 95.3231 30.7655C94.5681 31.3587 93.6109 31.844 92.4649 32.235C91.319 32.6259 90.0045 32.8214 88.5148 32.8214C85.1106 32.8214 82.4614 31.8507 80.5672 29.9026C78.673 27.9612 77.7293 25.3188 77.7293 21.9821C77.7293 20.4114 77.9585 18.9554 78.4304 17.614C78.8955 16.2725 79.5763 15.1198 80.4729 14.1559C81.3694 13.1987 82.4682 12.4639 83.7759 11.9516C85.0836 11.4393 86.5329 11.1831 88.1305 11.1831C90.2 11.1831 91.9796 11.6213 93.4626 12.4976C94.9456 13.3739 96.0578 14.5064 96.7926 15.895C97.5341 17.2837 97.9048 18.6992 97.9048 20.1351C97.9048 21.4698 97.5206 22.3393 96.7589 22.7303C95.9972 23.128 94.9186 23.3235 93.5367 23.3235H83.1625C83.176 24.5301 83.4186 25.5952 83.8905 26.512L83.877 26.5052Z" fill="#76C043"/>
<path d="M20.0407 22.4944V30.7789C20.0407 32.0867 19.7576 33.0709 19.1981 33.7247C18.6386 34.3786 17.8903 34.7089 16.9668 34.7089C16.0433 34.7089 15.349 34.3786 14.7963 33.7247C14.2435 33.0709 13.9604 32.0867 13.9604 30.7789V20.8496C13.9604 19.2857 13.9132 18.0656 13.8121 17.196C13.711 16.3264 13.4346 15.6187 12.9829 15.0592C12.5313 14.5064 11.8235 14.2233 10.8528 14.2233C8.9047 14.2233 7.62393 14.9243 7.01051 16.3264C6.39035 17.7286 6.08701 19.7373 6.08701 22.3528V30.7722C6.08701 32.0665 5.81063 33.0439 5.25113 33.7112C4.69838 34.3718 3.96362 34.7021 3.0536 34.7021C2.14358 34.7021 1.42904 34.3718 0.862808 33.7112C0.289832 33.0506 0.00671387 32.0665 0.00671387 30.7789V12.9493C0.00671387 11.7831 0.262868 10.8865 0.775177 10.2799C1.28749 9.67318 1.96158 9.3631 2.79745 9.3631C3.63332 9.3631 4.2737 9.64622 4.81972 10.2192C5.35899 10.7854 5.63537 11.5741 5.63537 12.5785V13.1717C6.65998 11.8775 7.76549 10.927 8.93167 10.3203C10.1046 9.71363 11.4056 9.41028 12.8414 9.41028C14.2772 9.41028 15.6119 9.72037 16.6837 10.3473C17.7555 10.9742 18.6386 11.9179 19.3329 13.1784C20.3373 11.8977 21.4091 10.954 22.555 10.3338C23.701 9.72037 24.975 9.41028 26.3636 9.41028C27.9882 9.41028 29.3903 9.74733 30.5632 10.4147C31.7361 11.082 32.6192 12.0392 33.1989 13.293C33.7045 14.4188 33.9539 16.1916 33.9539 18.6116V30.7789C33.9539 32.0867 33.6708 33.0709 33.1113 33.7247C32.545 34.3786 31.8035 34.7089 30.88 34.7089C29.9565 34.7089 29.2555 34.3786 28.6825 33.718C28.1163 33.0574 27.8264 32.0732 27.8264 30.7789V20.3036C27.8264 18.9621 27.7725 17.8903 27.6646 17.0814C27.5568 16.2793 27.2602 15.5984 26.7748 15.0524C26.2962 14.5064 25.5615 14.23 24.584 14.23C23.7954 14.23 23.0471 14.4727 22.3393 14.958C21.6315 15.4434 21.0788 16.0973 20.6878 16.9196C20.2496 17.9712 20.0339 19.8317 20.0339 22.4876L20.0407 22.4944Z" fill="#565656"/>
<path d="M64.0117 31.1564V30.543C63.1758 31.5002 62.3535 32.2821 61.5378 32.8821C60.7289 33.482 59.8458 33.9404 58.8954 34.2505C57.9449 34.5606 56.9068 34.7156 55.7811 34.7156C54.2913 34.7156 52.9162 34.3988 51.6489 33.7719C50.3749 33.1382 49.2829 32.235 48.3526 31.0688C47.4291 29.8959 46.7213 28.5207 46.2494 26.9366C45.7708 25.3525 45.5349 23.6403 45.5349 21.8C45.5349 17.9105 46.4786 14.8704 48.3796 12.6931C50.2805 10.5158 52.7814 9.43049 55.8755 9.43049C57.6685 9.43049 59.1785 9.74057 60.4121 10.354C61.6389 10.9742 62.8455 11.9179 64.0117 13.2054V3.92991C64.0117 2.65588 64.2679 1.69193 64.7734 1.03807C65.2857 0.384198 66.007 0.053894 66.9508 0.053894C67.8945 0.053894 68.6225 0.357235 69.1281 0.957175C69.6404 1.55712 69.8965 2.44017 69.8965 3.61309V31.1564C69.8965 32.3428 69.6202 33.2326 69.0741 33.8258C68.5281 34.419 67.8203 34.7156 66.9575 34.7156C66.0947 34.7156 65.4003 34.4123 64.8476 33.7921C64.2948 33.1787 64.0185 32.2956 64.0185 31.1564H64.0117ZM51.7568 22.009C51.7568 23.701 52.0197 25.1368 52.5454 26.3232C53.0712 27.5096 53.7858 28.3994 54.7025 28.9993C55.6193 29.5993 56.6102 29.9026 57.6955 29.9026C58.7808 29.9026 59.7919 29.6195 60.6952 29.0465C61.5985 28.4803 62.3265 27.604 62.8658 26.4243C63.405 25.2446 63.6747 23.7751 63.6747 22.009C63.6747 20.3507 63.405 18.9284 62.8658 17.7353C62.3265 16.5421 61.5985 15.6321 60.675 14.9985C59.7515 14.3648 58.7471 14.0547 57.6551 14.0547C56.563 14.0547 55.4912 14.3783 54.5947 15.0254C53.6981 15.6726 52.9971 16.5961 52.505 17.8094C52.0062 19.0161 51.7635 20.4182 51.7635 22.0158L51.7568 22.009Z" fill="#565656"/>
<path d="M39.6163 9.26876C39.6163 9.26876 36.6772 9.02609 36.6772 12.8549V31.3048C36.6772 31.3048 36.7784 34.6078 39.8724 34.6078C42.9665 34.6078 42.8047 31.2778 42.8047 31.2778V12.8617C42.8047 12.8617 42.9058 9.38336 39.6095 9.26202L39.6163 9.26876Z" fill="#565656"/>
</g>
<defs>
<clipPath id="clip0_1108_24196">
<rect width="103.19" height="37.23" fill="white"/>
</clipPath>
</defs>
</svg>
